<svg width="188" height="188" viewBox="0 0 188 188" fill="none" xmlns="http://www.w3.org/2000/svg">
<g filter="url(#filter0_n_6161_134)">
<path d="M17.3923 151.164C27.414 148.625 37.5987 154.683 40.1404 164.695C42.6818 174.707 36.618 184.882 26.5964 187.421C16.5747 189.96 6.39099 183.902 3.84937 173.89C1.30789 163.878 7.37063 153.703 17.3923 151.164ZM118.192 150.167C128.531 150.167 136.912 158.54 136.912 168.87C136.912 179.199 128.531 187.573 118.192 187.573C107.853 187.573 99.4714 179.199 99.4714 168.87C99.4715 158.54 107.853 150.168 118.192 150.167ZM166.01 150.167C176.348 150.168 184.73 158.54 184.73 168.87C184.73 179.199 176.349 187.573 166.01 187.573C155.67 187.573 147.289 179.199 147.289 168.87C147.289 158.54 155.671 150.167 166.01 150.167ZM65.9412 149.333C75.9987 146.939 86.0949 153.144 88.491 163.192C90.8867 173.24 84.6753 183.325 74.6179 185.719C64.5604 188.113 54.4642 181.908 52.0681 171.86C49.6724 161.812 55.8838 151.726 65.9412 149.333ZM118.192 103.669C128.531 103.669 136.912 112.043 136.912 122.373C136.912 132.702 128.531 141.076 118.192 141.076C107.853 141.076 99.4714 132.702 99.4714 122.373C99.4716 112.044 107.853 103.67 118.192 103.669ZM166.01 103.669C176.348 103.669 184.73 112.044 184.73 122.373C184.73 132.702 176.349 141.076 166.01 141.076C155.67 141.076 147.289 132.702 147.289 122.373C147.289 112.043 155.671 103.669 166.01 103.669ZM20.5574 103.23C30.8505 102.258 39.9847 109.807 40.9578 120.09C41.9307 130.374 34.3747 139.498 24.0818 140.47C13.7887 141.442 4.65646 133.894 3.68335 123.611C2.71037 113.328 10.2644 104.202 20.5574 103.23ZM68.5535 102.604C78.8416 101.582 88.0115 109.085 89.0349 119.364C90.0582 129.642 82.5468 138.803 72.2585 139.826C61.9704 140.848 52.8004 133.344 51.7771 123.066C50.754 112.787 58.2653 103.626 68.5535 102.604ZM17.406 59.2837C27.4277 56.7446 37.6124 62.8029 40.1541 72.8149C42.6955 82.8273 36.6309 93.0024 26.6091 95.5415C16.5876 98.0803 6.40462 92.0222 3.86304 82.0103C1.32155 71.9979 7.38425 61.8228 17.406 59.2837ZM118.192 58.2808C128.531 58.2808 136.912 66.6548 136.912 76.9839C136.912 87.3131 128.531 95.687 118.192 95.687C107.853 95.6869 99.4714 87.3131 99.4714 76.9839C99.4716 66.6549 107.853 58.2809 118.192 58.2808ZM166.01 58.2808C176.348 58.2808 184.73 66.6548 184.73 76.9839C184.73 87.3131 176.349 95.687 166.01 95.687C155.67 95.687 147.289 87.3131 147.289 76.9839C147.289 66.6548 155.671 58.2808 166.01 58.2808ZM65.9207 57.4565C75.9782 55.0629 86.0744 61.2689 88.4705 71.3169C90.8662 81.3648 84.6548 91.4505 74.5974 93.8442C64.54 96.238 54.4438 90.0336 52.0476 79.9858C49.6516 69.9378 55.8631 59.8503 65.9207 57.4565ZM7.08374 21.1499C12.8023 12.5446 24.4214 10.2006 33.0349 15.9136C41.6484 21.6267 43.9955 33.2339 38.2771 41.8394C32.5586 50.4448 20.9405 52.7888 12.3269 47.0757C3.71342 41.3625 1.36525 29.7553 7.08374 21.1499ZM118.192 11.7808C128.531 11.7808 136.912 20.1546 136.912 30.4839C136.912 40.813 128.531 49.186 118.192 49.186C107.853 49.1859 99.4716 40.8129 99.4714 30.4839C99.4714 20.1547 107.853 11.7809 118.192 11.7808ZM166.01 11.7808C176.349 11.7808 184.73 20.1547 184.73 30.4839C184.73 40.813 176.348 49.186 166.01 49.186C155.671 49.186 147.289 40.813 147.289 30.4839C147.289 20.1546 155.67 11.7808 166.01 11.7808ZM56.7078 17.2437C64.0185 9.93977 75.8725 9.9398 83.1833 17.2437C90.4941 24.5475 90.4941 36.39 83.1833 43.6938C75.8726 50.9977 64.0186 50.9977 56.7078 43.6938C49.3973 36.39 49.3972 24.5475 56.7078 17.2437Z" fill="url(#paint0_linear_6161_134)"/>
</g>
<defs>
<filter id="filter0_n_6161_134" x="0" y="0" width="188" height="188" filterUnits="userSpaceOnUse" color-interpolation-filters="sRGB">
<feFlood flood-opacity="0" result="BackgroundImageFix"/>
<feBlend mode="normal" in="SourceGraphic" in2="BackgroundImageFix" result="shape"/>
<feTurbulence type="fractalNoise" baseFrequency="2 2" stitchTiles="stitch" numOctaves="3" result="noise" seed="222" />
<feColorMatrix in="noise" type="luminanceToAlpha" result="alphaNoise" />
<feComponentTransfer in="alphaNoise" result="coloredNoise1">
<feFuncA type="discrete" tableValues="1 1 1 1 1 1 1 1 1 1 1 1 1 1 1 1 1 1 1 1 1 1 1 1 1 1 1 1 1 1 1 1 1 1 1 1 1 1 1 1 1 1 1 1 1 1 1 1 1 1 1 0 0 0 0 0 0 0 0 0 0 0 0 0 0 0 0 0 0 0 0 0 0 0 0 0 0 0 0 0 0 0 0 0 0 0 0 0 0 0 0 0 0 0 0 0 0 0 0 0 "/>
</feComponentTransfer>
<feComposite operator="in" in2="shape" in="coloredNoise1" result="noise1Clipped" />
<feFlood flood-color="#F24F4A" result="color1Flood" />
<feComposite operator="in" in2="noise1Clipped" in="color1Flood" result="color1" />
<feMerge result="effect1_noise_6161_134">
<feMergeNode in="shape" />
<feMergeNode in="color1" />
</feMerge>
</filter>
<linearGradient id="paint0_linear_6161_134" x1="18.6854" y1="75.6307" x2="145.022" y2="205.714" gradientUnits="userSpaceOnUse">
<stop stop-color="#F24F4A" stop-opacity="0.160784"/>
<stop offset="1" stop-color="#F24F4A"/>
</linearGradient>
</defs>
</svg>
