<svg width="693" height="352" viewBox="0 0 693 352" fill="none" xmlns="http://www.w3.org/2000/svg">
<rect x="0.5" y="0.5" width="692" height="350.095" stroke="#EDEFF0"/>
<path d="M50.6927 159.696C64.8678 159.696 76.359 148.205 76.359 134.03C76.359 119.855 64.8678 108.364 50.6927 108.364C36.5176 108.364 25.0264 119.855 25.0264 134.03C25.0264 148.205 36.5176 159.696 50.6927 159.696Z" fill="#E5243B"/>
<path d="M37.9038 120.796H37.9261V126.331H39.1313V119.1H38.1716L37.0557 120.416V121.689L37.9038 120.796ZM62.1863 134.209C62.7442 134.209 63.1683 133.763 63.1683 133.205C63.1683 132.647 62.7219 132.201 62.1863 132.201C61.6283 132.201 61.1819 132.647 61.1819 133.205C61.1819 133.763 61.6283 134.209 62.1863 134.209ZM63.3468 134.589H61.0257C60.3561 134.656 59.8205 135.214 59.8205 135.905V138.651C59.8205 138.851 59.999 139.03 60.1999 139.03C60.4231 139.03 60.5793 138.851 60.5793 138.651V136.285C60.5793 136.196 60.6016 136.084 60.7579 136.084C60.8695 136.084 60.8918 136.196 60.8918 136.285V143.382C60.8918 143.695 61.1373 143.94 61.4497 143.94C61.7622 143.94 62.0077 143.695 62.0077 143.382V139.276C62.0077 139.231 62.03 139.119 62.1639 139.119C62.2978 139.119 62.3202 139.231 62.3202 139.276V143.36C62.3202 143.672 62.5657 143.918 62.8781 143.918C63.1906 143.918 63.4361 143.672 63.4361 143.36V136.263C63.4361 136.196 63.4584 136.062 63.57 136.062C63.7262 136.062 63.7486 136.173 63.7486 136.263V138.628C63.7486 138.829 63.9271 139.008 64.128 139.008C64.3512 139.008 64.5074 138.829 64.5074 138.628V135.905C64.552 135.214 64.0164 134.633 63.3468 134.589ZM54.3302 134.678C54.8435 134.678 55.2675 134.254 55.2675 133.741C55.2675 133.227 54.8435 132.803 54.3302 132.803C53.8169 132.803 53.3928 133.227 53.3928 133.741C53.3928 134.254 53.8169 134.678 54.3302 134.678ZM55.4461 136.396C55.58 136.352 55.6023 136.53 55.6023 136.53L56.2272 138.651C56.2272 138.651 56.3388 139.097 56.7405 138.985C57.1423 138.874 57.0084 138.405 57.0084 138.405L56.2272 135.861C56.2272 135.861 55.9371 135.124 55.3345 135.124H53.3259C52.701 135.124 52.4331 135.861 52.4331 135.861L51.652 138.405C51.652 138.405 51.5181 138.874 51.9198 138.985C52.3215 139.097 52.4331 138.651 52.4331 138.651L53.0581 136.53C53.0581 136.53 53.1027 136.374 53.2143 136.396C53.3482 136.441 53.2812 136.597 53.2812 136.597L52.1876 140.592H53.2143V143.449C53.2143 143.717 53.4375 143.94 53.7053 143.94C53.9731 143.94 54.1963 143.717 54.1963 143.449V140.592H54.4641V143.449C54.4641 143.717 54.6873 143.94 54.9551 143.94C55.2229 143.94 55.4461 143.717 55.4461 143.449V140.592H56.4727L55.3791 136.597C55.3791 136.597 55.3345 136.441 55.4461 136.396ZM48.6836 134.678C49.197 134.678 49.621 134.254 49.621 133.741C49.621 133.227 49.197 132.803 48.6836 132.803C48.1703 132.803 47.7462 133.227 47.7462 133.741C47.7462 134.254 48.1703 134.678 48.6836 134.678ZM50.5807 135.861C50.5807 135.861 50.3129 135.124 49.688 135.124H47.6793C47.0544 135.124 46.7865 135.861 46.7865 135.861L46.0054 138.405C46.0054 138.405 45.9831 138.472 45.9831 138.561C45.9384 138.494 45.8492 138.45 45.7599 138.45C45.6483 138.45 45.559 138.494 45.5144 138.584C45.4921 138.606 45.135 139.253 45.0011 139.365C44.8672 139.499 44.7556 139.476 44.7556 139.476H43.8182C43.8182 139.476 43.7066 139.499 43.5727 139.365C43.4611 139.253 43.0817 138.584 43.0594 138.584C43.0147 138.494 42.9254 138.45 42.8138 138.45C42.7246 138.45 42.6353 138.494 42.5907 138.584V135.905C42.5907 135.214 42.055 134.656 41.3855 134.589H39.0643C38.3948 134.656 37.8591 135.214 37.8591 135.905V138.651C37.8591 138.807 37.9484 138.918 38.06 138.985C38.06 138.985 38.0377 139.008 38.0377 139.03L37.1449 143.717C37.1226 143.806 37.1896 143.873 37.2565 143.895H37.2788C37.3458 143.895 37.4128 143.851 37.4128 143.784L38.3055 139.097V139.052C38.4841 139.008 38.5956 138.852 38.5956 138.673V136.307C38.5956 136.218 38.618 136.106 38.7742 136.106C38.8858 136.106 38.9081 136.218 38.9081 136.307V143.404C38.9081 143.717 39.1536 143.962 39.4661 143.962C39.7785 143.962 40.024 143.717 40.024 143.404V139.276C40.024 139.231 40.0463 139.119 40.1803 139.119C40.3142 139.119 40.3365 139.231 40.3365 139.276V143.36C40.3365 143.672 40.582 143.918 40.8945 143.918C41.2069 143.918 41.4524 143.672 41.4524 143.36V136.263C41.4524 136.196 41.4747 136.062 41.5863 136.062C41.7426 136.062 41.7649 136.173 41.7649 136.263V138.628C41.7649 138.829 41.9434 139.008 42.1443 139.008C42.3005 139.008 42.4344 138.918 42.5014 138.785C42.5014 138.807 42.5237 138.829 42.5237 138.829L43.3049 140.258C43.3049 140.258 43.3495 140.347 43.3495 140.436V140.726L42.9254 142.266H43.3495V143.516C43.3495 143.739 43.528 143.895 43.7289 143.895C43.9521 143.895 44.1083 143.717 44.1083 143.516V142.311V142.266H44.3315V143.516C44.3315 143.739 44.5101 143.895 44.7109 143.895C44.9341 143.895 45.0903 143.717 45.0903 143.516V142.266H45.5144L45.0903 140.726V140.458C45.0903 140.369 45.135 140.28 45.135 140.28L45.8715 138.963C45.8715 138.963 45.9161 138.874 45.9384 138.785C45.9831 138.874 46.05 138.941 46.1616 138.985C46.5634 139.097 46.675 138.651 46.675 138.651L47.2999 136.53C47.2999 136.53 47.3445 136.374 47.4561 136.396C47.59 136.441 47.5231 136.597 47.5231 136.597L46.4295 140.592H47.4561V143.449C47.4561 143.717 47.6793 143.94 47.9471 143.94C48.2149 143.94 48.4381 143.717 48.4381 143.449V140.592H48.7059V143.449C48.7059 143.717 48.9291 143.94 49.197 143.94C49.4648 143.94 49.688 143.717 49.688 143.449V140.592H50.7146L49.621 136.597C49.621 136.597 49.5764 136.419 49.688 136.396C49.8219 136.352 49.8442 136.53 49.8442 136.53L50.4691 138.651C50.4691 138.651 50.5807 139.097 50.9824 138.985C51.3842 138.874 51.2503 138.405 51.2503 138.405L50.5807 135.861ZM58.4367 138.985C58.8608 138.985 59.2179 138.628 59.2179 138.204C59.2179 137.78 58.8608 137.423 58.4367 137.423C58.0127 137.423 57.6556 137.78 57.6556 138.204C57.6556 138.651 57.9904 138.985 58.4367 138.985ZM60.2892 141.217C60.2892 141.195 59.7982 139.99 59.7312 139.811C59.5527 139.298 59.2402 139.298 58.9277 139.298H58.4367H57.8341C57.4324 139.32 57.2985 139.521 56.8521 140.682C56.7852 140.838 56.562 141.396 56.562 141.418C56.5173 141.507 56.495 141.708 56.6736 141.798C56.8968 141.887 57.0084 141.686 57.0084 141.686L57.4324 140.325C57.4324 140.325 57.4994 140.235 57.4994 140.325V143.516C57.4994 143.739 57.6779 143.918 57.9011 143.918C58.1243 143.918 58.3028 143.739 58.3028 143.516V142.244C58.3028 142.244 58.2805 142.065 58.4144 142.065C58.5483 142.065 58.526 142.244 58.526 142.244V143.516C58.526 143.739 58.7046 143.918 58.9277 143.918C59.1509 143.918 59.3295 143.739 59.3295 143.516V140.325C59.3295 140.235 59.3741 140.302 59.3741 140.302L59.7089 141.24C59.7089 141.24 59.8428 141.664 59.8874 141.664C60.0437 141.731 60.2222 141.664 60.2669 141.507C60.3561 141.418 60.3338 141.307 60.2892 141.217ZM40.2249 134.209C40.7829 134.209 41.2292 133.763 41.2292 133.205C41.2292 132.647 40.7829 132.201 40.2249 132.201C39.6669 132.201 39.2429 132.647 39.2429 133.205C39.2429 133.763 39.6893 134.209 40.2249 134.209Z" fill="white"/>
<path d="M44.2881 138.984C44.7121 138.984 45.0692 138.627 45.0692 138.203C45.0692 137.779 44.7121 137.422 44.2881 137.422C43.864 137.422 43.5069 137.779 43.5069 138.203C43.5069 138.65 43.864 138.984 44.2881 138.984ZM43.6408 120.125V121.978H43.2168V119.054H43.7078L44.2434 120.728V119.054H44.6452V121.978H44.2211L43.6408 120.125ZM44.98 121.219V119.79C44.98 119.322 45.2031 119.009 45.7165 119.009C46.2298 119.009 46.4753 119.344 46.4753 119.79V121.219C46.4753 121.665 46.2521 122 45.7165 122C45.2031 122 44.98 121.665 44.98 121.219ZM45.9843 121.286V119.701C45.9843 119.523 45.9173 119.389 45.7388 119.389C45.5602 119.389 45.4933 119.523 45.4933 119.701V121.286C45.4933 121.464 45.5602 121.598 45.7388 121.598C45.895 121.598 45.9843 121.464 45.9843 121.286ZM43.2391 123.384H43.9756C44.4666 123.384 44.6452 123.629 44.6452 124.031V124.656C44.6452 125.058 44.4666 125.325 43.9756 125.325H43.7301V126.33H43.2391V123.384ZM43.7301 123.785V124.946H43.9087C44.0872 124.946 44.1542 124.857 44.1542 124.701V124.031C44.1542 123.875 44.0872 123.785 43.9087 123.785H43.7301ZM44.9353 125.571V124.143C44.9353 123.674 45.1585 123.361 45.6718 123.361C46.1852 123.361 46.4307 123.696 46.4307 124.143V125.571C46.4307 126.017 46.2075 126.352 45.6718 126.352C45.1585 126.352 44.9353 126.017 44.9353 125.571ZM45.9397 125.638V124.053C45.9397 123.875 45.8727 123.741 45.6942 123.741C45.5156 123.741 45.4487 123.875 45.4487 124.053V125.638C45.4487 125.816 45.5156 125.95 45.6942 125.95C45.8504 125.95 45.9397 125.816 45.9397 125.638ZM48.2608 123.384L47.7028 126.307H47.1672L46.6092 123.384H47.1002L47.435 125.437L47.7921 123.384H48.2608ZM48.5063 123.384H49.6892V123.785H48.9973V124.634H49.4883V125.035H48.9973V125.928H49.6892V126.33H48.5063V123.384ZM50.4703 124.968V126.307H49.9793V123.384H50.6935C51.1845 123.384 51.3631 123.629 51.3631 124.031V124.41C51.3631 124.723 51.2515 124.901 50.9613 124.968L51.43 126.307H50.9167L50.4703 124.968ZM50.4703 123.785V124.701H50.6266C50.8051 124.701 50.8721 124.611 50.8721 124.455V124.031C50.8721 123.875 50.8051 123.785 50.6266 123.785H50.4703ZM51.5863 123.384H52.903V123.785H52.5013V126.33H52.0103V123.808H51.6086L51.5863 123.384ZM54.1306 125.192V126.307H53.6396V125.192L53.0816 123.384H53.5949L53.8851 124.5L54.1752 123.384H54.6439L54.1306 125.192Z" fill="white"/>
<path d="M77.353 209.355C87.5316 209.355 95.7831 201.103 95.7831 190.925C95.7831 180.746 87.5316 172.495 77.353 172.495C67.1743 172.495 58.9229 180.746 58.9229 190.925C58.9229 201.103 67.1743 209.355 77.353 209.355Z" fill="#DDA63A"/>
<path d="M105.167 159.184C111.634 159.184 116.876 153.942 116.876 147.475C116.876 141.008 111.634 135.766 105.167 135.766C98.7003 135.766 93.458 141.008 93.458 147.475C93.458 153.942 98.7003 159.184 105.167 159.184Z" fill="#4C9F38"/>
<path d="M117.452 184.438C119.871 184.438 121.832 182.477 121.832 180.059C121.832 177.64 119.871 175.68 117.452 175.68C115.034 175.68 113.073 177.64 113.073 180.059C113.073 182.477 115.034 184.438 117.452 184.438Z" fill="#C5192D"/>
<path d="M152.444 265.515C159.531 265.515 165.277 259.769 165.277 252.682C165.277 245.594 159.531 239.849 152.444 239.849C145.356 239.849 139.61 245.594 139.61 252.682C139.61 259.769 145.356 265.515 152.444 265.515Z" fill="#FF3A21"/>
<path d="M121.901 232.582C130.094 232.582 136.736 225.94 136.736 217.747C136.736 209.554 130.094 202.912 121.901 202.912C113.707 202.912 107.065 209.554 107.065 217.747C107.065 225.94 113.707 232.582 121.901 232.582Z" fill="#26BDE2"/>
<path d="M252.631 259.945C317.298 259.945 369.722 207.522 369.722 142.854C369.722 78.1866 317.298 25.7632 252.631 25.7632C187.963 25.7632 135.54 78.1866 135.54 142.854C135.54 207.522 187.963 259.945 252.631 259.945Z" fill="#FCC30B"/>
<path d="M188.283 79.7266H196.836L189.403 108.236H194.901L202.232 80.3375V75.2466H188.283V79.7266Z" fill="white"/>
<path d="M217.908 88.5848L220.454 75.2466H222.999L225.545 88.5848H223.203L222.795 86.1411H220.454L220.046 88.5848H217.908ZM220.759 84.3084H222.592L221.675 78.9121L220.759 84.3084ZM226.359 75.2466H231.654V77.0793H228.599V80.9484H230.839V82.7812H228.599V88.6866H226.359V75.2466ZM232.57 75.2466H237.865V77.0793H234.81V80.9484H237.05V82.7812H234.81V88.6866H232.57V75.2466ZM238.475 85.123V78.6066C238.475 76.4684 239.494 75.043 241.835 75.043C244.177 75.043 245.297 76.5702 245.297 78.6066V85.123C245.297 87.1593 244.279 88.6866 241.835 88.6866C239.494 88.7884 238.475 87.1593 238.475 85.123ZM243.057 85.5302V78.3011C243.057 77.4866 242.752 76.8757 241.937 76.8757C241.123 76.8757 240.817 77.4866 240.817 78.3011V85.5302C240.817 86.3448 241.123 86.9557 241.937 86.9557C242.752 86.8539 243.057 86.3448 243.057 85.5302ZM248.759 82.4757V88.5848H246.519V75.2466H249.777C252.017 75.2466 252.832 76.3666 252.832 78.1993V79.9302C252.832 81.3557 252.323 82.1702 250.999 82.4757L253.137 88.5848H250.795L248.759 82.4757ZM248.759 77.0793V81.2539H249.472C250.286 81.2539 250.592 80.8466 250.592 80.1339V78.1993C250.592 77.4866 250.286 77.0793 249.472 77.0793H248.759ZM260.774 78.8102V85.0211C260.774 87.0575 259.959 88.5848 257.515 88.5848H254.054V75.2466H257.515C259.857 75.2466 260.774 76.7739 260.774 78.8102ZM257.21 86.7521C258.126 86.7521 258.534 86.243 258.534 85.4284V78.403C258.534 77.5884 258.228 77.0793 257.21 77.0793H256.294V86.7521H257.21ZM261.283 88.5848L263.828 75.2466H266.374L268.919 88.5848H266.577L266.17 86.1411H263.828L263.421 88.5848H261.283ZM264.134 84.3084H265.966L265.05 78.9121L264.134 84.3084ZM269.734 75.2466H272.991C275.231 75.2466 275.944 76.2648 275.944 78.1993V79.523C275.944 80.643 275.537 81.3557 274.621 81.6612C275.741 81.9666 276.25 82.6793 276.25 83.9011V85.6321C276.25 87.5666 275.435 88.5848 273.195 88.5848H269.734V75.2466ZM271.974 80.8466H272.788C273.501 80.8466 273.806 80.4393 273.806 79.7266V78.0975C273.806 77.3848 273.501 76.9775 272.686 76.9775H271.872V80.8466H271.974ZM271.974 82.5775V86.7521H272.991C273.704 86.7521 274.111 86.3448 274.111 85.6321V83.5957C274.111 82.883 273.806 82.4757 272.991 82.4757H271.974V82.5775ZM277.37 75.2466H279.61V86.7521H282.257V88.5848H277.37V75.2466ZM283.275 75.2466H288.671V77.0793H285.515V80.9484H287.755V82.7812H285.515V86.8539H288.671V88.6866H283.275V75.2466ZM291.319 88.5848L293.864 75.2466H296.41L298.955 88.5848H296.613L296.206 86.1411H293.864L293.457 88.5848H291.319ZM294.17 84.3084H296.002L295.086 78.9121L294.17 84.3084ZM301.704 80.1339V88.5848H299.77V75.2466H302.01L304.453 82.883V75.2466H306.286V88.5848H304.351L301.704 80.1339ZM314.228 78.8102V85.0211C314.228 87.0575 313.413 88.5848 310.97 88.5848H307.508V75.2466H310.97C313.413 75.2466 314.228 76.7739 314.228 78.8102ZM310.766 86.7521C311.682 86.7521 312.09 86.243 312.09 85.4284V78.403C312.09 77.5884 311.784 77.0793 310.766 77.0793H309.85V86.7521H310.766Z" fill="white"/>
<path d="M218.214 104.773V98.3586C218.214 96.3222 219.232 94.7949 221.574 94.7949C224.018 94.7949 224.73 96.2204 224.73 98.1549V99.6822H222.694V97.9513C222.694 97.1367 222.388 96.6276 221.574 96.6276C220.759 96.6276 220.454 97.2386 220.454 98.0531V105.18C220.454 105.995 220.759 106.606 221.574 106.606C222.388 106.606 222.694 106.097 222.694 105.282V102.839H224.73V105.18C224.73 107.115 223.916 108.54 221.574 108.54C219.232 108.439 218.214 106.911 218.214 104.773ZM226.156 94.8967H228.396V106.402H231.043V108.235H226.156V94.8967ZM232.265 94.8967H237.559V96.7295H234.505V100.497H236.745V102.329H234.505V106.402H237.559V108.235H232.265V94.8967ZM238.679 108.235L241.225 94.8967H243.77L246.316 108.235H243.974L243.567 105.791H241.225L240.818 108.235H238.679ZM241.53 104.06H243.363L242.447 98.664L241.53 104.06ZM249.268 99.8858V108.235H247.334V94.8967H249.574L252.018 102.533V94.8967H253.85V108.235H251.916L249.268 99.8858ZM259.858 94.8967H265.152V96.7295H262.098V100.497H264.338V102.329H262.098V106.402H265.152V108.235H259.858V94.8967ZM268.41 99.8858V108.235H266.476V94.8967H268.716L271.159 102.533V94.8967H272.992V108.235H271.057L268.41 99.8858ZM274.519 94.8967H279.814V96.7295H276.759V100.497H278.999V102.329H276.759V106.402H279.814V108.235H274.519V94.8967ZM283.479 102.126V108.235H281.239V94.8967H284.497C286.737 94.8967 287.552 96.0167 287.552 97.8495V99.5804C287.552 101.006 287.043 101.82 285.719 102.126L287.857 108.133H285.515L283.479 102.126ZM283.479 96.7295V100.904H284.192C285.006 100.904 285.312 100.497 285.312 99.784V97.8495C285.312 97.1367 285.006 96.7295 284.192 96.7295H283.479ZM292.337 101.108H295.494V108.235H293.865V106.809C293.559 107.828 292.948 108.439 291.726 108.439C289.792 108.439 288.875 106.911 288.875 104.875V98.4604C288.875 96.424 289.894 94.8967 292.235 94.8967C294.679 94.8967 295.392 96.3222 295.392 98.2567V99.4786H293.355V98.1549C293.355 97.3404 293.05 96.8313 292.235 96.8313C291.421 96.8313 291.115 97.4422 291.115 98.2567V105.384C291.115 106.199 291.421 106.809 292.235 106.809C292.948 106.809 293.355 106.402 293.355 105.486V103.144H292.337V101.108ZM301.297 103.144V108.235H299.057V103.144L296.512 94.8967H298.854L300.177 99.9876L301.501 94.8967H303.639L301.297 103.144Z" fill="white"/>
<path d="M253.545 206.491C254.665 206.491 255.479 205.575 255.479 204.658V194.171C255.479 193.255 254.563 192.338 253.545 192.338C252.425 192.338 251.61 193.356 251.61 194.171V204.658C251.61 205.473 252.527 206.491 253.545 206.491ZM253.341 140.92C240.105 140.92 229.312 151.713 229.312 164.949C229.312 178.185 240.105 188.978 253.341 188.978C266.578 188.978 277.37 178.185 277.37 164.949C277.37 151.611 266.679 140.92 253.341 140.92ZM251.61 150.389C251.61 149.575 252.425 148.76 253.443 148.76C254.461 148.76 255.174 149.676 255.174 150.389V158.636C255.174 159.451 254.359 160.265 253.443 160.265C252.425 160.265 251.61 159.349 251.61 158.636V150.389ZM253.341 177.167C246.418 177.167 240.818 171.567 240.818 164.644C240.818 159.044 244.483 154.258 249.574 152.731V157.415C246.927 158.738 245.094 161.487 245.094 164.644C245.094 169.124 248.759 172.789 253.239 172.789C257.719 172.789 261.385 169.124 261.385 164.644C261.385 161.487 259.552 158.738 256.905 157.313V152.629C261.996 154.156 265.661 158.942 265.661 164.542C265.865 171.567 260.265 177.167 253.341 177.167ZM225.85 164.644C225.85 163.524 224.934 162.709 224.018 162.709H213.428C212.512 162.709 211.596 163.625 211.596 164.644C211.596 165.764 212.614 166.578 213.428 166.578H223.916C224.832 166.68 225.85 165.764 225.85 164.644ZM295.188 164.644C295.188 163.524 294.272 162.709 293.356 162.709H282.868C281.952 162.709 281.036 163.625 281.036 164.644C281.036 165.764 282.054 166.578 282.868 166.578H293.356C294.17 166.68 295.188 165.764 295.188 164.644ZM253.341 137.153C254.461 137.153 255.276 136.236 255.276 135.32V124.833C255.276 123.916 254.359 123 253.341 123C252.221 123 251.407 124.018 251.407 124.833V135.218C251.407 136.135 252.323 137.153 253.341 137.153ZM229.414 151C229.923 150.084 229.516 148.76 228.803 148.353L219.639 143.16C218.825 142.753 217.603 142.956 217.094 143.975C216.585 144.891 216.992 146.215 217.705 146.622L226.868 151.815C227.581 152.222 228.905 151.916 229.414 151ZM289.69 185.415C290.199 184.498 289.792 183.175 289.079 182.767L279.916 177.575C279.101 177.167 277.879 177.371 277.37 178.389C276.861 179.305 277.268 180.629 277.981 181.036L287.145 186.229C287.857 186.636 289.079 186.433 289.69 185.415ZM267.087 140.716C268.003 141.225 269.225 140.818 269.734 140.105L274.926 130.942C275.334 130.127 275.13 128.905 274.112 128.396C273.196 127.887 271.872 128.295 271.465 129.007L266.272 138.171C265.865 138.985 266.17 140.207 267.087 140.716ZM232.57 200.993C233.487 201.502 234.708 201.095 235.218 200.382L240.41 191.218C240.818 190.404 240.614 189.182 239.596 188.673C238.679 188.164 237.356 188.571 236.948 189.284L231.756 198.447C231.348 199.16 231.654 200.382 232.57 200.993ZM239.596 140.818C240.512 140.309 240.818 138.985 240.41 138.273L235.218 129.109C234.81 128.295 233.487 127.887 232.57 128.498C231.654 129.007 231.348 130.331 231.756 131.145L236.948 140.309C237.458 140.92 238.679 141.327 239.596 140.818ZM274.214 200.891C275.13 200.382 275.436 199.058 275.028 198.345L269.836 189.182C269.428 188.367 268.105 187.96 267.188 188.571C266.272 189.08 265.967 190.404 266.374 191.218L271.567 200.382C271.974 201.095 273.297 201.502 274.214 200.891ZM277.268 150.898C277.777 151.815 279.101 152.12 279.814 151.713L288.977 146.52C289.792 146.113 290.199 144.789 289.588 143.873C289.079 142.956 287.756 142.651 286.941 143.058L277.777 148.251C277.166 148.76 276.759 149.982 277.268 150.898ZM217.196 185.516C217.705 186.433 219.028 186.738 219.741 186.331L228.905 181.138C229.719 180.731 230.127 179.407 229.516 178.491C229.007 177.575 227.683 177.269 226.868 177.676L217.705 182.869C216.992 183.276 216.585 184.6 217.196 185.516Z" fill="white"/>
<path d="M311.062 326.345C327.177 326.345 340.241 313.282 340.241 297.166C340.241 281.051 327.177 267.987 311.062 267.987C294.947 267.987 281.883 281.051 281.883 297.166C281.883 313.282 294.947 326.345 311.062 326.345Z" fill="#A21942"/>
<path d="M298.603 286.535V285.621C298.603 284.835 298.324 284.251 297.689 283.972C298.247 283.693 298.501 283.211 298.501 282.551V282.221C298.501 280.927 297.841 280.242 296.547 280.242C295.279 280.242 294.619 280.927 294.619 282.221V282.551C294.619 283.211 294.873 283.718 295.406 283.972C294.771 284.251 294.492 284.835 294.492 285.621V286.509C294.492 287.753 295.076 288.641 296.547 288.641C297.994 288.666 298.603 287.778 298.603 286.535ZM295.913 282.12C295.913 281.612 296.091 281.333 296.522 281.333C296.979 281.333 297.156 281.612 297.156 282.12V282.678C297.156 283.185 296.979 283.465 296.522 283.465C296.065 283.465 295.913 283.16 295.913 282.678V282.12ZM297.207 286.687C297.207 287.194 297.029 287.55 296.522 287.55C296.04 287.55 295.862 287.194 295.862 286.687V285.342C295.862 284.835 296.04 284.505 296.522 284.505C297.029 284.505 297.207 284.86 297.207 285.342V286.687Z" fill="white"/>
<path d="M319.004 296.988L314.843 300.946C314.691 301.099 314.615 301.225 314.615 301.53V312.593C314.615 312.719 314.716 312.821 314.843 312.821H319.131C319.258 312.821 319.359 312.719 319.359 312.593V297.09C319.385 296.937 319.283 296.709 319.004 296.988ZM307.054 302.113L302.892 306.072C302.74 306.224 302.664 306.351 302.664 306.655V312.567C302.664 312.694 302.766 312.795 302.892 312.795H307.18C307.307 312.795 307.409 312.694 307.409 312.567V302.215C307.434 302.088 307.333 301.86 307.054 302.113Z" fill="white"/>
<path d="M320.908 292.193C320.908 292.168 320.908 292.117 320.882 292.092C320.857 292.066 320.832 292.066 320.806 292.066H320.756L317.584 292.777H317.533C317.508 292.777 317.482 292.802 317.482 292.802C317.432 292.853 317.432 292.929 317.482 292.98L317.508 293.005L318.244 293.741L311.038 300.947L307.714 297.623C307.688 297.598 307.612 297.598 307.587 297.623L306.674 298.537L301.345 303.865C301.32 303.89 301.32 303.966 301.345 303.992L302.259 304.905C302.284 304.931 302.36 304.931 302.385 304.905L307.663 299.653L310.074 302.063L310.987 302.977C311.012 303.002 311.088 303.002 311.114 302.977L319.284 294.807L320.045 295.568C320.096 295.619 320.172 295.619 320.223 295.568C320.248 295.543 320.248 295.517 320.248 295.492L320.959 292.244L320.908 292.193Z" fill="white"/>
<path d="M313.065 302.825L311.061 304.855C311.01 304.88 310.959 304.88 310.934 304.855L309.107 303.002C308.777 302.672 308.701 302.952 308.701 303.078V312.619C308.701 312.746 308.803 312.847 308.93 312.847H313.218C313.344 312.847 313.446 312.746 313.446 312.619V302.926C313.446 302.749 313.344 302.52 313.065 302.825Z" fill="white"/>
<path d="M303.323 281.206V282.754C303.323 283.261 303.12 283.642 302.511 283.642H301.648V280.318H302.511C303.12 280.318 303.323 280.698 303.323 281.206ZM302.435 283.185C302.663 283.185 302.765 283.058 302.765 282.855V281.104C302.765 280.901 302.689 280.775 302.435 280.775H302.207V283.185H302.435ZM303.678 280.318H305.023V280.775H304.236V281.739H304.795V282.195H304.236V283.21H305.023V283.667H303.678V280.318ZM305.302 282.779V281.155C305.302 280.622 305.556 280.267 306.139 280.267C306.748 280.267 306.926 280.622 306.926 281.104V281.51H306.419V281.054C306.419 280.851 306.342 280.724 306.139 280.724C305.936 280.724 305.86 280.876 305.86 281.079V282.881C305.86 283.084 305.936 283.236 306.139 283.236C306.342 283.236 306.419 283.109 306.419 282.906V282.297H306.926V282.881C306.926 283.363 306.723 283.718 306.139 283.718C305.556 283.692 305.302 283.286 305.302 282.779ZM307.281 280.318H308.626V280.775H307.839V281.739H308.398V282.195H307.839V283.21H308.626V283.667H307.281V280.318ZM309.413 281.536V283.642H308.931V280.318H309.489L310.098 282.221V280.318H310.554V283.642H310.072L309.413 281.536ZM310.859 280.318H312.356V280.775H311.899V283.642H311.341V280.775H310.884V280.318H310.859ZM314.411 281.586L314.107 283.642H313.574L313.117 280.318H313.65L313.904 282.424L314.183 280.318H314.639L314.944 282.424L315.198 280.318H315.68L315.248 283.642H314.741L314.411 281.586ZM315.908 282.779V281.155C315.908 280.622 316.162 280.267 316.745 280.267C317.329 280.267 317.608 280.648 317.608 281.155V282.779C317.608 283.286 317.354 283.667 316.745 283.667C316.162 283.692 315.908 283.286 315.908 282.779ZM317.024 282.881V281.079C317.024 280.876 316.948 280.724 316.745 280.724C316.542 280.724 316.466 280.876 316.466 281.079V282.881C316.466 283.084 316.542 283.236 316.745 283.236C316.948 283.21 317.024 283.084 317.024 282.881ZM318.521 282.119V283.642H317.963V280.318H318.775C319.333 280.318 319.536 280.597 319.536 281.054V281.485C319.536 281.84 319.409 282.043 319.08 282.119L319.612 283.642H319.029L318.521 282.119ZM318.521 280.775V281.815H318.699C318.902 281.815 318.978 281.713 318.978 281.536V281.054C318.978 280.876 318.902 280.775 318.699 280.775H318.521ZM320.45 282.018V283.642H319.892V280.318H320.45V281.789L321.059 280.318H321.617L320.957 281.815L321.617 283.642H321.033L320.45 282.018ZM322.404 283.642L323.038 280.318H323.672L324.307 283.642H323.723L323.621 283.033H323.038L322.936 283.642H322.404ZM323.114 282.576H323.571L323.342 281.231L323.114 282.576ZM324.966 281.536V283.642H324.484V280.318H325.042L325.651 282.221V280.318H326.108V283.642H325.626L324.966 281.536ZM328.163 281.206V282.754C328.163 283.261 327.96 283.642 327.351 283.642H326.489V280.318H327.351C327.96 280.318 328.163 280.698 328.163 281.206ZM327.275 283.185C327.504 283.185 327.605 283.058 327.605 282.855V281.104C327.605 280.901 327.529 280.775 327.275 280.775H327.047V283.185H327.275Z" fill="white"/>
<path d="M301.648 285.215H302.993V285.672H302.207V286.636H302.765V287.093H302.207V288.108H302.993V288.565H301.648V285.215ZM303.222 287.676V286.053C303.222 285.52 303.475 285.165 304.059 285.165C304.668 285.165 304.845 285.52 304.845 286.002V286.408H304.338V285.976C304.338 285.774 304.262 285.647 304.059 285.647C303.856 285.647 303.78 285.799 303.78 286.002V287.803C303.78 288.006 303.856 288.159 304.059 288.159C304.262 288.159 304.338 288.032 304.338 287.829V287.22H304.845V287.803C304.845 288.285 304.642 288.641 304.059 288.641C303.475 288.59 303.222 288.209 303.222 287.676ZM305.15 287.676V286.053C305.15 285.52 305.404 285.165 305.987 285.165C306.571 285.165 306.85 285.545 306.85 286.053V287.676C306.85 288.184 306.596 288.565 305.987 288.565C305.429 288.59 305.15 288.209 305.15 287.676ZM306.292 287.778V285.976C306.292 285.774 306.216 285.621 306.013 285.621C305.81 285.621 305.734 285.774 305.734 285.976V287.778C305.734 287.981 305.81 288.133 306.013 288.133C306.216 288.108 306.292 287.981 306.292 287.778ZM307.662 286.459V288.565H307.18V285.241H307.738L308.347 287.144V285.241H308.804V288.565H308.322L307.662 286.459ZM309.133 287.676V286.053C309.133 285.52 309.387 285.165 309.971 285.165C310.554 285.165 310.833 285.545 310.833 286.053V287.676C310.833 288.184 310.58 288.565 309.971 288.565C309.387 288.59 309.133 288.209 309.133 287.676ZM310.25 287.778V285.976C310.25 285.774 310.174 285.621 309.971 285.621C309.768 285.621 309.692 285.774 309.692 285.976V287.778C309.692 287.981 309.768 288.133 309.971 288.133C310.174 288.108 310.25 287.981 310.25 287.778ZM312.686 286.382L312.28 288.539H312.026L311.62 286.382V288.539H311.163V285.215H311.823L312.178 287.093L312.508 285.215H313.219V288.539H312.711L312.686 286.382ZM313.523 285.215H314.081V288.539H313.523V285.215ZM314.386 287.676V286.053C314.386 285.52 314.639 285.165 315.223 285.165C315.832 285.165 316.01 285.52 316.01 286.002V286.408H315.502V285.976C315.502 285.774 315.426 285.647 315.223 285.647C315.02 285.647 314.944 285.799 314.944 286.002V287.803C314.944 288.006 315.02 288.159 315.223 288.159C315.426 288.159 315.502 288.032 315.502 287.829V287.22H316.01V287.803C316.01 288.285 315.807 288.641 315.223 288.641C314.639 288.59 314.386 288.209 314.386 287.676ZM317.836 286.763H318.623V288.539H318.217V288.184C318.141 288.438 317.989 288.59 317.684 288.59C317.202 288.59 316.974 288.209 316.974 287.702V286.078C316.974 285.545 317.227 285.19 317.811 285.19C318.42 285.19 318.623 285.545 318.623 286.027V286.332H318.115V286.002C318.115 285.799 318.039 285.672 317.836 285.672C317.633 285.672 317.557 285.824 317.557 286.027V287.829C317.557 288.032 317.633 288.184 317.836 288.184C318.014 288.184 318.115 288.082 318.115 287.854V287.271H317.862V286.763H317.836ZM319.562 287.017V288.539H319.004V285.215H319.815C320.374 285.215 320.577 285.494 320.577 285.951V286.382C320.577 286.738 320.45 286.941 320.12 287.017L320.653 288.539H320.069L319.562 287.017ZM319.562 285.672V286.712H319.739C319.942 286.712 320.018 286.611 320.018 286.433V285.951C320.018 285.774 319.942 285.672 319.739 285.672H319.562ZM320.83 287.676V286.053C320.83 285.52 321.084 285.165 321.668 285.165C322.251 285.165 322.53 285.545 322.53 286.053V287.676C322.53 288.184 322.277 288.565 321.668 288.565C321.084 288.59 320.83 288.209 320.83 287.676ZM321.972 287.778V285.976C321.972 285.774 321.896 285.621 321.693 285.621C321.49 285.621 321.414 285.774 321.414 285.976V287.778C321.414 287.981 321.49 288.133 321.693 288.133C321.896 288.108 321.972 287.981 321.972 287.778ZM323.977 286.484L323.672 288.539H323.139L322.683 285.215H323.215L323.469 287.321L323.748 285.215H324.205L324.509 287.321L324.763 285.215H325.245L324.814 288.539H324.281L323.977 286.484ZM325.448 285.215H326.945V285.672H326.489V288.539H325.905V285.672H325.448V285.215ZM328.214 287.068H327.681V288.539H327.123V285.215H327.681V286.636H328.214V285.215H328.772V288.539H328.214V287.068Z" fill="white"/>
<path d="M372.031 280.619C386.957 280.619 399.056 268.52 399.056 253.594C399.056 238.669 386.957 226.57 372.031 226.57C357.106 226.57 345.007 238.669 345.007 253.594C345.007 268.52 357.106 280.619 372.031 280.619Z" fill="#FD6925"/>
<path d="M360.07 239.8C360.07 238.625 359.553 237.755 358.214 237.755C356.851 237.755 356.334 238.507 356.334 239.682V240.81C356.334 242.056 356.827 242.69 357.744 242.69C358.284 242.69 358.613 242.432 358.801 242.079V243.724C358.801 244.194 358.613 244.5 358.167 244.5C357.697 244.5 357.532 244.241 357.532 243.748V243.231H356.357V243.63C356.357 244.758 356.757 245.534 358.19 245.534C359.53 245.534 360.07 244.664 360.07 243.466V239.8ZM358.801 240.975C358.778 241.398 358.59 241.68 358.19 241.68C357.744 241.68 357.579 241.421 357.579 240.904V239.588C357.579 239.095 357.767 238.813 358.19 238.813C358.613 238.813 358.778 239.095 358.778 239.588V240.975H358.801ZM381.502 259.587L377.014 257.002V251.808C377.014 251.691 376.967 251.597 376.849 251.55L372.196 248.871C372.102 248.824 371.985 248.824 371.891 248.871L367.238 251.55C367.144 251.597 367.073 251.714 367.073 251.808V257.002L362.585 259.587C362.491 259.634 362.42 259.751 362.42 259.845V265.203C362.42 265.32 362.467 265.414 362.585 265.461L367.238 268.14C367.285 268.164 367.332 268.187 367.402 268.187C367.449 268.187 367.52 268.164 367.567 268.14L372.055 265.555L376.544 268.14C376.591 268.164 376.638 268.187 376.708 268.187C376.779 268.187 376.826 268.164 376.873 268.14L381.526 265.461C381.62 265.414 381.69 265.297 381.69 265.203V259.845C381.643 259.728 381.596 259.634 381.502 259.587ZM371.726 264.686L367.99 262.524L371.726 260.362V264.686ZM376.074 257.166L372.337 259.328V255.028L376.074 257.166ZM371.726 259.305L367.99 257.143L371.726 254.981V259.305ZM372.666 259.845L376.708 257.519L380.75 259.845L376.708 262.171L372.666 259.845ZM376.379 256.626L372.643 254.464L376.379 252.302V256.626ZM371.421 254.487L367.684 256.649V252.349L371.421 254.487ZM367.097 267.365L363.055 265.038V260.385L367.097 262.712V267.365ZM367.708 267.365V263.064L371.444 265.226L367.708 267.365ZM381.032 265.038L376.99 267.365V262.712L381.032 260.385V265.038Z" fill="white"/>
<path d="M362.067 237.943H362.561V240.81H362.067V237.943ZM363.242 239.024V240.834H362.843V237.967H363.313L363.83 239.612V237.967H364.229V240.834H363.806L363.242 239.024ZM365.968 238.719V240.058C365.968 240.505 365.78 240.834 365.263 240.834H364.511V237.967H365.263C365.804 237.943 365.968 238.272 365.968 238.719ZM365.216 240.434C365.404 240.434 365.498 240.317 365.498 240.152V238.648C365.498 238.484 365.428 238.366 365.216 238.366H365.005V240.458L365.216 240.434ZM367.684 237.943V240.105C367.684 240.552 367.496 240.834 367.002 240.834C366.485 240.834 366.274 240.552 366.274 240.105V237.943H366.767V240.152C366.767 240.317 366.838 240.434 367.002 240.434C367.167 240.434 367.237 240.317 367.237 240.152V237.943H367.684ZM367.942 240.199V239.823H368.389V240.223C368.389 240.387 368.459 240.481 368.624 240.481C368.765 240.481 368.835 240.387 368.835 240.223V240.105C368.835 239.941 368.765 239.847 368.624 239.706L368.342 239.424C368.06 239.142 367.942 238.977 367.942 238.648V238.554C367.942 238.202 368.154 237.92 368.624 237.92C369.117 237.92 369.305 238.155 369.305 238.578V238.813H368.859V238.554C368.859 238.39 368.788 238.319 368.624 238.319C368.483 238.319 368.389 238.39 368.389 238.554V238.625C368.389 238.789 368.483 238.883 368.624 239.024L368.929 239.33C369.188 239.588 369.329 239.753 369.329 240.082V240.223C369.329 240.622 369.117 240.904 368.624 240.904C368.13 240.857 367.942 240.575 367.942 240.199ZM369.446 237.943H370.739V238.343H370.339V240.81H369.846V238.343H369.446V237.943ZM371.444 239.494V240.81H370.974V237.943H371.679C372.172 237.943 372.337 238.178 372.337 238.578V238.954C372.337 239.259 372.219 239.447 371.961 239.518L372.431 240.81H371.914L371.444 239.494ZM371.444 238.343V239.236H371.608C371.773 239.236 371.843 239.142 371.843 239.001V238.578C371.843 238.413 371.773 238.343 371.608 238.343H371.444ZM373.465 239.729V240.81H372.971V239.729L372.431 237.943H372.924L373.206 239.024L373.488 237.943H373.958L373.465 239.729ZM374.475 240.387L374.24 241.045H373.958L374.029 240.364H374.475V240.387ZM375.251 237.943H375.744V240.81H375.251V237.943ZM376.426 239.024V240.834H376.026V237.967H376.496L377.013 239.612V237.967H377.413V240.834H376.99L376.426 239.024ZM378.118 239.024V240.834H377.718V237.967H378.188L378.705 239.612V237.967H379.105V240.834H378.682L378.118 239.024ZM379.41 240.082V238.695C379.41 238.249 379.622 237.92 380.139 237.92C380.656 237.92 380.867 238.249 380.867 238.695V240.082C380.867 240.528 380.656 240.857 380.139 240.857C379.622 240.857 379.41 240.528 379.41 240.082ZM380.397 240.152V238.601C380.397 238.437 380.327 238.296 380.139 238.296C379.974 238.296 379.904 238.413 379.904 238.601V240.152C379.904 240.317 379.974 240.458 380.139 240.458C380.303 240.458 380.397 240.34 380.397 240.152ZM382.724 237.943L382.183 240.81H381.666L381.126 237.943H381.619L381.948 239.941L382.277 237.943H382.724ZM382.653 240.81L383.194 237.943H383.734L384.275 240.81H383.781L383.687 240.293H383.194L383.1 240.81H382.653ZM383.241 239.917H383.617L383.429 238.766L383.241 239.917ZM384.228 237.943H385.52V238.343H385.121V240.81H384.627V238.343H384.228V237.943ZM385.755 237.943H386.249V240.81H385.755V237.943ZM386.554 240.082V238.695C386.554 238.249 386.766 237.92 387.283 237.92C387.8 237.92 388.011 238.249 388.011 238.695V240.082C388.011 240.528 387.8 240.857 387.283 240.857C386.766 240.857 386.554 240.528 386.554 240.082ZM387.518 240.152V238.601C387.518 238.437 387.447 238.296 387.259 238.296C387.095 238.296 387.024 238.413 387.024 238.601V240.152C387.024 240.317 387.095 240.458 387.259 240.458C387.447 240.458 387.518 240.34 387.518 240.152ZM388.716 239.024V240.834H388.317V237.967H388.787L389.304 239.612V237.967H389.703V240.834H389.28L388.716 239.024Z" fill="white"/>
<path d="M361.974 245.369L362.514 242.502H363.055L363.595 245.369H363.102L363.008 244.852H362.514L362.42 245.369H361.974ZM362.585 244.453H362.961L362.773 243.301L362.585 244.453ZM364.206 243.56V245.369H363.807V242.502H364.277L364.794 244.147V242.502H365.193V245.369H364.77L364.206 243.56ZM366.932 243.254V244.594C366.932 245.04 366.744 245.369 366.227 245.369H365.475V242.502H366.227C366.744 242.502 366.932 242.831 366.932 243.254ZM366.18 244.97C366.368 244.97 366.462 244.852 366.462 244.688V243.184C366.462 243.019 366.392 242.902 366.18 242.902H365.969V244.993L366.18 244.97ZM367.684 242.502H368.178V245.369H367.684V242.502ZM368.883 243.56V245.369H368.483V242.502H368.953L369.47 244.147V242.502H369.87V245.369H369.447L368.883 243.56ZM370.175 242.502H371.303V242.902H370.645V243.724H371.138V244.124H370.645V245.393H370.152L370.175 242.502ZM372.008 244.053V245.369H371.514V242.502H372.219C372.713 242.502 372.877 242.737 372.877 243.137V243.513C372.877 243.818 372.76 244.006 372.501 244.077L372.971 245.369H372.454L372.008 244.053ZM372.008 242.878V243.771H372.172C372.337 243.771 372.407 243.677 372.407 243.536V243.113C372.407 242.949 372.337 242.878 372.172 242.878H372.008ZM373.112 245.369L373.653 242.502H374.193L374.734 245.369H374.24L374.146 244.852H373.629L373.535 245.369H373.112ZM373.7 244.453H374.076L373.888 243.301L373.7 244.453ZM374.898 244.735V244.359H375.345V244.758C375.345 244.923 375.415 245.017 375.58 245.017C375.721 245.017 375.791 244.923 375.791 244.758V244.641C375.791 244.476 375.721 244.382 375.58 244.241L375.298 243.959C375.016 243.677 374.898 243.513 374.898 243.184V243.09C374.898 242.737 375.11 242.455 375.58 242.455C376.073 242.455 376.261 242.69 376.261 243.113V243.348H375.815V243.09C375.815 242.925 375.744 242.855 375.58 242.855C375.439 242.855 375.345 242.925 375.345 243.09V243.16C375.345 243.325 375.439 243.419 375.58 243.56L375.885 243.865C376.144 244.124 376.285 244.288 376.285 244.617V244.758C376.285 245.158 376.073 245.44 375.58 245.44C375.086 245.44 374.898 245.111 374.898 244.735ZM376.426 242.502H377.718V242.902H377.319V245.369H376.825V242.902H376.426V242.502ZM378.447 244.053V245.369H377.953V242.502H378.658C379.152 242.502 379.316 242.737 379.316 243.137V243.513C379.316 243.818 379.199 244.006 378.94 244.077L379.41 245.369H378.893L378.447 244.053ZM378.447 242.878V243.771H378.611C378.776 243.771 378.846 243.677 378.846 243.536V243.113C378.846 242.949 378.776 242.878 378.611 242.878H378.447ZM381.008 242.502V244.664C381.008 245.111 380.82 245.393 380.327 245.393C379.81 245.393 379.598 245.111 379.598 244.664V242.502H380.092V244.711C380.092 244.876 380.162 244.993 380.327 244.993C380.491 244.993 380.562 244.876 380.562 244.711V242.502H381.008ZM381.314 244.617V243.231C381.314 242.784 381.525 242.455 382.042 242.455C382.583 242.455 382.724 242.761 382.724 243.184V243.513H382.277V243.137C382.277 242.949 382.207 242.855 382.042 242.855C381.878 242.855 381.807 242.972 381.807 243.16V244.711C381.807 244.876 381.878 245.017 382.042 245.017C382.207 245.017 382.277 244.899 382.277 244.735V244.194H382.724V244.688C382.724 245.087 382.559 245.393 382.042 245.393C381.525 245.393 381.314 245.064 381.314 244.617ZM382.818 242.502H384.11V242.902H383.711V245.369H383.217V242.902H382.818V242.502ZM385.755 242.502V244.664C385.755 245.111 385.567 245.393 385.074 245.393C384.557 245.393 384.345 245.111 384.345 244.664V242.502H384.839V244.711C384.839 244.876 384.909 244.993 385.074 244.993C385.238 244.993 385.309 244.876 385.309 244.711V242.502H385.755ZM386.531 244.053V245.369H386.037V242.502H386.742C387.236 242.502 387.4 242.737 387.4 243.137V243.513C387.4 243.818 387.283 244.006 387.024 244.077L387.494 245.369H386.977L386.531 244.053ZM386.531 242.878V243.771H386.695C386.86 243.771 386.93 243.677 386.93 243.536V243.113C386.93 242.949 386.86 242.878 386.695 242.878H386.531ZM387.706 242.502H388.857V242.902H388.199V243.724H388.669V244.124H388.199V244.993H388.857V245.393H387.706V242.502Z" fill="white"/>
<path d="M392.949 211.578C401 211.578 407.527 205.051 407.527 197C407.527 188.949 401 182.422 392.949 182.422C384.898 182.422 378.371 188.949 378.371 197C378.371 205.051 384.898 211.578 392.949 211.578Z" fill="#DD1367"/>
<path d="M462.084 188.383C503.95 188.383 537.889 154.444 537.889 112.579C537.889 70.7128 503.95 36.7739 462.084 36.7739C420.218 36.7739 386.279 70.7128 386.279 112.579C386.279 154.444 420.218 188.383 462.084 188.383Z" fill="#FD9D24"/>
<path d="M417.13 72.6987V76.456L419.701 73.8193V90.1667H423.326V68.8096H420.426L417.13 72.6987ZM425.304 72.6987V76.456H425.37L427.874 73.8193V90.1667H431.5V68.8096H428.599L425.304 72.6987Z" fill="white"/>
<path d="M427.016 140.66H442.968C443.165 140.66 443.363 140.462 443.363 140.264C443.363 140.132 443.297 140.066 443.231 140L435.321 129.717L435.255 129.651C435.189 129.586 435.058 129.52 434.992 129.52C434.926 129.52 434.794 129.586 434.728 129.651L434.662 129.717L434.596 129.783L426.818 139.934L426.686 140.066C426.62 140.132 426.62 140.198 426.62 140.264C426.62 140.462 426.818 140.66 427.016 140.66ZM442.902 142.11H426.884C426.686 142.11 426.488 142.308 426.488 142.505V155.029C426.488 155.227 426.686 155.425 426.884 155.425H432.025V147.581C432.025 147.383 432.223 147.185 432.421 147.185H437.167C437.365 147.185 437.562 147.383 437.562 147.581V155.425H442.836C443.033 155.425 443.231 155.227 443.231 155.029V142.505C443.297 142.308 443.165 142.11 442.902 142.11ZM498.14 138.814H482.32C482.122 138.814 481.925 139.012 481.925 139.209V155.161C481.925 155.359 482.122 155.557 482.32 155.557H498.14C498.338 155.557 498.536 155.359 498.536 155.161V139.209C498.536 139.012 498.404 138.814 498.14 138.814ZM489.505 149.295C489.505 149.492 489.307 149.69 489.11 149.69H484.363C484.166 149.69 483.968 149.492 483.968 149.295V146.394C483.968 146.197 484.166 145.999 484.363 145.999H489.11C489.307 145.999 489.505 146.197 489.505 146.394V149.295ZM489.505 143.955C489.505 144.153 489.307 144.351 489.11 144.351H484.363C484.166 144.351 483.968 144.153 483.968 143.955V141.055C483.968 140.857 484.166 140.66 484.363 140.66H489.11C489.307 140.66 489.505 140.857 489.505 141.055V143.955ZM496.756 149.295C496.756 149.492 496.558 149.69 496.36 149.69H491.614C491.417 149.69 491.219 149.492 491.219 149.295V146.394C491.219 146.197 491.417 145.999 491.614 145.999H496.36C496.558 145.999 496.756 146.197 496.756 146.394V149.295ZM496.756 143.955C496.756 144.153 496.558 144.351 496.36 144.351H491.614C491.417 144.351 491.219 144.153 491.219 143.955V141.055C491.219 140.857 491.417 140.66 491.614 140.66H496.36C496.558 140.66 496.756 140.857 496.756 141.055V143.955ZM461.358 101.769H445.934C445.736 101.769 445.538 101.966 445.538 102.164V155.095C445.538 155.293 445.736 155.491 445.934 155.491H461.424C461.622 155.491 461.82 155.293 461.82 155.095V102.164C461.754 101.9 461.622 101.769 461.358 101.769ZM452.196 149.427C452.196 149.558 452.13 149.624 451.998 149.624H448.439C448.307 149.624 448.241 149.558 448.241 149.427V145.472C448.241 145.34 448.307 145.274 448.439 145.274H451.998C452.13 145.274 452.196 145.34 452.196 145.472V149.427ZM452.196 140.33C452.196 140.462 452.13 140.528 451.998 140.528H448.439C448.307 140.528 448.241 140.462 448.241 140.33V136.375C448.241 136.243 448.307 136.177 448.439 136.177H451.998C452.13 136.177 452.196 136.243 452.196 136.375V140.33ZM452.196 131.233C452.196 131.365 452.13 131.431 451.998 131.431H448.439C448.307 131.431 448.241 131.365 448.241 131.233V127.278C448.241 127.147 448.307 127.081 448.439 127.081H451.998C452.13 127.081 452.196 127.147 452.196 127.278V131.233ZM452.196 122.203C452.196 122.335 452.13 122.401 451.998 122.401H448.439C448.307 122.401 448.241 122.335 448.241 122.203V118.248C448.241 118.116 448.307 118.05 448.439 118.05H451.998C452.13 118.05 452.196 118.116 452.196 118.248V122.203ZM452.196 113.106C452.196 113.238 452.13 113.304 451.998 113.304H448.439C448.307 113.304 448.241 113.238 448.241 113.106V109.151C448.241 109.019 448.307 108.954 448.439 108.954H451.998C452.13 108.954 452.196 109.019 452.196 109.151V113.106ZM459.117 149.427C459.117 149.558 459.051 149.624 458.919 149.624H455.36C455.228 149.624 455.162 149.558 455.162 149.427V145.472C455.162 145.34 455.228 145.274 455.36 145.274H458.919C459.051 145.274 459.117 145.34 459.117 145.472V149.427ZM459.117 140.33C459.117 140.462 459.051 140.528 458.919 140.528H455.36C455.228 140.528 455.162 140.462 455.162 140.33V136.375C455.162 136.243 455.228 136.177 455.36 136.177H458.919C459.051 136.177 459.117 136.243 459.117 136.375V140.33ZM459.117 131.233C459.117 131.365 459.051 131.431 458.919 131.431H455.36C455.228 131.431 455.162 131.365 455.162 131.233V127.278C455.162 127.147 455.228 127.081 455.36 127.081H458.919C459.051 127.081 459.117 127.147 459.117 127.278V131.233ZM459.117 122.203C459.117 122.335 459.051 122.401 458.919 122.401H455.36C455.228 122.401 455.162 122.335 455.162 122.203V118.248C455.162 118.116 455.228 118.05 455.36 118.05H458.919C459.051 118.05 459.117 118.116 459.117 118.248V122.203ZM459.117 113.106C459.117 113.238 459.051 113.304 458.919 113.304H455.36C455.228 113.304 455.162 113.238 455.162 113.106V109.151C455.162 109.019 455.228 108.954 455.36 108.954H458.919C459.051 108.954 459.117 109.019 459.117 109.151V113.106ZM498.536 137.232C498.536 137.43 498.404 137.561 498.206 137.561H482.254C482.056 137.561 481.925 137.43 481.925 137.232V134.068C481.925 133.87 482.056 133.738 482.254 133.738H498.206C498.404 133.738 498.536 133.87 498.536 134.068V137.232ZM480.079 111.722C480.013 111.524 479.881 111.458 479.683 111.458C479.617 111.458 479.552 111.458 479.486 111.524L479.354 111.656L464.127 130.97L464.061 131.036C463.995 131.102 463.929 131.233 463.929 131.365V155.095C463.929 155.293 464.127 155.491 464.325 155.491H479.815C480.013 155.491 480.211 155.293 480.211 155.095V111.854C480.145 111.854 480.145 111.788 480.079 111.722ZM473.685 122.203L473.817 122.071C474.871 120.753 476.585 118.577 477.442 117.523L477.574 117.391C477.64 117.325 477.772 117.259 477.904 117.259C478.101 117.259 478.299 117.391 478.299 117.589V122.467C478.299 122.73 478.101 122.862 477.904 122.928H474.08C473.817 122.928 473.685 122.73 473.685 122.467C473.619 122.401 473.619 122.269 473.685 122.203ZM471.246 149.229C471.246 149.427 471.048 149.624 470.85 149.624H466.236C466.039 149.624 465.841 149.427 465.841 149.229V146.328C465.841 146.131 466.039 145.933 466.236 145.933H470.85C471.048 145.933 471.246 146.131 471.246 146.328V149.229ZM471.246 143.955C471.246 144.153 471.048 144.351 470.85 144.351H466.236C466.039 144.351 465.841 144.153 465.841 143.955V141.055C465.841 140.857 466.039 140.66 466.236 140.66H470.85C471.048 140.66 471.246 140.857 471.246 141.055V143.955ZM471.246 138.616C471.246 138.814 471.048 139.012 470.85 139.012H466.236C466.039 139.012 465.841 138.814 465.841 138.616V135.716C465.841 135.518 466.039 135.32 466.236 135.32H470.85C471.048 135.32 471.246 135.518 471.246 135.716V138.616ZM471.312 126.883V133.211C471.312 133.409 471.114 133.606 470.916 133.606H466.302C466.104 133.606 465.907 133.409 465.907 133.211V132.42V132.288V132.222C465.907 132.222 465.907 132.156 465.973 132.156C465.973 132.156 465.973 132.09 466.039 132.09C466.632 131.233 469.268 127.938 470.389 126.619L470.521 126.487C470.587 126.421 470.719 126.356 470.85 126.356C471.048 126.356 471.246 126.487 471.246 126.685V126.883H471.312ZM478.365 149.229C478.365 149.427 478.167 149.624 477.97 149.624H473.355C473.158 149.624 472.96 149.427 472.96 149.229V146.328C472.96 146.131 473.158 145.933 473.355 145.933H477.97C478.167 145.933 478.365 146.131 478.365 146.328V149.229ZM478.365 143.955C478.365 144.153 478.167 144.351 477.97 144.351H473.355C473.158 144.351 472.96 144.153 472.96 143.955V141.055C472.96 140.857 473.158 140.66 473.355 140.66H477.97C478.167 140.66 478.365 140.857 478.365 141.055V143.955ZM478.365 138.616C478.365 138.814 478.167 139.012 477.97 139.012H473.355C473.158 139.012 472.96 138.814 472.96 138.616V135.716C472.96 135.518 473.158 135.32 473.355 135.32H477.97C478.167 135.32 478.365 135.518 478.365 135.716V138.616ZM478.365 133.277C478.365 133.475 478.167 133.672 477.97 133.672H473.355C473.158 133.672 472.96 133.475 472.96 133.277V130.377C472.96 130.179 473.158 129.981 473.355 129.981H477.97C478.167 129.981 478.365 130.179 478.365 130.377V133.277ZM478.365 127.938C478.365 128.135 478.167 128.333 477.97 128.333H473.355C473.158 128.333 472.96 128.135 472.96 127.938V125.037C472.96 124.84 473.158 124.642 473.355 124.642H477.97C478.167 124.642 478.365 124.84 478.365 125.037V127.938Z" fill="white"/>
<path d="M438.485 75.599V74.4125H439.87V75.599C439.87 76.0604 440.067 76.39 440.595 76.39C441.056 76.39 441.254 76.0604 441.254 75.599V75.2694C441.254 74.7421 441.056 74.4784 440.595 74.017L439.738 73.1601C438.881 72.3691 438.551 71.8418 438.551 70.853V70.5893C438.551 69.5347 439.21 68.6777 440.595 68.6777C442.045 68.6777 442.638 69.4028 442.638 70.6552V71.3803H441.32V70.6552C441.32 70.1279 441.122 69.9302 440.661 69.9302C440.265 69.9302 440.001 70.1279 440.001 70.6552V70.853C440.001 71.3144 440.265 71.644 440.661 72.0395L441.583 72.9623C442.374 73.7534 442.77 74.2807 442.77 75.2035V75.599C442.77 76.7855 442.111 77.6425 440.661 77.6425C439.21 77.6425 438.485 76.7196 438.485 75.599ZM447.516 68.8096V75.3354C447.516 76.6537 446.923 77.5765 445.473 77.5765C443.956 77.5765 443.297 76.7196 443.297 75.3354V68.8096H444.747V75.5331C444.747 76.0604 444.945 76.39 445.473 76.39C446 76.39 446.198 76.0604 446.198 75.5331V68.8096H447.516ZM448.307 75.599V74.4125H449.691V75.599C449.691 76.0604 449.889 76.39 450.416 76.39C450.878 76.39 451.076 76.0604 451.076 75.599V75.2694C451.076 74.7421 450.878 74.4784 450.416 74.017L449.559 73.1601C448.703 72.3691 448.373 71.8418 448.373 70.853V70.5893C448.373 69.5347 448.966 68.6777 450.416 68.6777C451.867 68.6777 452.46 69.4028 452.46 70.6552V71.3803H451.141V70.6552C451.141 70.1279 450.944 69.9302 450.482 69.9302C450.087 69.9302 449.823 70.1279 449.823 70.6552V70.853C449.823 71.3144 450.087 71.644 450.482 72.0395L451.405 72.9623C452.196 73.7534 452.592 74.2807 452.592 75.2035V75.599C452.592 76.7855 451.932 77.6425 450.482 77.6425C448.834 77.5765 448.307 76.7196 448.307 75.599ZM452.789 68.8096H456.678V69.9961H455.492V77.4447H454.042V69.9961H452.855V68.8096H452.789ZM456.415 77.4447L458.063 68.8096H459.711L461.359 77.4447H459.842L459.579 75.8627H458.063L457.799 77.4447H456.415ZM458.26 74.6762H459.447L458.854 71.1826L458.26 74.6762ZM461.952 68.8096H463.402V77.4447H461.952V68.8096ZM465.445 71.9736V77.4447H464.193V68.8096H465.643L467.225 73.7533V68.8096H468.412V77.4447H467.159L465.445 71.9736ZM468.939 77.4447L470.587 68.8096H472.235L473.883 77.4447H472.367L472.103 75.8627H470.587L470.323 77.4447H468.939ZM470.785 74.6762H471.971L471.378 71.1826L470.785 74.6762ZM474.344 68.8096H476.453C477.904 68.8096 478.365 69.4687 478.365 70.7212V71.5781C478.365 72.3032 478.101 72.7646 477.508 72.9623C478.233 73.1601 478.563 73.6215 478.563 74.4125V75.5331C478.563 76.7855 478.035 77.4447 476.585 77.4447H474.344V68.8096ZM475.794 72.435H476.322C476.783 72.435 476.981 72.1713 476.981 71.7099V70.6552C476.981 70.1938 476.783 69.9302 476.256 69.9302H475.728L475.794 72.435ZM475.794 73.5556V76.2582H476.453C476.915 76.2582 477.179 75.9945 477.179 75.5331V74.2148C477.179 73.7534 476.981 73.4897 476.453 73.4897H475.794V73.5556ZM479.222 68.8096H480.672V76.2582H482.386V77.4447H479.222V68.8096ZM482.979 68.8096H486.473V69.9961H484.429V72.5009H485.88V73.6874H484.429V76.3241H486.473V77.5106H482.979V68.8096ZM488.912 75.2035V70.9848C488.912 69.6006 489.571 68.6777 491.087 68.6777C492.669 68.6777 493.13 69.6006 493.13 70.853V71.9077H491.812V70.7212C491.812 70.1938 491.614 69.8642 491.087 69.8642C490.56 69.8642 490.362 70.2597 490.362 70.7871V75.4672C490.362 75.9945 490.56 76.39 491.087 76.39C491.614 76.39 491.812 76.0604 491.812 75.5331V73.9511H493.13V75.4672C493.13 76.7196 492.603 77.6425 491.087 77.6425C489.505 77.5765 488.912 76.5219 488.912 75.2035ZM493.79 68.8096H495.24V77.4447H493.79V68.8096ZM495.767 68.8096H499.656V69.9961H498.47V77.4447H497.02V69.9961H495.833V68.8096H495.767ZM500.25 68.8096H501.7V77.4447H500.25V68.8096ZM502.491 68.8096H505.984V69.9961H503.941V72.5009H505.391V73.6874H503.941V76.3241H505.984V77.5106H502.491V68.8096ZM506.314 75.599V74.4125H507.698V75.599C507.698 76.0604 507.896 76.39 508.423 76.39C508.885 76.39 509.082 76.0604 509.082 75.599V75.2694C509.082 74.7421 508.885 74.4784 508.423 74.017L507.566 73.1601C506.709 72.3691 506.38 71.8418 506.38 70.853V70.5893C506.38 69.5347 507.039 68.6777 508.423 68.6777C509.873 68.6777 510.467 69.4028 510.467 70.6552V71.3803H509.148V70.6552C509.148 70.1279 508.951 69.9302 508.489 69.9302C508.094 69.9302 507.83 70.1279 507.83 70.6552V70.853C507.83 71.3144 508.094 71.644 508.489 72.0395L509.412 72.9623C510.203 73.7534 510.599 74.2807 510.599 75.2035V75.599C510.599 76.7855 509.939 77.6425 508.489 77.6425C507.039 77.6425 506.314 76.7196 506.314 75.599Z" fill="white"/>
<path d="M438.485 90.1669L440.133 81.5317H441.781L443.429 90.1669H441.979L441.715 88.5849H440.199L439.936 90.1669H438.485ZM440.331 87.4643H441.518L440.924 83.9707L440.331 87.4643ZM445.275 84.7617V90.2328H444.022V81.5977H445.473L447.055 86.5414V81.5977H448.241V90.2328H446.989L445.275 84.7617ZM453.449 83.8388V87.8598C453.449 89.1781 452.921 90.1669 451.339 90.1669H449.098V81.5317H451.339C452.855 81.5317 453.449 82.5205 453.449 83.8388ZM451.141 88.9804C451.735 88.9804 451.998 88.6508 451.998 88.1234V83.5752C451.998 83.0478 451.801 82.7182 451.141 82.7182H450.548V88.9804H451.141ZM455.558 87.9257V83.707C455.558 82.3227 456.217 81.3999 457.733 81.3999C459.315 81.3999 459.777 82.3227 459.777 83.5752V84.6298H458.458V83.5092C458.458 82.9819 458.26 82.6523 457.733 82.6523C457.206 82.6523 457.008 83.0478 457.008 83.5752V88.2553C457.008 88.7826 457.206 89.1781 457.733 89.1781C458.26 89.1781 458.458 88.8485 458.458 88.3212V86.7392H459.777V88.2553C459.777 89.5077 459.249 90.4305 457.733 90.4305C456.151 90.2987 455.558 89.31 455.558 87.9257ZM460.568 87.9257V83.707C460.568 82.3227 461.227 81.3999 462.743 81.3999C464.259 81.3999 464.984 82.3887 464.984 83.707V87.9257C464.984 89.244 464.325 90.2328 462.743 90.2328C461.227 90.2987 460.568 89.31 460.568 87.9257ZM463.468 88.1894V83.5092C463.468 82.9819 463.27 82.5864 462.743 82.5864C462.215 82.5864 462.018 82.9819 462.018 83.5092V88.1894C462.018 88.7167 462.215 89.1122 462.743 89.1122C463.27 89.0463 463.468 88.7167 463.468 88.1894ZM469.796 84.5639L468.741 90.1669H468.082L467.027 84.5639V90.1669H465.841V81.5317H467.555L468.478 86.4096L469.335 81.5317H471.18V90.1669H469.862L469.796 84.5639ZM475.926 84.5639L474.872 90.1669H474.212L473.158 84.5639V90.1669H471.971V81.5317H473.685L474.608 86.4096L475.465 81.5317H477.31V90.1669H475.992V84.5639H475.926ZM482.32 81.5317V88.0575C482.32 89.3759 481.727 90.2987 480.277 90.2987C478.761 90.2987 478.101 89.4418 478.101 88.0575V81.5317H479.552V88.2553C479.552 88.7826 479.749 89.1122 480.277 89.1122C480.804 89.1122 481.002 88.7826 481.002 88.2553V81.5317H482.32ZM484.298 84.7617V90.2328H483.045V81.5977H484.495L486.077 86.5414V81.5977H487.264V90.2328H486.011L484.298 84.7617ZM488.121 81.5317H489.571V90.1669H488.121V81.5317ZM490.23 81.5317H494.119V82.7182H492.933V90.1669H491.417V82.7182H490.23V81.5317ZM494.778 81.5317H496.229V90.1669H494.778V81.5317ZM497.02 81.5317H500.513V82.7182H498.47V85.2231H499.92V86.4096H498.47V89.0463H500.513V90.2328H497.02V81.5317ZM501.106 88.3212V87.1347H502.491V88.3212C502.491 88.7826 502.688 89.1122 503.216 89.1122C503.677 89.1122 503.875 88.7826 503.875 88.3212V87.9916C503.875 87.4643 503.677 87.2006 503.216 86.7392L502.359 85.8823C501.502 85.0913 501.172 84.5639 501.172 83.5752V83.3115C501.172 82.2568 501.766 81.3999 503.216 81.3999C504.666 81.3999 505.259 82.125 505.259 83.3774V84.1025H503.941V83.3774C503.941 82.8501 503.743 82.6523 503.282 82.6523C502.886 82.6523 502.623 82.8501 502.623 83.3774V83.5752C502.623 84.0366 502.886 84.3662 503.282 84.7617L504.205 85.6845C504.996 86.4755 505.391 87.0029 505.391 87.9257V88.3212C505.391 89.5077 504.732 90.3646 503.282 90.3646C501.7 90.2987 501.106 89.4418 501.106 88.3212Z" fill="white"/>
<path d="M442.011 256.738C456.18 256.738 467.666 245.252 467.666 231.084C467.666 216.915 456.18 205.429 442.011 205.429C427.842 205.429 416.356 216.915 416.356 231.084C416.356 245.252 427.842 256.738 442.011 256.738Z" fill="#BF8B2E"/>
<path d="M427.756 217.967H427.778V223.522H428.983V216.271H428.023L426.886 217.588V218.859H426.908L427.756 217.967ZM429.719 217.766V218.636H430.834V217.721C430.834 217.275 431.057 217.164 431.303 217.164C431.548 217.164 431.749 217.253 431.749 217.699V218.301C431.749 218.904 431.704 219.127 431.303 219.551L430.611 220.287C429.942 221.001 429.697 221.469 429.697 222.183V223.522H432.864V222.518H430.857V222.183C430.857 221.625 431.057 221.402 431.37 221.068L432.151 220.242C432.775 219.573 432.909 219.149 432.909 218.413V217.699C432.909 216.673 432.418 216.182 431.325 216.182C430.254 216.182 429.719 216.762 429.719 217.766ZM452.116 232.49C450.644 231.33 448.904 231.218 448.212 231.218C447.856 231.218 447.521 231.24 447.276 231.307L447.186 231.33C446.249 231.553 444.71 231.91 442.903 234.163L442.859 234.23C442.836 234.274 442.814 234.319 442.814 234.363C442.814 234.408 442.814 234.453 442.836 234.475L442.881 234.542C443.171 235.033 443.416 235.479 443.617 235.836C443.684 235.97 443.885 236.014 443.996 235.88C444.019 235.858 444.019 235.836 444.041 235.836C445.602 233.672 446.829 233.382 447.632 233.203L447.722 233.181C447.833 233.159 448.012 233.136 448.212 233.136C448.592 233.136 449.886 233.203 450.912 234.007C451.826 234.72 452.273 235.858 452.273 237.397C452.273 239.985 451.023 240.989 449.975 241.368C449.573 241.524 449.149 241.591 448.703 241.591C447.632 241.591 446.785 241.167 446.785 241.145L446.718 241.101C445.826 240.699 444.465 239.896 443.193 237.33C440.583 232.088 438.397 231.597 436.947 231.263L436.88 231.24C436.768 231.218 436.456 231.151 435.943 231.151C435.095 231.151 433.489 231.307 432.106 232.423C431.169 233.181 430.031 234.653 430.031 237.33C430.031 238.981 430.366 240.052 431.236 241.19C431.392 241.413 432.909 243.354 435.809 243.354C436.233 243.354 436.679 243.309 437.125 243.22C437.661 243.108 438.464 242.863 439.378 242.194L440.137 242.885C440.226 242.952 440.36 242.952 440.449 242.863C440.494 242.818 440.516 242.774 440.494 242.729L441.074 239.093V239.048C441.074 238.981 441.052 238.937 441.007 238.892C440.962 238.847 440.918 238.825 440.851 238.825L437.304 239.807H437.237C437.192 239.807 437.148 239.829 437.125 239.874C437.081 239.918 437.058 239.985 437.058 240.03C437.058 240.097 437.081 240.141 437.125 240.186L437.861 240.855C437.482 241.101 437.081 241.257 436.724 241.324C436.411 241.391 436.099 241.413 435.787 241.413C433.779 241.413 432.797 240.097 432.753 240.03L432.731 240.007C432.128 239.204 431.905 238.513 431.905 237.308C431.905 235.769 432.351 234.609 433.244 233.895C434.248 233.092 435.519 233.047 435.876 233.047C436.077 233.047 436.255 233.07 436.367 233.092L436.456 233.114C437.616 233.382 439.2 233.739 441.409 238.156C442.569 240.498 444.019 242.015 445.848 242.818C446.071 242.93 447.186 243.465 448.659 243.465C449.328 243.465 449.997 243.354 450.622 243.108C451.693 242.707 454.169 241.346 454.169 237.308C454.236 234.72 453.076 233.248 452.116 232.49Z" fill="white"/>
<path d="M436.122 217.856V219.194H435.631V216.272H436.345C436.836 216.272 437.014 216.517 437.014 216.919V217.298C437.014 217.61 436.902 217.789 436.612 217.856L437.081 219.194H436.568L436.122 217.856ZM436.122 216.673V217.588H436.278C436.456 217.588 436.523 217.499 436.523 217.342V216.919C436.523 216.762 436.456 216.673 436.278 216.673H436.122ZM437.349 216.272H438.531V216.673H437.839V217.521H438.33V217.922H437.839V218.815H438.531V219.216H437.349V216.272ZM438.799 218.569V218.168H439.267V218.569C439.267 218.726 439.334 218.837 439.513 218.837C439.669 218.837 439.736 218.726 439.736 218.569V218.458C439.736 218.279 439.669 218.19 439.513 218.034L439.223 217.744C438.932 217.476 438.821 217.298 438.821 216.963V216.874C438.821 216.517 439.044 216.227 439.513 216.227C440.003 216.227 440.204 216.472 440.204 216.896V217.142H439.758V216.896C439.758 216.718 439.691 216.651 439.535 216.651C439.401 216.651 439.312 216.718 439.312 216.896V216.963C439.312 217.119 439.401 217.231 439.535 217.365L439.847 217.677C440.115 217.945 440.249 218.123 440.249 218.436V218.569C440.249 218.971 440.026 219.261 439.535 219.261C438.999 219.239 438.799 218.949 438.799 218.569ZM440.516 216.272H441.253C441.743 216.272 441.922 216.517 441.922 216.919V217.543C441.922 217.945 441.743 218.212 441.253 218.212H441.007V219.216H440.516V216.272ZM441.007 216.673V217.833H441.186C441.364 217.833 441.431 217.744 441.431 217.588V216.919C441.431 216.762 441.364 216.673 441.186 216.673H441.007ZM442.234 218.436V217.008C442.234 216.539 442.457 216.227 442.97 216.227C443.483 216.227 443.729 216.562 443.729 217.008V218.436C443.729 218.882 443.506 219.216 442.97 219.216C442.457 219.239 442.234 218.882 442.234 218.436ZM443.238 218.525V216.941C443.238 216.762 443.171 216.629 442.993 216.629C442.814 216.629 442.747 216.762 442.747 216.941V218.525C442.747 218.703 442.814 218.837 442.993 218.837C443.149 218.815 443.238 218.703 443.238 218.525ZM444.465 217.342V219.194H444.041V216.272H444.532L445.067 217.945V216.272H445.469V219.194H445.045L444.465 217.342ZM445.803 218.569V218.168H446.272V218.569C446.272 218.726 446.339 218.837 446.517 218.837C446.673 218.837 446.74 218.726 446.74 218.569V218.458C446.74 218.279 446.673 218.19 446.517 218.034L446.227 217.744C445.937 217.476 445.826 217.298 445.826 216.963V216.874C445.826 216.517 446.049 216.227 446.517 216.227C447.008 216.227 447.209 216.472 447.209 216.896V217.142H446.763V216.896C446.763 216.718 446.696 216.651 446.54 216.651C446.406 216.651 446.317 216.718 446.317 216.896V216.963C446.317 217.119 446.406 217.231 446.54 217.365L446.852 217.677C447.12 217.945 447.253 218.123 447.253 218.436V218.569C447.253 218.971 447.03 219.261 446.54 219.261C445.982 219.239 445.803 218.949 445.803 218.569ZM447.499 216.272H447.99V219.194H447.499V216.272ZM448.324 216.272H449.038C449.529 216.272 449.685 216.495 449.685 216.919V217.209C449.685 217.454 449.596 217.61 449.395 217.677C449.64 217.744 449.752 217.9 449.752 218.168V218.547C449.752 218.971 449.573 219.194 449.083 219.194H448.324V216.272ZM448.837 217.499H449.016C449.172 217.499 449.239 217.409 449.239 217.253V216.896C449.239 216.74 449.172 216.651 448.993 216.651H448.815L448.837 217.499ZM448.837 217.878V218.793H449.06C449.217 218.793 449.306 218.703 449.306 218.547V218.101C449.306 217.945 449.239 217.856 449.06 217.856H448.837V217.878ZM450.064 216.272H450.555V218.793H451.135V219.194H450.064V216.272ZM451.425 216.272H452.607V216.673H451.916V217.521H452.407V217.922H451.916V218.815H452.607V219.216H451.425V216.272Z" fill="white"/>
<path d="M435.631 222.74V221.313C435.631 220.844 435.854 220.532 436.367 220.532C436.902 220.532 437.059 220.844 437.059 221.268V221.625H436.612V221.246C436.612 221.067 436.546 220.956 436.367 220.956C436.189 220.956 436.122 221.089 436.122 221.268V222.852C436.122 223.03 436.189 223.164 436.367 223.164C436.546 223.164 436.612 223.053 436.612 222.874V222.339H437.059V222.852C437.059 223.276 436.88 223.588 436.367 223.588C435.854 223.543 435.631 223.209 435.631 222.74ZM437.371 222.74V221.313C437.371 220.844 437.594 220.532 438.107 220.532C438.62 220.532 438.866 220.866 438.866 221.313V222.74C438.866 223.186 438.642 223.521 438.107 223.521C437.594 223.543 437.371 223.209 437.371 222.74ZM438.375 222.829V221.246C438.375 221.067 438.308 220.933 438.129 220.933C437.951 220.933 437.884 221.067 437.884 221.246V222.829C437.884 223.008 437.951 223.142 438.129 223.142C438.308 223.12 438.375 223.008 438.375 222.829ZM439.602 221.669V223.521H439.178V220.599H439.669L440.204 222.272V220.599H440.606V223.521H440.182L439.602 221.669ZM440.918 222.874V222.473H441.386V222.874C441.386 223.03 441.453 223.142 441.632 223.142C441.788 223.142 441.855 223.03 441.855 222.874V222.763C441.855 222.584 441.788 222.495 441.632 222.339L441.342 222.049C441.052 221.781 440.94 221.603 440.94 221.268V221.179C440.94 220.822 441.163 220.532 441.632 220.532C442.123 220.532 442.323 220.777 442.323 221.201V221.446H441.877V221.201C441.877 221.023 441.81 220.956 441.654 220.956C441.52 220.956 441.431 221.023 441.431 221.201V221.268C441.431 221.424 441.52 221.536 441.654 221.669L441.966 221.982C442.234 222.249 442.368 222.428 442.368 222.74V222.874C442.368 223.276 442.145 223.566 441.654 223.566C441.119 223.543 440.918 223.253 440.918 222.874ZM444.063 220.576V222.785C444.063 223.231 443.863 223.543 443.372 223.543C442.859 223.543 442.636 223.253 442.636 222.785V220.576H443.126V222.852C443.126 223.03 443.193 223.142 443.372 223.142C443.55 223.142 443.617 223.03 443.617 222.852V220.576H444.063ZM445.759 221.603L445.402 223.499H445.179L444.822 221.603V223.499H444.42V220.576H445L445.313 222.227L445.603 220.576H446.227V223.499H445.781V221.603H445.759ZM446.54 220.576H447.276C447.767 220.576 447.945 220.822 447.945 221.223V221.848C447.945 222.249 447.767 222.517 447.276 222.517H447.03V223.521H446.54V220.576ZM447.03 220.978V222.138H447.209C447.387 222.138 447.454 222.049 447.454 221.893V221.223C447.454 221.067 447.387 220.978 447.209 220.978H447.03ZM448.101 220.576H449.417V220.978H449.016V223.499H448.525V220.978H448.123L448.101 220.576ZM449.64 220.576H450.131V223.499H449.64V220.576ZM450.421 222.74V221.313C450.421 220.844 450.644 220.532 451.157 220.532C451.67 220.532 451.916 220.866 451.916 221.313V222.74C451.916 223.186 451.693 223.521 451.157 223.521C450.644 223.543 450.421 223.209 450.421 222.74ZM451.425 222.829V221.246C451.425 221.067 451.358 220.933 451.18 220.933C451.001 220.933 450.934 221.067 450.934 221.246V222.829C450.934 223.008 451.001 223.142 451.18 223.142C451.336 223.12 451.425 223.008 451.425 222.829ZM452.63 221.669V223.521H452.206V220.599H452.697L453.232 222.272V220.599H453.634V223.521H453.21L452.63 221.669Z" fill="white"/>
<path d="M435.564 227.804L436.122 224.882H436.68L437.238 227.804H436.724L436.635 227.269H436.122L436.033 227.804H435.564ZM436.167 226.889H436.568L436.368 225.707L436.167 226.889ZM437.862 225.975V227.826H437.438V224.904H437.929L438.465 226.577V224.904H438.866V227.826H438.442L437.862 225.975ZM440.651 225.662V227.023C440.651 227.469 440.472 227.804 439.937 227.804H439.178V224.882H439.937C440.45 224.882 440.651 225.216 440.651 225.662ZM439.87 227.402C440.071 227.402 440.16 227.291 440.16 227.112V225.573C440.16 225.395 440.093 225.283 439.87 225.283H439.669V227.402H439.87ZM441.409 224.882H442.145C442.636 224.882 442.815 225.127 442.815 225.528V226.153C442.815 226.555 442.636 226.822 442.145 226.822H441.9V227.826H441.409V224.882ZM441.9 225.283V226.443H442.078C442.257 226.443 442.324 226.354 442.324 226.198V225.528C442.324 225.372 442.257 225.283 442.078 225.283H441.9ZM443.573 226.465V227.804H443.082V224.882H443.796C444.287 224.882 444.465 225.127 444.465 225.528V225.908C444.465 226.22 444.354 226.398 444.064 226.465L444.532 227.804H444.019L443.573 226.465ZM443.573 225.283V226.198H443.729C443.908 226.198 443.975 226.108 443.975 225.952V225.528C443.975 225.372 443.908 225.283 443.729 225.283H443.573ZM444.755 227.045V225.618C444.755 225.149 444.979 224.837 445.492 224.837C446.005 224.837 446.25 225.172 446.25 225.618V227.045C446.25 227.492 446.027 227.826 445.492 227.826C444.979 227.849 444.755 227.514 444.755 227.045ZM445.759 227.135V225.551C445.759 225.372 445.692 225.238 445.514 225.238C445.335 225.238 445.269 225.372 445.269 225.551V227.135C445.269 227.313 445.335 227.447 445.514 227.447C445.692 227.425 445.759 227.313 445.759 227.135ZM448.035 225.662V227.023C448.035 227.469 447.856 227.804 447.321 227.804H446.563V224.882H447.321C447.834 224.882 448.035 225.216 448.035 225.662ZM447.254 227.402C447.455 227.402 447.544 227.291 447.544 227.112V225.573C447.544 225.395 447.477 225.283 447.254 225.283H447.053V227.402H447.254ZM449.753 224.882V227.09C449.753 227.536 449.552 227.849 449.061 227.849C448.548 227.849 448.325 227.559 448.325 227.09V224.882H448.816V227.157C448.816 227.335 448.883 227.447 449.061 227.447C449.24 227.447 449.306 227.335 449.306 227.157V224.882H449.753ZM450.043 227.045V225.618C450.043 225.149 450.266 224.837 450.779 224.837C451.314 224.837 451.47 225.149 451.47 225.573V225.93H451.024V225.551C451.024 225.372 450.957 225.261 450.779 225.261C450.6 225.261 450.533 225.395 450.533 225.573V227.157C450.533 227.335 450.6 227.469 450.779 227.469C450.957 227.469 451.024 227.358 451.024 227.179V226.644H451.47V227.157C451.47 227.581 451.292 227.893 450.779 227.893C450.266 227.849 450.043 227.514 450.043 227.045ZM451.716 224.882H453.032V225.283H452.63V227.804H452.14V225.283H451.738L451.716 224.882ZM453.255 224.882H453.746V227.804H453.255V224.882ZM454.036 227.045V225.618C454.036 225.149 454.259 224.837 454.772 224.837C455.285 224.837 455.531 225.172 455.531 225.618V227.045C455.531 227.492 455.307 227.826 454.772 227.826C454.259 227.849 454.036 227.514 454.036 227.045ZM455.04 227.135V225.551C455.04 225.372 454.973 225.238 454.794 225.238C454.616 225.238 454.549 225.372 454.549 225.551V227.135C454.549 227.313 454.616 227.447 454.794 227.447C454.951 227.425 455.04 227.313 455.04 227.135ZM456.222 225.975V227.826H455.798V224.904H456.289L456.824 226.577V224.904H457.226V227.826H456.802L456.222 225.975Z" fill="white"/>
<path d="M537.559 190.62C542.118 190.62 545.814 186.924 545.814 182.365C545.814 177.806 542.118 174.11 537.559 174.11C533 174.11 529.304 177.806 529.304 182.365C529.304 186.924 533 190.62 537.559 190.62Z" fill="#0A97D9"/>
<path d="M602.789 192.053C630.047 192.053 652.143 169.957 652.143 142.7C652.143 115.442 630.047 93.3457 602.789 93.3457C575.532 93.3457 553.436 115.442 553.436 142.7C553.436 169.957 575.532 192.053 602.789 192.053Z" fill="#56C02B"/>
<path d="M573.52 116.864V119.31L575.15 117.593H575.193V128.279H577.511V114.332H575.665L573.52 116.864ZM583.09 118.752C582.146 118.752 581.502 119.095 581.116 119.696V116.22H585.15V114.332H578.97V122.185H581.116V121.885C581.116 121.069 581.502 120.597 582.146 120.597C582.875 120.597 583.133 121.069 583.133 121.842V125.189C583.133 125.919 582.875 126.434 582.146 126.434C581.33 126.434 581.073 125.919 581.073 125.061V123.301H578.927V124.889C578.927 126.992 579.785 128.365 582.146 128.365C584.506 128.365 585.493 127.121 585.493 125.189V121.799C585.493 119.653 584.334 118.752 583.09 118.752Z" fill="white"/>
<path d="M597.382 155.23C597.468 155.23 597.553 155.316 597.553 155.402V160.423C597.553 160.509 597.468 160.595 597.382 160.595H595.365C595.279 160.595 595.193 160.509 595.193 160.423V155.402C595.193 155.316 595.279 155.23 595.365 155.23H597.382ZM619.741 162.741H586.223C586.138 162.741 586.052 162.826 586.052 162.912V164.972C586.052 165.058 586.138 165.144 586.223 165.144H619.741C619.827 165.144 619.913 165.058 619.913 164.972V162.912C619.913 162.826 619.827 162.741 619.741 162.741ZM619.741 166.818H586.223C586.138 166.818 586.052 166.903 586.052 166.989V169.049C586.052 169.135 586.138 169.221 586.223 169.221H619.741C619.827 169.221 619.913 169.135 619.913 169.049V166.989C619.913 166.903 619.827 166.818 619.741 166.818ZM613.347 149.694C612.917 149.351 611.802 148.621 610.428 148.621C609.441 148.621 608.54 149.007 607.725 149.78C607.682 149.823 607.639 149.909 607.639 149.995V150.166C607.639 150.252 607.682 150.338 607.725 150.381C607.81 150.424 607.853 150.467 607.982 150.424H608.025C608.068 150.381 608.154 150.381 608.197 150.338C608.368 150.209 608.84 150.037 609.527 150.037C610.257 150.037 611.63 150.209 613.003 151.497L613.046 151.539C613.132 151.625 613.218 151.668 613.347 151.668C613.432 151.668 613.561 151.625 613.647 151.539L613.69 151.497C615.063 150.252 616.437 150.037 617.166 150.037C617.853 150.037 618.325 150.209 618.497 150.338C618.539 150.381 618.582 150.424 618.668 150.467C618.711 150.467 618.797 150.51 618.883 150.467C619.012 150.424 619.097 150.338 619.097 150.209V150.037C619.097 149.952 619.054 149.866 619.012 149.823C618.196 149.05 617.295 148.664 616.265 148.664C614.892 148.578 613.776 149.351 613.347 149.694ZM611.287 136.304C611.201 136.347 611.158 136.39 611.158 136.476L611.115 136.605C611.072 136.69 611.115 136.776 611.158 136.862C611.201 136.948 611.287 136.991 611.372 136.991H611.415C611.458 136.991 611.544 136.991 611.587 136.948C611.63 136.948 611.673 136.905 611.802 136.905C611.93 136.905 613.304 136.948 614.205 138.45V138.493C614.248 138.579 614.334 138.622 614.419 138.665H614.505C614.548 138.665 614.634 138.665 614.677 138.622H614.72C615.192 138.364 615.707 138.235 616.222 138.235C617.08 138.235 617.638 138.579 617.767 138.708L617.896 138.836C617.939 138.836 617.982 138.879 618.024 138.879H618.11C618.153 138.879 618.196 138.879 618.239 138.836C618.325 138.793 618.368 138.75 618.368 138.665L618.411 138.579V138.493C618.411 138.45 618.411 138.407 618.368 138.364C617.724 137.248 616.78 136.991 616.093 136.991C615.578 136.991 615.149 137.12 614.892 137.205C614.591 136.776 613.819 135.918 612.617 135.918C612.145 136.004 611.716 136.09 611.287 136.304ZM604.205 141.497V141.669C604.205 141.755 604.248 141.84 604.334 141.883C604.42 141.926 604.506 141.926 604.549 141.926H604.592C604.635 141.883 604.677 141.883 604.72 141.84C604.849 141.755 605.321 141.54 606.008 141.54C606.652 141.54 607.639 141.712 608.669 142.527L608.712 142.57C608.797 142.613 608.883 142.656 608.969 142.656H609.012C609.098 142.656 609.227 142.613 609.27 142.527L609.312 142.484C610.428 141.283 611.63 141.111 612.274 141.111C612.703 141.111 613.046 141.197 613.132 141.283C613.175 141.325 613.218 141.368 613.304 141.368H613.518C613.647 141.325 613.733 141.197 613.69 141.068V140.939C613.69 140.853 613.647 140.81 613.604 140.725C612.917 140.167 612.231 139.866 611.458 139.866C610.3 139.866 609.355 140.553 608.969 140.896C608.626 140.639 607.767 140.167 606.737 140.167C605.836 140.167 605.064 140.553 604.377 141.283C604.205 141.325 604.205 141.411 604.205 141.497ZM587.211 144.158C587.211 142.141 588.841 140.51 590.858 140.51H591.073C591.245 137.978 593.39 135.961 595.965 135.961C598.669 135.961 600.901 138.15 600.901 140.896C600.901 141.669 600.729 142.398 600.386 143.042C602.832 143.6 604.677 145.789 604.677 148.407C604.677 151.454 602.231 153.9 599.184 153.9C598.97 153.9 591.845 153.857 591.845 153.857C589.7 153.857 587.94 152.097 587.94 149.952C587.94 148.922 588.326 147.977 589.013 147.291C587.983 146.69 587.211 145.531 587.211 144.158Z" fill="white"/>
<path d="M590.514 114.332H591.458V119.181H592.574V119.954H590.514V114.332ZM593.132 114.332H594.076V119.954H593.132V114.332ZM594.762 114.332H596.994V115.104H595.707V116.735H596.651V117.507H595.707V119.997H594.762V114.332ZM597.509 114.332H599.784V115.104H598.453V116.735H599.397V117.507H598.453V119.224H599.784V119.997H597.509V114.332Z" fill="white"/>
<path d="M590.514 126.82V124.074C590.514 123.173 590.943 122.572 591.93 122.572C592.917 122.572 593.389 123.216 593.389 124.074V126.82C593.389 127.679 592.96 128.323 591.93 128.323C590.943 128.323 590.514 127.679 590.514 126.82ZM592.445 126.949V123.902C592.445 123.559 592.316 123.301 591.973 123.301C591.629 123.301 591.501 123.559 591.501 123.902V126.949C591.501 127.293 591.629 127.55 591.973 127.55C592.273 127.55 592.445 127.293 592.445 126.949ZM594.72 124.718V128.28H593.904V122.658H594.848L595.878 125.876V122.658H596.651V128.28H595.835L594.72 124.718ZM598.711 122.615H599.655V127.464H600.771V128.237H598.711V122.615ZM601.028 128.28L602.101 122.658H603.174L604.247 128.28H603.26L603.088 127.25H602.101L601.929 128.28H601.028ZM602.23 126.477H603.002L602.616 124.203L602.23 126.477ZM605.449 124.718V128.28H604.633V122.658H605.577L606.607 125.876V122.658H607.38V128.28H606.564L605.449 124.718ZM610.856 124.16V126.778C610.856 127.636 610.513 128.28 609.483 128.28H608.024V122.658H609.483C610.47 122.615 610.856 123.258 610.856 124.16ZM609.354 127.507C609.74 127.507 609.912 127.293 609.912 126.949V123.988C609.912 123.645 609.783 123.43 609.354 123.43H608.968V127.507H609.354Z" fill="white"/>
<path d="M563.759 250.141C577.022 250.141 587.774 239.389 587.774 226.125C587.774 212.862 577.022 202.11 563.759 202.11C550.495 202.11 539.743 212.862 539.743 226.125C539.743 239.389 550.495 250.141 563.759 250.141Z" fill="#00689D"/>
<path d="M549.703 213.554V214.744H549.724L550.518 213.909V219.109H551.666V212.322H550.747L549.703 213.554ZM555.655 217.48V216.478C555.655 215.371 555.216 214.807 554.402 214.807C553.921 214.807 553.629 215.037 553.462 215.35V213.888C553.462 213.47 553.587 213.178 554.005 213.178C554.423 213.178 554.527 213.408 554.527 213.846V214.306H555.571V213.951C555.571 212.948 555.237 212.259 553.984 212.259C552.794 212.259 552.334 213.032 552.334 214.097V217.396C552.334 218.441 552.794 219.213 553.984 219.213C555.174 219.192 555.655 218.524 555.655 217.48ZM554.527 217.584C554.527 218.023 554.36 218.274 553.984 218.274C553.608 218.274 553.462 218.023 553.462 217.584V216.352C553.483 215.976 553.65 215.726 554.005 215.726C554.402 215.726 554.548 215.956 554.548 216.415L554.527 217.584Z" fill="white"/>
<path d="M557.849 212.323H558.538C558.997 212.323 559.164 212.552 559.164 212.928V213.513C559.164 213.889 558.997 214.139 558.538 214.139H558.308V215.079H557.849V212.323ZM558.308 212.699V213.784H558.475C558.642 213.784 558.705 213.701 558.705 213.555V212.928C558.705 212.782 558.642 212.699 558.475 212.699H558.308ZM559.394 212.323H560.501V212.699H559.853V213.492H560.313V213.868H559.853V214.703H560.501V215.079H559.394V212.323ZM560.689 215.079L561.211 212.344H561.733L562.255 215.079H561.775L561.691 214.578H561.211L561.127 215.079H560.689ZM561.273 214.202H561.649L561.461 213.095L561.273 214.202ZM562.422 214.369V213.033C562.422 212.594 562.631 212.302 563.111 212.302C563.612 212.302 563.758 212.594 563.758 212.991V213.325H563.341V212.97C563.341 212.803 563.278 212.699 563.111 212.699C562.944 212.699 562.881 212.824 562.881 212.991V214.474C562.881 214.641 562.944 214.766 563.111 214.766C563.278 214.766 563.341 214.662 563.341 214.494V213.993H563.758V214.474C563.758 214.87 563.591 215.163 563.111 215.163C562.631 215.1 562.422 214.787 562.422 214.369ZM564.051 212.323H565.158V212.699H564.51V213.492H564.97V213.868H564.51V214.703H565.158V215.079H564.051V212.323ZM565.909 214.662L565.68 215.288H565.429L565.492 214.641L565.909 214.662ZM567.914 212.323V214.453C567.914 214.849 567.747 215.1 567.288 215.1C566.807 215.1 566.682 214.829 566.682 214.494V213.952H567.121V214.515C567.121 214.662 567.162 214.724 567.288 214.724C567.413 214.724 567.455 214.641 567.455 214.494V212.323H567.914ZM569.543 212.323V214.39C569.543 214.808 569.355 215.1 568.896 215.1C568.415 215.1 568.207 214.829 568.207 214.39V212.323H568.666V214.453C568.666 214.62 568.729 214.724 568.896 214.724C569.063 214.724 569.125 214.62 569.125 214.453V212.323H569.543ZM569.835 214.474V214.119H570.274V214.494C570.274 214.641 570.337 214.745 570.504 214.745C570.65 214.745 570.712 214.641 570.712 214.494V214.39C570.712 214.223 570.65 214.139 570.504 213.993L570.232 213.722C569.961 213.471 569.856 213.304 569.856 212.991V212.907C569.856 212.573 570.065 212.302 570.504 212.302C570.963 212.302 571.151 212.531 571.151 212.928V213.158H570.733V212.928C570.733 212.761 570.671 212.699 570.525 212.699C570.399 212.699 570.316 212.761 570.316 212.928V212.991C570.316 213.137 570.399 213.241 570.525 213.367L570.817 213.659C571.067 213.91 571.193 214.077 571.193 214.369V214.494C571.193 214.87 570.984 215.142 570.525 215.142C570.002 215.1 569.835 214.849 569.835 214.474ZM571.381 212.323H572.613V212.699H572.237V215.058H571.777V212.699H571.381V212.323ZM572.863 212.323H573.323V215.058H572.863V212.323ZM573.636 214.369V213.033C573.636 212.594 573.845 212.302 574.325 212.302C574.826 212.302 574.973 212.594 574.973 212.991V213.325H574.555V212.97C574.555 212.803 574.492 212.699 574.325 212.699C574.158 212.699 574.095 212.824 574.095 212.991V214.474C574.095 214.641 574.158 214.766 574.325 214.766C574.492 214.766 574.555 214.662 574.555 214.494V213.993H574.973V214.474C574.973 214.87 574.806 215.163 574.325 215.163C573.845 215.1 573.636 214.787 573.636 214.369ZM575.265 212.323H576.372V212.699H575.724V213.492H576.184V213.868H575.724V214.703H576.372V215.079H575.265V212.323Z" fill="white"/>
<path d="M557.765 219.192L558.287 216.456H558.809L559.331 219.192H558.851L558.767 218.691H558.287L558.203 219.192H557.765ZM558.349 218.315H558.725L558.537 217.208L558.349 218.315ZM559.957 217.459V219.192H559.561V216.456H560.02L560.521 218.023V216.456H560.897V219.192H560.5L559.957 217.459ZM562.589 217.187V218.461C562.589 218.879 562.422 219.192 561.92 219.192H561.21V216.456H561.92C562.422 216.435 562.589 216.749 562.589 217.187ZM561.879 218.816C562.067 218.816 562.15 218.712 562.15 218.545V217.104C562.15 216.937 562.087 216.832 561.879 216.832H561.691V218.816H561.879ZM563.34 218.607V218.231H563.779V218.607C563.779 218.753 563.842 218.858 564.009 218.858C564.155 218.858 564.217 218.753 564.217 218.607V218.503C564.217 218.336 564.155 218.252 564.009 218.106L563.737 217.835C563.466 217.584 563.361 217.417 563.361 217.104V217.02C563.361 216.686 563.57 216.415 564.009 216.415C564.468 216.415 564.656 216.644 564.656 217.041V217.271H564.238V217.041C564.238 216.874 564.176 216.811 564.03 216.811C563.904 216.811 563.821 216.874 563.821 217.041V217.104C563.821 217.25 563.904 217.354 564.03 217.48L564.322 217.772C564.572 218.023 564.698 218.19 564.698 218.482V218.607C564.698 218.983 564.489 219.255 564.03 219.255C563.528 219.213 563.34 218.962 563.34 218.607ZM564.844 216.435H566.076V216.811H565.7V219.171H565.241V216.811H564.865V216.435H564.844ZM566.786 217.939V219.192H566.327V216.456H566.995C567.454 216.456 567.621 216.686 567.621 217.062V217.417C567.621 217.709 567.517 217.876 567.245 217.939L567.684 219.192H567.204L566.786 217.939ZM566.786 216.811V217.668H566.932C567.099 217.668 567.162 217.584 567.162 217.438V217.041C567.162 216.895 567.099 216.811 566.932 216.811H566.786ZM567.914 218.482V217.145C567.914 216.707 568.123 216.415 568.603 216.415C569.083 216.415 569.313 216.728 569.313 217.145V218.482C569.313 218.9 569.104 219.213 568.603 219.213C568.123 219.213 567.914 218.9 567.914 218.482ZM568.854 218.545V217.062C568.854 216.895 568.791 216.77 568.624 216.77C568.457 216.77 568.394 216.895 568.394 217.062V218.545C568.394 218.712 568.457 218.837 568.624 218.837C568.77 218.837 568.854 218.712 568.854 218.545ZM570.002 217.459V219.192H569.605V216.456H570.065L570.566 218.023V216.456H570.942V219.192H570.545L570.002 217.459ZM571.965 217.73H572.612V219.192H572.278V218.9C572.216 219.108 572.09 219.234 571.84 219.234C571.443 219.234 571.255 218.921 571.255 218.503V217.166C571.255 216.728 571.464 216.435 571.944 216.435C572.445 216.435 572.612 216.728 572.612 217.125V217.375H572.195V217.104C572.195 216.937 572.132 216.832 571.965 216.832C571.798 216.832 571.735 216.958 571.735 217.125V218.607C571.735 218.774 571.798 218.9 571.965 218.9C572.111 218.9 572.195 218.816 572.195 218.628V218.085H571.986V217.73H571.965Z" fill="white"/>
<path d="M557.849 220.383H558.308V223.119H557.849V220.383ZM559.018 221.406V223.14H558.642V220.383H559.102L559.603 221.949V220.383H559.979V223.119H559.582L559.018 221.406ZM560.25 222.534V222.158H560.689V222.534C560.689 222.68 560.751 222.785 560.918 222.785C561.065 222.785 561.127 222.68 561.127 222.534V222.43C561.127 222.263 561.065 222.179 560.918 222.033L560.647 221.761C560.375 221.511 560.271 221.344 560.271 221.03V220.947C560.271 220.613 560.48 220.341 560.918 220.341C561.378 220.341 561.566 220.571 561.566 220.968V221.198H561.148V220.968C561.148 220.801 561.085 220.738 560.939 220.738C560.814 220.738 560.73 220.801 560.73 220.968V221.03C560.73 221.177 560.814 221.281 560.939 221.406L561.232 221.699C561.482 221.949 561.608 222.116 561.608 222.409V222.534C561.608 222.91 561.399 223.181 560.939 223.181C560.438 223.161 560.25 222.889 560.25 222.534ZM561.754 220.383H562.986V220.759H562.61V223.119H562.151V220.759H561.775L561.754 220.383ZM563.236 220.383H563.696V223.119H563.236V220.383ZM563.946 220.383H565.179V220.759H564.803V223.119H564.343V220.759H563.967V220.383H563.946ZM566.766 220.383V222.45C566.766 222.868 566.578 223.161 566.118 223.161C565.638 223.161 565.429 222.889 565.429 222.45V220.383H565.889V222.513C565.889 222.68 565.951 222.785 566.118 222.785C566.285 222.785 566.348 222.68 566.348 222.513V220.383H566.766ZM567.016 220.383H568.248V220.759H567.872V223.119H567.413V220.759H567.037V220.383H567.016ZM568.499 220.383H568.958V223.119H568.499V220.383ZM569.272 222.409V221.072C569.272 220.634 569.48 220.341 569.961 220.341C570.441 220.341 570.671 220.655 570.671 221.072V222.409C570.671 222.826 570.462 223.14 569.961 223.14C569.48 223.161 569.272 222.847 569.272 222.409ZM570.211 222.492V221.01C570.211 220.842 570.149 220.717 569.982 220.717C569.814 220.717 569.752 220.842 569.752 221.01V222.492C569.752 222.659 569.814 222.785 569.982 222.785C570.128 222.764 570.211 222.659 570.211 222.492ZM571.36 221.406V223.14H570.963V220.383H571.422L571.924 221.949V220.383H572.3V223.119H571.903L571.36 221.406ZM572.592 222.534V222.158H573.03V222.534C573.03 222.68 573.093 222.785 573.26 222.785C573.406 222.785 573.469 222.68 573.469 222.534V222.43C573.469 222.263 573.406 222.179 573.26 222.033L572.989 221.761C572.717 221.511 572.613 221.344 572.613 221.03V220.947C572.613 220.613 572.822 220.341 573.26 220.341C573.72 220.341 573.908 220.571 573.908 220.968V221.198H573.49V220.968C573.49 220.801 573.427 220.738 573.281 220.738C573.156 220.738 573.072 220.801 573.072 220.968V221.03C573.072 221.177 573.156 221.281 573.281 221.406L573.573 221.699C573.824 221.949 573.949 222.116 573.949 222.409V222.534C573.949 222.91 573.74 223.181 573.281 223.181C572.78 223.161 572.592 222.889 572.592 222.534Z" fill="white"/>
<path d="M568.831 226.042C568.831 226.042 568.539 226.418 568.622 226.794C568.706 227.169 569.124 227.378 569.124 227.378C569.124 227.378 569.416 227.002 569.332 226.627C569.249 226.251 568.831 226.042 568.831 226.042ZM568.372 228.172C568.372 228.172 568.664 227.796 568.581 227.42C568.497 227.044 568.079 226.835 568.079 226.835C568.079 226.835 567.787 227.211 567.871 227.566C567.954 227.963 568.372 228.172 568.372 228.172ZM569.541 227.775C569.541 227.775 569.834 228.067 570.189 228.047C570.523 228.026 570.773 227.671 570.773 227.671C570.773 227.671 570.481 227.378 570.126 227.399C569.792 227.42 569.541 227.775 569.541 227.775ZM570.022 226.167C569.75 226.439 569.792 226.94 569.792 226.94C569.792 226.94 570.272 226.982 570.565 226.71C570.836 226.439 570.794 225.937 570.794 225.937C570.794 225.937 570.293 225.896 570.022 226.167ZM569.416 228.903C569.75 228.945 570.063 228.652 570.063 228.652C570.063 228.652 569.834 228.297 569.5 228.255C569.165 228.214 568.852 228.506 568.852 228.506C568.852 228.506 569.082 228.861 569.416 228.903ZM569.708 234.771H567.182C566.994 234.771 566.827 234.938 566.827 235.126C566.827 235.314 566.994 235.481 567.182 235.481H569.708C569.896 235.481 570.063 235.314 570.063 235.126C570.084 234.938 569.917 234.771 569.708 234.771ZM569.708 238.739H567.182C566.994 238.739 566.827 238.906 566.827 239.094C566.827 239.282 566.994 239.449 567.182 239.449H569.708C569.896 239.449 570.063 239.282 570.063 239.094C570.084 238.885 569.917 238.739 569.708 238.739ZM558.327 233.915C558.265 233.894 558.202 233.873 558.16 233.873C558.16 233.873 558.223 233.894 558.327 233.915Z" fill="white"/>
<path d="M569.624 235.753H567.285C567.181 235.753 567.077 235.837 567.077 235.962V236.672L565.552 236.839L563.318 236.797V235.419C563.61 235.377 563.902 235.314 564.216 235.231C566.367 234.625 566.847 232.85 566.784 231.618C566.742 230.365 567.139 229.885 567.724 229.655C567.891 229.593 568.058 229.551 568.204 229.53C568.204 229.843 568.267 230.198 568.413 230.616C568.455 230.616 568.517 230.616 568.559 230.595C568.413 230.156 568.35 229.801 568.35 229.488C568.643 229.446 568.851 229.467 568.851 229.467C568.851 229.467 568.643 229.363 568.371 229.112C568.476 228.527 568.831 228.152 569.186 227.776C569.394 227.567 569.603 227.358 569.749 227.107L569.624 227.024C569.478 227.275 569.269 227.462 569.081 227.671C568.726 228.026 568.371 228.402 568.246 229.008C568.121 228.903 567.995 228.778 567.87 228.632C567.348 228.026 566.659 228.465 565.677 229.384C564.696 230.282 563.485 230.323 562.273 229.091C560.686 227.462 559.308 227.483 558.368 227.567C559.016 227.838 559.245 228.444 559.58 229.989C559.914 231.597 560.791 232.328 561.981 232.433C561.313 232.662 561.292 233.038 560.415 233.644C559.726 234.124 558.765 233.978 558.368 233.874C559.099 234.103 559.935 234.855 560.707 235.127C561.146 235.273 561.626 235.377 562.106 235.419V236.735L558.097 236.651V237.57L565.594 237.403L567.118 237.57V238.28C567.118 238.384 567.202 238.489 567.327 238.489H569.666C569.77 238.489 569.875 238.405 569.875 238.28V235.941C569.833 235.837 569.729 235.753 569.624 235.753ZM562.441 235.461C562.608 235.461 562.775 235.461 562.942 235.44V236.755L562.441 236.735V235.461ZM557.825 237.424C557.825 237.612 557.7 237.779 557.533 237.779H557.345C557.178 237.779 557.053 237.632 557.053 237.424V236.797C557.053 236.609 557.178 236.442 557.345 236.442H557.533C557.7 236.442 557.825 236.588 557.825 236.797V237.424Z" fill="white"/>
<path d="M663.633 185.405C665.852 185.405 667.65 183.607 667.65 181.389C667.65 179.171 665.852 177.373 663.633 177.373C661.415 177.373 659.617 179.171 659.617 181.389C659.617 183.607 661.415 185.405 663.633 185.405Z" fill="#19486A"/>
</svg>
