<svg width="260" height="115" viewBox="0 0 260 115" fill="none" xmlns="http://www.w3.org/2000/svg">
<path d="M5.975 66.6395C9.2749 66.6395 11.95 63.9644 11.95 60.6645C11.95 57.3646 9.2749 54.6895 5.975 54.6895C2.6751 54.6895 0 57.3646 0 60.6645C0 63.9644 2.6751 66.6395 5.975 66.6395Z" fill="#E5243B"/>
<path d="M22.0988 56.3627C24.4737 56.3627 26.3988 54.4375 26.3988 52.0627C26.3988 49.6879 24.4737 47.7627 22.0988 47.7627C19.724 47.7627 17.7988 49.6879 17.7988 52.0627C17.7988 54.4375 19.724 56.3627 22.0988 56.3627Z" fill="#DDA63A"/>
<path d="M35.0709 77.4548C36.3964 77.4548 37.4709 76.3803 37.4709 75.0548C37.4709 73.7293 36.3964 72.6548 35.0709 72.6548C33.7454 72.6548 32.6709 73.7293 32.6709 75.0548C32.6709 76.3803 33.7454 77.4548 35.0709 77.4548Z" fill="#4C9F38"/>
<path d="M35.397 51.7946C35.9852 51.7946 36.462 51.3177 36.462 50.7296C36.462 50.1414 35.9852 49.6646 35.397 49.6646C34.8088 49.6646 34.332 50.1414 34.332 50.7296C34.332 51.3177 34.8088 51.7946 35.397 51.7946Z" fill="#C5192D"/>
<path d="M36.4917 41.7134C38.2756 41.7134 39.7217 40.2673 39.7217 38.4834C39.7217 36.6995 38.2756 35.2534 36.4917 35.2534C34.7078 35.2534 33.2617 36.6995 33.2617 38.4834C33.2617 40.2673 34.7078 41.7134 36.4917 41.7134Z" fill="#FF3A21"/>
<path d="M33.0674 64.8101C34.5171 64.8101 35.6924 63.6348 35.6924 62.1851C35.6924 60.7353 34.5171 59.5601 33.0674 59.5601C31.6176 59.5601 30.4424 60.7353 30.4424 62.1851C30.4424 63.6348 31.6176 64.8101 33.0674 64.8101Z" fill="#26BDE2"/>
<path d="M93.666 110.398C121.28 110.398 143.666 88.0122 143.666 60.3979C143.666 32.7837 121.28 10.3979 93.666 10.3979C66.0518 10.3979 43.666 32.7837 43.666 60.3979C43.666 88.0122 66.0518 110.398 93.666 110.398Z" fill="#FCC30B"/>
<path d="M66.1885 33.4414H69.8407L66.6667 45.6153H69.0146L72.145 33.7022V31.5283H66.1885V33.4414Z" fill="white"/>
<path d="M78.8389 37.224L79.9258 31.5284H81.0128L82.0997 37.224H81.0997L80.9258 36.1805H79.9258L79.7519 37.224H78.8389ZM80.0563 35.3979H80.8389L80.4476 33.0936L80.0563 35.3979ZM82.4476 31.5284H84.7084V32.311H83.4041V33.9631H84.3606V34.7458H83.4041V37.2675H82.4476V31.5284ZM85.0997 31.5284H87.3606V32.311H86.0563V33.9631H87.0128V34.7458H86.0563V37.2675H85.0997V31.5284ZM87.6215 35.7458V32.9631C87.6215 32.0501 88.0563 31.4414 89.0563 31.4414C90.0563 31.4414 90.5345 32.0936 90.5345 32.9631V35.7458C90.5345 36.6153 90.0997 37.2675 89.0563 37.2675C88.0563 37.311 87.6215 36.6153 87.6215 35.7458ZM89.578 35.9197V32.8327C89.578 32.4849 89.4476 32.224 89.0997 32.224C88.7519 32.224 88.6215 32.4849 88.6215 32.8327V35.9197C88.6215 36.2675 88.7519 36.5284 89.0997 36.5284C89.4476 36.4849 89.578 36.2675 89.578 35.9197ZM92.0128 34.6153V37.224H91.0563V31.5284H92.4476C93.4041 31.5284 93.7519 32.0066 93.7519 32.7892V33.5284C93.7519 34.1371 93.5345 34.4849 92.9693 34.6153L93.8823 37.224H92.8823L92.0128 34.6153ZM92.0128 32.311V34.0936H92.3171C92.665 34.0936 92.7954 33.9197 92.7954 33.6153V32.7892C92.7954 32.4849 92.665 32.311 92.3171 32.311H92.0128ZM97.1432 33.0501V35.7023C97.1432 36.5718 96.7954 37.224 95.7519 37.224H94.2736V31.5284H95.7519C96.7519 31.5284 97.1432 32.1805 97.1432 33.0501ZM95.6215 36.4414C96.0128 36.4414 96.1867 36.224 96.1867 35.8762V32.8762C96.1867 32.5284 96.0563 32.311 95.6215 32.311H95.2302V36.4414H95.6215ZM97.3606 37.224L98.4476 31.5284H99.5345L100.621 37.224H99.6215L99.4476 36.1805H98.4476L98.2736 37.224H97.3606ZM98.578 35.3979H99.3606L98.9693 33.0936L98.578 35.3979ZM100.969 31.5284H102.36C103.317 31.5284 103.621 31.9631 103.621 32.7892V33.3544C103.621 33.8327 103.447 34.1371 103.056 34.2675C103.534 34.3979 103.752 34.7023 103.752 35.224V35.9631C103.752 36.7892 103.404 37.224 102.447 37.224H100.969V31.5284ZM101.926 33.9197H102.273C102.578 33.9197 102.708 33.7458 102.708 33.4414V32.7458C102.708 32.4414 102.578 32.2675 102.23 32.2675H101.882V33.9197H101.926ZM101.926 34.6588V36.4414H102.36C102.665 36.4414 102.839 36.2675 102.839 35.9631V35.0936C102.839 34.7892 102.708 34.6153 102.36 34.6153H101.926V34.6588ZM104.23 31.5284H105.187V36.4414H106.317V37.224H104.23V31.5284ZM106.752 31.5284H109.056V32.311H107.708V33.9631H108.665V34.7458H107.708V36.4849H109.056V37.2675H106.752V31.5284ZM110.187 37.224L111.273 31.5284H112.36L113.447 37.224H112.447L112.273 36.1805H111.273L111.1 37.224H110.187ZM111.404 35.3979H112.187L111.795 33.0936L111.404 35.3979ZM114.621 33.6153V37.224H113.795V31.5284H114.752L115.795 34.7892V31.5284H116.578V37.224H115.752L114.621 33.6153ZM119.969 33.0501V35.7023C119.969 36.5718 119.621 37.224 118.578 37.224H117.1V31.5284H118.578C119.621 31.5284 119.969 32.1805 119.969 33.0501ZM118.491 36.4414C118.882 36.4414 119.056 36.224 119.056 35.8762V32.8762C119.056 32.5284 118.926 32.311 118.491 32.311H118.1V36.4414H118.491Z" fill="white"/>
<path d="M78.9697 44.1368V41.3977C78.9697 40.5282 79.4045 39.876 80.4045 39.876C81.448 39.876 81.7523 40.4847 81.7523 41.3108V41.9629H80.8828V41.2238C80.8828 40.876 80.7523 40.6586 80.4045 40.6586C80.0567 40.6586 79.9262 40.9195 79.9262 41.2673V44.3108C79.9262 44.6586 80.0567 44.9195 80.4045 44.9195C80.7523 44.9195 80.8828 44.7021 80.8828 44.3542V43.3108H81.7523V44.3108C81.7523 45.1368 81.4045 45.7455 80.4045 45.7455C79.4045 45.7021 78.9697 45.0499 78.9697 44.1368ZM82.361 39.9195H83.3176V44.8325H84.448V45.6151H82.361V39.9195ZM84.9697 39.9195H87.2306V40.7021H85.9262V42.3108H86.8828V43.0934H85.9262V44.8325H87.2306V45.6151H84.9697V39.9195ZM87.7089 45.6151L88.7958 39.9195H89.8828L90.9697 45.6151H89.9697L89.7958 44.5716H88.7958L88.6219 45.6151H87.7089ZM88.9262 43.8325H89.7089L89.3176 41.5282L88.9262 43.8325ZM92.2306 42.0499V45.6151H91.4045V39.9195H92.361L93.4045 43.1803V39.9195H94.1871V45.6151H93.361L92.2306 42.0499ZM96.7523 39.9195H99.0132V40.7021H97.7089V42.3108H98.6654V43.0934H97.7089V44.8325H99.0132V45.6151H96.7523V39.9195ZM100.405 42.0499V45.6151H99.5784V39.9195H100.535L101.578 43.1803V39.9195H102.361V45.6151H101.535L100.405 42.0499ZM103.013 39.9195H105.274V40.7021H103.97V42.3108H104.926V43.0934H103.97V44.8325H105.274V45.6151H103.013V39.9195ZM106.839 43.0064V45.6151H105.883V39.9195H107.274C108.231 39.9195 108.578 40.3977 108.578 41.1803V41.9195C108.578 42.5282 108.361 42.876 107.796 43.0064L108.709 45.5716H107.709L106.839 43.0064ZM106.839 40.7021V42.4847H107.144C107.491 42.4847 107.622 42.3108 107.622 42.0064V41.1803C107.622 40.876 107.491 40.7021 107.144 40.7021H106.839ZM110.622 42.5716H111.97V45.6151H111.274V45.0064C111.144 45.4412 110.883 45.7021 110.361 45.7021C109.535 45.7021 109.144 45.0499 109.144 44.1803V41.4412C109.144 40.5716 109.578 39.9195 110.578 39.9195C111.622 39.9195 111.926 40.5281 111.926 41.3542V41.876H111.057V41.3108C111.057 40.9629 110.926 40.7455 110.578 40.7455C110.231 40.7455 110.1 41.0064 110.1 41.3542V44.3977C110.1 44.7455 110.231 45.0064 110.578 45.0064C110.883 45.0064 111.057 44.8325 111.057 44.4412V43.4412H110.622V42.5716ZM114.448 43.4412V45.6151H113.491V43.4412L112.404 39.9195H113.404L113.97 42.0934L114.535 39.9195H115.448L114.448 43.4412Z" fill="white"/>
<path d="M94.0566 87.5721C94.5349 87.5721 94.8827 87.1808 94.8827 86.7895V82.3112C94.8827 81.9199 94.4914 81.5286 94.0566 81.5286C93.5783 81.5286 93.2305 81.9634 93.2305 82.3112V86.7895C93.2305 87.1373 93.6218 87.5721 94.0566 87.5721ZM93.9696 59.5721C88.3175 59.5721 83.7088 64.1808 83.7088 69.833C83.7088 75.4851 88.3175 80.0938 93.9696 80.0938C99.6218 80.0938 104.23 75.4851 104.23 69.833C104.23 64.1373 99.6653 59.5721 93.9696 59.5721ZM93.2305 63.6156C93.2305 63.2677 93.5783 62.9199 94.0131 62.9199C94.4479 62.9199 94.7522 63.3112 94.7522 63.6156V67.1373C94.7522 67.4851 94.4044 67.833 94.0131 67.833C93.5783 67.833 93.2305 67.4417 93.2305 67.1373V63.6156ZM93.9696 75.0504C91.0131 75.0504 88.6218 72.6591 88.6218 69.7025C88.6218 67.3112 90.187 65.2677 92.3609 64.6156V66.6156C91.2305 67.1808 90.4479 68.3547 90.4479 69.7025C90.4479 71.6156 92.0131 73.1808 93.9262 73.1808C95.8392 73.1808 97.4044 71.6156 97.4044 69.7025C97.4044 68.3547 96.6218 67.1808 95.4914 66.5721V64.5721C97.6653 65.2243 99.2305 67.2677 99.2305 69.6591C99.3175 72.6591 96.9262 75.0504 93.9696 75.0504ZM82.2305 69.7025C82.2305 69.2243 81.8392 68.8764 81.4479 68.8764H76.9262C76.5349 68.8764 76.1436 69.2677 76.1436 69.7025C76.1436 70.1808 76.5783 70.5286 76.9262 70.5286H81.4044C81.7957 70.5721 82.2305 70.1808 82.2305 69.7025ZM111.839 69.7025C111.839 69.2243 111.448 68.8764 111.057 68.8764H106.578C106.187 68.8764 105.796 69.2677 105.796 69.7025C105.796 70.1808 106.23 70.5286 106.578 70.5286H111.057C111.404 70.5721 111.839 70.1808 111.839 69.7025ZM93.9696 57.9634C94.4479 57.9634 94.7957 57.5721 94.7957 57.1808V52.7025C94.7957 52.3112 94.4044 51.9199 93.9696 51.9199C93.4914 51.9199 93.1436 52.3547 93.1436 52.7025V57.1373C93.1436 57.5286 93.5349 57.9634 93.9696 57.9634ZM83.7523 63.8764C83.9696 63.4851 83.7957 62.9199 83.4914 62.746L79.5783 60.5286C79.2305 60.3547 78.7088 60.4417 78.4914 60.8764C78.274 61.2677 78.4479 61.833 78.7523 62.0069L82.6653 64.2243C82.9696 64.3982 83.5349 64.2677 83.7523 63.8764ZM109.491 78.5721C109.709 78.1808 109.535 77.6156 109.23 77.4417L105.317 75.2243C104.97 75.0504 104.448 75.1373 104.23 75.5721C104.013 75.9634 104.187 76.5286 104.491 76.7025L108.404 78.9199C108.709 79.0938 109.23 79.0069 109.491 78.5721ZM99.8392 59.4851C100.231 59.7025 100.752 59.5286 100.97 59.2243L103.187 55.3112C103.361 54.9634 103.274 54.4417 102.839 54.2243C102.448 54.0069 101.883 54.1808 101.709 54.4851L99.4914 58.3982C99.3175 58.746 99.4479 59.2677 99.8392 59.4851ZM85.1001 85.2243C85.4914 85.4417 86.0131 85.2677 86.2305 84.9634L88.4479 81.0504C88.6218 80.7025 88.5349 80.1808 88.1001 79.9634C87.7088 79.746 87.1436 79.9199 86.9696 80.2243L84.7522 84.1373C84.5783 84.4417 84.7088 84.9634 85.1001 85.2243ZM88.1001 59.5286C88.4914 59.3112 88.6218 58.746 88.4479 58.4417L86.2305 54.5286C86.0566 54.1808 85.4914 54.0069 85.1001 54.2677C84.7088 54.4851 84.5783 55.0504 84.7522 55.3982L86.9696 59.3112C87.187 59.5721 87.7088 59.746 88.1001 59.5286ZM102.883 85.1808C103.274 84.9634 103.404 84.3982 103.23 84.0938L101.013 80.1808C100.839 79.833 100.274 79.6591 99.8827 79.9199C99.4914 80.1373 99.3609 80.7025 99.5349 81.0504L101.752 84.9634C101.926 85.2677 102.491 85.4417 102.883 85.1808ZM104.187 63.833C104.404 64.2243 104.97 64.3547 105.274 64.1808L109.187 61.9634C109.535 61.7895 109.709 61.2243 109.448 60.833C109.23 60.4417 108.665 60.3112 108.317 60.4851L104.404 62.7025C104.143 62.9199 103.97 63.4417 104.187 63.833ZM78.5349 78.6156C78.7523 79.0069 79.3175 79.1373 79.6218 78.9634L83.5349 76.746C83.8827 76.5721 84.0566 76.0069 83.7957 75.6156C83.5783 75.2243 83.0131 75.0938 82.6653 75.2677L78.7523 77.4851C78.4479 77.6591 78.274 78.2243 78.5349 78.6156Z" fill="white"/>
<path d="M145.682 25.25C152.654 25.25 158.307 19.5976 158.307 12.625C158.307 5.65241 152.654 0 145.682 0C138.709 0 133.057 5.65241 133.057 12.625C133.057 19.5976 138.709 25.25 145.682 25.25Z" fill="#A21942"/>
<path d="M140.291 8.02534V7.63013C140.291 7.2898 140.17 7.0373 139.896 6.91654C140.137 6.79578 140.247 6.58719 140.247 6.30176V6.15904C140.247 5.59915 139.962 5.30273 139.402 5.30273C138.853 5.30273 138.568 5.59915 138.568 6.15904V6.30176C138.568 6.58719 138.677 6.80676 138.908 6.91654C138.633 7.0373 138.513 7.2898 138.513 7.63013V8.01436C138.513 8.5523 138.765 8.93654 139.402 8.93654C140.028 8.94752 140.291 8.56328 140.291 8.02534ZM139.127 6.11513C139.127 5.89556 139.204 5.7748 139.391 5.7748C139.589 5.7748 139.665 5.89556 139.665 6.11513V6.35665C139.665 6.57621 139.589 6.69697 139.391 6.69697C139.193 6.69697 139.127 6.56523 139.127 6.35665V6.11513ZM139.687 8.09121C139.687 8.31078 139.611 8.46447 139.391 8.46447C139.182 8.46447 139.106 8.31078 139.106 8.09121V7.50936C139.106 7.2898 139.182 7.14708 139.391 7.14708C139.611 7.14708 139.687 7.30078 139.687 7.50936V8.09121Z" fill="white"/>
<path d="M149.117 12.5482L147.316 14.2608C147.251 14.3266 147.218 14.3815 147.218 14.5133V19.2998C147.218 19.3547 147.262 19.3986 147.316 19.3986H149.172C149.227 19.3986 149.271 19.3547 149.271 19.2998V12.5921C149.282 12.5262 149.238 12.4274 149.117 12.5482ZM143.946 14.7658L142.146 16.4784C142.08 16.5442 142.047 16.5991 142.047 16.7309V19.2888C142.047 19.3437 142.091 19.3876 142.146 19.3876H144.001C144.056 19.3876 144.1 19.3437 144.1 19.2888V14.8097C144.111 14.7548 144.067 14.656 143.946 14.7658Z" fill="white"/>
<path d="M149.941 10.4733C149.941 10.4624 149.941 10.4404 149.93 10.4294C149.919 10.4185 149.908 10.4185 149.897 10.4185H149.875L148.503 10.7258H148.481C148.47 10.7258 148.459 10.7368 148.459 10.7368C148.437 10.7588 148.437 10.7917 148.459 10.8137L148.47 10.8247L148.789 11.143L145.671 14.2608L144.233 12.8227C144.222 12.8117 144.189 12.8117 144.178 12.8227L143.782 13.2179L141.477 15.5234C141.466 15.5343 141.466 15.5673 141.477 15.5783L141.872 15.9735C141.883 15.9844 141.916 15.9844 141.927 15.9735L144.211 13.701L145.254 14.7439L145.649 15.1391C145.66 15.1501 145.693 15.1501 145.704 15.1391L149.239 11.6041L149.568 11.9335C149.59 11.9554 149.623 11.9554 149.645 11.9335C149.656 11.9225 149.656 11.9115 149.656 11.9005L149.963 10.4953L149.941 10.4733Z" fill="white"/>
<path d="M146.548 15.0732L145.681 15.9515C145.659 15.9625 145.637 15.9625 145.626 15.9515L144.836 15.1501C144.693 15.0074 144.66 15.1281 144.66 15.183V19.3108C144.66 19.3657 144.704 19.4096 144.759 19.4096H146.614C146.669 19.4096 146.713 19.3657 146.713 19.3108V15.1171C146.713 15.0403 146.669 14.9415 146.548 15.0732Z" fill="white"/>
<path d="M142.333 5.71967V6.38935C142.333 6.60891 142.245 6.77359 141.982 6.77359H141.608V5.33543H141.982C142.245 5.33543 142.333 5.50011 142.333 5.71967ZM141.949 6.57598C142.048 6.57598 142.091 6.52109 142.091 6.43326V5.67576C142.091 5.58793 142.059 5.53304 141.949 5.53304H141.85V6.57598H141.949ZM142.487 5.33543H143.069V5.53304H142.728V5.95022H142.97V6.14782H142.728V6.58695H143.069V6.78456H142.487V5.33543ZM143.189 6.40032V5.69772C143.189 5.46717 143.299 5.31348 143.552 5.31348C143.815 5.31348 143.892 5.46717 143.892 5.67576V5.85141H143.672V5.6538C143.672 5.56598 143.639 5.51109 143.552 5.51109C143.464 5.51109 143.431 5.57695 143.431 5.66478V6.44424C143.431 6.53206 143.464 6.59793 143.552 6.59793C143.639 6.59793 143.672 6.54304 143.672 6.45522V6.19174H143.892V6.44424C143.892 6.65282 143.804 6.80652 143.552 6.80652C143.299 6.79554 143.189 6.61989 143.189 6.40032ZM144.046 5.33543H144.627V5.53304H144.287V5.95022H144.529V6.14782H144.287V6.58695H144.627V6.78456H144.046V5.33543ZM144.968 5.86239V6.77359H144.759V5.33543H145.001L145.264 6.1588V5.33543H145.462V6.77359H145.253L144.968 5.86239ZM145.594 5.33543H146.241V5.53304H146.044V6.77359H145.802V5.53304H145.604V5.33543H145.594ZM147.13 5.88435L146.999 6.77359H146.768L146.571 5.33543H146.801L146.911 6.24663L147.032 5.33543H147.229L147.361 6.24663L147.471 5.33543H147.679L147.493 6.77359H147.273L147.13 5.88435ZM147.778 6.40032V5.69772C147.778 5.46717 147.888 5.31348 148.14 5.31348C148.393 5.31348 148.514 5.47815 148.514 5.69772V6.40032C148.514 6.61989 148.404 6.78456 148.14 6.78456C147.888 6.79554 147.778 6.61989 147.778 6.40032ZM148.261 6.44424V5.66478C148.261 5.57695 148.228 5.51109 148.14 5.51109C148.053 5.51109 148.02 5.57695 148.02 5.66478V6.44424C148.02 6.53206 148.053 6.59793 148.14 6.59793C148.228 6.58695 148.261 6.53206 148.261 6.44424ZM148.909 6.11489V6.77359H148.667V5.33543H149.019C149.26 5.33543 149.348 5.45619 149.348 5.6538V5.84043C149.348 5.99413 149.293 6.08195 149.15 6.11489L149.381 6.77359H149.128L148.909 6.11489ZM148.909 5.53304V5.98315H148.986C149.074 5.98315 149.107 5.93924 149.107 5.86239V5.6538C149.107 5.57695 149.074 5.53304 148.986 5.53304H148.909ZM149.743 6.07098V6.77359H149.502V5.33543H149.743V5.97217L150.007 5.33543H150.248L149.963 5.98315L150.248 6.77359H149.996L149.743 6.07098ZM150.589 6.77359L150.863 5.33543H151.137L151.412 6.77359H151.159L151.116 6.51011H150.863L150.819 6.77359H150.589ZM150.896 6.3125H151.094L150.995 5.73065L150.896 6.3125ZM151.697 5.86239V6.77359H151.489V5.33543H151.73L151.994 6.1588V5.33543H152.191V6.77359H151.983L151.697 5.86239ZM153.081 5.71967V6.38935C153.081 6.60891 152.993 6.77359 152.729 6.77359H152.356V5.33543H152.729C152.993 5.33543 153.081 5.50011 153.081 5.71967ZM152.696 6.57598C152.795 6.57598 152.839 6.52109 152.839 6.43326V5.67576C152.839 5.58793 152.806 5.53304 152.696 5.53304H152.598V6.57598H152.696Z" fill="white"/>
<path d="M141.608 7.45457H142.19V7.65218H141.85V8.06936H142.091V8.26697H141.85V8.7061H142.19V8.9037H141.608V7.45457ZM142.289 8.51947V7.81686C142.289 7.58631 142.399 7.43262 142.651 7.43262C142.915 7.43262 142.992 7.58631 142.992 7.7949V7.97055H142.772V7.78392C142.772 7.6961 142.739 7.6412 142.651 7.6412C142.564 7.6412 142.531 7.70707 142.531 7.7949V8.57436C142.531 8.66218 142.564 8.72805 142.651 8.72805C142.739 8.72805 142.772 8.67316 142.772 8.58533V8.32186H142.992V8.57436C142.992 8.78294 142.904 8.93664 142.651 8.93664C142.399 8.91468 142.289 8.75001 142.289 8.51947ZM143.123 8.51947V7.81686C143.123 7.58631 143.233 7.43262 143.486 7.43262C143.738 7.43262 143.859 7.59729 143.859 7.81686V8.51947C143.859 8.73903 143.749 8.9037 143.486 8.9037C143.244 8.91468 143.123 8.75001 143.123 8.51947ZM143.617 8.56338V7.78392C143.617 7.6961 143.584 7.63023 143.497 7.63023C143.409 7.63023 143.376 7.6961 143.376 7.78392V8.56338C143.376 8.6512 143.409 8.71707 143.497 8.71707C143.584 8.7061 143.617 8.6512 143.617 8.56338ZM144.21 7.99251V8.9037H144.002V7.46555H144.243L144.507 8.28892V7.46555H144.704V8.9037H144.496L144.21 7.99251ZM144.847 8.51947V7.81686C144.847 7.58631 144.957 7.43262 145.209 7.43262C145.462 7.43262 145.583 7.59729 145.583 7.81686V8.51947C145.583 8.73903 145.473 8.9037 145.209 8.9037C144.957 8.91468 144.847 8.75001 144.847 8.51947ZM145.33 8.56338V7.78392C145.33 7.6961 145.297 7.63023 145.209 7.63023C145.121 7.63023 145.089 7.6961 145.089 7.78392V8.56338C145.089 8.6512 145.121 8.71707 145.209 8.71707C145.297 8.7061 145.33 8.6512 145.33 8.56338ZM146.384 7.95957L146.208 8.89273H146.099L145.923 7.95957V8.89273H145.725V7.45457H146.011L146.164 8.26697L146.307 7.45457H146.614V8.89273H146.395L146.384 7.95957ZM146.746 7.45457H146.988V8.89273H146.746V7.45457ZM147.119 8.51947V7.81686C147.119 7.58631 147.229 7.43262 147.482 7.43262C147.745 7.43262 147.822 7.58631 147.822 7.7949V7.97055H147.603V7.78392C147.603 7.6961 147.57 7.6412 147.482 7.6412C147.394 7.6412 147.361 7.70707 147.361 7.7949V8.57436C147.361 8.66218 147.394 8.72805 147.482 8.72805C147.57 8.72805 147.603 8.67316 147.603 8.58533V8.32186H147.822V8.57436C147.822 8.78294 147.734 8.93664 147.482 8.93664C147.229 8.91468 147.119 8.75001 147.119 8.51947ZM148.612 8.12425H148.953V8.89273H148.777V8.73903C148.744 8.84881 148.678 8.91468 148.547 8.91468C148.338 8.91468 148.239 8.75001 148.239 8.53044V7.82783C148.239 7.59729 148.349 7.4436 148.602 7.4436C148.865 7.4436 148.953 7.59729 148.953 7.80588V7.93762H148.733V7.7949C148.733 7.70707 148.7 7.65218 148.612 7.65218C148.525 7.65218 148.492 7.71805 148.492 7.80588V8.58533C148.492 8.67316 148.525 8.73903 148.612 8.73903C148.689 8.73903 148.733 8.69512 148.733 8.59631V8.34381H148.623V8.12425H148.612ZM149.359 8.23403V8.89273H149.117V7.45457H149.469C149.71 7.45457 149.798 7.57533 149.798 7.77294V7.95957C149.798 8.11327 149.743 8.2011 149.601 8.23403L149.831 8.89273H149.579L149.359 8.23403ZM149.359 7.65218V8.10229H149.436C149.524 8.10229 149.557 8.05838 149.557 7.98153V7.77294C149.557 7.6961 149.524 7.65218 149.436 7.65218H149.359ZM149.908 8.51947V7.81686C149.908 7.58631 150.018 7.43262 150.27 7.43262C150.523 7.43262 150.643 7.59729 150.643 7.81686V8.51947C150.643 8.73903 150.534 8.9037 150.27 8.9037C150.018 8.91468 149.908 8.75001 149.908 8.51947ZM150.402 8.56338V7.78392C150.402 7.6961 150.369 7.63023 150.281 7.63023C150.193 7.63023 150.16 7.6961 150.16 7.78392V8.56338C150.16 8.6512 150.193 8.71707 150.281 8.71707C150.369 8.7061 150.402 8.6512 150.402 8.56338ZM151.269 8.00349L151.137 8.89273H150.907L150.709 7.45457H150.94L151.05 8.36577L151.17 7.45457H151.368L151.5 8.36577L151.61 7.45457H151.818L151.632 8.89273H151.401L151.269 8.00349ZM151.906 7.45457H152.554V7.65218H152.356V8.89273H152.104V7.65218H151.906V7.45457ZM153.103 8.25599H152.872V8.89273H152.631V7.45457H152.872V8.06936H153.103V7.45457H153.344V8.89273H153.103V8.25599Z" fill="white"/>
<path d="M150.88 114.103C157.786 114.103 163.385 108.504 163.385 101.598C163.385 94.6915 157.786 89.0928 150.88 89.0928C143.974 89.0928 138.375 94.6915 138.375 101.598C138.375 108.504 143.974 114.103 150.88 114.103Z" fill="#FD6925"/>
<path d="M145.345 95.2146C145.345 94.6709 145.106 94.2686 144.486 94.2686C143.855 94.2686 143.616 94.6165 143.616 95.1602V95.6822C143.616 96.2585 143.845 96.5521 144.269 96.5521C144.519 96.5521 144.671 96.4325 144.758 96.2694V97.0305C144.758 97.248 144.671 97.3894 144.464 97.3894C144.247 97.3894 144.171 97.2698 144.171 97.0414V96.8022H143.627V96.987C143.627 97.509 143.812 97.8678 144.475 97.8678C145.095 97.8678 145.345 97.4655 145.345 96.9109V95.2146ZM144.758 95.7583C144.747 95.954 144.66 96.0845 144.475 96.0845C144.269 96.0845 144.193 95.9649 144.193 95.7257V95.1167C144.193 94.8884 144.28 94.7579 144.475 94.7579C144.671 94.7579 144.747 94.8884 144.747 95.1167V95.7583H144.758ZM155.262 104.37L153.185 103.174V100.771C153.185 100.717 153.163 100.673 153.109 100.652L150.956 99.4119C150.913 99.3902 150.858 99.3902 150.815 99.4119L148.662 100.652C148.618 100.673 148.586 100.728 148.586 100.771V103.174L146.509 104.37C146.465 104.392 146.433 104.447 146.433 104.49V106.969C146.433 107.024 146.454 107.067 146.509 107.089L148.662 108.329C148.683 108.339 148.705 108.35 148.738 108.35C148.76 108.35 148.792 108.339 148.814 108.329L150.891 107.132L152.968 108.329C152.99 108.339 153.011 108.35 153.044 108.35C153.076 108.35 153.098 108.339 153.12 108.329L155.273 107.089C155.317 107.067 155.349 107.013 155.349 106.969V104.49C155.327 104.436 155.306 104.392 155.262 104.37ZM150.739 106.73L149.01 105.73L150.739 104.729V106.73ZM152.75 103.25L151.021 104.251V102.261L152.75 103.25ZM150.739 104.24L149.01 103.24L150.739 102.239V104.24ZM151.174 104.49L153.044 103.414L154.914 104.49L153.044 105.567L151.174 104.49ZM152.892 103L151.163 102L152.892 101V103ZM150.597 102.011L148.868 103.011V101.021L150.597 102.011ZM148.596 107.97L146.726 106.893V104.74L148.596 105.817V107.97ZM148.879 107.97V105.98L150.608 106.98L148.879 107.97ZM155.045 106.893L153.174 107.97V105.817L155.045 104.74V106.893Z" fill="white"/>
<path d="M146.271 94.3556H146.499V95.6822H146.271V94.3556ZM146.814 94.8558V95.6931H146.629V94.3665H146.847L147.086 95.1276V94.3665H147.271V95.6931H147.075L146.814 94.8558ZM148.076 94.7144V95.3343C148.076 95.5409 147.989 95.6931 147.749 95.6931H147.401V94.3665H147.749C147.999 94.3556 148.076 94.5078 148.076 94.7144ZM147.728 95.5082C147.815 95.5082 147.858 95.4539 147.858 95.3777V94.6818C147.858 94.6057 147.825 94.5513 147.728 94.5513H147.63V95.5191L147.728 95.5082ZM148.869 94.3556V95.356C148.869 95.5626 148.782 95.6931 148.554 95.6931C148.315 95.6931 148.217 95.5626 148.217 95.356V94.3556H148.445V95.3777C148.445 95.4539 148.478 95.5082 148.554 95.5082C148.63 95.5082 148.663 95.4539 148.663 95.3777V94.3556H148.869ZM148.989 95.3995V95.2255H149.196V95.4104C149.196 95.4865 149.228 95.53 149.304 95.53C149.37 95.53 149.402 95.4865 149.402 95.4104V95.356C149.402 95.2799 149.37 95.2364 149.304 95.1711L149.174 95.0407C149.043 94.9102 148.989 94.8341 148.989 94.6818V94.6383C148.989 94.4752 149.087 94.3447 149.304 94.3447C149.533 94.3447 149.62 94.4535 149.62 94.6492V94.7579H149.413V94.6383C149.413 94.5622 149.38 94.5296 149.304 94.5296C149.239 94.5296 149.196 94.5622 149.196 94.6383V94.6709C149.196 94.7471 149.239 94.7906 149.304 94.8558L149.446 94.9972C149.565 95.1168 149.631 95.1929 149.631 95.3451V95.4104C149.631 95.5952 149.533 95.7257 149.304 95.7257C149.076 95.704 148.989 95.5735 148.989 95.3995ZM149.685 94.3556H150.283V94.5405H150.098V95.6822H149.87V94.5405H149.685V94.3556ZM150.609 95.0733V95.6822H150.392V94.3556H150.718C150.946 94.3556 151.022 94.4643 151.022 94.6492V94.8232C151.022 94.9645 150.968 95.0515 150.848 95.0842L151.066 95.6822H150.827L150.609 95.0733ZM150.609 94.5405V94.9537H150.685C150.761 94.9537 150.794 94.9102 150.794 94.8449V94.6492C150.794 94.5731 150.761 94.5405 150.685 94.5405H150.609ZM151.544 95.182V95.6822H151.316V95.182L151.066 94.3556H151.294L151.425 94.8558L151.555 94.3556H151.773L151.544 95.182ZM152.012 95.4865L151.903 95.791H151.773L151.805 95.4756H152.012V95.4865ZM152.371 94.3556H152.599V95.6822H152.371V94.3556ZM152.914 94.8558V95.6931H152.73V94.3665H152.947L153.186 95.1276V94.3665H153.371V95.6931H153.175L152.914 94.8558ZM153.697 94.8558V95.6931H153.513V94.3665H153.73L153.969 95.1276V94.3665H154.154V95.6931H153.958L153.697 94.8558ZM154.295 95.3451V94.7036C154.295 94.497 154.393 94.3447 154.633 94.3447C154.872 94.3447 154.97 94.497 154.97 94.7036V95.3451C154.97 95.5517 154.872 95.704 154.633 95.704C154.393 95.704 154.295 95.5517 154.295 95.3451ZM154.752 95.3777V94.6601C154.752 94.584 154.72 94.5187 154.633 94.5187C154.556 94.5187 154.524 94.5731 154.524 94.6601V95.3777C154.524 95.4539 154.556 95.5191 154.633 95.5191C154.709 95.5191 154.752 95.4647 154.752 95.3777ZM155.829 94.3556L155.579 95.6822H155.339L155.089 94.3556H155.318L155.47 95.2799L155.622 94.3556H155.829ZM155.796 95.6822L156.046 94.3556H156.296L156.546 95.6822H156.318L156.275 95.443H156.046L156.003 95.6822H155.796ZM156.068 95.269H156.242L156.155 94.7362L156.068 95.269ZM156.525 94.3556H157.123V94.5405H156.938V95.6822H156.71V94.5405H156.525V94.3556ZM157.231 94.3556H157.46V95.6822H157.231V94.3556ZM157.601 95.3451V94.7036C157.601 94.497 157.699 94.3447 157.938 94.3447C158.177 94.3447 158.275 94.497 158.275 94.7036V95.3451C158.275 95.5517 158.177 95.704 157.938 95.704C157.699 95.704 157.601 95.5517 157.601 95.3451ZM158.047 95.3777V94.6601C158.047 94.584 158.014 94.5187 157.927 94.5187C157.851 94.5187 157.819 94.5731 157.819 94.6601V95.3777C157.819 95.4539 157.851 95.5191 157.927 95.5191C158.014 95.5191 158.047 95.4647 158.047 95.3777ZM158.602 94.8558V95.6931H158.417V94.3665H158.634L158.873 95.1276V94.3665H159.058V95.6931H158.863L158.602 94.8558Z" fill="white"/>
<path d="M146.227 97.7917L146.477 96.4651H146.727L146.977 97.7917H146.749L146.705 97.5525H146.477L146.433 97.7917H146.227ZM146.509 97.3676H146.683L146.596 96.8348L146.509 97.3676ZM147.26 96.9544V97.7917H147.075V96.4651H147.292L147.531 97.2263V96.4651H147.716V97.7917H147.521L147.26 96.9544ZM148.521 96.8131V97.4329C148.521 97.6395 148.434 97.7917 148.195 97.7917H147.847V96.4651H148.195C148.434 96.4651 148.521 96.6173 148.521 96.8131ZM148.173 97.6069C148.26 97.6069 148.303 97.5525 148.303 97.4764V96.7805C148.303 96.7043 148.271 96.65 148.173 96.65H148.075V97.6177L148.173 97.6069ZM148.869 96.4651H149.097V97.7917H148.869V96.4651ZM149.423 96.9544V97.7917H149.239V96.4651H149.456L149.695 97.2263V96.4651H149.88V97.7917H149.684L149.423 96.9544ZM150.022 96.4651H150.544V96.65H150.239V97.0306H150.467V97.2154H150.239V97.8026H150.011L150.022 96.4651ZM150.87 97.1828V97.7917H150.641V96.4651H150.968C151.196 96.4651 151.272 96.5738 151.272 96.7587V96.9327C151.272 97.074 151.218 97.161 151.098 97.1937L151.316 97.7917H151.076L150.87 97.1828ZM150.87 96.6391V97.0523H150.946C151.022 97.0523 151.055 97.0088 151.055 96.9436V96.7478C151.055 96.6717 151.022 96.6391 150.946 96.6391H150.87ZM151.381 97.7917L151.631 96.4651H151.881L152.131 97.7917H151.903L151.859 97.5525H151.62L151.577 97.7917H151.381ZM151.653 97.3676H151.827L151.74 96.8348L151.653 97.3676ZM152.207 97.4981V97.3241H152.414V97.509C152.414 97.5851 152.446 97.6286 152.523 97.6286C152.588 97.6286 152.62 97.5851 152.62 97.509V97.4546C152.62 97.3785 152.588 97.335 152.523 97.2698L152.392 97.1393C152.262 97.0088 152.207 96.9327 152.207 96.7805V96.737C152.207 96.5738 152.305 96.4434 152.523 96.4434C152.751 96.4434 152.838 96.5521 152.838 96.7478V96.8566H152.631V96.737C152.631 96.6608 152.599 96.6282 152.523 96.6282C152.457 96.6282 152.414 96.6608 152.414 96.737V96.7696C152.414 96.8457 152.457 96.8892 152.523 96.9544L152.664 97.0958C152.784 97.2154 152.849 97.2915 152.849 97.4438V97.509C152.849 97.6939 152.751 97.8243 152.523 97.8243C152.294 97.8243 152.207 97.6721 152.207 97.4981ZM152.914 96.4651H153.512V96.65H153.327V97.7917H153.099V96.65H152.914V96.4651ZM153.849 97.1828V97.7917H153.621V96.4651H153.947C154.175 96.4651 154.251 96.5738 154.251 96.7587V96.9327C154.251 97.074 154.197 97.161 154.078 97.1937L154.295 97.7917H154.056L153.849 97.1828ZM153.849 96.6391V97.0523H153.925C154.001 97.0523 154.034 97.0088 154.034 96.9436V96.7478C154.034 96.6717 154.001 96.6391 153.925 96.6391H153.849ZM155.034 96.4651V97.4655C155.034 97.6721 154.947 97.8026 154.719 97.8026C154.48 97.8026 154.382 97.6721 154.382 97.4655V96.4651H154.61V97.4873C154.61 97.5634 154.643 97.6177 154.719 97.6177C154.795 97.6177 154.828 97.5634 154.828 97.4873V96.4651H155.034ZM155.176 97.4438V96.8022C155.176 96.5956 155.274 96.4434 155.513 96.4434C155.763 96.4434 155.828 96.5847 155.828 96.7805V96.9327H155.622V96.7587C155.622 96.6717 155.589 96.6282 155.513 96.6282C155.437 96.6282 155.404 96.6826 155.404 96.7696V97.4873C155.404 97.5634 155.437 97.6286 155.513 97.6286C155.589 97.6286 155.622 97.5742 155.622 97.4981V97.248H155.828V97.4764C155.828 97.6612 155.752 97.8026 155.513 97.8026C155.274 97.8026 155.176 97.6504 155.176 97.4438ZM155.872 96.4651H156.47V96.65H156.285V97.7917H156.057V96.65H155.872V96.4651ZM157.231 96.4651V97.4655C157.231 97.6721 157.144 97.8026 156.916 97.8026C156.676 97.8026 156.579 97.6721 156.579 97.4655V96.4651H156.807V97.4873C156.807 97.5634 156.839 97.6177 156.916 97.6177C156.992 97.6177 157.024 97.5634 157.024 97.4873V96.4651H157.231ZM157.59 97.1828V97.7917H157.361V96.4651H157.688C157.916 96.4651 157.992 96.5738 157.992 96.7587V96.9327C157.992 97.074 157.938 97.161 157.818 97.1937L158.036 97.7917H157.796L157.59 97.1828ZM157.59 96.6391V97.0523H157.666C157.742 97.0523 157.775 97.0088 157.775 96.9436V96.7478C157.775 96.6717 157.742 96.6391 157.666 96.6391H157.59ZM158.133 96.4651H158.666V96.65H158.362V97.0306H158.579V97.2154H158.362V97.6177H158.666V97.8026H158.133V96.4651Z" fill="white"/>
<path d="M155.001 81.4239C157.936 81.4239 160.316 79.0443 160.316 76.1089C160.316 73.1736 157.936 70.7939 155.001 70.7939C152.065 70.7939 149.686 73.1736 149.686 76.1089C149.686 79.0443 152.065 81.4239 155.001 81.4239Z" fill="#DD1367"/>
<path d="M171.71 67.0761C183.543 67.0761 193.135 57.4838 193.135 45.6511C193.135 33.8184 183.543 24.2261 171.71 24.2261C159.877 24.2261 150.285 33.8184 150.285 45.6511C150.285 57.4838 159.877 67.0761 171.71 67.0761Z" fill="#FD9D24"/>
<path d="M159.005 34.38V35.4419L159.731 34.6967V39.317H160.756V33.2808H159.936L159.005 34.38ZM161.315 34.38V35.4419H161.334L162.042 34.6967V39.317H163.066V33.2808H162.247L161.315 34.38Z" fill="white"/>
<path d="M161.799 53.5876H166.308C166.364 53.5876 166.42 53.5318 166.42 53.4759C166.42 53.4386 166.401 53.42 166.383 53.4013L164.147 50.495L164.128 50.4764C164.11 50.4577 164.072 50.4391 164.054 50.4391C164.035 50.4391 163.998 50.4577 163.979 50.4764L163.961 50.495L163.942 50.5136L161.744 53.3827L161.706 53.42C161.688 53.4386 161.688 53.4572 161.688 53.4759C161.688 53.5318 161.744 53.5876 161.799 53.5876ZM166.289 53.9975H161.762C161.706 53.9975 161.65 54.0534 161.65 54.1093V57.6491C161.65 57.705 161.706 57.7609 161.762 57.7609H163.215V55.5438C163.215 55.4879 163.271 55.4321 163.327 55.4321H164.669C164.724 55.4321 164.78 55.4879 164.78 55.5438V57.7609H166.271C166.327 57.7609 166.383 57.705 166.383 57.6491V54.1093C166.401 54.0534 166.364 53.9975 166.289 53.9975ZM181.902 53.066H177.43C177.374 53.066 177.319 53.1219 177.319 53.1778V57.6863C177.319 57.7422 177.374 57.7981 177.43 57.7981H181.902C181.958 57.7981 182.013 57.7422 182.013 57.6863V53.1778C182.013 53.1219 181.976 53.066 181.902 53.066ZM179.461 56.0282C179.461 56.0841 179.405 56.14 179.349 56.14H178.008C177.952 56.14 177.896 56.0841 177.896 56.0282V55.2085C177.896 55.1526 177.952 55.0967 178.008 55.0967H179.349C179.405 55.0967 179.461 55.1526 179.461 55.2085V56.0282ZM179.461 54.5192C179.461 54.5751 179.405 54.6309 179.349 54.6309H178.008C177.952 54.6309 177.896 54.5751 177.896 54.5192V53.6994C177.896 53.6435 177.952 53.5876 178.008 53.5876H179.349C179.405 53.5876 179.461 53.6435 179.461 53.6994V54.5192ZM181.51 56.0282C181.51 56.0841 181.455 56.14 181.399 56.14H180.057C180.001 56.14 179.945 56.0841 179.945 56.0282V55.2085C179.945 55.1526 180.001 55.0967 180.057 55.0967H181.399C181.455 55.0967 181.51 55.1526 181.51 55.2085V56.0282ZM181.51 54.5192C181.51 54.5751 181.455 54.6309 181.399 54.6309H180.057C180.001 54.6309 179.945 54.5751 179.945 54.5192V53.6994C179.945 53.6435 180.001 53.5876 180.057 53.5876H181.399C181.455 53.5876 181.51 53.6435 181.51 53.6994V54.5192ZM171.506 42.5957H167.146C167.09 42.5957 167.035 42.6516 167.035 42.7075V57.6677C167.035 57.7236 167.09 57.7795 167.146 57.7795H171.525C171.58 57.7795 171.636 57.7236 171.636 57.6677V42.7075C171.618 42.633 171.58 42.5957 171.506 42.5957ZM168.916 56.0655C168.916 56.1027 168.898 56.1214 168.86 56.1214H167.854C167.817 56.1214 167.798 56.1027 167.798 56.0655V54.9477C167.798 54.9104 167.817 54.8918 167.854 54.8918H168.86C168.898 54.8918 168.916 54.9104 168.916 54.9477V56.0655ZM168.916 53.4945C168.916 53.5317 168.898 53.5504 168.86 53.5504H167.854C167.817 53.5504 167.798 53.5317 167.798 53.4945V52.3767C167.798 52.3394 167.817 52.3208 167.854 52.3208H168.86C168.898 52.3208 168.916 52.3394 168.916 52.3767V53.4945ZM168.916 50.9235C168.916 50.9608 168.898 50.9794 168.86 50.9794H167.854C167.817 50.9794 167.798 50.9608 167.798 50.9235V49.8057C167.798 49.7684 167.817 49.7498 167.854 49.7498H168.86C168.898 49.7498 168.916 49.7684 168.916 49.8057V50.9235ZM168.916 48.3711C168.916 48.4084 168.898 48.427 168.86 48.427H167.854C167.817 48.427 167.798 48.4084 167.798 48.3711V47.2533C167.798 47.2161 167.817 47.1974 167.854 47.1974H168.86C168.898 47.1974 168.916 47.2161 168.916 47.2533V48.3711ZM168.916 45.8001C168.916 45.8374 168.898 45.856 168.86 45.856H167.854C167.817 45.856 167.798 45.8374 167.798 45.8001V44.6823C167.798 44.6451 167.817 44.6264 167.854 44.6264H168.86C168.898 44.6264 168.916 44.6451 168.916 44.6823V45.8001ZM170.872 56.0655C170.872 56.1027 170.854 56.1214 170.817 56.1214H169.811C169.773 56.1214 169.755 56.1027 169.755 56.0655V54.9477C169.755 54.9104 169.773 54.8918 169.811 54.8918H170.817C170.854 54.8918 170.872 54.9104 170.872 54.9477V56.0655ZM170.872 53.4945C170.872 53.5317 170.854 53.5504 170.817 53.5504H169.811C169.773 53.5504 169.755 53.5317 169.755 53.4945V52.3767C169.755 52.3394 169.773 52.3208 169.811 52.3208H170.817C170.854 52.3208 170.872 52.3394 170.872 52.3767V53.4945ZM170.872 50.9235C170.872 50.9608 170.854 50.9794 170.817 50.9794H169.811C169.773 50.9794 169.755 50.9608 169.755 50.9235V49.8057C169.755 49.7684 169.773 49.7498 169.811 49.7498H170.817C170.854 49.7498 170.872 49.7684 170.872 49.8057V50.9235ZM170.872 48.3711C170.872 48.4084 170.854 48.427 170.817 48.427H169.811C169.773 48.427 169.755 48.4084 169.755 48.3711V47.2533C169.755 47.2161 169.773 47.1974 169.811 47.1974H170.817C170.854 47.1974 170.872 47.2161 170.872 47.2533V48.3711ZM170.872 45.8001C170.872 45.8374 170.854 45.856 170.817 45.856H169.811C169.773 45.856 169.755 45.8374 169.755 45.8001V44.6823C169.755 44.6451 169.773 44.6264 169.811 44.6264H170.817C170.854 44.6264 170.872 44.6451 170.872 44.6823V45.8001ZM182.013 52.6189C182.013 52.6748 181.976 52.712 181.92 52.712H177.412C177.356 52.712 177.319 52.6748 177.319 52.6189V51.7246C177.319 51.6687 177.356 51.6314 177.412 51.6314H181.92C181.976 51.6314 182.013 51.6687 182.013 51.7246V52.6189ZM176.797 45.4089C176.778 45.353 176.741 45.3344 176.685 45.3344C176.667 45.3344 176.648 45.3344 176.629 45.353L176.592 45.3903L172.288 50.849L172.27 50.8676C172.251 50.8862 172.232 50.9235 172.232 50.9608V57.6677C172.232 57.7236 172.288 57.7795 172.344 57.7795H176.722C176.778 57.7795 176.834 57.7236 176.834 57.6677V45.4462C176.816 45.4462 176.816 45.4275 176.797 45.4089ZM174.99 48.3711L175.027 48.3339C175.325 47.9613 175.81 47.3465 176.052 47.0484L176.089 47.0111C176.108 46.9925 176.145 46.9739 176.182 46.9739C176.238 46.9739 176.294 47.0111 176.294 47.067V48.4457C176.294 48.5202 176.238 48.5574 176.182 48.5761H175.102C175.027 48.5761 174.99 48.5202 174.99 48.4457C174.971 48.427 174.971 48.3898 174.99 48.3711ZM174.3 56.0096C174.3 56.0655 174.245 56.1214 174.189 56.1214H172.885C172.829 56.1214 172.773 56.0655 172.773 56.0096V55.1899C172.773 55.134 172.829 55.0781 172.885 55.0781H174.189C174.245 55.0781 174.3 55.134 174.3 55.1899V56.0096ZM174.3 54.5192C174.3 54.5751 174.245 54.6309 174.189 54.6309H172.885C172.829 54.6309 172.773 54.5751 172.773 54.5192V53.6994C172.773 53.6435 172.829 53.5876 172.885 53.5876H174.189C174.245 53.5876 174.3 53.6435 174.3 53.6994V54.5192ZM174.3 53.0101C174.3 53.066 174.245 53.1219 174.189 53.1219H172.885C172.829 53.1219 172.773 53.066 172.773 53.0101V52.1904C172.773 52.1345 172.829 52.0786 172.885 52.0786H174.189C174.245 52.0786 174.3 52.1345 174.3 52.1904V53.0101ZM174.319 49.6939V51.4824C174.319 51.5383 174.263 51.5942 174.207 51.5942H172.903C172.847 51.5942 172.791 51.5383 172.791 51.4824V51.2588V51.2216V51.2029C172.791 51.2029 172.791 51.1843 172.81 51.1843C172.81 51.1843 172.81 51.1657 172.829 51.1657C172.996 50.9235 173.742 49.992 174.058 49.6194L174.096 49.5821C174.114 49.5635 174.151 49.5448 174.189 49.5448C174.245 49.5448 174.3 49.5821 174.3 49.638V49.6939H174.319ZM176.313 56.0096C176.313 56.0655 176.257 56.1214 176.201 56.1214H174.897C174.841 56.1214 174.785 56.0655 174.785 56.0096V55.1899C174.785 55.134 174.841 55.0781 174.897 55.0781H176.201C176.257 55.0781 176.313 55.134 176.313 55.1899V56.0096ZM176.313 54.5192C176.313 54.5751 176.257 54.6309 176.201 54.6309H174.897C174.841 54.6309 174.785 54.5751 174.785 54.5192V53.6994C174.785 53.6435 174.841 53.5876 174.897 53.5876H176.201C176.257 53.5876 176.313 53.6435 176.313 53.6994V54.5192ZM176.313 53.0101C176.313 53.066 176.257 53.1219 176.201 53.1219H174.897C174.841 53.1219 174.785 53.066 174.785 53.0101V52.1904C174.785 52.1345 174.841 52.0786 174.897 52.0786H176.201C176.257 52.0786 176.313 52.1345 176.313 52.1904V53.0101ZM176.313 51.501C176.313 51.5569 176.257 51.6128 176.201 51.6128H174.897C174.841 51.6128 174.785 51.5569 174.785 51.501V50.6813C174.785 50.6254 174.841 50.5695 174.897 50.5695H176.201C176.257 50.5695 176.313 50.6254 176.313 50.6813V51.501ZM176.313 49.992C176.313 50.0479 176.257 50.1038 176.201 50.1038H174.897C174.841 50.1038 174.785 50.0479 174.785 49.992V49.1722C174.785 49.1164 174.841 49.0605 174.897 49.0605H176.201C176.257 49.0605 176.313 49.1164 176.313 49.1722V49.992Z" fill="white"/>
<path d="M165.041 35.1998V34.8645H165.432V35.1998C165.432 35.3303 165.488 35.4234 165.637 35.4234C165.768 35.4234 165.823 35.3303 165.823 35.1998V35.1067C165.823 34.9577 165.768 34.8831 165.637 34.7527L165.395 34.5105C165.153 34.287 165.06 34.1379 165.06 33.8585V33.7839C165.06 33.4858 165.246 33.2437 165.637 33.2437C166.047 33.2437 166.215 33.4486 166.215 33.8026V34.0075H165.842V33.8026C165.842 33.6535 165.786 33.5976 165.656 33.5976C165.544 33.5976 165.47 33.6535 165.47 33.8026V33.8585C165.47 33.9889 165.544 34.082 165.656 34.1938L165.917 34.4546C166.14 34.6782 166.252 34.8272 166.252 35.0881V35.1998C166.252 35.5352 166.066 35.7774 165.656 35.7774C165.246 35.7774 165.041 35.5166 165.041 35.1998ZM167.593 33.2809V35.1253C167.593 35.4979 167.426 35.7588 167.016 35.7588C166.587 35.7588 166.401 35.5166 166.401 35.1253V33.2809H166.811V35.1812C166.811 35.3303 166.867 35.4234 167.016 35.4234C167.165 35.4234 167.221 35.3303 167.221 35.1812V33.2809H167.593ZM167.817 35.1998V34.8645H168.208V35.1998C168.208 35.3303 168.264 35.4234 168.413 35.4234C168.544 35.4234 168.599 35.3303 168.599 35.1998V35.1067C168.599 34.9577 168.544 34.8831 168.413 34.7527L168.171 34.5105C167.929 34.287 167.836 34.1379 167.836 33.8585V33.7839C167.836 33.4858 168.003 33.2437 168.413 33.2437C168.823 33.2437 168.991 33.4486 168.991 33.8026V34.0075H168.618V33.8026C168.618 33.6535 168.562 33.5976 168.432 33.5976C168.32 33.5976 168.245 33.6535 168.245 33.8026V33.8585C168.245 33.9889 168.32 34.082 168.432 34.1938L168.693 34.4546C168.916 34.6782 169.028 34.8272 169.028 35.0881V35.1998C169.028 35.5352 168.842 35.7774 168.432 35.7774C167.966 35.7588 167.817 35.5166 167.817 35.1998ZM169.084 33.2809H170.183V33.6163H169.848V35.7215H169.438V33.6163H169.102V33.2809H169.084ZM170.108 35.7215L170.574 33.2809H171.04L171.506 35.7215H171.077L171.003 35.2744H170.574L170.5 35.7215H170.108ZM170.63 34.939H170.965L170.798 33.9516L170.63 34.939ZM171.673 33.2809H172.083V35.7215H171.673V33.2809ZM172.661 34.1752V35.7215H172.307V33.2809H172.717L173.164 34.6782V33.2809H173.499V35.7215H173.145L172.661 34.1752ZM173.648 35.7215L174.114 33.2809H174.58L175.046 35.7215H174.617L174.543 35.2744H174.114L174.04 35.7215H173.648ZM174.17 34.939H174.505L174.338 33.9516L174.17 34.939ZM175.176 33.2809H175.772C176.182 33.2809 176.312 33.4672 176.312 33.8212V34.0634C176.312 34.2683 176.238 34.3987 176.07 34.4546C176.275 34.5105 176.368 34.6409 176.368 34.8645V35.1812C176.368 35.5352 176.219 35.7215 175.809 35.7215H175.176V33.2809ZM175.586 34.3056H175.735C175.865 34.3056 175.921 34.2311 175.921 34.1007V33.8026C175.921 33.6722 175.865 33.5976 175.716 33.5976H175.567L175.586 34.3056ZM175.586 34.6223V35.3862H175.772C175.903 35.3862 175.977 35.3116 175.977 35.1812V34.8086C175.977 34.6782 175.921 34.6037 175.772 34.6037H175.586V34.6223ZM176.555 33.2809H176.964V35.3862H177.449V35.7215H176.555V33.2809ZM177.617 33.2809H178.604V33.6163H178.026V34.3242H178.436V34.6596H178.026V35.4048H178.604V35.7401H177.617V33.2809ZM179.293 35.0881V33.8957C179.293 33.5045 179.48 33.2437 179.908 33.2437C180.355 33.2437 180.486 33.5045 180.486 33.8585V34.1565H180.113V33.8212C180.113 33.6722 180.057 33.579 179.908 33.579C179.759 33.579 179.703 33.6908 179.703 33.8398V35.1626C179.703 35.3116 179.759 35.4234 179.908 35.4234C180.057 35.4234 180.113 35.3303 180.113 35.1812V34.7341H180.486V35.1626C180.486 35.5166 180.337 35.7774 179.908 35.7774C179.461 35.7588 179.293 35.4607 179.293 35.0881ZM180.672 33.2809H181.082V35.7215H180.672V33.2809ZM181.231 33.2809H182.33V33.6163H181.995V35.7215H181.585V33.6163H181.249V33.2809H181.231ZM182.498 33.2809H182.908V35.7215H182.498V33.2809ZM183.131 33.2809H184.119V33.6163H183.541V34.3242H183.951V34.6596H183.541V35.4048H184.119V35.7401H183.131V33.2809ZM184.212 35.1998V34.8645H184.603V35.1998C184.603 35.3303 184.659 35.4234 184.808 35.4234C184.938 35.4234 184.994 35.3303 184.994 35.1998V35.1067C184.994 34.9577 184.938 34.8831 184.808 34.7527L184.566 34.5105C184.323 34.287 184.23 34.1379 184.23 33.8585V33.7839C184.23 33.4858 184.417 33.2437 184.808 33.2437C185.218 33.2437 185.385 33.4486 185.385 33.8026V34.0075H185.013V33.8026C185.013 33.6535 184.957 33.5976 184.826 33.5976C184.715 33.5976 184.64 33.6535 184.64 33.8026V33.8585C184.64 33.9889 184.715 34.082 184.826 34.1938L185.087 34.4546C185.311 34.6782 185.423 34.8272 185.423 35.0881V35.1998C185.423 35.5352 185.236 35.7774 184.826 35.7774C184.417 35.7774 184.212 35.5166 184.212 35.1998Z" fill="white"/>
<path d="M165.041 39.3172L165.507 36.8766H165.973L166.438 39.3172H166.028L165.954 38.8701H165.525L165.451 39.3172H165.041ZM165.563 38.5534H165.898L165.73 37.5659L165.563 38.5534ZM166.96 37.7895V39.3358H166.606V36.8952H167.016L167.463 38.2925V36.8952H167.798V39.3358H167.444L166.96 37.7895ZM169.27 37.5287V38.6651C169.27 39.0377 169.121 39.3172 168.674 39.3172H168.041V36.8766H168.674C169.102 36.8766 169.27 37.1561 169.27 37.5287ZM168.618 38.9819C168.786 38.9819 168.86 38.8887 168.86 38.7397V37.4542C168.86 37.3051 168.804 37.212 168.618 37.212H168.45V38.9819H168.618ZM169.866 38.6838V37.4914C169.866 37.1002 170.053 36.8394 170.481 36.8394C170.928 36.8394 171.059 37.1002 171.059 37.4542V37.7522H170.686V37.4355C170.686 37.2865 170.63 37.1933 170.481 37.1933C170.332 37.1933 170.276 37.3051 170.276 37.4542V38.7769C170.276 38.926 170.332 39.0377 170.481 39.0377C170.63 39.0377 170.686 38.9446 170.686 38.7956V38.3484H171.059V38.7769C171.059 39.1309 170.91 39.3917 170.481 39.3917C170.034 39.3545 169.866 39.075 169.866 38.6838ZM171.282 38.6838V37.4914C171.282 37.1002 171.469 36.8394 171.897 36.8394C172.326 36.8394 172.53 37.1188 172.53 37.4914V38.6838C172.53 39.0564 172.344 39.3358 171.897 39.3358C171.469 39.3545 171.282 39.075 171.282 38.6838ZM172.102 38.7583V37.4355C172.102 37.2865 172.046 37.1747 171.897 37.1747C171.748 37.1747 171.692 37.2865 171.692 37.4355V38.7583C171.692 38.9073 171.748 39.0191 171.897 39.0191C172.046 39.0005 172.102 38.9073 172.102 38.7583ZM173.89 37.7336L173.592 39.3172H173.406L173.108 37.7336V39.3172H172.773V36.8766H173.257L173.518 38.2553L173.76 36.8766H174.282V39.3172H173.909L173.89 37.7336ZM175.623 37.7336L175.325 39.3172H175.139L174.841 37.7336V39.3172H174.505V36.8766H174.99L175.25 38.2553L175.493 36.8766H176.014V39.3172H175.642V37.7336H175.623ZM177.43 36.8766V38.721C177.43 39.0936 177.263 39.3545 176.853 39.3545C176.424 39.3545 176.238 39.1123 176.238 38.721V36.8766H176.648V38.7769C176.648 38.926 176.704 39.0191 176.853 39.0191C177.002 39.0191 177.058 38.926 177.058 38.7769V36.8766H177.43ZM177.989 37.7895V39.3358H177.635V36.8952H178.045L178.492 38.2925V36.8952H178.828V39.3358H178.474L177.989 37.7895ZM179.07 36.8766H179.48V39.3172H179.07V36.8766ZM179.666 36.8766H180.765V37.212H180.43V39.3172H180.001V37.212H179.666V36.8766ZM180.951 36.8766H181.361V39.3172H180.951V36.8766ZM181.585 36.8766H182.572V37.212H181.995V37.9199H182.405V38.2553H181.995V39.0005H182.572V39.3358H181.585V36.8766ZM182.74 38.7956V38.4602H183.131V38.7956C183.131 38.926 183.187 39.0191 183.336 39.0191C183.466 39.0191 183.522 38.926 183.522 38.7956V38.7024C183.522 38.5534 183.466 38.4788 183.336 38.3484L183.094 38.1062C182.852 37.8827 182.759 37.7336 182.759 37.4542V37.3796C182.759 37.0816 182.926 36.8394 183.336 36.8394C183.746 36.8394 183.914 37.0443 183.914 37.3983V37.6032H183.541V37.3983C183.541 37.2492 183.485 37.1933 183.355 37.1933C183.243 37.1933 183.168 37.2492 183.168 37.3983V37.4542C183.168 37.5846 183.243 37.6777 183.355 37.7895L183.616 38.0503C183.839 38.2739 183.951 38.4229 183.951 38.6838V38.7956C183.951 39.1309 183.765 39.3731 183.355 39.3731C182.908 39.3545 182.74 39.1123 182.74 38.7956Z" fill="white"/>
<path d="M180.614 90.1739C185.08 90.1739 188.699 86.5541 188.699 82.0889C188.699 77.6237 185.08 74.0039 180.614 74.0039C176.149 74.0039 172.529 77.6237 172.529 82.0889C172.529 86.5541 176.149 90.1739 180.614 90.1739Z" fill="#BF8B2E"/>
<path d="M192.339 70.4466C193.229 70.4466 193.949 69.7257 193.949 68.8366C193.949 67.9474 193.229 67.2266 192.339 67.2266C191.45 67.2266 190.729 67.9474 190.729 68.8366C190.729 69.7257 191.45 70.4466 192.339 70.4466Z" fill="#0A97D9"/>
<path d="M214.65 73.7167C222.829 73.7167 229.46 67.086 229.46 58.9067C229.46 50.7273 222.829 44.0967 214.65 44.0967C206.471 44.0967 199.84 50.7273 199.84 58.9067C199.84 67.086 206.471 73.7167 214.65 73.7167Z" fill="#56C02B"/>
<path d="M205.867 51.1539V51.8879L206.357 51.3728H206.369V54.5795H207.065V50.394H206.511L205.867 51.1539ZM208.739 51.7205C208.456 51.7205 208.263 51.8235 208.147 52.0038V50.9607H209.357V50.394H207.503V52.7508H208.147V52.6606C208.147 52.4159 208.263 52.2743 208.456 52.2743C208.675 52.2743 208.752 52.4159 208.752 52.6477V53.6522C208.752 53.8712 208.675 54.0257 208.456 54.0257C208.211 54.0257 208.134 53.8712 208.134 53.6136V53.0856H207.49V53.5621C207.49 54.1931 207.747 54.6052 208.456 54.6052C209.164 54.6052 209.46 54.2318 209.46 53.6522V52.6349C209.46 51.9909 209.113 51.7205 208.739 51.7205Z" fill="white"/>
<path d="M213.028 62.6668C213.054 62.6668 213.079 62.6925 213.079 62.7183V64.225C213.079 64.2508 213.054 64.2766 213.028 64.2766H212.423C212.397 64.2766 212.371 64.2508 212.371 64.225V62.7183C212.371 62.6925 212.397 62.6668 212.423 62.6668H213.028ZM219.737 64.9205H209.679C209.654 64.9205 209.628 64.9462 209.628 64.972V65.5901C209.628 65.6159 209.654 65.6417 209.679 65.6417H219.737C219.763 65.6417 219.789 65.6159 219.789 65.5901V64.972C219.789 64.9462 219.763 64.9205 219.737 64.9205ZM219.737 66.1439H209.679C209.654 66.1439 209.628 66.1697 209.628 66.1954V66.8136C209.628 66.8393 209.654 66.8651 209.679 66.8651H219.737C219.763 66.8651 219.789 66.8393 219.789 66.8136V66.1954C219.789 66.1697 219.763 66.1439 219.737 66.1439ZM217.819 61.0055C217.69 60.9025 217.355 60.6835 216.943 60.6835C216.647 60.6835 216.376 60.7995 216.131 61.0313C216.119 61.0441 216.106 61.0699 216.106 61.0957V61.1472C216.106 61.1729 216.119 61.1987 216.131 61.2116C216.157 61.2244 216.17 61.2373 216.209 61.2244H216.222C216.234 61.2116 216.26 61.2116 216.273 61.1987C216.325 61.16 216.466 61.1085 216.672 61.1085C216.891 61.1085 217.303 61.16 217.715 61.5464L217.728 61.5592C217.754 61.585 217.78 61.5979 217.819 61.5979C217.844 61.5979 217.883 61.585 217.909 61.5592L217.922 61.5464C218.334 61.1729 218.746 61.1085 218.965 61.1085C219.171 61.1085 219.312 61.16 219.364 61.1987C219.377 61.2116 219.39 61.2244 219.415 61.2373C219.428 61.2373 219.454 61.2502 219.48 61.2373C219.518 61.2244 219.544 61.1987 219.544 61.16V61.1085C219.544 61.0828 219.531 61.057 219.518 61.0441C219.274 60.8123 219.003 60.6964 218.694 60.6964C218.282 60.6707 217.947 60.9025 217.819 61.0055ZM217.2 56.9875C217.175 57.0004 217.162 57.0132 217.162 57.039L217.149 57.0776C217.136 57.1034 217.149 57.1291 217.162 57.1549C217.175 57.1807 217.2 57.1935 217.226 57.1935H217.239C217.252 57.1935 217.278 57.1935 217.29 57.1807C217.303 57.1807 217.316 57.1678 217.355 57.1678C217.394 57.1678 217.806 57.1807 218.076 57.6314V57.6443C218.089 57.67 218.115 57.6829 218.14 57.6958H218.166C218.179 57.6958 218.205 57.6958 218.218 57.6829H218.231C218.372 57.6056 218.527 57.567 218.681 57.567C218.939 57.567 219.106 57.67 219.145 57.7087L219.184 57.7473C219.196 57.7473 219.209 57.7602 219.222 57.7602H219.248C219.261 57.7602 219.274 57.7602 219.287 57.7473C219.312 57.7344 219.325 57.7215 219.325 57.6958L219.338 57.67V57.6443C219.338 57.6314 219.338 57.6185 219.325 57.6056C219.132 57.2708 218.849 57.1935 218.643 57.1935C218.488 57.1935 218.359 57.2322 218.282 57.2579C218.192 57.1291 217.96 56.8716 217.6 56.8716C217.458 56.8973 217.329 56.9231 217.2 56.9875ZM215.075 58.5458V58.5973C215.075 58.623 215.088 58.6488 215.114 58.6617C215.14 58.6745 215.166 58.6745 215.178 58.6745H215.191C215.204 58.6617 215.217 58.6617 215.23 58.6488C215.269 58.623 215.41 58.5586 215.616 58.5586C215.809 58.5586 216.106 58.6101 216.415 58.8548L216.428 58.8677C216.453 58.8806 216.479 58.8935 216.505 58.8935H216.518C216.544 58.8935 216.582 58.8806 216.595 58.8548L216.608 58.842C216.943 58.4814 217.303 58.4299 217.497 58.4299C217.625 58.4299 217.728 58.4556 217.754 58.4814C217.767 58.4942 217.78 58.5071 217.806 58.5071H217.87C217.909 58.4942 217.934 58.4556 217.922 58.417V58.3783C217.922 58.3526 217.909 58.3397 217.896 58.3139C217.69 58.1465 217.484 58.0564 217.252 58.0564C216.904 58.0564 216.621 58.2624 216.505 58.3655C216.402 58.2882 216.144 58.1465 215.835 58.1465C215.565 58.1465 215.333 58.2624 215.127 58.4814C215.075 58.4942 215.075 58.52 215.075 58.5458ZM209.976 59.3442C209.976 58.7389 210.465 58.2496 211.07 58.2496H211.135C211.186 57.4897 211.83 56.8845 212.603 56.8845C213.414 56.8845 214.084 57.5413 214.084 58.3655C214.084 58.5973 214.032 58.8162 213.929 59.0094C214.663 59.1768 215.217 59.8336 215.217 60.6192C215.217 61.5335 214.483 62.2675 213.569 62.2675C213.504 62.2675 211.366 62.2547 211.366 62.2547C210.723 62.2547 210.195 61.7267 210.195 61.0828C210.195 60.7737 210.31 60.4904 210.517 60.2843C210.207 60.104 209.976 59.7563 209.976 59.3442Z" fill="white"/>
<path d="M210.967 50.394H211.25V51.8493H211.585V52.0811H210.967V50.394ZM211.752 50.394H212.036V52.0811H211.752V50.394ZM212.242 50.394H212.911V50.6259H212.525V51.1152H212.808V51.347H212.525V52.094H212.242V50.394ZM213.066 50.394H213.749V50.6259H213.349V51.1152H213.633V51.347H213.349V51.8622H213.749V52.094H213.066V50.394Z" fill="white"/>
<path d="M210.967 54.1416V53.3174C210.967 53.047 211.096 52.8667 211.392 52.8667C211.688 52.8667 211.83 53.0599 211.83 53.3174V54.1416C211.83 54.3992 211.701 54.5924 211.392 54.5924C211.096 54.5924 210.967 54.3992 210.967 54.1416ZM211.546 54.1803V53.2659C211.546 53.1629 211.508 53.0856 211.405 53.0856C211.302 53.0856 211.263 53.1629 211.263 53.2659V54.1803C211.263 54.2833 211.302 54.3606 211.405 54.3606C211.495 54.3606 211.546 54.2833 211.546 54.1803ZM212.229 53.5106V54.5795H211.984V52.8925H212.268L212.577 53.8583V52.8925H212.808V54.5795H212.564L212.229 53.5106ZM213.427 52.8796H213.71V54.3348H214.045V54.5666H213.427V52.8796ZM214.122 54.5795L214.444 52.8925H214.766L215.088 54.5795H214.792L214.74 54.2704H214.444L214.392 54.5795H214.122ZM214.483 54.0386H214.714L214.598 53.3561L214.483 54.0386ZM215.448 53.5106V54.5795H215.204V52.8925H215.487L215.796 53.8583V52.8925H216.028V54.5795H215.783L215.448 53.5106ZM217.071 53.3432V54.1288C217.071 54.3863 216.968 54.5795 216.659 54.5795H216.221V52.8925H216.659C216.955 52.8796 217.071 53.0728 217.071 53.3432ZM216.62 54.3477C216.736 54.3477 216.788 54.2833 216.788 54.1803V53.2917C216.788 53.1887 216.749 53.1243 216.62 53.1243H216.504V54.3477H216.62Z" fill="white"/>
<path d="M246.297 63.9571C251.32 63.9571 255.392 59.8851 255.392 54.8621C255.392 49.8391 251.32 45.7671 246.297 45.7671C241.274 45.7671 237.202 49.8391 237.202 54.8621C237.202 59.8851 241.274 63.9571 246.297 63.9571Z" fill="#00689D"/>
<path d="M258.165 71.4C259.167 71.4 259.98 70.5874 259.98 69.585C259.98 68.5826 259.167 67.77 258.165 67.77C257.162 67.77 256.35 68.5826 256.35 69.585C256.35 70.5874 257.162 71.4 258.165 71.4Z" fill="#19486A"/>
</svg>
