<svg width="267" height="125" viewBox="0 0 267 125" fill="none" xmlns="http://www.w3.org/2000/svg">
<path d="M10.11 65.3054C15.6936 65.3054 20.22 60.779 20.22 55.1954C20.22 49.6119 15.6936 45.0854 10.11 45.0854C4.5264 45.0854 0 49.6119 0 55.1954C0 60.779 4.5264 65.3054 10.11 65.3054Z" fill="#E5243B"/>
<path d="M5.07235 49.9826H5.08114V52.1628H5.55587V49.3145H5.17785L4.73828 49.8331V50.3342L5.07235 49.9826ZM14.6373 55.2662C14.857 55.2662 15.0241 55.0903 15.0241 54.8706C15.0241 54.6508 14.8482 54.4749 14.6373 54.4749C14.4175 54.4749 14.2416 54.6508 14.2416 54.8706C14.2416 55.0903 14.4175 55.2662 14.6373 55.2662ZM15.0944 55.4156H14.1801C13.9164 55.442 13.7054 55.6618 13.7054 55.9343V57.0156C13.7054 57.0947 13.7757 57.1651 13.8548 57.1651C13.9427 57.1651 14.0043 57.0947 14.0043 57.0156V56.0838C14.0043 56.0486 14.0131 56.0046 14.0746 56.0046C14.1186 56.0046 14.1274 56.0486 14.1274 56.0838V58.8794C14.1274 59.0025 14.2241 59.0992 14.3471 59.0992C14.4702 59.0992 14.5669 59.0025 14.5669 58.8794V57.2618C14.5669 57.2442 14.5757 57.2002 14.6285 57.2002C14.6812 57.2002 14.69 57.2442 14.69 57.2618V58.8706C14.69 58.9937 14.7867 59.0904 14.9098 59.0904C15.0329 59.0904 15.1296 58.9937 15.1296 58.8706V56.075C15.1296 56.0486 15.1384 55.9958 15.1823 55.9958C15.2439 55.9958 15.2526 56.0398 15.2526 56.075V57.0068C15.2526 57.086 15.323 57.1563 15.4021 57.1563C15.49 57.1563 15.5516 57.086 15.5516 57.0068V55.9343C15.5691 55.6618 15.3581 55.4332 15.0944 55.4156ZM11.5428 55.4508C11.745 55.4508 11.912 55.2837 11.912 55.0815C11.912 54.8793 11.745 54.7123 11.5428 54.7123C11.3406 54.7123 11.1735 54.8793 11.1735 55.0815C11.1735 55.2837 11.3406 55.4508 11.5428 55.4508ZM11.9823 56.1277C12.035 56.1101 12.0438 56.1805 12.0438 56.1805L12.29 57.0156C12.29 57.0156 12.3339 57.1915 12.4922 57.1475C12.6504 57.1035 12.5977 56.9189 12.5977 56.9189L12.29 55.9167C12.29 55.9167 12.1757 55.6266 11.9383 55.6266H11.1471C10.901 55.6266 10.7955 55.9167 10.7955 55.9167L10.4878 56.9189C10.4878 56.9189 10.435 57.1035 10.5933 57.1475C10.7515 57.1915 10.7955 57.0156 10.7955 57.0156L11.0416 56.1805C11.0416 56.1805 11.0592 56.1189 11.1032 56.1277C11.1559 56.1453 11.1296 56.2068 11.1296 56.2068L10.6988 57.7805H11.1032V58.9058C11.1032 59.0113 11.1911 59.0992 11.2966 59.0992C11.4021 59.0992 11.49 59.0113 11.49 58.9058V57.7805H11.5955V58.9058C11.5955 59.0113 11.6834 59.0992 11.7889 59.0992C11.8944 59.0992 11.9823 59.0113 11.9823 58.9058V57.7805H12.3867L11.9559 56.2068C11.9559 56.2068 11.9383 56.1453 11.9823 56.1277ZM9.31855 55.4508C9.52075 55.4508 9.68779 55.2837 9.68779 55.0815C9.68779 54.8793 9.52075 54.7123 9.31855 54.7123C9.11635 54.7123 8.94932 54.8793 8.94932 55.0815C8.94932 55.2837 9.11635 55.4508 9.31855 55.4508ZM10.0658 55.9167C10.0658 55.9167 9.96032 55.6266 9.71416 55.6266H8.92294C8.67679 55.6266 8.57129 55.9167 8.57129 55.9167L8.26359 56.9189C8.26359 56.9189 8.2548 56.9453 8.2548 56.9805C8.23722 56.9541 8.20206 56.9365 8.16689 56.9365C8.12293 56.9365 8.08777 56.9541 8.07019 56.9893C8.06139 56.998 7.92073 57.253 7.86799 57.2969C7.81524 57.3497 7.77128 57.3409 7.77128 57.3409H7.40205C7.40205 57.3409 7.35809 57.3497 7.30534 57.2969C7.26139 57.253 7.11193 56.9893 7.10314 56.9893C7.08556 56.9541 7.05039 56.9365 7.00644 56.9365C6.97127 56.9365 6.93611 56.9541 6.91852 56.9893V55.9343C6.91852 55.6618 6.70753 55.442 6.44379 55.4156H5.5295C5.26576 55.442 5.05477 55.6618 5.05477 55.9343V57.0156C5.05477 57.0772 5.08993 57.1211 5.13389 57.1475C5.13389 57.1475 5.1251 57.1563 5.1251 57.1651L4.77345 59.0113C4.76466 59.0464 4.79103 59.0728 4.8174 59.0816H4.82619C4.85257 59.0816 4.87894 59.064 4.87894 59.0376L5.23059 57.1915V57.1739C5.30092 57.1563 5.34488 57.0947 5.34488 57.0244V56.0925C5.34488 56.0574 5.35367 56.0134 5.41521 56.0134C5.45917 56.0134 5.46796 56.0574 5.46796 56.0925V58.8882C5.46796 59.0113 5.56466 59.108 5.68774 59.108C5.81082 59.108 5.90752 59.0113 5.90752 58.8882V57.2618C5.90752 57.2442 5.91632 57.2002 5.96906 57.2002C6.02181 57.2002 6.0306 57.2442 6.0306 57.2618V58.8706C6.0306 58.9937 6.12731 59.0904 6.25039 59.0904C6.37346 59.0904 6.47017 58.9937 6.47017 58.8706V56.075C6.47017 56.0486 6.47896 55.9958 6.52292 55.9958C6.58446 55.9958 6.59325 56.0398 6.59325 56.075V57.0068C6.59325 57.086 6.66358 57.1563 6.7427 57.1563C6.80424 57.1563 6.85699 57.1211 6.88336 57.0684C6.88336 57.0772 6.89215 57.086 6.89215 57.086L7.19985 57.6486C7.19985 57.6486 7.21743 57.6838 7.21743 57.7189V57.8332L7.05039 58.4398H7.21743V58.9321C7.21743 59.02 7.28776 59.0816 7.36688 59.0816C7.45479 59.0816 7.51633 59.0113 7.51633 58.9321V58.4574V58.4398H7.60425V58.9321C7.60425 59.02 7.67458 59.0816 7.7537 59.0816C7.84161 59.0816 7.90315 59.0113 7.90315 58.9321V58.4398H8.07019L7.90315 57.8332V57.7277C7.90315 57.6926 7.92073 57.6574 7.92073 57.6574L8.21085 57.1387C8.21085 57.1387 8.22843 57.1035 8.23722 57.0684C8.2548 57.1035 8.28118 57.1299 8.32513 57.1475C8.48338 57.1915 8.52733 57.0156 8.52733 57.0156L8.77349 56.1805C8.77349 56.1805 8.79107 56.1189 8.83503 56.1277C8.88778 56.1453 8.8614 56.2068 8.8614 56.2068L8.43063 57.7805H8.83503V58.9058C8.83503 59.0113 8.92294 59.0992 9.02844 59.0992C9.13393 59.0992 9.22185 59.0113 9.22185 58.9058V57.7805H9.32734V58.9058C9.32734 59.0113 9.41526 59.0992 9.52075 59.0992C9.62625 59.0992 9.71416 59.0113 9.71416 58.9058V57.7805H10.1186L9.68779 56.2068C9.68779 56.2068 9.6702 56.1365 9.71416 56.1277C9.76691 56.1101 9.7757 56.1805 9.7757 56.1805L10.0219 57.0156C10.0219 57.0156 10.0658 57.1915 10.2241 57.1475C10.3823 57.1035 10.3296 56.9189 10.3296 56.9189L10.0658 55.9167ZM13.1603 57.1475C13.3274 57.1475 13.468 57.0068 13.468 56.8398C13.468 56.6728 13.3274 56.5321 13.1603 56.5321C12.9933 56.5321 12.8526 56.6728 12.8526 56.8398C12.8526 57.0156 12.9845 57.1475 13.1603 57.1475ZM13.89 58.0266C13.89 58.0178 13.6966 57.5431 13.6702 57.4728C13.5999 57.2706 13.4768 57.2706 13.3537 57.2706H13.1603H12.923C12.7647 57.2794 12.712 57.3585 12.5361 57.8156C12.5098 57.8772 12.4218 58.097 12.4218 58.1057C12.4043 58.1409 12.3955 58.22 12.4658 58.2552C12.5537 58.2904 12.5977 58.2112 12.5977 58.2112L12.7647 57.675C12.7647 57.675 12.7911 57.6398 12.7911 57.675V58.9321C12.7911 59.02 12.8614 59.0904 12.9493 59.0904C13.0372 59.0904 13.1076 59.02 13.1076 58.9321V58.431C13.1076 58.431 13.0988 58.3607 13.1515 58.3607C13.2043 58.3607 13.1955 58.431 13.1955 58.431V58.9321C13.1955 59.02 13.2658 59.0904 13.3537 59.0904C13.4416 59.0904 13.512 59.02 13.512 58.9321V57.675C13.512 57.6398 13.5296 57.6662 13.5296 57.6662L13.6614 58.0354C13.6614 58.0354 13.7142 58.2025 13.7318 58.2025C13.7933 58.2288 13.8636 58.2025 13.8812 58.1409C13.9164 58.1057 13.9076 58.0618 13.89 58.0266ZM5.98665 55.2662C6.20643 55.2662 6.38226 55.0903 6.38226 54.8706C6.38226 54.6508 6.20643 54.4749 5.98665 54.4749C5.76686 54.4749 5.59983 54.6508 5.59983 54.8706C5.59983 55.0903 5.77566 55.2662 5.98665 55.2662Z" fill="white"/>
<path d="M7.58702 57.1475C7.75406 57.1475 7.89472 57.0068 7.89472 56.8398C7.89472 56.6728 7.75406 56.5321 7.58702 56.5321C7.41999 56.5321 7.27933 56.6728 7.27933 56.8398C7.27933 57.0156 7.41999 57.1475 7.58702 57.1475ZM7.33207 49.7189V50.4485H7.16504V49.2969H7.35845L7.56944 49.9562V49.2969H7.72768V50.4485H7.56065L7.33207 49.7189ZM7.85955 50.1496V49.587C7.85955 49.4024 7.94747 49.2793 8.14967 49.2793C8.35187 49.2793 8.44857 49.4112 8.44857 49.587V50.1496C8.44857 50.3255 8.36066 50.4573 8.14967 50.4573C7.94747 50.4573 7.85955 50.3255 7.85955 50.1496ZM8.25516 50.176V49.5518C8.25516 49.4815 8.22879 49.4287 8.15846 49.4287C8.08813 49.4287 8.06175 49.4815 8.06175 49.5518V50.176C8.06175 50.2463 8.08813 50.2991 8.15846 50.2991C8.22 50.2991 8.25516 50.2463 8.25516 50.176ZM7.17383 51.0024H7.46394C7.65735 51.0024 7.72768 51.0991 7.72768 51.2573V51.5035C7.72768 51.6617 7.65735 51.7672 7.46394 51.7672H7.36724V52.1628H7.17383V51.0024ZM7.36724 51.1606V51.6178H7.43757C7.5079 51.6178 7.53427 51.5826 7.53427 51.5211V51.2573C7.53427 51.1958 7.5079 51.1606 7.43757 51.1606H7.36724ZM7.84197 51.8639V51.3013C7.84197 51.1167 7.92988 50.9936 8.13208 50.9936C8.33428 50.9936 8.43099 51.1255 8.43099 51.3013V51.8639C8.43099 52.0398 8.34307 52.1716 8.13208 52.1716C7.92988 52.1716 7.84197 52.0398 7.84197 51.8639ZM8.23758 51.8903V51.2661C8.23758 51.1958 8.2112 51.1431 8.14087 51.1431C8.07054 51.1431 8.04417 51.1958 8.04417 51.2661V51.8903C8.04417 51.9606 8.07054 52.0134 8.14087 52.0134C8.20241 52.0134 8.23758 51.9606 8.23758 51.8903ZM9.15187 51.0024L8.93209 52.1541H8.7211L8.50132 51.0024H8.69473L8.8266 51.8112L8.96726 51.0024H9.15187ZM9.24858 51.0024H9.71452V51.1606H9.44199V51.4947H9.6354V51.6529H9.44199V52.0046H9.71452V52.1628H9.24858V51.0024ZM10.0222 51.6266V52.1541H9.8288V51.0024H10.1101C10.3035 51.0024 10.3739 51.0991 10.3739 51.2573V51.4068C10.3739 51.5299 10.3299 51.6002 10.2156 51.6266L10.4002 52.1541H10.198L10.0222 51.6266ZM10.0222 51.1606V51.5211H10.0838C10.1541 51.5211 10.1805 51.4859 10.1805 51.4244V51.2573C10.1805 51.1958 10.1541 51.1606 10.0838 51.1606H10.0222ZM10.4618 51.0024H10.9805V51.1606H10.8222V52.1628H10.6288V51.1694H10.4706L10.4618 51.0024ZM11.464 51.7145V52.1541H11.2706V51.7145L11.0508 51.0024H11.253L11.3673 51.442L11.4816 51.0024H11.6662L11.464 51.7145Z" fill="white"/>
<path d="M35.4335 66.1546C39.5508 66.1546 42.8885 62.8169 42.8885 58.6996C42.8885 54.5823 39.5508 51.2446 35.4335 51.2446C31.3162 51.2446 27.9785 54.5823 27.9785 58.6996C27.9785 62.8169 31.3162 66.1546 35.4335 66.1546Z" fill="#DDA63A"/>
<path d="M27.2812 44.9858C29.7665 44.9858 31.7812 42.9711 31.7812 40.4858C31.7812 38.0006 29.7665 35.9858 27.2812 35.9858C24.796 35.9858 22.7812 38.0006 22.7812 40.4858C22.7812 42.9711 24.796 44.9858 27.2812 44.9858Z" fill="#4C9F38"/>
<path d="M41.1854 44.2452C42.0552 44.2452 42.7604 43.5401 42.7604 42.6702C42.7604 41.8004 42.0552 41.0952 41.1854 41.0952C40.3155 41.0952 39.6104 41.8004 39.6104 42.6702C39.6104 43.5401 40.3155 44.2452 41.1854 44.2452Z" fill="#C5192D"/>
<path d="M43.7097 81.9448C46.3496 81.9448 48.4897 79.8047 48.4897 77.1648C48.4897 74.5248 46.3496 72.3848 43.7097 72.3848C41.0698 72.3848 38.9297 74.5248 38.9297 77.1648C38.9297 79.8047 41.0698 81.9448 43.7097 81.9448Z" fill="#FF3A21"/>
<path d="M40.1715 32.9876C43.8221 32.9876 46.7815 30.0282 46.7815 26.3776C46.7815 22.727 43.8221 19.7676 40.1715 19.7676C36.5209 19.7676 33.5615 22.727 33.5615 26.3776C33.5615 30.0282 36.5209 32.9876 40.1715 32.9876Z" fill="#26BDE2"/>
<path d="M100.308 100C127.922 100 150.308 77.6142 150.308 50C150.308 22.3858 127.922 0 100.308 0C72.6934 0 50.3076 22.3858 50.3076 50C50.3076 77.6142 72.6934 100 100.308 100Z" fill="#FCC30B"/>
<path d="M72.8301 23.0434H76.4823L73.3083 35.2173H75.6562L78.7866 23.3043V21.1304H72.8301V23.0434Z" fill="white"/>
<path d="M85.4805 26.8261L86.5674 21.1304H87.6544L88.7413 26.8261H87.7413L87.5674 25.7826H86.5674L86.3935 26.8261H85.4805ZM86.6979 25H87.4805L87.0892 22.6956L86.6979 25ZM89.0892 21.1304H91.35V21.913H90.0457V23.5652H91.0022V24.3478H90.0457V26.8695H89.0892V21.1304ZM91.7413 21.1304H94.0022V21.913H92.6979V23.5652H93.6544V24.3478H92.6979V26.8695H91.7413V21.1304ZM94.2631 25.3478V22.5652C94.2631 21.6522 94.6979 21.0435 95.6979 21.0435C96.6979 21.0435 97.1761 21.6956 97.1761 22.5652V25.3478C97.1761 26.2174 96.7413 26.8695 95.6979 26.8695C94.6979 26.913 94.2631 26.2174 94.2631 25.3478ZM96.2196 25.5217V22.4348C96.2196 22.0869 96.0892 21.8261 95.7413 21.8261C95.3935 21.8261 95.2631 22.0869 95.2631 22.4348V25.5217C95.2631 25.8695 95.3935 26.1304 95.7413 26.1304C96.0892 26.0869 96.2196 25.8695 96.2196 25.5217ZM98.6544 24.2174V26.8261H97.6979V21.1304H99.0892C100.046 21.1304 100.394 21.6087 100.394 22.3913V23.1304C100.394 23.7391 100.176 24.0869 99.6109 24.2174L100.524 26.8261H99.5239L98.6544 24.2174ZM98.6544 21.913V23.6956H98.9587C99.3066 23.6956 99.437 23.5217 99.437 23.2174V22.3913C99.437 22.0869 99.3066 21.913 98.9587 21.913H98.6544ZM103.785 22.6522V25.3043C103.785 26.1739 103.437 26.8261 102.394 26.8261H100.915V21.1304H102.394C103.394 21.1304 103.785 21.7826 103.785 22.6522ZM102.263 26.0435C102.654 26.0435 102.828 25.8261 102.828 25.4782V22.4782C102.828 22.1304 102.698 21.913 102.263 21.913H101.872V26.0435H102.263ZM104.002 26.8261L105.089 21.1304H106.176L107.263 26.8261H106.263L106.089 25.7826H105.089L104.915 26.8261H104.002ZM105.22 25H106.002L105.611 22.6956L105.22 25ZM107.611 21.1304H109.002C109.959 21.1304 110.263 21.5652 110.263 22.3913V22.9565C110.263 23.4348 110.089 23.7391 109.698 23.8695C110.176 24 110.393 24.3043 110.393 24.8261V25.5652C110.393 26.3913 110.046 26.8261 109.089 26.8261H107.611V21.1304ZM108.567 23.5217H108.915C109.219 23.5217 109.35 23.3478 109.35 23.0435V22.3478C109.35 22.0435 109.219 21.8695 108.872 21.8695H108.524V23.5217H108.567ZM108.567 24.2608V26.0435H109.002C109.306 26.0435 109.48 25.8695 109.48 25.5652V24.6956C109.48 24.3913 109.35 24.2174 109.002 24.2174H108.567V24.2608ZM110.872 21.1304H111.828V26.0435H112.959V26.8261H110.872V21.1304ZM113.393 21.1304H115.698V21.913H114.35V23.5652H115.306V24.3478H114.35V26.0869H115.698V26.8695H113.393V21.1304ZM116.828 26.8261L117.915 21.1304H119.002L120.089 26.8261H119.089L118.915 25.7826H117.915L117.741 26.8261H116.828ZM118.046 25H118.828L118.437 22.6956L118.046 25ZM121.263 23.2174V26.8261H120.437V21.1304H121.393L122.437 24.3913V21.1304H123.219V26.8261H122.393L121.263 23.2174ZM126.611 22.6522V25.3043C126.611 26.1739 126.263 26.8261 125.219 26.8261H123.741V21.1304H125.219C126.263 21.1304 126.611 21.7826 126.611 22.6522ZM125.132 26.0435C125.524 26.0435 125.698 25.8261 125.698 25.4782V22.4782C125.698 22.1304 125.567 21.913 125.132 21.913H124.741V26.0435H125.132Z" fill="white"/>
<path d="M85.6113 33.7389V30.9998C85.6113 30.1302 86.0461 29.478 87.0461 29.478C88.0896 29.478 88.3939 30.0867 88.3939 30.9128V31.565H87.5244V30.8259C87.5244 30.478 87.3939 30.2606 87.0461 30.2606C86.6983 30.2606 86.5679 30.5215 86.5679 30.8693V33.9128C86.5679 34.2606 86.6983 34.5215 87.0461 34.5215C87.3939 34.5215 87.5244 34.3041 87.5244 33.9563V32.9128H88.3939V33.9128C88.3939 34.7389 88.0461 35.3476 87.0461 35.3476C86.0461 35.3041 85.6113 34.6519 85.6113 33.7389ZM89.0026 29.5215H89.9592V34.4345H91.0896V35.2172H89.0026V29.5215ZM91.6113 29.5215H93.8722V30.3041H92.5679V31.9128H93.5244V32.6954H92.5679V34.4345H93.8722V35.2172H91.6113V29.5215ZM94.3505 35.2172L95.4374 29.5215H96.5244L97.6113 35.2172H96.6113L96.4374 34.1737H95.4374L95.2635 35.2172H94.3505ZM95.5678 33.4345H96.3505L95.9592 31.1302L95.5678 33.4345ZM98.8722 31.6519V35.2172H98.0461V29.5215H99.0026L100.046 32.7824V29.5215H100.829V35.2172H100.003L98.8722 31.6519ZM103.394 29.5215H105.655V30.3041H104.35V31.9128H105.307V32.6954H104.35V34.4345H105.655V35.2172H103.394V29.5215ZM107.046 31.6519V35.2172H106.22V29.5215H107.177L108.22 32.7824V29.5215H109.003V35.2172H108.177L107.046 31.6519ZM109.655 29.5215H111.916V30.3041H110.611V31.9128H111.568V32.6954H110.611V34.4345H111.916V35.2172H109.655V29.5215ZM113.481 32.6085V35.2172H112.524V29.5215H113.916C114.872 29.5215 115.22 29.9998 115.22 30.7824V31.5215C115.22 32.1302 115.003 32.478 114.437 32.6085L115.35 35.1737H114.35L113.481 32.6085ZM113.481 30.3041V32.0867H113.785C114.133 32.0867 114.263 31.9128 114.263 31.6085V30.7824C114.263 30.478 114.133 30.3041 113.785 30.3041H113.481ZM117.263 32.1737H118.611V35.2172H117.916V34.6085C117.785 35.0432 117.524 35.3041 117.003 35.3041C116.176 35.3041 115.785 34.6519 115.785 33.7824V31.0432C115.785 30.1737 116.22 29.5215 117.22 29.5215C118.263 29.5215 118.568 30.1302 118.568 30.9563V31.478H117.698V30.9128C117.698 30.565 117.568 30.3476 117.22 30.3476C116.872 30.3476 116.742 30.6085 116.742 30.9563V33.9998C116.742 34.3476 116.872 34.6085 117.22 34.6085C117.524 34.6085 117.698 34.4345 117.698 34.0432V33.0432H117.263V32.1737ZM121.09 33.0432V35.2172H120.133V33.0432L119.046 29.5215H120.046L120.611 31.6954L121.176 29.5215H122.09L121.09 33.0432Z" fill="white"/>
<path d="M100.698 77.1741C101.176 77.1741 101.524 76.7828 101.524 76.3915V71.9133C101.524 71.522 101.133 71.1307 100.698 71.1307C100.22 71.1307 99.8721 71.5654 99.8721 71.9133V76.3915C99.8721 76.7394 100.263 77.1741 100.698 77.1741ZM100.611 49.1741C94.9591 49.1741 90.3504 53.7828 90.3504 59.435C90.3504 65.0872 94.9591 69.6959 100.611 69.6959C106.263 69.6959 110.872 65.0872 110.872 59.435C110.872 53.7394 106.307 49.1741 100.611 49.1741ZM99.8721 53.2176C99.8721 52.8698 100.22 52.522 100.655 52.522C101.09 52.522 101.394 52.9133 101.394 53.2176V56.7394C101.394 57.0872 101.046 57.435 100.655 57.435C100.22 57.435 99.8721 57.0437 99.8721 56.7394V53.2176ZM100.611 64.6524C97.6547 64.6524 95.2634 62.2611 95.2634 59.3046C95.2634 56.9133 96.8286 54.8698 99.0025 54.2176V56.2176C97.8721 56.7828 97.0895 57.9568 97.0895 59.3046C97.0895 61.2176 98.6547 62.7828 100.568 62.7828C102.481 62.7828 104.046 61.2176 104.046 59.3046C104.046 57.9568 103.263 56.7828 102.133 56.1741V54.1741C104.307 54.8263 105.872 56.8698 105.872 59.2611C105.959 62.2611 103.568 64.6524 100.611 64.6524ZM88.8721 59.3046C88.8721 58.8263 88.4808 58.4785 88.0895 58.4785H83.5678C83.1765 58.4785 82.7852 58.8698 82.7852 59.3046C82.7852 59.7828 83.2199 60.1307 83.5678 60.1307H88.046C88.4373 60.1741 88.8721 59.7828 88.8721 59.3046ZM118.481 59.3046C118.481 58.8263 118.089 58.4785 117.698 58.4785H113.22C112.829 58.4785 112.437 58.8698 112.437 59.3046C112.437 59.7828 112.872 60.1307 113.22 60.1307H117.698C118.046 60.1741 118.481 59.7828 118.481 59.3046ZM100.611 47.5655C101.09 47.5655 101.437 47.1741 101.437 46.7828V42.3046C101.437 41.9133 101.046 41.522 100.611 41.522C100.133 41.522 99.7852 41.9568 99.7852 42.3046V46.7394C99.7852 47.1307 100.176 47.5655 100.611 47.5655ZM90.3939 53.4785C90.6112 53.0872 90.4373 52.522 90.133 52.3481L86.2199 50.1307C85.8721 49.9568 85.3504 50.0437 85.133 50.4785C84.9156 50.8698 85.0895 51.435 85.3939 51.6089L89.3069 53.8263C89.6112 54.0002 90.1765 53.8698 90.3939 53.4785ZM116.133 68.1741C116.35 67.7828 116.176 67.2176 115.872 67.0437L111.959 64.8263C111.611 64.6524 111.089 64.7394 110.872 65.1741C110.655 65.5655 110.829 66.1307 111.133 66.3046L115.046 68.522C115.35 68.6959 115.872 68.6089 116.133 68.1741ZM106.481 49.0872C106.872 49.3046 107.394 49.1307 107.611 48.8263L109.829 44.9133C110.002 44.5655 109.916 44.0437 109.481 43.8263C109.089 43.6089 108.524 43.7828 108.35 44.0872L106.133 48.0002C105.959 48.3481 106.09 48.8698 106.481 49.0872ZM91.7417 74.8263C92.133 75.0437 92.6547 74.8698 92.8721 74.5654L95.0895 70.6524C95.2634 70.3046 95.1765 69.7828 94.7417 69.5654C94.3504 69.3481 93.7852 69.522 93.6112 69.8263L91.3939 73.7394C91.2199 74.0437 91.3504 74.5655 91.7417 74.8263ZM94.7417 49.1307C95.133 48.9133 95.2634 48.3481 95.0895 48.0437L92.8721 44.1307C92.6982 43.7828 92.133 43.6089 91.7417 43.8698C91.3504 44.0872 91.2199 44.6524 91.3939 45.0002L93.6112 48.9133C93.8286 49.1741 94.3504 49.3481 94.7417 49.1307ZM109.524 74.7828C109.916 74.5654 110.046 74.0002 109.872 73.6959L107.655 69.7828C107.481 69.435 106.916 69.2611 106.524 69.522C106.133 69.7394 106.003 70.3046 106.176 70.6524L108.394 74.5654C108.568 74.8698 109.133 75.0437 109.524 74.7828ZM110.829 53.435C111.046 53.8263 111.611 53.9568 111.916 53.7828L115.829 51.5654C116.176 51.3915 116.35 50.8263 116.089 50.435C115.872 50.0437 115.307 49.9133 114.959 50.0872L111.046 52.3046C110.785 52.522 110.611 53.0437 110.829 53.435ZM85.1765 68.2176C85.3939 68.6089 85.9591 68.7394 86.2634 68.5654L90.1765 66.3481C90.5243 66.1741 90.6982 65.6089 90.4373 65.2176C90.2199 64.8263 89.6547 64.6959 89.3069 64.8698L85.3939 67.0872C85.0895 67.2611 84.9156 67.8263 85.1765 68.2176Z" fill="white"/>
<path d="M133.671 124.467C140.539 124.467 146.106 118.9 146.106 112.032C146.106 105.165 140.539 99.5972 133.671 99.5972C126.804 99.5972 121.236 105.165 121.236 112.032C121.236 118.9 126.804 124.467 133.671 124.467Z" fill="#A21942"/>
<path d="M128.362 107.501V107.112C128.362 106.777 128.243 106.528 127.973 106.409C128.211 106.29 128.319 106.085 128.319 105.804V105.663C128.319 105.112 128.038 104.82 127.486 104.82C126.946 104.82 126.664 105.112 126.664 105.663V105.804C126.664 106.085 126.773 106.301 127 106.409C126.729 106.528 126.61 106.777 126.61 107.112V107.491C126.61 108.02 126.859 108.399 127.486 108.399C128.103 108.41 128.362 108.031 128.362 107.501ZM127.216 105.62C127.216 105.404 127.292 105.285 127.475 105.285C127.67 105.285 127.746 105.404 127.746 105.62V105.858C127.746 106.074 127.67 106.193 127.475 106.193C127.281 106.193 127.216 106.063 127.216 105.858V105.62ZM127.767 107.566C127.767 107.783 127.692 107.934 127.475 107.934C127.27 107.934 127.194 107.783 127.194 107.566V106.993C127.194 106.777 127.27 106.636 127.475 106.636C127.692 106.636 127.767 106.788 127.767 106.993V107.566Z" fill="white"/>
<path d="M137.055 111.956L135.282 113.643C135.217 113.708 135.185 113.762 135.185 113.892V118.607C135.185 118.661 135.228 118.704 135.282 118.704H137.109C137.163 118.704 137.207 118.661 137.207 118.607V112C137.218 111.935 137.174 111.838 137.055 111.956ZM131.962 114.141L130.189 115.828C130.124 115.892 130.092 115.946 130.092 116.076V118.596C130.092 118.65 130.135 118.693 130.189 118.693H132.017C132.071 118.693 132.114 118.65 132.114 118.596V114.184C132.125 114.13 132.081 114.033 131.962 114.141Z" fill="white"/>
<path d="M137.866 109.913C137.866 109.902 137.866 109.881 137.856 109.87C137.845 109.859 137.834 109.859 137.823 109.859H137.802L136.45 110.162H136.428C136.418 110.162 136.407 110.172 136.407 110.172C136.385 110.194 136.385 110.227 136.407 110.248L136.418 110.259L136.731 110.573L133.66 113.643L132.244 112.227C132.233 112.216 132.2 112.216 132.19 112.227L131.8 112.616L129.53 114.887C129.519 114.898 129.519 114.93 129.53 114.941L129.919 115.33C129.93 115.341 129.962 115.341 129.973 115.33L132.222 113.092L133.249 114.119L133.639 114.509C133.649 114.519 133.682 114.519 133.693 114.509L137.174 111.027L137.499 111.351C137.52 111.373 137.553 111.373 137.574 111.351C137.585 111.34 137.585 111.329 137.585 111.319L137.888 109.935L137.866 109.913Z" fill="white"/>
<path d="M134.526 114.443L133.672 115.308C133.65 115.319 133.628 115.319 133.618 115.308L132.839 114.519C132.698 114.378 132.666 114.497 132.666 114.551V118.617C132.666 118.671 132.709 118.715 132.763 118.715H134.591C134.645 118.715 134.688 118.671 134.688 118.617V114.487C134.688 114.411 134.645 114.314 134.526 114.443Z" fill="white"/>
<path d="M130.373 105.231V105.89C130.373 106.107 130.286 106.269 130.027 106.269H129.659V104.852H130.027C130.286 104.852 130.373 105.014 130.373 105.231ZM129.994 106.074C130.092 106.074 130.135 106.02 130.135 105.933V105.187C130.135 105.101 130.103 105.047 129.994 105.047H129.897V106.074H129.994ZM130.524 104.852H131.097V105.047H130.762V105.458H131V105.652H130.762V106.085H131.097V106.28H130.524V104.852ZM131.216 105.901V105.209C131.216 104.982 131.324 104.831 131.573 104.831C131.833 104.831 131.908 104.982 131.908 105.187V105.36H131.692V105.166C131.692 105.079 131.66 105.025 131.573 105.025C131.487 105.025 131.454 105.09 131.454 105.177V105.944C131.454 106.031 131.487 106.096 131.573 106.096C131.66 106.096 131.692 106.042 131.692 105.955V105.696H131.908V105.944C131.908 106.15 131.822 106.301 131.573 106.301C131.324 106.29 131.216 106.117 131.216 105.901ZM132.06 104.852H132.633V105.047H132.298V105.458H132.535V105.652H132.298V106.085H132.633V106.28H132.06V104.852ZM132.968 105.371V106.269H132.763V104.852H133L133.26 105.663V104.852H133.455V106.269H133.249L132.968 105.371ZM133.584 104.852H134.222V105.047H134.028V106.269H133.79V105.047H133.595V104.852H133.584ZM135.098 105.393L134.968 106.269H134.741L134.547 104.852H134.774L134.882 105.75L135.001 104.852H135.195L135.325 105.75L135.433 104.852H135.639L135.455 106.269H135.239L135.098 105.393ZM135.736 105.901V105.209C135.736 104.982 135.844 104.831 136.093 104.831C136.342 104.831 136.461 104.993 136.461 105.209V105.901C136.461 106.117 136.352 106.28 136.093 106.28C135.844 106.29 135.736 106.117 135.736 105.901ZM136.212 105.944V105.177C136.212 105.09 136.179 105.025 136.093 105.025C136.006 105.025 135.974 105.09 135.974 105.177V105.944C135.974 106.031 136.006 106.096 136.093 106.096C136.179 106.085 136.212 106.031 136.212 105.944ZM136.85 105.62V106.269H136.612V104.852H136.958C137.196 104.852 137.282 104.971 137.282 105.166V105.35C137.282 105.501 137.228 105.587 137.088 105.62L137.315 106.269H137.066L136.85 105.62ZM136.85 105.047V105.49H136.926C137.012 105.49 137.044 105.447 137.044 105.371V105.166C137.044 105.09 137.012 105.047 136.926 105.047H136.85ZM137.672 105.577V106.269H137.434V104.852H137.672V105.479L137.931 104.852H138.169L137.888 105.49L138.169 106.269H137.92L137.672 105.577ZM138.504 106.269L138.775 104.852H139.045L139.315 106.269H139.066L139.023 106.009H138.775L138.731 106.269H138.504ZM138.807 105.815H139.002L138.904 105.241L138.807 105.815ZM139.596 105.371V106.269H139.391V104.852H139.629L139.888 105.663V104.852H140.083V106.269H139.877L139.596 105.371ZM140.959 105.231V105.89C140.959 106.107 140.872 106.269 140.613 106.269H140.245V104.852H140.613C140.872 104.852 140.959 105.014 140.959 105.231ZM140.58 106.074C140.678 106.074 140.721 106.02 140.721 105.933V105.187C140.721 105.101 140.688 105.047 140.58 105.047H140.483V106.074H140.58Z" fill="white"/>
<path d="M129.659 106.939H130.232V107.134H129.897V107.545H130.135V107.739H129.897V108.172H130.232V108.366H129.659V106.939ZM130.33 107.988V107.296C130.33 107.069 130.438 106.917 130.686 106.917C130.946 106.917 131.022 107.069 131.022 107.274V107.447H130.805V107.263C130.805 107.177 130.773 107.123 130.686 107.123C130.6 107.123 130.567 107.188 130.567 107.274V108.042C130.567 108.129 130.6 108.193 130.686 108.193C130.773 108.193 130.805 108.139 130.805 108.053V107.793H131.022V108.042C131.022 108.247 130.935 108.399 130.686 108.399C130.438 108.377 130.33 108.215 130.33 107.988ZM131.151 107.988V107.296C131.151 107.069 131.26 106.917 131.508 106.917C131.757 106.917 131.876 107.08 131.876 107.296V107.988C131.876 108.204 131.768 108.366 131.508 108.366C131.27 108.377 131.151 108.215 131.151 107.988ZM131.638 108.031V107.263C131.638 107.177 131.606 107.112 131.519 107.112C131.433 107.112 131.4 107.177 131.4 107.263V108.031C131.4 108.118 131.433 108.183 131.519 108.183C131.606 108.172 131.638 108.118 131.638 108.031ZM132.222 107.469V108.366H132.016V106.95H132.254L132.514 107.761V106.95H132.708V108.366H132.503L132.222 107.469ZM132.849 107.988V107.296C132.849 107.069 132.957 106.917 133.206 106.917C133.455 106.917 133.574 107.08 133.574 107.296V107.988C133.574 108.204 133.465 108.366 133.206 108.366C132.957 108.377 132.849 108.215 132.849 107.988ZM133.325 108.031V107.263C133.325 107.177 133.292 107.112 133.206 107.112C133.119 107.112 133.087 107.177 133.087 107.263V108.031C133.087 108.118 133.119 108.183 133.206 108.183C133.292 108.172 133.325 108.118 133.325 108.031ZM134.363 107.437L134.19 108.356H134.082L133.909 107.437V108.356H133.714V106.939H133.995L134.147 107.739L134.287 106.939H134.59V108.356H134.374L134.363 107.437ZM134.72 106.939H134.958V108.356H134.72V106.939ZM135.087 107.988V107.296C135.087 107.069 135.195 106.917 135.444 106.917C135.704 106.917 135.779 107.069 135.779 107.274V107.447H135.563V107.263C135.563 107.177 135.531 107.123 135.444 107.123C135.358 107.123 135.325 107.188 135.325 107.274V108.042C135.325 108.129 135.358 108.193 135.444 108.193C135.531 108.193 135.563 108.139 135.563 108.053V107.793H135.779V108.042C135.779 108.247 135.693 108.399 135.444 108.399C135.195 108.377 135.087 108.215 135.087 107.988ZM136.558 107.599H136.893V108.356H136.72V108.204C136.688 108.312 136.623 108.377 136.493 108.377C136.288 108.377 136.19 108.215 136.19 107.999V107.307C136.19 107.08 136.298 106.928 136.547 106.928C136.807 106.928 136.893 107.08 136.893 107.285V107.415H136.677V107.274C136.677 107.188 136.644 107.134 136.558 107.134C136.471 107.134 136.439 107.199 136.439 107.285V108.053C136.439 108.139 136.471 108.204 136.558 108.204C136.634 108.204 136.677 108.161 136.677 108.064V107.815H136.569V107.599H136.558ZM137.293 107.707V108.356H137.055V106.939H137.401C137.639 106.939 137.726 107.058 137.726 107.253V107.437C137.726 107.588 137.672 107.674 137.531 107.707L137.758 108.356H137.509L137.293 107.707ZM137.293 107.134V107.577H137.369C137.455 107.577 137.488 107.534 137.488 107.458V107.253C137.488 107.177 137.455 107.134 137.369 107.134H137.293ZM137.834 107.988V107.296C137.834 107.069 137.942 106.917 138.191 106.917C138.439 106.917 138.558 107.08 138.558 107.296V107.988C138.558 108.204 138.45 108.366 138.191 108.366C137.942 108.377 137.834 108.215 137.834 107.988ZM138.32 108.031V107.263C138.32 107.177 138.288 107.112 138.201 107.112C138.115 107.112 138.082 107.177 138.082 107.263V108.031C138.082 108.118 138.115 108.183 138.201 108.183C138.288 108.172 138.32 108.118 138.32 108.031ZM139.175 107.48L139.045 108.356H138.818L138.623 106.939H138.85L138.958 107.837L139.077 106.939H139.272L139.402 107.837L139.51 106.939H139.715L139.531 108.356H139.304L139.175 107.48ZM139.802 106.939H140.44V107.134H140.245V108.356H139.996V107.134H139.802V106.939ZM140.98 107.728H140.753V108.356H140.515V106.939H140.753V107.545H140.98V106.939H141.218V108.356H140.98V107.728Z" fill="white"/>
<path d="M156.365 101.273C162.448 101.273 167.38 96.3416 167.38 90.2582C167.38 84.1747 162.448 79.2432 156.365 79.2432C150.281 79.2432 145.35 84.1747 145.35 90.2582C145.35 96.3416 150.281 101.273 156.365 101.273Z" fill="#FD6925"/>
<path d="M151.49 84.636C151.49 84.1571 151.279 83.8027 150.733 83.8027C150.178 83.8027 149.967 84.1092 149.967 84.5882V85.0479C149.967 85.5556 150.168 85.8142 150.541 85.8142C150.762 85.8142 150.896 85.7088 150.973 85.5651V86.2356C150.973 86.4272 150.896 86.5517 150.714 86.5517C150.522 86.5517 150.455 86.4463 150.455 86.2452V86.0345H149.976V86.1973C149.976 86.6571 150.139 86.9731 150.723 86.9731C151.269 86.9731 151.49 86.6187 151.49 86.1303V84.636ZM150.973 85.115C150.963 85.2874 150.886 85.4023 150.723 85.4023C150.541 85.4023 150.474 85.2969 150.474 85.0862V84.5498C150.474 84.3487 150.551 84.2338 150.723 84.2338C150.896 84.2338 150.963 84.3487 150.963 84.5498V85.115H150.973ZM160.225 92.7009L158.396 91.6473V89.5305C158.396 89.4826 158.376 89.4443 158.329 89.4252L156.432 88.3333C156.394 88.3141 156.346 88.3141 156.308 88.3333L154.411 89.4252C154.373 89.4443 154.344 89.4922 154.344 89.5305V91.6473L152.515 92.7009C152.476 92.7201 152.448 92.768 152.448 92.8063V94.9901C152.448 95.038 152.467 95.0763 152.515 95.0955L154.411 96.1874C154.43 96.197 154.449 96.2066 154.478 96.2066C154.497 96.2066 154.526 96.197 154.545 96.1874L156.375 95.1338L158.204 96.1874C158.223 96.197 158.242 96.2066 158.271 96.2066C158.3 96.2066 158.319 96.197 158.338 96.1874L160.235 95.0955C160.273 95.0763 160.302 95.0284 160.302 94.9901V92.8063C160.283 92.7584 160.263 92.7201 160.225 92.7009ZM156.241 94.7794L154.718 93.8982L156.241 93.017V94.7794ZM158.013 91.7144L156.49 92.5956V90.8428L158.013 91.7144ZM156.241 92.586L154.718 91.7048L156.241 90.8236V92.586ZM156.624 92.8063L158.271 91.8581L159.919 92.8063L158.271 93.7545L156.624 92.8063ZM158.137 91.4941L156.614 90.6129L158.137 89.7317V91.4941ZM156.116 90.6225L154.593 91.5037V89.7508L156.116 90.6225ZM154.354 95.8713L152.706 94.9231V93.0266L154.354 93.9748V95.8713ZM154.603 95.8713V94.1185L156.126 94.9997L154.603 95.8713ZM160.034 94.9231L158.386 95.8713V93.9748L160.034 93.0266V94.9231Z" fill="white"/>
<path d="M152.304 83.8792H152.505V85.0478H152.304V83.8792ZM152.783 84.3198V85.0573H152.62V83.8888H152.811L153.022 84.5593V83.8888H153.185V85.0573H153.013L152.783 84.3198ZM153.894 84.1953V84.7413C153.894 84.9232 153.817 85.0573 153.606 85.0573H153.3V83.8888H153.606C153.827 83.8792 153.894 84.0133 153.894 84.1953ZM153.587 84.8945C153.664 84.8945 153.702 84.8466 153.702 84.7796V84.1666C153.702 84.0995 153.673 84.0516 153.587 84.0516H153.501V84.9041L153.587 84.8945ZM154.593 83.8792V84.7604C154.593 84.9424 154.516 85.0573 154.315 85.0573C154.104 85.0573 154.018 84.9424 154.018 84.7604V83.8792H154.219V84.7796C154.219 84.8466 154.248 84.8945 154.315 84.8945C154.382 84.8945 154.411 84.8466 154.411 84.7796V83.8792H154.593ZM154.698 84.7987V84.6455H154.88V84.8083C154.88 84.8753 154.909 84.9137 154.976 84.9137C155.034 84.9137 155.062 84.8753 155.062 84.8083V84.7604C155.062 84.6934 155.034 84.655 154.976 84.5976L154.861 84.4826C154.746 84.3677 154.698 84.3007 154.698 84.1666V84.1282C154.698 83.9846 154.784 83.8696 154.976 83.8696C155.177 83.8696 155.254 83.9654 155.254 84.1378V84.2336H155.072V84.1282C155.072 84.0612 155.043 84.0325 154.976 84.0325C154.919 84.0325 154.88 84.0612 154.88 84.1282V84.157C154.88 84.224 154.919 84.2623 154.976 84.3198L155.101 84.4443C155.206 84.5497 155.263 84.6167 155.263 84.7508V84.8083C155.263 84.9711 155.177 85.0861 154.976 85.0861C154.775 85.0669 154.698 84.952 154.698 84.7987ZM155.311 83.8792H155.838V84.042H155.675V85.0478H155.474V84.042H155.311V83.8792ZM156.125 84.5114V85.0478H155.934V83.8792H156.221C156.422 83.8792 156.489 83.975 156.489 84.1378V84.2911C156.489 84.4156 156.442 84.4922 156.336 84.521L156.528 85.0478H156.317L156.125 84.5114ZM156.125 84.042V84.406H156.192C156.26 84.406 156.288 84.3677 156.288 84.3102V84.1378C156.288 84.0708 156.26 84.042 156.192 84.042H156.125ZM156.949 84.6072V85.0478H156.748V84.6072L156.528 83.8792H156.729L156.844 84.3198L156.959 83.8792H157.15L156.949 84.6072ZM157.361 84.8753L157.265 85.1435H157.15L157.179 84.8658H157.361V84.8753ZM157.677 83.8792H157.878V85.0478H157.677V83.8792ZM158.156 84.3198V85.0573H157.993V83.8888H158.185L158.396 84.5593V83.8888H158.558V85.0573H158.386L158.156 84.3198ZM158.846 84.3198V85.0573H158.683V83.8888H158.874L159.085 84.5593V83.8888H159.248V85.0573H159.076L158.846 84.3198ZM159.373 84.7508V84.1857C159.373 84.0037 159.459 83.8696 159.669 83.8696C159.88 83.8696 159.966 84.0037 159.966 84.1857V84.7508C159.966 84.9328 159.88 85.0669 159.669 85.0669C159.459 85.0669 159.373 84.9328 159.373 84.7508ZM159.775 84.7796V84.1474C159.775 84.0804 159.746 84.0229 159.669 84.0229C159.602 84.0229 159.574 84.0708 159.574 84.1474V84.7796C159.574 84.8466 159.602 84.9041 159.669 84.9041C159.736 84.9041 159.775 84.8562 159.775 84.7796ZM160.723 83.8792L160.503 85.0478H160.292L160.072 83.8792H160.273L160.407 84.6934L160.541 83.8792H160.723ZM160.694 85.0478L160.915 83.8792H161.135L161.355 85.0478H161.154L161.116 84.837H160.915L160.876 85.0478H160.694ZM160.934 84.6838H161.087L161.01 84.2144L160.934 84.6838ZM161.336 83.8792H161.863V84.042H161.7V85.0478H161.499V84.042H161.336V83.8792ZM161.959 83.8792H162.16V85.0478H161.959V83.8792ZM162.284 84.7508V84.1857C162.284 84.0037 162.371 83.8696 162.581 83.8696C162.792 83.8696 162.878 84.0037 162.878 84.1857V84.7508C162.878 84.9328 162.792 85.0669 162.581 85.0669C162.371 85.0669 162.284 84.9328 162.284 84.7508ZM162.677 84.7796V84.1474C162.677 84.0804 162.648 84.0229 162.572 84.0229C162.505 84.0229 162.476 84.0708 162.476 84.1474V84.7796C162.476 84.8466 162.505 84.9041 162.572 84.9041C162.648 84.9041 162.677 84.8562 162.677 84.7796ZM163.165 84.3198V85.0573H163.003V83.8888H163.194L163.405 84.5593V83.8888H163.568V85.0573H163.395L163.165 84.3198Z" fill="white"/>
<path d="M152.266 86.906L152.486 85.7374H152.706L152.927 86.906H152.725L152.687 86.6952H152.486L152.448 86.906H152.266ZM152.515 86.5324H152.668L152.591 86.0631L152.515 86.5324ZM153.176 86.1684V86.906H153.013V85.7374H153.204L153.415 86.4079V85.7374H153.578V86.906H153.405L153.176 86.1684ZM154.287 86.0439V86.5899C154.287 86.7719 154.21 86.906 153.999 86.906H153.693V85.7374H153.999C154.21 85.7374 154.287 85.8715 154.287 86.0439ZM153.98 86.7431C154.057 86.7431 154.095 86.6952 154.095 86.6282V86.0152C154.095 85.9481 154.066 85.9002 153.98 85.9002H153.894V86.7527L153.98 86.7431ZM154.593 85.7374H154.794V86.906H154.593V85.7374ZM155.082 86.1684V86.906H154.919V85.7374H155.11L155.321 86.4079V85.7374H155.484V86.906H155.312L155.082 86.1684ZM155.608 85.7374H156.068V85.9002H155.8V86.2355H156.001V86.3983H155.8V86.9155H155.599L155.608 85.7374ZM156.356 86.3696V86.906H156.154V85.7374H156.442C156.643 85.7374 156.71 85.8332 156.71 85.996V86.1493C156.71 86.2738 156.662 86.3504 156.557 86.3792L156.748 86.906H156.538L156.356 86.3696ZM156.356 85.8907V86.2546H156.423C156.49 86.2546 156.518 86.2163 156.518 86.1589V85.9865C156.518 85.9194 156.49 85.8907 156.423 85.8907H156.356ZM156.806 86.906L157.026 85.7374H157.246L157.467 86.906H157.265L157.227 86.6952H157.016L156.978 86.906H156.806ZM157.045 86.5324H157.198L157.122 86.0631L157.045 86.5324ZM157.534 86.6474V86.4941H157.716V86.6569C157.716 86.724 157.744 86.7623 157.811 86.7623C157.869 86.7623 157.898 86.724 157.898 86.6569V86.609C157.898 86.542 157.869 86.5037 157.811 86.4462L157.696 86.3313C157.582 86.2163 157.534 86.1493 157.534 86.0152V85.9769C157.534 85.8332 157.62 85.7183 157.811 85.7183C158.013 85.7183 158.089 85.814 158.089 85.9865V86.0822H157.907V85.9769C157.907 85.9098 157.878 85.8811 157.811 85.8811C157.754 85.8811 157.716 85.9098 157.716 85.9769V86.0056C157.716 86.0727 157.754 86.111 157.811 86.1684L157.936 86.293C158.041 86.3983 158.099 86.4654 158.099 86.5995V86.6569C158.099 86.8198 158.013 86.9347 157.811 86.9347C157.61 86.9347 157.534 86.8006 157.534 86.6474ZM158.156 85.7374H158.683V85.9002H158.52V86.906H158.319V85.9002H158.156V85.7374ZM158.98 86.3696V86.906H158.779V85.7374H159.066C159.267 85.7374 159.334 85.8332 159.334 85.996V86.1493C159.334 86.2738 159.286 86.3504 159.181 86.3792L159.373 86.906H159.162L158.98 86.3696ZM158.98 85.8907V86.2546H159.047C159.114 86.2546 159.143 86.2163 159.143 86.1589V85.9865C159.143 85.9194 159.114 85.8907 159.047 85.8907H158.98ZM160.024 85.7374V86.6186C160.024 86.8006 159.947 86.9155 159.746 86.9155C159.536 86.9155 159.449 86.8006 159.449 86.6186V85.7374H159.65V86.6378C159.65 86.7048 159.679 86.7527 159.746 86.7527C159.813 86.7527 159.842 86.7048 159.842 86.6378V85.7374H160.024ZM160.149 86.5995V86.0343C160.149 85.8524 160.235 85.7183 160.445 85.7183C160.666 85.7183 160.723 85.8428 160.723 86.0152V86.1493H160.541V85.996C160.541 85.9194 160.512 85.8811 160.445 85.8811C160.378 85.8811 160.35 85.929 160.35 86.0056V86.6378C160.35 86.7048 160.378 86.7623 160.445 86.7623C160.512 86.7623 160.541 86.7144 160.541 86.6474V86.4271H160.723V86.6282C160.723 86.791 160.656 86.9155 160.445 86.9155C160.235 86.9155 160.149 86.7814 160.149 86.5995ZM160.762 85.7374H161.288V85.9002H161.125V86.906H160.924V85.9002H160.762V85.7374ZM161.959 85.7374V86.6186C161.959 86.8006 161.882 86.9155 161.681 86.9155C161.47 86.9155 161.384 86.8006 161.384 86.6186V85.7374H161.585V86.6378C161.585 86.7048 161.614 86.7527 161.681 86.7527C161.748 86.7527 161.777 86.7048 161.777 86.6378V85.7374H161.959ZM162.275 86.3696V86.906H162.074V85.7374H162.361C162.562 85.7374 162.629 85.8332 162.629 85.996V86.1493C162.629 86.2738 162.581 86.3504 162.476 86.3792L162.668 86.906H162.457L162.275 86.3696ZM162.275 85.8907V86.2546H162.342C162.409 86.2546 162.438 86.2163 162.438 86.1589V85.9865C162.438 85.9194 162.409 85.8907 162.342 85.8907H162.275ZM162.754 85.7374H163.223V85.9002H162.955V86.2355H163.147V86.3983H162.955V86.7527H163.223V86.9155H162.754V85.7374Z" fill="white"/>
<path d="M161.457 71.7818C164.398 71.7818 166.782 69.3978 166.782 66.4568C166.782 63.5159 164.398 61.1318 161.457 61.1318C158.516 61.1318 156.132 63.5159 156.132 66.4568C156.132 69.3978 158.516 71.7818 161.457 71.7818Z" fill="#DD1367"/>
<path d="M185.849 60.7364C202.194 60.7364 215.444 47.4863 215.444 31.1414C215.444 14.7965 202.194 1.54639 185.849 1.54639C169.504 1.54639 156.254 14.7965 156.254 31.1414C156.254 47.4863 169.504 60.7364 185.849 60.7364Z" fill="#FD9D24"/>
<path d="M168.299 15.5716V17.0385L169.302 16.0091V22.3913H170.718V14.0532H169.586L168.299 15.5716ZM171.49 15.5716V17.0385H171.516L172.494 16.0091V22.3913H173.909V14.0532H172.777L171.49 15.5716Z" fill="white"/>
<path d="M172.158 42.1044H178.386C178.463 42.1044 178.54 42.0272 178.54 41.95C178.54 41.8985 178.515 41.8728 178.489 41.847L175.401 37.8324L175.375 37.8067C175.349 37.781 175.298 37.7552 175.272 37.7552C175.246 37.7552 175.195 37.781 175.169 37.8067L175.143 37.8324L175.118 37.8582L172.081 41.8213L172.029 41.8728C172.004 41.8985 172.004 41.9243 172.004 41.95C172.004 42.0272 172.081 42.1044 172.158 42.1044ZM178.36 42.6706H172.107C172.029 42.6706 171.952 42.7478 171.952 42.825V47.7146C171.952 47.7918 172.029 47.869 172.107 47.869H174.114V44.8065C174.114 44.7293 174.191 44.6521 174.268 44.6521H176.121C176.198 44.6521 176.276 44.7293 176.276 44.8065V47.869H178.334C178.412 47.869 178.489 47.7918 178.489 47.7146V42.825C178.515 42.7478 178.463 42.6706 178.36 42.6706ZM199.926 41.3838H193.75C193.672 41.3838 193.595 41.461 193.595 41.5382V47.766C193.595 47.8433 193.672 47.9205 193.75 47.9205H199.926C200.003 47.9205 200.08 47.8433 200.08 47.766V41.5382C200.08 41.461 200.029 41.3838 199.926 41.3838ZM196.555 45.4757C196.555 45.5529 196.477 45.6301 196.4 45.6301H194.547C194.47 45.6301 194.393 45.5529 194.393 45.4757V44.3433C194.393 44.2661 194.47 44.1889 194.547 44.1889H196.4C196.477 44.1889 196.555 44.2661 196.555 44.3433V45.4757ZM196.555 43.3911C196.555 43.4683 196.477 43.5455 196.4 43.5455H194.547C194.47 43.5455 194.393 43.4683 194.393 43.3911V42.2588C194.393 42.1816 194.47 42.1044 194.547 42.1044H196.4C196.477 42.1044 196.555 42.1816 196.555 42.2588V43.3911ZM199.385 45.4757C199.385 45.5529 199.308 45.6301 199.231 45.6301H197.378C197.301 45.6301 197.224 45.5529 197.224 45.4757V44.3433C197.224 44.2661 197.301 44.1889 197.378 44.1889H199.231C199.308 44.1889 199.385 44.2661 199.385 44.3433V45.4757ZM199.385 43.3911C199.385 43.4683 199.308 43.5455 199.231 43.5455H197.378C197.301 43.5455 197.224 43.4683 197.224 43.3911V42.2588C197.224 42.1816 197.301 42.1044 197.378 42.1044H199.231C199.308 42.1044 199.385 42.1816 199.385 42.2588V43.3911ZM185.566 26.9209H179.544C179.467 26.9209 179.39 26.9981 179.39 27.0753V47.7403C179.39 47.8175 179.467 47.8947 179.544 47.8947H185.592C185.669 47.8947 185.746 47.8175 185.746 47.7403V27.0753C185.72 26.9724 185.669 26.9209 185.566 26.9209ZM181.989 45.5271C181.989 45.5786 181.963 45.6043 181.912 45.6043H180.522C180.47 45.6043 180.445 45.5786 180.445 45.5271V43.983C180.445 43.9316 180.47 43.9058 180.522 43.9058H181.912C181.963 43.9058 181.989 43.9316 181.989 43.983V45.5271ZM181.989 41.9757C181.989 42.0272 181.963 42.0529 181.912 42.0529H180.522C180.47 42.0529 180.445 42.0272 180.445 41.9757V40.4316C180.445 40.3802 180.47 40.3544 180.522 40.3544H181.912C181.963 40.3544 181.989 40.3802 181.989 40.4316V41.9757ZM181.989 38.4243C181.989 38.4758 181.963 38.5015 181.912 38.5015H180.522C180.47 38.5015 180.445 38.4758 180.445 38.4243V36.8802C180.445 36.8288 180.47 36.803 180.522 36.803H181.912C181.963 36.803 181.989 36.8288 181.989 36.8802V38.4243ZM181.989 34.8987C181.989 34.9502 181.963 34.9759 181.912 34.9759H180.522C180.47 34.9759 180.445 34.9502 180.445 34.8987V33.3546C180.445 33.3031 180.47 33.2774 180.522 33.2774H181.912C181.963 33.2774 181.989 33.3031 181.989 33.3546V34.8987ZM181.989 31.3473C181.989 31.3988 181.963 31.4245 181.912 31.4245H180.522C180.47 31.4245 180.445 31.3988 180.445 31.3473V29.8032C180.445 29.7517 180.47 29.726 180.522 29.726H181.912C181.963 29.726 181.989 29.7517 181.989 29.8032V31.3473ZM184.691 45.5271C184.691 45.5786 184.665 45.6043 184.614 45.6043H183.224C183.173 45.6043 183.147 45.5786 183.147 45.5271V43.983C183.147 43.9316 183.173 43.9058 183.224 43.9058H184.614C184.665 43.9058 184.691 43.9316 184.691 43.983V45.5271ZM184.691 41.9757C184.691 42.0272 184.665 42.0529 184.614 42.0529H183.224C183.173 42.0529 183.147 42.0272 183.147 41.9757V40.4316C183.147 40.3802 183.173 40.3544 183.224 40.3544H184.614C184.665 40.3544 184.691 40.3802 184.691 40.4316V41.9757ZM184.691 38.4243C184.691 38.4758 184.665 38.5015 184.614 38.5015H183.224C183.173 38.5015 183.147 38.4758 183.147 38.4243V36.8802C183.147 36.8288 183.173 36.803 183.224 36.803H184.614C184.665 36.803 184.691 36.8288 184.691 36.8802V38.4243ZM184.691 34.8987C184.691 34.9502 184.665 34.9759 184.614 34.9759H183.224C183.173 34.9759 183.147 34.9502 183.147 34.8987V33.3546C183.147 33.3031 183.173 33.2774 183.224 33.2774H184.614C184.665 33.2774 184.691 33.3031 184.691 33.3546V34.8987ZM184.691 31.3473C184.691 31.3988 184.665 31.4245 184.614 31.4245H183.224C183.173 31.4245 183.147 31.3988 183.147 31.3473V29.8032C183.147 29.7517 183.173 29.726 183.224 29.726H184.614C184.665 29.726 184.691 29.7517 184.691 29.8032V31.3473ZM200.08 40.7662C200.08 40.8434 200.029 40.8949 199.952 40.8949H193.724C193.647 40.8949 193.595 40.8434 193.595 40.7662V39.5309C193.595 39.4537 193.647 39.4022 193.724 39.4022H199.952C200.029 39.4022 200.08 39.4537 200.08 39.5309V40.7662ZM192.875 30.8069C192.849 30.7296 192.797 30.7039 192.72 30.7039C192.694 30.7039 192.669 30.7039 192.643 30.7296L192.591 30.7811L186.647 38.3214L186.621 38.3471C186.595 38.3729 186.57 38.4243 186.57 38.4758V47.7403C186.57 47.8175 186.647 47.8947 186.724 47.8947H192.772C192.849 47.8947 192.926 47.8175 192.926 47.7403V30.8583C192.9 30.8583 192.9 30.8326 192.875 30.8069ZM190.378 34.8987L190.43 34.8472C190.841 34.3325 191.511 33.4833 191.845 33.0715L191.897 33.02C191.922 32.9943 191.974 32.9686 192.025 32.9686C192.102 32.9686 192.18 33.02 192.18 33.0972V35.0016C192.18 35.1046 192.102 35.156 192.025 35.1818H190.533C190.43 35.1818 190.378 35.1046 190.378 35.0016C190.353 34.9759 190.353 34.9244 190.378 34.8987ZM189.426 45.4499C189.426 45.5271 189.349 45.6043 189.272 45.6043H187.47C187.393 45.6043 187.316 45.5271 187.316 45.4499V44.3176C187.316 44.2404 187.393 44.1632 187.47 44.1632H189.272C189.349 44.1632 189.426 44.2404 189.426 44.3176V45.4499ZM189.426 43.3911C189.426 43.4683 189.349 43.5455 189.272 43.5455H187.47C187.393 43.5455 187.316 43.4683 187.316 43.3911V42.2588C187.316 42.1816 187.393 42.1044 187.47 42.1044H189.272C189.349 42.1044 189.426 42.1816 189.426 42.2588V43.3911ZM189.426 41.3066C189.426 41.3838 189.349 41.461 189.272 41.461H187.47C187.393 41.461 187.316 41.3838 187.316 41.3066V40.1743C187.316 40.0971 187.393 40.0199 187.47 40.0199H189.272C189.349 40.0199 189.426 40.0971 189.426 40.1743V41.3066ZM189.452 36.7258V39.1964C189.452 39.2736 189.375 39.3508 189.297 39.3508H187.496C187.419 39.3508 187.342 39.2736 187.342 39.1964V38.8875V38.8361V38.8103C187.342 38.8103 187.342 38.7846 187.367 38.7846C187.367 38.7846 187.367 38.7589 187.393 38.7589C187.625 38.4243 188.654 37.1376 189.092 36.6229L189.143 36.5714C189.169 36.5457 189.22 36.5199 189.272 36.5199C189.349 36.5199 189.426 36.5714 189.426 36.6486V36.7258H189.452ZM192.205 45.4499C192.205 45.5271 192.128 45.6043 192.051 45.6043H190.25C190.172 45.6043 190.095 45.5271 190.095 45.4499V44.3176C190.095 44.2404 190.172 44.1632 190.25 44.1632H192.051C192.128 44.1632 192.205 44.2404 192.205 44.3176V45.4499ZM192.205 43.3911C192.205 43.4683 192.128 43.5455 192.051 43.5455H190.25C190.172 43.5455 190.095 43.4683 190.095 43.3911V42.2588C190.095 42.1816 190.172 42.1044 190.25 42.1044H192.051C192.128 42.1044 192.205 42.1816 192.205 42.2588V43.3911ZM192.205 41.3066C192.205 41.3838 192.128 41.461 192.051 41.461H190.25C190.172 41.461 190.095 41.3838 190.095 41.3066V40.1743C190.095 40.0971 190.172 40.0199 190.25 40.0199H192.051C192.128 40.0199 192.205 40.0971 192.205 40.1743V41.3066ZM192.205 39.2221C192.205 39.2993 192.128 39.3765 192.051 39.3765H190.25C190.172 39.3765 190.095 39.2993 190.095 39.2221V38.0898C190.095 38.0126 190.172 37.9354 190.25 37.9354H192.051C192.128 37.9354 192.205 38.0126 192.205 38.0898V39.2221ZM192.205 37.1376C192.205 37.2148 192.128 37.292 192.051 37.292H190.25C190.172 37.292 190.095 37.2148 190.095 37.1376V36.0053C190.095 35.9281 190.172 35.8509 190.25 35.8509H192.051C192.128 35.8509 192.205 35.9281 192.205 36.0053V37.1376Z" fill="white"/>
<path d="M176.636 16.7041V16.2409H177.176V16.7041C177.176 16.8842 177.253 17.0129 177.459 17.0129C177.639 17.0129 177.717 16.8842 177.717 16.7041V16.5754C177.717 16.3696 177.639 16.2666 177.459 16.0865L177.125 15.7519C176.79 15.4431 176.661 15.2372 176.661 14.8512V14.7483C176.661 14.3365 176.919 14.002 177.459 14.002C178.025 14.002 178.257 14.285 178.257 14.774V15.0571H177.742V14.774C177.742 14.5681 177.665 14.4909 177.485 14.4909C177.331 14.4909 177.228 14.5681 177.228 14.774V14.8512C177.228 15.0313 177.331 15.16 177.485 15.3144L177.845 15.6747C178.154 15.9835 178.309 16.1894 178.309 16.5497V16.7041C178.309 17.1673 178.051 17.5019 177.485 17.5019C176.919 17.5019 176.636 17.1416 176.636 16.7041ZM180.161 14.0534V16.6012C180.161 17.1159 179.93 17.4761 179.364 17.4761C178.772 17.4761 178.514 17.1416 178.514 16.6012V14.0534H179.081V16.6784C179.081 16.8842 179.158 17.0129 179.364 17.0129C179.57 17.0129 179.647 16.8842 179.647 16.6784V14.0534H180.161ZM180.47 16.7041V16.2409H181.011V16.7041C181.011 16.8842 181.088 17.0129 181.294 17.0129C181.474 17.0129 181.551 16.8842 181.551 16.7041V16.5754C181.551 16.3696 181.474 16.2666 181.294 16.0865L180.959 15.7519C180.625 15.4431 180.496 15.2372 180.496 14.8512V14.7483C180.496 14.3365 180.728 14.002 181.294 14.002C181.86 14.002 182.092 14.285 182.092 14.774V15.0571H181.577V14.774C181.577 14.5681 181.5 14.4909 181.319 14.4909C181.165 14.4909 181.062 14.5681 181.062 14.774V14.8512C181.062 15.0313 181.165 15.16 181.319 15.3144L181.68 15.6747C181.989 15.9835 182.143 16.1894 182.143 16.5497V16.7041C182.143 17.1673 181.886 17.5019 181.319 17.5019C180.676 17.4761 180.47 17.1416 180.47 16.7041ZM182.22 14.0534H183.739V14.5166H183.275V17.4247H182.709V14.5166H182.246V14.0534H182.22ZM183.636 17.4247L184.279 14.0534H184.922L185.566 17.4247H184.974L184.871 16.807H184.279L184.176 17.4247H183.636ZM184.356 16.3438H184.819L184.588 14.9799L184.356 16.3438ZM185.797 14.0534H186.363V17.4247H185.797V14.0534ZM187.161 15.2887V17.4247H186.672V14.0534H187.238L187.856 15.9835V14.0534H188.319V17.4247H187.83L187.161 15.2887ZM188.525 17.4247L189.169 14.0534H189.812L190.455 17.4247H189.863L189.76 16.807H189.169L189.066 17.4247H188.525ZM189.246 16.3438H189.709L189.477 14.9799L189.246 16.3438ZM190.635 14.0534H191.459C192.025 14.0534 192.205 14.3108 192.205 14.7997V15.1343C192.205 15.4174 192.102 15.5975 191.871 15.6747C192.154 15.7519 192.282 15.9321 192.282 16.2409V16.6784C192.282 17.1673 192.077 17.4247 191.51 17.4247H190.635V14.0534ZM191.202 15.4688H191.407C191.588 15.4688 191.665 15.3659 191.665 15.1858V14.774C191.665 14.5939 191.588 14.4909 191.382 14.4909H191.176L191.202 15.4688ZM191.202 15.9063V16.9615H191.459C191.639 16.9615 191.742 16.8585 191.742 16.6784V16.1637C191.742 15.9835 191.665 15.8806 191.459 15.8806H191.202V15.9063ZM192.54 14.0534H193.106V16.9615H193.775V17.4247H192.54V14.0534ZM194.007 14.0534H195.371V14.5166H194.573V15.4946H195.139V15.9578H194.573V16.9872H195.371V17.4504H194.007V14.0534ZM196.323 16.5497V14.9027C196.323 14.3622 196.58 14.002 197.172 14.002C197.79 14.002 197.97 14.3622 197.97 14.8512V15.263H197.455V14.7997C197.455 14.5939 197.378 14.4652 197.172 14.4652C196.966 14.4652 196.889 14.6196 196.889 14.8255V16.6526C196.889 16.8585 196.966 17.0129 197.172 17.0129C197.378 17.0129 197.455 16.8842 197.455 16.6784V16.0607H197.97V16.6526C197.97 17.1416 197.764 17.5019 197.172 17.5019C196.554 17.4761 196.323 17.0644 196.323 16.5497ZM198.227 14.0534H198.793V17.4247H198.227V14.0534ZM198.999 14.0534H200.518V14.5166H200.054V17.4247H199.488V14.5166H199.025V14.0534H198.999ZM200.749 14.0534H201.315V17.4247H200.749V14.0534ZM201.624 14.0534H202.988V14.5166H202.19V15.4946H202.756V15.9578H202.19V16.9872H202.988V17.4504H201.624V14.0534ZM203.117 16.7041V16.2409H203.657V16.7041C203.657 16.8842 203.734 17.0129 203.94 17.0129C204.12 17.0129 204.198 16.8842 204.198 16.7041V16.5754C204.198 16.3696 204.12 16.2666 203.94 16.0865L203.606 15.7519C203.271 15.4431 203.143 15.2372 203.143 14.8512V14.7483C203.143 14.3365 203.4 14.002 203.94 14.002C204.506 14.002 204.738 14.285 204.738 14.774V15.0571H204.223V14.774C204.223 14.5681 204.146 14.4909 203.966 14.4909C203.812 14.4909 203.709 14.5681 203.709 14.774V14.8512C203.709 15.0313 203.812 15.16 203.966 15.3144L204.326 15.6747C204.635 15.9835 204.79 16.1894 204.79 16.5497V16.7041C204.79 17.1673 204.532 17.5019 203.966 17.5019C203.4 17.5019 203.117 17.1416 203.117 16.7041Z" fill="white"/>
<path d="M176.636 22.3915L177.279 19.0202H177.922L178.566 22.3915H178L177.897 21.7738H177.305L177.202 22.3915H176.636ZM177.356 21.3364H177.82L177.588 19.9724L177.356 21.3364ZM179.286 20.2812V22.4172H178.797V19.046H179.364L179.981 20.9761V19.046H180.444V22.4172H179.956L179.286 20.2812ZM182.478 19.9209V21.4908C182.478 22.0055 182.272 22.3915 181.654 22.3915H180.779V19.0202H181.654C182.246 19.0202 182.478 19.4062 182.478 19.9209ZM181.577 21.9282C181.808 21.9282 181.911 21.7996 181.911 21.5937V19.818C181.911 19.6121 181.834 19.4834 181.577 19.4834H181.345V21.9282H181.577ZM183.301 21.5165V19.8695C183.301 19.329 183.558 18.9688 184.15 18.9688C184.768 18.9688 184.948 19.329 184.948 19.818V20.2298H184.433V19.7923C184.433 19.5864 184.356 19.4577 184.15 19.4577C183.944 19.4577 183.867 19.6121 183.867 19.818V21.6452C183.867 21.851 183.944 22.0055 184.15 22.0055C184.356 22.0055 184.433 21.8768 184.433 21.6709V21.0533H184.948V21.6452C184.948 22.1341 184.742 22.4944 184.15 22.4944C183.533 22.4429 183.301 22.0569 183.301 21.5165ZM185.257 21.5165V19.8695C185.257 19.329 185.514 18.9688 186.106 18.9688C186.698 18.9688 186.981 19.3548 186.981 19.8695V21.5165C186.981 22.0312 186.724 22.4172 186.106 22.4172C185.514 22.4429 185.257 22.0569 185.257 21.5165ZM186.389 21.6194V19.7923C186.389 19.5864 186.312 19.432 186.106 19.432C185.9 19.432 185.823 19.5864 185.823 19.7923V21.6194C185.823 21.8253 185.9 21.9797 186.106 21.9797C186.312 21.954 186.389 21.8253 186.389 21.6194ZM188.86 20.204L188.448 22.3915H188.191L187.779 20.204V22.3915H187.316V19.0202H187.985L188.345 20.9246L188.68 19.0202H189.4V22.3915H188.885L188.86 20.204ZM191.253 20.204L190.841 22.3915H190.584L190.172 20.204V22.3915H189.709V19.0202H190.378L190.738 20.9246L191.073 19.0202H191.793V22.3915H191.279V20.204H191.253ZM193.749 19.0202V21.568C193.749 22.0827 193.518 22.4429 192.952 22.4429C192.36 22.4429 192.102 22.1084 192.102 21.568V19.0202H192.668V21.6452C192.668 21.851 192.746 21.9797 192.952 21.9797C193.157 21.9797 193.235 21.851 193.235 21.6452V19.0202H193.749ZM194.521 20.2812V22.4172H194.032V19.046H194.599L195.216 20.9761V19.046H195.679V22.4172H195.19L194.521 20.2812ZM196.014 19.0202H196.58V22.3915H196.014V19.0202ZM196.837 19.0202H198.356V19.4834H197.893V22.3915H197.301V19.4834H196.837V19.0202ZM198.613 19.0202H199.179V22.3915H198.613V19.0202ZM199.488 19.0202H200.852V19.4834H200.054V20.4614H200.621V20.9246H200.054V21.954H200.852V22.4172H199.488V19.0202ZM201.084 21.6709V21.2077H201.624V21.6709C201.624 21.851 201.701 21.9797 201.907 21.9797C202.087 21.9797 202.165 21.851 202.165 21.6709V21.5422C202.165 21.3363 202.087 21.2334 201.907 21.0533L201.573 20.7187C201.238 20.4099 201.109 20.204 201.109 19.818V19.7151C201.109 19.3033 201.341 18.9688 201.907 18.9688C202.473 18.9688 202.705 19.2518 202.705 19.7408V20.0239H202.19V19.7408C202.19 19.5349 202.113 19.4577 201.933 19.4577C201.779 19.4577 201.676 19.5349 201.676 19.7408V19.818C201.676 19.9981 201.779 20.1268 201.933 20.2812L202.293 20.6415C202.602 20.9503 202.756 21.1562 202.756 21.5165V21.6709C202.756 22.1341 202.499 22.4687 201.933 22.4687C201.315 22.4429 201.084 22.1084 201.084 21.6709Z" fill="white"/>
<path d="M184.418 90.6053C190.462 90.6053 195.363 85.7051 195.363 79.6603C195.363 73.6156 190.462 68.7153 184.418 68.7153C178.373 68.7153 173.473 73.6156 173.473 79.6603C173.473 85.7051 178.373 90.6053 184.418 90.6053Z" fill="#BF8B2E"/>
<path d="M178.336 74.0641H178.346V76.434H178.859V73.3408H178.45L177.965 73.9023V74.4448H177.974L178.336 74.0641ZM179.174 73.9785V74.3496H179.649V73.9594C179.649 73.7691 179.745 73.7215 179.849 73.7215C179.954 73.7215 180.04 73.7596 180.04 73.9499V74.2069C180.04 74.4639 180.021 74.559 179.849 74.7399L179.554 75.0539C179.269 75.3585 179.164 75.5584 179.164 75.8629V76.434H180.516V76.0057H179.659V75.8629C179.659 75.625 179.745 75.5298 179.878 75.387L180.211 75.0349C180.477 74.7494 180.535 74.5685 180.535 74.2545V73.9499C180.535 73.5121 180.325 73.3027 179.859 73.3027C179.402 73.3027 179.174 73.5502 179.174 73.9785ZM188.729 80.2599C188.101 79.765 187.358 79.7175 187.063 79.7175C186.911 79.7175 186.768 79.727 186.664 79.7555L186.626 79.765C186.226 79.8602 185.569 80.0125 184.798 80.9738L184.779 81.0023C184.77 81.0213 184.76 81.0404 184.76 81.0594C184.76 81.0784 184.76 81.0975 184.77 81.107L184.789 81.1355C184.913 81.3449 185.017 81.5353 185.103 81.6875C185.131 81.7446 185.217 81.7637 185.265 81.7066C185.274 81.6971 185.274 81.6875 185.284 81.6875C185.95 80.7644 186.473 80.6406 186.816 80.5645L186.854 80.555C186.902 80.5455 186.978 80.536 187.063 80.536C187.225 80.536 187.777 80.5645 188.215 80.9071C188.605 81.2117 188.796 81.6971 188.796 82.3538C188.796 83.4578 188.263 83.8861 187.815 84.0478C187.644 84.1145 187.463 84.143 187.273 84.143C186.816 84.143 186.454 83.9622 186.454 83.9527L186.426 83.9336C186.045 83.7623 185.465 83.4197 184.922 82.3252C183.809 80.0886 182.876 79.8793 182.257 79.7365L182.229 79.727C182.181 79.7175 182.048 79.6889 181.829 79.6889C181.467 79.6889 180.782 79.7555 180.192 80.2314C179.792 80.555 179.307 81.1831 179.307 82.3252C179.307 83.0295 179.45 83.4863 179.821 83.9717C179.887 84.0669 180.535 84.8949 181.772 84.8949C181.953 84.8949 182.143 84.8759 182.333 84.8378C182.562 84.7902 182.904 84.6855 183.295 84.4L183.618 84.695C183.656 84.7236 183.713 84.7236 183.751 84.6855C183.77 84.6665 183.78 84.6474 183.77 84.6284L184.018 83.0771V83.058C184.018 83.0295 184.008 83.0105 183.989 82.9914C183.97 82.9724 183.951 82.9629 183.923 82.9629L182.409 83.3816H182.381C182.362 83.3816 182.343 83.3911 182.333 83.4102C182.314 83.4292 182.305 83.4578 182.305 83.4768C182.305 83.5054 182.314 83.5244 182.333 83.5434L182.647 83.8289C182.486 83.9336 182.314 84.0003 182.162 84.0288C182.029 84.0574 181.896 84.0669 181.762 84.0669C180.906 84.0669 180.487 83.5054 180.468 83.4768L180.458 83.4673C180.201 83.1247 180.106 82.8296 180.106 82.3157C180.106 81.659 180.297 81.1641 180.677 80.8595C181.106 80.5169 181.648 80.4979 181.8 80.4979C181.886 80.4979 181.962 80.5074 182.01 80.5169L182.048 80.5264C182.543 80.6406 183.218 80.7929 184.161 82.6773C184.656 83.6767 185.274 84.3239 186.055 84.6665C186.15 84.7141 186.626 84.9425 187.254 84.9425C187.539 84.9425 187.825 84.8949 188.091 84.7902C188.548 84.6189 189.605 84.0383 189.605 82.3157C189.633 81.2117 189.138 80.5835 188.729 80.2599Z" fill="white"/>
<path d="M181.905 74.0165V74.5876H181.695V73.3408H182C182.209 73.3408 182.285 73.4455 182.285 73.6168V73.7786C182.285 73.9119 182.238 73.988 182.114 74.0165L182.314 74.5876H182.095L181.905 74.0165ZM181.905 73.5121V73.9023H181.971C182.047 73.9023 182.076 73.8643 182.076 73.7976V73.6168C182.076 73.5502 182.047 73.5121 181.971 73.5121H181.905ZM182.428 73.3408H182.933V73.5121H182.638V73.8738H182.847V74.0451H182.638V74.4258H182.933V74.5971H182.428V73.3408ZM183.047 74.3211V74.1498H183.247V74.3211C183.247 74.3877 183.275 74.4353 183.351 74.4353C183.418 74.4353 183.447 74.3877 183.447 74.3211V74.2735C183.447 74.1974 183.418 74.1593 183.351 74.0927L183.228 73.969C183.104 73.8548 183.056 73.7786 183.056 73.6359V73.5978C183.056 73.4455 183.151 73.3218 183.351 73.3218C183.561 73.3218 183.646 73.4265 183.646 73.6073V73.712H183.456V73.6073C183.456 73.5312 183.427 73.5026 183.361 73.5026C183.304 73.5026 183.266 73.5312 183.266 73.6073V73.6359C183.266 73.7025 183.304 73.7501 183.361 73.8072L183.494 73.9404C183.608 74.0546 183.665 74.1308 183.665 74.264V74.3211C183.665 74.4924 183.57 74.6161 183.361 74.6161C183.132 74.6066 183.047 74.4829 183.047 74.3211ZM183.78 73.3408H184.094C184.303 73.3408 184.379 73.4455 184.379 73.6168V73.8833C184.379 74.0546 184.303 74.1688 184.094 74.1688H183.989V74.5971H183.78V73.3408ZM183.989 73.5121V74.007H184.065C184.141 74.007 184.17 73.969 184.17 73.9023V73.6168C184.17 73.5502 184.141 73.5121 184.065 73.5121H183.989ZM184.512 74.264V73.6549C184.512 73.455 184.608 73.3218 184.827 73.3218C185.045 73.3218 185.15 73.4645 185.15 73.6549V74.264C185.15 74.4543 185.055 74.5971 184.827 74.5971C184.608 74.6066 184.512 74.4543 184.512 74.264ZM184.941 74.3021V73.6263C184.941 73.5502 184.912 73.4931 184.836 73.4931C184.76 73.4931 184.731 73.5502 184.731 73.6263V74.3021C184.731 74.3782 184.76 74.4353 184.836 74.4353C184.903 74.4258 184.941 74.3782 184.941 74.3021ZM185.464 73.7976V74.5876H185.283V73.3408H185.493L185.721 74.0546V73.3408H185.892V74.5876H185.712L185.464 73.7976ZM186.035 74.3211V74.1498H186.235V74.3211C186.235 74.3877 186.264 74.4353 186.34 74.4353C186.406 74.4353 186.435 74.3877 186.435 74.3211V74.2735C186.435 74.1974 186.406 74.1593 186.34 74.0927L186.216 73.969C186.092 73.8548 186.045 73.7786 186.045 73.6359V73.5978C186.045 73.4455 186.14 73.3218 186.34 73.3218C186.549 73.3218 186.635 73.4265 186.635 73.6073V73.712H186.444V73.6073C186.444 73.5312 186.416 73.5026 186.349 73.5026C186.292 73.5026 186.254 73.5312 186.254 73.6073V73.6359C186.254 73.7025 186.292 73.7501 186.349 73.8072L186.483 73.9404C186.597 74.0546 186.654 74.1308 186.654 74.264V74.3211C186.654 74.4924 186.559 74.6161 186.349 74.6161C186.111 74.6066 186.035 74.4829 186.035 74.3211ZM186.759 73.3408H186.968V74.5876H186.759V73.3408ZM187.111 73.3408H187.415C187.625 73.3408 187.691 73.436 187.691 73.6168V73.7405C187.691 73.8452 187.653 73.9119 187.568 73.9404C187.672 73.969 187.72 74.0356 187.72 74.1498V74.3116C187.72 74.4924 187.644 74.5876 187.434 74.5876H187.111V73.3408ZM187.33 73.8643H187.406C187.472 73.8643 187.501 73.8262 187.501 73.7596V73.6073C187.501 73.5407 187.472 73.5026 187.396 73.5026H187.32L187.33 73.8643ZM187.33 74.0261V74.4163H187.425C187.491 74.4163 187.529 74.3782 187.529 74.3116V74.1212C187.529 74.0546 187.501 74.0165 187.425 74.0165H187.33V74.0261ZM187.853 73.3408H188.062V74.4163H188.31V74.5876H187.853V73.3408ZM188.434 73.3408H188.938V73.5121H188.643V73.8738H188.852V74.0451H188.643V74.4258H188.938V74.5971H188.434V73.3408Z" fill="white"/>
<path d="M181.695 76.1009V75.4918C181.695 75.2919 181.79 75.1587 182.009 75.1587C182.238 75.1587 182.304 75.2919 182.304 75.4728V75.625H182.114V75.4632C182.114 75.3871 182.086 75.3395 182.009 75.3395C181.933 75.3395 181.905 75.3966 181.905 75.4728V76.1485C181.905 76.2246 181.933 76.2817 182.009 76.2817C182.086 76.2817 182.114 76.2342 182.114 76.158V75.9296H182.304V76.1485C182.304 76.3293 182.228 76.4626 182.009 76.4626C181.79 76.4435 181.695 76.3008 181.695 76.1009ZM182.438 76.1009V75.4918C182.438 75.2919 182.533 75.1587 182.752 75.1587C182.971 75.1587 183.075 75.3015 183.075 75.4918V76.1009C183.075 76.2913 182.98 76.434 182.752 76.434C182.533 76.4435 182.438 76.3008 182.438 76.1009ZM182.866 76.139V75.4632C182.866 75.3871 182.837 75.33 182.761 75.33C182.685 75.33 182.657 75.3871 182.657 75.4632V76.139C182.657 76.2151 182.685 76.2722 182.761 76.2722C182.837 76.2627 182.866 76.2151 182.866 76.139ZM183.389 75.6441V76.434H183.209V75.1872H183.418L183.646 75.901V75.1872H183.818V76.434H183.637L183.389 75.6441ZM183.951 76.158V75.9867H184.151V76.158C184.151 76.2246 184.179 76.2722 184.256 76.2722C184.322 76.2722 184.351 76.2246 184.351 76.158V76.1104C184.351 76.0343 184.322 75.9962 184.256 75.9296L184.132 75.8059C184.008 75.6917 183.96 75.6155 183.96 75.4728V75.4347C183.96 75.2824 184.056 75.1587 184.256 75.1587C184.465 75.1587 184.551 75.2634 184.551 75.4442V75.5489H184.36V75.4442C184.36 75.3681 184.332 75.3395 184.265 75.3395C184.208 75.3395 184.17 75.3681 184.17 75.4442V75.4728C184.17 75.5394 184.208 75.587 184.265 75.6441L184.398 75.7773C184.512 75.8915 184.57 75.9677 184.57 76.1009V76.158C184.57 76.3293 184.474 76.4531 184.265 76.4531C184.037 76.4435 183.951 76.3198 183.951 76.158ZM185.293 75.1777V76.1199C185.293 76.3103 185.207 76.4435 184.998 76.4435C184.779 76.4435 184.684 76.3198 184.684 76.1199V75.1777H184.893V76.1485C184.893 76.2246 184.922 76.2722 184.998 76.2722C185.074 76.2722 185.103 76.2246 185.103 76.1485V75.1777H185.293ZM186.016 75.6155L185.864 76.4245H185.769L185.616 75.6155V76.4245H185.445V75.1777H185.693L185.826 75.882L185.95 75.1777H186.216V76.4245H186.026V75.6155H186.016ZM186.349 75.1777H186.663C186.873 75.1777 186.949 75.2824 186.949 75.4537V75.7202C186.949 75.8915 186.873 76.0057 186.663 76.0057H186.559V76.434H186.349V75.1777ZM186.559 75.349V75.8439H186.635C186.711 75.8439 186.739 75.8059 186.739 75.7393V75.4537C186.739 75.3871 186.711 75.349 186.635 75.349H186.559ZM187.015 75.1777H187.577V75.349H187.406V76.4245H187.196V75.349H187.025L187.015 75.1777ZM187.672 75.1777H187.882V76.4245H187.672V75.1777ZM188.005 76.1009V75.4918C188.005 75.2919 188.1 75.1587 188.319 75.1587C188.538 75.1587 188.643 75.3015 188.643 75.4918V76.1009C188.643 76.2913 188.548 76.434 188.319 76.434C188.1 76.4435 188.005 76.3008 188.005 76.1009ZM188.434 76.139V75.4632C188.434 75.3871 188.405 75.33 188.329 75.33C188.253 75.33 188.224 75.3871 188.224 75.4632V76.139C188.224 76.2151 188.253 76.2722 188.329 76.2722C188.396 76.2627 188.434 76.2151 188.434 76.139ZM188.948 75.6441V76.434H188.767V75.1872H188.976L189.204 75.901V75.1872H189.376V76.434H189.195L188.948 75.6441Z" fill="white"/>
<path d="M181.667 78.2614L181.905 77.0146H182.143L182.381 78.2614H182.162L182.124 78.033H181.905L181.867 78.2614H181.667ZM181.924 77.8712H182.095L182.01 77.3668L181.924 77.8712ZM182.647 77.481V78.2709H182.466V77.0242H182.676L182.904 77.738V77.0242H183.076V78.2709H182.895L182.647 77.481ZM183.837 77.3477V77.9283C183.837 78.1187 183.761 78.2614 183.532 78.2614H183.209V77.0146H183.532C183.751 77.0146 183.837 77.1574 183.837 77.3477ZM183.504 78.0901C183.59 78.0901 183.628 78.0425 183.628 77.9664V77.3097C183.628 77.2335 183.599 77.186 183.504 77.186H183.418V78.0901H183.504ZM184.161 77.0146H184.475C184.684 77.0146 184.76 77.1193 184.76 77.2906V77.5571C184.76 77.7284 184.684 77.8427 184.475 77.8427H184.37V78.2709H184.161V77.0146ZM184.37 77.186V77.6809H184.446C184.522 77.6809 184.551 77.6428 184.551 77.5762V77.2906C184.551 77.224 184.522 77.186 184.446 77.186H184.37ZM185.084 77.6904V78.2614H184.874V77.0146H185.179C185.388 77.0146 185.464 77.1193 185.464 77.2906V77.4524C185.464 77.5857 185.417 77.6618 185.293 77.6904L185.493 78.2614H185.274L185.084 77.6904ZM185.084 77.186V77.5762H185.15C185.226 77.5762 185.255 77.5381 185.255 77.4715V77.2906C185.255 77.224 185.226 77.186 185.15 77.186H185.084ZM185.588 77.9378V77.3287C185.588 77.1288 185.683 76.9956 185.902 76.9956C186.121 76.9956 186.226 77.1384 186.226 77.3287V77.9378C186.226 78.1282 186.131 78.2709 185.902 78.2709C185.683 78.2805 185.588 78.1377 185.588 77.9378ZM186.016 77.9759V77.3002C186.016 77.224 185.988 77.1669 185.912 77.1669C185.836 77.1669 185.807 77.224 185.807 77.3002V77.9759C185.807 78.052 185.836 78.1091 185.912 78.1091C185.988 78.0996 186.016 78.052 186.016 77.9759ZM186.987 77.3477V77.9283C186.987 78.1187 186.911 78.2614 186.683 78.2614H186.359V77.0146H186.683C186.902 77.0146 186.987 77.1574 186.987 77.3477ZM186.654 78.0901C186.74 78.0901 186.778 78.0425 186.778 77.9664V77.3097C186.778 77.2335 186.749 77.186 186.654 77.186H186.568V78.0901H186.654ZM187.72 77.0146V77.9569C187.72 78.1472 187.634 78.2805 187.425 78.2805C187.206 78.2805 187.111 78.1567 187.111 77.9569V77.0146H187.32V77.9854C187.32 78.0616 187.349 78.1091 187.425 78.1091C187.501 78.1091 187.53 78.0616 187.53 77.9854V77.0146H187.72ZM187.844 77.9378V77.3287C187.844 77.1288 187.939 76.9956 188.158 76.9956C188.386 76.9956 188.453 77.1288 188.453 77.3097V77.462H188.263V77.3002C188.263 77.224 188.234 77.1764 188.158 77.1764C188.082 77.1764 188.053 77.2335 188.053 77.3097V77.9854C188.053 78.0616 188.082 78.1187 188.158 78.1187C188.234 78.1187 188.263 78.0711 188.263 77.9949V77.7665H188.453V77.9854C188.453 78.1662 188.377 78.2995 188.158 78.2995C187.939 78.2805 187.844 78.1377 187.844 77.9378ZM188.558 77.0146H189.119V77.186H188.948V78.2614H188.738V77.186H188.567L188.558 77.0146ZM189.214 77.0146H189.424V78.2614H189.214V77.0146ZM189.547 77.9378V77.3287C189.547 77.1288 189.643 76.9956 189.862 76.9956C190.08 76.9956 190.185 77.1384 190.185 77.3287V77.9378C190.185 78.1282 190.09 78.2709 189.862 78.2709C189.643 78.2805 189.547 78.1377 189.547 77.9378ZM189.976 77.9759V77.3002C189.976 77.224 189.947 77.1669 189.871 77.1669C189.795 77.1669 189.766 77.224 189.766 77.3002V77.9759C189.766 78.052 189.795 78.1091 189.871 78.1091C189.938 78.0996 189.976 78.052 189.976 77.9759ZM190.48 77.481V78.2709H190.299V77.0242H190.509L190.737 77.738V77.0242H190.908V78.2709H190.728L190.48 77.481Z" fill="white"/>
<path d="M202.268 70.2312C203.651 70.2312 204.773 69.1097 204.773 67.7262C204.773 66.3427 203.651 65.2212 202.268 65.2212C200.884 65.2212 199.763 66.3427 199.763 67.7262C199.763 69.1097 200.884 70.2312 202.268 70.2312Z" fill="#0A97D9"/>
<path d="M235.796 88.6986C248.548 88.6986 258.886 78.3608 258.886 65.6086C258.886 52.8563 248.548 42.5186 235.796 42.5186C223.044 42.5186 212.706 52.8563 212.706 65.6086C212.706 78.3608 223.044 88.6986 235.796 88.6986Z" fill="#56C02B"/>
<path d="M222.103 53.521V54.6655L222.866 53.8624H222.886V58.8619H223.97V52.3364H223.106L222.103 53.521ZM226.58 54.4045C226.138 54.4045 225.837 54.5651 225.656 54.8462V53.2199H227.544V52.3364H224.652V56.0107H225.656V55.8702C225.656 55.4887 225.837 55.2679 226.138 55.2679C226.48 55.2679 226.6 55.4887 226.6 55.8501V57.4162C226.6 57.7576 226.48 57.9985 226.138 57.9985C225.757 57.9985 225.636 57.7576 225.636 57.356V56.5328H224.632V57.2757C224.632 58.2595 225.034 58.902 226.138 58.902C227.243 58.902 227.704 58.3197 227.704 57.4162V55.83C227.704 54.8261 227.162 54.4045 226.58 54.4045Z" fill="white"/>
<path d="M233.266 71.4712C233.306 71.4712 233.346 71.5114 233.346 71.5515V73.9007C233.346 73.9408 233.306 73.981 233.266 73.981H232.322C232.282 73.981 232.242 73.9408 232.242 73.9007V71.5515C232.242 71.5114 232.282 71.4712 232.322 71.4712H233.266ZM243.726 74.9849H228.045C228.005 74.9849 227.965 75.0251 227.965 75.0652V76.029C227.965 76.0691 228.005 76.1093 228.045 76.1093H243.726C243.766 76.1093 243.807 76.0691 243.807 76.029V75.0652C243.807 75.0251 243.766 74.9849 243.726 74.9849ZM243.726 76.8923H228.045C228.005 76.8923 227.965 76.9325 227.965 76.9727V77.9364C227.965 77.9766 228.005 78.0167 228.045 78.0167H243.726C243.766 78.0167 243.807 77.9766 243.807 77.9364V76.9727C243.807 76.9325 243.766 76.8923 243.726 76.8923ZM240.735 68.8812C240.534 68.7205 240.012 68.3792 239.369 68.3792C238.907 68.3792 238.486 68.5599 238.104 68.9213C238.084 68.9414 238.064 68.9815 238.064 69.0217V69.102C238.064 69.1422 238.084 69.1823 238.104 69.2024C238.145 69.2225 238.165 69.2426 238.225 69.2225H238.245C238.265 69.2024 238.305 69.2024 238.325 69.1823C238.406 69.1221 238.626 69.0418 238.948 69.0418C239.289 69.0418 239.931 69.1221 240.574 69.7244L240.594 69.7445C240.634 69.7846 240.674 69.8047 240.735 69.8047C240.775 69.8047 240.835 69.7846 240.875 69.7445L240.895 69.7244C241.538 69.1422 242.18 69.0418 242.522 69.0418C242.843 69.0418 243.064 69.1221 243.144 69.1823C243.164 69.2024 243.184 69.2225 243.224 69.2426C243.244 69.2426 243.285 69.2626 243.325 69.2426C243.385 69.2225 243.425 69.1823 243.425 69.1221V69.0418C243.425 69.0016 243.405 68.9615 243.385 68.9414C243.003 68.58 242.582 68.3993 242.1 68.3993C241.457 68.3591 240.935 68.7205 240.735 68.8812ZM239.771 62.6167C239.731 62.6368 239.711 62.6569 239.711 62.6971L239.691 62.7573C239.67 62.7974 239.691 62.8376 239.711 62.8778C239.731 62.9179 239.771 62.938 239.811 62.938H239.831C239.851 62.938 239.891 62.938 239.911 62.9179C239.931 62.9179 239.952 62.8978 240.012 62.8978C240.072 62.8978 240.715 62.9179 241.136 63.6207V63.6407C241.156 63.6809 241.196 63.701 241.237 63.721H241.277C241.297 63.721 241.337 63.721 241.357 63.701H241.377C241.598 63.5805 241.839 63.5203 242.08 63.5203C242.481 63.5203 242.742 63.6809 242.803 63.7411L242.863 63.8014C242.883 63.8014 242.903 63.8214 242.923 63.8214H242.963C242.983 63.8214 243.003 63.8214 243.024 63.8014C243.064 63.7813 243.084 63.7612 243.084 63.721L243.104 63.6809V63.6407C243.104 63.6207 243.104 63.6006 243.084 63.5805C242.783 63.0585 242.341 62.938 242.02 62.938C241.779 62.938 241.578 62.9982 241.457 63.0384C241.317 62.8376 240.955 62.436 240.393 62.436C240.172 62.4762 239.972 62.5163 239.771 62.6167ZM236.458 65.0462V65.1265C236.458 65.1667 236.478 65.2068 236.518 65.2269C236.558 65.247 236.598 65.247 236.619 65.247H236.639C236.659 65.2269 236.679 65.2269 236.699 65.2068C236.759 65.1667 236.98 65.0663 237.301 65.0663C237.602 65.0663 238.064 65.1466 238.546 65.5281L238.566 65.5482C238.606 65.5682 238.646 65.5883 238.687 65.5883H238.707C238.747 65.5883 238.807 65.5682 238.827 65.5281L238.847 65.508C239.369 64.9458 239.931 64.8655 240.233 64.8655C240.433 64.8655 240.594 64.9057 240.634 64.9458C240.654 64.9659 240.674 64.986 240.715 64.986H240.815C240.875 64.9659 240.915 64.9057 240.895 64.8454V64.7852C240.895 64.745 240.875 64.725 240.855 64.6848C240.534 64.4238 240.213 64.2832 239.851 64.2832C239.309 64.2832 238.867 64.6045 238.687 64.7651C238.526 64.6446 238.124 64.4238 237.643 64.4238C237.221 64.4238 236.86 64.6045 236.538 64.9458C236.458 64.9659 236.458 65.0061 236.458 65.0462ZM228.507 66.2911C228.507 65.3474 229.27 64.5844 230.214 64.5844H230.314C230.394 63.3998 231.398 62.4561 232.603 62.4561C233.868 62.4561 234.912 63.4801 234.912 64.7651C234.912 65.1265 234.832 65.4679 234.671 65.769C235.815 66.03 236.679 67.054 236.679 68.2788C236.679 69.7043 235.534 70.8488 234.109 70.8488C234.008 70.8488 230.675 70.8287 230.675 70.8287C229.671 70.8287 228.848 70.0055 228.848 69.0016C228.848 68.5197 229.029 68.078 229.35 67.7568C228.868 67.4757 228.507 66.9336 228.507 66.2911Z" fill="white"/>
<path d="M230.053 52.3364H230.494V54.6053H231.017V54.9667H230.053V52.3364ZM231.278 52.3364H231.719V54.9667H231.278V52.3364ZM232.04 52.3364H233.085V52.6978H232.482V53.4608H232.924V53.8222H232.482V54.9868H232.04V52.3364ZM233.326 52.3364H234.39V52.6978H233.767V53.4608H234.209V53.8222H233.767V54.6253H234.39V54.9868H233.326V52.3364Z" fill="white"/>
<path d="M230.053 58.1792V56.8941C230.053 56.4725 230.254 56.1914 230.715 56.1914C231.177 56.1914 231.398 56.4926 231.398 56.8941V58.1792C231.398 58.5807 231.197 58.8819 230.715 58.8819C230.254 58.8819 230.053 58.5807 230.053 58.1792ZM230.956 58.2394V56.8138C230.956 56.6532 230.896 56.5327 230.735 56.5327C230.575 56.5327 230.515 56.6532 230.515 56.8138V58.2394C230.515 58.4 230.575 58.5205 230.735 58.5205C230.876 58.5205 230.956 58.4 230.956 58.2394ZM232.02 57.1953V58.8618H231.639V56.2316H232.081L232.563 57.7374V56.2316H232.924V58.8618H232.542L232.02 57.1953ZM233.888 56.2115H234.329V58.4803H234.851V58.8417H233.888V56.2115ZM234.972 58.8618L235.474 56.2316H235.976L236.478 58.8618H236.016L235.936 58.3799H235.474L235.394 58.8618H234.972ZM235.534 58.0185H235.896L235.715 56.9544L235.534 58.0185ZM237.04 57.1953V58.8618H236.658V56.2316H237.1L237.582 57.7374V56.2316H237.944V58.8618H237.562L237.04 57.1953ZM239.57 56.9343V58.1591C239.57 58.5606 239.409 58.8618 238.927 58.8618H238.245V56.2316H238.927C239.389 56.2115 239.57 56.5127 239.57 56.9343ZM238.867 58.5004C239.048 58.5004 239.128 58.4 239.128 58.2394V56.854C239.128 56.6934 239.068 56.593 238.867 56.593H238.686V58.5004H238.867Z" fill="white"/>
<path d="M255.901 39.7435C261.537 39.7435 266.106 35.1746 266.106 29.5385C266.106 23.9024 261.537 19.3335 255.901 19.3335C250.265 19.3335 245.696 23.9024 245.696 29.5385C245.696 35.1746 250.265 39.7435 255.901 39.7435Z" fill="#00689D"/>
<path d="M249.929 24.1967V24.7025H249.938L250.275 24.3475V26.5571H250.763V23.6731H250.372L249.929 24.1967ZM252.458 25.865V25.439C252.458 24.9687 252.271 24.7291 251.925 24.7291C251.721 24.7291 251.597 24.8267 251.526 24.9598V24.3386C251.526 24.1612 251.579 24.0369 251.757 24.0369C251.934 24.0369 251.979 24.1345 251.979 24.3209V24.5161H252.422V24.3653C252.422 23.9393 252.28 23.6465 251.748 23.6465C251.242 23.6465 251.047 23.9748 251.047 24.4274V25.8295C251.047 26.2732 251.242 26.6015 251.748 26.6015C252.254 26.5926 252.458 26.3087 252.458 25.865ZM251.979 25.9093C251.979 26.0957 251.908 26.2022 251.748 26.2022C251.588 26.2022 251.526 26.0957 251.526 25.9093V25.3858C251.535 25.226 251.606 25.1196 251.757 25.1196C251.925 25.1196 251.987 25.2172 251.987 25.4124L251.979 25.9093Z" fill="white"/>
<path d="M253.39 23.6729H253.682C253.878 23.6729 253.949 23.7705 253.949 23.9303V24.1787C253.949 24.3385 253.878 24.445 253.682 24.445H253.585V24.8443H253.39V23.6729ZM253.585 23.8327V24.2941H253.656C253.727 24.2941 253.753 24.2586 253.753 24.1965V23.9303C253.753 23.8682 253.727 23.8327 253.656 23.8327H253.585ZM254.046 23.6729H254.517V23.8327H254.242V24.1699H254.437V24.3296H254.242V24.6846H254.517V24.8443H254.046V23.6729ZM254.597 24.8443L254.818 23.6818H255.04L255.262 24.8443H255.058L255.022 24.6313H254.818L254.783 24.8443H254.597ZM254.845 24.4716H255.005L254.925 24.0013L254.845 24.4716ZM255.333 24.5426V23.9746C255.333 23.7883 255.422 23.6641 255.626 23.6641C255.839 23.6641 255.901 23.7883 255.901 23.9569V24.0989H255.723V23.948C255.723 23.877 255.697 23.8327 255.626 23.8327C255.555 23.8327 255.528 23.8859 255.528 23.9569V24.5869C255.528 24.6579 255.555 24.7112 255.626 24.7112C255.697 24.7112 255.723 24.6668 255.723 24.5958V24.3828H255.901V24.5869C255.901 24.7556 255.83 24.8798 255.626 24.8798C255.422 24.8532 255.333 24.7201 255.333 24.5426ZM256.025 23.6729H256.496V23.8327H256.22V24.1699H256.416V24.3296H256.22V24.6846H256.496V24.8443H256.025V23.6729ZM256.815 24.6668L256.717 24.933H256.611L256.638 24.6579L256.815 24.6668ZM257.667 23.6729V24.5781C257.667 24.7467 257.596 24.8532 257.401 24.8532C257.197 24.8532 257.143 24.7378 257.143 24.5958V24.3651H257.33V24.6047C257.33 24.6668 257.347 24.6934 257.401 24.6934C257.454 24.6934 257.472 24.6579 257.472 24.5958V23.6729H257.667ZM258.359 23.6729V24.5515C258.359 24.7289 258.279 24.8532 258.084 24.8532C257.88 24.8532 257.791 24.7378 257.791 24.5515V23.6729H257.986V24.5781C257.986 24.6491 258.013 24.6934 258.084 24.6934C258.155 24.6934 258.182 24.6491 258.182 24.5781V23.6729H258.359ZM258.483 24.5869V24.4361H258.67V24.5958C258.67 24.6579 258.696 24.7023 258.767 24.7023C258.829 24.7023 258.856 24.6579 258.856 24.5958V24.5515C258.856 24.4805 258.829 24.445 258.767 24.3828L258.652 24.2675C258.537 24.161 258.492 24.09 258.492 23.9569V23.9214C258.492 23.7794 258.581 23.6641 258.767 23.6641C258.962 23.6641 259.042 23.7617 259.042 23.9303V24.0279H258.865V23.9303C258.865 23.8593 258.838 23.8327 258.776 23.8327C258.723 23.8327 258.687 23.8593 258.687 23.9303V23.9569C258.687 24.019 258.723 24.0634 258.776 24.1166L258.9 24.2409C259.007 24.3474 259.06 24.4183 259.06 24.5426V24.5958C259.06 24.7556 258.971 24.8709 258.776 24.8709C258.554 24.8532 258.483 24.7467 258.483 24.5869ZM259.14 23.6729H259.663V23.8327H259.504V24.8354H259.309V23.8327H259.14V23.6729ZM259.77 23.6729H259.965V24.8354H259.77V23.6729ZM260.098 24.5426V23.9746C260.098 23.7883 260.187 23.6641 260.391 23.6641C260.604 23.6641 260.666 23.7883 260.666 23.9569V24.0989H260.489V23.948C260.489 23.877 260.462 23.8327 260.391 23.8327C260.32 23.8327 260.294 23.8859 260.294 23.9569V24.5869C260.294 24.6579 260.32 24.7112 260.391 24.7112C260.462 24.7112 260.489 24.6668 260.489 24.5958V24.3828H260.666V24.5869C260.666 24.7556 260.595 24.8798 260.391 24.8798C260.187 24.8532 260.098 24.7201 260.098 24.5426ZM260.79 23.6729H261.261V23.8327H260.986V24.1699H261.181V24.3296H260.986V24.6846H261.261V24.8443H260.79V23.6729Z" fill="white"/>
<path d="M253.354 26.5923L253.576 25.4299H253.798L254.02 26.5923H253.816L253.78 26.3794H253.576L253.541 26.5923H253.354ZM253.603 26.2196H253.763L253.683 25.7493L253.603 26.2196ZM254.286 25.8558V26.5923H254.118V25.4299H254.313L254.526 26.0954V25.4299H254.686V26.5923H254.517L254.286 25.8558ZM255.404 25.7404V26.2818C255.404 26.4592 255.333 26.5923 255.12 26.5923H254.819V25.4299H255.12C255.333 25.421 255.404 25.5541 255.404 25.7404ZM255.103 26.4326C255.183 26.4326 255.218 26.3882 255.218 26.3172V25.7049C255.218 25.634 255.191 25.5896 255.103 25.5896H255.023V26.4326H255.103ZM255.724 26.3439V26.1841H255.91V26.3439C255.91 26.406 255.937 26.4504 256.008 26.4504C256.07 26.4504 256.097 26.406 256.097 26.3439V26.2995C256.097 26.2285 256.07 26.193 256.008 26.1309L255.892 26.0155C255.777 25.909 255.733 25.8381 255.733 25.7049V25.6695C255.733 25.5275 255.821 25.4121 256.008 25.4121C256.203 25.4121 256.283 25.5097 256.283 25.6783V25.7759H256.105V25.6783C256.105 25.6073 256.079 25.5807 256.017 25.5807C255.963 25.5807 255.928 25.6073 255.928 25.6783V25.7049C255.928 25.7671 255.963 25.8114 256.017 25.8647L256.141 25.9889C256.247 26.0954 256.301 26.1664 256.301 26.2906V26.3439C256.301 26.5036 256.212 26.619 256.017 26.619C255.804 26.6012 255.724 26.4947 255.724 26.3439ZM256.363 25.421H256.886V25.5807H256.727V26.5835H256.531V25.5807H256.372V25.421H256.363ZM257.188 26.0599V26.5923H256.993V25.4299H257.277C257.472 25.4299 257.543 25.5275 257.543 25.6872V25.8381C257.543 25.9623 257.499 26.0333 257.383 26.0599L257.57 26.5923H257.366L257.188 26.0599ZM257.188 25.5807V25.9445H257.25C257.321 25.9445 257.348 25.909 257.348 25.8469V25.6783C257.348 25.6162 257.321 25.5807 257.25 25.5807H257.188ZM257.667 26.2906V25.7227C257.667 25.5363 257.756 25.4121 257.96 25.4121C258.164 25.4121 258.262 25.5452 258.262 25.7227V26.2906C258.262 26.4681 258.173 26.6012 257.96 26.6012C257.756 26.6012 257.667 26.4681 257.667 26.2906ZM258.067 26.3172V25.6872C258.067 25.6162 258.04 25.563 257.969 25.563C257.898 25.563 257.871 25.6162 257.871 25.6872V26.3172C257.871 26.3882 257.898 26.4415 257.969 26.4415C258.031 26.4415 258.067 26.3882 258.067 26.3172ZM258.555 25.8558V26.5923H258.386V25.4299H258.581L258.794 26.0954V25.4299H258.954V26.5923H258.785L258.555 25.8558ZM259.389 25.9712H259.664V26.5923H259.522V26.4681C259.495 26.5568 259.442 26.6101 259.336 26.6101C259.167 26.6101 259.087 26.477 259.087 26.2995V25.7316C259.087 25.5452 259.176 25.421 259.38 25.421C259.593 25.421 259.664 25.5452 259.664 25.7138V25.8203H259.486V25.7049C259.486 25.634 259.46 25.5896 259.389 25.5896C259.318 25.5896 259.291 25.6428 259.291 25.7138V26.3439C259.291 26.4149 259.318 26.4681 259.389 26.4681C259.451 26.4681 259.486 26.4326 259.486 26.3527V26.122H259.398V25.9712H259.389Z" fill="white"/>
<path d="M253.39 27.0983H253.585V28.2608H253.39V27.0983ZM253.887 27.5331V28.2697H253.727V27.0983H253.922L254.135 27.7639V27.0983H254.295V28.2608H254.126L253.887 27.5331ZM254.41 28.0123V27.8526H254.597V28.0123C254.597 28.0744 254.623 28.1188 254.694 28.1188C254.756 28.1188 254.783 28.0744 254.783 28.0123V27.968C254.783 27.897 254.756 27.8615 254.694 27.7994L254.579 27.684C254.463 27.5775 254.419 27.5065 254.419 27.3734V27.3379C254.419 27.1959 254.508 27.0806 254.694 27.0806C254.889 27.0806 254.969 27.1782 254.969 27.3468V27.4444H254.792V27.3468C254.792 27.2758 254.765 27.2492 254.703 27.2492C254.65 27.2492 254.614 27.2758 254.614 27.3468V27.3734C254.614 27.4355 254.65 27.4799 254.703 27.5331L254.827 27.6574C254.934 27.7639 254.987 27.8348 254.987 27.9591V28.0123C254.987 28.1721 254.898 28.2874 254.703 28.2874C254.49 28.2785 254.41 28.1632 254.41 28.0123ZM255.049 27.0983H255.573V27.258H255.413V28.2608H255.218V27.258H255.058L255.049 27.0983ZM255.679 27.0983H255.874V28.2608H255.679V27.0983ZM255.981 27.0983H256.504V27.258H256.345V28.2608H256.149V27.258H255.99V27.0983H255.981ZM257.179 27.0983V27.9768C257.179 28.1543 257.099 28.2785 256.904 28.2785C256.7 28.2785 256.611 28.1632 256.611 27.9768V27.0983H256.806V28.0035C256.806 28.0744 256.833 28.1188 256.904 28.1188C256.975 28.1188 257.001 28.0744 257.001 28.0035V27.0983H257.179ZM257.285 27.0983H257.809V27.258H257.649V28.2608H257.454V27.258H257.294V27.0983H257.285ZM257.915 27.0983H258.111V28.2608H257.915V27.0983ZM258.244 27.9591V27.3912C258.244 27.2048 258.332 27.0806 258.536 27.0806C258.741 27.0806 258.838 27.2137 258.838 27.3912V27.9591C258.838 28.1366 258.749 28.2697 258.536 28.2697C258.332 28.2785 258.244 28.1454 258.244 27.9591ZM258.643 27.9946V27.3645C258.643 27.2935 258.616 27.2403 258.545 27.2403C258.474 27.2403 258.448 27.2935 258.448 27.3645V27.9946C258.448 28.0656 258.474 28.1188 258.545 28.1188C258.607 28.1099 258.643 28.0656 258.643 27.9946ZM259.131 27.5331V28.2697H258.962V27.0983H259.158L259.371 27.7639V27.0983H259.53V28.2608H259.362L259.131 27.5331ZM259.655 28.0123V27.8526H259.841V28.0123C259.841 28.0744 259.868 28.1188 259.939 28.1188C260.001 28.1188 260.027 28.0744 260.027 28.0123V27.968C260.027 27.897 260.001 27.8615 259.939 27.7994L259.823 27.684C259.708 27.5775 259.663 27.5065 259.663 27.3734V27.3379C259.663 27.1959 259.752 27.0806 259.939 27.0806C260.134 27.0806 260.214 27.1782 260.214 27.3468V27.4444H260.036V27.3468C260.036 27.2758 260.01 27.2492 259.947 27.2492C259.894 27.2492 259.859 27.2758 259.859 27.3468V27.3734C259.859 27.4355 259.894 27.4799 259.947 27.5331L260.072 27.6574C260.178 27.7639 260.231 27.8348 260.231 27.9591V28.0123C260.231 28.1721 260.143 28.2874 259.947 28.2874C259.734 28.2785 259.655 28.1632 259.655 28.0123Z" fill="white"/>
<path d="M258.058 29.5029C258.058 29.5029 257.934 29.6626 257.969 29.8223C258.005 29.9821 258.182 30.0708 258.182 30.0708C258.182 30.0708 258.306 29.9111 258.271 29.7513C258.235 29.5916 258.058 29.5029 258.058 29.5029ZM257.863 30.408C257.863 30.408 257.987 30.2483 257.952 30.0886C257.916 29.9288 257.739 29.8401 257.739 29.8401C257.739 29.8401 257.614 29.9998 257.65 30.1507C257.685 30.3193 257.863 30.408 257.863 30.408ZM258.36 30.2394C258.36 30.2394 258.484 30.3636 258.635 30.3548C258.777 30.3459 258.883 30.195 258.883 30.195C258.883 30.195 258.759 30.0708 258.608 30.0797C258.466 30.0885 258.36 30.2394 258.36 30.2394ZM258.564 29.5561C258.448 29.6715 258.466 29.8845 258.466 29.8845C258.466 29.8845 258.67 29.9022 258.795 29.7868C258.91 29.6715 258.892 29.4585 258.892 29.4585C258.892 29.4585 258.679 29.4408 258.564 29.5561ZM258.306 30.7186C258.448 30.7363 258.582 30.6121 258.582 30.6121C258.582 30.6121 258.484 30.4613 258.342 30.4435C258.2 30.4258 258.067 30.55 258.067 30.55C258.067 30.55 258.164 30.7008 258.306 30.7186ZM258.431 33.2122H257.357C257.277 33.2122 257.206 33.2832 257.206 33.363C257.206 33.4429 257.277 33.5139 257.357 33.5139H258.431C258.511 33.5139 258.582 33.4429 258.582 33.363C258.59 33.2832 258.519 33.2122 258.431 33.2122ZM258.431 34.8982H257.357C257.277 34.8982 257.206 34.9692 257.206 35.0491C257.206 35.1289 257.277 35.1999 257.357 35.1999H258.431C258.511 35.1999 258.582 35.1289 258.582 35.0491C258.59 34.9603 258.519 34.8982 258.431 34.8982ZM253.594 32.8483C253.568 32.8395 253.541 32.8306 253.523 32.8306C253.523 32.8306 253.55 32.8395 253.594 32.8483Z" fill="white"/>
<path d="M258.395 33.6292H257.401C257.357 33.6292 257.312 33.6647 257.312 33.718V34.0197L256.664 34.0907L255.715 34.0729V33.4873C255.839 33.4695 255.963 33.4429 256.096 33.4074C257.01 33.15 257.215 32.3958 257.188 31.8722C257.17 31.3398 257.339 31.1356 257.587 31.038C257.658 31.0114 257.729 30.9937 257.791 30.9848C257.791 31.1179 257.818 31.2688 257.88 31.4463C257.898 31.4463 257.924 31.4463 257.942 31.4374C257.88 31.251 257.853 31.1002 257.853 30.967C257.978 30.9493 258.066 30.9582 258.066 30.9582C258.066 30.9582 257.978 30.9138 257.862 30.8073C257.907 30.5588 258.058 30.3991 258.208 30.2394C258.297 30.1506 258.386 30.0619 258.448 29.9554L258.395 29.9199C258.333 30.0264 258.244 30.1063 258.164 30.195C258.013 30.3459 257.862 30.5056 257.809 30.7629C257.756 30.7186 257.703 30.6653 257.649 30.6032C257.428 30.3459 257.135 30.5322 256.718 30.9227C256.301 31.3043 255.786 31.322 255.271 30.7984C254.597 30.1063 254.011 30.1151 253.612 30.1506C253.887 30.266 253.984 30.5233 254.126 31.18C254.268 31.8633 254.641 32.1739 255.147 32.2183C254.863 32.3159 254.854 32.4756 254.481 32.733C254.189 32.9371 253.78 32.875 253.612 32.8306C253.922 32.9282 254.277 33.2477 254.606 33.363C254.792 33.4251 254.996 33.4695 255.2 33.4873V34.0463L253.496 34.0108V34.4013L256.682 34.3303L257.33 34.4013V34.703C257.33 34.7473 257.365 34.7917 257.419 34.7917H258.413C258.457 34.7917 258.501 34.7562 258.501 34.703V33.7091C258.484 33.6647 258.439 33.6292 258.395 33.6292ZM255.342 33.505C255.413 33.505 255.484 33.505 255.555 33.4961V34.0552L255.342 34.0463V33.505ZM253.381 34.3391C253.381 34.419 253.328 34.49 253.257 34.49H253.177C253.106 34.49 253.053 34.4279 253.053 34.3391V34.0729C253.053 33.9931 253.106 33.9221 253.177 33.9221H253.257C253.328 33.9221 253.381 33.9842 253.381 34.0729V34.3391Z" fill="white"/>
<path d="M264.145 51.1523C264.91 51.1523 265.53 50.5322 265.53 49.7673C265.53 49.0024 264.91 48.3823 264.145 48.3823C263.38 48.3823 262.76 49.0024 262.76 49.7673C262.76 50.5322 263.38 51.1523 264.145 51.1523Z" fill="#19486A"/>
</svg>
