<svg width="280" height="130" viewBox="0 0 280 130" fill="none" xmlns="http://www.w3.org/2000/svg">
<path d="M15.3184 70.0846C21.4184 70.0846 26.3634 65.1396 26.3634 59.0396C26.3634 52.9396 21.4184 47.9946 15.3184 47.9946C9.21845 47.9946 4.27344 52.9396 4.27344 59.0396C4.27344 65.1396 9.21845 70.0846 15.3184 70.0846Z" fill="#E5243B"/>
<path d="M9.81516 53.3442H9.82477V55.7261H10.3434V52.6143H9.93041L9.4502 53.1809V53.7284L9.81516 53.3442ZM20.2647 59.1164C20.5048 59.1164 20.6872 58.9243 20.6872 58.6842C20.6872 58.4441 20.4952 58.252 20.2647 58.252C20.0245 58.252 19.8325 58.4441 19.8325 58.6842C19.8325 58.9243 20.0245 59.1164 20.2647 59.1164ZM20.7641 59.2797H19.7652C19.4771 59.3085 19.2466 59.5486 19.2466 59.8463V61.0277C19.2466 61.1141 19.3234 61.1909 19.4099 61.1909C19.5059 61.1909 19.5731 61.1141 19.5731 61.0277V60.0096C19.5731 59.9712 19.5827 59.9232 19.65 59.9232C19.698 59.9232 19.7076 59.9712 19.7076 60.0096V63.0638C19.7076 63.1982 19.8132 63.3039 19.9477 63.3039C20.0822 63.3039 20.1878 63.1982 20.1878 63.0638V61.2966C20.1878 61.2774 20.1974 61.2293 20.255 61.2293C20.3127 61.2293 20.3223 61.2774 20.3223 61.2966V63.0542C20.3223 63.1886 20.4279 63.2943 20.5624 63.2943C20.6968 63.2943 20.8025 63.1886 20.8025 63.0542V60C20.8025 59.9712 20.8121 59.9136 20.8601 59.9136C20.9274 59.9136 20.937 59.9616 20.937 60V61.0181C20.937 61.1045 21.0138 61.1813 21.1002 61.1813C21.1963 61.1813 21.2635 61.1045 21.2635 61.0181V59.8463C21.2827 59.5486 21.0522 59.2989 20.7641 59.2797ZM16.884 59.3181C17.1049 59.3181 17.2873 59.1356 17.2873 58.9147C17.2873 58.6938 17.1049 58.5113 16.884 58.5113C16.6631 58.5113 16.4806 58.6938 16.4806 58.9147C16.4806 59.1356 16.6631 59.3181 16.884 59.3181ZM17.3641 60.0576C17.4218 60.0384 17.4314 60.1153 17.4314 60.1153L17.7003 61.0277C17.7003 61.0277 17.7483 61.2197 17.9212 61.1717C18.0941 61.1237 18.0364 60.922 18.0364 60.922L17.7003 59.8271C17.7003 59.8271 17.5754 59.5102 17.3161 59.5102H16.4518C16.1828 59.5102 16.0676 59.8271 16.0676 59.8271L15.7314 60.922C15.7314 60.922 15.6738 61.1237 15.8467 61.1717C16.0196 61.2197 16.0676 61.0277 16.0676 61.0277L16.3365 60.1153C16.3365 60.1153 16.3557 60.048 16.4037 60.0576C16.4614 60.0768 16.4326 60.1441 16.4326 60.1441L15.9619 61.8632H16.4037V63.0926C16.4037 63.2078 16.4998 63.3039 16.615 63.3039C16.7303 63.3039 16.8263 63.2078 16.8263 63.0926V61.8632H16.9416V63.0926C16.9416 63.2078 17.0376 63.3039 17.1529 63.3039C17.2681 63.3039 17.3641 63.2078 17.3641 63.0926V61.8632H17.8059L17.3353 60.1441C17.3353 60.1441 17.3161 60.0768 17.3641 60.0576ZM14.4541 59.3181C14.675 59.3181 14.8574 59.1356 14.8574 58.9147C14.8574 58.6938 14.675 58.5113 14.4541 58.5113C14.2332 58.5113 14.0507 58.6938 14.0507 58.9147C14.0507 59.1356 14.2332 59.3181 14.4541 59.3181ZM15.2704 59.8271C15.2704 59.8271 15.1552 59.5102 14.8863 59.5102H14.0219C13.7529 59.5102 13.6377 59.8271 13.6377 59.8271L13.3015 60.922C13.3015 60.922 13.2919 60.9508 13.2919 60.9892C13.2727 60.9604 13.2343 60.9412 13.1959 60.9412C13.1479 60.9412 13.1095 60.9604 13.0902 60.9988C13.0806 61.0084 12.927 61.287 12.8693 61.335C12.8117 61.3926 12.7637 61.383 12.7637 61.383H12.3603C12.3603 61.383 12.3123 61.3926 12.2547 61.335C12.2066 61.287 12.0434 60.9988 12.0338 60.9988C12.0146 60.9604 11.9761 60.9412 11.9281 60.9412C11.8897 60.9412 11.8513 60.9604 11.8321 60.9988V59.8463C11.8321 59.5486 11.6016 59.3085 11.3134 59.2797H10.3146C10.0265 59.3085 9.79595 59.5486 9.79595 59.8463V61.0277C9.79595 61.0949 9.83437 61.1429 9.88239 61.1717C9.88239 61.1717 9.87279 61.1813 9.87279 61.1909L9.48861 63.2078C9.47901 63.2463 9.50782 63.2751 9.53663 63.2847H9.54624C9.57505 63.2847 9.60386 63.2655 9.60386 63.2367L9.98804 61.2197V61.2005C10.0649 61.1813 10.1129 61.1141 10.1129 61.0373V60.0192C10.1129 59.9808 10.1225 59.9328 10.1897 59.9328C10.2378 59.9328 10.2474 59.9808 10.2474 60.0192V63.0734C10.2474 63.2078 10.353 63.3135 10.4875 63.3135C10.6219 63.3135 10.7276 63.2078 10.7276 63.0734V61.2966C10.7276 61.2774 10.7372 61.2293 10.7948 61.2293C10.8524 61.2293 10.862 61.2774 10.862 61.2966V63.0542C10.862 63.1886 10.9677 63.2943 11.1021 63.2943C11.2366 63.2943 11.3423 63.1886 11.3423 63.0542V60C11.3423 59.9712 11.3519 59.9136 11.3999 59.9136C11.4671 59.9136 11.4767 59.9616 11.4767 60V61.0181C11.4767 61.1045 11.5535 61.1813 11.64 61.1813C11.7072 61.1813 11.7648 61.1429 11.7937 61.0853C11.7937 61.0949 11.8033 61.1045 11.8033 61.1045L12.1394 61.7192C12.1394 61.7192 12.1586 61.7576 12.1586 61.796V61.9209L11.9761 62.5836H12.1586V63.1214C12.1586 63.2174 12.2355 63.2847 12.3219 63.2847C12.4179 63.2847 12.4852 63.2078 12.4852 63.1214V62.6028V62.5836H12.5812V63.1214C12.5812 63.2174 12.658 63.2847 12.7445 63.2847C12.8405 63.2847 12.9078 63.2078 12.9078 63.1214V62.5836H13.0902L12.9078 61.9209V61.8056C12.9078 61.7672 12.927 61.7288 12.927 61.7288L13.2439 61.1621C13.2439 61.1621 13.2631 61.1237 13.2727 61.0853C13.2919 61.1237 13.3207 61.1525 13.3688 61.1717C13.5416 61.2197 13.5897 61.0277 13.5897 61.0277L13.8586 60.1153C13.8586 60.1153 13.8778 60.048 13.9258 60.0576C13.9834 60.0768 13.9546 60.1441 13.9546 60.1441L13.484 61.8632H13.9258V63.0926C13.9258 63.2078 14.0219 63.3039 14.1371 63.3039C14.2524 63.3039 14.3484 63.2078 14.3484 63.0926V61.8632H14.4637V63.0926C14.4637 63.2078 14.5597 63.3039 14.675 63.3039C14.7902 63.3039 14.8863 63.2078 14.8863 63.0926V61.8632H15.3281L14.8574 60.1441C14.8574 60.1441 14.8382 60.0672 14.8863 60.0576C14.9439 60.0384 14.9535 60.1153 14.9535 60.1153L15.2224 61.0277C15.2224 61.0277 15.2704 61.2197 15.4433 61.1717C15.6162 61.1237 15.5586 60.922 15.5586 60.922L15.2704 59.8271ZM18.6511 61.1717C18.8336 61.1717 18.9873 61.0181 18.9873 60.8356C18.9873 60.6531 18.8336 60.4994 18.6511 60.4994C18.4686 60.4994 18.315 60.6531 18.315 60.8356C18.315 61.0277 18.459 61.1717 18.6511 61.1717ZM19.4483 62.1322C19.4483 62.1226 19.237 61.6039 19.2082 61.5271C19.1313 61.3062 18.9969 61.3062 18.8624 61.3062H18.6511H18.3918C18.2189 61.3158 18.1613 61.4022 17.9692 61.9017C17.9404 61.9689 17.8444 62.209 17.8444 62.2186C17.8251 62.257 17.8155 62.3435 17.8924 62.3819C17.9884 62.4203 18.0364 62.3338 18.0364 62.3338L18.2189 61.748C18.2189 61.748 18.2477 61.7096 18.2477 61.748V63.1214C18.2477 63.2174 18.3246 63.2943 18.4206 63.2943C18.5167 63.2943 18.5935 63.2174 18.5935 63.1214V62.574C18.5935 62.574 18.5839 62.4971 18.6415 62.4971C18.6991 62.4971 18.6895 62.574 18.6895 62.574V63.1214C18.6895 63.2174 18.7664 63.2943 18.8624 63.2943C18.9585 63.2943 19.0353 63.2174 19.0353 63.1214V61.748C19.0353 61.7096 19.0545 61.7384 19.0545 61.7384L19.1986 62.1418C19.1986 62.1418 19.2562 62.3242 19.2754 62.3242C19.3426 62.3531 19.4195 62.3242 19.4387 62.257C19.4771 62.2186 19.4675 62.1706 19.4483 62.1322ZM10.814 59.1164C11.0541 59.1164 11.2462 58.9243 11.2462 58.6842C11.2462 58.4441 11.0541 58.252 10.814 58.252C10.5739 58.252 10.3914 58.4441 10.3914 58.6842C10.3914 58.9243 10.5835 59.1164 10.814 59.1164Z" fill="white"/>
<path d="M12.5616 61.1716C12.7441 61.1716 12.8977 61.0179 12.8977 60.8354C12.8977 60.6529 12.7441 60.4993 12.5616 60.4993C12.3791 60.4993 12.2254 60.6529 12.2254 60.8354C12.2254 61.0275 12.3791 61.1716 12.5616 61.1716ZM12.2831 53.0559V53.8531H12.1006V52.5949H12.3119L12.5424 53.3152V52.5949H12.7153V53.8531H12.5328L12.2831 53.0559ZM12.8593 53.5265V52.9118C12.8593 52.7101 12.9554 52.5757 13.1763 52.5757C13.3972 52.5757 13.5028 52.7197 13.5028 52.9118V53.5265C13.5028 53.7186 13.4068 53.8627 13.1763 53.8627C12.9554 53.8627 12.8593 53.7186 12.8593 53.5265ZM13.2915 53.5553V52.8734C13.2915 52.7966 13.2627 52.739 13.1859 52.739C13.109 52.739 13.0802 52.7966 13.0802 52.8734V53.5553C13.0802 53.6322 13.109 53.6898 13.1859 53.6898C13.2531 53.6898 13.2915 53.6322 13.2915 53.5553ZM12.1102 54.4581H12.4271C12.6384 54.4581 12.7153 54.5638 12.7153 54.7367V55.0056C12.7153 55.1785 12.6384 55.2937 12.4271 55.2937H12.3215V55.7259H12.1102V54.4581ZM12.3215 54.631V55.1304H12.3983C12.4752 55.1304 12.504 55.092 12.504 55.0248V54.7367C12.504 54.6694 12.4752 54.631 12.3983 54.631H12.3215ZM12.8401 55.3994V54.7847C12.8401 54.583 12.9362 54.4485 13.1571 54.4485C13.378 54.4485 13.4836 54.5926 13.4836 54.7847V55.3994C13.4836 55.5914 13.3876 55.7355 13.1571 55.7355C12.9362 55.7355 12.8401 55.5914 12.8401 55.3994ZM13.2723 55.4282V54.7463C13.2723 54.6694 13.2435 54.6118 13.1667 54.6118C13.0898 54.6118 13.061 54.6694 13.061 54.7463V55.4282C13.061 55.505 13.0898 55.5626 13.1667 55.5626C13.2339 55.5626 13.2723 55.505 13.2723 55.4282ZM14.2712 54.4581L14.0311 55.7163H13.8006L13.5604 54.4581H13.7717L13.9158 55.3417L14.0695 54.4581H14.2712ZM14.3768 54.4581H14.8858V54.631H14.5881V54.996H14.7994V55.1689H14.5881V55.553H14.8858V55.7259H14.3768V54.4581ZM15.222 55.14V55.7163H15.0107V54.4581H15.318C15.5293 54.4581 15.6062 54.5638 15.6062 54.7367V54.8999C15.6062 55.0344 15.5582 55.1112 15.4333 55.14L15.635 55.7163H15.4141L15.222 55.14ZM15.222 54.631V55.0248H15.2892C15.3661 55.0248 15.3949 54.9864 15.3949 54.9191V54.7367C15.3949 54.6694 15.3661 54.631 15.2892 54.631H15.222ZM15.7022 54.4581H16.2689V54.631H16.096V55.7259H15.8847V54.6406H15.7118L15.7022 54.4581ZM16.7971 55.2361V55.7163H16.5858V55.2361L16.3457 54.4581H16.5666L16.6915 54.9384L16.8163 54.4581H17.018L16.7971 55.2361Z" fill="white"/>
<path d="M32.3536 88.525C36.8878 88.525 40.5636 84.8492 40.5636 80.315C40.5636 75.7807 36.8878 72.105 32.3536 72.105C27.8193 72.105 24.1436 75.7807 24.1436 80.315C24.1436 84.8492 27.8193 88.525 32.3536 88.525Z" fill="#DDA63A"/>
<path d="M36.9049 53.2619C39.7491 53.2619 42.0549 50.9562 42.0549 48.1119C42.0549 45.2676 39.7491 42.9619 36.9049 42.9619C34.0606 42.9619 31.7549 45.2676 31.7549 48.1119C31.7549 50.9562 34.0606 53.2619 36.9049 53.2619Z" fill="#4C9F38"/>
<path d="M37.512 64.8595C38.5089 64.8595 39.317 64.0514 39.317 63.0545C39.317 62.0576 38.5089 61.2495 37.512 61.2495C36.5152 61.2495 35.707 62.0576 35.707 63.0545C35.707 64.0514 36.5152 64.8595 37.512 64.8595Z" fill="#C5192D"/>
<path d="M44.727 36.6879C47.7287 36.6879 50.162 34.2545 50.162 31.2529C50.162 28.2512 47.7287 25.8179 44.727 25.8179C41.7253 25.8179 39.292 28.2512 39.292 31.2529C39.292 34.2545 41.7253 36.6879 44.727 36.6879Z" fill="#FF3A21"/>
<path d="M57.5821 22.4269C61.3349 22.4269 64.3771 19.3847 64.3771 15.6319C64.3771 11.8791 61.3349 8.83691 57.5821 8.83691C53.8293 8.83691 50.7871 11.8791 50.7871 15.6319C50.7871 19.3847 53.8293 22.4269 57.5821 22.4269Z" fill="#26BDE2"/>
<path d="M97.1924 116.91C124.807 116.91 147.192 94.5239 147.192 66.9097C147.192 39.2954 124.807 16.9097 97.1924 16.9097C69.5781 16.9097 47.1924 39.2954 47.1924 66.9097C47.1924 94.5239 69.5781 116.91 97.1924 116.91Z" fill="#FCC30B"/>
<path d="M69.7148 39.9531H73.367L70.1931 52.127H72.5409L75.6714 40.214V38.04H69.7148V39.9531Z" fill="white"/>
<path d="M82.3652 43.7357L83.4522 38.0401H84.5391L85.6261 43.7357H84.6261L84.4522 42.6923H83.4522L83.2783 43.7357H82.3652ZM83.5826 41.9096H84.3652L83.9739 39.6053L83.5826 41.9096ZM85.9739 38.0401H88.2348V38.8227H86.9305V40.4749H87.887V41.2575H86.9305V43.7792H85.9739V38.0401ZM88.6261 38.0401H90.887V38.8227H89.5826V40.4749H90.5391V41.2575H89.5826V43.7792H88.6261V38.0401ZM91.1478 42.2575V39.4749C91.1478 38.5618 91.5826 37.9531 92.5826 37.9531C93.5826 37.9531 94.0609 38.6053 94.0609 39.4749V42.2575C94.0609 43.127 93.6261 43.7792 92.5826 43.7792C91.5826 43.8227 91.1478 43.127 91.1478 42.2575ZM93.1044 42.4314V39.3444C93.1044 38.9966 92.9739 38.7357 92.6261 38.7357C92.2783 38.7357 92.1478 38.9966 92.1478 39.3444V42.4314C92.1478 42.7792 92.2783 43.0401 92.6261 43.0401C92.9739 42.9966 93.1044 42.7792 93.1044 42.4314ZM95.5391 41.127V43.7357H94.5826V38.0401H95.9739C96.9305 38.0401 97.2783 38.5183 97.2783 39.301V40.0401C97.2783 40.6488 97.0609 40.9966 96.4957 41.127L97.4087 43.7357H96.4087L95.5391 41.127ZM95.5391 38.8227V40.6053H95.8435C96.1913 40.6053 96.3218 40.4314 96.3218 40.127V39.301C96.3218 38.9966 96.1913 38.8227 95.8435 38.8227H95.5391ZM100.67 39.5618V42.214C100.67 43.0836 100.322 43.7357 99.2783 43.7357H97.8V38.0401H99.2783C100.278 38.0401 100.67 38.6923 100.67 39.5618ZM99.1478 42.9531C99.5391 42.9531 99.7131 42.7357 99.7131 42.3879V39.3879C99.7131 39.0401 99.5826 38.8227 99.1478 38.8227H98.7565V42.9531H99.1478ZM100.887 43.7357L101.974 38.0401H103.061L104.148 43.7357H103.148L102.974 42.6923H101.974L101.8 43.7357H100.887ZM102.104 41.9096H102.887L102.496 39.6053L102.104 41.9096ZM104.496 38.0401H105.887C106.843 38.0401 107.148 38.4749 107.148 39.301V39.8662C107.148 40.3444 106.974 40.6488 106.582 40.7792C107.061 40.9096 107.278 41.214 107.278 41.7357V42.4749C107.278 43.301 106.93 43.7357 105.974 43.7357H104.496V38.0401ZM105.452 40.4314H105.8C106.104 40.4314 106.235 40.2575 106.235 39.9531V39.2575C106.235 38.9531 106.104 38.7792 105.756 38.7792H105.409V40.4314H105.452ZM105.452 41.1705V42.9531H105.887C106.191 42.9531 106.365 42.7792 106.365 42.4749V41.6053C106.365 41.301 106.235 41.127 105.887 41.127H105.452V41.1705ZM107.756 38.0401H108.713V42.9531H109.843V43.7357H107.756V38.0401ZM110.278 38.0401H112.582V38.8227H111.235V40.4749H112.191V41.2575H111.235V42.9966H112.582V43.7792H110.278V38.0401ZM113.713 43.7357L114.8 38.0401H115.887L116.974 43.7357H115.974L115.8 42.6923H114.8L114.626 43.7357H113.713ZM114.93 41.9096H115.713L115.322 39.6053L114.93 41.9096ZM118.148 40.127V43.7357H117.322V38.0401H118.278L119.322 41.301V38.0401H120.104V43.7357H119.278L118.148 40.127ZM123.495 39.5618V42.214C123.495 43.0836 123.148 43.7357 122.104 43.7357H120.626V38.0401H122.104C123.148 38.0401 123.495 38.6923 123.495 39.5618ZM122.017 42.9531C122.409 42.9531 122.582 42.7357 122.582 42.3879V39.3879C122.582 39.0401 122.452 38.8227 122.017 38.8227H121.626V42.9531H122.017Z" fill="white"/>
<path d="M82.4961 50.6486V47.9094C82.4961 47.0399 82.9309 46.3877 83.9309 46.3877C84.9744 46.3877 85.2787 46.9964 85.2787 47.8225V48.4747H84.4091V47.7355C84.4091 47.3877 84.2787 47.1703 83.9309 47.1703C83.583 47.1703 83.4526 47.4312 83.4526 47.779V50.8225C83.4526 51.1703 83.583 51.4312 83.9309 51.4312C84.2787 51.4312 84.4091 51.2138 84.4091 50.866V49.8225H85.2787V50.8225C85.2787 51.6486 84.9309 52.2573 83.9309 52.2573C82.9309 52.2138 82.4961 51.5616 82.4961 50.6486ZM85.8874 46.4312H86.8439V51.3442H87.9744V52.1268H85.8874V46.4312ZM88.4961 46.4312H90.757V47.2138H89.4526V48.8225H90.4091V49.6051H89.4526V51.3442H90.757V52.1268H88.4961V46.4312ZM91.2352 52.1268L92.3222 46.4312H93.4091L94.4961 52.1268H93.4961L93.3222 51.0833H92.3222L92.1483 52.1268H91.2352ZM92.4526 50.3442H93.2352L92.8439 48.0399L92.4526 50.3442ZM95.757 48.5616V52.1268H94.9309V46.4312H95.8874L96.9309 49.692V46.4312H97.7135V52.1268H96.8874L95.757 48.5616ZM100.279 46.4312H102.54V47.2138H101.235V48.8225H102.192V49.6051H101.235V51.3442H102.54V52.1268H100.279V46.4312ZM103.931 48.5616V52.1268H103.105V46.4312H104.061L105.105 49.692V46.4312H105.887V52.1268H105.061L103.931 48.5616ZM106.539 46.4312H108.8V47.2138H107.496V48.8225H108.453V49.6051H107.496V51.3442H108.8V52.1268H106.539V46.4312ZM110.366 49.5181V52.1268H109.409V46.4312H110.8C111.757 46.4312 112.105 46.9094 112.105 47.692V48.4312C112.105 49.0399 111.887 49.3877 111.322 49.5181L112.235 52.0833H111.235L110.366 49.5181ZM110.366 47.2138V48.9964H110.67C111.018 48.9964 111.148 48.8225 111.148 48.5181V47.692C111.148 47.3877 111.018 47.2138 110.67 47.2138H110.366ZM114.148 49.0833H115.496V52.1268H114.8V51.5181C114.67 51.9529 114.409 52.2138 113.887 52.2138C113.061 52.2138 112.67 51.5616 112.67 50.692V47.9529C112.67 47.0833 113.105 46.4312 114.105 46.4312C115.148 46.4312 115.453 47.0399 115.453 47.866V48.3877H114.583V47.8225C114.583 47.4747 114.453 47.2573 114.105 47.2573C113.757 47.2573 113.626 47.5181 113.626 47.866V50.9094C113.626 51.2573 113.757 51.5181 114.105 51.5181C114.409 51.5181 114.583 51.3442 114.583 50.9529V49.9529H114.148V49.0833ZM117.974 49.9529V52.1268H117.018V49.9529L115.931 46.4312H116.931L117.496 48.6051L118.061 46.4312H118.974L117.974 49.9529Z" fill="white"/>
<path d="M97.583 94.0838C98.0612 94.0838 98.4091 93.6925 98.4091 93.3012V88.8229C98.4091 88.4316 98.0177 88.0403 97.583 88.0403C97.1047 88.0403 96.7569 88.4751 96.7569 88.8229V93.3012C96.7569 93.649 97.1482 94.0838 97.583 94.0838ZM97.496 66.0838C91.8438 66.0838 87.2351 70.6925 87.2351 76.3447C87.2351 81.9969 91.8438 86.6056 97.496 86.6056C103.148 86.6056 107.757 81.9969 107.757 76.3447C107.757 70.649 103.192 66.0838 97.496 66.0838ZM96.7569 70.1273C96.7569 69.7795 97.1047 69.4316 97.5395 69.4316C97.9743 69.4316 98.2786 69.8229 98.2786 70.1273V73.649C98.2786 73.9969 97.9308 74.3447 97.5395 74.3447C97.1047 74.3447 96.7569 73.9534 96.7569 73.649V70.1273ZM97.496 81.5621C94.5395 81.5621 92.1482 79.1708 92.1482 76.2142C92.1482 73.8229 93.7134 71.7795 95.8873 71.1273V73.1273C94.7569 73.6925 93.9743 74.8664 93.9743 76.2142C93.9743 78.1273 95.5395 79.6925 97.4525 79.6925C99.3656 79.6925 100.931 78.1273 100.931 76.2142C100.931 74.8664 100.148 73.6925 99.0177 73.0838V71.0838C101.192 71.736 102.757 73.7795 102.757 76.1708C102.844 79.1708 100.453 81.5621 97.496 81.5621ZM85.7569 76.2142C85.7569 75.736 85.3656 75.3882 84.9743 75.3882H80.4525C80.0612 75.3882 79.6699 75.7795 79.6699 76.2142C79.6699 76.6925 80.1047 77.0403 80.4525 77.0403H84.9308C85.3221 77.0838 85.7569 76.6925 85.7569 76.2142ZM115.365 76.2142C115.365 75.736 114.974 75.3882 114.583 75.3882H110.105C109.713 75.3882 109.322 75.7795 109.322 76.2142C109.322 76.6925 109.757 77.0403 110.105 77.0403H114.583C114.931 77.0838 115.365 76.6925 115.365 76.2142ZM97.496 64.4751C97.9743 64.4751 98.3221 64.0838 98.3221 63.6925V59.2142C98.3221 58.8229 97.9308 58.4316 97.496 58.4316C97.0177 58.4316 96.6699 58.8664 96.6699 59.2142V63.649C96.6699 64.0403 97.0612 64.4751 97.496 64.4751ZM87.2786 70.3882C87.496 69.9969 87.3221 69.4316 87.0177 69.2577L83.1047 67.0403C82.7569 66.8664 82.2351 66.9534 82.0177 67.3882C81.8004 67.7795 81.9743 68.3447 82.2786 68.5186L86.1917 70.736C86.496 70.9099 87.0612 70.7795 87.2786 70.3882ZM113.018 85.0838C113.235 84.6925 113.061 84.1273 112.757 83.9534L108.844 81.736C108.496 81.5621 107.974 81.649 107.757 82.0838C107.539 82.4751 107.713 83.0403 108.018 83.2142L111.931 85.4316C112.235 85.6056 112.757 85.5186 113.018 85.0838ZM103.366 65.9969C103.757 66.2142 104.279 66.0403 104.496 65.736L106.713 61.8229C106.887 61.4751 106.8 60.9534 106.365 60.736C105.974 60.5186 105.409 60.6925 105.235 60.9969L103.018 64.9099C102.844 65.2577 102.974 65.7795 103.366 65.9969ZM88.6264 91.736C89.0177 91.9534 89.5395 91.7795 89.7569 91.4751L91.9743 87.5621C92.1482 87.2142 92.0612 86.6925 91.6264 86.4751C91.2351 86.2577 90.6699 86.4316 90.496 86.736L88.2786 90.649C88.1047 90.9534 88.2351 91.4751 88.6264 91.736ZM91.6264 66.0403C92.0177 65.8229 92.1482 65.2577 91.9743 64.9534L89.7569 61.0403C89.583 60.6925 89.0177 60.5186 88.6264 60.7795C88.2351 60.9969 88.1047 61.5621 88.2786 61.9099L90.496 65.8229C90.7134 66.0838 91.2351 66.2577 91.6264 66.0403ZM106.409 91.6925C106.8 91.4751 106.931 90.9099 106.757 90.6056L104.539 86.6925C104.366 86.3447 103.8 86.1708 103.409 86.4316C103.018 86.649 102.887 87.2142 103.061 87.5621L105.279 91.4751C105.453 91.7795 106.018 91.9534 106.409 91.6925ZM107.713 70.3447C107.931 70.736 108.496 70.8664 108.8 70.6925L112.713 68.4751C113.061 68.3012 113.235 67.736 112.974 67.3447C112.757 66.9534 112.192 66.8229 111.844 66.9969L107.931 69.2143C107.67 69.4316 107.496 69.9534 107.713 70.3447ZM82.0612 85.1273C82.2786 85.5186 82.8438 85.649 83.1482 85.4751L87.0612 83.2577C87.4091 83.0838 87.583 82.5186 87.3221 82.1273C87.1047 81.736 86.5395 81.6056 86.1917 81.7795L82.2786 83.9969C81.9743 84.1708 81.8004 84.736 82.0612 85.1273Z" fill="white"/>
<path d="M150.714 126.208C157.817 126.208 163.574 120.451 163.574 113.348C163.574 106.246 157.817 100.488 150.714 100.488C143.612 100.488 137.854 106.246 137.854 113.348C137.854 120.451 143.612 126.208 150.714 126.208Z" fill="#A21942"/>
<path d="M145.224 108.662V108.26C145.224 107.913 145.101 107.656 144.821 107.533C145.067 107.41 145.179 107.198 145.179 106.907V106.761C145.179 106.191 144.888 105.889 144.318 105.889C143.759 105.889 143.468 106.191 143.468 106.761V106.907C143.468 107.198 143.58 107.421 143.815 107.533C143.535 107.656 143.412 107.913 143.412 108.26V108.651C143.412 109.199 143.669 109.591 144.318 109.591C144.955 109.602 145.224 109.21 145.224 108.662ZM144.038 106.717C144.038 106.493 144.117 106.37 144.307 106.37C144.508 106.37 144.586 106.493 144.586 106.717V106.963C144.586 107.186 144.508 107.309 144.307 107.309C144.105 107.309 144.038 107.175 144.038 106.963V106.717ZM144.609 108.73C144.609 108.953 144.53 109.11 144.307 109.11C144.094 109.11 144.016 108.953 144.016 108.73V108.137C144.016 107.913 144.094 107.768 144.307 107.768C144.53 107.768 144.609 107.924 144.609 108.137V108.73Z" fill="white"/>
<path d="M154.215 113.27L152.381 115.014C152.314 115.082 152.281 115.137 152.281 115.272V120.147C152.281 120.203 152.325 120.248 152.381 120.248H154.271C154.327 120.248 154.372 120.203 154.372 120.147V113.315C154.383 113.248 154.338 113.147 154.215 113.27ZM148.948 115.529L147.114 117.273C147.047 117.34 147.014 117.396 147.014 117.53V120.136C147.014 120.192 147.058 120.237 147.114 120.237H149.004C149.06 120.237 149.105 120.192 149.105 120.136V115.574C149.116 115.518 149.071 115.417 148.948 115.529Z" fill="white"/>
<path d="M155.054 111.156C155.054 111.145 155.054 111.123 155.043 111.112C155.032 111.101 155.02 111.101 155.009 111.101H154.987L153.589 111.414H153.567C153.556 111.414 153.544 111.425 153.544 111.425C153.522 111.447 153.522 111.481 153.544 111.503L153.556 111.514L153.88 111.839L150.704 115.014L149.239 113.55C149.228 113.538 149.194 113.538 149.183 113.55L148.781 113.952L146.432 116.301C146.421 116.312 146.421 116.345 146.432 116.356L146.835 116.759C146.846 116.77 146.88 116.77 146.891 116.759L149.217 114.444L150.279 115.507L150.682 115.909C150.693 115.92 150.726 115.92 150.738 115.909L154.338 112.308L154.674 112.644C154.696 112.666 154.73 112.666 154.752 112.644C154.763 112.633 154.763 112.621 154.763 112.61L155.076 111.179L155.054 111.156Z" fill="white"/>
<path d="M151.598 115.842L150.715 116.737C150.692 116.748 150.67 116.748 150.659 116.737L149.854 115.92C149.708 115.775 149.675 115.898 149.675 115.954V120.158C149.675 120.214 149.72 120.259 149.775 120.259H151.665C151.721 120.259 151.766 120.214 151.766 120.158V115.887C151.766 115.808 151.721 115.708 151.598 115.842Z" fill="white"/>
<path d="M147.304 106.314V106.996C147.304 107.22 147.215 107.388 146.947 107.388H146.566V105.923H146.947C147.215 105.923 147.304 106.09 147.304 106.314ZM146.913 107.186C147.014 107.186 147.058 107.13 147.058 107.041V106.269C147.058 106.18 147.025 106.124 146.913 106.124H146.812V107.186H146.913ZM147.461 105.923H148.054V106.124H147.707V106.549H147.953V106.75H147.707V107.198H148.054V107.399H147.461V105.923ZM148.177 107.007V106.292C148.177 106.057 148.289 105.9 148.546 105.9C148.814 105.9 148.892 106.057 148.892 106.269V106.448H148.669V106.247C148.669 106.158 148.635 106.102 148.546 106.102C148.456 106.102 148.423 106.169 148.423 106.258V107.052C148.423 107.142 148.456 107.209 148.546 107.209C148.635 107.209 148.669 107.153 148.669 107.063V106.795H148.892V107.052C148.892 107.265 148.803 107.421 148.546 107.421C148.289 107.41 148.177 107.231 148.177 107.007ZM149.049 105.923H149.642V106.124H149.295V106.549H149.541V106.75H149.295V107.198H149.642V107.399H149.049V105.923ZM149.988 106.46V107.388H149.776V105.923H150.022L150.29 106.761V105.923H150.492V107.388H150.279L149.988 106.46ZM150.626 105.923H151.285V106.124H151.084V107.388H150.838V106.124H150.637V105.923H150.626ZM152.191 106.482L152.057 107.388H151.822L151.621 105.923H151.856L151.968 106.851L152.091 105.923H152.292L152.426 106.851L152.538 105.923H152.75L152.56 107.388H152.337L152.191 106.482ZM152.851 107.007V106.292C152.851 106.057 152.963 105.9 153.22 105.9C153.477 105.9 153.6 106.068 153.6 106.292V107.007C153.6 107.231 153.488 107.399 153.22 107.399C152.963 107.41 152.851 107.231 152.851 107.007ZM153.343 107.052V106.258C153.343 106.169 153.309 106.102 153.22 106.102C153.131 106.102 153.097 106.169 153.097 106.258V107.052C153.097 107.142 153.131 107.209 153.22 107.209C153.309 107.198 153.343 107.142 153.343 107.052ZM154.003 106.717V107.388H153.757V105.923H154.115C154.361 105.923 154.45 106.046 154.45 106.247V106.437C154.45 106.594 154.394 106.683 154.249 106.717L154.484 107.388H154.226L154.003 106.717ZM154.003 106.124V106.583H154.081C154.171 106.583 154.204 106.538 154.204 106.46V106.247C154.204 106.169 154.171 106.124 154.081 106.124H154.003ZM154.853 106.672V107.388H154.607V105.923H154.853V106.571L155.121 105.923H155.367L155.076 106.583L155.367 107.388H155.11L154.853 106.672ZM155.714 107.388L155.993 105.923H156.273L156.552 107.388H156.295L156.251 107.119H155.993L155.949 107.388H155.714ZM156.027 106.918H156.228L156.127 106.325L156.027 106.918ZM156.843 106.46V107.388H156.631V105.923H156.877L157.145 106.761V105.923H157.346V107.388H157.134L156.843 106.46ZM158.252 106.314V106.996C158.252 107.22 158.163 107.388 157.894 107.388H157.514V105.923H157.894C158.163 105.923 158.252 106.09 158.252 106.314ZM157.861 107.186C157.961 107.186 158.006 107.13 158.006 107.041V106.269C158.006 106.18 157.973 106.124 157.861 106.124H157.76V107.186H157.861Z" fill="white"/>
<path d="M146.566 108.081H147.159V108.283H146.812V108.708H147.058V108.909H146.812V109.356H147.159V109.558H146.566V108.081ZM147.26 109.166V108.45C147.26 108.216 147.372 108.059 147.629 108.059C147.897 108.059 147.975 108.216 147.975 108.428V108.607H147.752V108.417C147.752 108.327 147.718 108.272 147.629 108.272C147.539 108.272 147.506 108.339 147.506 108.428V109.222C147.506 109.312 147.539 109.379 147.629 109.379C147.718 109.379 147.752 109.323 147.752 109.233V108.965H147.975V109.222C147.975 109.435 147.886 109.591 147.629 109.591C147.372 109.569 147.26 109.401 147.26 109.166ZM148.11 109.166V108.45C148.11 108.216 148.221 108.059 148.479 108.059C148.736 108.059 148.859 108.227 148.859 108.45V109.166C148.859 109.39 148.747 109.558 148.479 109.558C148.233 109.569 148.11 109.401 148.11 109.166ZM148.613 109.211V108.417C148.613 108.327 148.579 108.26 148.49 108.26C148.4 108.26 148.367 108.327 148.367 108.417V109.211C148.367 109.3 148.4 109.367 148.49 109.367C148.579 109.356 148.613 109.3 148.613 109.211ZM149.217 108.629V109.558H149.004V108.093H149.25L149.519 108.931V108.093H149.72V109.558H149.507L149.217 108.629ZM149.865 109.166V108.45C149.865 108.216 149.977 108.059 150.234 108.059C150.492 108.059 150.615 108.227 150.615 108.45V109.166C150.615 109.39 150.503 109.558 150.234 109.558C149.977 109.569 149.865 109.401 149.865 109.166ZM150.357 109.211V108.417C150.357 108.327 150.324 108.26 150.234 108.26C150.145 108.26 150.111 108.327 150.111 108.417V109.211C150.111 109.3 150.145 109.367 150.234 109.367C150.324 109.356 150.357 109.3 150.357 109.211ZM151.431 108.596L151.252 109.546H151.14L150.961 108.596V109.546H150.76V108.081H151.051L151.207 108.909L151.353 108.081H151.666V109.546H151.442L151.431 108.596ZM151.8 108.081H152.046V109.546H151.8V108.081ZM152.18 109.166V108.45C152.18 108.216 152.292 108.059 152.549 108.059C152.817 108.059 152.896 108.216 152.896 108.428V108.607H152.672V108.417C152.672 108.327 152.639 108.272 152.549 108.272C152.46 108.272 152.426 108.339 152.426 108.428V109.222C152.426 109.312 152.46 109.379 152.549 109.379C152.639 109.379 152.672 109.323 152.672 109.233V108.965H152.896V109.222C152.896 109.435 152.806 109.591 152.549 109.591C152.292 109.569 152.18 109.401 152.18 109.166ZM153.701 108.764H154.048V109.546H153.869V109.39C153.835 109.502 153.768 109.569 153.634 109.569C153.421 109.569 153.321 109.401 153.321 109.177V108.462C153.321 108.227 153.432 108.07 153.69 108.07C153.958 108.07 154.048 108.227 154.048 108.439V108.573H153.824V108.428C153.824 108.339 153.79 108.283 153.701 108.283C153.611 108.283 153.578 108.35 153.578 108.439V109.233C153.578 109.323 153.611 109.39 153.701 109.39C153.779 109.39 153.824 109.345 153.824 109.244V108.987H153.712V108.764H153.701ZM154.461 108.875V109.546H154.215V108.081H154.573C154.819 108.081 154.909 108.204 154.909 108.406V108.596C154.909 108.752 154.853 108.842 154.707 108.875L154.942 109.546H154.685L154.461 108.875ZM154.461 108.283V108.741H154.54C154.629 108.741 154.663 108.696 154.663 108.618V108.406C154.663 108.327 154.629 108.283 154.54 108.283H154.461ZM155.02 109.166V108.45C155.02 108.216 155.132 108.059 155.389 108.059C155.647 108.059 155.77 108.227 155.77 108.45V109.166C155.77 109.39 155.658 109.558 155.389 109.558C155.132 109.569 155.02 109.401 155.02 109.166ZM155.524 109.211V108.417C155.524 108.327 155.49 108.26 155.401 108.26C155.311 108.26 155.278 108.327 155.278 108.417V109.211C155.278 109.3 155.311 109.367 155.401 109.367C155.49 109.356 155.524 109.3 155.524 109.211ZM156.407 108.641L156.273 109.546H156.038L155.837 108.081H156.072L156.183 109.01L156.306 108.081H156.508L156.642 109.01L156.754 108.081H156.966L156.776 109.546H156.541L156.407 108.641ZM157.056 108.081H157.715V108.283H157.514V109.546H157.257V108.283H157.056V108.081ZM158.275 108.898H158.04V109.546H157.794V108.081H158.04V108.708H158.275V108.081H158.521V109.546H158.275V108.898Z" fill="white"/>
<path d="M145.355 28.0615C152.057 28.0615 157.49 22.6285 157.49 15.9265C157.49 9.22453 152.057 3.7915 145.355 3.7915C138.653 3.7915 133.22 9.22453 133.22 15.9265C133.22 22.6285 138.653 28.0615 145.355 28.0615Z" fill="#FD6925"/>
<g clip-path="url(#clip0_6428_4118)">
<path d="M139.983 9.73249C139.983 9.20488 139.751 8.81445 139.15 8.81445C138.538 8.81445 138.306 9.15212 138.306 9.67973V10.1862C138.306 10.7455 138.527 11.0304 138.939 11.0304C139.181 11.0304 139.329 10.9143 139.414 10.7561V11.4947C139.414 11.7057 139.329 11.8429 139.129 11.8429C138.918 11.8429 138.844 11.7269 138.844 11.5053V11.2731H138.316V11.4525C138.316 11.959 138.496 12.3072 139.139 12.3072C139.741 12.3072 139.983 11.9168 139.983 11.3786V9.73249ZM139.414 10.2601C139.403 10.45 139.319 10.5767 139.139 10.5767C138.939 10.5767 138.865 10.4606 138.865 10.2284V9.63752C138.865 9.41593 138.949 9.2893 139.139 9.2893C139.329 9.2893 139.403 9.41593 139.403 9.63752V10.2601H139.414ZM149.607 18.6174L147.592 17.4567V15.1247C147.592 15.0719 147.57 15.0297 147.518 15.0086L145.428 13.8056C145.386 13.7845 145.333 13.7845 145.291 13.8056L143.202 15.0086C143.16 15.0297 143.128 15.0824 143.128 15.1247V17.4567L141.113 18.6174C141.07 18.6385 141.039 18.6913 141.039 18.7335V21.1394C141.039 21.1921 141.06 21.2344 141.113 21.2555L143.202 22.4584C143.223 22.469 143.244 22.4795 143.276 22.4795C143.297 22.4795 143.328 22.469 143.35 22.4584L145.365 21.2977L147.381 22.4584C147.402 22.469 147.423 22.4795 147.454 22.4795C147.486 22.4795 147.507 22.469 147.528 22.4584L149.618 21.2555C149.66 21.2344 149.691 21.1816 149.691 21.1394V18.7335C149.67 18.6807 149.649 18.6385 149.607 18.6174ZM145.217 20.9072L143.54 19.9364L145.217 18.9656V20.9072ZM147.169 17.5305L145.492 18.5013V16.5703L147.169 17.5305ZM145.217 18.4908L143.54 17.52L145.217 16.5492V18.4908ZM145.639 18.7335L147.454 17.6888L149.269 18.7335L147.454 19.7782L145.639 18.7335ZM147.307 17.2878L145.629 16.317L147.307 15.3462V17.2878ZM145.08 16.3276L143.402 17.2984V15.3674L145.08 16.3276ZM143.139 22.1102L141.324 21.0655V18.9762L143.139 20.0209V22.1102ZM143.413 22.1102V20.1791L145.091 21.1499L143.413 22.1102ZM149.396 21.0655L147.581 22.1102V20.0209L149.396 18.9762V21.0655Z" fill="white"/>
<path d="M140.881 8.89874H141.102V10.1861H140.881V8.89874ZM141.408 9.38414V10.1967H141.229V8.90929H141.44L141.672 9.64794V8.90929H141.852V10.1967H141.662L141.408 9.38414ZM142.633 9.24696V9.84843C142.633 10.0489 142.548 10.1967 142.316 10.1967H141.978V8.90929H142.316C142.559 8.89874 142.633 9.04647 142.633 9.24696ZM142.295 10.0173C142.379 10.0173 142.421 9.96451 142.421 9.89064V9.2153C142.421 9.14144 142.39 9.08867 142.295 9.08867H142.2V10.0278L142.295 10.0173ZM143.403 8.89874V9.86954C143.403 10.07 143.318 10.1967 143.097 10.1967C142.865 10.1967 142.77 10.07 142.77 9.86954V8.89874H142.991V9.89064C142.991 9.96451 143.023 10.0173 143.097 10.0173C143.171 10.0173 143.202 9.96451 143.202 9.89064V8.89874H143.403ZM143.519 9.91174V9.74291H143.719V9.9223C143.719 9.99616 143.751 10.0384 143.825 10.0384C143.888 10.0384 143.92 9.99616 143.92 9.9223V9.86954C143.92 9.79567 143.888 9.75346 143.825 9.69015L143.698 9.56352C143.572 9.4369 143.519 9.36303 143.519 9.2153V9.17309C143.519 9.01481 143.614 8.88818 143.825 8.88818C144.047 8.88818 144.131 8.99371 144.131 9.18364V9.28917H143.93V9.17309C143.93 9.09923 143.899 9.06757 143.825 9.06757C143.762 9.06757 143.719 9.09923 143.719 9.17309V9.20475C143.719 9.27861 143.762 9.32082 143.825 9.38414L143.962 9.52131C144.078 9.63739 144.141 9.71125 144.141 9.85898V9.9223C144.141 10.1017 144.047 10.2283 143.825 10.2283C143.603 10.2072 143.519 10.0806 143.519 9.91174ZM144.194 8.89874H144.775V9.07812H144.595V10.1861H144.374V9.07812H144.194V8.89874ZM145.091 9.59518V10.1861H144.88V8.89874H145.197C145.418 8.89874 145.492 9.00426 145.492 9.18364V9.35248C145.492 9.48966 145.439 9.57407 145.323 9.60573L145.534 10.1861H145.302L145.091 9.59518ZM145.091 9.07812V9.47911H145.165C145.239 9.47911 145.271 9.4369 145.271 9.37358V9.18364C145.271 9.10978 145.239 9.07812 145.165 9.07812H145.091ZM145.999 9.7007V10.1861H145.777V9.7007L145.534 8.89874H145.756L145.883 9.38414L146.009 8.89874H146.22L145.999 9.7007ZM146.452 9.99616L146.347 10.2916H146.22L146.252 9.98561H146.452V9.99616ZM146.801 8.89874H147.022V10.1861H146.801V8.89874ZM147.328 9.38414V10.1967H147.149V8.90929H147.36L147.592 9.64794V8.90929H147.771V10.1967H147.582L147.328 9.38414ZM148.088 9.38414V10.1967H147.909V8.90929H148.12L148.352 9.64794V8.90929H148.531V10.1967H148.341L148.088 9.38414ZM148.668 9.85898V9.23641C148.668 9.03591 148.763 8.88818 148.996 8.88818C149.228 8.88818 149.323 9.03591 149.323 9.23641V9.85898C149.323 10.0595 149.228 10.2072 148.996 10.2072C148.763 10.2072 148.668 10.0595 148.668 9.85898ZM149.112 9.89064V9.1942C149.112 9.12033 149.08 9.05702 148.996 9.05702C148.922 9.05702 148.89 9.10978 148.89 9.1942V9.89064C148.89 9.96451 148.922 10.0278 148.996 10.0278C149.069 10.0278 149.112 9.97506 149.112 9.89064ZM150.156 8.89874L149.914 10.1861H149.681L149.439 8.89874H149.66L149.808 9.79567L149.956 8.89874H150.156ZM150.125 10.1861L150.367 8.89874H150.61L150.853 10.1861H150.631L150.589 9.95395H150.367L150.325 10.1861H150.125ZM150.388 9.78512H150.557L150.473 9.26806L150.388 9.78512ZM150.832 8.89874H151.412V9.07812H151.233V10.1861H151.011V9.07812H150.832V8.89874ZM151.517 8.89874H151.739V10.1861H151.517V8.89874ZM151.876 9.85898V9.23641C151.876 9.03591 151.971 8.88818 152.203 8.88818C152.436 8.88818 152.531 9.03591 152.531 9.23641V9.85898C152.531 10.0595 152.436 10.2072 152.203 10.2072C151.971 10.2072 151.876 10.0595 151.876 9.85898ZM152.309 9.89064V9.1942C152.309 9.12033 152.277 9.05702 152.193 9.05702C152.119 9.05702 152.087 9.10978 152.087 9.1942V9.89064C152.087 9.96451 152.119 10.0278 152.193 10.0278C152.277 10.0278 152.309 9.97506 152.309 9.89064ZM152.847 9.38414V10.1967H152.668V8.90929H152.879L153.111 9.64794V8.90929H153.29V10.1967H153.1L152.847 9.38414Z" fill="white"/>
<path d="M140.839 12.2333L141.082 10.9459H141.324L141.567 12.2333H141.345L141.303 12.0011H141.082L141.039 12.2333H140.839ZM141.113 11.8217H141.282L141.198 11.3047L141.113 11.8217ZM141.841 11.4208V12.2333H141.662V10.9459H141.873L142.105 11.6846V10.9459H142.285V12.2333H142.095L141.841 11.4208ZM143.065 11.2836V11.8851C143.065 12.0855 142.981 12.2333 142.749 12.2333H142.411V10.9459H142.749C142.981 10.9459 143.065 11.0936 143.065 11.2836ZM142.728 12.0539C142.812 12.0539 142.854 12.0011 142.854 11.9273V11.2519C142.854 11.1781 142.823 11.1253 142.728 11.1253H142.633V12.0644L142.728 12.0539ZM143.403 10.9459H143.625V12.2333H143.403V10.9459ZM143.941 11.4208V12.2333H143.762V10.9459H143.973L144.205 11.6846V10.9459H144.384V12.2333H144.194L143.941 11.4208ZM144.522 10.9459H145.028V11.1253H144.733V11.4946H144.954V11.674H144.733V12.2438H144.511L144.522 10.9459ZM145.345 11.6424V12.2333H145.123V10.9459H145.44C145.661 10.9459 145.735 11.0514 145.735 11.2308V11.3997C145.735 11.5368 145.682 11.6212 145.566 11.6529L145.777 12.2333H145.545L145.345 11.6424ZM145.345 11.1147V11.5157H145.419C145.492 11.5157 145.524 11.4735 145.524 11.4102V11.2203C145.524 11.1464 145.492 11.1147 145.419 11.1147H145.345ZM145.841 12.2333L146.083 10.9459H146.326L146.569 12.2333H146.347L146.305 12.0011H146.073L146.031 12.2333H145.841ZM146.104 11.8217H146.273L146.189 11.3047L146.104 11.8217ZM146.643 11.9484V11.7795H146.843V11.9589C146.843 12.0328 146.875 12.075 146.949 12.075C147.012 12.075 147.044 12.0328 147.044 11.9589V11.9062C147.044 11.8323 147.012 11.7901 146.949 11.7268L146.822 11.6001C146.695 11.4735 146.643 11.3997 146.643 11.2519V11.2097C146.643 11.0514 146.738 10.9248 146.949 10.9248C147.17 10.9248 147.255 11.0303 147.255 11.2203V11.3258H147.054V11.2097C147.054 11.1358 147.022 11.1042 146.949 11.1042C146.885 11.1042 146.843 11.1358 146.843 11.2097V11.2414C146.843 11.3152 146.885 11.3574 146.949 11.4208L147.086 11.5579C147.202 11.674 147.265 11.7479 147.265 11.8956V11.9589C147.265 12.1383 147.17 12.2649 146.949 12.2649C146.727 12.2649 146.643 12.1172 146.643 11.9484ZM147.328 10.9459H147.909V11.1253H147.729V12.2333H147.508V11.1253H147.328V10.9459ZM148.236 11.6424V12.2333H148.014V10.9459H148.331C148.552 10.9459 148.626 11.0514 148.626 11.2308V11.3997C148.626 11.5368 148.574 11.6212 148.458 11.6529L148.669 12.2333H148.436L148.236 11.6424ZM148.236 11.1147V11.5157H148.31C148.384 11.5157 148.415 11.4735 148.415 11.4102V11.2203C148.415 11.1464 148.384 11.1147 148.31 11.1147H148.236ZM149.386 10.9459V11.9167C149.386 12.1172 149.302 12.2438 149.08 12.2438C148.848 12.2438 148.753 12.1172 148.753 11.9167V10.9459H148.975V11.9378C148.975 12.0117 149.006 12.0644 149.08 12.0644C149.154 12.0644 149.186 12.0117 149.186 11.9378V10.9459H149.386ZM149.523 11.8956V11.273C149.523 11.0725 149.618 10.9248 149.85 10.9248C150.093 10.9248 150.156 11.062 150.156 11.2519V11.3997H149.956V11.2308C149.956 11.1464 149.924 11.1042 149.85 11.1042C149.777 11.1042 149.745 11.157 149.745 11.2414V11.9378C149.745 12.0117 149.777 12.075 149.85 12.075C149.924 12.075 149.956 12.0222 149.956 11.9484V11.7057H150.156V11.9273C150.156 12.1066 150.083 12.2438 149.85 12.2438C149.618 12.2438 149.523 12.0961 149.523 11.8956ZM150.199 10.9459H150.779V11.1253H150.6V12.2333H150.378V11.1253H150.199V10.9459ZM151.518 10.9459V11.9167C151.518 12.1172 151.433 12.2438 151.212 12.2438C150.979 12.2438 150.885 12.1172 150.885 11.9167V10.9459H151.106V11.9378C151.106 12.0117 151.138 12.0644 151.212 12.0644C151.285 12.0644 151.317 12.0117 151.317 11.9378V10.9459H151.518ZM151.866 11.6424V12.2333H151.644V10.9459H151.961C152.182 10.9459 152.256 11.0514 152.256 11.2308V11.3997C152.256 11.5368 152.204 11.6212 152.087 11.6529L152.299 12.2333H152.066L151.866 11.6424ZM151.866 11.1147V11.5157H151.94C152.014 11.5157 152.045 11.4735 152.045 11.4102V11.2203C152.045 11.1464 152.014 11.1147 151.94 11.1147H151.866ZM152.393 10.9459H152.911V11.1253H152.615V11.4946H152.826V11.674H152.615V12.0644H152.911V12.2438H152.393V10.9459Z" fill="white"/>
</g>
<path d="M157.886 93.4613C161.233 93.4613 163.946 90.7482 163.946 87.4013C163.946 84.0545 161.233 81.3413 157.886 81.3413C154.539 81.3413 151.826 84.0545 151.826 87.4013C151.826 90.7482 154.539 93.4613 157.886 93.4613Z" fill="#DD1367"/>
<path d="M187.313 83.4724C205.95 83.4724 221.058 68.3643 221.058 49.7274C221.058 31.0906 205.95 15.9824 187.313 15.9824C168.677 15.9824 153.568 31.0906 153.568 49.7274C153.568 68.3643 168.677 83.4724 187.313 83.4724Z" fill="#FD9D24"/>
<path d="M167.301 31.9749V33.6475L168.445 32.4738V39.7509H170.059V30.2437H168.768L167.301 31.9749ZM170.939 31.9749V33.6475H170.969L172.084 32.4738V39.7509H173.698V30.2437H172.407L170.939 31.9749Z" fill="white"/>
<path d="M171.703 62.2277H178.804C178.892 62.2277 178.98 62.1396 178.98 62.0516C178.98 61.9929 178.95 61.9636 178.921 61.9342L175.4 57.3566L175.37 57.3273C175.341 57.298 175.282 57.2686 175.253 57.2686C175.224 57.2686 175.165 57.298 175.136 57.3273L175.106 57.3566L175.077 57.386L171.614 61.9049L171.556 61.9636C171.526 61.9929 171.526 62.0223 171.526 62.0516C171.526 62.1396 171.614 62.2277 171.703 62.2277ZM178.774 62.8732H171.644C171.556 62.8732 171.468 62.9612 171.468 63.0493V68.6245C171.468 68.7126 171.556 68.8006 171.644 68.8006H173.933V65.3087C173.933 65.2207 174.021 65.1327 174.109 65.1327H176.221C176.309 65.1327 176.397 65.2207 176.397 65.3087V68.8006H178.745C178.833 68.8006 178.921 68.7126 178.921 68.6245V63.0493C178.95 62.9612 178.892 62.8732 178.774 62.8732ZM203.364 61.406H196.322C196.234 61.406 196.146 61.4941 196.146 61.5821V68.6832C196.146 68.7713 196.234 68.8593 196.322 68.8593H203.364C203.452 68.8593 203.54 68.7713 203.54 68.6832V61.5821C203.54 61.4941 203.482 61.406 203.364 61.406ZM199.52 66.0717C199.52 66.1597 199.432 66.2477 199.344 66.2477H197.231C197.143 66.2477 197.055 66.1597 197.055 66.0717V64.7805C197.055 64.6925 197.143 64.6045 197.231 64.6045H199.344C199.432 64.6045 199.52 64.6925 199.52 64.7805V66.0717ZM199.52 63.6948C199.52 63.7829 199.432 63.8709 199.344 63.8709H197.231C197.143 63.8709 197.055 63.7829 197.055 63.6948V62.4037C197.055 62.3157 197.143 62.2277 197.231 62.2277H199.344C199.432 62.2277 199.52 62.3157 199.52 62.4037V63.6948ZM202.748 66.0717C202.748 66.1597 202.66 66.2477 202.572 66.2477H200.459C200.371 66.2477 200.283 66.1597 200.283 66.0717V64.7805C200.283 64.6925 200.371 64.6045 200.459 64.6045H202.572C202.66 64.6045 202.748 64.6925 202.748 64.7805V66.0717ZM202.748 63.6948C202.748 63.7829 202.66 63.8709 202.572 63.8709H200.459C200.371 63.8709 200.283 63.7829 200.283 63.6948V62.4037C200.283 62.3157 200.371 62.2277 200.459 62.2277H202.572C202.66 62.2277 202.748 62.3157 202.748 62.4037V63.6948ZM186.99 44.915H180.124C180.036 44.915 179.948 45.0031 179.948 45.0911V68.6539C179.948 68.7419 180.036 68.8299 180.124 68.8299H187.02C187.108 68.8299 187.196 68.7419 187.196 68.6539V45.0911C187.167 44.9737 187.108 44.915 186.99 44.915ZM182.912 66.1303C182.912 66.189 182.882 66.2184 182.824 66.2184H181.239C181.18 66.2184 181.151 66.189 181.151 66.1303V64.3697C181.151 64.311 181.18 64.2817 181.239 64.2817H182.824C182.882 64.2817 182.912 64.311 182.912 64.3697V66.1303ZM182.912 62.0809C182.912 62.1396 182.882 62.169 182.824 62.169H181.239C181.18 62.169 181.151 62.1396 181.151 62.0809V60.3203C181.151 60.2616 181.18 60.2323 181.239 60.2323H182.824C182.882 60.2323 182.912 60.2616 182.912 60.3203V62.0809ZM182.912 58.0315C182.912 58.0902 182.882 58.1196 182.824 58.1196H181.239C181.18 58.1196 181.151 58.0902 181.151 58.0315V56.2709C181.151 56.2122 181.18 56.1829 181.239 56.1829H182.824C182.882 56.1829 182.912 56.2122 182.912 56.2709V58.0315ZM182.912 54.0115C182.912 54.0702 182.882 54.0995 182.824 54.0995H181.239C181.18 54.0995 181.151 54.0702 181.151 54.0115V52.2509C181.151 52.1922 181.18 52.1629 181.239 52.1629H182.824C182.882 52.1629 182.912 52.1922 182.912 52.2509V54.0115ZM182.912 49.9621C182.912 50.0208 182.882 50.0501 182.824 50.0501H181.239C181.18 50.0501 181.151 50.0208 181.151 49.9621V48.2015C181.151 48.1428 181.18 48.1135 181.239 48.1135H182.824C182.882 48.1135 182.912 48.1428 182.912 48.2015V49.9621ZM185.993 66.1303C185.993 66.189 185.963 66.2184 185.905 66.2184H184.32C184.262 66.2184 184.232 66.189 184.232 66.1303V64.3697C184.232 64.311 184.262 64.2817 184.32 64.2817H185.905C185.963 64.2817 185.993 64.311 185.993 64.3697V66.1303ZM185.993 62.0809C185.993 62.1396 185.963 62.169 185.905 62.169H184.32C184.262 62.169 184.232 62.1396 184.232 62.0809V60.3203C184.232 60.2616 184.262 60.2323 184.32 60.2323H185.905C185.963 60.2323 185.993 60.2616 185.993 60.3203V62.0809ZM185.993 58.0315C185.993 58.0902 185.963 58.1196 185.905 58.1196H184.32C184.262 58.1196 184.232 58.0902 184.232 58.0315V56.2709C184.232 56.2122 184.262 56.1829 184.32 56.1829H185.905C185.963 56.1829 185.993 56.2122 185.993 56.2709V58.0315ZM185.993 54.0115C185.993 54.0702 185.963 54.0995 185.905 54.0995H184.32C184.262 54.0995 184.232 54.0702 184.232 54.0115V52.2509C184.232 52.1922 184.262 52.1629 184.32 52.1629H185.905C185.963 52.1629 185.993 52.1922 185.993 52.2509V54.0115ZM185.993 49.9621C185.993 50.0208 185.963 50.0501 185.905 50.0501H184.32C184.262 50.0501 184.232 50.0208 184.232 49.9621V48.2015C184.232 48.1428 184.262 48.1135 184.32 48.1135H185.905C185.963 48.1135 185.993 48.1428 185.993 48.2015V49.9621ZM203.54 60.7018C203.54 60.7898 203.482 60.8485 203.393 60.8485H196.292C196.204 60.8485 196.146 60.7898 196.146 60.7018V59.2933C196.146 59.2053 196.204 59.1466 196.292 59.1466H203.393C203.482 59.1466 203.54 59.2053 203.54 59.2933V60.7018ZM195.324 49.3459C195.295 49.2579 195.236 49.2285 195.148 49.2285C195.119 49.2285 195.089 49.2285 195.06 49.2579L195.001 49.3166L188.223 57.9142L188.194 57.9435C188.164 57.9729 188.135 58.0315 188.135 58.0902V68.6539C188.135 68.7419 188.223 68.8299 188.311 68.8299H195.207C195.295 68.8299 195.383 68.7419 195.383 68.6539V49.4046C195.353 49.4046 195.353 49.3752 195.324 49.3459ZM192.478 54.0115L192.536 53.9528C193.006 53.366 193.769 52.3976 194.15 51.9281L194.209 51.8694C194.238 51.8401 194.297 51.8108 194.356 51.8108C194.444 51.8108 194.532 51.8694 194.532 51.9575V54.1289C194.532 54.2463 194.444 54.305 194.356 54.3343H192.654C192.536 54.3343 192.478 54.2463 192.478 54.1289C192.448 54.0995 192.448 54.0409 192.478 54.0115ZM191.392 66.0423C191.392 66.1303 191.304 66.2184 191.216 66.2184H189.162C189.074 66.2184 188.986 66.1303 188.986 66.0423V64.7512C188.986 64.6632 189.074 64.5751 189.162 64.5751H191.216C191.304 64.5751 191.392 64.6632 191.392 64.7512V66.0423ZM191.392 63.6948C191.392 63.7829 191.304 63.8709 191.216 63.8709H189.162C189.074 63.8709 188.986 63.7829 188.986 63.6948V62.4037C188.986 62.3157 189.074 62.2277 189.162 62.2277H191.216C191.304 62.2277 191.392 62.3157 191.392 62.4037V63.6948ZM191.392 61.318C191.392 61.406 191.304 61.4941 191.216 61.4941H189.162C189.074 61.4941 188.986 61.406 188.986 61.318V60.0269C188.986 59.9389 189.074 59.8508 189.162 59.8508H191.216C191.304 59.8508 191.392 59.9389 191.392 60.0269V61.318ZM191.421 56.0949V58.9118C191.421 58.9999 191.333 59.0879 191.245 59.0879H189.191C189.103 59.0879 189.015 58.9999 189.015 58.9118V58.5597V58.501V58.4717C189.015 58.4717 189.015 58.4424 189.045 58.4424C189.045 58.4424 189.045 58.413 189.074 58.413C189.338 58.0315 190.512 56.5644 191.011 55.9775L191.069 55.9188C191.099 55.8895 191.157 55.8601 191.216 55.8601C191.304 55.8601 191.392 55.9188 191.392 56.0068V56.0949H191.421ZM194.561 66.0423C194.561 66.1303 194.473 66.2184 194.385 66.2184H192.331C192.243 66.2184 192.155 66.1303 192.155 66.0423V64.7512C192.155 64.6632 192.243 64.5751 192.331 64.5751H194.385C194.473 64.5751 194.561 64.6632 194.561 64.7512V66.0423ZM194.561 63.6948C194.561 63.7829 194.473 63.8709 194.385 63.8709H192.331C192.243 63.8709 192.155 63.7829 192.155 63.6948V62.4037C192.155 62.3157 192.243 62.2277 192.331 62.2277H194.385C194.473 62.2277 194.561 62.3157 194.561 62.4037V63.6948ZM194.561 61.318C194.561 61.406 194.473 61.4941 194.385 61.4941H192.331C192.243 61.4941 192.155 61.406 192.155 61.318V60.0269C192.155 59.9389 192.243 59.8508 192.331 59.8508H194.385C194.473 59.8508 194.561 59.9389 194.561 60.0269V61.318ZM194.561 58.9412C194.561 59.0292 194.473 59.1173 194.385 59.1173H192.331C192.243 59.1173 192.155 59.0292 192.155 58.9412V57.6501C192.155 57.562 192.243 57.474 192.331 57.474H194.385C194.473 57.474 194.561 57.562 194.561 57.6501V58.9412ZM194.561 56.5644C194.561 56.6524 194.473 56.7404 194.385 56.7404H192.331C192.243 56.7404 192.155 56.6524 192.155 56.5644V55.2733C192.155 55.1853 192.243 55.0972 192.331 55.0972H194.385C194.473 55.0972 194.561 55.1853 194.561 55.2733V56.5644Z" fill="white"/>
<path d="M176.808 33.2656V32.7375H177.424V33.2656C177.424 33.471 177.512 33.6178 177.747 33.6178C177.952 33.6178 178.04 33.471 178.04 33.2656V33.1189C178.04 32.8842 177.952 32.7668 177.747 32.5614L177.365 32.1799C176.984 31.8278 176.837 31.5931 176.837 31.1529V31.0355C176.837 30.566 177.13 30.1846 177.747 30.1846C178.392 30.1846 178.656 30.5073 178.656 31.0649V31.3877H178.069V31.0649C178.069 30.8301 177.981 30.7421 177.776 30.7421C177.6 30.7421 177.483 30.8301 177.483 31.0649V31.1529C177.483 31.3583 177.6 31.505 177.776 31.6811L178.187 32.0919C178.539 32.444 178.715 32.6788 178.715 33.0896V33.2656C178.715 33.7938 178.422 34.1753 177.776 34.1753C177.13 34.1753 176.808 33.7645 176.808 33.2656ZM180.828 30.2433V33.1483C180.828 33.7351 180.564 34.1459 179.918 34.1459C179.243 34.1459 178.95 33.7645 178.95 33.1483V30.2433H179.595V33.2363C179.595 33.471 179.683 33.6178 179.918 33.6178C180.153 33.6178 180.241 33.471 180.241 33.2363V30.2433H180.828ZM181.18 33.2656V32.7375H181.796V33.2656C181.796 33.471 181.884 33.6178 182.119 33.6178C182.324 33.6178 182.412 33.471 182.412 33.2656V33.1189C182.412 32.8842 182.324 32.7668 182.119 32.5614L181.737 32.1799C181.356 31.8278 181.209 31.5931 181.209 31.1529V31.0355C181.209 30.566 181.473 30.1846 182.119 30.1846C182.764 30.1846 183.028 30.5073 183.028 31.0649V31.3877H182.442V31.0649C182.442 30.8301 182.354 30.7421 182.148 30.7421C181.972 30.7421 181.855 30.8301 181.855 31.0649V31.1529C181.855 31.3583 181.972 31.505 182.148 31.6811L182.559 32.0919C182.911 32.444 183.087 32.6788 183.087 33.0896V33.2656C183.087 33.7938 182.794 34.1753 182.148 34.1753C181.415 34.1459 181.18 33.7645 181.18 33.2656ZM183.175 30.2433H184.906V30.7714H184.378V34.0873H183.733V30.7714H183.204V30.2433H183.175ZM184.789 34.0873L185.523 30.2433H186.256L186.99 34.0873H186.315L186.198 33.383H185.523L185.405 34.0873H184.789ZM185.611 32.8548H186.139L185.875 31.2996L185.611 32.8548ZM187.254 30.2433H187.899V34.0873H187.254V30.2433ZM188.809 31.6517V34.0873H188.252V30.2433H188.897L189.601 32.444V30.2433H190.13V34.0873H189.572L188.809 31.6517ZM190.364 34.0873L191.098 30.2433H191.831L192.565 34.0873H191.89L191.773 33.383H191.098L190.981 34.0873H190.364ZM191.186 32.8548H191.714L191.45 31.2996L191.186 32.8548ZM192.77 30.2433H193.709C194.355 30.2433 194.56 30.5367 194.56 31.0942V31.4757C194.56 31.7985 194.443 32.0039 194.179 32.0919C194.502 32.1799 194.648 32.3853 194.648 32.7375V33.2363C194.648 33.7938 194.414 34.0873 193.768 34.0873H192.77V30.2433ZM193.416 31.8571H193.651C193.856 31.8571 193.944 31.7398 193.944 31.5344V31.0649C193.944 30.8595 193.856 30.7421 193.621 30.7421H193.387L193.416 31.8571ZM193.416 32.356V33.5591H193.709C193.915 33.5591 194.032 33.4417 194.032 33.2363V32.6494C194.032 32.444 193.944 32.3266 193.709 32.3266H193.416V32.356ZM194.942 30.2433H195.587V33.5591H196.35V34.0873H194.942V30.2433ZM196.614 30.2433H198.17V30.7714H197.26V31.8865H197.906V32.4147H197.26V33.5884H198.17V34.1166H196.614V30.2433ZM199.255 33.0896V31.2116C199.255 30.5954 199.549 30.1846 200.224 30.1846C200.928 30.1846 201.133 30.5954 201.133 31.1529V31.6224H200.546V31.0942C200.546 30.8595 200.458 30.7128 200.224 30.7128C199.989 30.7128 199.901 30.8888 199.901 31.1236V33.2069C199.901 33.4417 199.989 33.6178 200.224 33.6178C200.458 33.6178 200.546 33.471 200.546 33.2363V32.532H201.133V33.2069C201.133 33.7645 200.899 34.1753 200.224 34.1753C199.519 34.1459 199.255 33.6764 199.255 33.0896ZM201.427 30.2433H202.072V34.0873H201.427V30.2433ZM202.307 30.2433H204.038V30.7714H203.51V34.0873H202.865V30.7714H202.336V30.2433H202.307ZM204.302 30.2433H204.948V34.0873H204.302V30.2433ZM205.3 30.2433H206.855V30.7714H205.946V31.8865H206.591V32.4147H205.946V33.5884H206.855V34.1166H205.3V30.2433ZM207.002 33.2656V32.7375H207.618V33.2656C207.618 33.471 207.706 33.6178 207.941 33.6178C208.146 33.6178 208.234 33.471 208.234 33.2656V33.1189C208.234 32.8842 208.146 32.7668 207.941 32.5614L207.56 32.1799C207.178 31.8278 207.031 31.5931 207.031 31.1529V31.0355C207.031 30.566 207.325 30.1846 207.941 30.1846C208.587 30.1846 208.851 30.5073 208.851 31.0649V31.3877H208.264V31.0649C208.264 30.8301 208.176 30.7421 207.97 30.7421C207.794 30.7421 207.677 30.8301 207.677 31.0649V31.1529C207.677 31.3583 207.794 31.505 207.97 31.6811L208.381 32.0919C208.733 32.444 208.909 32.6788 208.909 33.0896V33.2656C208.909 33.7938 208.616 34.1753 207.97 34.1753C207.325 34.1753 207.002 33.7645 207.002 33.2656Z" fill="white"/>
<path d="M176.808 39.7508L177.541 35.9068H178.275L179.008 39.7508H178.363L178.245 39.0466H177.571L177.453 39.7508H176.808ZM177.629 38.5477H178.157L177.893 36.9925L177.629 38.5477ZM179.83 37.3447V39.7802H179.272V35.9362H179.918L180.622 38.1369V35.9362H181.15V39.7802H180.593L179.83 37.3447ZM183.469 36.9339V38.7238C183.469 39.3107 183.234 39.7508 182.53 39.7508H181.532V35.9068H182.53C183.204 35.9068 183.469 36.347 183.469 36.9339ZM182.442 39.2226C182.706 39.2226 182.823 39.0759 182.823 38.8412V36.8165C182.823 36.5817 182.735 36.435 182.442 36.435H182.177V39.2226H182.442ZM184.408 38.7531V36.8752C184.408 36.259 184.701 35.8481 185.376 35.8481C186.08 35.8481 186.286 36.259 186.286 36.8165V37.286H185.699V36.7871C185.699 36.5524 185.611 36.4057 185.376 36.4057C185.141 36.4057 185.053 36.5817 185.053 36.8165V38.8999C185.053 39.1346 185.141 39.3107 185.376 39.3107C185.611 39.3107 185.699 39.164 185.699 38.9292V38.225H186.286V38.8999C186.286 39.4574 186.051 39.8682 185.376 39.8682C184.672 39.8095 184.408 39.3694 184.408 38.7531ZM186.638 38.7531V36.8752C186.638 36.259 186.931 35.8481 187.606 35.8481C188.281 35.8481 188.604 36.2883 188.604 36.8752V38.7531C188.604 39.34 188.31 39.7802 187.606 39.7802C186.931 39.8095 186.638 39.3694 186.638 38.7531ZM187.929 38.8705V36.7871C187.929 36.5524 187.841 36.3763 187.606 36.3763C187.371 36.3763 187.283 36.5524 187.283 36.7871V38.8705C187.283 39.1053 187.371 39.2813 187.606 39.2813C187.841 39.252 187.929 39.1053 187.929 38.8705ZM190.746 37.2566L190.276 39.7508H189.983L189.513 37.2566V39.7508H188.985V35.9068H189.748L190.159 38.0782L190.54 35.9068H191.362V39.7508H190.775L190.746 37.2566ZM193.475 37.2566L193.005 39.7508H192.712L192.242 37.2566V39.7508H191.714V35.9068H192.477L192.888 38.0782L193.269 35.9068H194.091V39.7508H193.504V37.2566H193.475ZM196.321 35.9068V38.8118C196.321 39.3987 196.057 39.8095 195.411 39.8095C194.736 39.8095 194.443 39.428 194.443 38.8118V35.9068H195.089V38.8999C195.089 39.1346 195.177 39.2813 195.411 39.2813C195.646 39.2813 195.734 39.1346 195.734 38.8999V35.9068H196.321ZM197.201 37.3447V39.7802H196.644V35.9362H197.289L197.994 38.1369V35.9362H198.522V39.7802H197.964L197.201 37.3447ZM198.903 35.9068H199.549V39.7508H198.903V35.9068ZM199.842 35.9068H201.573V36.435H201.045V39.7508H200.37V36.435H199.842V35.9068ZM201.867 35.9068H202.512V39.7508H201.867V35.9068ZM202.865 35.9068H204.42V36.435H203.51V37.5501H204.156V38.0782H203.51V39.252H204.42V39.7802H202.865V35.9068ZM204.684 38.9292V38.401H205.3V38.9292C205.3 39.1346 205.388 39.2813 205.623 39.2813C205.828 39.2813 205.916 39.1346 205.916 38.9292V38.7825C205.916 38.5477 205.828 38.4304 205.623 38.225L205.241 37.8435C204.86 37.4914 204.713 37.2566 204.713 36.8165V36.6991C204.713 36.2296 204.977 35.8481 205.623 35.8481C206.268 35.8481 206.532 36.1709 206.532 36.7284V37.0512H205.946V36.7284C205.946 36.4937 205.858 36.4057 205.652 36.4057C205.476 36.4057 205.359 36.4937 205.359 36.7284V36.8165C205.359 37.0219 205.476 37.1686 205.652 37.3447L206.063 37.7555C206.415 38.1076 206.591 38.3423 206.591 38.7531V38.9292C206.591 39.4574 206.298 39.8389 205.652 39.8389C204.948 39.8095 204.684 39.428 204.684 38.9292Z" fill="white"/>
<path d="M181.205 113.639C187.424 113.639 192.465 108.598 192.465 102.379C192.465 96.1604 187.424 91.1191 181.205 91.1191C174.987 91.1191 169.945 96.1604 169.945 102.379C169.945 108.598 174.987 113.639 181.205 113.639Z" fill="#BF8B2E"/>
<path d="M174.948 96.6217H174.958V99.0597H175.487V95.8775H175.066L174.566 96.4552V97.0133H174.576L174.948 96.6217ZM175.81 96.5336V96.9154H176.299V96.514C176.299 96.3182 176.397 96.2692 176.505 96.2692C176.613 96.2692 176.701 96.3084 176.701 96.5042V96.7686C176.701 97.0329 176.681 97.1308 176.505 97.3169L176.202 97.64C175.908 97.9533 175.8 98.1589 175.8 98.4722V99.0597H177.19V98.6191H176.309V98.4722C176.309 98.2275 176.397 98.1295 176.534 97.9827L176.877 97.6204C177.151 97.3267 177.21 97.1406 177.21 96.8175V96.5042C177.21 96.0538 176.995 95.8384 176.515 95.8384C176.045 95.8384 175.81 96.093 175.81 96.5336ZM185.64 102.996C184.994 102.487 184.23 102.438 183.927 102.438C183.77 102.438 183.623 102.448 183.516 102.477L183.476 102.487C183.065 102.585 182.39 102.741 181.597 103.73L181.577 103.76C181.567 103.779 181.557 103.799 181.557 103.818C181.557 103.838 181.557 103.857 181.567 103.867L181.587 103.897C181.714 104.112 181.822 104.308 181.91 104.464C181.939 104.523 182.027 104.543 182.076 104.484C182.086 104.474 182.086 104.464 182.096 104.464C182.781 103.515 183.32 103.387 183.672 103.309L183.711 103.299C183.76 103.29 183.839 103.28 183.927 103.28C184.093 103.28 184.661 103.309 185.112 103.662C185.513 103.975 185.709 104.474 185.709 105.15C185.709 106.286 185.161 106.726 184.7 106.893C184.524 106.961 184.338 106.991 184.142 106.991C183.672 106.991 183.3 106.805 183.3 106.795L183.271 106.775C182.879 106.599 182.282 106.247 181.724 105.121C180.578 102.82 179.619 102.604 178.982 102.457L178.953 102.448C178.904 102.438 178.767 102.408 178.542 102.408C178.17 102.408 177.465 102.477 176.858 102.966C176.446 103.299 175.947 103.946 175.947 105.121C175.947 105.845 176.094 106.315 176.476 106.814C176.544 106.912 177.21 107.764 178.483 107.764C178.669 107.764 178.865 107.745 179.061 107.705C179.296 107.656 179.648 107.549 180.05 107.255L180.382 107.559C180.422 107.588 180.48 107.588 180.52 107.549C180.539 107.529 180.549 107.51 180.539 107.49L180.794 105.894V105.874C180.794 105.845 180.784 105.825 180.764 105.806C180.745 105.786 180.725 105.777 180.696 105.777L179.139 106.207H179.11C179.09 106.207 179.07 106.217 179.061 106.237C179.041 106.256 179.031 106.286 179.031 106.305C179.031 106.335 179.041 106.354 179.061 106.374L179.384 106.668C179.217 106.775 179.041 106.844 178.884 106.873C178.747 106.903 178.61 106.912 178.473 106.912C177.592 106.912 177.161 106.335 177.142 106.305L177.132 106.295C176.867 105.943 176.769 105.639 176.769 105.111C176.769 104.435 176.965 103.926 177.357 103.613C177.798 103.26 178.356 103.241 178.512 103.241C178.6 103.241 178.679 103.25 178.728 103.26L178.767 103.27C179.276 103.387 179.971 103.544 180.941 105.483C181.45 106.511 182.086 107.177 182.889 107.529C182.987 107.578 183.476 107.813 184.123 107.813C184.416 107.813 184.71 107.764 184.984 107.656C185.454 107.48 186.541 106.883 186.541 105.111C186.571 103.975 186.061 103.329 185.64 102.996Z" fill="white"/>
<path d="M178.62 96.5727V97.1602H178.404V95.8775H178.718C178.933 95.8775 179.011 95.9852 179.011 96.1614V96.3279C179.011 96.465 178.962 96.5433 178.835 96.5727L179.041 97.1602H178.816L178.62 96.5727ZM178.62 96.0537V96.4552H178.688C178.767 96.4552 178.796 96.416 178.796 96.3475V96.1614C178.796 96.0929 178.767 96.0537 178.688 96.0537H178.62ZM179.158 95.8775H179.677V96.0537H179.374V96.4258H179.589V96.602H179.374V96.9937H179.677V97.1699H179.158V95.8775ZM179.795 96.886V96.7098H180V96.886C180 96.9545 180.03 97.0035 180.108 97.0035C180.177 97.0035 180.206 96.9545 180.206 96.886V96.837C180.206 96.7587 180.177 96.7195 180.108 96.651L179.981 96.5237C179.853 96.4062 179.804 96.3279 179.804 96.181V96.1419C179.804 95.9852 179.902 95.8579 180.108 95.8579C180.323 95.8579 180.412 95.9656 180.412 96.1516V96.2594H180.216V96.1516C180.216 96.0733 180.186 96.0439 180.118 96.0439C180.059 96.0439 180.02 96.0733 180.02 96.1516V96.181C180.02 96.2496 180.059 96.2985 180.118 96.3573L180.255 96.4943C180.372 96.6118 180.431 96.6902 180.431 96.8272V96.886C180.431 97.0622 180.333 97.1895 180.118 97.1895C179.883 97.1797 179.795 97.0524 179.795 96.886ZM180.549 95.8775H180.872C181.087 95.8775 181.165 95.9852 181.165 96.1614V96.4356C181.165 96.6118 181.087 96.7293 180.872 96.7293H180.764V97.1699H180.549V95.8775ZM180.764 96.0537V96.5629H180.842C180.921 96.5629 180.95 96.5237 180.95 96.4552V96.1614C180.95 96.0929 180.921 96.0537 180.842 96.0537H180.764ZM181.303 96.8272V96.2006C181.303 95.995 181.4 95.8579 181.626 95.8579C181.851 95.8579 181.959 96.0048 181.959 96.2006V96.8272C181.959 97.0231 181.861 97.1699 181.626 97.1699C181.4 97.1797 181.303 97.0231 181.303 96.8272ZM181.743 96.8664V96.1712C181.743 96.0929 181.714 96.0342 181.635 96.0342C181.557 96.0342 181.528 96.0929 181.528 96.1712V96.8664C181.528 96.9447 181.557 97.0035 181.635 97.0035C181.704 96.9937 181.743 96.9447 181.743 96.8664ZM182.282 96.3475V97.1602H182.096V95.8775H182.311L182.546 96.6118V95.8775H182.722V97.1602H182.536L182.282 96.3475ZM182.869 96.886V96.7098H183.075V96.886C183.075 96.9545 183.104 97.0035 183.182 97.0035C183.251 97.0035 183.28 96.9545 183.28 96.886V96.837C183.28 96.7587 183.251 96.7195 183.182 96.651L183.055 96.5237C182.928 96.4062 182.879 96.3279 182.879 96.181V96.1419C182.879 95.9852 182.977 95.8579 183.182 95.8579C183.398 95.8579 183.486 95.9656 183.486 96.1516V96.2594H183.29V96.1516C183.29 96.0733 183.261 96.0439 183.192 96.0439C183.133 96.0439 183.094 96.0733 183.094 96.1516V96.181C183.094 96.2496 183.133 96.2985 183.192 96.3573L183.329 96.4943C183.447 96.6118 183.506 96.6902 183.506 96.8272V96.886C183.506 97.0622 183.408 97.1895 183.192 97.1895C182.947 97.1797 182.869 97.0524 182.869 96.886ZM183.613 95.8775H183.829V97.1602H183.613V95.8775ZM183.976 95.8775H184.289C184.504 95.8775 184.573 95.9754 184.573 96.1614V96.2887C184.573 96.3964 184.534 96.465 184.445 96.4943C184.553 96.5237 184.602 96.5923 184.602 96.7098V96.8762C184.602 97.0622 184.524 97.1602 184.308 97.1602H183.976V95.8775ZM184.201 96.416H184.279C184.348 96.416 184.377 96.3768 184.377 96.3083V96.1516C184.377 96.0831 184.348 96.0439 184.269 96.0439H184.191L184.201 96.416ZM184.201 96.5825V96.9839H184.299C184.367 96.9839 184.406 96.9447 184.406 96.8762V96.6804C184.406 96.6118 184.377 96.5727 184.299 96.5727H184.201V96.5825ZM184.739 95.8775H184.955V96.9839H185.209V97.1602H184.739V95.8775ZM185.337 95.8775H185.855V96.0537H185.552V96.4258H185.767V96.602H185.552V96.9937H185.855V97.1699H185.337V95.8775Z" fill="white"/>
<path d="M178.404 98.7174V98.0907C178.404 97.8851 178.502 97.748 178.727 97.748C178.962 97.748 179.031 97.8851 179.031 98.0712V98.2278H178.835V98.0614C178.835 97.983 178.806 97.9341 178.727 97.9341C178.649 97.9341 178.62 97.9928 178.62 98.0712V98.7663C178.62 98.8447 178.649 98.9034 178.727 98.9034C178.806 98.9034 178.835 98.8545 178.835 98.7761V98.5411H179.031V98.7663C179.031 98.9524 178.953 99.0895 178.727 99.0895C178.502 99.0699 178.404 98.923 178.404 98.7174ZM179.168 98.7174V98.0907C179.168 97.8851 179.266 97.748 179.491 97.748C179.716 97.748 179.824 97.8949 179.824 98.0907V98.7174C179.824 98.9132 179.726 99.0601 179.491 99.0601C179.266 99.0699 179.168 98.923 179.168 98.7174ZM179.609 98.7566V98.0614C179.609 97.983 179.579 97.9243 179.501 97.9243C179.423 97.9243 179.393 97.983 179.393 98.0614V98.7566C179.393 98.8349 179.423 98.8936 179.501 98.8936C179.579 98.8838 179.609 98.8349 179.609 98.7566ZM180.147 98.2474V99.0601H179.961V97.7774H180.177L180.412 98.5118V97.7774H180.588V99.0601H180.402L180.147 98.2474ZM180.725 98.7761V98.5999H180.93V98.7761C180.93 98.8447 180.96 98.8936 181.038 98.8936C181.107 98.8936 181.136 98.8447 181.136 98.7761V98.7272C181.136 98.6488 181.107 98.6097 181.038 98.5411L180.911 98.4139C180.784 98.2964 180.735 98.218 180.735 98.0712V98.032C180.735 97.8753 180.833 97.748 181.038 97.748C181.254 97.748 181.342 97.8558 181.342 98.0418V98.1495H181.146V98.0418C181.146 97.9635 181.116 97.9341 181.048 97.9341C180.989 97.9341 180.95 97.9635 180.95 98.0418V98.0712C180.95 98.1397 180.989 98.1887 181.048 98.2474L181.185 98.3845C181.303 98.502 181.361 98.5803 181.361 98.7174V98.7761C181.361 98.9524 181.263 99.0797 181.048 99.0797C180.813 99.0699 180.725 98.9426 180.725 98.7761ZM182.105 97.7676V98.737C182.105 98.9328 182.017 99.0699 181.802 99.0699C181.577 99.0699 181.479 98.9426 181.479 98.737V97.7676H181.694V98.7663C181.694 98.8447 181.724 98.8936 181.802 98.8936C181.88 98.8936 181.91 98.8447 181.91 98.7663V97.7676H182.105ZM182.85 98.218L182.693 99.0503H182.595L182.438 98.218V99.0503H182.262V97.7676H182.517L182.654 98.4922L182.781 97.7676H183.055V99.0503H182.859V98.218H182.85ZM183.192 97.7676H183.515C183.731 97.7676 183.809 97.8753 183.809 98.0516V98.3257C183.809 98.502 183.731 98.6195 183.515 98.6195H183.408V99.0601H183.192V97.7676ZM183.408 97.9439V98.453H183.486C183.564 98.453 183.594 98.4139 183.594 98.3453V98.0516C183.594 97.983 183.564 97.9439 183.486 97.9439H183.408ZM183.878 97.7676H184.455V97.9439H184.279V99.0503H184.064V97.9439H183.887L183.878 97.7676ZM184.553 97.7676H184.769V99.0503H184.553V97.7676ZM184.896 98.7174V98.0907C184.896 97.8851 184.994 97.748 185.219 97.748C185.444 97.748 185.552 97.8949 185.552 98.0907V98.7174C185.552 98.9132 185.454 99.0601 185.219 99.0601C184.994 99.0699 184.896 98.923 184.896 98.7174ZM185.337 98.7566V98.0614C185.337 97.983 185.307 97.9243 185.229 97.9243C185.15 97.9243 185.121 97.983 185.121 98.0614V98.7566C185.121 98.8349 185.15 98.8936 185.229 98.8936C185.297 98.8838 185.337 98.8349 185.337 98.7566ZM185.865 98.2474V99.0601H185.679V97.7774H185.895L186.13 98.5118V97.7774H186.306V99.0601H186.12L185.865 98.2474Z" fill="white"/>
<path d="M178.376 100.94L178.621 99.6573H178.866L179.11 100.94H178.885L178.846 100.705H178.621L178.582 100.94H178.376ZM178.64 100.538H178.817L178.728 100.02L178.64 100.538ZM179.384 100.137V100.95H179.198V99.6671H179.414L179.649 100.401V99.6671H179.825V100.95H179.639L179.384 100.137ZM180.608 100V100.597C180.608 100.793 180.53 100.94 180.295 100.94H179.962V99.6573H180.295C180.52 99.6573 180.608 99.8041 180.608 100ZM180.266 100.764C180.354 100.764 180.393 100.715 180.393 100.636V99.9608C180.393 99.8825 180.364 99.8335 180.266 99.8335H180.178V100.764H180.266ZM180.941 99.6573H181.264C181.48 99.6573 181.558 99.765 181.558 99.9412V100.215C181.558 100.392 181.48 100.509 181.264 100.509H181.157V100.95H180.941V99.6573ZM181.157 99.8335V100.343H181.235C181.313 100.343 181.343 100.304 181.343 100.235V99.9412C181.343 99.8727 181.313 99.8335 181.235 99.8335H181.157ZM181.891 100.352V100.94H181.676V99.6573H181.989C182.204 99.6573 182.283 99.765 182.283 99.9412V100.108C182.283 100.245 182.234 100.323 182.106 100.352L182.312 100.94H182.087L181.891 100.352ZM181.891 99.8335V100.235H181.96C182.038 100.235 182.067 100.196 182.067 100.127V99.9412C182.067 99.8727 182.038 99.8335 181.96 99.8335H181.891ZM182.41 100.607V99.9804C182.41 99.7748 182.508 99.6377 182.733 99.6377C182.958 99.6377 183.066 99.7846 183.066 99.9804V100.607C183.066 100.803 182.968 100.95 182.733 100.95C182.508 100.96 182.41 100.813 182.41 100.607ZM182.851 100.646V99.951C182.851 99.8727 182.821 99.8139 182.743 99.8139C182.665 99.8139 182.635 99.8727 182.635 99.951V100.646C182.635 100.725 182.665 100.783 182.743 100.783C182.821 100.773 182.851 100.725 182.851 100.646ZM183.849 100V100.597C183.849 100.793 183.771 100.94 183.536 100.94H183.203V99.6573H183.536C183.761 99.6573 183.849 99.8041 183.849 100ZM183.507 100.764C183.595 100.764 183.634 100.715 183.634 100.636V99.9608C183.634 99.8825 183.605 99.8335 183.507 99.8335H183.419V100.764H183.507ZM184.603 99.6573V100.627C184.603 100.822 184.515 100.96 184.3 100.96C184.075 100.96 183.977 100.832 183.977 100.627V99.6573H184.192V100.656C184.192 100.734 184.221 100.783 184.3 100.783C184.378 100.783 184.407 100.734 184.407 100.656V99.6573H184.603ZM184.731 100.607V99.9804C184.731 99.7748 184.828 99.6377 185.054 99.6377C185.289 99.6377 185.357 99.7748 185.357 99.9608V100.117H185.161V99.951C185.161 99.8727 185.132 99.8237 185.054 99.8237C184.975 99.8237 184.946 99.8825 184.946 99.9608V100.656C184.946 100.734 184.975 100.793 185.054 100.793C185.132 100.793 185.161 100.744 185.161 100.666V100.431H185.357V100.656C185.357 100.842 185.279 100.979 185.054 100.979C184.828 100.96 184.731 100.813 184.731 100.607ZM185.465 99.6573H186.043V99.8335H185.866V100.94H185.651V99.8335H185.475L185.465 99.6573ZM186.141 99.6573H186.356V100.94H186.141V99.6573ZM186.483 100.607V99.9804C186.483 99.7748 186.581 99.6377 186.806 99.6377C187.032 99.6377 187.139 99.7846 187.139 99.9804V100.607C187.139 100.803 187.041 100.95 186.806 100.95C186.581 100.96 186.483 100.813 186.483 100.607ZM186.924 100.646V99.951C186.924 99.8727 186.894 99.8139 186.816 99.8139C186.738 99.8139 186.708 99.8727 186.708 99.951V100.646C186.708 100.725 186.738 100.783 186.816 100.783C186.885 100.773 186.924 100.725 186.924 100.646ZM187.443 100.137V100.95H187.257V99.6671H187.472L187.707 100.401V99.6671H187.883V100.95H187.697L187.443 100.137Z" fill="white"/>
<path d="M224.561 80.0239C226.718 80.0239 228.466 78.2755 228.466 76.1189C228.466 73.9622 226.718 72.2139 224.561 72.2139C222.405 72.2139 220.656 73.9622 220.656 76.1189C220.656 78.2755 222.405 80.0239 224.561 80.0239Z" fill="#0A97D9"/>
<path d="M250.868 76.7263C263.021 76.7263 272.873 66.8743 272.873 54.7213C272.873 42.5683 263.021 32.7163 250.868 32.7163C238.715 32.7163 228.863 42.5683 228.863 54.7213C228.863 66.8743 238.715 76.7263 250.868 76.7263Z" fill="#56C02B"/>
<path d="M237.818 43.2022V44.2929L238.545 43.5275H238.565V48.292H239.598V42.0732H238.775L237.818 43.2022ZM242.085 44.0441C241.664 44.0441 241.377 44.1972 241.205 44.4651V42.9152H243.004V42.0732H240.248V45.5749H241.205V45.441C241.205 45.0774 241.377 44.8669 241.664 44.8669C241.99 44.8669 242.105 45.0774 242.105 45.4218V46.9143C242.105 47.2396 241.99 47.4693 241.664 47.4693C241.301 47.4693 241.186 47.2396 241.186 46.8569V46.0724H240.229V46.7804C240.229 47.718 240.612 48.3303 241.664 48.3303C242.717 48.3303 243.157 47.7754 243.157 46.9143V45.4027C243.157 44.446 242.64 44.0441 242.085 44.0441Z" fill="white"/>
<path d="M248.458 60.3089C248.496 60.3089 248.534 60.3471 248.534 60.3854V62.6242C248.534 62.6624 248.496 62.7007 248.458 62.7007H247.558C247.52 62.7007 247.482 62.6624 247.482 62.6242V60.3854C247.482 60.3471 247.52 60.3089 247.558 60.3089H248.458ZM258.427 63.6574H243.483C243.445 63.6574 243.406 63.6957 243.406 63.734V64.6524C243.406 64.6907 243.445 64.729 243.483 64.729H258.427C258.465 64.729 258.504 64.6907 258.504 64.6524V63.734C258.504 63.6957 258.465 63.6574 258.427 63.6574ZM258.427 65.4752H243.483C243.445 65.4752 243.406 65.5135 243.406 65.5518V66.4703C243.406 66.5085 243.445 66.5468 243.483 66.5468H258.427C258.465 66.5468 258.504 66.5085 258.504 66.4703V65.5518C258.504 65.5135 258.465 65.4752 258.427 65.4752ZM255.576 57.8405C255.385 57.6874 254.887 57.3621 254.275 57.3621C253.835 57.3621 253.433 57.5343 253.069 57.8788C253.05 57.8979 253.031 57.9362 253.031 57.9744V58.051C253.031 58.0893 253.05 58.1275 253.069 58.1467C253.108 58.1658 253.127 58.1849 253.184 58.1658H253.203C253.222 58.1467 253.261 58.1467 253.28 58.1275C253.356 58.0701 253.567 57.9936 253.873 57.9936C254.198 57.9936 254.811 58.0701 255.423 58.6441L255.442 58.6633C255.48 58.7015 255.519 58.7207 255.576 58.7207C255.614 58.7207 255.672 58.7015 255.71 58.6633L255.729 58.6441C256.341 58.0893 256.954 57.9936 257.279 57.9936C257.585 57.9936 257.796 58.0701 257.872 58.1275C257.891 58.1467 257.91 58.1658 257.949 58.1849C257.968 58.1849 258.006 58.2041 258.044 58.1849C258.102 58.1658 258.14 58.1275 258.14 58.0701V57.9936C258.14 57.9553 258.121 57.917 258.102 57.8979C257.738 57.5535 257.336 57.3813 256.877 57.3813C256.265 57.343 255.767 57.6874 255.576 57.8405ZM254.658 51.8705C254.619 51.8896 254.6 51.9087 254.6 51.947L254.581 52.0044C254.562 52.0427 254.581 52.0809 254.6 52.1192C254.619 52.1575 254.658 52.1766 254.696 52.1766H254.715C254.734 52.1766 254.772 52.1766 254.791 52.1575C254.811 52.1575 254.83 52.1383 254.887 52.1383C254.945 52.1383 255.557 52.1575 255.959 52.8272V52.8463C255.978 52.8846 256.016 52.9037 256.054 52.9229H256.093C256.112 52.9229 256.15 52.9229 256.169 52.9037H256.188C256.399 52.7889 256.628 52.7315 256.858 52.7315C257.241 52.7315 257.489 52.8846 257.547 52.942L257.604 52.9994C257.623 52.9994 257.643 53.0185 257.662 53.0185H257.7C257.719 53.0185 257.738 53.0185 257.757 52.9994C257.796 52.9803 257.815 52.9611 257.815 52.9229L257.834 52.8846V52.8463C257.834 52.8272 257.834 52.8081 257.815 52.7889C257.528 52.2914 257.107 52.1766 256.801 52.1766C256.571 52.1766 256.38 52.234 256.265 52.2723C256.131 52.0809 255.786 51.6982 255.251 51.6982C255.04 51.7365 254.849 51.7748 254.658 51.8705ZM251.5 54.1858V54.2623C251.5 54.3006 251.519 54.3388 251.558 54.358C251.596 54.3771 251.634 54.3771 251.653 54.3771H251.672C251.692 54.358 251.711 54.358 251.73 54.3388C251.787 54.3006 251.998 54.2049 252.304 54.2049C252.591 54.2049 253.031 54.2814 253.49 54.645L253.509 54.6641C253.548 54.6833 253.586 54.7024 253.624 54.7024H253.643C253.682 54.7024 253.739 54.6833 253.758 54.645L253.777 54.6259C254.275 54.0901 254.811 54.0136 255.098 54.0136C255.289 54.0136 255.442 54.0518 255.48 54.0901C255.499 54.1092 255.519 54.1284 255.557 54.1284H255.653C255.71 54.1092 255.748 54.0518 255.729 53.9944V53.937C255.729 53.8987 255.71 53.8796 255.691 53.8413C255.385 53.5926 255.078 53.4586 254.734 53.4586C254.217 53.4586 253.796 53.7648 253.624 53.9179C253.471 53.8031 253.088 53.5926 252.629 53.5926C252.227 53.5926 251.883 53.7648 251.577 54.0901C251.5 54.1092 251.5 54.1475 251.5 54.1858ZM243.923 55.3721C243.923 54.4728 244.65 53.7457 245.549 53.7457H245.645C245.722 52.6167 246.678 51.7174 247.826 51.7174C249.032 51.7174 250.027 52.6933 250.027 53.9179C250.027 54.2623 249.95 54.5876 249.797 54.8746C250.888 55.1234 251.711 56.0992 251.711 57.2665C251.711 58.625 250.62 59.7157 249.261 59.7157C249.166 59.7157 245.989 59.6965 245.989 59.6965C245.033 59.6965 244.248 58.912 244.248 57.9553C244.248 57.4961 244.42 57.0751 244.727 56.769C244.267 56.5011 243.923 55.9844 243.923 55.3721Z" fill="white"/>
<path d="M245.396 42.0732H245.816V44.2355H246.314V44.5799H245.396V42.0732ZM246.563 42.0732H246.984V44.5799H246.563V42.0732ZM247.29 42.0732H248.285V42.4177H247.711V43.1448H248.132V43.4892H247.711V44.599H247.29V42.0732ZM248.514 42.0732H249.529V42.4177H248.935V43.1448H249.356V43.4892H248.935V44.2546H249.529V44.599H248.514V42.0732Z" fill="white"/>
<path d="M245.396 47.6414V46.4168C245.396 46.015 245.587 45.7471 246.027 45.7471C246.467 45.7471 246.678 46.0341 246.678 46.4168V47.6414C246.678 48.0241 246.486 48.3111 246.027 48.3111C245.587 48.3111 245.396 48.0241 245.396 47.6414ZM246.257 47.6988V46.3402C246.257 46.1872 246.199 46.0724 246.046 46.0724C245.893 46.0724 245.836 46.1872 245.836 46.3402V47.6988C245.836 47.8519 245.893 47.9667 246.046 47.9667C246.18 47.9667 246.257 47.8519 246.257 47.6988ZM247.271 46.7038V48.292H246.907V45.7853H247.328L247.787 47.2204V45.7853H248.132V48.292H247.768L247.271 46.7038ZM249.05 45.7662H249.471V47.9284H249.969V48.2729H249.05V45.7662ZM250.084 48.292L250.562 45.7853H251.04L251.519 48.292H251.079L251.002 47.8328H250.562L250.485 48.292H250.084ZM250.619 47.4883H250.964L250.792 46.4742L250.619 47.4883ZM252.054 46.7038V48.292H251.691V45.7853H252.112L252.571 47.2204V45.7853H252.915V48.292H252.552L252.054 46.7038ZM254.465 46.4551V47.6223C254.465 48.005 254.312 48.292 253.853 48.292H253.203V45.7853H253.853C254.293 45.7662 254.465 46.0532 254.465 46.4551ZM253.796 47.9476C253.968 47.9476 254.044 47.8519 254.044 47.6988V46.3785C254.044 46.2254 253.987 46.1298 253.796 46.1298H253.623V47.9476H253.796Z" fill="white"/>
<path d="M238.85 104.117C244.707 104.117 249.455 99.3692 249.455 93.5122C249.455 87.6552 244.707 82.9072 238.85 82.9072C232.993 82.9072 228.245 87.6552 228.245 93.5122C228.245 99.3692 232.993 104.117 238.85 104.117Z" fill="#00689D"/>
<path d="M232.644 87.9609V88.4865H232.653L233.003 88.1177V90.4139H233.51V87.4168H233.105L232.644 87.9609ZM235.272 89.6946V89.252C235.272 88.7632 235.078 88.5142 234.718 88.5142C234.506 88.5142 234.377 88.6157 234.303 88.754V88.1085C234.303 87.924 234.359 87.7949 234.543 87.7949C234.728 87.7949 234.774 87.8964 234.774 88.09V88.2929H235.235V88.1361C235.235 87.6935 235.087 87.3892 234.534 87.3892C234.008 87.3892 233.805 87.7304 233.805 88.2007V89.6577C233.805 90.1188 234.008 90.46 234.534 90.46C235.06 90.4508 235.272 90.1557 235.272 89.6946ZM234.774 89.7407C234.774 89.9344 234.7 90.045 234.534 90.045C234.368 90.045 234.303 89.9344 234.303 89.7407V89.1966C234.313 89.0306 234.386 88.92 234.543 88.92C234.718 88.92 234.783 89.0214 234.783 89.2243L234.774 89.7407Z" fill="white"/>
<path d="M236.24 87.4169H236.545C236.747 87.4169 236.821 87.5184 236.821 87.6844V87.9426C236.821 88.1086 236.747 88.2192 236.545 88.2192H236.443V88.6342H236.24V87.4169ZM236.443 87.5829V88.0625H236.517C236.591 88.0625 236.618 88.0256 236.618 87.961V87.6844C236.618 87.6198 236.591 87.5829 236.517 87.5829H236.443ZM236.923 87.4169H237.411V87.5829H237.126V87.9334H237.328V88.0993H237.126V88.4682H237.411V88.6342H236.923V87.4169ZM237.494 88.6342L237.725 87.4262H237.955L238.186 88.6342H237.974L237.937 88.4129H237.725L237.688 88.6342H237.494ZM237.753 88.2469H237.919L237.836 87.7581L237.753 88.2469ZM238.26 88.3207V87.7305C238.26 87.5368 238.352 87.4077 238.564 87.4077C238.785 87.4077 238.85 87.5368 238.85 87.712V87.8596H238.666V87.7028C238.666 87.629 238.638 87.5829 238.564 87.5829C238.49 87.5829 238.463 87.6383 238.463 87.712V88.3668C238.463 88.4405 238.49 88.4959 238.564 88.4959C238.638 88.4959 238.666 88.4498 238.666 88.376V88.1547H238.85V88.3668C238.85 88.542 238.776 88.6711 238.564 88.6711C238.352 88.6434 238.26 88.5051 238.26 88.3207ZM238.979 87.4169H239.468V87.5829H239.182V87.9334H239.385V88.0993H239.182V88.4682H239.468V88.6342H238.979V87.4169ZM239.8 88.4498L239.698 88.7264H239.588L239.615 88.4405L239.8 88.4498ZM240.685 87.4169V88.3576C240.685 88.5328 240.611 88.6434 240.408 88.6434C240.196 88.6434 240.141 88.5235 240.141 88.376V88.1362H240.335V88.3852C240.335 88.4498 240.353 88.4774 240.408 88.4774C240.464 88.4774 240.482 88.4405 240.482 88.376V87.4169H240.685ZM241.404 87.4169V88.3299C241.404 88.5143 241.321 88.6434 241.119 88.6434C240.906 88.6434 240.814 88.5235 240.814 88.3299V87.4169H241.017V88.3576C241.017 88.4313 241.045 88.4774 241.119 88.4774C241.192 88.4774 241.22 88.4313 241.22 88.3576V87.4169H241.404ZM241.533 88.3668V88.21H241.727V88.376C241.727 88.4405 241.755 88.4867 241.829 88.4867C241.893 88.4867 241.921 88.4405 241.921 88.376V88.3299C241.921 88.2561 241.893 88.2192 241.829 88.1547L241.709 88.0348C241.589 87.9241 241.543 87.8504 241.543 87.712V87.6751C241.543 87.5276 241.635 87.4077 241.829 87.4077C242.031 87.4077 242.114 87.5092 242.114 87.6844V87.7858H241.93V87.6844C241.93 87.6106 241.902 87.5829 241.838 87.5829C241.782 87.5829 241.746 87.6106 241.746 87.6844V87.712C241.746 87.7766 241.782 87.8227 241.838 87.878L241.967 88.0071C242.078 88.1178 242.133 88.1916 242.133 88.3207V88.376C242.133 88.542 242.041 88.6619 241.838 88.6619C241.607 88.6434 241.533 88.5328 241.533 88.3668ZM242.216 87.4169H242.76V87.5829H242.594V88.625H242.391V87.5829H242.216V87.4169ZM242.871 87.4169H243.074V88.625H242.871V87.4169ZM243.212 88.3207V87.7305C243.212 87.5368 243.304 87.4077 243.516 87.4077C243.737 87.4077 243.802 87.5368 243.802 87.712V87.8596H243.618V87.7028C243.618 87.629 243.59 87.5829 243.516 87.5829C243.442 87.5829 243.415 87.6383 243.415 87.712V88.3668C243.415 88.4405 243.442 88.4959 243.516 88.4959C243.59 88.4959 243.618 88.4498 243.618 88.376V88.1547H243.802V88.3668C243.802 88.542 243.728 88.6711 243.516 88.6711C243.304 88.6434 243.212 88.5051 243.212 88.3207ZM243.931 87.4169H244.42V87.5829H244.134V87.9334H244.337V88.0993H244.134V88.4682H244.42V88.6342H243.931V87.4169Z" fill="white"/>
<path d="M236.204 90.4506L236.435 89.2426H236.665L236.896 90.4506H236.684L236.647 90.2293H236.435L236.398 90.4506H236.204ZM236.462 90.0633H236.628L236.545 89.5745L236.462 90.0633ZM237.172 89.6852V90.4506H236.997V89.2426H237.2L237.421 89.9342V89.2426H237.587V90.4506H237.412L237.172 89.6852ZM238.334 89.5653V90.1279C238.334 90.3123 238.261 90.4506 238.039 90.4506H237.726V89.2426H238.039C238.261 89.2333 238.334 89.3717 238.334 89.5653ZM238.021 90.2846C238.104 90.2846 238.141 90.2385 238.141 90.1647V89.5284C238.141 89.4547 238.113 89.4086 238.021 89.4086H237.938V90.2846H238.021ZM238.666 90.1924V90.0264H238.86V90.1924C238.86 90.257 238.888 90.3031 238.961 90.3031C239.026 90.3031 239.054 90.257 239.054 90.1924V90.1463C239.054 90.0725 239.026 90.0356 238.961 89.9711L238.842 89.8512C238.722 89.7405 238.676 89.6668 238.676 89.5284V89.4916C238.676 89.344 238.768 89.2241 238.961 89.2241C239.164 89.2241 239.247 89.3256 239.247 89.5008V89.6022H239.063V89.5008C239.063 89.427 239.035 89.3993 238.971 89.3993C238.915 89.3993 238.878 89.427 238.878 89.5008V89.5284C238.878 89.593 238.915 89.6391 238.971 89.6944L239.1 89.8235C239.21 89.9342 239.266 90.008 239.266 90.1371V90.1924C239.266 90.3584 239.174 90.4783 238.971 90.4783C238.749 90.4598 238.666 90.3492 238.666 90.1924ZM239.33 89.2333H239.874V89.3993H239.708V90.4414H239.505V89.3993H239.339V89.2333H239.33ZM240.188 89.8973V90.4506H239.985V89.2426H240.28C240.483 89.2426 240.557 89.344 240.557 89.51V89.6668C240.557 89.7959 240.511 89.8696 240.391 89.8973L240.584 90.4506H240.372L240.188 89.8973ZM240.188 89.3993V89.7774H240.252C240.326 89.7774 240.354 89.7405 240.354 89.676V89.5008C240.354 89.4362 240.326 89.3993 240.252 89.3993H240.188ZM240.686 90.1371V89.5469C240.686 89.3532 240.778 89.2241 240.99 89.2241C241.202 89.2241 241.304 89.3624 241.304 89.5469V90.1371C241.304 90.3215 241.212 90.4598 240.99 90.4598C240.778 90.4598 240.686 90.3215 240.686 90.1371ZM241.101 90.1647V89.51C241.101 89.4362 241.073 89.3809 240.999 89.3809C240.926 89.3809 240.898 89.4362 240.898 89.51V90.1647C240.898 90.2385 240.926 90.2938 240.999 90.2938C241.064 90.2938 241.101 90.2385 241.101 90.1647ZM241.608 89.6852V90.4506H241.433V89.2426H241.636L241.857 89.9342V89.2426H242.023V90.4506H241.848L241.608 89.6852ZM242.475 89.8051H242.761V90.4506H242.613V90.3215C242.586 90.4137 242.53 90.4691 242.42 90.4691C242.244 90.4691 242.161 90.3307 242.161 90.1463V89.5561C242.161 89.3624 242.254 89.2333 242.466 89.2333C242.687 89.2333 242.761 89.3624 242.761 89.5377V89.6483H242.576V89.5284C242.576 89.4547 242.549 89.4086 242.475 89.4086C242.401 89.4086 242.373 89.4639 242.373 89.5377V90.1924C242.373 90.2662 242.401 90.3215 242.475 90.3215C242.539 90.3215 242.576 90.2846 242.576 90.2016V89.9619H242.484V89.8051H242.475Z" fill="white"/>
<path d="M236.24 90.9765H236.443V92.1845H236.24V90.9765ZM236.757 91.4283V92.1937H236.591V90.9765H236.794L237.015 91.6681V90.9765H237.181V92.1845H237.006L236.757 91.4283ZM237.301 91.9263V91.7603H237.494V91.9263C237.494 91.9908 237.522 92.037 237.596 92.037C237.66 92.037 237.688 91.9908 237.688 91.9263V91.8802C237.688 91.8064 237.66 91.7695 237.596 91.705L237.476 91.5851C237.356 91.4744 237.31 91.4007 237.31 91.2623V91.2254C237.31 91.0779 237.402 90.958 237.596 90.958C237.799 90.958 237.882 91.0594 237.882 91.2347V91.3361H237.697V91.2347C237.697 91.1609 237.67 91.1332 237.605 91.1332C237.55 91.1332 237.513 91.1609 237.513 91.2347V91.2623C237.513 91.3269 237.55 91.373 237.605 91.4283L237.734 91.5574C237.845 91.6681 237.9 91.7419 237.9 91.871V91.9263C237.9 92.0923 237.808 92.2122 237.605 92.2122C237.384 92.2029 237.301 92.0831 237.301 91.9263ZM237.965 90.9765H238.509V91.1424H238.343V92.1845H238.14V91.1424H237.974L237.965 90.9765ZM238.619 90.9765H238.822V92.1845H238.619V90.9765ZM238.933 90.9765H239.477V91.1424H239.311V92.1845H239.108V91.1424H238.942V90.9765H238.933ZM240.178 90.9765V91.8894C240.178 92.0738 240.095 92.2029 239.892 92.2029C239.68 92.2029 239.588 92.0831 239.588 91.8894V90.9765H239.791V91.9171C239.791 91.9908 239.818 92.037 239.892 92.037C239.966 92.037 239.993 91.9908 239.993 91.9171V90.9765H240.178ZM240.289 90.9765H240.833V91.1424H240.667V92.1845H240.464V91.1424H240.298V90.9765H240.289ZM240.943 90.9765H241.146V92.1845H240.943V90.9765ZM241.285 91.871V91.2808C241.285 91.0871 241.377 90.958 241.589 90.958C241.801 90.958 241.902 91.0963 241.902 91.2808V91.871C241.902 92.0554 241.81 92.1937 241.589 92.1937C241.377 92.2029 241.285 92.0646 241.285 91.871ZM241.699 91.9078V91.2531C241.699 91.1793 241.672 91.124 241.598 91.124C241.524 91.124 241.497 91.1793 241.497 91.2531V91.9078C241.497 91.9816 241.524 92.037 241.598 92.037C241.663 92.0277 241.699 91.9816 241.699 91.9078ZM242.207 91.4283V92.1937H242.031V90.9765H242.234L242.456 91.6681V90.9765H242.622V92.1845H242.446L242.207 91.4283ZM242.751 91.9263V91.7603H242.944V91.9263C242.944 91.9908 242.972 92.037 243.046 92.037C243.11 92.037 243.138 91.9908 243.138 91.9263V91.8802C243.138 91.8064 243.11 91.7695 243.046 91.705L242.926 91.5851C242.806 91.4744 242.76 91.4007 242.76 91.2623V91.2254C242.76 91.0779 242.852 90.958 243.046 90.958C243.249 90.958 243.332 91.0594 243.332 91.2347V91.3361H243.147V91.2347C243.147 91.1609 243.12 91.1332 243.055 91.1332C243 91.1332 242.963 91.1609 242.963 91.2347V91.2623C242.963 91.3269 243 91.373 243.055 91.4283L243.184 91.5574C243.295 91.6681 243.35 91.7419 243.35 91.871V91.9263C243.35 92.0923 243.258 92.2122 243.055 92.2122C242.834 92.2029 242.751 92.0831 242.751 91.9263Z" fill="white"/>
<path d="M241.091 93.4754C241.091 93.4754 240.962 93.6414 240.999 93.8073C241.036 93.9733 241.22 94.0656 241.22 94.0656C241.22 94.0656 241.349 93.8996 241.313 93.7336C241.276 93.5676 241.091 93.4754 241.091 93.4754ZM240.888 94.416C240.888 94.416 241.017 94.25 240.981 94.084C240.944 93.918 240.759 93.8258 240.759 93.8258C240.759 93.8258 240.63 93.9918 240.667 94.1485C240.704 94.3238 240.888 94.416 240.888 94.416ZM241.405 94.2408C241.405 94.2408 241.534 94.3699 241.691 94.3606C241.838 94.3514 241.949 94.1947 241.949 94.1947C241.949 94.1947 241.82 94.0655 241.663 94.0748C241.515 94.084 241.405 94.2408 241.405 94.2408ZM241.617 93.5307C241.497 93.6506 241.515 93.8719 241.515 93.8719C241.515 93.8719 241.727 93.8903 241.857 93.7704C241.976 93.6506 241.958 93.4292 241.958 93.4292C241.958 93.4292 241.737 93.4108 241.617 93.5307ZM241.349 94.7387C241.497 94.7572 241.635 94.6281 241.635 94.6281C241.635 94.6281 241.534 94.4713 241.386 94.4529C241.239 94.4344 241.1 94.5635 241.1 94.5635C241.1 94.5635 241.202 94.7203 241.349 94.7387ZM241.479 97.33H240.363C240.28 97.33 240.206 97.4038 240.206 97.4868C240.206 97.5698 240.28 97.6436 240.363 97.6436H241.479C241.562 97.6436 241.635 97.5698 241.635 97.4868C241.645 97.4038 241.571 97.33 241.479 97.33ZM241.479 99.0822H240.363C240.28 99.0822 240.206 99.156 240.206 99.2389C240.206 99.3219 240.28 99.3957 240.363 99.3957H241.479C241.562 99.3957 241.635 99.3219 241.635 99.2389C241.645 99.1467 241.571 99.0822 241.479 99.0822ZM236.453 96.952C236.425 96.9427 236.397 96.9335 236.379 96.9335C236.379 96.9335 236.407 96.9427 236.453 96.952Z" fill="white"/>
<path d="M241.441 97.7634H240.408C240.362 97.7634 240.316 97.8003 240.316 97.8556V98.1692L239.643 98.2429L238.656 98.2245V97.6158C238.785 97.5974 238.914 97.5697 239.053 97.5329C240.003 97.2654 240.215 96.4816 240.187 95.9375C240.169 95.3842 240.344 95.1721 240.602 95.0706C240.676 95.043 240.749 95.0245 240.814 95.0153C240.814 95.1536 240.842 95.3104 240.906 95.4948C240.925 95.4948 240.952 95.4948 240.971 95.4856C240.906 95.292 240.879 95.1352 240.879 94.9969C241.008 94.9784 241.1 94.9876 241.1 94.9876C241.1 94.9876 241.008 94.9415 240.888 94.8309C240.934 94.5727 241.091 94.4067 241.247 94.2407C241.34 94.1485 241.432 94.0562 241.496 93.9456L241.441 93.9087C241.377 94.0194 241.284 94.1023 241.201 94.1946C241.045 94.3513 240.888 94.5173 240.832 94.7848C240.777 94.7386 240.722 94.6833 240.666 94.6188C240.436 94.3513 240.132 94.545 239.698 94.9507C239.265 95.3473 238.73 95.3657 238.195 94.8216C237.494 94.1023 236.886 94.1116 236.471 94.1485C236.756 94.2683 236.858 94.5358 237.005 95.2182C237.153 95.9283 237.54 96.251 238.066 96.2971C237.771 96.3986 237.762 96.5646 237.374 96.832C237.07 97.0441 236.646 96.9795 236.471 96.9334C236.793 97.0349 237.162 97.3669 237.503 97.4867C237.697 97.5513 237.909 97.5974 238.121 97.6158V98.1968L236.351 98.1599V98.5657L239.661 98.4919L240.335 98.5657V98.8792C240.335 98.9253 240.371 98.9714 240.427 98.9714H241.46C241.506 98.9714 241.552 98.9346 241.552 98.8792V97.8464C241.533 97.8003 241.487 97.7634 241.441 97.7634ZM238.269 97.6343C238.343 97.6343 238.416 97.6343 238.49 97.6251V98.206L238.269 98.1968V97.6343ZM236.231 98.5011C236.231 98.5841 236.176 98.6579 236.102 98.6579H236.019C235.945 98.6579 235.89 98.5934 235.89 98.5011V98.2245C235.89 98.1415 235.945 98.0677 236.019 98.0677H236.102C236.176 98.0677 236.231 98.1323 236.231 98.2245V98.5011Z" fill="white"/>
<path d="M273.881 78.5845C274.9 78.5845 275.726 77.7585 275.726 76.7395C275.726 75.7206 274.9 74.8945 273.881 74.8945C272.862 74.8945 272.036 75.7206 272.036 76.7395C272.036 77.7585 272.862 78.5845 273.881 78.5845Z" fill="#19486A"/>
<defs>
<clipPath id="clip0_6428_4118">
<rect width="16.989" height="16.989" fill="white" transform="translate(136.86 7.43213)"/>
</clipPath>
</defs>
</svg>
