<svg width="279" height="131" viewBox="0 0 279 131" fill="none" xmlns="http://www.w3.org/2000/svg">
<path d="M13.7 73.1373C21.2663 73.1373 27.4 67.0036 27.4 59.4373C27.4 51.871 21.2663 45.7373 13.7 45.7373C6.1337 45.7373 0 51.871 0 59.4373C0 67.0036 6.1337 73.1373 13.7 73.1373Z" fill="#E5243B"/>
<path d="M6.87359 52.3727H6.88551V55.3271H7.52881V51.4673H7.01655L6.4209 52.1702V52.8492L6.87359 52.3727ZM19.8349 59.5324C20.1328 59.5324 20.3591 59.2942 20.3591 58.9963C20.3591 58.6985 20.1209 58.4602 19.8349 58.4602C19.5371 58.4602 19.2989 58.6985 19.2989 58.9963C19.2989 59.2942 19.5371 59.5324 19.8349 59.5324ZM20.4544 59.7349H19.2155C18.8581 59.7707 18.5722 60.0685 18.5722 60.4378V61.9031C18.5722 62.0103 18.6675 62.1056 18.7747 62.1056C18.8938 62.1056 18.9772 62.0103 18.9772 61.9031V60.6403C18.9772 60.5927 18.9891 60.5331 19.0725 60.5331C19.1321 60.5331 19.144 60.5927 19.144 60.6403V64.4287C19.144 64.5954 19.275 64.7265 19.4418 64.7265C19.6086 64.7265 19.7396 64.5954 19.7396 64.4287V62.2367C19.7396 62.2128 19.7515 62.1533 19.823 62.1533C19.8945 62.1533 19.9064 62.2128 19.9064 62.2367V64.4168C19.9064 64.5835 20.0375 64.7146 20.2042 64.7146C20.371 64.7146 20.5021 64.5835 20.5021 64.4168V60.6284C20.5021 60.5927 20.514 60.5212 20.5735 60.5212C20.6569 60.5212 20.6689 60.5808 20.6689 60.6284V61.8912C20.6689 61.9984 20.7642 62.0937 20.8714 62.0937C20.9905 62.0937 21.0739 61.9984 21.0739 61.8912V60.4378C21.0977 60.0685 20.8118 59.7588 20.4544 59.7349ZM15.6416 59.7826C15.9156 59.7826 16.1419 59.5562 16.1419 59.2822C16.1419 59.0082 15.9156 58.7819 15.6416 58.7819C15.3676 58.7819 15.1412 59.0082 15.1412 59.2822C15.1412 59.5562 15.3676 59.7826 15.6416 59.7826ZM16.2372 60.6999C16.3087 60.6761 16.3206 60.7714 16.3206 60.7714L16.6542 61.9031C16.6542 61.9031 16.7137 62.1414 16.9282 62.0818C17.1426 62.0222 17.0711 61.7721 17.0711 61.7721L16.6542 60.414C16.6542 60.414 16.4993 60.0209 16.1776 60.0209H15.1055C14.7719 60.0209 14.629 60.414 14.629 60.414L14.212 61.7721C14.212 61.7721 14.1406 62.0222 14.355 62.0818C14.5694 62.1414 14.629 61.9031 14.629 61.9031L14.9626 60.7714C14.9626 60.7714 14.9864 60.688 15.0459 60.6999C15.1174 60.7237 15.0817 60.8071 15.0817 60.8071L14.4979 62.9395H15.0459V64.4644C15.0459 64.6074 15.1651 64.7265 15.308 64.7265C15.451 64.7265 15.5701 64.6074 15.5701 64.4644V62.9395H15.7131V64.4644C15.7131 64.6074 15.8322 64.7265 15.9752 64.7265C16.1181 64.7265 16.2372 64.6074 16.2372 64.4644V62.9395H16.7852L16.2015 60.8071C16.2015 60.8071 16.1776 60.7237 16.2372 60.6999ZM12.6276 59.7826C12.9016 59.7826 13.1279 59.5562 13.1279 59.2822C13.1279 59.0082 12.9016 58.7819 12.6276 58.7819C12.3536 58.7819 12.1272 59.0082 12.1272 59.2822C12.1272 59.5562 12.3536 59.7826 12.6276 59.7826ZM13.6402 60.414C13.6402 60.414 13.4972 60.0209 13.1637 60.0209H12.0915C11.7579 60.0209 11.615 60.414 11.615 60.414L11.198 61.7721C11.198 61.7721 11.1861 61.8078 11.1861 61.8554C11.1623 61.8197 11.1146 61.7959 11.067 61.7959C11.0074 61.7959 10.9598 61.8197 10.9359 61.8674C10.924 61.8793 10.7334 62.2248 10.6619 62.2843C10.5905 62.3558 10.5309 62.3439 10.5309 62.3439H10.0306C10.0306 62.3439 9.97099 62.3558 9.89951 62.2843C9.83994 62.2248 9.63742 61.8674 9.62551 61.8674C9.60168 61.8197 9.55403 61.7959 9.49446 61.7959C9.44681 61.7959 9.39916 61.8197 9.37533 61.8674V60.4378C9.37533 60.0685 9.08942 59.7707 8.73203 59.7349H7.49307C7.13568 59.7707 6.84977 60.0685 6.84977 60.4378V61.9031C6.84977 61.9865 6.89742 62.0461 6.95699 62.0818C6.95699 62.0818 6.94507 62.0937 6.94507 62.1056L6.46855 64.6074C6.45664 64.655 6.49238 64.6908 6.52812 64.7027H6.54003C6.57577 64.7027 6.61151 64.6788 6.61151 64.6431L7.08803 62.1414V62.1175C7.18333 62.0937 7.2429 62.0103 7.2429 61.915V60.6522C7.2429 60.6046 7.25481 60.545 7.3382 60.545C7.39777 60.545 7.40968 60.6046 7.40968 60.6522V64.4406C7.40968 64.6074 7.54072 64.7384 7.70751 64.7384C7.87429 64.7384 8.00533 64.6074 8.00533 64.4406V62.2367C8.00533 62.2128 8.01725 62.1533 8.08872 62.1533C8.1602 62.1533 8.17212 62.2128 8.17212 62.2367V64.4168C8.17212 64.5835 8.30316 64.7146 8.46994 64.7146C8.63672 64.7146 8.76777 64.5835 8.76777 64.4168V60.6284C8.76777 60.5927 8.77968 60.5212 8.83925 60.5212C8.92264 60.5212 8.93455 60.5808 8.93455 60.6284V61.8912C8.93455 61.9984 9.02985 62.0937 9.13707 62.0937C9.22046 62.0937 9.29194 62.0461 9.32768 61.9746C9.32768 61.9865 9.33959 61.9984 9.33959 61.9984L9.75655 62.7608C9.75655 62.7608 9.78038 62.8085 9.78038 62.8561V63.011L9.55403 63.833H9.78038V64.5001C9.78038 64.6193 9.87568 64.7027 9.9829 64.7027C10.102 64.7027 10.1854 64.6074 10.1854 64.5001V63.8568V63.833H10.3046V64.5001C10.3046 64.6193 10.3999 64.7027 10.5071 64.7027C10.6262 64.7027 10.7096 64.6074 10.7096 64.5001V63.833H10.9359L10.7096 63.011V62.8681C10.7096 62.8204 10.7334 62.7728 10.7334 62.7728L11.1266 62.0699C11.1266 62.0699 11.1504 62.0222 11.1623 61.9746C11.1861 62.0222 11.2219 62.058 11.2814 62.0818C11.4959 62.1414 11.5554 61.9031 11.5554 61.9031L11.889 60.7714C11.889 60.7714 11.9128 60.688 11.9724 60.6999C12.0439 60.7237 12.0081 60.8071 12.0081 60.8071L11.4244 62.9395H11.9724V64.4644C11.9724 64.6074 12.0915 64.7265 12.2345 64.7265C12.3774 64.7265 12.4966 64.6074 12.4966 64.4644V62.9395H12.6395V64.4644C12.6395 64.6074 12.7586 64.7265 12.9016 64.7265C13.0446 64.7265 13.1637 64.6074 13.1637 64.4644V62.9395H13.7117L13.1279 60.8071C13.1279 60.8071 13.1041 60.7118 13.1637 60.6999C13.2352 60.6761 13.2471 60.7714 13.2471 60.7714L13.5806 61.9031C13.5806 61.9031 13.6402 62.1414 13.8546 62.0818C14.0691 62.0222 13.9976 61.7721 13.9976 61.7721L13.6402 60.414ZM17.8335 62.0818C18.0599 62.0818 18.2505 61.8912 18.2505 61.6649C18.2505 61.4385 18.0599 61.2479 17.8335 61.2479C17.6072 61.2479 17.4166 61.4385 17.4166 61.6649C17.4166 61.9031 17.5953 62.0818 17.8335 62.0818ZM18.8223 63.2731C18.8223 63.2612 18.5602 62.6179 18.5245 62.5226C18.4292 62.2486 18.2624 62.2486 18.0956 62.2486H17.8335H17.5119C17.2975 62.2605 17.226 62.3677 16.9877 62.9872C16.952 63.0706 16.8329 63.3684 16.8329 63.3803C16.809 63.428 16.7971 63.5352 16.8924 63.5828C17.0115 63.6305 17.0711 63.5233 17.0711 63.5233L17.2975 62.7966C17.2975 62.7966 17.3332 62.7489 17.3332 62.7966V64.5001C17.3332 64.6193 17.4285 64.7146 17.5476 64.7146C17.6668 64.7146 17.7621 64.6193 17.7621 64.5001V63.8211C17.7621 63.8211 17.7502 63.7258 17.8216 63.7258C17.8931 63.7258 17.8812 63.8211 17.8812 63.8211V64.5001C17.8812 64.6193 17.9765 64.7146 18.0956 64.7146C18.2148 64.7146 18.3101 64.6193 18.3101 64.5001V62.7966C18.3101 62.7489 18.3339 62.7847 18.3339 62.7847L18.5126 63.285C18.5126 63.285 18.5841 63.5114 18.6079 63.5114C18.6913 63.5471 18.7866 63.5114 18.8104 63.428C18.8581 63.3803 18.8462 63.3208 18.8223 63.2731ZM8.11255 59.5324C8.41038 59.5324 8.64864 59.2942 8.64864 58.9963C8.64864 58.6985 8.41038 58.4602 8.11255 58.4602C7.81472 58.4602 7.58838 58.6985 7.58838 58.9963C7.58838 59.2942 7.82664 59.5324 8.11255 59.5324Z" fill="white"/>
<path d="M10.2818 62.0821C10.5081 62.0821 10.6987 61.8915 10.6987 61.6651C10.6987 61.4388 10.5081 61.2482 10.2818 61.2482C10.0554 61.2482 9.86483 61.4388 9.86483 61.6651C9.86483 61.9034 10.0554 62.0821 10.2818 62.0821ZM9.93631 52.0156V53.0044H9.70996V51.4437H9.97205L10.258 52.3372V51.4437H10.4724V53.0044H10.246L9.93631 52.0156ZM10.6511 52.5993V51.8369C10.6511 51.5867 10.7702 51.4199 11.0442 51.4199C11.3182 51.4199 11.4493 51.5986 11.4493 51.8369V52.5993C11.4493 52.8376 11.3301 53.0163 11.0442 53.0163C10.7702 53.0163 10.6511 52.8376 10.6511 52.5993ZM11.1872 52.6351V51.7892C11.1872 51.6939 11.1514 51.6224 11.0561 51.6224C10.9608 51.6224 10.9251 51.6939 10.9251 51.7892V52.6351C10.9251 52.7304 10.9608 52.8018 11.0561 52.8018C11.1395 52.8018 11.1872 52.7304 11.1872 52.6351ZM9.72187 53.7549H10.115C10.3771 53.7549 10.4724 53.8859 10.4724 54.1004V54.4339C10.4724 54.6484 10.3771 54.7913 10.115 54.7913H9.98396V55.3274H9.72187V53.7549ZM9.98396 53.9693V54.5888H10.0793C10.1746 54.5888 10.2103 54.5411 10.2103 54.4577V54.1004C10.2103 54.017 10.1746 53.9693 10.0793 53.9693H9.98396ZM10.6273 54.9224V54.1599C10.6273 53.9097 10.7464 53.743 11.0204 53.743C11.2944 53.743 11.4254 53.9217 11.4254 54.1599V54.9224C11.4254 55.1606 11.3063 55.3393 11.0204 55.3393C10.7464 55.3393 10.6273 55.1606 10.6273 54.9224ZM11.1634 54.9581V54.1123C11.1634 54.017 11.1276 53.9455 11.0323 53.9455C10.937 53.9455 10.9013 54.017 10.9013 54.1123V54.9581C10.9013 55.0534 10.937 55.1249 11.0323 55.1249C11.1157 55.1249 11.1634 55.0534 11.1634 54.9581ZM12.4023 53.7549L12.1045 55.3155H11.8186L11.5207 53.7549H11.7828L11.9615 54.8509L12.1521 53.7549H12.4023ZM12.5334 53.7549H13.1647V53.9693H12.7954V54.422H13.0575V54.6364H12.7954V55.113H13.1647V55.3274H12.5334V53.7549ZM13.5817 54.6007V55.3155H13.3196V53.7549H13.7008C13.9629 53.7549 14.0582 53.8859 14.0582 54.1004V54.3029C14.0582 54.4697 13.9987 54.565 13.8438 54.6007L14.094 55.3155H13.82L13.5817 54.6007ZM13.5817 53.9693V54.4577H13.6651C13.7604 54.4577 13.7961 54.4101 13.7961 54.3267V54.1004C13.7961 54.017 13.7604 53.9693 13.6651 53.9693H13.5817ZM14.1774 53.7549H14.8802V53.9693H14.6658V55.3274H14.4037V53.9812H14.1893L14.1774 53.7549ZM15.5354 54.7198V55.3155H15.2734V54.7198L14.9755 53.7549H15.2495L15.4044 54.3505L15.5593 53.7549H15.8094L15.5354 54.7198Z" fill="white"/>
<path d="M30.4926 96.8143C36.1397 96.8143 40.7176 92.2364 40.7176 86.5893C40.7176 80.9421 36.1397 76.3643 30.4926 76.3643C24.8455 76.3643 20.2676 80.9421 20.2676 86.5893C20.2676 92.2364 24.8455 96.8143 30.4926 96.8143Z" fill="#DDA63A"/>
<path d="M26.0203 83.1217H25.2289V82.9883C25.2289 82.7661 25.309 82.6771 25.4334 82.5438L25.7446 82.2148C25.9936 81.9481 26.0469 81.7791 26.0469 81.4857V81.2101C26.0469 80.8011 25.8513 80.6055 25.4157 80.6055C24.9889 80.6055 24.7755 80.8278 24.7755 81.2368V81.5835H25.2201V81.219C25.2201 81.0411 25.309 80.9967 25.4068 80.9967C25.5046 80.9967 25.5846 81.0323 25.5846 81.2101V81.4501C25.5846 81.6902 25.5668 81.7791 25.4068 81.9481L25.1311 82.2415C24.8644 82.526 24.7666 82.7127 24.7666 82.9972V83.5307H26.0292L26.0203 83.1217Z" fill="white"/>
<path d="M29.256 91.595V91.8173C29.256 91.8706 29.3004 91.9062 29.3449 91.9062H31.7011C31.7544 91.9062 31.79 91.8617 31.79 91.8084V91.5772C33.1147 91.1415 34.1106 90.0657 34.3329 88.7498V88.7409V88.732C34.3329 88.6786 34.2884 88.6342 34.235 88.6342H26.713C26.6597 88.6342 26.6152 88.6786 26.6152 88.732L26.6241 88.7764C26.882 90.0924 27.9045 91.1771 29.256 91.595ZM31.8078 85.4155C31.7811 85.46 31.052 86.5092 31.8255 87.3538C32.1812 87.7451 32.1456 88.0829 32.0478 88.3141H32.5457C32.6435 87.9762 32.6079 87.5406 32.199 87.1049C31.6299 86.4825 32.2079 85.6378 32.2168 85.6289C32.2879 85.5311 32.2523 85.4067 32.1367 85.3533C32.0211 85.2911 31.8789 85.3177 31.8078 85.4155ZM30.5541 88.3141H31.052C31.1498 87.9762 31.1142 87.5406 30.7052 87.1049C30.1362 86.4825 30.7141 85.6378 30.723 85.6289C30.7941 85.5311 30.7586 85.4067 30.643 85.3533C30.5274 85.3 30.3851 85.3266 30.314 85.4244C30.2785 85.4689 29.5583 86.5181 30.3318 87.3627C30.6875 87.7451 30.6519 88.0829 30.5541 88.3141ZM28.8114 85.4155C28.7758 85.46 28.0556 86.5092 28.8292 87.3538C29.1848 87.7451 29.1493 88.0829 29.0515 88.3141H29.5494C29.6472 87.9762 29.6116 87.5406 29.2026 87.1049C28.6336 86.4825 29.2115 85.6378 29.2204 85.6289C29.2915 85.5311 29.256 85.4067 29.1404 85.3533C29.0337 85.2911 28.8825 85.3177 28.8114 85.4155Z" fill="white"/>
<path d="M27.6293 81.6455H27.9316V81.8056H27.4248V81.6455L27.736 80.8009H27.4604V80.6408H27.9494V80.8009L27.6293 81.6455ZM28.0561 80.6319H28.5273V80.792H28.2517V81.1299H28.4473V81.2899H28.2517V81.6455H28.5273V81.8056H28.0561V80.6319ZM28.8474 81.2632V81.7967H28.6518V80.6319H28.9363C29.1319 80.6319 29.2031 80.7297 29.2031 80.8898V81.0409C29.2031 81.1654 29.1586 81.2365 29.043 81.2632L29.2297 81.7967H29.0252L28.8474 81.2632ZM28.8474 80.792V81.1565H28.9097C28.9808 81.1565 29.0075 81.121 29.0075 81.0587V80.8898C29.0075 80.8275 28.9808 80.792 28.9097 80.792H28.8474ZM29.3275 81.5033V80.9342C29.3275 80.7475 29.4165 80.623 29.621 80.623C29.8255 80.623 29.9233 80.7564 29.9233 80.9342V81.5033C29.9233 81.6811 29.8343 81.8145 29.621 81.8145C29.4165 81.8145 29.3275 81.6811 29.3275 81.5033ZM29.7277 81.53V80.8987C29.7277 80.8275 29.701 80.7742 29.6298 80.7742C29.5587 80.7742 29.532 80.8275 29.532 80.8987V81.53C29.532 81.6011 29.5587 81.6544 29.6298 81.6544C29.701 81.6544 29.7277 81.6011 29.7277 81.53Z" fill="white"/>
<path d="M27.8159 82.9973H27.6292V83.513H27.4336V82.3482H27.6292V82.8462H27.8159V82.3482H28.0115V83.513H27.8159V82.9973ZM28.7139 82.3482V83.2285C28.7139 83.4063 28.6339 83.5308 28.4383 83.5308C28.2338 83.5308 28.1449 83.4152 28.1449 83.2285V82.3482H28.3405V83.2552C28.3405 83.3263 28.3672 83.3707 28.4383 83.3707C28.5094 83.3707 28.5361 83.3263 28.5361 83.2552V82.3482H28.7139ZM29.0073 82.7839V83.5219H28.8473V82.3571H29.0429L29.2563 83.024V82.3571H29.4164V83.5219H29.2474L29.0073 82.7839ZM29.8431 82.8906H30.1188V83.513H29.9765V83.3885C29.9498 83.4774 29.8965 83.5308 29.7898 83.5308C29.6209 83.5308 29.5408 83.3974 29.5408 83.2196V82.6506C29.5408 82.4638 29.6297 82.3394 29.8342 82.3394C30.0476 82.3394 30.1188 82.4638 30.1188 82.6328V82.7395H29.9409V82.6239C29.9409 82.5527 29.9143 82.5083 29.8431 82.5083C29.772 82.5083 29.7453 82.5616 29.7453 82.6328V83.2641C29.7453 83.3352 29.772 83.3885 29.8431 83.3885C29.9054 83.3885 29.9409 83.353 29.9409 83.2729V83.0684H29.852V82.8906H29.8431ZM30.2521 82.3482H30.7234V82.5083H30.4477V82.8462H30.6434V83.0062H30.4477V83.3619H30.7234V83.5219H30.2521V82.3482ZM31.0346 82.9795V83.513H30.839V82.3482H31.1235C31.3191 82.3482 31.3902 82.4461 31.3902 82.6061V82.7572C31.3902 82.8817 31.3458 82.9529 31.2302 82.9795L31.4169 83.513H31.2124L31.0346 82.9795ZM31.0346 82.5083V82.8728H31.0968C31.1679 82.8728 31.1946 82.8373 31.1946 82.775V82.6061C31.1946 82.5439 31.1679 82.5083 31.0968 82.5083H31.0346Z" fill="white"/>
<path d="M40.8096 57.8535C44.4685 57.8535 47.4346 54.8874 47.4346 51.2285C47.4346 47.5696 44.4685 44.6035 40.8096 44.6035C37.1507 44.6035 34.1846 47.5696 34.1846 51.2285C34.1846 54.8874 37.1507 57.8535 40.8096 57.8535Z" fill="#4C9F38"/>
<path d="M39.4183 70.4059C40.6913 70.4059 41.7233 69.3739 41.7233 68.1009C41.7233 66.8279 40.6913 65.7959 39.4183 65.7959C38.1453 65.7959 37.1133 66.8279 37.1133 68.1009C37.1133 69.3739 38.1453 70.4059 39.4183 70.4059Z" fill="#C5192D"/>
<path d="M53.3849 40.6638C57.1846 40.6638 60.2649 37.5835 60.2649 33.7838C60.2649 29.9841 57.1846 26.9038 53.3849 26.9038C49.5852 26.9038 46.5049 29.9841 46.5049 33.7838C46.5049 37.5835 49.5852 40.6638 53.3849 40.6638Z" fill="#FF3A21"/>
<path d="M90.2272 22.9745C95.0293 22.9745 98.9222 19.0816 98.9222 14.2795C98.9222 9.47736 95.0293 5.58447 90.2272 5.58447C85.4251 5.58447 81.5322 9.47736 81.5322 14.2795C81.5322 19.0816 85.4251 22.9745 90.2272 22.9745Z" fill="#26BDE2"/>
<path d="M98.4424 130.467C126.057 130.467 148.442 108.081 148.442 80.4668C148.442 52.8526 126.057 30.4668 98.4424 30.4668C70.8281 30.4668 48.4424 52.8526 48.4424 80.4668C48.4424 108.081 70.8281 130.467 98.4424 130.467Z" fill="#FCC30B"/>
<path d="M70.9648 53.5102H74.617L71.4431 65.6841H73.7909L76.9214 53.7711V51.5972H70.9648V53.5102Z" fill="white"/>
<path d="M83.6152 57.2929L84.7022 51.5972H85.7891L86.8761 57.2929H85.8761L85.7022 56.2494H84.7022L84.5283 57.2929H83.6152ZM84.8326 55.4668H85.6152L85.2239 53.1624L84.8326 55.4668ZM87.2239 51.5972H89.4848V52.3798H88.1805V54.032H89.137V54.8146H88.1805V57.3363H87.2239V51.5972ZM89.8761 51.5972H92.137V52.3798H90.8326V54.032H91.7891V54.8146H90.8326V57.3363H89.8761V51.5972ZM92.3978 55.8146V53.032C92.3978 52.1189 92.8326 51.5103 93.8326 51.5103C94.8326 51.5103 95.3109 52.1624 95.3109 53.032V55.8146C95.3109 56.6842 94.8761 57.3363 93.8326 57.3363C92.8326 57.3798 92.3978 56.6842 92.3978 55.8146ZM94.3544 55.9885V52.9016C94.3544 52.5537 94.2239 52.2929 93.8761 52.2929C93.5283 52.2929 93.3978 52.5537 93.3978 52.9016V55.9885C93.3978 56.3363 93.5283 56.5972 93.8761 56.5972C94.2239 56.5537 94.3544 56.3363 94.3544 55.9885ZM96.7891 54.6842V57.2929H95.8326V51.5972H97.2239C98.1805 51.5972 98.5283 52.0755 98.5283 52.8581V53.5972C98.5283 54.2059 98.3109 54.5537 97.7457 54.6842L98.6587 57.2929H97.6587L96.7891 54.6842ZM96.7891 52.3798V54.1624H97.0935C97.4413 54.1624 97.5718 53.9885 97.5718 53.6842V52.8581C97.5718 52.5537 97.4413 52.3798 97.0935 52.3798H96.7891ZM101.92 53.1189V55.7711C101.92 56.6407 101.572 57.2929 100.528 57.2929H99.05V51.5972H100.528C101.528 51.5972 101.92 52.2494 101.92 53.1189ZM100.398 56.5103C100.789 56.5103 100.963 56.2929 100.963 55.945V52.945C100.963 52.5972 100.833 52.3798 100.398 52.3798H100.007V56.5103H100.398ZM102.137 57.2929L103.224 51.5972H104.311L105.398 57.2929H104.398L104.224 56.2494H103.224L103.05 57.2929H102.137ZM103.354 55.4668H104.137L103.746 53.1624L103.354 55.4668ZM105.746 51.5972H107.137C108.093 51.5972 108.398 52.032 108.398 52.8581V53.4233C108.398 53.9016 108.224 54.2059 107.832 54.3363C108.311 54.4668 108.528 54.7711 108.528 55.2929V56.032C108.528 56.8581 108.18 57.2929 107.224 57.2929H105.746V51.5972ZM106.702 53.9885H107.05C107.354 53.9885 107.485 53.8146 107.485 53.5103V52.8146C107.485 52.5103 107.354 52.3363 107.006 52.3363H106.659V53.9885H106.702ZM106.702 54.7276V56.5103H107.137C107.441 56.5103 107.615 56.3363 107.615 56.032V55.1624C107.615 54.8581 107.485 54.6842 107.137 54.6842H106.702V54.7276ZM109.006 51.5972H109.963V56.5103H111.093V57.2929H109.006V51.5972ZM111.528 51.5972H113.832V52.3798H112.485V54.032H113.441V54.8146H112.485V56.5537H113.832V57.3363H111.528V51.5972ZM114.963 57.2929L116.05 51.5972H117.137L118.224 57.2929H117.224L117.05 56.2494H116.05L115.876 57.2929H114.963ZM116.18 55.4668H116.963L116.572 53.1624L116.18 55.4668ZM119.398 53.6842V57.2929H118.572V51.5972H119.528L120.572 54.8581V51.5972H121.354V57.2929H120.528L119.398 53.6842ZM124.745 53.1189V55.7711C124.745 56.6407 124.398 57.2929 123.354 57.2929H121.876V51.5972H123.354C124.398 51.5972 124.745 52.2494 124.745 53.1189ZM123.267 56.5103C123.659 56.5103 123.832 56.2929 123.832 55.945V52.945C123.832 52.5972 123.702 52.3798 123.267 52.3798H122.876V56.5103H123.267Z" fill="white"/>
<path d="M83.7461 64.2057V61.4666C83.7461 60.597 84.1809 59.9448 85.1809 59.9448C86.2244 59.9448 86.5287 60.5535 86.5287 61.3796V62.0318H85.6591V61.2926C85.6591 60.9448 85.5287 60.7274 85.1809 60.7274C84.833 60.7274 84.7026 60.9883 84.7026 61.3361V64.3796C84.7026 64.7274 84.833 64.9883 85.1809 64.9883C85.5287 64.9883 85.6591 64.7709 85.6591 64.4231V63.3796H86.5287V64.3796C86.5287 65.2057 86.1809 65.8144 85.1809 65.8144C84.1809 65.7709 83.7461 65.1187 83.7461 64.2057ZM87.1374 59.9883H88.0939V64.9013H89.2244V65.684H87.1374V59.9883ZM89.7461 59.9883H92.007V60.7709H90.7026V62.3796H91.6591V63.1622H90.7026V64.9013H92.007V65.684H89.7461V59.9883ZM92.4852 65.684L93.5722 59.9883H94.6591L95.7461 65.684H94.7461L94.5722 64.6405H93.5722L93.3983 65.684H92.4852ZM93.7026 63.9013H94.4852L94.0939 61.597L93.7026 63.9013ZM97.007 62.1187V65.684H96.1809V59.9883H97.1374L98.1809 63.2492V59.9883H98.9635V65.684H98.1374L97.007 62.1187ZM101.529 59.9883H103.79V60.7709H102.485V62.3796H103.442V63.1622H102.485V64.9013H103.79V65.684H101.529V59.9883ZM105.181 62.1187V65.684H104.355V59.9883H105.311L106.355 63.2492V59.9883H107.137V65.684H106.311L105.181 62.1187ZM107.789 59.9883H110.05V60.7709H108.746V62.3796H109.703V63.1622H108.746V64.9013H110.05V65.684H107.789V59.9883ZM111.616 63.0753V65.684H110.659V59.9883H112.05C113.007 59.9883 113.355 60.4666 113.355 61.2492V61.9883C113.355 62.597 113.137 62.9448 112.572 63.0753L113.485 65.6405H112.485L111.616 63.0753ZM111.616 60.7709V62.5535H111.92C112.268 62.5535 112.398 62.3796 112.398 62.0753V61.2492C112.398 60.9448 112.268 60.7709 111.92 60.7709H111.616ZM115.398 62.6405H116.746V65.684H116.05V65.0753C115.92 65.51 115.659 65.7709 115.137 65.7709C114.311 65.7709 113.92 65.1187 113.92 64.2492V61.51C113.92 60.6405 114.355 59.9883 115.355 59.9883C116.398 59.9883 116.703 60.597 116.703 61.4231V61.9448H115.833V61.3796C115.833 61.0318 115.703 60.8144 115.355 60.8144C115.007 60.8144 114.876 61.0753 114.876 61.4231V64.4666C114.876 64.8144 115.007 65.0753 115.355 65.0753C115.659 65.0753 115.833 64.9013 115.833 64.51V63.51H115.398V62.6405ZM119.224 63.51V65.684H118.268V63.51L117.181 59.9883H118.181L118.746 62.1622L119.311 59.9883H120.224L119.224 63.51Z" fill="white"/>
<path d="M98.833 107.641C99.3112 107.641 99.6591 107.25 99.6591 106.858V102.38C99.6591 101.989 99.2677 101.597 98.833 101.597C98.3547 101.597 98.0069 102.032 98.0069 102.38V106.858C98.0069 107.206 98.3982 107.641 98.833 107.641ZM98.746 79.6409C93.0938 79.6409 88.4851 84.2496 88.4851 89.9018C88.4851 95.554 93.0938 100.163 98.746 100.163C104.398 100.163 109.007 95.554 109.007 89.9018C109.007 84.2062 104.442 79.6409 98.746 79.6409ZM98.0069 83.6844C98.0069 83.3366 98.3547 82.9888 98.7895 82.9888C99.2243 82.9888 99.5286 83.3801 99.5286 83.6844V87.2062C99.5286 87.554 99.1808 87.9018 98.7895 87.9018C98.3547 87.9018 98.0069 87.5105 98.0069 87.2062V83.6844ZM98.746 95.1192C95.7895 95.1192 93.3982 92.7279 93.3982 89.7714C93.3982 87.3801 94.9634 85.3366 97.1373 84.6844V86.6844C96.0069 87.2496 95.2243 88.4236 95.2243 89.7714C95.2243 91.6844 96.7895 93.2496 98.7025 93.2496C100.616 93.2496 102.181 91.6844 102.181 89.7714C102.181 88.4236 101.398 87.2496 100.268 86.6409V84.6409C102.442 85.2931 104.007 87.3366 104.007 89.7279C104.094 92.7279 101.703 95.1192 98.746 95.1192ZM87.0069 89.7714C87.0069 89.2931 86.6156 88.9453 86.2243 88.9453H81.7025C81.3112 88.9453 80.9199 89.3366 80.9199 89.7714C80.9199 90.2496 81.3547 90.5975 81.7025 90.5975H86.1808C86.5721 90.6409 87.0069 90.2496 87.0069 89.7714ZM116.615 89.7714C116.615 89.2931 116.224 88.9453 115.833 88.9453H111.355C110.963 88.9453 110.572 89.3366 110.572 89.7714C110.572 90.2496 111.007 90.5975 111.355 90.5975H115.833C116.181 90.6409 116.615 90.2496 116.615 89.7714ZM98.746 78.0322C99.2243 78.0322 99.5721 77.6409 99.5721 77.2496V72.7714C99.5721 72.3801 99.1808 71.9888 98.746 71.9888C98.2677 71.9888 97.9199 72.4236 97.9199 72.7714V77.2062C97.9199 77.5975 98.3112 78.0322 98.746 78.0322ZM88.5286 83.9453C88.746 83.554 88.5721 82.9888 88.2677 82.8149L84.3547 80.5975C84.0069 80.4236 83.4851 80.5105 83.2677 80.9453C83.0504 81.3366 83.2243 81.9018 83.5286 82.0757L87.4417 84.2931C87.746 84.467 88.3112 84.3366 88.5286 83.9453ZM114.268 98.6409C114.485 98.2496 114.311 97.6844 114.007 97.5105L110.094 95.2931C109.746 95.1192 109.224 95.2062 109.007 95.6409C108.789 96.0322 108.963 96.5975 109.268 96.7714L113.181 98.9888C113.485 99.1627 114.007 99.0757 114.268 98.6409ZM104.616 79.554C105.007 79.7714 105.529 79.5975 105.746 79.2931L107.963 75.3801C108.137 75.0322 108.05 74.5105 107.615 74.2931C107.224 74.0757 106.659 74.2496 106.485 74.554L104.268 78.467C104.094 78.8149 104.224 79.3366 104.616 79.554ZM89.8764 105.293C90.2677 105.511 90.7895 105.337 91.0069 105.032L93.2243 101.119C93.3982 100.771 93.3112 100.25 92.8764 100.032C92.4851 99.8149 91.9199 99.9888 91.746 100.293L89.5286 104.206C89.3547 104.511 89.4851 105.032 89.8764 105.293ZM92.8764 79.5975C93.2677 79.3801 93.3982 78.8149 93.2243 78.5105L91.0069 74.5975C90.833 74.2496 90.2677 74.0757 89.8764 74.3366C89.4851 74.554 89.3547 75.1192 89.5286 75.467L91.746 79.3801C91.9634 79.6409 92.4851 79.8149 92.8764 79.5975ZM107.659 105.25C108.05 105.032 108.181 104.467 108.007 104.163L105.789 100.25C105.616 99.9018 105.05 99.7279 104.659 99.9888C104.268 100.206 104.137 100.771 104.311 101.119L106.529 105.032C106.703 105.337 107.268 105.511 107.659 105.25ZM108.963 83.9018C109.181 84.2931 109.746 84.4236 110.05 84.2496L113.963 82.0322C114.311 81.8583 114.485 81.2931 114.224 80.9018C114.007 80.5105 113.442 80.3801 113.094 80.554L109.181 82.7714C108.92 82.9888 108.746 83.5105 108.963 83.9018ZM83.3112 98.6844C83.5286 99.0757 84.0938 99.2062 84.3982 99.0322L88.3112 96.8149C88.6591 96.6409 88.833 96.0757 88.5721 95.6844C88.3547 95.2931 87.7895 95.1627 87.4417 95.3366L83.5286 97.554C83.2243 97.7279 83.0504 98.2931 83.3112 98.6844Z" fill="white"/>
<path d="M119.764 25.75C126.874 25.75 132.639 19.9857 132.639 12.875C132.639 5.76433 126.874 0 119.764 0C112.653 0 106.889 5.76433 106.889 12.875C106.889 19.9857 112.653 25.75 119.764 25.75Z" fill="#A21942"/>
<path d="M114.266 8.18375V7.7807C114.266 7.43364 114.143 7.17614 113.863 7.05299C114.109 6.92984 114.221 6.71712 114.221 6.42603V6.28049C114.221 5.70951 113.93 5.40723 113.359 5.40723C112.799 5.40723 112.508 5.70951 112.508 6.28049V6.42603C112.508 6.71712 112.62 6.94103 112.855 7.05299C112.575 7.17614 112.452 7.43364 112.452 7.7807V8.17255C112.452 8.72114 112.71 9.11299 113.359 9.11299C113.997 9.12418 114.266 8.73234 114.266 8.18375ZM113.079 6.2357C113.079 6.01179 113.157 5.88864 113.348 5.88864C113.549 5.88864 113.628 6.01179 113.628 6.2357V6.48201C113.628 6.70592 113.549 6.82907 113.348 6.82907C113.146 6.82907 113.079 6.69473 113.079 6.48201V6.2357ZM113.65 8.25092C113.65 8.47484 113.572 8.63157 113.348 8.63157C113.135 8.63157 113.057 8.47484 113.057 8.25092V7.65755C113.057 7.43364 113.135 7.2881 113.348 7.2881C113.572 7.2881 113.65 7.44484 113.65 7.65755V8.25092Z" fill="white"/>
<path d="M123.268 12.7964L121.432 14.5429C121.364 14.6101 121.331 14.666 121.331 14.8004V19.6817C121.331 19.7377 121.376 19.7824 121.432 19.7824H123.324C123.38 19.7824 123.424 19.7377 123.424 19.6817V12.8411C123.436 12.774 123.391 12.6732 123.268 12.7964ZM117.994 15.0579L116.158 16.8044C116.091 16.8716 116.058 16.9276 116.058 17.0619V19.6705C116.058 19.7265 116.102 19.7712 116.158 19.7712H118.05C118.106 19.7712 118.151 19.7265 118.151 19.6705V15.1027C118.162 15.0467 118.118 14.9459 117.994 15.0579Z" fill="white"/>
<path d="M124.107 10.6805C124.107 10.6693 124.107 10.6469 124.096 10.6357C124.085 10.6245 124.073 10.6245 124.062 10.6245H124.04L122.64 10.938H122.618C122.607 10.938 122.596 10.9492 122.596 10.9492C122.573 10.9716 122.573 11.0052 122.596 11.0276L122.607 11.0388L122.931 11.3634L119.752 14.543L118.285 13.0764C118.274 13.0652 118.241 13.0652 118.229 13.0764L117.826 13.4794L115.475 15.8305C115.464 15.8417 115.464 15.8753 115.475 15.8865L115.878 16.2895C115.889 16.3007 115.923 16.3007 115.934 16.2895L118.263 13.972L119.326 15.0356L119.73 15.4387C119.741 15.4498 119.774 15.4498 119.786 15.4387L123.391 11.8336L123.726 12.1695C123.749 12.1919 123.782 12.1919 123.805 12.1695C123.816 12.1583 123.816 12.1471 123.816 12.1359L124.129 10.7029L124.107 10.6805Z" fill="white"/>
<path d="M120.648 15.3714L119.764 16.267C119.741 16.2782 119.719 16.2782 119.708 16.267L118.902 15.4497C118.756 15.3042 118.723 15.4274 118.723 15.4833V19.6929C118.723 19.7489 118.767 19.7937 118.823 19.7937H120.715C120.771 19.7937 120.816 19.7489 120.816 19.6929V15.4162C120.816 15.3378 120.771 15.237 120.648 15.3714Z" fill="white"/>
<path d="M116.348 5.8327V6.51563C116.348 6.73954 116.259 6.90748 115.99 6.90748H115.609V5.44085H115.99C116.259 5.44085 116.348 5.60878 116.348 5.8327ZM115.956 6.70596C116.057 6.70596 116.102 6.64998 116.102 6.56041V5.78791C116.102 5.69835 116.068 5.64237 115.956 5.64237H115.856V6.70596H115.956ZM116.505 5.44085H117.098V5.64237H116.751V6.0678H116.998V6.26933H116.751V6.71715H117.098V6.91867H116.505V5.44085ZM117.222 6.52683V5.8103C117.222 5.5752 117.334 5.41846 117.591 5.41846C117.86 5.41846 117.938 5.5752 117.938 5.78791V5.96704H117.714V5.76552C117.714 5.67596 117.681 5.61998 117.591 5.61998C117.501 5.61998 117.468 5.68715 117.468 5.77672V6.57161C117.468 6.66117 117.501 6.72835 117.591 6.72835C117.681 6.72835 117.714 6.67237 117.714 6.5828V6.31411H117.938V6.57161C117.938 6.78433 117.849 6.94107 117.591 6.94107C117.334 6.92987 117.222 6.75074 117.222 6.52683ZM118.095 5.44085H118.688V5.64237H118.341V6.0678H118.587V6.26933H118.341V6.71715H118.688V6.91867H118.095V5.44085ZM119.035 5.97824V6.90748H118.823V5.44085H119.069L119.338 6.28052V5.44085H119.539V6.90748H119.326L119.035 5.97824ZM119.673 5.44085H120.334V5.64237H120.132V6.90748H119.886V5.64237H119.685V5.44085H119.673ZM121.241 6.00063L121.106 6.90748H120.871L120.67 5.44085H120.905L121.017 6.37009L121.14 5.44085H121.342L121.476 6.37009L121.588 5.44085H121.801L121.61 6.90748H121.386L121.241 6.00063ZM121.901 6.52683V5.8103C121.901 5.5752 122.013 5.41846 122.271 5.41846C122.528 5.41846 122.651 5.58639 122.651 5.8103V6.52683C122.651 6.75074 122.539 6.91867 122.271 6.91867C122.013 6.92987 121.901 6.75074 121.901 6.52683ZM122.394 6.57161V5.77672C122.394 5.68715 122.36 5.61998 122.271 5.61998C122.181 5.61998 122.148 5.68715 122.148 5.77672V6.57161C122.148 6.66117 122.181 6.72835 122.271 6.72835C122.36 6.71715 122.394 6.66117 122.394 6.57161ZM123.054 6.23574V6.90748H122.808V5.44085H123.166C123.413 5.44085 123.502 5.564 123.502 5.76552V5.95585C123.502 6.11259 123.446 6.20215 123.301 6.23574L123.536 6.90748H123.278L123.054 6.23574ZM123.054 5.64237V6.10139H123.133C123.222 6.10139 123.256 6.05661 123.256 5.97824V5.76552C123.256 5.68715 123.222 5.64237 123.133 5.64237H123.054ZM123.905 6.19096V6.90748H123.659V5.44085H123.905V6.0902L124.174 5.44085H124.42L124.129 6.10139L124.42 6.90748H124.163L123.905 6.19096ZM124.767 6.90748L125.047 5.44085H125.327L125.607 6.90748H125.35L125.305 6.63878H125.047L125.002 6.90748H124.767ZM125.081 6.43726H125.282L125.182 5.84389L125.081 6.43726ZM125.898 5.97824V6.90748H125.685V5.44085H125.932L126.2 6.28052V5.44085H126.402V6.90748H126.189L125.898 5.97824ZM127.309 5.8327V6.51563C127.309 6.73954 127.219 6.90748 126.951 6.90748H126.57V5.44085H126.951C127.219 5.44085 127.309 5.60878 127.309 5.8327ZM126.917 6.70596C127.018 6.70596 127.062 6.64998 127.062 6.56041V5.78791C127.062 5.69835 127.029 5.64237 126.917 5.64237H126.816V6.70596H126.917Z" fill="white"/>
<path d="M115.609 7.60149H116.203V7.80301H115.856V8.22845H116.102V8.42997H115.856V8.8778H116.203V9.07932H115.609V7.60149ZM116.304 8.68747V7.97095C116.304 7.73584 116.415 7.5791 116.673 7.5791C116.942 7.5791 117.02 7.73584 117.02 7.94856V8.12769H116.796V7.93736C116.796 7.8478 116.763 7.79182 116.673 7.79182C116.583 7.79182 116.55 7.85899 116.55 7.94856V8.74345C116.55 8.83301 116.583 8.90019 116.673 8.90019C116.763 8.90019 116.796 8.84421 116.796 8.75465V8.48595H117.02V8.74345C117.02 8.95617 116.93 9.11291 116.673 9.11291C116.415 9.09051 116.304 8.92258 116.304 8.68747ZM117.154 8.68747V7.97095C117.154 7.73584 117.266 7.5791 117.524 7.5791C117.781 7.5791 117.904 7.74704 117.904 7.97095V8.68747C117.904 8.91138 117.793 9.07932 117.524 9.07932C117.278 9.09051 117.154 8.92258 117.154 8.68747ZM117.658 8.73225V7.93736C117.658 7.8478 117.625 7.78062 117.535 7.78062C117.445 7.78062 117.412 7.8478 117.412 7.93736V8.73225C117.412 8.82182 117.445 8.88899 117.535 8.88899C117.625 8.8778 117.658 8.82182 117.658 8.73225ZM118.263 8.15008V9.07932H118.05V7.61269H118.296L118.565 8.45236V7.61269H118.767V9.07932H118.554L118.263 8.15008ZM118.912 8.68747V7.97095C118.912 7.73584 119.024 7.5791 119.282 7.5791C119.539 7.5791 119.662 7.74704 119.662 7.97095V8.68747C119.662 8.91138 119.55 9.07932 119.282 9.07932C119.024 9.09051 118.912 8.92258 118.912 8.68747ZM119.405 8.73225V7.93736C119.405 7.8478 119.371 7.78062 119.282 7.78062C119.192 7.78062 119.158 7.8478 119.158 7.93736V8.73225C119.158 8.82182 119.192 8.88899 119.282 8.88899C119.371 8.8778 119.405 8.82182 119.405 8.73225ZM120.479 8.11649L120.3 9.06812H120.188L120.009 8.11649V9.06812H119.808V7.60149H120.099L120.256 8.42997L120.401 7.60149H120.715V9.06812H120.491L120.479 8.11649ZM120.849 7.60149H121.095V9.06812H120.849V7.60149ZM121.23 8.68747V7.97095C121.23 7.73584 121.342 7.5791 121.599 7.5791C121.868 7.5791 121.946 7.73584 121.946 7.94856V8.12769H121.722V7.93736C121.722 7.8478 121.689 7.79182 121.599 7.79182C121.509 7.79182 121.476 7.85899 121.476 7.94856V8.74345C121.476 8.83301 121.509 8.90019 121.599 8.90019C121.689 8.90019 121.722 8.84421 121.722 8.75465V8.48595H121.946V8.74345C121.946 8.95617 121.857 9.11291 121.599 9.11291C121.342 9.09051 121.23 8.92258 121.23 8.68747ZM122.752 8.28443H123.099V9.06812H122.92V8.91138C122.887 9.02334 122.819 9.09051 122.685 9.09051C122.472 9.09051 122.372 8.92258 122.372 8.69867V7.98215C122.372 7.74704 122.483 7.5903 122.741 7.5903C123.01 7.5903 123.099 7.74704 123.099 7.95975V8.0941H122.875V7.94856C122.875 7.85899 122.842 7.80301 122.752 7.80301C122.663 7.80301 122.629 7.87019 122.629 7.95975V8.75465C122.629 8.84421 122.663 8.91138 122.752 8.91138C122.831 8.91138 122.875 8.8666 122.875 8.76584V8.50834H122.763V8.28443H122.752ZM123.513 8.39638V9.06812H123.267V7.60149H123.625C123.872 7.60149 123.961 7.72465 123.961 7.92617V8.11649C123.961 8.27323 123.905 8.3628 123.76 8.39638L123.995 9.06812H123.737L123.513 8.39638ZM123.513 7.80301V8.26204H123.592C123.681 8.26204 123.715 8.21725 123.715 8.13888V7.92617C123.715 7.8478 123.681 7.80301 123.592 7.80301H123.513ZM124.073 8.68747V7.97095C124.073 7.73584 124.185 7.5791 124.443 7.5791C124.7 7.5791 124.823 7.74704 124.823 7.97095V8.68747C124.823 8.91138 124.711 9.07932 124.443 9.07932C124.185 9.09051 124.073 8.92258 124.073 8.68747ZM124.577 8.73225V7.93736C124.577 7.8478 124.543 7.78062 124.454 7.78062C124.364 7.78062 124.331 7.8478 124.331 7.93736V8.73225C124.331 8.82182 124.364 8.88899 124.454 8.88899C124.543 8.8778 124.577 8.82182 124.577 8.73225ZM125.462 8.16128L125.327 9.06812H125.092L124.891 7.60149H125.126L125.238 8.53073L125.361 7.60149H125.562L125.697 8.53073L125.809 7.60149H126.021L125.831 9.06812H125.596L125.462 8.16128ZM126.111 7.60149H126.771V7.80301H126.57V9.06812H126.312V7.80301H126.111V7.60149ZM127.331 8.41878H127.096V9.06812H126.85V7.60149H127.096V8.22845H127.331V7.60149H127.577V9.06812H127.331V8.41878Z" fill="white"/>
<path d="M165.151 120.19C172.678 120.19 178.781 114.087 178.781 106.56C178.781 99.032 172.678 92.9297 165.151 92.9297C157.623 92.9297 151.521 99.032 151.521 106.56C151.521 114.087 157.623 120.19 165.151 120.19Z" fill="#FD6925"/>
<g clip-path="url(#clip0_6429_4292)">
<path d="M159.118 99.6024C159.118 99.0098 158.857 98.5713 158.182 98.5713C157.494 98.5713 157.233 98.9506 157.233 99.5432V100.112C157.233 100.74 157.482 101.06 157.945 101.06C158.217 101.06 158.383 100.93 158.478 100.752V101.582C158.478 101.819 158.383 101.973 158.158 101.973C157.921 101.973 157.838 101.842 157.838 101.594V101.333H157.245V101.534C157.245 102.103 157.447 102.494 158.17 102.494C158.845 102.494 159.118 102.056 159.118 101.451V99.6024ZM158.478 100.195C158.466 100.408 158.371 100.551 158.17 100.551C157.945 100.551 157.862 100.42 157.862 100.159V99.4958C157.862 99.2469 157.956 99.1046 158.17 99.1046C158.383 99.1046 158.466 99.2469 158.466 99.4958V100.195H158.478ZM169.927 109.582L167.663 108.278V105.659C167.663 105.6 167.64 105.552 167.58 105.529L165.234 104.177C165.186 104.154 165.127 104.154 165.08 104.177L162.733 105.529C162.685 105.552 162.65 105.611 162.65 105.659V108.278L160.386 109.582C160.339 109.606 160.303 109.665 160.303 109.712V112.415C160.303 112.474 160.327 112.521 160.386 112.545L162.733 113.896C162.757 113.908 162.78 113.92 162.816 113.92C162.839 113.92 162.875 113.908 162.899 113.896L165.163 112.592L167.426 113.896C167.45 113.908 167.474 113.92 167.509 113.92C167.545 113.92 167.568 113.908 167.592 113.896L169.939 112.545C169.986 112.521 170.022 112.462 170.022 112.415V109.712C169.998 109.653 169.974 109.606 169.927 109.582ZM164.997 112.154L163.112 111.063L164.997 109.973V112.154ZM167.189 108.361L165.305 109.452V107.283L167.189 108.361ZM164.997 109.44L163.112 108.349L164.997 107.259V109.44ZM165.471 109.712L167.509 108.539L169.548 109.712L167.509 110.886L165.471 109.712ZM167.343 108.089L165.459 106.998L167.343 105.908V108.089ZM164.842 107.01L162.958 108.1V105.931L164.842 107.01ZM162.662 113.505L160.623 112.332V109.985L162.662 111.158V113.505ZM162.97 113.505V111.336L164.854 112.426L162.97 113.505ZM169.69 112.332L167.651 113.505V111.158L169.69 109.985V112.332Z" fill="white"/>
<path d="M160.125 98.6661H160.374V100.112H160.125V98.6661ZM160.718 99.2113V100.124H160.516V98.678H160.753L161.014 99.5077V98.678H161.215V100.124H161.002L160.718 99.2113ZM162.092 99.0573V99.7328C162.092 99.958 161.998 100.124 161.737 100.124H161.358V98.678H161.737C162.009 98.6661 162.092 98.8321 162.092 99.0573ZM161.713 99.9225C161.808 99.9225 161.855 99.8632 161.855 99.7803V99.0217C161.855 98.9387 161.82 98.8795 161.713 98.8795H161.607V99.9343L161.713 99.9225ZM162.958 98.6661V99.7565C162.958 99.9817 162.863 100.124 162.614 100.124C162.353 100.124 162.247 99.9817 162.247 99.7565V98.6661H162.495V99.7803C162.495 99.8632 162.531 99.9225 162.614 99.9225C162.697 99.9225 162.732 99.8632 162.732 99.7803V98.6661H162.958ZM163.088 99.804V99.6143H163.313V99.8158C163.313 99.8988 163.349 99.9462 163.432 99.9462C163.503 99.9462 163.538 99.8988 163.538 99.8158V99.7565C163.538 99.6736 163.503 99.6262 163.432 99.5551L163.29 99.4128C163.147 99.2706 163.088 99.1876 163.088 99.0217V98.9743C163.088 98.7965 163.195 98.6543 163.432 98.6543C163.681 98.6543 163.775 98.7728 163.775 98.9862V99.1047H163.55V98.9743C163.55 98.8913 163.515 98.8558 163.432 98.8558C163.361 98.8558 163.313 98.8913 163.313 98.9743V99.0099C163.313 99.0928 163.361 99.1402 163.432 99.2113L163.586 99.3654C163.716 99.4958 163.787 99.5788 163.787 99.7447V99.8158C163.787 100.017 163.681 100.16 163.432 100.16C163.183 100.136 163.088 99.9936 163.088 99.804ZM163.847 98.6661H164.498V98.8676H164.297V100.112H164.048V98.8676H163.847V98.6661ZM164.854 99.4484V100.112H164.617V98.6661H164.973C165.221 98.6661 165.304 98.7847 165.304 98.9862V99.1758C165.304 99.3299 165.245 99.4247 165.115 99.4602L165.352 100.112H165.091L164.854 99.4484ZM164.854 98.8676V99.318H164.937C165.02 99.318 165.056 99.2706 165.056 99.1995V98.9862C165.056 98.9032 165.02 98.8676 164.937 98.8676H164.854ZM165.873 99.5669V100.112H165.624V99.5669L165.352 98.6661H165.601L165.743 99.2113L165.885 98.6661H166.122L165.873 99.5669ZM166.383 99.8988L166.264 100.231H166.122L166.158 99.8869H166.383V99.8988ZM166.774 98.6661H167.023V100.112H166.774V98.6661ZM167.367 99.2113V100.124H167.165V98.678H167.402L167.663 99.5077V98.678H167.865V100.124H167.651L167.367 99.2113ZM168.22 99.2113V100.124H168.019V98.678H168.256L168.516 99.5077V98.678H168.718V100.124H168.505L168.22 99.2113ZM168.872 99.7447V99.0454C168.872 98.8202 168.979 98.6543 169.239 98.6543C169.5 98.6543 169.607 98.8202 169.607 99.0454V99.7447C169.607 99.9699 169.5 100.136 169.239 100.136C168.979 100.136 168.872 99.9699 168.872 99.7447ZM169.37 99.7803V98.998C169.37 98.915 169.334 98.8439 169.239 98.8439C169.156 98.8439 169.121 98.9032 169.121 98.998V99.7803C169.121 99.8632 169.156 99.9343 169.239 99.9343C169.322 99.9343 169.37 99.8751 169.37 99.7803ZM170.543 98.6661L170.271 100.112H170.01L169.737 98.6661H169.986L170.152 99.6736L170.318 98.6661H170.543ZM170.508 100.112L170.78 98.6661H171.053L171.325 100.112H171.076L171.029 99.8514H170.78L170.733 100.112H170.508ZM170.804 99.6617H170.993L170.899 99.081L170.804 99.6617ZM171.302 98.6661H171.954V98.8676H171.752V100.112H171.503V98.8676H171.302V98.6661ZM172.072 98.6661H172.321V100.112H172.072V98.6661ZM172.475 99.7447V99.0454C172.475 98.8202 172.582 98.6543 172.842 98.6543C173.103 98.6543 173.21 98.8202 173.21 99.0454V99.7447C173.21 99.9699 173.103 100.136 172.842 100.136C172.582 100.136 172.475 99.9699 172.475 99.7447ZM172.961 99.7803V98.998C172.961 98.915 172.925 98.8439 172.831 98.8439C172.748 98.8439 172.712 98.9032 172.712 98.998V99.7803C172.712 99.8632 172.748 99.9343 172.831 99.9343C172.925 99.9343 172.961 99.8751 172.961 99.7803ZM173.565 99.2113V100.124H173.364V98.678H173.601L173.862 99.5077V98.678H174.063V100.124H173.85L173.565 99.2113Z" fill="white"/>
<path d="M160.077 102.411L160.35 100.965H160.622L160.895 102.411H160.646L160.599 102.15H160.35L160.302 102.411H160.077ZM160.385 101.949H160.575L160.48 101.368L160.385 101.949ZM161.203 101.498V102.411H161.002V100.965H161.239L161.499 101.795V100.965H161.701V102.411H161.488L161.203 101.498ZM162.578 101.344V102.02C162.578 102.245 162.483 102.411 162.222 102.411H161.843V100.965H162.222C162.483 100.965 162.578 101.131 162.578 101.344ZM162.199 102.21C162.294 102.21 162.341 102.15 162.341 102.067V101.309C162.341 101.226 162.305 101.167 162.199 101.167H162.092V102.221L162.199 102.21ZM162.957 100.965H163.206V102.411H162.957V100.965ZM163.562 101.498V102.411H163.36V100.965H163.597L163.858 101.795V100.965H164.059V102.411H163.846L163.562 101.498ZM164.214 100.965H164.782V101.167H164.451V101.581H164.699V101.783H164.451V102.423H164.202L164.214 100.965ZM165.138 101.747V102.411H164.889V100.965H165.245C165.494 100.965 165.577 101.084 165.577 101.285V101.475C165.577 101.629 165.517 101.724 165.387 101.759L165.624 102.411H165.363L165.138 101.747ZM165.138 101.155V101.605H165.221C165.304 101.605 165.34 101.558 165.34 101.487V101.273C165.34 101.19 165.304 101.155 165.221 101.155H165.138ZM165.695 102.411L165.968 100.965H166.24L166.513 102.411H166.264L166.217 102.15H165.956L165.908 102.411H165.695ZM165.991 101.949H166.181L166.086 101.368L165.991 101.949ZM166.596 102.091V101.901H166.821V102.103C166.821 102.186 166.857 102.233 166.94 102.233C167.011 102.233 167.046 102.186 167.046 102.103V102.044C167.046 101.961 167.011 101.913 166.94 101.842L166.797 101.7C166.655 101.558 166.596 101.475 166.596 101.309V101.261C166.596 101.084 166.703 100.941 166.94 100.941C167.188 100.941 167.283 101.06 167.283 101.273V101.392H167.058V101.261C167.058 101.178 167.023 101.143 166.94 101.143C166.868 101.143 166.821 101.178 166.821 101.261V101.297C166.821 101.38 166.868 101.427 166.94 101.498L167.094 101.653C167.224 101.783 167.295 101.866 167.295 102.032V102.103C167.295 102.304 167.188 102.447 166.94 102.447C166.691 102.447 166.596 102.281 166.596 102.091ZM167.366 100.965H168.018V101.167H167.817V102.411H167.568V101.167H167.366V100.965ZM168.385 101.747V102.411H168.137V100.965H168.492C168.741 100.965 168.824 101.084 168.824 101.285V101.475C168.824 101.629 168.765 101.724 168.634 101.759L168.871 102.411H168.611L168.385 101.747ZM168.385 101.155V101.605H168.468C168.551 101.605 168.587 101.558 168.587 101.487V101.273C168.587 101.19 168.551 101.155 168.468 101.155H168.385ZM169.677 100.965V102.056C169.677 102.281 169.583 102.423 169.334 102.423C169.073 102.423 168.966 102.281 168.966 102.056V100.965H169.215V102.079C169.215 102.162 169.251 102.221 169.334 102.221C169.417 102.221 169.452 102.162 169.452 102.079V100.965H169.677ZM169.831 102.032V101.333C169.831 101.107 169.938 100.941 170.199 100.941C170.471 100.941 170.543 101.095 170.543 101.309V101.475H170.317V101.285C170.317 101.19 170.282 101.143 170.199 101.143C170.116 101.143 170.08 101.202 170.08 101.297V102.079C170.08 102.162 170.116 102.233 170.199 102.233C170.282 102.233 170.317 102.174 170.317 102.091V101.818H170.543V102.067C170.543 102.269 170.46 102.423 170.199 102.423C169.938 102.423 169.831 102.257 169.831 102.032ZM170.59 100.965H171.242V101.167H171.04V102.411H170.791V101.167H170.59V100.965ZM172.072 100.965V102.056C172.072 102.281 171.977 102.423 171.728 102.423C171.467 102.423 171.36 102.281 171.36 102.056V100.965H171.609V102.079C171.609 102.162 171.645 102.221 171.728 102.221C171.811 102.221 171.846 102.162 171.846 102.079V100.965H172.072ZM172.463 101.747V102.411H172.214V100.965H172.569C172.818 100.965 172.901 101.084 172.901 101.285V101.475C172.901 101.629 172.842 101.724 172.712 101.759L172.949 102.411H172.688L172.463 101.747ZM172.463 101.155V101.605H172.546C172.629 101.605 172.664 101.558 172.664 101.487V101.273C172.664 101.19 172.629 101.155 172.546 101.155H172.463ZM173.055 100.965H173.636V101.167H173.304V101.581H173.541V101.783H173.304V102.221H173.636V102.423H173.055V100.965Z" fill="white"/>
</g>
<path d="M140.602 38.0384C144.391 38.0384 147.462 34.967 147.462 31.1784C147.462 27.3897 144.391 24.3184 140.602 24.3184C136.814 24.3184 133.742 27.3897 133.742 31.1784C133.742 34.967 136.814 38.0384 140.602 38.0384Z" fill="#DD1367"/>
<path d="M192.214 91.1504C214.502 91.1504 232.569 73.0829 232.569 50.7954C232.569 28.508 214.502 10.4404 192.214 10.4404C169.927 10.4404 151.859 28.508 151.859 50.7954C151.859 73.0829 169.927 91.1504 192.214 91.1504Z" fill="#FD9D24"/>
<path d="M168.282 29.565V31.5652L169.651 30.1616V38.8642H171.581V27.4946H170.037L168.282 29.565ZM172.634 29.565V31.5652H172.669L174.002 30.1616V38.8642H175.932V27.4946H174.388L172.634 29.565Z" fill="white"/>
<path d="M173.545 65.7444H182.037C182.143 65.7444 182.248 65.6391 182.248 65.5338C182.248 65.4636 182.213 65.4285 182.178 65.3934L177.967 59.9192L177.932 59.8841C177.897 59.849 177.827 59.8139 177.791 59.8139C177.756 59.8139 177.686 59.849 177.651 59.8841L177.616 59.9192L177.581 59.9543L173.44 65.3584L173.37 65.4285C173.335 65.4636 173.335 65.4987 173.335 65.5338C173.335 65.6391 173.44 65.7444 173.545 65.7444ZM182.002 66.5164H173.475C173.37 66.5164 173.265 66.6216 173.265 66.7269V73.3943C173.265 73.4995 173.37 73.6048 173.475 73.6048H176.212V69.429C176.212 69.3237 176.318 69.2184 176.423 69.2184H178.949C179.055 69.2184 179.16 69.3237 179.16 69.429V73.6048H181.967C182.073 73.6048 182.178 73.4995 182.178 73.3943V66.7269C182.213 66.6216 182.143 66.5164 182.002 66.5164ZM211.409 64.7618H202.987C202.882 64.7618 202.776 64.8671 202.776 64.9724V73.4645C202.776 73.5697 202.882 73.675 202.987 73.675H211.409C211.514 73.675 211.619 73.5697 211.619 73.4645V64.9724C211.619 64.8671 211.549 64.7618 211.409 64.7618ZM206.812 70.3413C206.812 70.4466 206.707 70.5519 206.601 70.5519H204.075C203.97 70.5519 203.864 70.4466 203.864 70.3413V68.7973C203.864 68.692 203.97 68.5868 204.075 68.5868H206.601C206.707 68.5868 206.812 68.692 206.812 68.7973V70.3413ZM206.812 67.4989C206.812 67.6042 206.707 67.7095 206.601 67.7095H204.075C203.97 67.7095 203.864 67.6042 203.864 67.4989V65.9549C203.864 65.8496 203.97 65.7444 204.075 65.7444H206.601C206.707 65.7444 206.812 65.8496 206.812 65.9549V67.4989ZM210.672 70.3413C210.672 70.4466 210.567 70.5519 210.461 70.5519H207.935C207.83 70.5519 207.724 70.4466 207.724 70.3413V68.7973C207.724 68.692 207.83 68.5868 207.935 68.5868H210.461C210.567 68.5868 210.672 68.692 210.672 68.7973V70.3413ZM210.672 67.4989C210.672 67.6042 210.567 67.7095 210.461 67.7095H207.935C207.83 67.7095 207.724 67.6042 207.724 67.4989V65.9549C207.724 65.8496 207.83 65.7444 207.935 65.7444H210.461C210.567 65.7444 210.672 65.8496 210.672 65.9549V67.4989ZM191.828 45.0405H183.617C183.511 45.0405 183.406 45.1458 183.406 45.2511V73.4294C183.406 73.5346 183.511 73.6399 183.617 73.6399H191.863C191.968 73.6399 192.074 73.5346 192.074 73.4294V45.2511C192.038 45.1107 191.968 45.0405 191.828 45.0405ZM186.95 70.4115C186.95 70.4817 186.915 70.5168 186.845 70.5168H184.95C184.88 70.5168 184.845 70.4817 184.845 70.4115V68.306C184.845 68.2358 184.88 68.2008 184.95 68.2008H186.845C186.915 68.2008 186.95 68.2358 186.95 68.306V70.4115ZM186.95 65.5689C186.95 65.6391 186.915 65.6742 186.845 65.6742H184.95C184.88 65.6742 184.845 65.6391 184.845 65.5689V63.4634C184.845 63.3932 184.88 63.3582 184.95 63.3582H186.845C186.915 63.3582 186.95 63.3932 186.95 63.4634V65.5689ZM186.95 60.7263C186.95 60.7965 186.915 60.8316 186.845 60.8316H184.95C184.88 60.8316 184.845 60.7965 184.845 60.7263V58.6208C184.845 58.5506 184.88 58.5156 184.95 58.5156H186.845C186.915 58.5156 186.95 58.5506 186.95 58.6208V60.7263ZM186.95 55.9188C186.95 55.989 186.915 56.0241 186.845 56.0241H184.95C184.88 56.0241 184.845 55.989 184.845 55.9188V53.8134C184.845 53.7432 184.88 53.7081 184.95 53.7081H186.845C186.915 53.7081 186.95 53.7432 186.95 53.8134V55.9188ZM186.95 51.0762C186.95 51.1464 186.915 51.1815 186.845 51.1815H184.95C184.88 51.1815 184.845 51.1464 184.845 51.0762V48.9708C184.845 48.9006 184.88 48.8655 184.95 48.8655H186.845C186.915 48.8655 186.95 48.9006 186.95 48.9708V51.0762ZM190.635 70.4115C190.635 70.4817 190.6 70.5168 190.53 70.5168H188.635C188.564 70.5168 188.529 70.4817 188.529 70.4115V68.306C188.529 68.2358 188.564 68.2008 188.635 68.2008H190.53C190.6 68.2008 190.635 68.2358 190.635 68.306V70.4115ZM190.635 65.5689C190.635 65.6391 190.6 65.6742 190.53 65.6742H188.635C188.564 65.6742 188.529 65.6391 188.529 65.5689V63.4634C188.529 63.3932 188.564 63.3582 188.635 63.3582H190.53C190.6 63.3582 190.635 63.3932 190.635 63.4634V65.5689ZM190.635 60.7263C190.635 60.7965 190.6 60.8316 190.53 60.8316H188.635C188.564 60.8316 188.529 60.7965 188.529 60.7263V58.6208C188.529 58.5506 188.564 58.5156 188.635 58.5156H190.53C190.6 58.5156 190.635 58.5506 190.635 58.6208V60.7263ZM190.635 55.9188C190.635 55.989 190.6 56.0241 190.53 56.0241H188.635C188.564 56.0241 188.529 55.989 188.529 55.9188V53.8134C188.529 53.7432 188.564 53.7081 188.635 53.7081H190.53C190.6 53.7081 190.635 53.7432 190.635 53.8134V55.9188ZM190.635 51.0762C190.635 51.1464 190.6 51.1815 190.53 51.1815H188.635C188.564 51.1815 188.529 51.1464 188.529 51.0762V48.9708C188.529 48.9006 188.564 48.8655 188.635 48.8655H190.53C190.6 48.8655 190.635 48.9006 190.635 48.9708V51.0762ZM211.619 63.9196C211.619 64.0249 211.549 64.0951 211.444 64.0951H202.952C202.847 64.0951 202.776 64.0249 202.776 63.9196V62.2352C202.776 62.13 202.847 62.0598 202.952 62.0598H211.444C211.549 62.0598 211.619 62.13 211.619 62.2352V63.9196ZM201.794 50.3393C201.759 50.234 201.689 50.199 201.583 50.199C201.548 50.199 201.513 50.199 201.478 50.234L201.408 50.3042L193.302 60.5859L193.267 60.621C193.232 60.6561 193.197 60.7263 193.197 60.7965V73.4294C193.197 73.5346 193.302 73.6399 193.407 73.6399H201.654C201.759 73.6399 201.864 73.5346 201.864 73.4294V50.4095C201.829 50.4095 201.829 50.3744 201.794 50.3393ZM198.39 55.9188L198.46 55.8487C199.022 55.1468 199.934 53.9888 200.39 53.4273L200.46 53.3572C200.496 53.3221 200.566 53.287 200.636 53.287C200.741 53.287 200.846 53.3572 200.846 53.4624V56.0592C200.846 56.1996 200.741 56.2697 200.636 56.3048H198.601C198.46 56.3048 198.39 56.1996 198.39 56.0592C198.355 56.0241 198.355 55.9539 198.39 55.9188ZM197.092 70.3062C197.092 70.4115 196.986 70.5168 196.881 70.5168H194.425C194.319 70.5168 194.214 70.4115 194.214 70.3062V68.7622C194.214 68.6569 194.319 68.5517 194.425 68.5517H196.881C196.986 68.5517 197.092 68.6569 197.092 68.7622V70.3062ZM197.092 67.4989C197.092 67.6042 196.986 67.7095 196.881 67.7095H194.425C194.319 67.7095 194.214 67.6042 194.214 67.4989V65.9549C194.214 65.8496 194.319 65.7444 194.425 65.7444H196.881C196.986 65.7444 197.092 65.8496 197.092 65.9549V67.4989ZM197.092 64.6565C197.092 64.7618 196.986 64.8671 196.881 64.8671H194.425C194.319 64.8671 194.214 64.7618 194.214 64.6565V63.1125C194.214 63.0072 194.319 62.902 194.425 62.902H196.881C196.986 62.902 197.092 63.0072 197.092 63.1125V64.6565ZM197.127 58.4103V61.779C197.127 61.8843 197.021 61.9896 196.916 61.9896H194.46C194.355 61.9896 194.249 61.8843 194.249 61.779V61.3579V61.2878V61.2527C194.249 61.2527 194.249 61.2176 194.284 61.2176C194.284 61.2176 194.284 61.1825 194.319 61.1825C194.635 60.7263 196.039 58.9717 196.635 58.2699L196.706 58.1997C196.741 58.1646 196.811 58.1296 196.881 58.1296C196.986 58.1296 197.092 58.1997 197.092 58.305V58.4103H197.127ZM200.882 70.3062C200.882 70.4115 200.776 70.5168 200.671 70.5168H198.215C198.109 70.5168 198.004 70.4115 198.004 70.3062V68.7622C198.004 68.6569 198.109 68.5517 198.215 68.5517H200.671C200.776 68.5517 200.882 68.6569 200.882 68.7622V70.3062ZM200.882 67.4989C200.882 67.6042 200.776 67.7095 200.671 67.7095H198.215C198.109 67.7095 198.004 67.6042 198.004 67.4989V65.9549C198.004 65.8496 198.109 65.7444 198.215 65.7444H200.671C200.776 65.7444 200.882 65.8496 200.882 65.9549V67.4989ZM200.882 64.6565C200.882 64.7618 200.776 64.8671 200.671 64.8671H198.215C198.109 64.8671 198.004 64.7618 198.004 64.6565V63.1125C198.004 63.0072 198.109 62.902 198.215 62.902H200.671C200.776 62.902 200.882 63.0072 200.882 63.1125V64.6565ZM200.882 61.8141C200.882 61.9194 200.776 62.0247 200.671 62.0247H198.215C198.109 62.0247 198.004 61.9194 198.004 61.8141V60.2701C198.004 60.1648 198.109 60.0596 198.215 60.0596H200.671C200.776 60.0596 200.882 60.1648 200.882 60.2701V61.8141ZM200.882 58.9717C200.882 59.077 200.776 59.1823 200.671 59.1823H198.215C198.109 59.1823 198.004 59.077 198.004 58.9717V57.4278C198.004 57.3225 198.109 57.2172 198.215 57.2172H200.671C200.776 57.2172 200.882 57.3225 200.882 57.4278V58.9717Z" fill="white"/>
<path d="M179.651 31.1089V30.4773H180.388V31.1089C180.388 31.3545 180.494 31.53 180.774 31.53C181.02 31.53 181.125 31.3545 181.125 31.1089V30.9334C181.125 30.6527 181.02 30.5124 180.774 30.2667L180.318 29.8105C179.862 29.3894 179.686 29.1087 179.686 28.5823V28.442C179.686 27.8805 180.037 27.4243 180.774 27.4243C181.546 27.4243 181.862 27.8103 181.862 28.4771V28.8631H181.16V28.4771C181.16 28.1963 181.055 28.0911 180.809 28.0911C180.599 28.0911 180.458 28.1963 180.458 28.4771V28.5823C180.458 28.828 180.599 29.0034 180.809 29.214L181.301 29.7053C181.722 30.1263 181.932 30.4071 181.932 30.8984V31.1089C181.932 31.7405 181.581 32.1967 180.809 32.1967C180.037 32.1967 179.651 31.7055 179.651 31.1089ZM184.459 27.4945V30.9685C184.459 31.6704 184.143 32.1616 183.371 32.1616C182.564 32.1616 182.213 31.7055 182.213 30.9685V27.4945H182.985V31.0738C182.985 31.3545 183.09 31.53 183.371 31.53C183.652 31.53 183.757 31.3545 183.757 31.0738V27.4945H184.459ZM184.88 31.1089V30.4773H185.617V31.1089C185.617 31.3545 185.722 31.53 186.003 31.53C186.249 31.53 186.354 31.3545 186.354 31.1089V30.9334C186.354 30.6527 186.249 30.5124 186.003 30.2667L185.547 29.8105C185.091 29.3894 184.915 29.1087 184.915 28.5823V28.442C184.915 27.8805 185.231 27.4243 186.003 27.4243C186.775 27.4243 187.091 27.8103 187.091 28.4771V28.8631H186.389V28.4771C186.389 28.1963 186.284 28.0911 186.038 28.0911C185.827 28.0911 185.687 28.1963 185.687 28.4771V28.5823C185.687 28.828 185.827 29.0034 186.038 29.214L186.529 29.7053C186.95 30.1263 187.161 30.4071 187.161 30.8984V31.1089C187.161 31.7405 186.81 32.1967 186.038 32.1967C185.161 32.1616 184.88 31.7055 184.88 31.1089ZM187.266 27.4945H189.337V28.1261H188.705V32.0915H187.933V28.1261H187.301V27.4945H187.266ZM189.196 32.0915L190.073 27.4945H190.951L191.828 32.0915H191.021L190.881 31.2493H190.073L189.933 32.0915H189.196ZM190.179 30.6176H190.81L190.495 28.7578L190.179 30.6176ZM192.144 27.4945H192.916V32.0915H192.144V27.4945ZM194.004 29.1789V32.0915H193.337V27.4945H194.109L194.951 30.1263V27.4945H195.583V32.0915H194.916L194.004 29.1789ZM195.864 32.0915L196.741 27.4945H197.618L198.495 32.0915H197.688L197.548 31.2493H196.741L196.6 32.0915H195.864ZM196.846 30.6176H197.478L197.162 28.7578L196.846 30.6176ZM198.741 27.4945H199.864C200.636 27.4945 200.882 27.8454 200.882 28.5121V28.9683C200.882 29.3543 200.741 29.6 200.425 29.7053C200.811 29.8105 200.987 30.0562 200.987 30.4773V31.0738C200.987 31.7405 200.706 32.0915 199.934 32.0915H198.741V27.4945ZM199.513 29.4245H199.794C200.039 29.4245 200.145 29.2842 200.145 29.0385V28.4771C200.145 28.2314 200.039 28.0911 199.759 28.0911H199.478L199.513 29.4245ZM199.513 30.0211V31.4598H199.864C200.11 31.4598 200.25 31.3195 200.25 31.0738V30.372C200.25 30.1263 200.145 29.986 199.864 29.986H199.513V30.0211ZM201.338 27.4945H202.11V31.4598H203.022V32.0915H201.338V27.4945ZM203.338 27.4945H205.198V28.1261H204.11V29.4596H204.882V30.0913H204.11V31.4949H205.198V32.1266H203.338V27.4945ZM206.496 30.8984V28.6525C206.496 27.9156 206.847 27.4243 207.654 27.4243C208.496 27.4243 208.742 27.9156 208.742 28.5823V29.1438H208.04V28.5121C208.04 28.2314 207.935 28.056 207.654 28.056C207.373 28.056 207.268 28.2665 207.268 28.5472V31.0387C207.268 31.3195 207.373 31.53 207.654 31.53C207.935 31.53 208.04 31.3545 208.04 31.0738V30.2316H208.742V31.0387C208.742 31.7055 208.461 32.1967 207.654 32.1967C206.812 32.1616 206.496 31.6002 206.496 30.8984ZM209.093 27.4945H209.865V32.0915H209.093V27.4945ZM210.146 27.4945H212.216V28.1261H211.584V32.0915H210.812V28.1261H210.181V27.4945H210.146ZM212.532 27.4945H213.304V32.0915H212.532V27.4945ZM213.725 27.4945H215.585V28.1261H214.497V29.4596H215.269V30.0913H214.497V31.4949H215.585V32.1266H213.725V27.4945ZM215.76 31.1089V30.4773H216.497V31.1089C216.497 31.3545 216.602 31.53 216.883 31.53C217.129 31.53 217.234 31.3545 217.234 31.1089V30.9334C217.234 30.6527 217.129 30.5124 216.883 30.2667L216.427 29.8105C215.971 29.3894 215.795 29.1087 215.795 28.5823V28.442C215.795 27.8805 216.146 27.4243 216.883 27.4243C217.655 27.4243 217.971 27.8103 217.971 28.4771V28.8631H217.269V28.4771C217.269 28.1963 217.164 28.0911 216.918 28.0911C216.708 28.0911 216.567 28.1963 216.567 28.4771V28.5823C216.567 28.828 216.708 29.0034 216.918 29.214L217.41 29.7053C217.831 30.1263 218.041 30.4071 218.041 30.8984V31.1089C218.041 31.7405 217.69 32.1967 216.918 32.1967C216.146 32.1967 215.76 31.7055 215.76 31.1089Z" fill="white"/>
<path d="M179.651 38.8644L180.529 34.2674H181.406L182.283 38.8644H181.511L181.371 38.0222H180.564L180.423 38.8644H179.651ZM180.634 37.4257H181.266L180.95 35.5658L180.634 37.4257ZM183.266 35.9869V38.8995H182.599V34.3025H183.371L184.213 36.9344V34.3025H184.845V38.8995H184.178L183.266 35.9869ZM187.617 35.4956V37.6362C187.617 38.338 187.336 38.8644 186.494 38.8644H185.301V34.2674H186.494C187.301 34.2674 187.617 34.7938 187.617 35.4956ZM186.389 38.2328C186.705 38.2328 186.845 38.0573 186.845 37.7766V35.3553C186.845 35.0745 186.74 34.8991 186.389 34.8991H186.073V38.2328H186.389ZM188.74 37.6713V35.4255C188.74 34.6885 189.091 34.1973 189.898 34.1973C190.74 34.1973 190.986 34.6885 190.986 35.3553V35.9167H190.284V35.3202C190.284 35.0395 190.179 34.864 189.898 34.864C189.617 34.864 189.512 35.0745 189.512 35.3553V37.8468C189.512 38.1275 189.617 38.338 189.898 38.338C190.179 38.338 190.284 38.1626 190.284 37.8819V37.0397H190.986V37.8468C190.986 38.5135 190.705 39.0048 189.898 39.0048C189.056 38.9346 188.74 38.4082 188.74 37.6713ZM191.407 37.6713V35.4255C191.407 34.6885 191.758 34.1973 192.565 34.1973C193.372 34.1973 193.758 34.7236 193.758 35.4255V37.6713C193.758 38.3731 193.407 38.8995 192.565 38.8995C191.758 38.9346 191.407 38.4082 191.407 37.6713ZM192.951 37.8117V35.3202C192.951 35.0395 192.846 34.8289 192.565 34.8289C192.284 34.8289 192.179 35.0395 192.179 35.3202V37.8117C192.179 38.0924 192.284 38.3029 192.565 38.3029C192.846 38.2679 192.951 38.0924 192.951 37.8117ZM196.32 35.8816L195.758 38.8644H195.407L194.846 35.8816V38.8644H194.214V34.2674H195.127L195.618 36.8642L196.074 34.2674H197.057V38.8644H196.355L196.32 35.8816ZM199.583 35.8816L199.022 38.8644H198.671L198.109 35.8816V38.8644H197.478V34.2674H198.39L198.881 36.8642L199.338 34.2674H200.32V38.8644H199.618V35.8816H199.583ZM202.987 34.2674V37.7415C202.987 38.4433 202.671 38.9346 201.899 38.9346C201.092 38.9346 200.741 38.4784 200.741 37.7415V34.2674H201.513V37.8468C201.513 38.1275 201.618 38.3029 201.899 38.3029C202.18 38.3029 202.285 38.1275 202.285 37.8468V34.2674H202.987ZM204.04 35.9869V38.8995H203.373V34.3025H204.145L204.987 36.9344V34.3025H205.619V38.8995H204.952L204.04 35.9869ZM206.075 34.2674H206.847V38.8644H206.075V34.2674ZM207.198 34.2674H209.268V34.8991H208.637V38.8644H207.83V34.8991H207.198V34.2674ZM209.619 34.2674H210.391V38.8644H209.619V34.2674ZM210.812 34.2674H212.672V34.8991H211.584V36.2326H212.356V36.8642H211.584V38.2679H212.672V38.8995H210.812V34.2674ZM212.988 37.8819V37.2502H213.725V37.8819C213.725 38.1275 213.83 38.3029 214.111 38.3029C214.357 38.3029 214.462 38.1275 214.462 37.8819V37.7064C214.462 37.4257 214.357 37.2853 214.111 37.0397L213.655 36.5835C213.199 36.1624 213.023 35.8816 213.023 35.3553V35.2149C213.023 34.6535 213.339 34.1973 214.111 34.1973C214.883 34.1973 215.199 34.5833 215.199 35.25V35.636H214.497V35.25C214.497 34.9693 214.392 34.864 214.146 34.864C213.935 34.864 213.795 34.9693 213.795 35.25V35.3553C213.795 35.6009 213.935 35.7764 214.146 35.9869L214.637 36.4782C215.058 36.8993 215.269 37.18 215.269 37.6713V37.8819C215.269 38.5135 214.918 38.9697 214.146 38.9697C213.304 38.9346 212.988 38.4784 212.988 37.8819Z" fill="white"/>
<path d="M199.554 125.081C206.836 125.081 212.739 119.178 212.739 111.896C212.739 104.614 206.836 98.7109 199.554 98.7109C192.272 98.7109 186.369 104.614 186.369 111.896C186.369 119.178 192.272 125.081 199.554 125.081Z" fill="#BF8B2E"/>
<path d="M192.227 105.155H192.239V108.009H192.858V104.283H192.365L191.78 104.96V105.613H191.792L192.227 105.155ZM193.236 105.051V105.498H193.81V105.028C193.81 104.799 193.924 104.742 194.05 104.742C194.177 104.742 194.28 104.788 194.28 105.017V105.327C194.28 105.636 194.257 105.751 194.05 105.969L193.695 106.347C193.351 106.714 193.225 106.955 193.225 107.321V108.009H194.853V107.493H193.821V107.321C193.821 107.035 193.924 106.92 194.085 106.748L194.486 106.324C194.807 105.98 194.876 105.762 194.876 105.384V105.017C194.876 104.49 194.624 104.237 194.062 104.237C193.512 104.237 193.236 104.535 193.236 105.051ZM204.747 112.618C203.991 112.022 203.096 111.965 202.741 111.965C202.558 111.965 202.386 111.976 202.259 112.011L202.214 112.022C201.732 112.137 200.941 112.32 200.012 113.478L199.989 113.513C199.978 113.536 199.966 113.559 199.966 113.581C199.966 113.604 199.966 113.627 199.978 113.639L200.001 113.673C200.15 113.925 200.276 114.155 200.379 114.338C200.414 114.407 200.517 114.43 200.574 114.361C200.586 114.35 200.586 114.338 200.597 114.338C201.4 113.226 202.03 113.077 202.443 112.985L202.489 112.974C202.546 112.962 202.638 112.951 202.741 112.951C202.936 112.951 203.601 112.985 204.128 113.398C204.598 113.765 204.828 114.35 204.828 115.141C204.828 116.471 204.186 116.987 203.647 117.182C203.44 117.262 203.223 117.296 202.993 117.296C202.443 117.296 202.007 117.078 202.007 117.067L201.973 117.044C201.514 116.838 200.815 116.425 200.161 115.106C198.82 112.412 197.696 112.16 196.951 111.988L196.917 111.976C196.859 111.965 196.699 111.93 196.435 111.93C195.999 111.93 195.174 112.011 194.463 112.584C193.982 112.974 193.397 113.731 193.397 115.106C193.397 115.955 193.569 116.505 194.016 117.09C194.096 117.204 194.876 118.202 196.366 118.202C196.584 118.202 196.814 118.179 197.043 118.133C197.318 118.076 197.731 117.95 198.201 117.606L198.591 117.961C198.636 117.996 198.705 117.996 198.751 117.95C198.774 117.927 198.786 117.904 198.774 117.881L199.072 116.012V115.989C199.072 115.955 199.061 115.932 199.038 115.909C199.015 115.886 198.992 115.874 198.958 115.874L197.135 116.379H197.1C197.077 116.379 197.054 116.39 197.043 116.413C197.02 116.436 197.008 116.471 197.008 116.494C197.008 116.528 197.02 116.551 197.043 116.574L197.421 116.918C197.226 117.044 197.02 117.124 196.836 117.159C196.676 117.193 196.515 117.204 196.355 117.204C195.323 117.204 194.819 116.528 194.796 116.494L194.784 116.482C194.475 116.069 194.36 115.714 194.36 115.095C194.36 114.304 194.589 113.708 195.048 113.341C195.564 112.928 196.217 112.905 196.401 112.905C196.504 112.905 196.596 112.916 196.653 112.928L196.699 112.939C197.295 113.077 198.109 113.26 199.244 115.531C199.84 116.734 200.586 117.514 201.526 117.927C201.64 117.984 202.214 118.259 202.97 118.259C203.314 118.259 203.658 118.202 203.979 118.076C204.53 117.869 205.802 117.17 205.802 115.095C205.837 113.765 205.24 113.008 204.747 112.618Z" fill="white"/>
<path d="M196.527 105.097V105.785H196.274V104.283H196.641C196.894 104.283 196.985 104.409 196.985 104.616V104.811C196.985 104.971 196.928 105.063 196.779 105.097L197.02 105.785H196.756L196.527 105.097ZM196.527 104.49V104.96H196.607C196.699 104.96 196.733 104.914 196.733 104.834V104.616C196.733 104.535 196.699 104.49 196.607 104.49H196.527ZM197.157 104.283H197.765V104.49H197.409V104.925H197.662V105.132H197.409V105.59H197.765V105.797H197.157V104.283ZM197.902 105.464V105.258H198.143V105.464C198.143 105.544 198.178 105.602 198.269 105.602C198.35 105.602 198.384 105.544 198.384 105.464V105.407C198.384 105.315 198.35 105.269 198.269 105.189L198.12 105.04C197.971 104.902 197.914 104.811 197.914 104.639V104.593C197.914 104.409 198.029 104.26 198.269 104.26C198.522 104.26 198.625 104.386 198.625 104.604V104.73H198.395V104.604C198.395 104.512 198.361 104.478 198.281 104.478C198.212 104.478 198.166 104.512 198.166 104.604V104.639C198.166 104.719 198.212 104.776 198.281 104.845L198.441 105.005C198.579 105.143 198.648 105.235 198.648 105.395V105.464C198.648 105.67 198.533 105.82 198.281 105.82C198.006 105.808 197.902 105.659 197.902 105.464ZM198.785 104.283H199.164C199.416 104.283 199.508 104.409 199.508 104.616V104.937C199.508 105.143 199.416 105.281 199.164 105.281H199.038V105.797H198.785V104.283ZM199.038 104.49V105.086H199.129C199.221 105.086 199.255 105.04 199.255 104.96V104.616C199.255 104.535 199.221 104.49 199.129 104.49H199.038ZM199.668 105.395V104.662C199.668 104.421 199.783 104.26 200.046 104.26C200.31 104.26 200.436 104.432 200.436 104.662V105.395C200.436 105.625 200.322 105.797 200.046 105.797C199.783 105.808 199.668 105.625 199.668 105.395ZM200.184 105.441V104.627C200.184 104.535 200.15 104.467 200.058 104.467C199.966 104.467 199.932 104.535 199.932 104.627V105.441C199.932 105.533 199.966 105.602 200.058 105.602C200.138 105.59 200.184 105.533 200.184 105.441ZM200.815 104.834V105.785H200.597V104.283H200.849L201.124 105.143V104.283H201.331V105.785H201.113L200.815 104.834ZM201.503 105.464V105.258H201.743V105.464C201.743 105.544 201.778 105.602 201.869 105.602C201.95 105.602 201.984 105.544 201.984 105.464V105.407C201.984 105.315 201.95 105.269 201.869 105.189L201.72 105.04C201.571 104.902 201.514 104.811 201.514 104.639V104.593C201.514 104.409 201.629 104.26 201.869 104.26C202.122 104.26 202.225 104.386 202.225 104.604V104.73H201.996V104.604C201.996 104.512 201.961 104.478 201.881 104.478C201.812 104.478 201.766 104.512 201.766 104.604V104.639C201.766 104.719 201.812 104.776 201.881 104.845L202.041 105.005C202.179 105.143 202.248 105.235 202.248 105.395V105.464C202.248 105.67 202.133 105.82 201.881 105.82C201.594 105.808 201.503 105.659 201.503 105.464ZM202.374 104.283H202.626V105.785H202.374V104.283ZM202.798 104.283H203.165C203.417 104.283 203.497 104.398 203.497 104.616V104.765C203.497 104.891 203.452 104.971 203.348 105.005C203.475 105.04 203.532 105.12 203.532 105.258V105.453C203.532 105.67 203.44 105.785 203.188 105.785H202.798V104.283ZM203.062 104.914H203.153C203.234 104.914 203.268 104.868 203.268 104.788V104.604C203.268 104.524 203.234 104.478 203.142 104.478H203.05L203.062 104.914ZM203.062 105.109V105.579H203.176C203.257 105.579 203.303 105.533 203.303 105.453V105.223C203.303 105.143 203.268 105.097 203.176 105.097H203.062V105.109ZM203.692 104.283H203.945V105.579H204.243V105.785H203.692V104.283ZM204.392 104.283H204.999V104.49H204.644V104.925H204.896V105.132H204.644V105.59H204.999V105.797H204.392V104.283Z" fill="white"/>
<path d="M196.274 107.608V106.874C196.274 106.634 196.389 106.473 196.653 106.473C196.928 106.473 197.008 106.634 197.008 106.851V107.035H196.779V106.84C196.779 106.748 196.744 106.691 196.653 106.691C196.561 106.691 196.527 106.76 196.527 106.851V107.666C196.527 107.757 196.561 107.826 196.653 107.826C196.744 107.826 196.779 107.769 196.779 107.677V107.402H197.008V107.666C197.008 107.883 196.916 108.044 196.653 108.044C196.389 108.021 196.274 107.849 196.274 107.608ZM197.169 107.608V106.874C197.169 106.634 197.283 106.473 197.547 106.473C197.811 106.473 197.937 106.645 197.937 106.874V107.608C197.937 107.838 197.822 108.009 197.547 108.009C197.283 108.021 197.169 107.849 197.169 107.608ZM197.685 107.654V106.84C197.685 106.748 197.65 106.68 197.559 106.68C197.467 106.68 197.432 106.748 197.432 106.84V107.654C197.432 107.746 197.467 107.815 197.559 107.815C197.65 107.803 197.685 107.746 197.685 107.654ZM198.315 107.058V108.009H198.097V106.508H198.35L198.625 107.367V106.508H198.831V108.009H198.613L198.315 107.058ZM198.992 107.677V107.471H199.232V107.677C199.232 107.757 199.267 107.815 199.359 107.815C199.439 107.815 199.473 107.757 199.473 107.677V107.62C199.473 107.528 199.439 107.482 199.359 107.402L199.21 107.253C199.06 107.115 199.003 107.023 199.003 106.851V106.806C199.003 106.622 199.118 106.473 199.359 106.473C199.611 106.473 199.714 106.599 199.714 106.817V106.943H199.485V106.817C199.485 106.725 199.45 106.691 199.37 106.691C199.301 106.691 199.255 106.725 199.255 106.817V106.851C199.255 106.932 199.301 106.989 199.37 107.058L199.531 107.218C199.668 107.356 199.737 107.448 199.737 107.608V107.677C199.737 107.883 199.622 108.032 199.37 108.032C199.095 108.021 198.992 107.872 198.992 107.677ZM200.608 106.496V107.631C200.608 107.86 200.505 108.021 200.253 108.021C199.989 108.021 199.875 107.872 199.875 107.631V106.496H200.127V107.666C200.127 107.757 200.161 107.815 200.253 107.815C200.345 107.815 200.379 107.757 200.379 107.666V106.496H200.608ZM201.48 107.023L201.296 107.998H201.182L200.998 107.023V107.998H200.792V106.496H201.09L201.25 107.345L201.399 106.496H201.72V107.998H201.491V107.023H201.48ZM201.881 106.496H202.259C202.511 106.496 202.603 106.622 202.603 106.829V107.15C202.603 107.356 202.511 107.494 202.259 107.494H202.133V108.009H201.881V106.496ZM202.133 106.702V107.299H202.225C202.317 107.299 202.351 107.253 202.351 107.173V106.829C202.351 106.748 202.317 106.702 202.225 106.702H202.133ZM202.683 106.496H203.36V106.702H203.153V107.998H202.901V106.702H202.695L202.683 106.496ZM203.475 106.496H203.727V107.998H203.475V106.496ZM203.876 107.608V106.874C203.876 106.634 203.99 106.473 204.254 106.473C204.518 106.473 204.644 106.645 204.644 106.874V107.608C204.644 107.838 204.529 108.009 204.254 108.009C203.99 108.021 203.876 107.849 203.876 107.608ZM204.392 107.654V106.84C204.392 106.748 204.357 106.68 204.266 106.68C204.174 106.68 204.14 106.748 204.14 106.84V107.654C204.14 107.746 204.174 107.815 204.266 107.815C204.346 107.803 204.392 107.746 204.392 107.654ZM205.011 107.058V108.009H204.793V106.508H205.045L205.32 107.367V106.508H205.527V108.009H205.309L205.011 107.058Z" fill="white"/>
<path d="M196.24 110.21L196.527 108.708H196.813L197.1 110.21H196.836L196.791 109.935H196.527L196.481 110.21H196.24ZM196.55 109.74H196.756L196.653 109.133L196.55 109.74ZM197.421 109.27V110.222H197.203V108.72H197.456L197.731 109.58V108.72H197.937V110.222H197.719L197.421 109.27ZM198.854 109.11V109.809C198.854 110.038 198.763 110.21 198.487 110.21H198.098V108.708H198.487C198.751 108.708 198.854 108.88 198.854 109.11ZM198.453 110.004C198.556 110.004 198.602 109.947 198.602 109.855V109.064C198.602 108.972 198.568 108.915 198.453 108.915H198.35V110.004H198.453ZM199.244 108.708H199.622C199.875 108.708 199.966 108.835 199.966 109.041V109.362C199.966 109.568 199.875 109.706 199.622 109.706H199.496V110.222H199.244V108.708ZM199.496 108.915V109.511H199.588C199.68 109.511 199.714 109.465 199.714 109.385V109.041C199.714 108.961 199.68 108.915 199.588 108.915H199.496ZM200.356 109.523V110.21H200.104V108.708H200.471C200.723 108.708 200.815 108.835 200.815 109.041V109.236C200.815 109.396 200.758 109.488 200.608 109.523L200.849 110.21H200.586L200.356 109.523ZM200.356 108.915V109.385H200.436C200.528 109.385 200.563 109.339 200.563 109.259V109.041C200.563 108.961 200.528 108.915 200.436 108.915H200.356ZM200.964 109.821V109.087C200.964 108.846 201.079 108.686 201.342 108.686C201.606 108.686 201.732 108.858 201.732 109.087V109.821C201.732 110.05 201.617 110.222 201.342 110.222C201.079 110.233 200.964 110.061 200.964 109.821ZM201.48 109.866V109.052C201.48 108.961 201.445 108.892 201.354 108.892C201.262 108.892 201.228 108.961 201.228 109.052V109.866C201.228 109.958 201.262 110.027 201.354 110.027C201.445 110.016 201.48 109.958 201.48 109.866ZM202.649 109.11V109.809C202.649 110.038 202.558 110.21 202.282 110.21H201.893V108.708H202.282C202.546 108.708 202.649 108.88 202.649 109.11ZM202.248 110.004C202.351 110.004 202.397 109.947 202.397 109.855V109.064C202.397 108.972 202.363 108.915 202.248 108.915H202.145V110.004H202.248ZM203.532 108.708V109.844C203.532 110.073 203.429 110.233 203.177 110.233C202.913 110.233 202.798 110.084 202.798 109.844V108.708H203.051V109.878C203.051 109.97 203.085 110.027 203.177 110.027C203.268 110.027 203.303 109.97 203.303 109.878V108.708H203.532ZM203.681 109.821V109.087C203.681 108.846 203.796 108.686 204.06 108.686C204.335 108.686 204.415 108.846 204.415 109.064V109.247H204.186V109.052C204.186 108.961 204.151 108.903 204.06 108.903C203.968 108.903 203.933 108.972 203.933 109.064V109.878C203.933 109.97 203.968 110.038 204.06 110.038C204.151 110.038 204.186 109.981 204.186 109.889V109.614H204.415V109.878C204.415 110.096 204.323 110.256 204.06 110.256C203.796 110.233 203.681 110.061 203.681 109.821ZM204.541 108.708H205.218V108.915H205.011V110.21H204.759V108.915H204.553L204.541 108.708ZM205.332 108.708H205.584V110.21H205.332V108.708ZM205.733 109.821V109.087C205.733 108.846 205.848 108.686 206.112 108.686C206.376 108.686 206.502 108.858 206.502 109.087V109.821C206.502 110.05 206.387 110.222 206.112 110.222C205.848 110.233 205.733 110.061 205.733 109.821ZM206.249 109.866V109.052C206.249 108.961 206.215 108.892 206.123 108.892C206.032 108.892 205.997 108.961 205.997 109.052V109.866C205.997 109.958 206.032 110.027 206.123 110.027C206.204 110.016 206.249 109.958 206.249 109.866ZM206.857 109.27V110.222H206.639V108.72H206.891L207.167 109.58V108.72H207.373V110.222H207.155L206.857 109.27Z" fill="white"/>
<path d="M220.744 101.362C223.627 101.362 225.964 99.0248 225.964 96.1419C225.964 93.2589 223.627 90.9219 220.744 90.9219C217.861 90.9219 215.524 93.2589 215.524 96.1419C215.524 99.0248 217.861 101.362 220.744 101.362Z" fill="#0A97D9"/>
<path d="M255.127 107.634C267.86 107.634 278.182 97.3123 278.182 84.5794C278.182 71.8465 267.86 61.5244 255.127 61.5244C242.394 61.5244 232.072 71.8465 232.072 84.5794C232.072 97.3123 242.394 107.634 255.127 107.634Z" fill="#56C02B"/>
<path d="M241.454 72.5105V73.6532L242.216 72.8513H242.236V77.8432H243.319V71.3276H242.456L241.454 72.5105ZM245.925 73.3926C245.484 73.3926 245.183 73.5529 245.003 73.8336V72.2097H246.887V71.3276H244V74.9964H245.003V74.8561C245.003 74.4751 245.183 74.2546 245.484 74.2546C245.825 74.2546 245.945 74.4751 245.945 74.836V76.3997C245.945 76.7405 245.825 76.9811 245.484 76.9811C245.103 76.9811 244.983 76.7405 244.983 76.3396V75.5176H243.98V76.2594C243.98 77.2417 244.381 77.8833 245.484 77.8833C246.586 77.8833 247.047 77.3019 247.047 76.3997V74.816C247.047 73.8136 246.506 73.3926 245.925 73.3926Z" fill="white"/>
<path d="M252.601 90.4336C252.641 90.4336 252.681 90.4737 252.681 90.5138V92.8594C252.681 92.8995 252.641 92.9396 252.601 92.9396H251.659C251.619 92.9396 251.579 92.8995 251.579 92.8594V90.5138C251.579 90.4737 251.619 90.4336 251.659 90.4336H252.601ZM263.046 93.942H247.389C247.349 93.942 247.309 93.9821 247.309 94.0222V94.9844C247.309 95.0245 247.349 95.0646 247.389 95.0646H263.046C263.086 95.0646 263.126 95.0245 263.126 94.9844V94.0222C263.126 93.9821 263.086 93.942 263.046 93.942ZM263.046 95.8465H247.389C247.349 95.8465 247.309 95.8866 247.309 95.9267V96.889C247.309 96.9291 247.349 96.9692 247.389 96.9692H263.046C263.086 96.9692 263.126 96.9291 263.126 96.889V95.9267C263.126 95.8866 263.086 95.8465 263.046 95.8465ZM260.059 87.8475C259.859 87.6871 259.337 87.3463 258.696 87.3463C258.235 87.3463 257.814 87.5267 257.433 87.8876C257.413 87.9076 257.393 87.9477 257.393 87.9878V88.068C257.393 88.1081 257.413 88.1482 257.433 88.1682C257.473 88.1883 257.493 88.2083 257.553 88.1883H257.573C257.593 88.1682 257.633 88.1682 257.653 88.1482C257.733 88.088 257.954 88.0078 258.275 88.0078C258.616 88.0078 259.257 88.088 259.899 88.6894L259.919 88.7095C259.959 88.7496 259.999 88.7696 260.059 88.7696C260.099 88.7696 260.159 88.7496 260.199 88.7095L260.219 88.6894C260.861 88.1081 261.502 88.0078 261.843 88.0078C262.164 88.0078 262.385 88.088 262.465 88.1482C262.485 88.1682 262.505 88.1883 262.545 88.2083C262.565 88.2083 262.605 88.2284 262.645 88.2083C262.705 88.1883 262.745 88.1482 262.745 88.088V88.0078C262.745 87.9677 262.725 87.9277 262.705 87.9076C262.324 87.5467 261.903 87.3663 261.422 87.3663C260.781 87.3262 260.259 87.6871 260.059 87.8475ZM259.097 81.5925C259.057 81.6126 259.037 81.6326 259.037 81.6727L259.017 81.7329C258.996 81.773 259.017 81.8131 259.037 81.8532C259.057 81.8933 259.097 81.9133 259.137 81.9133H259.157C259.177 81.9133 259.217 81.9133 259.237 81.8933C259.257 81.8933 259.277 81.8732 259.337 81.8732C259.397 81.8732 260.039 81.8933 260.46 82.5949V82.615C260.48 82.6551 260.52 82.6751 260.56 82.6952H260.6C260.62 82.6952 260.66 82.6952 260.68 82.6751H260.701C260.921 82.5548 261.162 82.4947 261.402 82.4947C261.803 82.4947 262.064 82.6551 262.124 82.7152L262.184 82.7754C262.204 82.7754 262.224 82.7954 262.244 82.7954H262.284C262.304 82.7954 262.324 82.7954 262.344 82.7754C262.385 82.7553 262.405 82.7353 262.405 82.6952L262.425 82.6551V82.615C262.425 82.5949 262.425 82.5749 262.405 82.5548C262.104 82.0336 261.663 81.9133 261.342 81.9133C261.101 81.9133 260.901 81.9734 260.781 82.0135C260.64 81.8131 260.28 81.4121 259.718 81.4121C259.498 81.4522 259.297 81.4923 259.097 81.5925ZM255.789 84.0183V84.0985C255.789 84.1386 255.809 84.1787 255.849 84.1988C255.889 84.2188 255.929 84.2188 255.949 84.2188H255.969C255.989 84.1988 256.009 84.1988 256.029 84.1787C256.09 84.1386 256.31 84.0384 256.631 84.0384C256.932 84.0384 257.393 84.1186 257.874 84.4995L257.894 84.5195C257.934 84.5396 257.974 84.5596 258.014 84.5596H258.034C258.074 84.5596 258.134 84.5396 258.154 84.4995L258.175 84.4794C258.696 83.9181 259.257 83.8379 259.558 83.8379C259.758 83.8379 259.919 83.878 259.959 83.9181C259.979 83.9381 259.999 83.9582 260.039 83.9582H260.139C260.199 83.9381 260.239 83.878 260.219 83.8178V83.7577C260.219 83.7176 260.199 83.6976 260.179 83.6575C259.859 83.3968 259.538 83.2565 259.177 83.2565C258.636 83.2565 258.195 83.5773 258.014 83.7377C257.854 83.6174 257.453 83.3968 256.972 83.3968C256.551 83.3968 256.19 83.5773 255.869 83.9181C255.789 83.9381 255.789 83.9782 255.789 84.0183ZM247.85 85.2613C247.85 84.319 248.612 83.5572 249.554 83.5572H249.654C249.734 82.3744 250.737 81.4322 251.94 81.4322C253.203 81.4322 254.245 82.4546 254.245 83.7377C254.245 84.0985 254.165 84.4393 254.005 84.74C255.147 85.0007 256.009 86.0231 256.009 87.246C256.009 88.6694 254.867 89.8121 253.443 89.8121C253.343 89.8121 250.015 89.7921 250.015 89.7921C249.013 89.7921 248.191 88.9701 248.191 87.9677C248.191 87.4866 248.371 87.0455 248.692 86.7248C248.211 86.4441 247.85 85.9028 247.85 85.2613Z" fill="white"/>
<path d="M249.393 71.3276H249.834V73.593H250.355V73.9539H249.393V71.3276ZM250.615 71.3276H251.057V73.9539H250.615V71.3276ZM251.377 71.3276H252.42V71.6885H251.818V72.4503H252.259V72.8112H251.818V73.9739H251.377V71.3276ZM252.66 71.3276H253.723V71.6885H253.101V72.4503H253.542V72.8112H253.101V73.6131H253.723V73.9739H252.66V71.3276Z" fill="white"/>
<path d="M249.393 77.162V75.8789C249.393 75.4579 249.593 75.1772 250.054 75.1772C250.515 75.1772 250.736 75.478 250.736 75.8789V77.162C250.736 77.5629 250.535 77.8637 250.054 77.8637C249.593 77.8637 249.393 77.5629 249.393 77.162ZM250.295 77.2221V75.7987C250.295 75.6383 250.235 75.5181 250.074 75.5181C249.914 75.5181 249.854 75.6383 249.854 75.7987V77.2221C249.854 77.3825 249.914 77.5028 250.074 77.5028C250.215 77.5028 250.295 77.3825 250.295 77.2221ZM251.357 76.1796V77.8436H250.976V75.2173H251.417L251.899 76.7209V75.2173H252.259V77.8436H251.879L251.357 76.1796ZM253.222 75.1973H253.663V77.4627H254.184V77.8236H253.222V75.1973ZM254.304 77.8436L254.806 75.2173H255.307L255.808 77.8436H255.347L255.267 77.3625H254.806L254.725 77.8436H254.304ZM254.866 77.0016H255.226L255.046 75.9391L254.866 77.0016ZM256.369 76.1796V77.8436H255.988V75.2173H256.429L256.911 76.7209V75.2173H257.271V77.8436H256.89L256.369 76.1796ZM258.895 75.919V77.1419C258.895 77.5429 258.735 77.8436 258.254 77.8436H257.572V75.2173H258.254C258.715 75.1973 258.895 75.498 258.895 75.919ZM258.194 77.4827C258.374 77.4827 258.454 77.3825 258.454 77.2221V75.8388C258.454 75.6784 258.394 75.5782 258.194 75.5782H258.013V77.4827H258.194Z" fill="white"/>
<path d="M250.509 53.7824C256.258 53.7824 260.919 49.1217 260.919 43.3724C260.919 37.6231 256.258 32.9624 250.509 32.9624C244.759 32.9624 240.099 37.6231 240.099 43.3724C240.099 49.1217 244.759 53.7824 250.509 53.7824Z" fill="#00689D"/>
<path d="M244.416 37.9231V38.439H244.425L244.769 38.0769V40.3309H245.267V37.389H244.869L244.416 37.9231ZM246.996 39.6249V39.1904C246.996 38.7106 246.806 38.4662 246.453 38.4662C246.245 38.4662 246.118 38.5658 246.045 38.7015V38.0679C246.045 37.8868 246.1 37.7601 246.281 37.7601C246.462 37.7601 246.507 37.8597 246.507 38.0498V38.2489H246.96V38.095C246.96 37.6605 246.815 37.3618 246.272 37.3618C245.756 37.3618 245.557 37.6967 245.557 38.1584V39.5887C245.557 40.0413 245.756 40.3762 246.272 40.3762C246.788 40.3671 246.996 40.0775 246.996 39.6249ZM246.507 39.6701C246.507 39.8602 246.435 39.9688 246.272 39.9688C246.109 39.9688 246.045 39.8602 246.045 39.6701V39.136C246.054 38.9731 246.127 38.8645 246.281 38.8645C246.453 38.8645 246.516 38.9641 246.516 39.1632L246.507 39.6701Z" fill="white"/>
<path d="M247.947 37.3889H248.246C248.445 37.3889 248.518 37.4885 248.518 37.6514V37.9049C248.518 38.0678 248.445 38.1765 248.246 38.1765H248.146V38.5838H247.947V37.3889ZM248.146 37.5519V38.0226H248.219C248.291 38.0226 248.318 37.9864 248.318 37.923V37.6514C248.318 37.5881 248.291 37.5519 248.219 37.5519H248.146ZM248.617 37.3889H249.097V37.5519H248.816V37.8959H249.015V38.0588H248.816V38.4209H249.097V38.5838H248.617V37.3889ZM249.178 38.5838L249.405 37.398H249.631L249.857 38.5838H249.649L249.613 38.3666H249.405L249.368 38.5838H249.178ZM249.432 38.2036H249.595L249.513 37.7239L249.432 38.2036ZM249.93 38.276V37.6967C249.93 37.5066 250.02 37.3799 250.228 37.3799C250.446 37.3799 250.509 37.5066 250.509 37.6786V37.8234H250.328V37.6696C250.328 37.5971 250.301 37.5519 250.228 37.5519C250.156 37.5519 250.129 37.6062 250.129 37.6786V38.3213C250.129 38.3937 250.156 38.448 250.228 38.448C250.301 38.448 250.328 38.4028 250.328 38.3304V38.1131H250.509V38.3213C250.509 38.4933 250.437 38.62 250.228 38.62C250.02 38.5929 249.93 38.4571 249.93 38.276ZM250.636 37.3889H251.116V37.5519H250.835V37.8959H251.034V38.0588H250.835V38.4209H251.116V38.5838H250.636V37.3889ZM251.441 38.4028L251.342 38.6743H251.233L251.26 38.3937L251.441 38.4028ZM252.31 37.3889V38.3123C252.31 38.4842 252.238 38.5929 252.039 38.5929C251.831 38.5929 251.776 38.4752 251.776 38.3304V38.095H251.966V38.3394C251.966 38.4028 251.985 38.4299 252.039 38.4299C252.093 38.4299 252.111 38.3937 252.111 38.3304V37.3889H252.31ZM253.016 37.3889V38.2851C253.016 38.4661 252.935 38.5929 252.736 38.5929C252.528 38.5929 252.437 38.4752 252.437 38.2851V37.3889H252.636V38.3123C252.636 38.3847 252.663 38.4299 252.736 38.4299C252.808 38.4299 252.835 38.3847 252.835 38.3123V37.3889H253.016ZM253.143 38.3213V38.1674H253.333V38.3304C253.333 38.3937 253.36 38.439 253.433 38.439C253.496 38.439 253.523 38.3937 253.523 38.3304V38.2851C253.523 38.2127 253.496 38.1765 253.433 38.1131L253.315 37.9954C253.198 37.8868 253.152 37.8144 253.152 37.6786V37.6424C253.152 37.4976 253.243 37.3799 253.433 37.3799C253.632 37.3799 253.713 37.4795 253.713 37.6514V37.751H253.532V37.6514C253.532 37.579 253.505 37.5519 253.442 37.5519C253.388 37.5519 253.351 37.579 253.351 37.6514V37.6786C253.351 37.742 253.388 37.7872 253.442 37.8415L253.569 37.9683C253.677 38.0769 253.732 38.1493 253.732 38.276V38.3304C253.732 38.4933 253.641 38.611 253.442 38.611C253.216 38.5929 253.143 38.4842 253.143 38.3213ZM253.813 37.3889H254.347V37.5519H254.184V38.5748H253.985V37.5519H253.813V37.3889ZM254.456 37.3889H254.655V38.5748H254.456V37.3889ZM254.791 38.276V37.6967C254.791 37.5066 254.881 37.3799 255.089 37.3799C255.307 37.3799 255.37 37.5066 255.37 37.6786V37.8234H255.189V37.6696C255.189 37.5971 255.162 37.5519 255.089 37.5519C255.017 37.5519 254.99 37.6062 254.99 37.6786V38.3213C254.99 38.3937 255.017 38.448 255.089 38.448C255.162 38.448 255.189 38.4028 255.189 38.3304V38.1131H255.37V38.3213C255.37 38.4933 255.298 38.62 255.089 38.62C254.881 38.5929 254.791 38.4571 254.791 38.276ZM255.497 37.3889H255.977V37.5519H255.696V37.8959H255.895V38.0588H255.696V38.4209H255.977V38.5838H255.497V37.3889Z" fill="white"/>
<path d="M247.911 40.367L248.137 39.1812H248.364L248.59 40.367H248.382L248.346 40.1498H248.137L248.101 40.367H247.911ZM248.165 39.9868H248.328L248.246 39.5071L248.165 39.9868ZM248.862 39.6157V40.367H248.69V39.1812H248.889L249.106 39.8601V39.1812H249.269V40.367H249.097L248.862 39.6157ZM250.002 39.498V40.0502C250.002 40.2312 249.93 40.367 249.713 40.367H249.405V39.1812H249.713C249.93 39.1721 250.002 39.3079 250.002 39.498ZM249.694 40.2041C249.776 40.2041 249.812 40.1588 249.812 40.0864V39.4618C249.812 39.3894 249.785 39.3441 249.694 39.3441H249.613V40.2041H249.694ZM250.328 40.1136V39.9506H250.518V40.1136C250.518 40.1769 250.545 40.2222 250.618 40.2222C250.681 40.2222 250.708 40.1769 250.708 40.1136V40.0683C250.708 39.9959 250.681 39.9597 250.618 39.8963L250.5 39.7786C250.382 39.67 250.337 39.5976 250.337 39.4618V39.4256C250.337 39.2808 250.428 39.1631 250.618 39.1631C250.817 39.1631 250.898 39.2627 250.898 39.4347V39.5342H250.717V39.4347C250.717 39.3622 250.69 39.3351 250.627 39.3351C250.572 39.3351 250.536 39.3622 250.536 39.4347V39.4618C250.536 39.5252 250.572 39.5704 250.627 39.6247L250.754 39.7515C250.862 39.8601 250.916 39.9325 250.916 40.0593V40.1136C250.916 40.2765 250.826 40.3942 250.627 40.3942C250.41 40.3761 250.328 40.2675 250.328 40.1136ZM250.98 39.1721H251.514V39.3351H251.351V40.358H251.152V39.3351H250.989V39.1721H250.98ZM251.822 39.8239V40.367H251.623V39.1812H251.912C252.111 39.1812 252.184 39.2808 252.184 39.4437V39.5976C252.184 39.7243 252.138 39.7967 252.021 39.8239L252.211 40.367H252.003L251.822 39.8239ZM251.822 39.3351V39.7062H251.885C251.957 39.7062 251.985 39.67 251.985 39.6066V39.4347C251.985 39.3713 251.957 39.3351 251.885 39.3351H251.822ZM252.311 40.0593V39.4799C252.311 39.2898 252.401 39.1631 252.609 39.1631C252.817 39.1631 252.917 39.2989 252.917 39.4799V40.0593C252.917 40.2403 252.826 40.3761 252.609 40.3761C252.401 40.3761 252.311 40.2403 252.311 40.0593ZM252.718 40.0864V39.4437C252.718 39.3713 252.691 39.317 252.618 39.317C252.546 39.317 252.519 39.3713 252.519 39.4437V40.0864C252.519 40.1588 252.546 40.2131 252.618 40.2131C252.682 40.2131 252.718 40.1588 252.718 40.0864ZM253.216 39.6157V40.367H253.044V39.1812H253.243L253.46 39.8601V39.1812H253.623V40.367H253.451L253.216 39.6157ZM254.067 39.7334H254.347V40.367H254.202V40.2403C254.175 40.3308 254.121 40.3851 254.012 40.3851C253.84 40.3851 253.759 40.2493 253.759 40.0683V39.489C253.759 39.2989 253.849 39.1721 254.058 39.1721C254.275 39.1721 254.347 39.2989 254.347 39.4709V39.5795H254.166V39.4618C254.166 39.3894 254.139 39.3441 254.067 39.3441C253.994 39.3441 253.967 39.3984 253.967 39.4709V40.1136C253.967 40.186 253.994 40.2403 254.067 40.2403C254.13 40.2403 254.166 40.2041 254.166 40.1226V39.8873H254.076V39.7334H254.067Z" fill="white"/>
<path d="M247.947 40.8829H248.146V42.0687H247.947V40.8829ZM248.454 41.3264V42.0777H248.291V40.8829H248.49L248.708 41.5618V40.8829H248.871V42.0687H248.699L248.454 41.3264ZM248.988 41.8152V41.6523H249.178V41.8152C249.178 41.8786 249.206 41.9239 249.278 41.9239C249.341 41.9239 249.368 41.8786 249.368 41.8152V41.77C249.368 41.6975 249.341 41.6613 249.278 41.598L249.16 41.4803C249.043 41.3717 248.997 41.2993 248.997 41.1635V41.1273C248.997 40.9824 249.088 40.8647 249.278 40.8647C249.477 40.8647 249.559 40.9643 249.559 41.1363V41.2359H249.378V41.1363C249.378 41.0639 249.35 41.0367 249.287 41.0367C249.233 41.0367 249.196 41.0639 249.196 41.1363V41.1635C249.196 41.2268 249.233 41.2721 249.287 41.3264L249.414 41.4531C249.522 41.5618 249.577 41.6342 249.577 41.7609V41.8152C249.577 41.9782 249.486 42.0958 249.287 42.0958C249.07 42.0868 248.988 41.9691 248.988 41.8152ZM249.64 40.8829H250.174V41.0458H250.011V42.0687H249.812V41.0458H249.649L249.64 40.8829ZM250.283 40.8829H250.482V42.0687H250.283V40.8829ZM250.591 40.8829H251.125V41.0458H250.962V42.0687H250.762V41.0458H250.6V40.8829H250.591ZM251.813 40.8829V41.779C251.813 41.9601 251.731 42.0868 251.532 42.0868C251.324 42.0868 251.233 41.9691 251.233 41.779V40.8829H251.432V41.8062C251.432 41.8786 251.46 41.9239 251.532 41.9239C251.604 41.9239 251.632 41.8786 251.632 41.8062V40.8829H251.813ZM251.921 40.8829H252.455V41.0458H252.292V42.0687H252.093V41.0458H251.93V40.8829H251.921ZM252.564 40.8829H252.763V42.0687H252.564V40.8829ZM252.899 41.7609V41.1816C252.899 40.9915 252.989 40.8647 253.198 40.8647C253.406 40.8647 253.505 41.0005 253.505 41.1816V41.7609C253.505 41.942 253.415 42.0777 253.198 42.0777C252.989 42.0868 252.899 41.951 252.899 41.7609ZM253.306 41.7971V41.1544C253.306 41.082 253.279 41.0277 253.207 41.0277C253.134 41.0277 253.107 41.082 253.107 41.1544V41.7971C253.107 41.8695 253.134 41.9239 253.207 41.9239C253.27 41.9148 253.306 41.8695 253.306 41.7971ZM253.804 41.3264V42.0777H253.632V40.8829H253.831L254.048 41.5618V40.8829H254.211V42.0687H254.039L253.804 41.3264ZM254.338 41.8152V41.6523H254.528V41.8152C254.528 41.8786 254.555 41.9239 254.628 41.9239C254.691 41.9239 254.718 41.8786 254.718 41.8152V41.77C254.718 41.6975 254.691 41.6613 254.628 41.598L254.51 41.4803C254.392 41.3717 254.347 41.2993 254.347 41.1635V41.1273C254.347 40.9824 254.438 40.8647 254.628 40.8647C254.827 40.8647 254.908 40.9643 254.908 41.1363V41.2359H254.727V41.1363C254.727 41.0639 254.7 41.0367 254.637 41.0367C254.582 41.0367 254.546 41.0639 254.546 41.1363V41.1635C254.546 41.2268 254.582 41.2721 254.637 41.3264L254.764 41.4531C254.872 41.5618 254.926 41.6342 254.926 41.7609V41.8152C254.926 41.9782 254.836 42.0958 254.637 42.0958C254.42 42.0868 254.338 41.9691 254.338 41.8152Z" fill="white"/>
<path d="M252.709 43.3363C252.709 43.3363 252.582 43.4992 252.618 43.6622C252.654 43.8251 252.835 43.9156 252.835 43.9156C252.835 43.9156 252.962 43.7527 252.926 43.5898C252.89 43.4268 252.709 43.3363 252.709 43.3363ZM252.51 44.2596C252.51 44.2596 252.636 44.0967 252.6 43.9338C252.564 43.7708 252.383 43.6803 252.383 43.6803C252.383 43.6803 252.256 43.8432 252.292 43.9971C252.328 44.1691 252.51 44.2596 252.51 44.2596ZM253.016 44.0876C253.016 44.0876 253.143 44.2144 253.297 44.2053C253.442 44.1963 253.551 44.0424 253.551 44.0424C253.551 44.0424 253.424 43.9156 253.27 43.9247C253.125 43.9337 253.016 44.0876 253.016 44.0876ZM253.225 43.3906C253.107 43.5083 253.125 43.7256 253.125 43.7256C253.125 43.7256 253.333 43.7436 253.46 43.626C253.578 43.5083 253.56 43.291 253.56 43.291C253.56 43.291 253.342 43.2729 253.225 43.3906ZM252.962 44.5764C253.107 44.5946 253.243 44.4678 253.243 44.4678C253.243 44.4678 253.143 44.3139 252.998 44.2958C252.853 44.2777 252.718 44.4045 252.718 44.4045C252.718 44.4045 252.817 44.5583 252.962 44.5764ZM253.089 47.1201H251.994C251.912 47.1201 251.84 47.1925 251.84 47.274C251.84 47.3555 251.912 47.4279 251.994 47.4279H253.089C253.17 47.4279 253.243 47.3555 253.243 47.274C253.252 47.1925 253.179 47.1201 253.089 47.1201ZM253.089 48.84H251.994C251.912 48.84 251.84 48.9124 251.84 48.9939C251.84 49.0754 251.912 49.1478 251.994 49.1478H253.089C253.17 49.1478 253.243 49.0754 253.243 48.9939C253.252 48.9034 253.179 48.84 253.089 48.84ZM248.155 46.749C248.128 46.7399 248.101 46.7309 248.083 46.7309C248.083 46.7309 248.11 46.7399 248.155 46.749Z" fill="white"/>
<path d="M253.052 47.5455H252.038C251.993 47.5455 251.948 47.5818 251.948 47.6361V47.9438L251.287 48.0163L250.318 47.9982V47.4007C250.445 47.3826 250.572 47.3555 250.707 47.3192C251.64 47.0567 251.848 46.2873 251.821 45.7532C251.803 45.2101 251.975 45.0019 252.228 44.9023C252.301 44.8751 252.373 44.857 252.436 44.848C252.436 44.9838 252.464 45.1376 252.527 45.3187C252.545 45.3187 252.572 45.3187 252.59 45.3097C252.527 45.1195 252.5 44.9657 252.5 44.8299C252.626 44.8118 252.717 44.8208 252.717 44.8208C252.717 44.8208 252.626 44.7756 252.509 44.6669C252.554 44.4135 252.708 44.2505 252.862 44.0876C252.952 43.9971 253.043 43.9066 253.106 43.7979L253.052 43.7617C252.989 43.8703 252.898 43.9518 252.817 44.0423C252.663 44.1962 252.509 44.3592 252.454 44.6217C252.4 44.5764 252.346 44.5221 252.292 44.4587C252.065 44.1962 251.767 44.3863 251.341 44.7846C250.916 45.1739 250.391 45.192 249.866 44.6579C249.178 43.9518 248.58 43.9609 248.173 43.9971C248.453 44.1148 248.553 44.3773 248.698 45.0471C248.843 45.7442 249.223 46.061 249.739 46.1063C249.449 46.2058 249.44 46.3688 249.06 46.6313C248.761 46.8395 248.345 46.7761 248.173 46.7309C248.49 46.8304 248.852 47.1563 249.187 47.274C249.377 47.3373 249.585 47.3826 249.793 47.4007V47.971L248.055 47.9348V48.3331L251.305 48.2607L251.966 48.3331V48.6409C251.966 48.6861 252.002 48.7314 252.056 48.7314H253.07C253.115 48.7314 253.161 48.6952 253.161 48.6409V47.627C253.142 47.5818 253.097 47.5455 253.052 47.5455ZM249.938 47.4188C250.01 47.4188 250.083 47.4188 250.155 47.4098V47.98L249.938 47.971V47.4188ZM247.937 48.2697C247.937 48.3512 247.883 48.4236 247.811 48.4236H247.729C247.657 48.4236 247.603 48.3602 247.603 48.2697V47.9982C247.603 47.9167 247.657 47.8443 247.729 47.8443H247.811C247.883 47.8443 247.937 47.9076 247.937 47.9982V48.2697Z" fill="white"/>
<path d="M270.681 57.3831C271.91 57.3831 272.906 56.3869 272.906 55.1581C272.906 53.9293 271.91 52.9331 270.681 52.9331C269.452 52.9331 268.456 53.9293 268.456 55.1581C268.456 56.3869 269.452 57.3831 270.681 57.3831Z" fill="#19486A"/>
<defs>
<clipPath id="clip0_6429_4292">
<rect width="19.082" height="19.082" fill="white" transform="translate(155.609 97.0186)"/>
</clipPath>
</defs>
</svg>
