<svg width="272" height="123" viewBox="0 0 272 123" fill="none" xmlns="http://www.w3.org/2000/svg">
<path d="M11.045 66.2931C17.145 66.2931 22.09 61.3481 22.09 55.2481C22.09 49.1481 17.145 44.2031 11.045 44.2031C4.94501 44.2031 0 49.1481 0 55.2481C0 61.3481 4.94501 66.2931 11.045 66.2931Z" fill="#E5243B"/>
<path d="M5.54172 49.5527H5.55133V51.9346H6.06996V48.8228H5.65698L5.17676 49.3894V49.9369L5.54172 49.5527ZM15.9912 55.3249C16.2313 55.3249 16.4138 55.1328 16.4138 54.8927C16.4138 54.6526 16.2217 54.4605 15.9912 54.4605C15.7511 54.4605 15.559 54.6526 15.559 54.8927C15.559 55.1328 15.7511 55.3249 15.9912 55.3249ZM16.4906 55.4882H15.4918C15.2037 55.517 14.9732 55.7571 14.9732 56.0548V57.2362C14.9732 57.3226 15.05 57.3994 15.1364 57.3994C15.2325 57.3994 15.2997 57.3226 15.2997 57.2362V56.2181C15.2997 56.1797 15.3093 56.1317 15.3765 56.1317C15.4246 56.1317 15.4342 56.1797 15.4342 56.2181V59.2723C15.4342 59.4067 15.5398 59.5124 15.6743 59.5124C15.8087 59.5124 15.9144 59.4067 15.9144 59.2723V57.5051C15.9144 57.4859 15.924 57.4378 15.9816 57.4378C16.0392 57.4378 16.0488 57.4859 16.0488 57.5051V59.2627C16.0488 59.3971 16.1545 59.5028 16.289 59.5028C16.4234 59.5028 16.5291 59.3971 16.5291 59.2627V56.2085C16.5291 56.1797 16.5387 56.1221 16.5867 56.1221C16.6539 56.1221 16.6635 56.1701 16.6635 56.2085V57.2265C16.6635 57.313 16.7404 57.3898 16.8268 57.3898C16.9228 57.3898 16.9901 57.313 16.9901 57.2265V56.0548C17.0093 55.7571 16.7788 55.5074 16.4906 55.4882ZM12.6105 55.5266C12.8314 55.5266 13.0139 55.3441 13.0139 55.1232C13.0139 54.9023 12.8314 54.7198 12.6105 54.7198C12.3896 54.7198 12.2071 54.9023 12.2071 55.1232C12.2071 55.3441 12.3896 55.5266 12.6105 55.5266ZM13.0907 56.2661C13.1483 56.2469 13.1579 56.3237 13.1579 56.3237L13.4269 57.2362C13.4269 57.2362 13.4749 57.4282 13.6478 57.3802C13.8206 57.3322 13.763 57.1305 13.763 57.1305L13.4269 56.0356C13.4269 56.0356 13.302 55.7187 13.0427 55.7187H12.1783C11.9094 55.7187 11.7942 56.0356 11.7942 56.0356L11.458 57.1305C11.458 57.1305 11.4004 57.3322 11.5733 57.3802C11.7461 57.4282 11.7942 57.2362 11.7942 57.2362L12.0631 56.3237C12.0631 56.3237 12.0823 56.2565 12.1303 56.2661C12.1879 56.2853 12.1591 56.3526 12.1591 56.3526L11.6885 58.0717H12.1303V59.3011C12.1303 59.4163 12.2263 59.5124 12.3416 59.5124C12.4569 59.5124 12.5529 59.4163 12.5529 59.3011V58.0717H12.6681V59.3011C12.6681 59.4163 12.7642 59.5124 12.8794 59.5124C12.9947 59.5124 13.0907 59.4163 13.0907 59.3011V58.0717H13.5325L13.0619 56.3526C13.0619 56.3526 13.0427 56.2853 13.0907 56.2661ZM10.1806 55.5266C10.4015 55.5266 10.584 55.3441 10.584 55.1232C10.584 54.9023 10.4015 54.7198 10.1806 54.7198C9.95972 54.7198 9.77724 54.9023 9.77724 55.1232C9.77724 55.3441 9.95972 55.5266 10.1806 55.5266ZM10.997 56.0356C10.997 56.0356 10.8817 55.7187 10.6128 55.7187H9.74843C9.47951 55.7187 9.36425 56.0356 9.36425 56.0356L9.0281 57.1305C9.0281 57.1305 9.0185 57.1593 9.0185 57.1977C8.99929 57.1689 8.96087 57.1497 8.92245 57.1497C8.87443 57.1497 8.83601 57.1689 8.81681 57.2073C8.8072 57.2169 8.65353 57.4955 8.59591 57.5435C8.53828 57.6011 8.49026 57.5915 8.49026 57.5915H8.08688C8.08688 57.5915 8.03885 57.6011 7.98123 57.5435C7.93321 57.4955 7.76993 57.2073 7.76033 57.2073C7.74112 57.1689 7.7027 57.1497 7.65468 57.1497C7.61626 57.1497 7.57784 57.1689 7.55864 57.2073V56.0548C7.55864 55.7571 7.32813 55.517 7.04 55.4882H6.04115C5.75302 55.517 5.52251 55.7571 5.52251 56.0548V57.2362C5.52251 57.3034 5.56093 57.3514 5.60895 57.3802C5.60895 57.3802 5.59935 57.3898 5.59935 57.3994L5.21518 59.4163C5.20557 59.4548 5.23438 59.4836 5.2632 59.4932H5.2728C5.30161 59.4932 5.33043 59.474 5.33043 59.4452L5.7146 57.4282V57.409C5.79144 57.3898 5.83946 57.3226 5.83946 57.2458V56.2277C5.83946 56.1893 5.84906 56.1413 5.91629 56.1413C5.96431 56.1413 5.97392 56.1893 5.97392 56.2277V59.2819C5.97392 59.4163 6.07957 59.522 6.21403 59.522C6.34849 59.522 6.45414 59.4163 6.45414 59.2819V57.5051C6.45414 57.4859 6.46374 57.4378 6.52137 57.4378C6.57899 57.4378 6.5886 57.4859 6.5886 57.5051V59.2627C6.5886 59.3971 6.69424 59.5028 6.82871 59.5028C6.96317 59.5028 7.06881 59.3971 7.06881 59.2627V56.2085C7.06881 56.1797 7.07842 56.1221 7.12644 56.1221C7.19367 56.1221 7.20328 56.1701 7.20328 56.2085V57.2265C7.20328 57.313 7.28011 57.3898 7.36655 57.3898C7.43378 57.3898 7.49141 57.3514 7.52022 57.2938C7.52022 57.3034 7.52982 57.313 7.52982 57.313L7.86598 57.9277C7.86598 57.9277 7.88518 57.9661 7.88518 58.0045V58.1294L7.7027 58.7921H7.88518V59.3299C7.88518 59.4259 7.96202 59.4932 8.04846 59.4932C8.1445 59.4932 8.21173 59.4163 8.21173 59.3299V58.8113V58.7921H8.30778V59.3299C8.30778 59.4259 8.38461 59.4932 8.47105 59.4932C8.56709 59.4932 8.63432 59.4163 8.63432 59.3299V58.7921H8.81681L8.63432 58.1294V58.0141C8.63432 57.9757 8.65353 57.9373 8.65353 57.9373L8.97048 57.3706C8.97048 57.3706 8.98968 57.3322 8.99929 57.2938C9.0185 57.3322 9.04731 57.361 9.09533 57.3802C9.26821 57.4282 9.31623 57.2362 9.31623 57.2362L9.58515 56.3237C9.58515 56.3237 9.60436 56.2565 9.65238 56.2661C9.71001 56.2853 9.6812 56.3526 9.6812 56.3526L9.21058 58.0717H9.65238V59.3011C9.65238 59.4163 9.74843 59.5124 9.86368 59.5124C9.97893 59.5124 10.075 59.4163 10.075 59.3011V58.0717H10.1902V59.3011C10.1902 59.4163 10.2863 59.5124 10.4015 59.5124C10.5168 59.5124 10.6128 59.4163 10.6128 59.3011V58.0717H11.0546L10.584 56.3526C10.584 56.3526 10.5648 56.2757 10.6128 56.2661C10.6704 56.2469 10.68 56.3237 10.68 56.3237L10.949 57.2362C10.949 57.2362 10.997 57.4282 11.1699 57.3802C11.3427 57.3322 11.2851 57.1305 11.2851 57.1305L10.997 56.0356ZM14.3777 57.3802C14.5602 57.3802 14.7138 57.2265 14.7138 57.0441C14.7138 56.8616 14.5602 56.7079 14.3777 56.7079C14.1952 56.7079 14.0415 56.8616 14.0415 57.0441C14.0415 57.2362 14.1856 57.3802 14.3777 57.3802ZM15.1748 58.3407C15.1748 58.331 14.9635 57.8124 14.9347 57.7356C14.8579 57.5147 14.7234 57.5147 14.589 57.5147H14.3777H14.1184C13.9455 57.5243 13.8879 57.6107 13.6958 58.1101C13.667 58.1774 13.5709 58.4175 13.5709 58.4271C13.5517 58.4655 13.5421 58.5519 13.6189 58.5904C13.715 58.6288 13.763 58.5423 13.763 58.5423L13.9455 57.9565C13.9455 57.9565 13.9743 57.9181 13.9743 57.9565V59.3299C13.9743 59.4259 14.0511 59.5028 14.1472 59.5028C14.2432 59.5028 14.3201 59.4259 14.3201 59.3299V58.7825C14.3201 58.7825 14.3105 58.7056 14.3681 58.7056C14.4257 58.7056 14.4161 58.7825 14.4161 58.7825V59.3299C14.4161 59.4259 14.4929 59.5028 14.589 59.5028C14.685 59.5028 14.7619 59.4259 14.7619 59.3299V57.9565C14.7619 57.9181 14.7811 57.9469 14.7811 57.9469L14.9251 58.3503C14.9251 58.3503 14.9828 58.5327 15.002 58.5327C15.0692 58.5616 15.146 58.5327 15.1652 58.4655C15.2037 58.4271 15.1941 58.3791 15.1748 58.3407ZM6.54058 55.3249C6.78068 55.3249 6.97277 55.1328 6.97277 54.8927C6.97277 54.6526 6.78068 54.4605 6.54058 54.4605C6.30047 54.4605 6.11798 54.6526 6.11798 54.8927C6.11798 55.1328 6.31007 55.3249 6.54058 55.3249Z" fill="white"/>
<path d="M8.28816 57.3801C8.47064 57.3801 8.62431 57.2264 8.62431 57.0439C8.62431 56.8614 8.47064 56.7078 8.28816 56.7078C8.10567 56.7078 7.952 56.8614 7.952 57.0439C7.952 57.236 8.10567 57.3801 8.28816 57.3801ZM8.00963 49.2644V50.0616H7.82715V48.8034H8.03844L8.26895 49.5237V48.8034H8.44183V50.0616H8.25934L8.00963 49.2644ZM8.58589 49.735V49.1203C8.58589 48.9186 8.68194 48.7842 8.90284 48.7842C9.12374 48.7842 9.22938 48.9282 9.22938 49.1203V49.735C9.22938 49.9271 9.13334 50.0712 8.90284 50.0712C8.68194 50.0712 8.58589 49.9271 8.58589 49.735ZM9.01809 49.7638V49.0819C9.01809 49.0051 8.98927 48.9475 8.91244 48.9475C8.8356 48.9475 8.80679 49.0051 8.80679 49.0819V49.7638C8.80679 49.8407 8.8356 49.8983 8.91244 49.8983C8.97967 49.8983 9.01809 49.8407 9.01809 49.7638ZM7.83675 50.6666H8.1537C8.36499 50.6666 8.44183 50.7723 8.44183 50.9452V51.2141C8.44183 51.387 8.36499 51.5022 8.1537 51.5022H8.04805V51.9344H7.83675V50.6666ZM8.04805 50.8395V51.3389H8.12488C8.20172 51.3389 8.23053 51.3005 8.23053 51.2333V50.9452C8.23053 50.8779 8.20172 50.8395 8.12488 50.8395H8.04805ZM8.56668 51.6079V50.9932C8.56668 50.7915 8.66273 50.657 8.88363 50.657C9.10453 50.657 9.21017 50.8011 9.21017 50.9932V51.6079C9.21017 51.7999 9.11413 51.944 8.88363 51.944C8.66273 51.944 8.56668 51.7999 8.56668 51.6079ZM8.99888 51.6367V50.9548C8.99888 50.8779 8.97007 50.8203 8.89323 50.8203C8.8164 50.8203 8.78758 50.8779 8.78758 50.9548V51.6367C8.78758 51.7135 8.8164 51.7711 8.89323 51.7711C8.96046 51.7711 8.99888 51.7135 8.99888 51.6367ZM9.99773 50.6666L9.75762 51.9248H9.52712L9.28701 50.6666H9.49831L9.64237 51.5502L9.79604 50.6666H9.99773ZM10.1034 50.6666H10.6124V50.8395H10.3147V51.2045H10.526V51.3774H10.3147V51.7615H10.6124V51.9344H10.1034V50.6666ZM10.9486 51.3485V51.9248H10.7373V50.6666H11.0446C11.2559 50.6666 11.3327 50.7723 11.3327 50.9452V51.1084C11.3327 51.2429 11.2847 51.3197 11.1599 51.3485L11.3615 51.9248H11.1406L10.9486 51.3485ZM10.9486 50.8395V51.2333H11.0158C11.0926 51.2333 11.1214 51.1949 11.1214 51.1276V50.9452C11.1214 50.8779 11.0926 50.8395 11.0158 50.8395H10.9486ZM11.4288 50.6666H11.9954V50.8395H11.8226V51.9344H11.6113V50.8491H11.4384L11.4288 50.6666ZM12.5237 51.4446V51.9248H12.3124V51.4446L12.0723 50.6666H12.2932L12.418 51.1468L12.5429 50.6666H12.7446L12.5237 51.4446Z" fill="white"/>
<path d="M28.0801 84.7335C32.6144 84.7335 36.2901 81.0577 36.2901 76.5235C36.2901 71.9892 32.6144 68.3135 28.0801 68.3135C23.5459 68.3135 19.8701 71.9892 19.8701 76.5235C19.8701 81.0577 23.5459 84.7335 28.0801 84.7335Z" fill="#DDA63A"/>
<path d="M32.6314 49.4704C35.4757 49.4704 37.7814 47.1647 37.7814 44.3204C37.7814 41.4761 35.4757 39.1704 32.6314 39.1704C29.7872 39.1704 27.4814 41.4761 27.4814 44.3204C27.4814 47.1647 29.7872 49.4704 32.6314 49.4704Z" fill="#4C9F38"/>
<path d="M33.2386 61.068C34.2355 61.068 35.0436 60.2599 35.0436 59.263C35.0436 58.2661 34.2355 57.458 33.2386 57.458C32.2417 57.458 31.4336 58.2661 31.4336 59.263C31.4336 60.2599 32.2417 61.068 33.2386 61.068Z" fill="#C5192D"/>
<path d="M40.4536 32.8964C43.4552 32.8964 45.8886 30.463 45.8886 27.4614C45.8886 24.4597 43.4552 22.0264 40.4536 22.0264C37.4519 22.0264 35.0186 24.4597 35.0186 27.4614C35.0186 30.463 37.4519 32.8964 40.4536 32.8964Z" fill="#FF3A21"/>
<path d="M53.3087 18.6354C57.0614 18.6354 60.1037 15.5932 60.1037 11.8404C60.1037 8.08764 57.0614 5.04541 53.3087 5.04541C49.5559 5.04541 46.5137 8.08764 46.5137 11.8404C46.5137 15.5932 49.5559 18.6354 53.3087 18.6354Z" fill="#26BDE2"/>
<path d="M92.9189 113.118C120.533 113.118 142.919 90.7324 142.919 63.1182C142.919 35.5039 120.533 13.1182 92.9189 13.1182C65.3047 13.1182 42.9189 35.5039 42.9189 63.1182C42.9189 90.7324 65.3047 113.118 92.9189 113.118Z" fill="#FCC30B"/>
<path d="M65.4414 36.1616H69.0936L65.9197 48.3355H68.2675L71.3979 36.4224V34.2485H65.4414V36.1616Z" fill="white"/>
<path d="M78.0918 39.9442L79.1788 34.2486H80.2657L81.3527 39.9442H80.3527L80.1788 38.9008H79.1788L79.0048 39.9442H78.0918ZM79.3092 38.1181H80.0918L79.7005 35.8138L79.3092 38.1181ZM81.7005 34.2486H83.9614V35.0312H82.657V36.6834H83.6135V37.466H82.657V39.9877H81.7005V34.2486ZM84.3527 34.2486H86.6135V35.0312H85.3092V36.6834H86.2657V37.466H85.3092V39.9877H84.3527V34.2486ZM86.8744 38.466V35.6834C86.8744 34.7703 87.3092 34.1616 88.3092 34.1616C89.3092 34.1616 89.7874 34.8138 89.7874 35.6834V38.466C89.7874 39.3355 89.3527 39.9877 88.3092 39.9877C87.3092 40.0312 86.8744 39.3355 86.8744 38.466ZM88.8309 38.6399V35.5529C88.8309 35.2051 88.7005 34.9442 88.3527 34.9442C88.0048 34.9442 87.8744 35.2051 87.8744 35.5529V38.6399C87.8744 38.9877 88.0048 39.2486 88.3527 39.2486C88.7005 39.2051 88.8309 38.9877 88.8309 38.6399ZM91.2657 37.3355V39.9442H90.3092V34.2486H91.7005C92.657 34.2486 93.0048 34.7268 93.0048 35.5094V36.2486C93.0048 36.8573 92.7874 37.2051 92.2222 37.3355L93.1353 39.9442H92.1353L91.2657 37.3355ZM91.2657 35.0312V36.8138H91.5701C91.9179 36.8138 92.0483 36.6399 92.0483 36.3355V35.5094C92.0483 35.2051 91.9179 35.0312 91.5701 35.0312H91.2657ZM96.3961 35.7703V38.4225C96.3961 39.2921 96.0483 39.9442 95.0048 39.9442H93.5266V34.2486H95.0048C96.0048 34.2486 96.3961 34.9008 96.3961 35.7703ZM94.8744 39.1616C95.2657 39.1616 95.4396 38.9442 95.4396 38.5964V35.5964C95.4396 35.2486 95.3092 35.0312 94.8744 35.0312H94.4831V39.1616H94.8744ZM96.6135 39.9442L97.7005 34.2486H98.7874L99.8744 39.9442H98.8744L98.7005 38.9008H97.7005L97.5266 39.9442H96.6135ZM97.8309 38.1181H98.6135L98.2222 35.8138L97.8309 38.1181ZM100.222 34.2486H101.613C102.57 34.2486 102.874 34.6834 102.874 35.5094V36.0747C102.874 36.5529 102.7 36.8573 102.309 36.9877C102.787 37.1181 103.005 37.4225 103.005 37.9442V38.6834C103.005 39.5094 102.657 39.9442 101.7 39.9442H100.222V34.2486ZM101.179 36.6399H101.526C101.831 36.6399 101.961 36.466 101.961 36.1616V35.466C101.961 35.1616 101.831 34.9877 101.483 34.9877H101.135V36.6399H101.179ZM101.179 37.379V39.1616H101.613C101.918 39.1616 102.092 38.9877 102.092 38.6834V37.8138C102.092 37.5094 101.961 37.3355 101.613 37.3355H101.179V37.379ZM103.483 34.2486H104.439V39.1616H105.57V39.9442H103.483V34.2486ZM106.005 34.2486H108.309V35.0312H106.961V36.6834H107.918V37.466H106.961V39.2051H108.309V39.9877H106.005V34.2486ZM109.439 39.9442L110.526 34.2486H111.613L112.7 39.9442H111.7L111.526 38.9008H110.526L110.352 39.9442H109.439ZM110.657 38.1181H111.439L111.048 35.8138L110.657 38.1181ZM113.874 36.3355V39.9442H113.048V34.2486H114.005L115.048 37.5094V34.2486H115.831V39.9442H115.005L113.874 36.3355ZM119.222 35.7703V38.4225C119.222 39.2921 118.874 39.9442 117.831 39.9442H116.352V34.2486H117.831C118.874 34.2486 119.222 34.9008 119.222 35.7703ZM117.744 39.1616C118.135 39.1616 118.309 38.9442 118.309 38.5964V35.5964C118.309 35.2486 118.179 35.0312 117.744 35.0312H117.352V39.1616H117.744Z" fill="white"/>
<path d="M78.2227 46.8571V44.1179C78.2227 43.2484 78.6574 42.5962 79.6574 42.5962C80.7009 42.5962 81.0053 43.2049 81.0053 44.031V44.6831H80.1357V43.944C80.1357 43.5962 80.0053 43.3788 79.6574 43.3788C79.3096 43.3788 79.1792 43.6397 79.1792 43.9875V47.031C79.1792 47.3788 79.3096 47.6397 79.6574 47.6397C80.0053 47.6397 80.1357 47.4223 80.1357 47.0745V46.031H81.0053V47.031C81.0053 47.8571 80.6574 48.4658 79.6574 48.4658C78.6574 48.4223 78.2227 47.7701 78.2227 46.8571ZM81.614 42.6397H82.5705V47.5527H83.7009V48.3353H81.614V42.6397ZM84.2227 42.6397H86.4835V43.4223H85.1792V45.031H86.1357V45.8136H85.1792V47.5527H86.4835V48.3353H84.2227V42.6397ZM86.9618 48.3353L88.0487 42.6397H89.1357L90.2227 48.3353H89.2227L89.0487 47.2918H88.0487L87.8748 48.3353H86.9618ZM88.1792 46.5527H88.9618L88.5705 44.2484L88.1792 46.5527ZM91.4835 44.7701V48.3353H90.6574V42.6397H91.614L92.6574 45.9005V42.6397H93.44V48.3353H92.614L91.4835 44.7701ZM96.0053 42.6397H98.2661V43.4223H96.9618V45.031H97.9183V45.8136H96.9618V47.5527H98.2661V48.3353H96.0053V42.6397ZM99.6574 44.7701V48.3353H98.8314V42.6397H99.7879L100.831 45.9005V42.6397H101.614V48.3353H100.788L99.6574 44.7701ZM102.266 42.6397H104.527V43.4223H103.223V45.031H104.179V45.8136H103.223V47.5527H104.527V48.3353H102.266V42.6397ZM106.092 45.7266V48.3353H105.136V42.6397H106.527C107.483 42.6397 107.831 43.1179 107.831 43.9005V44.6397C107.831 45.2484 107.614 45.5962 107.049 45.7266L107.962 48.2918H106.962L106.092 45.7266ZM106.092 43.4223V45.2049H106.396C106.744 45.2049 106.875 45.031 106.875 44.7266V43.9005C106.875 43.5962 106.744 43.4223 106.396 43.4223H106.092ZM109.875 45.2918H111.223V48.3353H110.527V47.7266C110.396 48.1614 110.136 48.4223 109.614 48.4223C108.788 48.4223 108.396 47.7701 108.396 46.9005V44.1614C108.396 43.2918 108.831 42.6397 109.831 42.6397C110.875 42.6397 111.179 43.2484 111.179 44.0745V44.5962H110.31V44.031C110.31 43.6831 110.179 43.4658 109.831 43.4658C109.483 43.4658 109.353 43.7266 109.353 44.0745V47.1179C109.353 47.4658 109.483 47.7266 109.831 47.7266C110.136 47.7266 110.31 47.5527 110.31 47.1614V46.1614H109.875V45.2918ZM113.701 46.1614V48.3353H112.744V46.1614L111.657 42.6397H112.657L113.223 44.8136L113.788 42.6397H114.701L113.701 46.1614Z" fill="white"/>
<path d="M93.3095 90.2923C93.7878 90.2923 94.1356 89.901 94.1356 89.5097V85.0314C94.1356 84.6401 93.7443 84.2488 93.3095 84.2488C92.8313 84.2488 92.4834 84.6836 92.4834 85.0314V89.5097C92.4834 89.8575 92.8747 90.2923 93.3095 90.2923ZM93.2226 62.2923C87.5704 62.2923 82.9617 66.901 82.9617 72.5532C82.9617 78.2054 87.5704 82.8141 93.2226 82.8141C98.8747 82.8141 103.483 78.2054 103.483 72.5532C103.483 66.8575 98.9182 62.2923 93.2226 62.2923ZM92.4834 66.3358C92.4834 65.988 92.8313 65.6401 93.2661 65.6401C93.7008 65.6401 94.0052 66.0314 94.0052 66.3358V69.8575C94.0052 70.2054 93.6574 70.5532 93.2661 70.5532C92.8313 70.5532 92.4834 70.1619 92.4834 69.8575V66.3358ZM93.2226 77.7706C90.2661 77.7706 87.8747 75.3793 87.8747 72.4227C87.8747 70.0314 89.44 67.988 91.6139 67.3358V69.3358C90.4834 69.901 89.7008 71.0749 89.7008 72.4227C89.7008 74.3358 91.266 75.901 93.1791 75.901C95.0921 75.901 96.6574 74.3358 96.6574 72.4227C96.6574 71.0749 95.8747 69.901 94.7443 69.2923V67.2923C96.9182 67.9445 98.4834 69.988 98.4834 72.3793C98.5704 75.3793 96.1791 77.7706 93.2226 77.7706ZM81.4834 72.4227C81.4834 71.9445 81.0921 71.5967 80.7008 71.5967H76.1791C75.7878 71.5967 75.3965 71.988 75.3965 72.4227C75.3965 72.901 75.8313 73.2488 76.1791 73.2488H80.6574C81.0487 73.2923 81.4834 72.901 81.4834 72.4227ZM111.092 72.4227C111.092 71.9445 110.701 71.5967 110.309 71.5967H105.831C105.44 71.5967 105.049 71.988 105.049 72.4227C105.049 72.901 105.483 73.2488 105.831 73.2488H110.309C110.657 73.2923 111.092 72.901 111.092 72.4227ZM93.2226 60.6836C93.7008 60.6836 94.0487 60.2923 94.0487 59.901V55.4227C94.0487 55.0314 93.6574 54.6401 93.2226 54.6401C92.7443 54.6401 92.3965 55.0749 92.3965 55.4227V59.8575C92.3965 60.2488 92.7878 60.6836 93.2226 60.6836ZM83.0052 66.5967C83.2226 66.2054 83.0487 65.6401 82.7443 65.4662L78.8313 63.2488C78.4834 63.0749 77.9617 63.1619 77.7443 63.5967C77.5269 63.988 77.7008 64.5532 78.0052 64.7271L81.9182 66.9445C82.2226 67.1184 82.7878 66.988 83.0052 66.5967ZM108.744 81.2923C108.962 80.901 108.788 80.3358 108.483 80.1619L104.57 77.9445C104.222 77.7706 103.701 77.8575 103.483 78.2923C103.266 78.6836 103.44 79.2488 103.744 79.4227L107.657 81.6401C107.962 81.814 108.483 81.7271 108.744 81.2923ZM99.0921 62.2054C99.4834 62.4227 100.005 62.2488 100.223 61.9445L102.44 58.0314C102.614 57.6836 102.527 57.1619 102.092 56.9445C101.701 56.7271 101.136 56.901 100.962 57.2054L98.7443 61.1184C98.5704 61.4662 98.7008 61.988 99.0921 62.2054ZM84.353 87.9445C84.7443 88.1619 85.266 87.988 85.4834 87.6836L87.7008 83.7706C87.8747 83.4227 87.7878 82.901 87.353 82.6836C86.9617 82.4662 86.3965 82.6401 86.2226 82.9445L84.0052 86.8575C83.8313 87.1619 83.9617 87.6836 84.353 87.9445ZM87.353 62.2488C87.7443 62.0314 87.8747 61.4662 87.7008 61.1619L85.4834 57.2488C85.3095 56.901 84.7443 56.7271 84.353 56.988C83.9617 57.2054 83.8313 57.7706 84.0052 58.1184L86.2226 62.0314C86.44 62.2923 86.9617 62.4662 87.353 62.2488ZM102.136 87.901C102.527 87.6836 102.657 87.1184 102.483 86.814L100.266 82.901C100.092 82.5532 99.5269 82.3793 99.1356 82.6401C98.7443 82.8575 98.6139 83.4227 98.7878 83.7706L101.005 87.6836C101.179 87.988 101.744 88.1619 102.136 87.901ZM103.44 66.5532C103.657 66.9445 104.222 67.0749 104.527 66.901L108.44 64.6836C108.788 64.5097 108.962 63.9445 108.701 63.5532C108.483 63.1619 107.918 63.0314 107.57 63.2054L103.657 65.4227C103.396 65.6401 103.222 66.1619 103.44 66.5532ZM77.7878 81.3358C78.0052 81.7271 78.5704 81.8575 78.8747 81.6836L82.7878 79.4662C83.1356 79.2923 83.3095 78.7271 83.0487 78.3358C82.8313 77.9445 82.266 77.814 81.9182 77.988L78.0052 80.2054C77.7008 80.3793 77.5269 80.9445 77.7878 81.3358Z" fill="white"/>
<path d="M146.441 122.417C153.543 122.417 159.301 116.659 159.301 109.557C159.301 102.454 153.543 96.6968 146.441 96.6968C139.339 96.6968 133.581 102.454 133.581 109.557C133.581 116.659 139.339 122.417 146.441 122.417Z" fill="#A21942"/>
<path d="M140.95 104.871V104.468C140.95 104.122 140.827 103.865 140.548 103.741C140.794 103.618 140.906 103.406 140.906 103.115V102.97C140.906 102.4 140.615 102.098 140.044 102.098C139.485 102.098 139.195 102.4 139.195 102.97V103.115C139.195 103.406 139.306 103.63 139.541 103.741C139.262 103.865 139.139 104.122 139.139 104.468V104.86C139.139 105.408 139.396 105.799 140.044 105.799C140.682 105.81 140.95 105.419 140.95 104.871ZM139.765 102.925C139.765 102.702 139.843 102.579 140.033 102.579C140.235 102.579 140.313 102.702 140.313 102.925V103.171C140.313 103.395 140.235 103.518 140.033 103.518C139.832 103.518 139.765 103.384 139.765 103.171V102.925ZM140.335 104.938C140.335 105.162 140.257 105.318 140.033 105.318C139.821 105.318 139.743 105.162 139.743 104.938V104.345C139.743 104.122 139.821 103.976 140.033 103.976C140.257 103.976 140.335 104.133 140.335 104.345V104.938Z" fill="white"/>
<path d="M149.942 109.478L148.108 111.223C148.041 111.29 148.007 111.346 148.007 111.48V116.356C148.007 116.412 148.052 116.456 148.108 116.456H149.998C150.054 116.456 150.098 116.412 150.098 116.356V109.523C150.11 109.456 150.065 109.355 149.942 109.478ZM144.675 111.737L142.841 113.482C142.774 113.549 142.74 113.605 142.74 113.739V116.345C142.74 116.4 142.785 116.445 142.841 116.445H144.731C144.787 116.445 144.831 116.4 144.831 116.345V111.782C144.843 111.726 144.798 111.625 144.675 111.737Z" fill="white"/>
<path d="M150.781 107.365C150.781 107.354 150.781 107.331 150.769 107.32C150.758 107.309 150.747 107.309 150.736 107.309H150.713L149.316 107.622H149.293C149.282 107.622 149.271 107.633 149.271 107.633C149.249 107.656 149.249 107.689 149.271 107.712L149.282 107.723L149.606 108.047L146.431 111.223L144.966 109.758C144.954 109.747 144.921 109.747 144.91 109.758L144.507 110.161L142.159 112.509C142.148 112.52 142.148 112.554 142.159 112.565L142.561 112.967C142.573 112.979 142.606 112.979 142.617 112.967L144.943 110.653L146.006 111.715L146.408 112.118C146.419 112.129 146.453 112.129 146.464 112.118L150.065 108.517L150.4 108.852C150.423 108.875 150.456 108.875 150.479 108.852C150.49 108.841 150.49 108.83 150.49 108.819L150.803 107.387L150.781 107.365Z" fill="white"/>
<path d="M147.325 112.05L146.441 112.945C146.419 112.956 146.397 112.956 146.385 112.945L145.58 112.129C145.435 111.983 145.401 112.106 145.401 112.162V116.367C145.401 116.423 145.446 116.468 145.502 116.468H147.392C147.448 116.468 147.493 116.423 147.493 116.367V112.095C147.493 112.017 147.448 111.916 147.325 112.05Z" fill="white"/>
<path d="M143.031 102.523V103.205C143.031 103.428 142.942 103.596 142.673 103.596H142.293V102.131H142.673C142.942 102.131 143.031 102.299 143.031 102.523ZM142.64 103.395C142.74 103.395 142.785 103.339 142.785 103.25V102.478C142.785 102.388 142.751 102.333 142.64 102.333H142.539V103.395H142.64ZM143.188 102.131H143.78V102.333H143.434V102.757H143.68V102.959H143.434V103.406H143.78V103.607H143.188V102.131ZM143.903 103.216V102.5C143.903 102.265 144.015 102.109 144.272 102.109C144.541 102.109 144.619 102.265 144.619 102.478V102.657H144.395V102.456C144.395 102.366 144.362 102.31 144.272 102.31C144.183 102.31 144.149 102.377 144.149 102.467V103.261C144.149 103.35 144.183 103.417 144.272 103.417C144.362 103.417 144.395 103.361 144.395 103.272V103.003H144.619V103.261C144.619 103.473 144.529 103.63 144.272 103.63C144.015 103.619 143.903 103.44 143.903 103.216ZM144.776 102.131H145.368V102.333H145.022V102.757H145.268V102.959H145.022V103.406H145.368V103.607H144.776V102.131ZM145.715 102.668V103.596H145.502V102.131H145.748L146.017 102.97V102.131H146.218V103.596H146.006L145.715 102.668ZM146.352 102.131H147.012V102.333H146.811V103.596H146.565V102.333H146.363V102.131H146.352ZM147.918 102.69L147.784 103.596H147.549L147.348 102.131H147.582L147.694 103.059L147.817 102.131H148.018L148.153 103.059L148.264 102.131H148.477L148.287 103.596H148.063L147.918 102.69ZM148.578 103.216V102.5C148.578 102.265 148.689 102.109 148.947 102.109C149.204 102.109 149.327 102.277 149.327 102.5V103.216C149.327 103.44 149.215 103.607 148.947 103.607C148.689 103.619 148.578 103.44 148.578 103.216ZM149.07 103.261V102.467C149.07 102.377 149.036 102.31 148.947 102.31C148.857 102.31 148.824 102.377 148.824 102.467V103.261C148.824 103.35 148.857 103.417 148.947 103.417C149.036 103.406 149.07 103.35 149.07 103.261ZM149.729 102.925V103.596H149.483V102.131H149.841C150.087 102.131 150.177 102.254 150.177 102.456V102.646C150.177 102.802 150.121 102.892 149.975 102.925L150.21 103.596H149.953L149.729 102.925ZM149.729 102.333V102.791H149.808C149.897 102.791 149.931 102.746 149.931 102.668V102.456C149.931 102.377 149.897 102.333 149.808 102.333H149.729ZM150.579 102.88V103.596H150.333V102.131H150.579V102.78L150.848 102.131H151.094L150.803 102.791L151.094 103.596H150.836L150.579 102.88ZM151.44 103.596L151.72 102.131H151.999L152.279 103.596H152.022L151.977 103.328H151.72L151.675 103.596H151.44ZM151.753 103.127H151.955L151.854 102.534L151.753 103.127ZM152.57 102.668V103.596H152.357V102.131H152.603L152.872 102.97V102.131H153.073V103.596H152.86L152.57 102.668ZM153.979 102.523V103.205C153.979 103.428 153.889 103.596 153.621 103.596H153.241V102.131H153.621C153.889 102.131 153.979 102.299 153.979 102.523ZM153.587 103.395C153.688 103.395 153.733 103.339 153.733 103.25V102.478C153.733 102.388 153.699 102.333 153.587 102.333H153.487V103.395H153.587Z" fill="white"/>
<path d="M142.293 104.29H142.886V104.491H142.539V104.916H142.785V105.117H142.539V105.565H142.886V105.766H142.293V104.29ZM142.986 105.375V104.659C142.986 104.424 143.098 104.268 143.355 104.268C143.624 104.268 143.702 104.424 143.702 104.637V104.816H143.478V104.625C143.478 104.536 143.445 104.48 143.355 104.48C143.266 104.48 143.232 104.547 143.232 104.637V105.431C143.232 105.52 143.266 105.587 143.355 105.587C143.445 105.587 143.478 105.531 143.478 105.442V105.173H143.702V105.431C143.702 105.643 143.613 105.8 143.355 105.8C143.098 105.777 142.986 105.609 142.986 105.375ZM143.836 105.375V104.659C143.836 104.424 143.948 104.268 144.205 104.268C144.462 104.268 144.585 104.435 144.585 104.659V105.375C144.585 105.598 144.474 105.766 144.205 105.766C143.959 105.777 143.836 105.609 143.836 105.375ZM144.339 105.419V104.625C144.339 104.536 144.306 104.469 144.216 104.469C144.127 104.469 144.093 104.536 144.093 104.625V105.419C144.093 105.509 144.127 105.576 144.216 105.576C144.306 105.565 144.339 105.509 144.339 105.419ZM144.943 104.838V105.766H144.731V104.301H144.977L145.245 105.14V104.301H145.446V105.766H145.234L144.943 104.838ZM145.592 105.375V104.659C145.592 104.424 145.704 104.268 145.961 104.268C146.218 104.268 146.341 104.435 146.341 104.659V105.375C146.341 105.598 146.229 105.766 145.961 105.766C145.704 105.777 145.592 105.609 145.592 105.375ZM146.084 105.419V104.625C146.084 104.536 146.05 104.469 145.961 104.469C145.871 104.469 145.838 104.536 145.838 104.625V105.419C145.838 105.509 145.871 105.576 145.961 105.576C146.05 105.565 146.084 105.509 146.084 105.419ZM147.157 104.804L146.978 105.755H146.867L146.688 104.804V105.755H146.486V104.29H146.777L146.934 105.117L147.079 104.29H147.392V105.755H147.169L147.157 104.804ZM147.526 104.29H147.772V105.755H147.526V104.29ZM147.907 105.375V104.659C147.907 104.424 148.018 104.268 148.276 104.268C148.544 104.268 148.622 104.424 148.622 104.637V104.816H148.399V104.625C148.399 104.536 148.365 104.48 148.276 104.48C148.186 104.48 148.153 104.547 148.153 104.637V105.431C148.153 105.52 148.186 105.587 148.276 105.587C148.365 105.587 148.399 105.531 148.399 105.442V105.173H148.622V105.431C148.622 105.643 148.533 105.8 148.276 105.8C148.018 105.777 147.907 105.609 147.907 105.375ZM149.427 104.972H149.774V105.755H149.595V105.598C149.562 105.71 149.495 105.777 149.36 105.777C149.148 105.777 149.047 105.609 149.047 105.386V104.67C149.047 104.435 149.159 104.279 149.416 104.279C149.685 104.279 149.774 104.435 149.774 104.648V104.782H149.55V104.637C149.55 104.547 149.517 104.491 149.427 104.491C149.338 104.491 149.304 104.558 149.304 104.648V105.442C149.304 105.531 149.338 105.598 149.427 105.598C149.506 105.598 149.55 105.554 149.55 105.453V105.196H149.439V104.972H149.427ZM150.188 105.084V105.755H149.942V104.29H150.3C150.546 104.29 150.635 104.413 150.635 104.614V104.804C150.635 104.961 150.579 105.05 150.434 105.084L150.669 105.755H150.411L150.188 105.084ZM150.188 104.491V104.95H150.266C150.356 104.95 150.389 104.905 150.389 104.827V104.614C150.389 104.536 150.356 104.491 150.266 104.491H150.188ZM150.747 105.375V104.659C150.747 104.424 150.859 104.268 151.116 104.268C151.373 104.268 151.496 104.435 151.496 104.659V105.375C151.496 105.598 151.384 105.766 151.116 105.766C150.859 105.777 150.747 105.609 150.747 105.375ZM151.25 105.419V104.625C151.25 104.536 151.217 104.469 151.127 104.469C151.038 104.469 151.004 104.536 151.004 104.625V105.419C151.004 105.509 151.038 105.576 151.127 105.576C151.217 105.565 151.25 105.509 151.25 105.419ZM152.134 104.849L151.999 105.755H151.765L151.563 104.29H151.798L151.91 105.218L152.033 104.29H152.234L152.368 105.218L152.48 104.29H152.693L152.503 105.755H152.268L152.134 104.849ZM152.782 104.29H153.442V104.491H153.241V105.755H152.983V104.491H152.782V104.29ZM154.001 105.106H153.766V105.755H153.52V104.29H153.766V104.916H154.001V104.29H154.247V105.755H154.001V105.106Z" fill="white"/>
<path d="M141.081 24.27C147.783 24.27 153.216 18.837 153.216 12.135C153.216 5.43302 147.783 0 141.081 0C134.379 0 128.946 5.43302 128.946 12.135C128.946 18.837 134.379 24.27 141.081 24.27Z" fill="#FD6925"/>
<g clip-path="url(#clip0_6428_4118)">
<path d="M135.71 5.94099C135.71 5.41338 135.478 5.02295 134.876 5.02295C134.264 5.02295 134.032 5.36062 134.032 5.88823V6.39473C134.032 6.954 134.254 7.23891 134.665 7.23891C134.908 7.23891 135.056 7.12283 135.14 6.96455V7.7032C135.14 7.91424 135.056 8.05142 134.855 8.05142C134.644 8.05142 134.57 7.93535 134.57 7.71375V7.48161H134.043V7.66099C134.043 8.1675 134.222 8.51572 134.866 8.51572C135.467 8.51572 135.71 8.12529 135.71 7.58713V5.94099ZM135.14 6.4686C135.13 6.65854 135.045 6.78516 134.866 6.78516C134.665 6.78516 134.591 6.66909 134.591 6.43694V5.84602C134.591 5.62442 134.676 5.4978 134.866 5.4978C135.056 5.4978 135.13 5.62442 135.13 5.84602V6.4686H135.14ZM145.334 14.8259L143.318 13.6652V11.3331C143.318 11.2804 143.297 11.2382 143.244 11.2171L141.155 10.0141C141.113 9.99302 141.06 9.99302 141.018 10.0141L138.928 11.2171C138.886 11.2382 138.855 11.2909 138.855 11.3331V13.6652L136.839 14.8259C136.797 14.847 136.765 14.8998 136.765 14.942V17.3479C136.765 17.4006 136.786 17.4428 136.839 17.464L138.928 18.6669C138.95 18.6775 138.971 18.688 139.002 18.688C139.023 18.688 139.055 18.6775 139.076 18.6669L141.092 17.5062L143.107 18.6669C143.128 18.6775 143.149 18.688 143.181 18.688C143.213 18.688 143.234 18.6775 143.255 18.6669L145.344 17.464C145.386 17.4428 145.418 17.3901 145.418 17.3479V14.942C145.397 14.8892 145.376 14.847 145.334 14.8259ZM140.944 17.1157L139.266 16.1449L140.944 15.1741V17.1157ZM142.896 13.739L141.218 14.7098V12.7788L142.896 13.739ZM140.944 14.6993L139.266 13.7285L140.944 12.7577V14.6993ZM141.366 14.942L143.181 13.8973L144.996 14.942L143.181 15.9866L141.366 14.942ZM143.033 13.4963L141.355 12.5255L143.033 11.5547V13.4963ZM140.807 12.5361L139.129 13.5069V11.5758L140.807 12.5361ZM138.865 18.3187L137.05 17.274V15.1847L138.865 16.2293V18.3187ZM139.139 18.3187V16.3876L140.817 17.3584L139.139 18.3187ZM145.123 17.274L143.308 18.3187V16.2293L145.123 15.1847V17.274Z" fill="white"/>
<path d="M136.607 5.10723H136.829V6.3946H136.607V5.10723ZM137.135 5.59263V6.40515H136.956V5.11778H137.167L137.399 5.85644V5.11778H137.578V6.40515H137.388L137.135 5.59263ZM138.359 5.45545V6.05693C138.359 6.25742 138.275 6.40515 138.043 6.40515H137.705V5.11778H138.043C138.285 5.10723 138.359 5.25496 138.359 5.45545ZM138.021 6.22576C138.106 6.22576 138.148 6.173 138.148 6.09914V5.4238C138.148 5.34993 138.116 5.29717 138.021 5.29717H137.926V6.23631L138.021 6.22576ZM139.129 5.10723V6.07803C139.129 6.27852 139.045 6.40515 138.823 6.40515C138.591 6.40515 138.496 6.27852 138.496 6.07803V5.10723H138.718V6.09914C138.718 6.173 138.75 6.22576 138.823 6.22576C138.897 6.22576 138.929 6.173 138.929 6.09914V5.10723H139.129ZM139.245 6.12024V5.95141H139.446V6.13079C139.446 6.20466 139.478 6.24687 139.551 6.24687C139.615 6.24687 139.646 6.20466 139.646 6.13079V6.07803C139.646 6.00417 139.615 5.96196 139.551 5.89864L139.425 5.77202C139.298 5.64539 139.245 5.57153 139.245 5.4238V5.38159C139.245 5.22331 139.34 5.09668 139.551 5.09668C139.773 5.09668 139.857 5.2022 139.857 5.39214V5.49766H139.657V5.38159C139.657 5.30772 139.625 5.27607 139.551 5.27607C139.488 5.27607 139.446 5.30772 139.446 5.38159V5.41325C139.446 5.48711 139.488 5.52932 139.551 5.59263L139.689 5.72981C139.805 5.84588 139.868 5.91975 139.868 6.06748V6.13079C139.868 6.31018 139.773 6.43681 139.551 6.43681C139.33 6.4157 139.245 6.28908 139.245 6.12024ZM139.921 5.10723H140.501V5.28662H140.322V6.3946H140.1V5.28662H139.921V5.10723ZM140.818 5.80368V6.3946H140.607V5.10723H140.923C141.145 5.10723 141.219 5.21275 141.219 5.39214V5.56098C141.219 5.69815 141.166 5.78257 141.05 5.81423L141.261 6.3946H141.029L140.818 5.80368ZM140.818 5.28662V5.6876H140.892C140.965 5.6876 140.997 5.64539 140.997 5.58208V5.39214C140.997 5.31828 140.965 5.28662 140.892 5.28662H140.818ZM141.725 5.9092V6.3946H141.504V5.9092L141.261 5.10723H141.483L141.609 5.59263L141.736 5.10723H141.947L141.725 5.9092ZM142.179 6.20466L142.073 6.50012H141.947L141.978 6.19411H142.179V6.20466ZM142.527 5.10723H142.749V6.3946H142.527V5.10723ZM143.055 5.59263V6.40515H142.875V5.11778H143.086L143.319 5.85644V5.11778H143.498V6.40515H143.308L143.055 5.59263ZM143.815 5.59263V6.40515H143.635V5.11778H143.846L144.078 5.85644V5.11778H144.258V6.40515H144.068L143.815 5.59263ZM144.395 6.06748V5.4449C144.395 5.24441 144.49 5.09668 144.722 5.09668C144.954 5.09668 145.049 5.24441 145.049 5.4449V6.06748C145.049 6.26797 144.954 6.4157 144.722 6.4157C144.49 6.4157 144.395 6.26797 144.395 6.06748ZM144.838 6.09914V5.40269C144.838 5.32883 144.807 5.26551 144.722 5.26551C144.648 5.26551 144.617 5.31828 144.617 5.40269V6.09914C144.617 6.173 144.648 6.23631 144.722 6.23631C144.796 6.23631 144.838 6.18355 144.838 6.09914ZM145.883 5.10723L145.64 6.3946H145.408L145.165 5.10723H145.387L145.535 6.00417L145.682 5.10723H145.883ZM145.851 6.3946L146.094 5.10723H146.337L146.579 6.3946H146.358L146.315 6.16245H146.094L146.052 6.3946H145.851ZM146.115 5.99361H146.284L146.199 5.47656L146.115 5.99361ZM146.558 5.10723H147.139V5.28662H146.959V6.3946H146.738V5.28662H146.558V5.10723ZM147.244 5.10723H147.466V6.3946H147.244V5.10723ZM147.603 6.06748V5.4449C147.603 5.24441 147.698 5.09668 147.93 5.09668C148.162 5.09668 148.257 5.24441 148.257 5.4449V6.06748C148.257 6.26797 148.162 6.4157 147.93 6.4157C147.698 6.4157 147.603 6.26797 147.603 6.06748ZM148.035 6.09914V5.40269C148.035 5.32883 148.004 5.26551 147.919 5.26551C147.846 5.26551 147.814 5.31828 147.814 5.40269V6.09914C147.814 6.173 147.846 6.23631 147.919 6.23631C148.004 6.23631 148.035 6.18355 148.035 6.09914ZM148.574 5.59263V6.40515H148.394V5.11778H148.605L148.837 5.85644V5.11778H149.017V6.40515H148.827L148.574 5.59263Z" fill="white"/>
<path d="M136.565 8.44177L136.808 7.1544H137.051L137.294 8.44177H137.072L137.03 8.20962H136.808L136.766 8.44177H136.565ZM136.84 8.03024H137.009L136.924 7.51318L136.84 8.03024ZM137.568 7.62925V8.44177H137.388V7.1544H137.6L137.832 7.89306V7.1544H138.011V8.44177H137.821L137.568 7.62925ZM138.792 7.49207V8.09355C138.792 8.29404 138.708 8.44177 138.475 8.44177H138.138V7.1544H138.475C138.708 7.1544 138.792 7.30214 138.792 7.49207ZM138.454 8.26238C138.539 8.26238 138.581 8.20962 138.581 8.13576V7.46042C138.581 7.38655 138.549 7.33379 138.454 7.33379H138.359V8.27294L138.454 8.26238ZM139.13 7.1544H139.351V8.44177H139.13V7.1544ZM139.668 7.62925V8.44177H139.488V7.1544H139.699L139.932 7.89306V7.1544H140.111V8.44177H139.921L139.668 7.62925ZM140.248 7.1544H140.755V7.33379H140.459V7.70312H140.681V7.8825H140.459V8.45232H140.238L140.248 7.1544ZM141.071 7.85085V8.44177H140.85V7.1544H141.166C141.388 7.1544 141.462 7.25993 141.462 7.43931V7.60815C141.462 7.74533 141.409 7.82974 141.293 7.8614L141.504 8.44177H141.272L141.071 7.85085ZM141.071 7.32324V7.72422H141.145C141.219 7.72422 141.251 7.68201 141.251 7.6187V7.42876C141.251 7.3549 141.219 7.32324 141.145 7.32324H141.071ZM141.567 8.44177L141.81 7.1544H142.053L142.295 8.44177H142.074L142.031 8.20962H141.799L141.757 8.44177H141.567ZM141.831 8.03024H142L141.915 7.51318L141.831 8.03024ZM142.369 8.15686V7.98803H142.57V8.16741C142.57 8.24128 142.601 8.28349 142.675 8.28349C142.738 8.28349 142.77 8.24128 142.77 8.16741V8.11465C142.77 8.04079 142.738 7.99858 142.675 7.93527L142.549 7.80864C142.422 7.68201 142.369 7.60815 142.369 7.46042V7.41821C142.369 7.25993 142.464 7.1333 142.675 7.1333C142.897 7.1333 142.981 7.23882 142.981 7.42876V7.53428H142.781V7.41821C142.781 7.34434 142.749 7.31269 142.675 7.31269C142.612 7.31269 142.57 7.34434 142.57 7.41821V7.44987C142.57 7.52373 142.612 7.56594 142.675 7.62925L142.812 7.76643C142.928 7.88251 142.992 7.95637 142.992 8.1041V8.16741C142.992 8.3468 142.897 8.47343 142.675 8.47343C142.454 8.47343 142.369 8.3257 142.369 8.15686ZM143.055 7.1544H143.635V7.33379H143.456V8.44177H143.234V7.33379H143.055V7.1544ZM143.962 7.85085V8.44177H143.741V7.1544H144.057C144.279 7.1544 144.353 7.25993 144.353 7.43931V7.60815C144.353 7.74533 144.3 7.82974 144.184 7.8614L144.395 8.44177H144.163L143.962 7.85085ZM143.962 7.32324V7.72422H144.036C144.11 7.72422 144.142 7.68201 144.142 7.6187V7.42876C144.142 7.3549 144.11 7.32324 144.036 7.32324H143.962ZM145.113 7.1544V8.1252C145.113 8.3257 145.028 8.45232 144.807 8.45232C144.575 8.45232 144.48 8.3257 144.48 8.1252V7.1544H144.701V8.14631C144.701 8.22017 144.733 8.27294 144.807 8.27294C144.881 8.27294 144.912 8.22017 144.912 8.14631V7.1544H145.113ZM145.25 8.1041V7.48152C145.25 7.28103 145.345 7.1333 145.577 7.1333C145.82 7.1333 145.883 7.27048 145.883 7.46042V7.60815H145.682V7.43931C145.682 7.3549 145.651 7.31269 145.577 7.31269C145.503 7.31269 145.471 7.36545 145.471 7.44987V8.14631C145.471 8.22017 145.503 8.28349 145.577 8.28349C145.651 8.28349 145.682 8.23073 145.682 8.15686V7.91416H145.883V8.13576C145.883 8.31514 145.809 8.45232 145.577 8.45232C145.345 8.45232 145.25 8.30459 145.25 8.1041ZM145.925 7.1544H146.506V7.33379H146.326V8.44177H146.105V7.33379H145.925V7.1544ZM147.244 7.1544V8.1252C147.244 8.3257 147.16 8.45232 146.938 8.45232C146.706 8.45232 146.611 8.3257 146.611 8.1252V7.1544H146.833V8.14631C146.833 8.22017 146.864 8.27294 146.938 8.27294C147.012 8.27294 147.044 8.22017 147.044 8.14631V7.1544H147.244ZM147.592 7.85085V8.44177H147.371V7.1544H147.687C147.909 7.1544 147.983 7.25993 147.983 7.43931V7.60815C147.983 7.74533 147.93 7.82974 147.814 7.8614L148.025 8.44177H147.793L147.592 7.85085ZM147.592 7.32324V7.72422H147.666C147.74 7.72422 147.772 7.68201 147.772 7.6187V7.42876C147.772 7.3549 147.74 7.32324 147.666 7.32324H147.592ZM148.12 7.1544H148.637V7.33379H148.342V7.70312H148.553V7.8825H148.342V8.27294H148.637V8.45232H148.12V7.1544Z" fill="white"/>
</g>
<path d="M153.613 89.6698C156.96 89.6698 159.673 86.9566 159.673 83.6098C159.673 80.263 156.96 77.5498 153.613 77.5498C150.266 77.5498 147.553 80.263 147.553 83.6098C147.553 86.9566 150.266 89.6698 153.613 89.6698Z" fill="#DD1367"/>
<path d="M183.04 79.6809C201.677 79.6809 216.785 64.5728 216.785 45.9359C216.785 27.2991 201.677 12.1909 183.04 12.1909C164.403 12.1909 149.295 27.2991 149.295 45.9359C149.295 64.5728 164.403 79.6809 183.04 79.6809Z" fill="#FD9D24"/>
<path d="M163.027 28.1834V29.856L164.172 28.6823V35.9594H165.786V26.4521H164.495L163.027 28.1834ZM166.666 28.1834V29.856H166.695L167.81 28.6823V35.9594H169.424V26.4521H168.133L166.666 28.1834Z" fill="white"/>
<path d="M167.429 58.4362H174.53C174.618 58.4362 174.706 58.3481 174.706 58.2601C174.706 58.2014 174.677 58.1721 174.648 58.1427L171.126 53.5651L171.097 53.5358C171.068 53.5065 171.009 53.4771 170.98 53.4771C170.95 53.4771 170.892 53.5065 170.862 53.5358L170.833 53.5651L170.804 53.5945L167.341 58.1134L167.282 58.1721C167.253 58.2014 167.253 58.2308 167.253 58.2601C167.253 58.3481 167.341 58.4362 167.429 58.4362ZM174.501 59.0817H167.37C167.282 59.0817 167.194 59.1697 167.194 59.2578V64.833C167.194 64.9211 167.282 65.0091 167.37 65.0091H169.659V61.5172C169.659 61.4292 169.747 61.3412 169.835 61.3412H171.948C172.036 61.3412 172.124 61.4292 172.124 61.5172V65.0091H174.472C174.56 65.0091 174.648 64.9211 174.648 64.833V59.2578C174.677 59.1697 174.618 59.0817 174.501 59.0817ZM199.091 57.6145H192.048C191.96 57.6145 191.872 57.7026 191.872 57.7906V64.8917C191.872 64.9798 191.96 65.0678 192.048 65.0678H199.091C199.179 65.0678 199.267 64.9798 199.267 64.8917V57.7906C199.267 57.7026 199.208 57.6145 199.091 57.6145ZM195.247 62.2802C195.247 62.3682 195.159 62.4562 195.071 62.4562H192.958C192.87 62.4562 192.782 62.3682 192.782 62.2802V60.989C192.782 60.901 192.87 60.813 192.958 60.813H195.071C195.159 60.813 195.247 60.901 195.247 60.989V62.2802ZM195.247 59.9033C195.247 59.9914 195.159 60.0794 195.071 60.0794H192.958C192.87 60.0794 192.782 59.9914 192.782 59.9033V58.6122C192.782 58.5242 192.87 58.4362 192.958 58.4362H195.071C195.159 58.4362 195.247 58.5242 195.247 58.6122V59.9033ZM198.474 62.2802C198.474 62.3682 198.386 62.4562 198.298 62.4562H196.186C196.098 62.4562 196.01 62.3682 196.01 62.2802V60.989C196.01 60.901 196.098 60.813 196.186 60.813H198.298C198.386 60.813 198.474 60.901 198.474 60.989V62.2802ZM198.474 59.9033C198.474 59.9914 198.386 60.0794 198.298 60.0794H196.186C196.098 60.0794 196.01 59.9914 196.01 59.9033V58.6122C196.01 58.5242 196.098 58.4362 196.186 58.4362H198.298C198.386 58.4362 198.474 58.5242 198.474 58.6122V59.9033ZM182.717 41.1235H175.851C175.763 41.1235 175.675 41.2116 175.675 41.2996V64.8624C175.675 64.9504 175.763 65.0384 175.851 65.0384H182.746C182.834 65.0384 182.922 64.9504 182.922 64.8624V41.2996C182.893 41.1822 182.834 41.1235 182.717 41.1235ZM178.638 62.3388C178.638 62.3975 178.609 62.4269 178.55 62.4269H176.966C176.907 62.4269 176.878 62.3975 176.878 62.3388V60.5782C176.878 60.5195 176.907 60.4902 176.966 60.4902H178.55C178.609 60.4902 178.638 60.5195 178.638 60.5782V62.3388ZM178.638 58.2894C178.638 58.3481 178.609 58.3775 178.55 58.3775H176.966C176.907 58.3775 176.878 58.3481 176.878 58.2894V56.5288C176.878 56.4701 176.907 56.4408 176.966 56.4408H178.55C178.609 56.4408 178.638 56.4701 178.638 56.5288V58.2894ZM178.638 54.24C178.638 54.2987 178.609 54.3281 178.55 54.3281H176.966C176.907 54.3281 176.878 54.2987 176.878 54.24V52.4794C176.878 52.4207 176.907 52.3914 176.966 52.3914H178.55C178.609 52.3914 178.638 52.4207 178.638 52.4794V54.24ZM178.638 50.22C178.638 50.2787 178.609 50.308 178.55 50.308H176.966C176.907 50.308 176.878 50.2787 176.878 50.22V48.4594C176.878 48.4007 176.907 48.3714 176.966 48.3714H178.55C178.609 48.3714 178.638 48.4007 178.638 48.4594V50.22ZM178.638 46.1706C178.638 46.2293 178.609 46.2586 178.55 46.2586H176.966C176.907 46.2586 176.878 46.2293 176.878 46.1706V44.41C176.878 44.3513 176.907 44.322 176.966 44.322H178.55C178.609 44.322 178.638 44.3513 178.638 44.41V46.1706ZM181.719 62.3388C181.719 62.3975 181.69 62.4269 181.631 62.4269H180.047C179.988 62.4269 179.959 62.3975 179.959 62.3388V60.5782C179.959 60.5195 179.988 60.4902 180.047 60.4902H181.631C181.69 60.4902 181.719 60.5195 181.719 60.5782V62.3388ZM181.719 58.2894C181.719 58.3481 181.69 58.3775 181.631 58.3775H180.047C179.988 58.3775 179.959 58.3481 179.959 58.2894V56.5288C179.959 56.4701 179.988 56.4408 180.047 56.4408H181.631C181.69 56.4408 181.719 56.4701 181.719 56.5288V58.2894ZM181.719 54.24C181.719 54.2987 181.69 54.3281 181.631 54.3281H180.047C179.988 54.3281 179.959 54.2987 179.959 54.24V52.4794C179.959 52.4207 179.988 52.3914 180.047 52.3914H181.631C181.69 52.3914 181.719 52.4207 181.719 52.4794V54.24ZM181.719 50.22C181.719 50.2787 181.69 50.308 181.631 50.308H180.047C179.988 50.308 179.959 50.2787 179.959 50.22V48.4594C179.959 48.4007 179.988 48.3714 180.047 48.3714H181.631C181.69 48.3714 181.719 48.4007 181.719 48.4594V50.22ZM181.719 46.1706C181.719 46.2293 181.69 46.2586 181.631 46.2586H180.047C179.988 46.2586 179.959 46.2293 179.959 46.1706V44.41C179.959 44.3513 179.988 44.322 180.047 44.322H181.631C181.69 44.322 181.719 44.3513 181.719 44.41V46.1706ZM199.267 56.9103C199.267 56.9983 199.208 57.057 199.12 57.057H192.019C191.931 57.057 191.872 56.9983 191.872 56.9103V55.5018C191.872 55.4138 191.931 55.3551 192.019 55.3551H199.12C199.208 55.3551 199.267 55.4138 199.267 55.5018V56.9103ZM191.051 45.5544C191.021 45.4664 190.963 45.437 190.875 45.437C190.845 45.437 190.816 45.437 190.786 45.4664L190.728 45.5251L183.949 54.1227L183.92 54.152C183.891 54.1814 183.861 54.24 183.861 54.2987V64.8624C183.861 64.9504 183.949 65.0384 184.037 65.0384H190.933C191.021 65.0384 191.109 64.9504 191.109 64.8624V45.6131C191.08 45.6131 191.08 45.5837 191.051 45.5544ZM188.204 50.22L188.263 50.1613C188.732 49.5745 189.495 48.6061 189.877 48.1366L189.936 48.0779C189.965 48.0486 190.024 48.0193 190.082 48.0193C190.17 48.0193 190.258 48.0779 190.258 48.166V50.3374C190.258 50.4548 190.17 50.5134 190.082 50.5428H188.38C188.263 50.5428 188.204 50.4548 188.204 50.3374C188.175 50.308 188.175 50.2494 188.204 50.22ZM187.119 62.2508C187.119 62.3388 187.031 62.4269 186.942 62.4269H184.888C184.8 62.4269 184.712 62.3388 184.712 62.2508V60.9597C184.712 60.8717 184.8 60.7836 184.888 60.7836H186.942C187.031 60.7836 187.119 60.8717 187.119 60.9597V62.2508ZM187.119 59.9033C187.119 59.9914 187.031 60.0794 186.942 60.0794H184.888C184.8 60.0794 184.712 59.9914 184.712 59.9033V58.6122C184.712 58.5242 184.8 58.4362 184.888 58.4362H186.942C187.031 58.4362 187.119 58.5242 187.119 58.6122V59.9033ZM187.119 57.5265C187.119 57.6145 187.031 57.7026 186.942 57.7026H184.888C184.8 57.7026 184.712 57.6145 184.712 57.5265V56.2354C184.712 56.1474 184.8 56.0593 184.888 56.0593H186.942C187.031 56.0593 187.119 56.1474 187.119 56.2354V57.5265ZM187.148 52.3034V55.1203C187.148 55.2084 187.06 55.2964 186.972 55.2964H184.918C184.83 55.2964 184.742 55.2084 184.742 55.1203V54.7682V54.7095V54.6802C184.742 54.6802 184.742 54.6508 184.771 54.6508C184.771 54.6508 184.771 54.6215 184.8 54.6215C185.065 54.24 186.238 52.7729 186.737 52.186L186.796 52.1273C186.825 52.098 186.884 52.0686 186.942 52.0686C187.031 52.0686 187.119 52.1273 187.119 52.2153V52.3034H187.148ZM190.288 62.2508C190.288 62.3388 190.2 62.4269 190.112 62.4269H188.058C187.97 62.4269 187.881 62.3388 187.881 62.2508V60.9597C187.881 60.8717 187.97 60.7836 188.058 60.7836H190.112C190.2 60.7836 190.288 60.8717 190.288 60.9597V62.2508ZM190.288 59.9033C190.288 59.9914 190.2 60.0794 190.112 60.0794H188.058C187.97 60.0794 187.881 59.9914 187.881 59.9033V58.6122C187.881 58.5242 187.97 58.4362 188.058 58.4362H190.112C190.2 58.4362 190.288 58.5242 190.288 58.6122V59.9033ZM190.288 57.5265C190.288 57.6145 190.2 57.7026 190.112 57.7026H188.058C187.97 57.7026 187.881 57.6145 187.881 57.5265V56.2354C187.881 56.1474 187.97 56.0593 188.058 56.0593H190.112C190.2 56.0593 190.288 56.1474 190.288 56.2354V57.5265ZM190.288 55.1497C190.288 55.2377 190.2 55.3257 190.112 55.3257H188.058C187.97 55.3257 187.881 55.2377 187.881 55.1497V53.8586C187.881 53.7705 187.97 53.6825 188.058 53.6825H190.112C190.2 53.6825 190.288 53.7705 190.288 53.8586V55.1497ZM190.288 52.7729C190.288 52.8609 190.2 52.9489 190.112 52.9489H188.058C187.97 52.9489 187.881 52.8609 187.881 52.7729V51.4818C187.881 51.3938 187.97 51.3057 188.058 51.3057H190.112C190.2 51.3057 190.288 51.3938 190.288 51.4818V52.7729Z" fill="white"/>
<path d="M172.534 29.4741V28.9459H173.15V29.4741C173.15 29.6795 173.238 29.8263 173.473 29.8263C173.679 29.8263 173.767 29.6795 173.767 29.4741V29.3274C173.767 29.0927 173.679 28.9753 173.473 28.7699L173.092 28.3884C172.71 28.0363 172.564 27.8016 172.564 27.3614V27.244C172.564 26.7745 172.857 26.3931 173.473 26.3931C174.119 26.3931 174.383 26.7158 174.383 27.2734V27.5961H173.796V27.2734C173.796 27.0386 173.708 26.9506 173.503 26.9506C173.326 26.9506 173.209 27.0386 173.209 27.2734V27.3614C173.209 27.5668 173.326 27.7135 173.503 27.8896L173.913 28.3004C174.265 28.6525 174.442 28.8873 174.442 29.2981V29.4741C174.442 30.0023 174.148 30.3838 173.503 30.3838C172.857 30.3838 172.534 29.973 172.534 29.4741ZM176.554 26.4518V29.3568C176.554 29.9436 176.29 30.3544 175.645 30.3544C174.97 30.3544 174.676 29.973 174.676 29.3568V26.4518H175.322V29.4448C175.322 29.6795 175.41 29.8263 175.645 29.8263C175.879 29.8263 175.967 29.6795 175.967 29.4448V26.4518H176.554ZM176.906 29.4741V28.9459H177.523V29.4741C177.523 29.6795 177.611 29.8263 177.845 29.8263C178.051 29.8263 178.139 29.6795 178.139 29.4741V29.3274C178.139 29.0927 178.051 28.9753 177.845 28.7699L177.464 28.3884C177.082 28.0363 176.936 27.8016 176.936 27.3614V27.244C176.936 26.7745 177.2 26.3931 177.845 26.3931C178.491 26.3931 178.755 26.7158 178.755 27.2734V27.5961H178.168V27.2734C178.168 27.0386 178.08 26.9506 177.875 26.9506C177.699 26.9506 177.581 27.0386 177.581 27.2734V27.3614C177.581 27.5668 177.699 27.7135 177.875 27.8896L178.286 28.3004C178.638 28.6525 178.814 28.8873 178.814 29.2981V29.4741C178.814 30.0023 178.52 30.3838 177.875 30.3838C177.141 30.3544 176.906 29.973 176.906 29.4741ZM178.902 26.4518H180.633V26.9799H180.105V30.2957H179.459V26.9799H178.931V26.4518H178.902ZM180.516 30.2957L181.249 26.4518H181.983L182.716 30.2957H182.041L181.924 29.5915H181.249L181.132 30.2957H180.516ZM181.337 29.0633H181.865L181.601 27.5081L181.337 29.0633ZM182.98 26.4518H183.626V30.2957H182.98V26.4518ZM184.536 27.8602V30.2957H183.978V26.4518H184.624L185.328 28.6525V26.4518H185.856V30.2957H185.299L184.536 27.8602ZM186.091 30.2957L186.824 26.4518H187.558L188.292 30.2957H187.617L187.499 29.5915H186.824L186.707 30.2957H186.091ZM186.912 29.0633H187.441L187.177 27.5081L186.912 29.0633ZM188.497 26.4518H189.436C190.082 26.4518 190.287 26.7452 190.287 27.3027V27.6842C190.287 28.007 190.17 28.2124 189.905 28.3004C190.228 28.3884 190.375 28.5938 190.375 28.9459V29.4448C190.375 30.0023 190.14 30.2957 189.495 30.2957H188.497V26.4518ZM189.143 28.0656H189.377C189.583 28.0656 189.671 27.9483 189.671 27.7429V27.2734C189.671 27.068 189.583 26.9506 189.348 26.9506H189.113L189.143 28.0656ZM189.143 28.5645V29.7676H189.436C189.641 29.7676 189.759 29.6502 189.759 29.4448V28.8579C189.759 28.6525 189.671 28.5351 189.436 28.5351H189.143V28.5645ZM190.668 26.4518H191.314V29.7676H192.077V30.2957H190.668V26.4518ZM192.341 26.4518H193.896V26.9799H192.987V28.095H193.632V28.6232H192.987V29.7969H193.896V30.3251H192.341V26.4518ZM194.982 29.2981V27.4201C194.982 26.8039 195.275 26.3931 195.95 26.3931C196.654 26.3931 196.86 26.8039 196.86 27.3614V27.8309H196.273V27.3027C196.273 27.068 196.185 26.9212 195.95 26.9212C195.715 26.9212 195.627 27.0973 195.627 27.3321V29.4154C195.627 29.6502 195.715 29.8263 195.95 29.8263C196.185 29.8263 196.273 29.6795 196.273 29.4448V28.7405H196.86V29.4154C196.86 29.973 196.625 30.3838 195.95 30.3838C195.246 30.3544 194.982 29.8849 194.982 29.2981ZM197.153 26.4518H197.799V30.2957H197.153V26.4518ZM198.034 26.4518H199.765V26.9799H199.237V30.2957H198.591V26.9799H198.063V26.4518H198.034ZM200.029 26.4518H200.675V30.2957H200.029V26.4518ZM201.027 26.4518H202.582V26.9799H201.672V28.095H202.318V28.6232H201.672V29.7969H202.582V30.3251H201.027V26.4518ZM202.729 29.4741V28.9459H203.345V29.4741C203.345 29.6795 203.433 29.8263 203.668 29.8263C203.873 29.8263 203.961 29.6795 203.961 29.4741V29.3274C203.961 29.0927 203.873 28.9753 203.668 28.7699L203.286 28.3884C202.905 28.0363 202.758 27.8016 202.758 27.3614V27.244C202.758 26.7745 203.051 26.3931 203.668 26.3931C204.313 26.3931 204.577 26.7158 204.577 27.2734V27.5961H203.99V27.2734C203.99 27.0386 203.902 26.9506 203.697 26.9506C203.521 26.9506 203.403 27.0386 203.403 27.2734V27.3614C203.403 27.5668 203.521 27.7135 203.697 27.8896L204.108 28.3004C204.46 28.6525 204.636 28.8873 204.636 29.2981V29.4741C204.636 30.0023 204.342 30.3838 203.697 30.3838C203.051 30.3838 202.729 29.973 202.729 29.4741Z" fill="white"/>
<path d="M172.534 35.9593L173.268 32.1153H174.001L174.735 35.9593H174.089L173.972 35.2551H173.297L173.18 35.9593H172.534ZM173.356 34.7562H173.884L173.62 33.201L173.356 34.7562ZM175.557 33.5532V35.9887H174.999V32.1447H175.645L176.349 34.3454V32.1447H176.877V35.9887H176.319L175.557 33.5532ZM179.195 33.1423V34.9323C179.195 35.5192 178.96 35.9593 178.256 35.9593H177.258V32.1153H178.256C178.931 32.1153 179.195 32.5555 179.195 33.1423ZM178.168 35.4311C178.432 35.4311 178.55 35.2844 178.55 35.0497V33.025C178.55 32.7902 178.462 32.6435 178.168 32.6435H177.904V35.4311H178.168ZM180.134 34.9616V33.0837C180.134 32.4674 180.428 32.0566 181.102 32.0566C181.807 32.0566 182.012 32.4674 182.012 33.025V33.4945H181.425V32.9956C181.425 32.7609 181.337 32.6142 181.102 32.6142C180.868 32.6142 180.78 32.7902 180.78 33.025V35.1084C180.78 35.3431 180.868 35.5192 181.102 35.5192C181.337 35.5192 181.425 35.3725 181.425 35.1377V34.4335H182.012V35.1084C182.012 35.6659 181.777 36.0767 181.102 36.0767C180.398 36.018 180.134 35.5779 180.134 34.9616ZM182.364 34.9616V33.0837C182.364 32.4674 182.658 32.0566 183.333 32.0566C184.007 32.0566 184.33 32.4968 184.33 33.0837V34.9616C184.33 35.5485 184.037 35.9887 183.333 35.9887C182.658 36.018 182.364 35.5779 182.364 34.9616ZM183.655 35.079V32.9956C183.655 32.7609 183.567 32.5848 183.333 32.5848C183.098 32.5848 183.01 32.7609 183.01 32.9956V35.079C183.01 35.3138 183.098 35.4898 183.333 35.4898C183.567 35.4605 183.655 35.3138 183.655 35.079ZM186.472 33.4651L186.003 35.9593H185.709L185.24 33.4651V35.9593H184.712V32.1153H185.475L185.885 34.2867L186.267 32.1153H187.089V35.9593H186.502L186.472 33.4651ZM189.201 33.4651L188.732 35.9593H188.438L187.969 33.4651V35.9593H187.441V32.1153H188.204L188.614 34.2867L188.996 32.1153H189.817V35.9593H189.231V33.4651H189.201ZM192.048 32.1153V35.0203C192.048 35.6072 191.783 36.018 191.138 36.018C190.463 36.018 190.17 35.6365 190.17 35.0203V32.1153H190.815V35.1084C190.815 35.3431 190.903 35.4898 191.138 35.4898C191.373 35.4898 191.461 35.3431 191.461 35.1084V32.1153H192.048ZM192.928 33.5532V35.9887H192.37V32.1447H193.016L193.72 34.3454V32.1447H194.248V35.9887H193.691L192.928 33.5532ZM194.63 32.1153H195.275V35.9593H194.63V32.1153ZM195.569 32.1153H197.3V32.6435H196.772V35.9593H196.097V32.6435H195.569V32.1153ZM197.593 32.1153H198.239V35.9593H197.593V32.1153ZM198.591 32.1153H200.146V32.6435H199.237V33.7586H199.882V34.2867H199.237V35.4605H200.146V35.9887H198.591V32.1153ZM200.41 35.1377V34.6095H201.027V35.1377C201.027 35.3431 201.115 35.4898 201.349 35.4898C201.555 35.4898 201.643 35.3431 201.643 35.1377V34.991C201.643 34.7562 201.555 34.6389 201.349 34.4335L200.968 34.052C200.586 33.6999 200.44 33.4651 200.44 33.025V32.9076C200.44 32.4381 200.704 32.0566 201.349 32.0566C201.995 32.0566 202.259 32.3794 202.259 32.9369V33.2597H201.672V32.9369C201.672 32.7022 201.584 32.6142 201.379 32.6142C201.203 32.6142 201.085 32.7022 201.085 32.9369V33.025C201.085 33.2304 201.203 33.3771 201.379 33.5532L201.79 33.964C202.142 34.3161 202.318 34.5508 202.318 34.9616V35.1377C202.318 35.6659 202.024 36.0474 201.379 36.0474C200.675 36.018 200.41 35.6365 200.41 35.1377Z" fill="white"/>
<path d="M176.932 109.848C183.151 109.848 188.192 104.806 188.192 98.5876C188.192 92.3689 183.151 87.3276 176.932 87.3276C170.713 87.3276 165.672 92.3689 165.672 98.5876C165.672 104.806 170.713 109.848 176.932 109.848Z" fill="#BF8B2E"/>
<path d="M170.675 92.8302H170.685V95.2682H171.213V92.086H170.792L170.293 92.6637V93.2218H170.303L170.675 92.8302ZM171.536 92.7421V93.1239H172.026V92.7225C172.026 92.5266 172.124 92.4777 172.232 92.4777C172.339 92.4777 172.427 92.5169 172.427 92.7127V92.977C172.427 93.2414 172.408 93.3393 172.232 93.5254L171.928 93.8485C171.634 94.1618 171.527 94.3674 171.527 94.6807V95.2682H172.917V94.8276H172.036V94.6807C172.036 94.436 172.124 94.338 172.261 94.1912L172.604 93.8289C172.878 93.5352 172.937 93.3491 172.937 93.026V92.7127C172.937 92.2623 172.721 92.0469 172.241 92.0469C171.771 92.0469 171.536 92.3014 171.536 92.7421ZM181.367 99.2043C180.721 98.6952 179.957 98.6462 179.653 98.6462C179.497 98.6462 179.35 98.656 179.242 98.6854L179.203 98.6952C178.792 98.7931 178.116 98.9497 177.323 99.9387L177.304 99.968C177.294 99.9876 177.284 100.007 177.284 100.027C177.284 100.046 177.284 100.066 177.294 100.076L177.313 100.105C177.441 100.321 177.548 100.516 177.636 100.673C177.666 100.732 177.754 100.751 177.803 100.693C177.813 100.683 177.813 100.673 177.822 100.673C178.508 99.7233 179.046 99.596 179.399 99.5176L179.438 99.5078C179.487 99.4981 179.565 99.4883 179.653 99.4883C179.82 99.4883 180.388 99.5176 180.838 99.8701C181.24 100.183 181.435 100.683 181.435 101.358C181.435 102.494 180.887 102.935 180.427 103.101C180.251 103.17 180.065 103.199 179.869 103.199C179.399 103.199 179.027 103.013 179.027 103.003L178.997 102.984C178.606 102.807 178.009 102.455 177.45 101.329C176.305 99.0281 175.345 98.8127 174.709 98.6658L174.679 98.656C174.631 98.6462 174.493 98.6168 174.268 98.6168C173.896 98.6168 173.191 98.6854 172.584 99.1749C172.173 99.5078 171.674 100.154 171.674 101.329C171.674 102.054 171.82 102.524 172.202 103.023C172.271 103.121 172.937 103.973 174.209 103.973C174.396 103.973 174.591 103.953 174.787 103.914C175.022 103.865 175.375 103.757 175.776 103.464L176.109 103.767C176.148 103.796 176.207 103.796 176.246 103.757C176.266 103.738 176.275 103.718 176.266 103.699L176.52 102.103V102.083C176.52 102.054 176.51 102.034 176.491 102.014C176.471 101.995 176.452 101.985 176.422 101.985L174.866 102.416H174.836C174.817 102.416 174.797 102.426 174.787 102.445C174.768 102.465 174.758 102.494 174.758 102.514C174.758 102.543 174.768 102.563 174.787 102.582L175.11 102.876C174.944 102.984 174.768 103.052 174.611 103.082C174.474 103.111 174.337 103.121 174.2 103.121C173.318 103.121 172.888 102.543 172.868 102.514L172.858 102.504C172.594 102.151 172.496 101.848 172.496 101.319C172.496 100.644 172.692 100.134 173.083 99.8212C173.524 99.4687 174.082 99.4491 174.239 99.4491C174.327 99.4491 174.405 99.4589 174.454 99.4687L174.493 99.4785C175.003 99.596 175.698 99.7526 176.667 101.691C177.176 102.719 177.813 103.385 178.616 103.738C178.713 103.787 179.203 104.022 179.849 104.022C180.143 104.022 180.437 103.973 180.711 103.865C181.181 103.689 182.268 103.091 182.268 101.319C182.297 100.183 181.788 99.5372 181.367 99.2043Z" fill="white"/>
<path d="M174.346 92.7812V93.3686H174.131V92.086H174.444C174.66 92.086 174.738 92.1937 174.738 92.3699V92.5364C174.738 92.6735 174.689 92.7518 174.562 92.7812L174.767 93.3686H174.542L174.346 92.7812ZM174.346 92.2622V92.6637H174.415C174.493 92.6637 174.523 92.6245 174.523 92.556V92.3699C174.523 92.3014 174.493 92.2622 174.415 92.2622H174.346ZM174.885 92.086H175.404V92.2622H175.1V92.6343H175.316V92.8105H175.1V93.2022H175.404V93.3784H174.885V92.086ZM175.521 93.0945V92.9182H175.727V93.0945C175.727 93.163 175.756 93.212 175.835 93.212C175.903 93.212 175.932 93.163 175.932 93.0945V93.0455C175.932 92.9672 175.903 92.928 175.835 92.8595L175.707 92.7322C175.58 92.6147 175.531 92.5364 175.531 92.3895V92.3504C175.531 92.1937 175.629 92.0664 175.835 92.0664C176.05 92.0664 176.138 92.1741 176.138 92.3601V92.4678H175.942V92.3601C175.942 92.2818 175.913 92.2524 175.844 92.2524C175.786 92.2524 175.746 92.2818 175.746 92.3601V92.3895C175.746 92.4581 175.786 92.507 175.844 92.5658L175.981 92.7028C176.099 92.8203 176.158 92.8987 176.158 93.0357V93.0945C176.158 93.2707 176.06 93.398 175.844 93.398C175.609 93.3882 175.521 93.2609 175.521 93.0945ZM176.275 92.086H176.598C176.814 92.086 176.892 92.1937 176.892 92.3699V92.6441C176.892 92.8203 176.814 92.9378 176.598 92.9378H176.491V93.3784H176.275V92.086ZM176.491 92.2622V92.7714H176.569C176.647 92.7714 176.677 92.7322 176.677 92.6637V92.3699C176.677 92.3014 176.647 92.2622 176.569 92.2622H176.491ZM177.029 93.0357V92.4091C177.029 92.2035 177.127 92.0664 177.352 92.0664C177.577 92.0664 177.685 92.2133 177.685 92.4091V93.0357C177.685 93.2316 177.587 93.3784 177.352 93.3784C177.127 93.3882 177.029 93.2316 177.029 93.0357ZM177.47 93.0749V92.3797C177.47 92.3014 177.44 92.2426 177.362 92.2426C177.284 92.2426 177.254 92.3014 177.254 92.3797V93.0749C177.254 93.1532 177.284 93.212 177.362 93.212C177.431 93.2022 177.47 93.1532 177.47 93.0749ZM178.008 92.556V93.3686H177.822V92.086H178.038L178.273 92.8203V92.086H178.449V93.3686H178.263L178.008 92.556ZM178.596 93.0945V92.9182H178.801V93.0945C178.801 93.163 178.831 93.212 178.909 93.212C178.978 93.212 179.007 93.163 179.007 93.0945V93.0455C179.007 92.9672 178.978 92.928 178.909 92.8595L178.782 92.7322C178.654 92.6147 178.605 92.5364 178.605 92.3895V92.3504C178.605 92.1937 178.703 92.0664 178.909 92.0664C179.124 92.0664 179.213 92.1741 179.213 92.3601V92.4678H179.017V92.3601C179.017 92.2818 178.987 92.2524 178.919 92.2524C178.86 92.2524 178.821 92.2818 178.821 92.3601V92.3895C178.821 92.4581 178.86 92.507 178.919 92.5658L179.056 92.7028C179.173 92.8203 179.232 92.8987 179.232 93.0357V93.0945C179.232 93.2707 179.134 93.398 178.919 93.398C178.674 93.3882 178.596 93.2609 178.596 93.0945ZM179.34 92.086H179.555V93.3686H179.34V92.086ZM179.702 92.086H180.015C180.231 92.086 180.299 92.1839 180.299 92.3699V92.4972C180.299 92.6049 180.26 92.6735 180.172 92.7028C180.28 92.7322 180.329 92.8008 180.329 92.9182V93.0847C180.329 93.2707 180.25 93.3686 180.035 93.3686H179.702V92.086ZM179.927 92.6245H180.006C180.074 92.6245 180.104 92.5853 180.104 92.5168V92.3601C180.104 92.2916 180.074 92.2524 179.996 92.2524H179.917L179.927 92.6245ZM179.927 92.791V93.1924H180.025C180.094 93.1924 180.133 93.1532 180.133 93.0847V92.8889C180.133 92.8203 180.104 92.7812 180.025 92.7812H179.927V92.791ZM180.466 92.086H180.681V93.1924H180.936V93.3686H180.466V92.086ZM181.063 92.086H181.582V92.2622H181.278V92.6343H181.494V92.8105H181.278V93.2022H181.582V93.3784H181.063V92.086Z" fill="white"/>
<path d="M174.131 94.9259V94.2992C174.131 94.0936 174.229 93.9565 174.454 93.9565C174.689 93.9565 174.758 94.0936 174.758 94.2797V94.4363H174.562V94.2699C174.562 94.1915 174.532 94.1426 174.454 94.1426C174.376 94.1426 174.346 94.2013 174.346 94.2797V94.9748C174.346 95.0532 174.376 95.1119 174.454 95.1119C174.532 95.1119 174.562 95.063 174.562 94.9846V94.7496H174.758V94.9748C174.758 95.1609 174.679 95.298 174.454 95.298C174.229 95.2784 174.131 95.1315 174.131 94.9259ZM174.895 94.9259V94.2992C174.895 94.0936 174.992 93.9565 175.218 93.9565C175.443 93.9565 175.551 94.1034 175.551 94.2992V94.9259C175.551 95.1217 175.453 95.2686 175.218 95.2686C174.992 95.2784 174.895 95.1315 174.895 94.9259ZM175.335 94.965V94.2699C175.335 94.1915 175.306 94.1328 175.227 94.1328C175.149 94.1328 175.12 94.1915 175.12 94.2699V94.965C175.12 95.0434 175.149 95.1021 175.227 95.1021C175.306 95.0923 175.335 95.0434 175.335 94.965ZM175.874 94.4559V95.2686H175.688V93.9859H175.903L176.138 94.7203V93.9859H176.314V95.2686H176.128L175.874 94.4559ZM176.451 94.9846V94.8084H176.657V94.9846C176.657 95.0532 176.686 95.1021 176.765 95.1021C176.833 95.1021 176.863 95.0532 176.863 94.9846V94.9357C176.863 94.8573 176.833 94.8182 176.765 94.7496L176.637 94.6224C176.51 94.5049 176.461 94.4265 176.461 94.2797V94.2405C176.461 94.0838 176.559 93.9565 176.765 93.9565C176.98 93.9565 177.068 94.0642 177.068 94.2503V94.358H176.872V94.2503C176.872 94.172 176.843 94.1426 176.775 94.1426C176.716 94.1426 176.677 94.172 176.677 94.2503V94.2797C176.677 94.3482 176.716 94.3972 176.775 94.4559L176.912 94.593C177.029 94.7105 177.088 94.7888 177.088 94.9259V94.9846C177.088 95.1609 176.99 95.2882 176.775 95.2882C176.54 95.2784 176.451 95.1511 176.451 94.9846ZM177.832 93.9761V94.9455C177.832 95.1413 177.744 95.2784 177.528 95.2784C177.303 95.2784 177.205 95.1511 177.205 94.9455V93.9761H177.421V94.9748C177.421 95.0532 177.45 95.1021 177.528 95.1021C177.607 95.1021 177.636 95.0532 177.636 94.9748V93.9761H177.832ZM178.576 94.4265L178.419 95.2588H178.322L178.165 94.4265V95.2588H177.989V93.9761H178.243L178.38 94.7007L178.508 93.9761H178.782V95.2588H178.586V94.4265H178.576ZM178.919 93.9761H179.242C179.457 93.9761 179.536 94.0838 179.536 94.2601V94.5342C179.536 94.7105 179.457 94.828 179.242 94.828H179.134V95.2686H178.919V93.9761ZM179.134 94.1524V94.6615H179.213C179.291 94.6615 179.32 94.6224 179.32 94.5538V94.2601C179.32 94.1915 179.291 94.1524 179.213 94.1524H179.134ZM179.604 93.9761H180.182V94.1524H180.006V95.2588H179.79V94.1524H179.614L179.604 93.9761ZM180.28 93.9761H180.495V95.2588H180.28V93.9761ZM180.622 94.9259V94.2992C180.622 94.0936 180.72 93.9565 180.946 93.9565C181.171 93.9565 181.278 94.1034 181.278 94.2992V94.9259C181.278 95.1217 181.181 95.2686 180.946 95.2686C180.72 95.2784 180.622 95.1315 180.622 94.9259ZM181.063 94.965V94.2699C181.063 94.1915 181.034 94.1328 180.955 94.1328C180.877 94.1328 180.848 94.1915 180.848 94.2699V94.965C180.848 95.0434 180.877 95.1021 180.955 95.1021C181.024 95.0923 181.063 95.0434 181.063 94.965ZM181.592 94.4559V95.2686H181.406V93.9859H181.621L181.856 94.7203V93.9859H182.032V95.2686H181.846L181.592 94.4559Z" fill="white"/>
<path d="M174.103 97.1484L174.347 95.8658H174.592L174.837 97.1484H174.612L174.573 96.9134H174.347L174.308 97.1484H174.103ZM174.367 96.747H174.543L174.455 96.2281L174.367 96.747ZM175.111 96.3455V97.1582H174.925V95.8756H175.14L175.375 96.6099V95.8756H175.552V97.1582H175.366L175.111 96.3455ZM176.335 96.2085V96.8057C176.335 97.0016 176.257 97.1484 176.022 97.1484H175.689V95.8658H176.022C176.247 95.8658 176.335 96.0126 176.335 96.2085ZM175.992 96.9722C176.08 96.9722 176.12 96.9232 176.12 96.8449V96.1693C176.12 96.091 176.09 96.042 175.992 96.042H175.904V96.9722H175.992ZM176.668 95.8658H176.991C177.206 95.8658 177.285 95.9735 177.285 96.1497V96.4239C177.285 96.6001 177.206 96.7176 176.991 96.7176H176.883V97.1582H176.668V95.8658ZM176.883 96.042V96.5512H176.962C177.04 96.5512 177.069 96.512 177.069 96.4435V96.1497C177.069 96.0812 177.04 96.042 176.962 96.042H176.883ZM177.618 96.561V97.1484H177.402V95.8658H177.716C177.931 95.8658 178.009 95.9735 178.009 96.1497V96.3162C178.009 96.4533 177.96 96.5316 177.833 96.561L178.039 97.1484H177.813L177.618 96.561ZM177.618 96.042V96.4435H177.686C177.764 96.4435 177.794 96.4043 177.794 96.3358V96.1497C177.794 96.0812 177.764 96.042 177.686 96.042H177.618ZM178.137 96.8155V96.1889C178.137 95.9833 178.234 95.8462 178.46 95.8462C178.685 95.8462 178.793 95.9931 178.793 96.1889V96.8155C178.793 97.0114 178.695 97.1582 178.46 97.1582C178.234 97.168 178.137 97.0211 178.137 96.8155ZM178.577 96.8547V96.1595C178.577 96.0812 178.548 96.0224 178.469 96.0224C178.391 96.0224 178.362 96.0812 178.362 96.1595V96.8547C178.362 96.933 178.391 96.9918 178.469 96.9918C178.548 96.982 178.577 96.933 178.577 96.8547ZM179.576 96.2085V96.8057C179.576 97.0016 179.498 97.1484 179.263 97.1484H178.93V95.8658H179.263C179.488 95.8658 179.576 96.0126 179.576 96.2085ZM179.233 96.9722C179.321 96.9722 179.361 96.9232 179.361 96.8449V96.1693C179.361 96.091 179.331 96.042 179.233 96.042H179.145V96.9722H179.233ZM180.33 95.8658V96.8351C180.33 97.0309 180.242 97.168 180.026 97.168C179.801 97.168 179.703 97.0407 179.703 96.8351V95.8658H179.919V96.8645C179.919 96.9428 179.948 96.9918 180.026 96.9918C180.105 96.9918 180.134 96.9428 180.134 96.8645V95.8658H180.33ZM180.457 96.8155V96.1889C180.457 95.9833 180.555 95.8462 180.78 95.8462C181.015 95.8462 181.084 95.9833 181.084 96.1693V96.326H180.888V96.1595C180.888 96.0812 180.859 96.0322 180.78 96.0322C180.702 96.0322 180.673 96.091 180.673 96.1693V96.8645C180.673 96.9428 180.702 97.0016 180.78 97.0016C180.859 97.0016 180.888 96.9526 180.888 96.8743V96.6393H181.084V96.8645C181.084 97.0505 181.005 97.1876 180.78 97.1876C180.555 97.168 180.457 97.0211 180.457 96.8155ZM181.191 95.8658H181.769V96.042H181.593V97.1484H181.378V96.042H181.201L181.191 95.8658ZM181.867 95.8658H182.082V97.1484H181.867V95.8658ZM182.21 96.8155V96.1889C182.21 95.9833 182.308 95.8462 182.533 95.8462C182.758 95.8462 182.866 95.9931 182.866 96.1889V96.8155C182.866 97.0114 182.768 97.1582 182.533 97.1582C182.308 97.168 182.21 97.0211 182.21 96.8155ZM182.65 96.8547V96.1595C182.65 96.0812 182.621 96.0224 182.543 96.0224C182.464 96.0224 182.435 96.0812 182.435 96.1595V96.8547C182.435 96.933 182.464 96.9918 182.543 96.9918C182.611 96.982 182.65 96.933 182.65 96.8547ZM183.169 96.3455V97.1582H182.983V95.8756H183.199L183.434 96.6099V95.8756H183.61V97.1582H183.424L183.169 96.3455Z" fill="white"/>
<path d="M220.288 76.2324C222.444 76.2324 224.193 74.484 224.193 72.3274C224.193 70.1707 222.444 68.4224 220.288 68.4224C218.131 68.4224 216.383 70.1707 216.383 72.3274C216.383 74.484 218.131 76.2324 220.288 76.2324Z" fill="#0A97D9"/>
<path d="M246.595 72.9348C258.748 72.9348 268.6 63.0828 268.6 50.9298C268.6 38.7768 258.748 28.9248 246.595 28.9248C234.442 28.9248 224.59 38.7768 224.59 50.9298C224.59 63.0828 234.442 72.9348 246.595 72.9348Z" fill="#56C02B"/>
<path d="M233.545 39.4107V40.5014L234.272 39.736H234.291V44.5005H235.324V38.2817H234.502L233.545 39.4107ZM237.812 40.2526C237.391 40.2526 237.104 40.4057 236.932 40.6736V39.1237H238.73V38.2817H235.975V41.7834H236.932V41.6495C236.932 41.2859 237.104 41.0754 237.391 41.0754C237.716 41.0754 237.831 41.2859 237.831 41.6303V43.1228C237.831 43.4481 237.716 43.6777 237.391 43.6777C237.027 43.6777 236.913 43.4481 236.913 43.0654V42.2809H235.956V42.9889C235.956 43.9265 236.339 44.5388 237.391 44.5388C238.443 44.5388 238.884 43.9839 238.884 43.1228V41.6112C238.884 40.6545 238.367 40.2526 237.812 40.2526Z" fill="white"/>
<path d="M244.184 56.5174C244.223 56.5174 244.261 56.5556 244.261 56.5939V58.8327C244.261 58.8709 244.223 58.9092 244.184 58.9092H243.285C243.247 58.9092 243.209 58.8709 243.209 58.8327V56.5939C243.209 56.5556 243.247 56.5174 243.285 56.5174H244.184ZM254.154 59.8659H239.209C239.171 59.8659 239.133 59.9042 239.133 59.9425V60.8609C239.133 60.8992 239.171 60.9375 239.209 60.9375H254.154C254.192 60.9375 254.23 60.8992 254.23 60.8609V59.9425C254.23 59.9042 254.192 59.8659 254.154 59.8659ZM254.154 61.6837H239.209C239.171 61.6837 239.133 61.722 239.133 61.7603V62.6788C239.133 62.717 239.171 62.7553 239.209 62.7553H254.154C254.192 62.7553 254.23 62.717 254.23 62.6788V61.7603C254.23 61.722 254.192 61.6837 254.154 61.6837ZM251.303 54.049C251.111 53.8959 250.614 53.5706 250.001 53.5706C249.561 53.5706 249.159 53.7428 248.796 54.0873C248.777 54.1064 248.758 54.1447 248.758 54.1829V54.2595C248.758 54.2978 248.777 54.336 248.796 54.3552C248.834 54.3743 248.853 54.3934 248.911 54.3743H248.93C248.949 54.3552 248.987 54.3552 249.006 54.336C249.083 54.2786 249.293 54.2021 249.6 54.2021C249.925 54.2021 250.537 54.2786 251.149 54.8526L251.169 54.8718C251.207 54.91 251.245 54.9292 251.303 54.9292C251.341 54.9292 251.398 54.91 251.436 54.8718L251.456 54.8526C252.068 54.2978 252.68 54.2021 253.006 54.2021C253.312 54.2021 253.522 54.2786 253.599 54.336C253.618 54.3552 253.637 54.3743 253.675 54.3934C253.694 54.3934 253.733 54.4126 253.771 54.3934C253.828 54.3743 253.867 54.336 253.867 54.2786V54.2021C253.867 54.1638 253.847 54.1255 253.828 54.1064C253.465 53.762 253.063 53.5898 252.604 53.5898C251.991 53.5515 251.494 53.8959 251.303 54.049ZM250.384 48.079C250.346 48.0981 250.327 48.1172 250.327 48.1555L250.308 48.2129C250.288 48.2512 250.308 48.2894 250.327 48.3277C250.346 48.366 250.384 48.3851 250.422 48.3851H250.441C250.461 48.3851 250.499 48.3851 250.518 48.366C250.537 48.366 250.556 48.3468 250.614 48.3468C250.671 48.3468 251.283 48.366 251.685 49.0357V49.0548C251.704 49.0931 251.743 49.1122 251.781 49.1314H251.819C251.838 49.1314 251.877 49.1314 251.896 49.1122H251.915C252.125 48.9974 252.355 48.94 252.585 48.94C252.967 48.94 253.216 49.0931 253.273 49.1505L253.331 49.2079C253.35 49.2079 253.369 49.227 253.388 49.227H253.426C253.446 49.227 253.465 49.227 253.484 49.2079C253.522 49.1888 253.541 49.1696 253.541 49.1314L253.56 49.0931V49.0548C253.56 49.0357 253.56 49.0166 253.541 48.9974C253.254 48.4999 252.833 48.3851 252.527 48.3851C252.298 48.3851 252.106 48.4425 251.991 48.4808C251.857 48.2894 251.513 47.9067 250.977 47.9067C250.767 47.945 250.575 47.9833 250.384 48.079ZM247.227 50.3943V50.4708C247.227 50.5091 247.246 50.5473 247.284 50.5665C247.322 50.5856 247.361 50.5856 247.38 50.5856H247.399C247.418 50.5665 247.437 50.5665 247.456 50.5473C247.514 50.5091 247.724 50.4134 248.03 50.4134C248.318 50.4134 248.758 50.4899 249.217 50.8535L249.236 50.8726C249.274 50.8918 249.313 50.9109 249.351 50.9109H249.37C249.408 50.9109 249.466 50.8918 249.485 50.8535L249.504 50.8344C250.001 50.2986 250.537 50.222 250.824 50.222C251.016 50.222 251.169 50.2603 251.207 50.2986C251.226 50.3177 251.245 50.3369 251.283 50.3369H251.379C251.436 50.3177 251.475 50.2603 251.456 50.2029V50.1455C251.456 50.1072 251.436 50.0881 251.417 50.0498C251.111 49.8011 250.805 49.6671 250.461 49.6671C249.944 49.6671 249.523 49.9733 249.351 50.1264C249.198 50.0116 248.815 49.8011 248.356 49.8011C247.954 49.8011 247.61 49.9733 247.303 50.2986C247.227 50.3177 247.227 50.356 247.227 50.3943ZM239.649 51.5806C239.649 50.6813 240.377 49.9542 241.276 49.9542H241.372C241.448 48.8252 242.405 47.9259 243.553 47.9259C244.758 47.9259 245.753 48.9017 245.753 50.1264C245.753 50.4708 245.677 50.7961 245.524 51.0831C246.615 51.3319 247.437 52.3077 247.437 53.475C247.437 54.8335 246.347 55.9242 244.988 55.9242C244.892 55.9242 241.716 55.905 241.716 55.905C240.759 55.905 239.975 55.1205 239.975 54.1638C239.975 53.7046 240.147 53.2836 240.453 52.9775C239.994 52.7096 239.649 52.1929 239.649 51.5806Z" fill="white"/>
<path d="M241.122 38.2817H241.543V40.444H242.041V40.7884H241.122V38.2817ZM242.289 38.2817H242.71V40.7884H242.289V38.2817ZM243.016 38.2817H244.011V38.6262H243.437V39.3533H243.858V39.6977H243.437V40.8075H243.016V38.2817ZM244.241 38.2817H245.255V38.6262H244.662V39.3533H245.083V39.6977H244.662V40.4631H245.255V40.8075H244.241V38.2817Z" fill="white"/>
<path d="M241.122 43.8499V42.6253C241.122 42.2235 241.313 41.9556 241.754 41.9556C242.194 41.9556 242.404 42.2426 242.404 42.6253V43.8499C242.404 44.2326 242.213 44.5196 241.754 44.5196C241.313 44.5196 241.122 44.2326 241.122 43.8499ZM241.983 43.9073V42.5487C241.983 42.3957 241.926 42.2809 241.773 42.2809C241.62 42.2809 241.562 42.3957 241.562 42.5487V43.9073C241.562 44.0604 241.62 44.1752 241.773 44.1752C241.907 44.1752 241.983 44.0604 241.983 43.9073ZM242.997 42.9123V44.5005H242.634V41.9938H243.055L243.514 43.4289V41.9938H243.858V44.5005H243.495L242.997 42.9123ZM244.777 41.9747H245.198V44.1369H245.695V44.4814H244.777V41.9747ZM245.81 44.5005L246.288 41.9938H246.767L247.245 44.5005H246.805L246.729 44.0413H246.288L246.212 44.5005H245.81ZM246.346 43.6968H246.69L246.518 42.6827L246.346 43.6968ZM247.781 42.9123V44.5005H247.417V41.9938H247.838L248.298 43.4289V41.9938H248.642V44.5005H248.278L247.781 42.9123ZM250.192 42.6636V43.8308C250.192 44.2135 250.039 44.5005 249.58 44.5005H248.929V41.9938H249.58C250.02 41.9747 250.192 42.2617 250.192 42.6636ZM249.522 44.1561C249.694 44.1561 249.771 44.0604 249.771 43.9073V42.587C249.771 42.4339 249.714 42.3383 249.522 42.3383H249.35V44.1561H249.522Z" fill="white"/>
<path d="M234.577 100.326C240.434 100.326 245.182 95.5777 245.182 89.7207C245.182 83.8637 240.434 79.1157 234.577 79.1157C228.72 79.1157 223.972 83.8637 223.972 89.7207C223.972 95.5777 228.72 100.326 234.577 100.326Z" fill="#00689D"/>
<path d="M228.37 84.1694V84.695H228.379L228.73 84.3262V86.6224H229.237V83.6253H228.831L228.37 84.1694ZM230.998 85.9031V85.4604C230.998 84.9717 230.805 84.7227 230.445 84.7227C230.233 84.7227 230.104 84.8241 230.03 84.9625V84.317C230.03 84.1325 230.085 84.0034 230.27 84.0034C230.454 84.0034 230.5 84.1049 230.5 84.2985V84.5014H230.961V84.3446C230.961 83.902 230.814 83.5977 230.261 83.5977C229.735 83.5977 229.532 83.9389 229.532 84.4092V85.8662C229.532 86.3273 229.735 86.6685 230.261 86.6685C230.786 86.6593 230.998 86.3642 230.998 85.9031ZM230.5 85.9492C230.5 86.1429 230.427 86.2535 230.261 86.2535C230.095 86.2535 230.03 86.1429 230.03 85.9492V85.4051C230.039 85.2391 230.113 85.1285 230.27 85.1285C230.445 85.1285 230.51 85.2299 230.51 85.4328L230.5 85.9492Z" fill="white"/>
<path d="M231.967 83.6254H232.271C232.474 83.6254 232.548 83.7269 232.548 83.8929V84.1511C232.548 84.3171 232.474 84.4277 232.271 84.4277H232.17V84.8427H231.967V83.6254ZM232.17 83.7914V84.271H232.243C232.317 84.271 232.345 84.2341 232.345 84.1695V83.8929C232.345 83.8283 232.317 83.7914 232.243 83.7914H232.17ZM232.649 83.6254H233.138V83.7914H232.852V84.1419H233.055V84.3078H232.852V84.6767H233.138V84.8427H232.649V83.6254ZM233.221 84.8427L233.451 83.6347H233.682L233.913 84.8427H233.7L233.664 84.6214H233.451L233.415 84.8427H233.221ZM233.479 84.4554H233.645L233.562 83.9666L233.479 84.4554ZM233.986 84.5292V83.939C233.986 83.7453 234.079 83.6162 234.291 83.6162C234.512 83.6162 234.577 83.7453 234.577 83.9205V84.0681H234.392V83.9113C234.392 83.8375 234.364 83.7914 234.291 83.7914C234.217 83.7914 234.189 83.8468 234.189 83.9205V84.5753C234.189 84.649 234.217 84.7044 234.291 84.7044C234.364 84.7044 234.392 84.6583 234.392 84.5845V84.3632H234.577V84.5753C234.577 84.7505 234.503 84.8796 234.291 84.8796C234.079 84.8519 233.986 84.7136 233.986 84.5292ZM234.706 83.6254H235.194V83.7914H234.909V84.1419H235.111V84.3078H234.909V84.6767H235.194V84.8427H234.706V83.6254ZM235.526 84.6583L235.425 84.9349H235.314L235.342 84.649L235.526 84.6583ZM236.412 83.6254V84.5661C236.412 84.7413 236.338 84.8519 236.135 84.8519C235.923 84.8519 235.868 84.732 235.868 84.5845V84.3447H236.061V84.5937C236.061 84.6583 236.08 84.6859 236.135 84.6859C236.19 84.6859 236.209 84.649 236.209 84.5845V83.6254H236.412ZM237.131 83.6254V84.5384C237.131 84.7228 237.048 84.8519 236.845 84.8519C236.633 84.8519 236.541 84.732 236.541 84.5384V83.6254H236.744V84.5661C236.744 84.6398 236.771 84.6859 236.845 84.6859C236.919 84.6859 236.947 84.6398 236.947 84.5661V83.6254H237.131ZM237.26 84.5753V84.4185H237.454V84.5845C237.454 84.649 237.481 84.6952 237.555 84.6952C237.62 84.6952 237.647 84.649 237.647 84.5845V84.5384C237.647 84.4646 237.62 84.4277 237.555 84.3632L237.435 84.2433C237.315 84.1326 237.269 84.0589 237.269 83.9205V83.8836C237.269 83.7361 237.361 83.6162 237.555 83.6162C237.758 83.6162 237.841 83.7177 237.841 83.8929V83.9943H237.657V83.8929C237.657 83.8191 237.629 83.7914 237.564 83.7914C237.509 83.7914 237.472 83.8191 237.472 83.8929V83.9205C237.472 83.9851 237.509 84.0312 237.564 84.0865L237.693 84.2156C237.804 84.3263 237.859 84.4001 237.859 84.5292V84.5845C237.859 84.7505 237.767 84.8704 237.564 84.8704C237.334 84.8519 237.26 84.7413 237.26 84.5753ZM237.942 83.6254H238.487V83.7914H238.321V84.8335H238.118V83.7914H237.942V83.6254ZM238.597 83.6254H238.8V84.8335H238.597V83.6254ZM238.938 84.5292V83.939C238.938 83.7453 239.031 83.6162 239.243 83.6162C239.464 83.6162 239.529 83.7453 239.529 83.9205V84.0681H239.344V83.9113C239.344 83.8375 239.317 83.7914 239.243 83.7914C239.169 83.7914 239.141 83.8468 239.141 83.9205V84.5753C239.141 84.649 239.169 84.7044 239.243 84.7044C239.317 84.7044 239.344 84.6583 239.344 84.5845V84.3632H239.529V84.5753C239.529 84.7505 239.455 84.8796 239.243 84.8796C239.031 84.8519 238.938 84.7136 238.938 84.5292ZM239.658 83.6254H240.146V83.7914H239.861V84.1419H240.063V84.3078H239.861V84.6767H240.146V84.8427H239.658V83.6254Z" fill="white"/>
<path d="M231.931 86.6591L232.161 85.4511H232.392L232.622 86.6591H232.41L232.373 86.4378H232.161L232.124 86.6591H231.931ZM232.189 86.2718H232.355L232.272 85.783L232.189 86.2718ZM232.899 85.8937V86.6591H232.724V85.4511H232.927L233.148 86.1427V85.4511H233.314V86.6591H233.139L232.899 85.8937ZM234.061 85.7738V86.3363C234.061 86.5208 233.987 86.6591 233.766 86.6591H233.452V85.4511H233.766C233.987 85.4418 234.061 85.5802 234.061 85.7738ZM233.747 86.4931C233.83 86.4931 233.867 86.447 233.867 86.3732V85.7369C233.867 85.6632 233.84 85.6171 233.747 85.6171H233.664V86.4931H233.747ZM234.393 86.4009V86.2349H234.587V86.4009C234.587 86.4655 234.614 86.5116 234.688 86.5116C234.753 86.5116 234.78 86.4655 234.78 86.4009V86.3548C234.78 86.281 234.753 86.2441 234.688 86.1796L234.568 86.0597C234.448 85.949 234.402 85.8753 234.402 85.7369V85.7C234.402 85.5525 234.494 85.4326 234.688 85.4326C234.891 85.4326 234.974 85.5341 234.974 85.7093V85.8107H234.789V85.7093C234.789 85.6355 234.762 85.6078 234.697 85.6078C234.642 85.6078 234.605 85.6355 234.605 85.7093V85.7369C234.605 85.8015 234.642 85.8476 234.697 85.9029L234.826 86.032C234.937 86.1427 234.992 86.2165 234.992 86.3456V86.4009C234.992 86.5669 234.9 86.6868 234.697 86.6868C234.476 86.6683 234.393 86.5577 234.393 86.4009ZM235.057 85.4418H235.601V85.6078H235.435V86.6499H235.232V85.6078H235.066V85.4418H235.057ZM235.914 86.1058V86.6591H235.712V85.4511H236.007C236.21 85.4511 236.283 85.5525 236.283 85.7185V85.8753C236.283 86.0044 236.237 86.0781 236.117 86.1058L236.311 86.6591H236.099L235.914 86.1058ZM235.914 85.6078V85.9859H235.979C236.053 85.9859 236.08 85.949 236.08 85.8845V85.7093C236.08 85.6447 236.053 85.6078 235.979 85.6078H235.914ZM236.412 86.3456V85.7554C236.412 85.5617 236.505 85.4326 236.717 85.4326C236.929 85.4326 237.03 85.5709 237.03 85.7554V86.3456C237.03 86.53 236.938 86.6683 236.717 86.6683C236.505 86.6683 236.412 86.53 236.412 86.3456ZM236.827 86.3732V85.7185C236.827 85.6447 236.8 85.5894 236.726 85.5894C236.652 85.5894 236.625 85.6447 236.625 85.7185V86.3732C236.625 86.447 236.652 86.5023 236.726 86.5023C236.791 86.5023 236.827 86.447 236.827 86.3732ZM237.335 85.8937V86.6591H237.159V85.4511H237.362L237.584 86.1427V85.4511H237.75V86.6591H237.574L237.335 85.8937ZM238.201 86.0136H238.487V86.6591H238.34V86.53C238.312 86.6222 238.257 86.6776 238.146 86.6776C237.971 86.6776 237.888 86.5392 237.888 86.3548V85.7646C237.888 85.5709 237.98 85.4418 238.192 85.4418C238.414 85.4418 238.487 85.5709 238.487 85.7462V85.8568H238.303V85.7369C238.303 85.6632 238.275 85.6171 238.201 85.6171C238.128 85.6171 238.1 85.6724 238.1 85.7462V86.4009C238.1 86.4747 238.128 86.53 238.201 86.53C238.266 86.53 238.303 86.4931 238.303 86.4101V86.1704H238.211V86.0136H238.201Z" fill="white"/>
<path d="M231.967 87.1849H232.17V88.393H231.967V87.1849ZM232.483 87.6368V88.4022H232.317V87.1849H232.52L232.741 87.8766V87.1849H232.907V88.393H232.732L232.483 87.6368ZM233.027 88.1348V87.9688H233.221V88.1348C233.221 88.1993 233.249 88.2454 233.322 88.2454C233.387 88.2454 233.415 88.1993 233.415 88.1348V88.0887C233.415 88.0149 233.387 87.978 233.322 87.9135L233.203 87.7936C233.083 87.6829 233.037 87.6091 233.037 87.4708V87.4339C233.037 87.2864 233.129 87.1665 233.322 87.1665C233.525 87.1665 233.608 87.2679 233.608 87.4432V87.5446H233.424V87.4432C233.424 87.3694 233.396 87.3417 233.332 87.3417C233.276 87.3417 233.239 87.3694 233.239 87.4432V87.4708C233.239 87.5354 233.276 87.5815 233.332 87.6368L233.461 87.7659C233.571 87.8766 233.627 87.9504 233.627 88.0795V88.1348C233.627 88.3008 233.534 88.4207 233.332 88.4207C233.11 88.4114 233.027 88.2916 233.027 88.1348ZM233.691 87.1849H234.235V87.3509H234.069V88.393H233.866V87.3509H233.7L233.691 87.1849ZM234.346 87.1849H234.549V88.393H234.346V87.1849ZM234.66 87.1849H235.204V87.3509H235.038V88.393H234.835V87.3509H234.669V87.1849H234.66ZM235.904 87.1849V88.0979C235.904 88.2823 235.821 88.4114 235.619 88.4114C235.407 88.4114 235.314 88.2916 235.314 88.0979V87.1849H235.517V88.1256C235.517 88.1993 235.545 88.2454 235.619 88.2454C235.692 88.2454 235.72 88.1993 235.72 88.1256V87.1849H235.904ZM236.015 87.1849H236.559V87.3509H236.393V88.393H236.19V87.3509H236.024V87.1849H236.015ZM236.67 87.1849H236.873V88.393H236.67V87.1849ZM237.011 88.0795V87.4893C237.011 87.2956 237.103 87.1665 237.315 87.1665C237.527 87.1665 237.629 87.3048 237.629 87.4893V88.0795C237.629 88.2639 237.537 88.4022 237.315 88.4022C237.103 88.4114 237.011 88.2731 237.011 88.0795ZM237.426 88.1163V87.4616C237.426 87.3878 237.398 87.3325 237.325 87.3325C237.251 87.3325 237.223 87.3878 237.223 87.4616V88.1163C237.223 88.1901 237.251 88.2454 237.325 88.2454C237.389 88.2362 237.426 88.1901 237.426 88.1163ZM237.933 87.6368V88.4022H237.758V87.1849H237.961L238.182 87.8766V87.1849H238.348V88.393H238.173L237.933 87.6368ZM238.477 88.1348V87.9688H238.671V88.1348C238.671 88.1993 238.699 88.2454 238.772 88.2454C238.837 88.2454 238.865 88.1993 238.865 88.1348V88.0887C238.865 88.0149 238.837 87.978 238.772 87.9135L238.653 87.7936C238.533 87.6829 238.487 87.6091 238.487 87.4708V87.4339C238.487 87.2864 238.579 87.1665 238.772 87.1665C238.975 87.1665 239.058 87.2679 239.058 87.4432V87.5446H238.874V87.4432C238.874 87.3694 238.846 87.3417 238.782 87.3417C238.726 87.3417 238.689 87.3694 238.689 87.4432V87.4708C238.689 87.5354 238.726 87.5815 238.782 87.6368L238.911 87.7659C239.021 87.8766 239.077 87.9504 239.077 88.0795V88.1348C239.077 88.3008 238.985 88.4207 238.782 88.4207C238.56 88.4114 238.477 88.2916 238.477 88.1348Z" fill="white"/>
<path d="M236.818 89.6838C236.818 89.6838 236.689 89.8498 236.726 90.0158C236.762 90.1818 236.947 90.274 236.947 90.274C236.947 90.274 237.076 90.1081 237.039 89.9421C237.002 89.7761 236.818 89.6838 236.818 89.6838ZM236.615 90.6245C236.615 90.6245 236.744 90.4585 236.707 90.2925C236.67 90.1265 236.486 90.0343 236.486 90.0343C236.486 90.0343 236.357 90.2003 236.394 90.357C236.43 90.5323 236.615 90.6245 236.615 90.6245ZM237.131 90.4493C237.131 90.4493 237.26 90.5784 237.417 90.5691C237.565 90.5599 237.675 90.4032 237.675 90.4032C237.675 90.4032 237.546 90.274 237.39 90.2833C237.242 90.2925 237.131 90.4493 237.131 90.4493ZM237.343 89.7392C237.224 89.8591 237.242 90.0804 237.242 90.0804C237.242 90.0804 237.454 90.0988 237.583 89.9789C237.703 89.8591 237.685 89.6377 237.685 89.6377C237.685 89.6377 237.463 89.6193 237.343 89.7392ZM237.076 90.9472C237.224 90.9657 237.362 90.8366 237.362 90.8366C237.362 90.8366 237.26 90.6798 237.113 90.6614C236.965 90.6429 236.827 90.772 236.827 90.772C236.827 90.772 236.928 90.9288 237.076 90.9472ZM237.205 93.5385H236.089C236.006 93.5385 235.932 93.6123 235.932 93.6953C235.932 93.7783 236.006 93.8521 236.089 93.8521H237.205C237.288 93.8521 237.362 93.7783 237.362 93.6953C237.371 93.6123 237.297 93.5385 237.205 93.5385ZM237.205 95.2907H236.089C236.006 95.2907 235.932 95.3644 235.932 95.4474C235.932 95.5304 236.006 95.6042 236.089 95.6042H237.205C237.288 95.6042 237.362 95.5304 237.362 95.4474C237.371 95.3552 237.297 95.2907 237.205 95.2907ZM232.179 93.1605C232.152 93.1512 232.124 93.142 232.105 93.142C232.105 93.142 232.133 93.1512 232.179 93.1605Z" fill="white"/>
<path d="M237.168 93.9719H236.135C236.089 93.9719 236.043 94.0088 236.043 94.0641V94.3776L235.369 94.4514L234.383 94.433V93.8243C234.512 93.8059 234.641 93.7782 234.779 93.7413C235.729 93.4739 235.941 92.6901 235.914 92.146C235.895 91.5927 236.07 91.3806 236.329 91.2791C236.402 91.2515 236.476 91.233 236.541 91.2238C236.541 91.3621 236.568 91.5189 236.633 91.7033C236.651 91.7033 236.679 91.7033 236.697 91.6941C236.633 91.5004 236.605 91.3437 236.605 91.2054C236.734 91.1869 236.826 91.1961 236.826 91.1961C236.826 91.1961 236.734 91.15 236.614 91.0394C236.66 90.7812 236.817 90.6152 236.974 90.4492C237.066 90.357 237.158 90.2647 237.223 90.1541L237.168 90.1172C237.103 90.2278 237.011 90.3108 236.928 90.4031C236.771 90.5598 236.614 90.7258 236.559 90.9933C236.504 90.9471 236.448 90.8918 236.393 90.8273C236.163 90.5598 235.858 90.7535 235.425 91.1592C234.991 91.5558 234.457 91.5742 233.922 91.0301C233.221 90.3108 232.612 90.3201 232.197 90.357C232.483 90.4768 232.584 90.7443 232.732 91.4267C232.88 92.1368 233.267 92.4595 233.793 92.5056C233.497 92.6071 233.488 92.7731 233.101 93.0405C232.797 93.2526 232.372 93.188 232.197 93.1419C232.52 93.2434 232.889 93.5754 233.23 93.6952C233.424 93.7598 233.636 93.8059 233.848 93.8243V94.4053L232.077 94.3684V94.7742L235.388 94.7004L236.061 94.7742V95.0877C236.061 95.1338 236.098 95.1799 236.153 95.1799H237.186C237.232 95.1799 237.278 95.1431 237.278 95.0877V94.0549C237.26 94.0088 237.214 93.9719 237.168 93.9719ZM233.995 93.8428C234.069 93.8428 234.143 93.8428 234.217 93.8336V94.4145L233.995 94.4053V93.8428ZM231.957 94.7096C231.957 94.7926 231.902 94.8664 231.828 94.8664H231.745C231.672 94.8664 231.616 94.8019 231.616 94.7096V94.433C231.616 94.35 231.672 94.2762 231.745 94.2762H231.828C231.902 94.2762 231.957 94.3408 231.957 94.433V94.7096Z" fill="white"/>
<path d="M269.608 74.793C270.627 74.793 271.453 73.967 271.453 72.948C271.453 71.9291 270.627 71.103 269.608 71.103C268.589 71.103 267.763 71.9291 267.763 72.948C267.763 73.967 268.589 74.793 269.608 74.793Z" fill="#19486A"/>
<defs>
<clipPath id="clip0_6428_4118">
<rect width="16.989" height="16.989" fill="white" transform="translate(132.587 3.64062)"/>
</clipPath>
</defs>
</svg>
