<svg width="272" height="123" viewBox="0 0 272 123" fill="none" xmlns="http://www.w3.org/2000/svg">
<path d="M5.975 69.6395C9.2749 69.6395 11.95 66.9644 11.95 63.6645C11.95 60.3646 9.2749 57.6895 5.975 57.6895C2.6751 57.6895 0 60.3646 0 63.6645C0 66.9644 2.6751 69.6395 5.975 69.6395Z" fill="#E5243B"/>
<path d="M22.0988 59.3627C24.4737 59.3627 26.3988 57.4375 26.3988 55.0627C26.3988 52.6879 24.4737 50.7627 22.0988 50.7627C19.724 50.7627 17.7988 52.6879 17.7988 55.0627C17.7988 57.4375 19.724 59.3627 22.0988 59.3627Z" fill="#DDA63A"/>
<path d="M35.0709 80.4548C36.3964 80.4548 37.4709 79.3803 37.4709 78.0548C37.4709 76.7293 36.3964 75.6548 35.0709 75.6548C33.7454 75.6548 32.6709 76.7293 32.6709 78.0548C32.6709 79.3803 33.7454 80.4548 35.0709 80.4548Z" fill="#4C9F38"/>
<path d="M35.397 54.7946C35.9852 54.7946 36.462 54.3177 36.462 53.7296C36.462 53.1414 35.9852 52.6646 35.397 52.6646C34.8088 52.6646 34.332 53.1414 34.332 53.7296C34.332 54.3177 34.8088 54.7946 35.397 54.7946Z" fill="#C5192D"/>
<path d="M36.4917 44.7134C38.2756 44.7134 39.7217 43.2673 39.7217 41.4834C39.7217 39.6995 38.2756 38.2534 36.4917 38.2534C34.7078 38.2534 33.2617 39.6995 33.2617 41.4834C33.2617 43.2673 34.7078 44.7134 36.4917 44.7134Z" fill="#FF3A21"/>
<path d="M33.0674 67.8101C34.5171 67.8101 35.6924 66.6348 35.6924 65.1851C35.6924 63.7353 34.5171 62.5601 33.0674 62.5601C31.6176 62.5601 30.4424 63.7353 30.4424 65.1851C30.4424 66.6348 31.6176 67.8101 33.0674 67.8101Z" fill="#26BDE2"/>
<path d="M93.666 113.398C121.28 113.398 143.666 91.0122 143.666 63.3979C143.666 35.7837 121.28 13.3979 93.666 13.3979C66.0518 13.3979 43.666 35.7837 43.666 63.3979C43.666 91.0122 66.0518 113.398 93.666 113.398Z" fill="#FCC30B"/>
<path d="M66.1885 36.4414H69.8407L66.6667 48.6153H69.0146L72.145 36.7022V34.5283H66.1885V36.4414Z" fill="white"/>
<path d="M78.8389 40.224L79.9258 34.5284H81.0128L82.0997 40.224H81.0997L80.9258 39.1805H79.9258L79.7519 40.224H78.8389ZM80.0563 38.3979H80.8389L80.4476 36.0936L80.0563 38.3979ZM82.4476 34.5284H84.7084V35.311H83.4041V36.9631H84.3606V37.7458H83.4041V40.2675H82.4476V34.5284ZM85.0997 34.5284H87.3606V35.311H86.0563V36.9631H87.0128V37.7458H86.0563V40.2675H85.0997V34.5284ZM87.6215 38.7458V35.9631C87.6215 35.0501 88.0563 34.4414 89.0563 34.4414C90.0563 34.4414 90.5345 35.0936 90.5345 35.9631V38.7458C90.5345 39.6153 90.0997 40.2675 89.0563 40.2675C88.0563 40.311 87.6215 39.6153 87.6215 38.7458ZM89.578 38.9197V35.8327C89.578 35.4849 89.4476 35.224 89.0997 35.224C88.7519 35.224 88.6215 35.4849 88.6215 35.8327V38.9197C88.6215 39.2675 88.7519 39.5284 89.0997 39.5284C89.4476 39.4849 89.578 39.2675 89.578 38.9197ZM92.0128 37.6153V40.224H91.0563V34.5284H92.4476C93.4041 34.5284 93.7519 35.0066 93.7519 35.7892V36.5284C93.7519 37.1371 93.5345 37.4849 92.9693 37.6153L93.8823 40.224H92.8823L92.0128 37.6153ZM92.0128 35.311V37.0936H92.3171C92.665 37.0936 92.7954 36.9197 92.7954 36.6153V35.7892C92.7954 35.4849 92.665 35.311 92.3171 35.311H92.0128ZM97.1432 36.0501V38.7023C97.1432 39.5718 96.7954 40.224 95.7519 40.224H94.2736V34.5284H95.7519C96.7519 34.5284 97.1432 35.1805 97.1432 36.0501ZM95.6215 39.4414C96.0128 39.4414 96.1867 39.224 96.1867 38.8762V35.8762C96.1867 35.5284 96.0563 35.311 95.6215 35.311H95.2302V39.4414H95.6215ZM97.3606 40.224L98.4476 34.5284H99.5345L100.621 40.224H99.6215L99.4476 39.1805H98.4476L98.2736 40.224H97.3606ZM98.578 38.3979H99.3606L98.9693 36.0936L98.578 38.3979ZM100.969 34.5284H102.36C103.317 34.5284 103.621 34.9631 103.621 35.7892V36.3544C103.621 36.8327 103.447 37.1371 103.056 37.2675C103.534 37.3979 103.752 37.7023 103.752 38.224V38.9631C103.752 39.7892 103.404 40.224 102.447 40.224H100.969V34.5284ZM101.926 36.9197H102.273C102.578 36.9197 102.708 36.7458 102.708 36.4414V35.7458C102.708 35.4414 102.578 35.2675 102.23 35.2675H101.882V36.9197H101.926ZM101.926 37.6588V39.4414H102.36C102.665 39.4414 102.839 39.2675 102.839 38.9631V38.0936C102.839 37.7892 102.708 37.6153 102.36 37.6153H101.926V37.6588ZM104.23 34.5284H105.187V39.4414H106.317V40.224H104.23V34.5284ZM106.752 34.5284H109.056V35.311H107.708V36.9631H108.665V37.7458H107.708V39.4849H109.056V40.2675H106.752V34.5284ZM110.187 40.224L111.273 34.5284H112.36L113.447 40.224H112.447L112.273 39.1805H111.273L111.1 40.224H110.187ZM111.404 38.3979H112.187L111.795 36.0936L111.404 38.3979ZM114.621 36.6153V40.224H113.795V34.5284H114.752L115.795 37.7892V34.5284H116.578V40.224H115.752L114.621 36.6153ZM119.969 36.0501V38.7023C119.969 39.5718 119.621 40.224 118.578 40.224H117.1V34.5284H118.578C119.621 34.5284 119.969 35.1805 119.969 36.0501ZM118.491 39.4414C118.882 39.4414 119.056 39.224 119.056 38.8762V35.8762C119.056 35.5284 118.926 35.311 118.491 35.311H118.1V39.4414H118.491Z" fill="white"/>
<path d="M78.9697 47.1368V44.3977C78.9697 43.5282 79.4045 42.876 80.4045 42.876C81.448 42.876 81.7523 43.4847 81.7523 44.3108V44.9629H80.8828V44.2238C80.8828 43.876 80.7523 43.6586 80.4045 43.6586C80.0567 43.6586 79.9262 43.9195 79.9262 44.2673V47.3108C79.9262 47.6586 80.0567 47.9195 80.4045 47.9195C80.7523 47.9195 80.8828 47.7021 80.8828 47.3542V46.3108H81.7523V47.3108C81.7523 48.1368 81.4045 48.7455 80.4045 48.7455C79.4045 48.7021 78.9697 48.0499 78.9697 47.1368ZM82.361 42.9195H83.3176V47.8325H84.448V48.6151H82.361V42.9195ZM84.9697 42.9195H87.2306V43.7021H85.9262V45.3108H86.8828V46.0934H85.9262V47.8325H87.2306V48.6151H84.9697V42.9195ZM87.7089 48.6151L88.7958 42.9195H89.8828L90.9697 48.6151H89.9697L89.7958 47.5716H88.7958L88.6219 48.6151H87.7089ZM88.9262 46.8325H89.7089L89.3176 44.5282L88.9262 46.8325ZM92.2306 45.0499V48.6151H91.4045V42.9195H92.361L93.4045 46.1803V42.9195H94.1871V48.6151H93.361L92.2306 45.0499ZM96.7523 42.9195H99.0132V43.7021H97.7089V45.3108H98.6654V46.0934H97.7089V47.8325H99.0132V48.6151H96.7523V42.9195ZM100.405 45.0499V48.6151H99.5784V42.9195H100.535L101.578 46.1803V42.9195H102.361V48.6151H101.535L100.405 45.0499ZM103.013 42.9195H105.274V43.7021H103.97V45.3108H104.926V46.0934H103.97V47.8325H105.274V48.6151H103.013V42.9195ZM106.839 46.0064V48.6151H105.883V42.9195H107.274C108.231 42.9195 108.578 43.3977 108.578 44.1803V44.9195C108.578 45.5282 108.361 45.876 107.796 46.0064L108.709 48.5716H107.709L106.839 46.0064ZM106.839 43.7021V45.4847H107.144C107.491 45.4847 107.622 45.3108 107.622 45.0064V44.1803C107.622 43.876 107.491 43.7021 107.144 43.7021H106.839ZM110.622 45.5716H111.97V48.6151H111.274V48.0064C111.144 48.4412 110.883 48.7021 110.361 48.7021C109.535 48.7021 109.144 48.0499 109.144 47.1803V44.4412C109.144 43.5716 109.578 42.9195 110.578 42.9195C111.622 42.9195 111.926 43.5281 111.926 44.3542V44.876H111.057V44.3108C111.057 43.9629 110.926 43.7455 110.578 43.7455C110.231 43.7455 110.1 44.0064 110.1 44.3542V47.3977C110.1 47.7455 110.231 48.0064 110.578 48.0064C110.883 48.0064 111.057 47.8325 111.057 47.4412V46.4412H110.622V45.5716ZM114.448 46.4412V48.6151H113.491V46.4412L112.404 42.9195H113.404L113.97 45.0934L114.535 42.9195H115.448L114.448 46.4412Z" fill="white"/>
<path d="M94.0566 90.5721C94.5349 90.5721 94.8827 90.1808 94.8827 89.7895V85.3112C94.8827 84.9199 94.4914 84.5286 94.0566 84.5286C93.5783 84.5286 93.2305 84.9634 93.2305 85.3112V89.7895C93.2305 90.1373 93.6218 90.5721 94.0566 90.5721ZM93.9696 62.5721C88.3175 62.5721 83.7088 67.1808 83.7088 72.833C83.7088 78.4851 88.3175 83.0938 93.9696 83.0938C99.6218 83.0938 104.23 78.4851 104.23 72.833C104.23 67.1373 99.6653 62.5721 93.9696 62.5721ZM93.2305 66.6156C93.2305 66.2677 93.5783 65.9199 94.0131 65.9199C94.4479 65.9199 94.7522 66.3112 94.7522 66.6156V70.1373C94.7522 70.4851 94.4044 70.833 94.0131 70.833C93.5783 70.833 93.2305 70.4417 93.2305 70.1373V66.6156ZM93.9696 78.0504C91.0131 78.0504 88.6218 75.6591 88.6218 72.7025C88.6218 70.3112 90.187 68.2677 92.3609 67.6156V69.6156C91.2305 70.1808 90.4479 71.3547 90.4479 72.7025C90.4479 74.6156 92.0131 76.1808 93.9262 76.1808C95.8392 76.1808 97.4044 74.6156 97.4044 72.7025C97.4044 71.3547 96.6218 70.1808 95.4914 69.5721V67.5721C97.6653 68.2243 99.2305 70.2677 99.2305 72.6591C99.3175 75.6591 96.9262 78.0504 93.9696 78.0504ZM82.2305 72.7025C82.2305 72.2243 81.8392 71.8764 81.4479 71.8764H76.9262C76.5349 71.8764 76.1436 72.2677 76.1436 72.7025C76.1436 73.1808 76.5783 73.5286 76.9262 73.5286H81.4044C81.7957 73.5721 82.2305 73.1808 82.2305 72.7025ZM111.839 72.7025C111.839 72.2243 111.448 71.8764 111.057 71.8764H106.578C106.187 71.8764 105.796 72.2677 105.796 72.7025C105.796 73.1808 106.23 73.5286 106.578 73.5286H111.057C111.404 73.5721 111.839 73.1808 111.839 72.7025ZM93.9696 60.9634C94.4479 60.9634 94.7957 60.5721 94.7957 60.1808V55.7025C94.7957 55.3112 94.4044 54.9199 93.9696 54.9199C93.4914 54.9199 93.1436 55.3547 93.1436 55.7025V60.1373C93.1436 60.5286 93.5349 60.9634 93.9696 60.9634ZM83.7523 66.8764C83.9696 66.4851 83.7957 65.9199 83.4914 65.746L79.5783 63.5286C79.2305 63.3547 78.7088 63.4417 78.4914 63.8764C78.274 64.2677 78.4479 64.833 78.7523 65.0069L82.6653 67.2243C82.9696 67.3982 83.5349 67.2677 83.7523 66.8764ZM109.491 81.5721C109.709 81.1808 109.535 80.6156 109.23 80.4417L105.317 78.2243C104.97 78.0504 104.448 78.1373 104.23 78.5721C104.013 78.9634 104.187 79.5286 104.491 79.7025L108.404 81.9199C108.709 82.0938 109.23 82.0069 109.491 81.5721ZM99.8392 62.4851C100.231 62.7025 100.752 62.5286 100.97 62.2243L103.187 58.3112C103.361 57.9634 103.274 57.4417 102.839 57.2243C102.448 57.0069 101.883 57.1808 101.709 57.4851L99.4914 61.3982C99.3175 61.746 99.4479 62.2677 99.8392 62.4851ZM85.1001 88.2243C85.4914 88.4417 86.0131 88.2677 86.2305 87.9634L88.4479 84.0504C88.6218 83.7025 88.5349 83.1808 88.1001 82.9634C87.7088 82.746 87.1436 82.9199 86.9696 83.2243L84.7522 87.1373C84.5783 87.4417 84.7088 87.9634 85.1001 88.2243ZM88.1001 62.5286C88.4914 62.3112 88.6218 61.746 88.4479 61.4417L86.2305 57.5286C86.0566 57.1808 85.4914 57.0069 85.1001 57.2677C84.7088 57.4851 84.5783 58.0504 84.7522 58.3982L86.9696 62.3112C87.187 62.5721 87.7088 62.746 88.1001 62.5286ZM102.883 88.1808C103.274 87.9634 103.404 87.3982 103.23 87.0938L101.013 83.1808C100.839 82.833 100.274 82.6591 99.8827 82.9199C99.4914 83.1373 99.3609 83.7025 99.5349 84.0504L101.752 87.9634C101.926 88.2677 102.491 88.4417 102.883 88.1808ZM104.187 66.833C104.404 67.2243 104.97 67.3547 105.274 67.1808L109.187 64.9634C109.535 64.7895 109.709 64.2243 109.448 63.833C109.23 63.4417 108.665 63.3112 108.317 63.4851L104.404 65.7025C104.143 65.9199 103.97 66.4417 104.187 66.833ZM78.5349 81.6156C78.7523 82.0069 79.3175 82.1373 79.6218 81.9634L83.5349 79.746C83.8827 79.5721 84.0566 79.0069 83.7957 78.6156C83.5783 78.2243 83.0131 78.0938 82.6653 78.2677L78.7523 80.4851C78.4479 80.6591 78.274 81.2243 78.5349 81.6156Z" fill="white"/>
<path d="M145.682 28.25C152.654 28.25 158.307 22.5976 158.307 15.625C158.307 8.65241 152.654 3 145.682 3C138.709 3 133.057 8.65241 133.057 15.625C133.057 22.5976 138.709 28.25 145.682 28.25Z" fill="#A21942"/>
<path d="M140.291 11.0253V10.6301C140.291 10.2898 140.17 10.0373 139.896 9.91654C140.137 9.79578 140.247 9.58719 140.247 9.30176V9.15904C140.247 8.59915 139.962 8.30273 139.402 8.30273C138.853 8.30273 138.568 8.59915 138.568 9.15904V9.30176C138.568 9.58719 138.677 9.80676 138.908 9.91654C138.633 10.0373 138.513 10.2898 138.513 10.6301V11.0144C138.513 11.5523 138.765 11.9365 139.402 11.9365C140.028 11.9475 140.291 11.5633 140.291 11.0253ZM139.127 9.11513C139.127 8.89556 139.204 8.7748 139.391 8.7748C139.589 8.7748 139.665 8.89556 139.665 9.11513V9.35665C139.665 9.57621 139.589 9.69697 139.391 9.69697C139.193 9.69697 139.127 9.56523 139.127 9.35665V9.11513ZM139.687 11.0912C139.687 11.3108 139.611 11.4645 139.391 11.4645C139.182 11.4645 139.106 11.3108 139.106 11.0912V10.5094C139.106 10.2898 139.182 10.1471 139.391 10.1471C139.611 10.1471 139.687 10.3008 139.687 10.5094V11.0912Z" fill="white"/>
<path d="M149.117 15.5482L147.316 17.2608C147.251 17.3266 147.218 17.3815 147.218 17.5133V22.2998C147.218 22.3547 147.262 22.3986 147.316 22.3986H149.172C149.227 22.3986 149.271 22.3547 149.271 22.2998V15.5921C149.282 15.5262 149.238 15.4274 149.117 15.5482ZM143.946 17.7658L142.146 19.4784C142.08 19.5442 142.047 19.5991 142.047 19.7309V22.2888C142.047 22.3437 142.091 22.3876 142.146 22.3876H144.001C144.056 22.3876 144.1 22.3437 144.1 22.2888V17.8097C144.111 17.7548 144.067 17.656 143.946 17.7658Z" fill="white"/>
<path d="M149.941 13.4733C149.941 13.4624 149.941 13.4404 149.93 13.4294C149.919 13.4185 149.908 13.4185 149.897 13.4185H149.875L148.503 13.7258H148.481C148.47 13.7258 148.459 13.7368 148.459 13.7368C148.437 13.7588 148.437 13.7917 148.459 13.8137L148.47 13.8247L148.789 14.143L145.671 17.2608L144.233 15.8227C144.222 15.8117 144.189 15.8117 144.178 15.8227L143.782 16.2179L141.477 18.5234C141.466 18.5343 141.466 18.5673 141.477 18.5783L141.872 18.9735C141.883 18.9844 141.916 18.9844 141.927 18.9735L144.211 16.701L145.254 17.7439L145.649 18.1391C145.66 18.1501 145.693 18.1501 145.704 18.1391L149.239 14.6041L149.568 14.9335C149.59 14.9554 149.623 14.9554 149.645 14.9335C149.656 14.9225 149.656 14.9115 149.656 14.9005L149.963 13.4953L149.941 13.4733Z" fill="white"/>
<path d="M146.548 18.0732L145.681 18.9515C145.659 18.9625 145.637 18.9625 145.626 18.9515L144.836 18.1501C144.693 18.0074 144.66 18.1281 144.66 18.183V22.3108C144.66 22.3657 144.704 22.4096 144.759 22.4096H146.614C146.669 22.4096 146.713 22.3657 146.713 22.3108V18.1171C146.713 18.0403 146.669 17.9415 146.548 18.0732Z" fill="white"/>
<path d="M142.333 8.71967V9.38935C142.333 9.60891 142.245 9.77359 141.982 9.77359H141.608V8.33543H141.982C142.245 8.33543 142.333 8.50011 142.333 8.71967ZM141.949 9.57598C142.048 9.57598 142.091 9.52109 142.091 9.43326V8.67576C142.091 8.58793 142.059 8.53304 141.949 8.53304H141.85V9.57598H141.949ZM142.487 8.33543H143.069V8.53304H142.728V8.95022H142.97V9.14782H142.728V9.58695H143.069V9.78456H142.487V8.33543ZM143.189 9.40032V8.69772C143.189 8.46717 143.299 8.31348 143.552 8.31348C143.815 8.31348 143.892 8.46717 143.892 8.67576V8.85141H143.672V8.6538C143.672 8.56598 143.639 8.51109 143.552 8.51109C143.464 8.51109 143.431 8.57695 143.431 8.66478V9.44424C143.431 9.53206 143.464 9.59793 143.552 9.59793C143.639 9.59793 143.672 9.54304 143.672 9.45522V9.19174H143.892V9.44424C143.892 9.65282 143.804 9.80652 143.552 9.80652C143.299 9.79554 143.189 9.61989 143.189 9.40032ZM144.046 8.33543H144.627V8.53304H144.287V8.95022H144.529V9.14782H144.287V9.58695H144.627V9.78456H144.046V8.33543ZM144.968 8.86239V9.77359H144.759V8.33543H145.001L145.264 9.1588V8.33543H145.462V9.77359H145.253L144.968 8.86239ZM145.594 8.33543H146.241V8.53304H146.044V9.77359H145.802V8.53304H145.604V8.33543H145.594ZM147.13 8.88435L146.999 9.77359H146.768L146.571 8.33543H146.801L146.911 9.24663L147.032 8.33543H147.229L147.361 9.24663L147.471 8.33543H147.679L147.493 9.77359H147.273L147.13 8.88435ZM147.778 9.40032V8.69772C147.778 8.46717 147.888 8.31348 148.14 8.31348C148.393 8.31348 148.514 8.47815 148.514 8.69772V9.40032C148.514 9.61989 148.404 9.78456 148.14 9.78456C147.888 9.79554 147.778 9.61989 147.778 9.40032ZM148.261 9.44424V8.66478C148.261 8.57695 148.228 8.51109 148.14 8.51109C148.053 8.51109 148.02 8.57695 148.02 8.66478V9.44424C148.02 9.53206 148.053 9.59793 148.14 9.59793C148.228 9.58695 148.261 9.53206 148.261 9.44424ZM148.909 9.11489V9.77359H148.667V8.33543H149.019C149.26 8.33543 149.348 8.45619 149.348 8.6538V8.84043C149.348 8.99413 149.293 9.08195 149.15 9.11489L149.381 9.77359H149.128L148.909 9.11489ZM148.909 8.53304V8.98315H148.986C149.074 8.98315 149.107 8.93924 149.107 8.86239V8.6538C149.107 8.57695 149.074 8.53304 148.986 8.53304H148.909ZM149.743 9.07098V9.77359H149.502V8.33543H149.743V8.97217L150.007 8.33543H150.248L149.963 8.98315L150.248 9.77359H149.996L149.743 9.07098ZM150.589 9.77359L150.863 8.33543H151.137L151.412 9.77359H151.159L151.116 9.51011H150.863L150.819 9.77359H150.589ZM150.896 9.3125H151.094L150.995 8.73065L150.896 9.3125ZM151.697 8.86239V9.77359H151.489V8.33543H151.73L151.994 9.1588V8.33543H152.191V9.77359H151.983L151.697 8.86239ZM153.081 8.71967V9.38935C153.081 9.60891 152.993 9.77359 152.729 9.77359H152.356V8.33543H152.729C152.993 8.33543 153.081 8.50011 153.081 8.71967ZM152.696 9.57598C152.795 9.57598 152.839 9.52109 152.839 9.43326V8.67576C152.839 8.58793 152.806 8.53304 152.696 8.53304H152.598V9.57598H152.696Z" fill="white"/>
<path d="M141.608 10.4546H142.19V10.6522H141.85V11.0694H142.091V11.267H141.85V11.7061H142.19V11.9037H141.608V10.4546ZM142.289 11.5195V10.8169C142.289 10.5863 142.399 10.4326 142.651 10.4326C142.915 10.4326 142.992 10.5863 142.992 10.7949V10.9706H142.772V10.7839C142.772 10.6961 142.739 10.6412 142.651 10.6412C142.564 10.6412 142.531 10.7071 142.531 10.7949V11.5744C142.531 11.6622 142.564 11.7281 142.651 11.7281C142.739 11.7281 142.772 11.6732 142.772 11.5853V11.3219H142.992V11.5744C142.992 11.7829 142.904 11.9366 142.651 11.9366C142.399 11.9147 142.289 11.75 142.289 11.5195ZM143.123 11.5195V10.8169C143.123 10.5863 143.233 10.4326 143.486 10.4326C143.738 10.4326 143.859 10.5973 143.859 10.8169V11.5195C143.859 11.739 143.749 11.9037 143.486 11.9037C143.244 11.9147 143.123 11.75 143.123 11.5195ZM143.617 11.5634V10.7839C143.617 10.6961 143.584 10.6302 143.497 10.6302C143.409 10.6302 143.376 10.6961 143.376 10.7839V11.5634C143.376 11.6512 143.409 11.7171 143.497 11.7171C143.584 11.7061 143.617 11.6512 143.617 11.5634ZM144.21 10.9925V11.9037H144.002V10.4656H144.243L144.507 11.2889V10.4656H144.704V11.9037H144.496L144.21 10.9925ZM144.847 11.5195V10.8169C144.847 10.5863 144.957 10.4326 145.209 10.4326C145.462 10.4326 145.583 10.5973 145.583 10.8169V11.5195C145.583 11.739 145.473 11.9037 145.209 11.9037C144.957 11.9147 144.847 11.75 144.847 11.5195ZM145.33 11.5634V10.7839C145.33 10.6961 145.297 10.6302 145.209 10.6302C145.121 10.6302 145.089 10.6961 145.089 10.7839V11.5634C145.089 11.6512 145.121 11.7171 145.209 11.7171C145.297 11.7061 145.33 11.6512 145.33 11.5634ZM146.384 10.9596L146.208 11.8927H146.099L145.923 10.9596V11.8927H145.725V10.4546H146.011L146.164 11.267L146.307 10.4546H146.614V11.8927H146.395L146.384 10.9596ZM146.746 10.4546H146.988V11.8927H146.746V10.4546ZM147.119 11.5195V10.8169C147.119 10.5863 147.229 10.4326 147.482 10.4326C147.745 10.4326 147.822 10.5863 147.822 10.7949V10.9706H147.603V10.7839C147.603 10.6961 147.57 10.6412 147.482 10.6412C147.394 10.6412 147.361 10.7071 147.361 10.7949V11.5744C147.361 11.6622 147.394 11.7281 147.482 11.7281C147.57 11.7281 147.603 11.6732 147.603 11.5853V11.3219H147.822V11.5744C147.822 11.7829 147.734 11.9366 147.482 11.9366C147.229 11.9147 147.119 11.75 147.119 11.5195ZM148.612 11.1242H148.953V11.8927H148.777V11.739C148.744 11.8488 148.678 11.9147 148.547 11.9147C148.338 11.9147 148.239 11.75 148.239 11.5304V10.8278C148.239 10.5973 148.349 10.4436 148.602 10.4436C148.865 10.4436 148.953 10.5973 148.953 10.8059V10.9376H148.733V10.7949C148.733 10.7071 148.7 10.6522 148.612 10.6522C148.525 10.6522 148.492 10.7181 148.492 10.8059V11.5853C148.492 11.6732 148.525 11.739 148.612 11.739C148.689 11.739 148.733 11.6951 148.733 11.5963V11.3438H148.623V11.1242H148.612ZM149.359 11.234V11.8927H149.117V10.4546H149.469C149.71 10.4546 149.798 10.5753 149.798 10.7729V10.9596C149.798 11.1133 149.743 11.2011 149.601 11.234L149.831 11.8927H149.579L149.359 11.234ZM149.359 10.6522V11.1023H149.436C149.524 11.1023 149.557 11.0584 149.557 10.9815V10.7729C149.557 10.6961 149.524 10.6522 149.436 10.6522H149.359ZM149.908 11.5195V10.8169C149.908 10.5863 150.018 10.4326 150.27 10.4326C150.523 10.4326 150.643 10.5973 150.643 10.8169V11.5195C150.643 11.739 150.534 11.9037 150.27 11.9037C150.018 11.9147 149.908 11.75 149.908 11.5195ZM150.402 11.5634V10.7839C150.402 10.6961 150.369 10.6302 150.281 10.6302C150.193 10.6302 150.16 10.6961 150.16 10.7839V11.5634C150.16 11.6512 150.193 11.7171 150.281 11.7171C150.369 11.7061 150.402 11.6512 150.402 11.5634ZM151.269 11.0035L151.137 11.8927H150.907L150.709 10.4546H150.94L151.05 11.3658L151.17 10.4546H151.368L151.5 11.3658L151.61 10.4546H151.818L151.632 11.8927H151.401L151.269 11.0035ZM151.906 10.4546H152.554V10.6522H152.356V11.8927H152.104V10.6522H151.906V10.4546ZM153.103 11.256H152.872V11.8927H152.631V10.4546H152.872V11.0694H153.103V10.4546H153.344V11.8927H153.103V11.256Z" fill="white"/>
<path d="M150.88 117.103C157.786 117.103 163.385 111.504 163.385 104.598C163.385 97.6915 157.786 92.0928 150.88 92.0928C143.974 92.0928 138.375 97.6915 138.375 104.598C138.375 111.504 143.974 117.103 150.88 117.103Z" fill="#FD6925"/>
<g clip-path="url(#clip0_6430_4293)">
<path d="M145.345 98.2146C145.345 97.6709 145.106 97.2686 144.486 97.2686C143.855 97.2686 143.616 97.6165 143.616 98.1602V98.6822C143.616 99.2585 143.845 99.5521 144.269 99.5521C144.519 99.5521 144.671 99.4325 144.758 99.2694V100.031C144.758 100.248 144.671 100.389 144.464 100.389C144.247 100.389 144.171 100.27 144.171 100.041V99.8022H143.627V99.987C143.627 100.509 143.812 100.868 144.475 100.868C145.095 100.868 145.345 100.465 145.345 99.9109V98.2146ZM144.758 98.7583C144.747 98.954 144.66 99.0845 144.475 99.0845C144.269 99.0845 144.193 98.9649 144.193 98.7257V98.1167C144.193 97.8884 144.28 97.7579 144.475 97.7579C144.671 97.7579 144.747 97.8884 144.747 98.1167V98.7583H144.758ZM155.262 107.37L153.185 106.174V103.771C153.185 103.717 153.163 103.673 153.109 103.652L150.956 102.412C150.913 102.39 150.858 102.39 150.815 102.412L148.662 103.652C148.618 103.673 148.586 103.728 148.586 103.771V106.174L146.509 107.37C146.465 107.392 146.433 107.447 146.433 107.49V109.969C146.433 110.024 146.454 110.067 146.509 110.089L148.662 111.329C148.683 111.339 148.705 111.35 148.738 111.35C148.76 111.35 148.792 111.339 148.814 111.329L150.891 110.132L152.968 111.329C152.99 111.339 153.011 111.35 153.044 111.35C153.076 111.35 153.098 111.339 153.12 111.329L155.273 110.089C155.317 110.067 155.349 110.013 155.349 109.969V107.49C155.327 107.436 155.306 107.392 155.262 107.37ZM150.739 109.73L149.01 108.73L150.739 107.729V109.73ZM152.75 106.25L151.021 107.251V105.261L152.75 106.25ZM150.739 107.24L149.01 106.24L150.739 105.239V107.24ZM151.174 107.49L153.044 106.414L154.914 107.49L153.044 108.567L151.174 107.49ZM152.892 106L151.163 105L152.892 104V106ZM150.597 105.011L148.868 106.011V104.021L150.597 105.011ZM148.596 110.97L146.726 109.893V107.74L148.596 108.817V110.97ZM148.879 110.97V108.98L150.608 109.98L148.879 110.97ZM155.045 109.893L153.174 110.97V108.817L155.045 107.74V109.893Z" fill="white"/>
<path d="M146.271 97.3556H146.499V98.6822H146.271V97.3556ZM146.814 97.8558V98.6931H146.629V97.3665H146.847L147.086 98.1276V97.3665H147.271V98.6931H147.075L146.814 97.8558ZM148.076 97.7144V98.3343C148.076 98.5409 147.989 98.6931 147.749 98.6931H147.401V97.3665H147.749C147.999 97.3556 148.076 97.5078 148.076 97.7144ZM147.728 98.5082C147.815 98.5082 147.858 98.4539 147.858 98.3777V97.6818C147.858 97.6057 147.825 97.5513 147.728 97.5513H147.63V98.5191L147.728 98.5082ZM148.869 97.3556V98.356C148.869 98.5626 148.782 98.6931 148.554 98.6931C148.315 98.6931 148.217 98.5626 148.217 98.356V97.3556H148.445V98.3777C148.445 98.4539 148.478 98.5082 148.554 98.5082C148.63 98.5082 148.663 98.4539 148.663 98.3777V97.3556H148.869ZM148.989 98.3995V98.2255H149.196V98.4104C149.196 98.4865 149.228 98.53 149.304 98.53C149.37 98.53 149.402 98.4865 149.402 98.4104V98.356C149.402 98.2799 149.37 98.2364 149.304 98.1711L149.174 98.0407C149.043 97.9102 148.989 97.8341 148.989 97.6818V97.6383C148.989 97.4752 149.087 97.3447 149.304 97.3447C149.533 97.3447 149.62 97.4535 149.62 97.6492V97.7579H149.413V97.6383C149.413 97.5622 149.38 97.5296 149.304 97.5296C149.239 97.5296 149.196 97.5622 149.196 97.6383V97.6709C149.196 97.7471 149.239 97.7906 149.304 97.8558L149.446 97.9972C149.565 98.1168 149.631 98.1929 149.631 98.3451V98.4104C149.631 98.5952 149.533 98.7257 149.304 98.7257C149.076 98.704 148.989 98.5735 148.989 98.3995ZM149.685 97.3556H150.283V97.5405H150.098V98.6822H149.87V97.5405H149.685V97.3556ZM150.609 98.0733V98.6822H150.392V97.3556H150.718C150.946 97.3556 151.022 97.4643 151.022 97.6492V97.8232C151.022 97.9645 150.968 98.0515 150.848 98.0842L151.066 98.6822H150.827L150.609 98.0733ZM150.609 97.5405V97.9537H150.685C150.761 97.9537 150.794 97.9102 150.794 97.8449V97.6492C150.794 97.5731 150.761 97.5405 150.685 97.5405H150.609ZM151.544 98.182V98.6822H151.316V98.182L151.066 97.3556H151.294L151.425 97.8558L151.555 97.3556H151.773L151.544 98.182ZM152.012 98.4865L151.903 98.791H151.773L151.805 98.4756H152.012V98.4865ZM152.371 97.3556H152.599V98.6822H152.371V97.3556ZM152.914 97.8558V98.6931H152.73V97.3665H152.947L153.186 98.1276V97.3665H153.371V98.6931H153.175L152.914 97.8558ZM153.697 97.8558V98.6931H153.513V97.3665H153.73L153.969 98.1276V97.3665H154.154V98.6931H153.958L153.697 97.8558ZM154.295 98.3451V97.7036C154.295 97.497 154.393 97.3447 154.633 97.3447C154.872 97.3447 154.97 97.497 154.97 97.7036V98.3451C154.97 98.5517 154.872 98.704 154.633 98.704C154.393 98.704 154.295 98.5517 154.295 98.3451ZM154.752 98.3777V97.6601C154.752 97.584 154.72 97.5187 154.633 97.5187C154.556 97.5187 154.524 97.5731 154.524 97.6601V98.3777C154.524 98.4539 154.556 98.5191 154.633 98.5191C154.709 98.5191 154.752 98.4647 154.752 98.3777ZM155.829 97.3556L155.579 98.6822H155.339L155.089 97.3556H155.318L155.47 98.2799L155.622 97.3556H155.829ZM155.796 98.6822L156.046 97.3556H156.296L156.546 98.6822H156.318L156.275 98.443H156.046L156.003 98.6822H155.796ZM156.068 98.269H156.242L156.155 97.7362L156.068 98.269ZM156.525 97.3556H157.123V97.5405H156.938V98.6822H156.71V97.5405H156.525V97.3556ZM157.231 97.3556H157.46V98.6822H157.231V97.3556ZM157.601 98.3451V97.7036C157.601 97.497 157.699 97.3447 157.938 97.3447C158.177 97.3447 158.275 97.497 158.275 97.7036V98.3451C158.275 98.5517 158.177 98.704 157.938 98.704C157.699 98.704 157.601 98.5517 157.601 98.3451ZM158.047 98.3777V97.6601C158.047 97.584 158.014 97.5187 157.927 97.5187C157.851 97.5187 157.819 97.5731 157.819 97.6601V98.3777C157.819 98.4539 157.851 98.5191 157.927 98.5191C158.014 98.5191 158.047 98.4647 158.047 98.3777ZM158.602 97.8558V98.6931H158.417V97.3665H158.634L158.873 98.1276V97.3665H159.058V98.6931H158.863L158.602 97.8558Z" fill="white"/>
<path d="M146.227 100.792L146.477 99.4651H146.727L146.977 100.792H146.749L146.705 100.552H146.477L146.433 100.792H146.227ZM146.509 100.368H146.683L146.596 99.8348L146.509 100.368ZM147.26 99.9544V100.792H147.075V99.4651H147.292L147.531 100.226V99.4651H147.716V100.792H147.521L147.26 99.9544ZM148.521 99.8131V100.433C148.521 100.639 148.434 100.792 148.195 100.792H147.847V99.4651H148.195C148.434 99.4651 148.521 99.6173 148.521 99.8131ZM148.173 100.607C148.26 100.607 148.303 100.552 148.303 100.476V99.7805C148.303 99.7043 148.271 99.65 148.173 99.65H148.075V100.618L148.173 100.607ZM148.869 99.4651H149.097V100.792H148.869V99.4651ZM149.423 99.9544V100.792H149.239V99.4651H149.456L149.695 100.226V99.4651H149.88V100.792H149.684L149.423 99.9544ZM150.022 99.4651H150.544V99.65H150.239V100.031H150.467V100.215H150.239V100.803H150.011L150.022 99.4651ZM150.87 100.183V100.792H150.641V99.4651H150.968C151.196 99.4651 151.272 99.5738 151.272 99.7587V99.9327C151.272 100.074 151.218 100.161 151.098 100.194L151.316 100.792H151.076L150.87 100.183ZM150.87 99.6391V100.052H150.946C151.022 100.052 151.055 100.009 151.055 99.9436V99.7478C151.055 99.6717 151.022 99.6391 150.946 99.6391H150.87ZM151.381 100.792L151.631 99.4651H151.881L152.131 100.792H151.903L151.859 100.552H151.62L151.577 100.792H151.381ZM151.653 100.368H151.827L151.74 99.8348L151.653 100.368ZM152.207 100.498V100.324H152.414V100.509C152.414 100.585 152.446 100.629 152.523 100.629C152.588 100.629 152.62 100.585 152.62 100.509V100.455C152.62 100.379 152.588 100.335 152.523 100.27L152.392 100.139C152.262 100.009 152.207 99.9327 152.207 99.7805V99.737C152.207 99.5738 152.305 99.4434 152.523 99.4434C152.751 99.4434 152.838 99.5521 152.838 99.7478V99.8566H152.631V99.737C152.631 99.6608 152.599 99.6282 152.523 99.6282C152.457 99.6282 152.414 99.6608 152.414 99.737V99.7696C152.414 99.8457 152.457 99.8892 152.523 99.9544L152.664 100.096C152.784 100.215 152.849 100.292 152.849 100.444V100.509C152.849 100.694 152.751 100.824 152.523 100.824C152.294 100.824 152.207 100.672 152.207 100.498ZM152.914 99.4651H153.512V99.65H153.327V100.792H153.099V99.65H152.914V99.4651ZM153.849 100.183V100.792H153.621V99.4651H153.947C154.175 99.4651 154.251 99.5738 154.251 99.7587V99.9327C154.251 100.074 154.197 100.161 154.078 100.194L154.295 100.792H154.056L153.849 100.183ZM153.849 99.6391V100.052H153.925C154.001 100.052 154.034 100.009 154.034 99.9436V99.7478C154.034 99.6717 154.001 99.6391 153.925 99.6391H153.849ZM155.034 99.4651V100.466C155.034 100.672 154.947 100.803 154.719 100.803C154.48 100.803 154.382 100.672 154.382 100.466V99.4651H154.61V100.487C154.61 100.563 154.643 100.618 154.719 100.618C154.795 100.618 154.828 100.563 154.828 100.487V99.4651H155.034ZM155.176 100.444V99.8022C155.176 99.5956 155.274 99.4434 155.513 99.4434C155.763 99.4434 155.828 99.5847 155.828 99.7805V99.9327H155.622V99.7587C155.622 99.6717 155.589 99.6282 155.513 99.6282C155.437 99.6282 155.404 99.6826 155.404 99.7696V100.487C155.404 100.563 155.437 100.629 155.513 100.629C155.589 100.629 155.622 100.574 155.622 100.498V100.248H155.828V100.476C155.828 100.661 155.752 100.803 155.513 100.803C155.274 100.803 155.176 100.65 155.176 100.444ZM155.872 99.4651H156.47V99.65H156.285V100.792H156.057V99.65H155.872V99.4651ZM157.231 99.4651V100.466C157.231 100.672 157.144 100.803 156.916 100.803C156.676 100.803 156.579 100.672 156.579 100.466V99.4651H156.807V100.487C156.807 100.563 156.839 100.618 156.916 100.618C156.992 100.618 157.024 100.563 157.024 100.487V99.4651H157.231ZM157.59 100.183V100.792H157.361V99.4651H157.688C157.916 99.4651 157.992 99.5738 157.992 99.7587V99.9327C157.992 100.074 157.938 100.161 157.818 100.194L158.036 100.792H157.796L157.59 100.183ZM157.59 99.6391V100.052H157.666C157.742 100.052 157.775 100.009 157.775 99.9436V99.7478C157.775 99.6717 157.742 99.6391 157.666 99.6391H157.59ZM158.133 99.4651H158.666V99.65H158.362V100.031H158.579V100.215H158.362V100.618H158.666V100.803H158.133V99.4651Z" fill="white"/>
</g>
<path d="M155.001 84.4239C157.936 84.4239 160.316 82.0443 160.316 79.1089C160.316 76.1736 157.936 73.7939 155.001 73.7939C152.065 73.7939 149.686 76.1736 149.686 79.1089C149.686 82.0443 152.065 84.4239 155.001 84.4239Z" fill="#DD1367"/>
<path d="M171.71 70.0761C183.543 70.0761 193.135 60.4838 193.135 48.6511C193.135 36.8184 183.543 27.2261 171.71 27.2261C159.877 27.2261 150.285 36.8184 150.285 48.6511C150.285 60.4838 159.877 70.0761 171.71 70.0761Z" fill="#FD9D24"/>
<path d="M159.005 37.38V38.4419L159.731 37.6967V42.317H160.756V36.2808H159.936L159.005 37.38ZM161.315 37.38V38.4419H161.334L162.042 37.6967V42.317H163.066V36.2808H162.247L161.315 37.38Z" fill="white"/>
<path d="M161.799 56.5876H166.308C166.364 56.5876 166.42 56.5318 166.42 56.4759C166.42 56.4386 166.401 56.42 166.383 56.4013L164.147 53.495L164.128 53.4764C164.11 53.4577 164.072 53.4391 164.054 53.4391C164.035 53.4391 163.998 53.4577 163.979 53.4764L163.961 53.495L163.942 53.5136L161.744 56.3827L161.706 56.42C161.688 56.4386 161.688 56.4572 161.688 56.4759C161.688 56.5318 161.744 56.5876 161.799 56.5876ZM166.289 56.9975H161.762C161.706 56.9975 161.65 57.0534 161.65 57.1093V60.6491C161.65 60.705 161.706 60.7609 161.762 60.7609H163.215V58.5438C163.215 58.4879 163.271 58.4321 163.327 58.4321H164.669C164.724 58.4321 164.78 58.4879 164.78 58.5438V60.7609H166.271C166.327 60.7609 166.383 60.705 166.383 60.6491V57.1093C166.401 57.0534 166.364 56.9975 166.289 56.9975ZM181.902 56.066H177.43C177.374 56.066 177.319 56.1219 177.319 56.1778V60.6863C177.319 60.7422 177.374 60.7981 177.43 60.7981H181.902C181.958 60.7981 182.013 60.7422 182.013 60.6863V56.1778C182.013 56.1219 181.976 56.066 181.902 56.066ZM179.461 59.0282C179.461 59.0841 179.405 59.14 179.349 59.14H178.008C177.952 59.14 177.896 59.0841 177.896 59.0282V58.2085C177.896 58.1526 177.952 58.0967 178.008 58.0967H179.349C179.405 58.0967 179.461 58.1526 179.461 58.2085V59.0282ZM179.461 57.5192C179.461 57.5751 179.405 57.6309 179.349 57.6309H178.008C177.952 57.6309 177.896 57.5751 177.896 57.5192V56.6994C177.896 56.6435 177.952 56.5876 178.008 56.5876H179.349C179.405 56.5876 179.461 56.6435 179.461 56.6994V57.5192ZM181.51 59.0282C181.51 59.0841 181.455 59.14 181.399 59.14H180.057C180.001 59.14 179.945 59.0841 179.945 59.0282V58.2085C179.945 58.1526 180.001 58.0967 180.057 58.0967H181.399C181.455 58.0967 181.51 58.1526 181.51 58.2085V59.0282ZM181.51 57.5192C181.51 57.5751 181.455 57.6309 181.399 57.6309H180.057C180.001 57.6309 179.945 57.5751 179.945 57.5192V56.6994C179.945 56.6435 180.001 56.5876 180.057 56.5876H181.399C181.455 56.5876 181.51 56.6435 181.51 56.6994V57.5192ZM171.506 45.5957H167.146C167.09 45.5957 167.035 45.6516 167.035 45.7075V60.6677C167.035 60.7236 167.09 60.7795 167.146 60.7795H171.525C171.58 60.7795 171.636 60.7236 171.636 60.6677V45.7075C171.618 45.633 171.58 45.5957 171.506 45.5957ZM168.916 59.0655C168.916 59.1027 168.898 59.1214 168.86 59.1214H167.854C167.817 59.1214 167.798 59.1027 167.798 59.0655V57.9477C167.798 57.9104 167.817 57.8918 167.854 57.8918H168.86C168.898 57.8918 168.916 57.9104 168.916 57.9477V59.0655ZM168.916 56.4945C168.916 56.5317 168.898 56.5504 168.86 56.5504H167.854C167.817 56.5504 167.798 56.5317 167.798 56.4945V55.3767C167.798 55.3394 167.817 55.3208 167.854 55.3208H168.86C168.898 55.3208 168.916 55.3394 168.916 55.3767V56.4945ZM168.916 53.9235C168.916 53.9608 168.898 53.9794 168.86 53.9794H167.854C167.817 53.9794 167.798 53.9608 167.798 53.9235V52.8057C167.798 52.7684 167.817 52.7498 167.854 52.7498H168.86C168.898 52.7498 168.916 52.7684 168.916 52.8057V53.9235ZM168.916 51.3711C168.916 51.4084 168.898 51.427 168.86 51.427H167.854C167.817 51.427 167.798 51.4084 167.798 51.3711V50.2533C167.798 50.2161 167.817 50.1974 167.854 50.1974H168.86C168.898 50.1974 168.916 50.2161 168.916 50.2533V51.3711ZM168.916 48.8001C168.916 48.8374 168.898 48.856 168.86 48.856H167.854C167.817 48.856 167.798 48.8374 167.798 48.8001V47.6823C167.798 47.6451 167.817 47.6264 167.854 47.6264H168.86C168.898 47.6264 168.916 47.6451 168.916 47.6823V48.8001ZM170.872 59.0655C170.872 59.1027 170.854 59.1214 170.817 59.1214H169.811C169.773 59.1214 169.755 59.1027 169.755 59.0655V57.9477C169.755 57.9104 169.773 57.8918 169.811 57.8918H170.817C170.854 57.8918 170.872 57.9104 170.872 57.9477V59.0655ZM170.872 56.4945C170.872 56.5317 170.854 56.5504 170.817 56.5504H169.811C169.773 56.5504 169.755 56.5317 169.755 56.4945V55.3767C169.755 55.3394 169.773 55.3208 169.811 55.3208H170.817C170.854 55.3208 170.872 55.3394 170.872 55.3767V56.4945ZM170.872 53.9235C170.872 53.9608 170.854 53.9794 170.817 53.9794H169.811C169.773 53.9794 169.755 53.9608 169.755 53.9235V52.8057C169.755 52.7684 169.773 52.7498 169.811 52.7498H170.817C170.854 52.7498 170.872 52.7684 170.872 52.8057V53.9235ZM170.872 51.3711C170.872 51.4084 170.854 51.427 170.817 51.427H169.811C169.773 51.427 169.755 51.4084 169.755 51.3711V50.2533C169.755 50.2161 169.773 50.1974 169.811 50.1974H170.817C170.854 50.1974 170.872 50.2161 170.872 50.2533V51.3711ZM170.872 48.8001C170.872 48.8374 170.854 48.856 170.817 48.856H169.811C169.773 48.856 169.755 48.8374 169.755 48.8001V47.6823C169.755 47.6451 169.773 47.6264 169.811 47.6264H170.817C170.854 47.6264 170.872 47.6451 170.872 47.6823V48.8001ZM182.013 55.6189C182.013 55.6748 181.976 55.712 181.92 55.712H177.412C177.356 55.712 177.319 55.6748 177.319 55.6189V54.7246C177.319 54.6687 177.356 54.6314 177.412 54.6314H181.92C181.976 54.6314 182.013 54.6687 182.013 54.7246V55.6189ZM176.797 48.4089C176.778 48.353 176.741 48.3344 176.685 48.3344C176.667 48.3344 176.648 48.3344 176.629 48.353L176.592 48.3903L172.288 53.849L172.27 53.8676C172.251 53.8862 172.232 53.9235 172.232 53.9608V60.6677C172.232 60.7236 172.288 60.7795 172.344 60.7795H176.722C176.778 60.7795 176.834 60.7236 176.834 60.6677V48.4462C176.816 48.4462 176.816 48.4275 176.797 48.4089ZM174.99 51.3711L175.027 51.3339C175.325 50.9613 175.81 50.3465 176.052 50.0484L176.089 50.0111C176.108 49.9925 176.145 49.9739 176.182 49.9739C176.238 49.9739 176.294 50.0111 176.294 50.067V51.4457C176.294 51.5202 176.238 51.5574 176.182 51.5761H175.102C175.027 51.5761 174.99 51.5202 174.99 51.4457C174.971 51.427 174.971 51.3898 174.99 51.3711ZM174.3 59.0096C174.3 59.0655 174.245 59.1214 174.189 59.1214H172.885C172.829 59.1214 172.773 59.0655 172.773 59.0096V58.1899C172.773 58.134 172.829 58.0781 172.885 58.0781H174.189C174.245 58.0781 174.3 58.134 174.3 58.1899V59.0096ZM174.3 57.5192C174.3 57.5751 174.245 57.6309 174.189 57.6309H172.885C172.829 57.6309 172.773 57.5751 172.773 57.5192V56.6994C172.773 56.6435 172.829 56.5876 172.885 56.5876H174.189C174.245 56.5876 174.3 56.6435 174.3 56.6994V57.5192ZM174.3 56.0101C174.3 56.066 174.245 56.1219 174.189 56.1219H172.885C172.829 56.1219 172.773 56.066 172.773 56.0101V55.1904C172.773 55.1345 172.829 55.0786 172.885 55.0786H174.189C174.245 55.0786 174.3 55.1345 174.3 55.1904V56.0101ZM174.319 52.6939V54.4824C174.319 54.5383 174.263 54.5942 174.207 54.5942H172.903C172.847 54.5942 172.791 54.5383 172.791 54.4824V54.2588V54.2216V54.2029C172.791 54.2029 172.791 54.1843 172.81 54.1843C172.81 54.1843 172.81 54.1657 172.829 54.1657C172.996 53.9235 173.742 52.992 174.058 52.6194L174.096 52.5821C174.114 52.5635 174.151 52.5448 174.189 52.5448C174.245 52.5448 174.3 52.5821 174.3 52.638V52.6939H174.319ZM176.313 59.0096C176.313 59.0655 176.257 59.1214 176.201 59.1214H174.897C174.841 59.1214 174.785 59.0655 174.785 59.0096V58.1899C174.785 58.134 174.841 58.0781 174.897 58.0781H176.201C176.257 58.0781 176.313 58.134 176.313 58.1899V59.0096ZM176.313 57.5192C176.313 57.5751 176.257 57.6309 176.201 57.6309H174.897C174.841 57.6309 174.785 57.5751 174.785 57.5192V56.6994C174.785 56.6435 174.841 56.5876 174.897 56.5876H176.201C176.257 56.5876 176.313 56.6435 176.313 56.6994V57.5192ZM176.313 56.0101C176.313 56.066 176.257 56.1219 176.201 56.1219H174.897C174.841 56.1219 174.785 56.066 174.785 56.0101V55.1904C174.785 55.1345 174.841 55.0786 174.897 55.0786H176.201C176.257 55.0786 176.313 55.1345 176.313 55.1904V56.0101ZM176.313 54.501C176.313 54.5569 176.257 54.6128 176.201 54.6128H174.897C174.841 54.6128 174.785 54.5569 174.785 54.501V53.6813C174.785 53.6254 174.841 53.5695 174.897 53.5695H176.201C176.257 53.5695 176.313 53.6254 176.313 53.6813V54.501ZM176.313 52.992C176.313 53.0479 176.257 53.1038 176.201 53.1038H174.897C174.841 53.1038 174.785 53.0479 174.785 52.992V52.1722C174.785 52.1164 174.841 52.0605 174.897 52.0605H176.201C176.257 52.0605 176.313 52.1164 176.313 52.1722V52.992Z" fill="white"/>
<path d="M165.041 38.1998V37.8645H165.432V38.1998C165.432 38.3303 165.488 38.4234 165.637 38.4234C165.768 38.4234 165.823 38.3303 165.823 38.1998V38.1067C165.823 37.9577 165.768 37.8831 165.637 37.7527L165.395 37.5105C165.153 37.287 165.06 37.1379 165.06 36.8585V36.7839C165.06 36.4858 165.246 36.2437 165.637 36.2437C166.047 36.2437 166.215 36.4486 166.215 36.8026V37.0075H165.842V36.8026C165.842 36.6535 165.786 36.5976 165.656 36.5976C165.544 36.5976 165.47 36.6535 165.47 36.8026V36.8585C165.47 36.9889 165.544 37.082 165.656 37.1938L165.917 37.4546C166.14 37.6782 166.252 37.8272 166.252 38.0881V38.1998C166.252 38.5352 166.066 38.7774 165.656 38.7774C165.246 38.7774 165.041 38.5166 165.041 38.1998ZM167.593 36.2809V38.1253C167.593 38.4979 167.426 38.7588 167.016 38.7588C166.587 38.7588 166.401 38.5166 166.401 38.1253V36.2809H166.811V38.1812C166.811 38.3303 166.867 38.4234 167.016 38.4234C167.165 38.4234 167.221 38.3303 167.221 38.1812V36.2809H167.593ZM167.817 38.1998V37.8645H168.208V38.1998C168.208 38.3303 168.264 38.4234 168.413 38.4234C168.544 38.4234 168.599 38.3303 168.599 38.1998V38.1067C168.599 37.9577 168.544 37.8831 168.413 37.7527L168.171 37.5105C167.929 37.287 167.836 37.1379 167.836 36.8585V36.7839C167.836 36.4858 168.003 36.2437 168.413 36.2437C168.823 36.2437 168.991 36.4486 168.991 36.8026V37.0075H168.618V36.8026C168.618 36.6535 168.562 36.5976 168.432 36.5976C168.32 36.5976 168.245 36.6535 168.245 36.8026V36.8585C168.245 36.9889 168.32 37.082 168.432 37.1938L168.693 37.4546C168.916 37.6782 169.028 37.8272 169.028 38.0881V38.1998C169.028 38.5352 168.842 38.7774 168.432 38.7774C167.966 38.7588 167.817 38.5166 167.817 38.1998ZM169.084 36.2809H170.183V36.6163H169.848V38.7215H169.438V36.6163H169.102V36.2809H169.084ZM170.108 38.7215L170.574 36.2809H171.04L171.506 38.7215H171.077L171.003 38.2744H170.574L170.5 38.7215H170.108ZM170.63 37.939H170.965L170.798 36.9516L170.63 37.939ZM171.673 36.2809H172.083V38.7215H171.673V36.2809ZM172.661 37.1752V38.7215H172.307V36.2809H172.717L173.164 37.6782V36.2809H173.499V38.7215H173.145L172.661 37.1752ZM173.648 38.7215L174.114 36.2809H174.58L175.046 38.7215H174.617L174.543 38.2744H174.114L174.04 38.7215H173.648ZM174.17 37.939H174.505L174.338 36.9516L174.17 37.939ZM175.176 36.2809H175.772C176.182 36.2809 176.312 36.4672 176.312 36.8212V37.0634C176.312 37.2683 176.238 37.3987 176.07 37.4546C176.275 37.5105 176.368 37.6409 176.368 37.8645V38.1812C176.368 38.5352 176.219 38.7215 175.809 38.7215H175.176V36.2809ZM175.586 37.3056H175.735C175.865 37.3056 175.921 37.2311 175.921 37.1007V36.8026C175.921 36.6722 175.865 36.5976 175.716 36.5976H175.567L175.586 37.3056ZM175.586 37.6223V38.3862H175.772C175.903 38.3862 175.977 38.3116 175.977 38.1812V37.8086C175.977 37.6782 175.921 37.6037 175.772 37.6037H175.586V37.6223ZM176.555 36.2809H176.964V38.3862H177.449V38.7215H176.555V36.2809ZM177.617 36.2809H178.604V36.6163H178.026V37.3242H178.436V37.6596H178.026V38.4048H178.604V38.7401H177.617V36.2809ZM179.293 38.0881V36.8957C179.293 36.5045 179.48 36.2437 179.908 36.2437C180.355 36.2437 180.486 36.5045 180.486 36.8585V37.1565H180.113V36.8212C180.113 36.6722 180.057 36.579 179.908 36.579C179.759 36.579 179.703 36.6908 179.703 36.8398V38.1626C179.703 38.3116 179.759 38.4234 179.908 38.4234C180.057 38.4234 180.113 38.3303 180.113 38.1812V37.7341H180.486V38.1626C180.486 38.5166 180.337 38.7774 179.908 38.7774C179.461 38.7588 179.293 38.4607 179.293 38.0881ZM180.672 36.2809H181.082V38.7215H180.672V36.2809ZM181.231 36.2809H182.33V36.6163H181.995V38.7215H181.585V36.6163H181.249V36.2809H181.231ZM182.498 36.2809H182.908V38.7215H182.498V36.2809ZM183.131 36.2809H184.119V36.6163H183.541V37.3242H183.951V37.6596H183.541V38.4048H184.119V38.7401H183.131V36.2809ZM184.212 38.1998V37.8645H184.603V38.1998C184.603 38.3303 184.659 38.4234 184.808 38.4234C184.938 38.4234 184.994 38.3303 184.994 38.1998V38.1067C184.994 37.9577 184.938 37.8831 184.808 37.7527L184.566 37.5105C184.323 37.287 184.23 37.1379 184.23 36.8585V36.7839C184.23 36.4858 184.417 36.2437 184.808 36.2437C185.218 36.2437 185.385 36.4486 185.385 36.8026V37.0075H185.013V36.8026C185.013 36.6535 184.957 36.5976 184.826 36.5976C184.715 36.5976 184.64 36.6535 184.64 36.8026V36.8585C184.64 36.9889 184.715 37.082 184.826 37.1938L185.087 37.4546C185.311 37.6782 185.423 37.8272 185.423 38.0881V38.1998C185.423 38.5352 185.236 38.7774 184.826 38.7774C184.417 38.7774 184.212 38.5166 184.212 38.1998Z" fill="white"/>
<path d="M165.041 42.3172L165.507 39.8766H165.973L166.438 42.3172H166.028L165.954 41.8701H165.525L165.451 42.3172H165.041ZM165.563 41.5534H165.898L165.73 40.5659L165.563 41.5534ZM166.96 40.7895V42.3358H166.606V39.8952H167.016L167.463 41.2925V39.8952H167.798V42.3358H167.444L166.96 40.7895ZM169.27 40.5287V41.6651C169.27 42.0377 169.121 42.3172 168.674 42.3172H168.041V39.8766H168.674C169.102 39.8766 169.27 40.1561 169.27 40.5287ZM168.618 41.9819C168.786 41.9819 168.86 41.8887 168.86 41.7397V40.4542C168.86 40.3051 168.804 40.212 168.618 40.212H168.45V41.9819H168.618ZM169.866 41.6838V40.4914C169.866 40.1002 170.053 39.8394 170.481 39.8394C170.928 39.8394 171.059 40.1002 171.059 40.4542V40.7522H170.686V40.4355C170.686 40.2865 170.63 40.1933 170.481 40.1933C170.332 40.1933 170.276 40.3051 170.276 40.4542V41.7769C170.276 41.926 170.332 42.0377 170.481 42.0377C170.63 42.0377 170.686 41.9446 170.686 41.7956V41.3484H171.059V41.7769C171.059 42.1309 170.91 42.3917 170.481 42.3917C170.034 42.3545 169.866 42.075 169.866 41.6838ZM171.282 41.6838V40.4914C171.282 40.1002 171.469 39.8394 171.897 39.8394C172.326 39.8394 172.53 40.1188 172.53 40.4914V41.6838C172.53 42.0564 172.344 42.3358 171.897 42.3358C171.469 42.3545 171.282 42.075 171.282 41.6838ZM172.102 41.7583V40.4355C172.102 40.2865 172.046 40.1747 171.897 40.1747C171.748 40.1747 171.692 40.2865 171.692 40.4355V41.7583C171.692 41.9073 171.748 42.0191 171.897 42.0191C172.046 42.0005 172.102 41.9073 172.102 41.7583ZM173.89 40.7336L173.592 42.3172H173.406L173.108 40.7336V42.3172H172.773V39.8766H173.257L173.518 41.2553L173.76 39.8766H174.282V42.3172H173.909L173.89 40.7336ZM175.623 40.7336L175.325 42.3172H175.139L174.841 40.7336V42.3172H174.505V39.8766H174.99L175.25 41.2553L175.493 39.8766H176.014V42.3172H175.642V40.7336H175.623ZM177.43 39.8766V41.721C177.43 42.0936 177.263 42.3545 176.853 42.3545C176.424 42.3545 176.238 42.1123 176.238 41.721V39.8766H176.648V41.7769C176.648 41.926 176.704 42.0191 176.853 42.0191C177.002 42.0191 177.058 41.926 177.058 41.7769V39.8766H177.43ZM177.989 40.7895V42.3358H177.635V39.8952H178.045L178.492 41.2925V39.8952H178.828V42.3358H178.474L177.989 40.7895ZM179.07 39.8766H179.48V42.3172H179.07V39.8766ZM179.666 39.8766H180.765V40.212H180.43V42.3172H180.001V40.212H179.666V39.8766ZM180.951 39.8766H181.361V42.3172H180.951V39.8766ZM181.585 39.8766H182.572V40.212H181.995V40.9199H182.405V41.2553H181.995V42.0005H182.572V42.3358H181.585V39.8766ZM182.74 41.7956V41.4602H183.131V41.7956C183.131 41.926 183.187 42.0191 183.336 42.0191C183.466 42.0191 183.522 41.926 183.522 41.7956V41.7024C183.522 41.5534 183.466 41.4788 183.336 41.3484L183.094 41.1062C182.852 40.8827 182.759 40.7336 182.759 40.4542V40.3796C182.759 40.0816 182.926 39.8394 183.336 39.8394C183.746 39.8394 183.914 40.0443 183.914 40.3983V40.6032H183.541V40.3983C183.541 40.2492 183.485 40.1933 183.355 40.1933C183.243 40.1933 183.168 40.2492 183.168 40.3983V40.4542C183.168 40.5846 183.243 40.6777 183.355 40.7895L183.616 41.0503C183.839 41.2739 183.951 41.4229 183.951 41.6838V41.7956C183.951 42.1309 183.765 42.3731 183.355 42.3731C182.908 42.3545 182.74 42.1123 182.74 41.7956Z" fill="white"/>
<path d="M180.614 93.1739C185.08 93.1739 188.699 89.5541 188.699 85.0889C188.699 80.6237 185.08 77.0039 180.614 77.0039C176.149 77.0039 172.529 80.6237 172.529 85.0889C172.529 89.5541 176.149 93.1739 180.614 93.1739Z" fill="#BF8B2E"/>
<path d="M192.339 73.4466C193.229 73.4466 193.949 72.7257 193.949 71.8366C193.949 70.9474 193.229 70.2266 192.339 70.2266C191.45 70.2266 190.729 70.9474 190.729 71.8366C190.729 72.7257 191.45 73.4466 192.339 73.4466Z" fill="#0A97D9"/>
<path d="M214.65 76.7167C222.829 76.7167 229.46 70.086 229.46 61.9067C229.46 53.7273 222.829 47.0967 214.65 47.0967C206.471 47.0967 199.84 53.7273 199.84 61.9067C199.84 70.086 206.471 76.7167 214.65 76.7167Z" fill="#56C02B"/>
<path d="M205.867 54.1539V54.8879L206.357 54.3728H206.369V57.5795H207.065V53.394H206.511L205.867 54.1539ZM208.739 54.7205C208.456 54.7205 208.263 54.8235 208.147 55.0038V53.9607H209.357V53.394H207.503V55.7508H208.147V55.6606C208.147 55.4159 208.263 55.2743 208.456 55.2743C208.675 55.2743 208.752 55.4159 208.752 55.6477V56.6522C208.752 56.8712 208.675 57.0257 208.456 57.0257C208.211 57.0257 208.134 56.8712 208.134 56.6136V56.0856H207.49V56.5621C207.49 57.1931 207.747 57.6052 208.456 57.6052C209.164 57.6052 209.46 57.2318 209.46 56.6522V55.6349C209.46 54.9909 209.113 54.7205 208.739 54.7205Z" fill="white"/>
<path d="M213.028 65.6668C213.054 65.6668 213.079 65.6925 213.079 65.7183V67.225C213.079 67.2508 213.054 67.2766 213.028 67.2766H212.423C212.397 67.2766 212.371 67.2508 212.371 67.225V65.7183C212.371 65.6925 212.397 65.6668 212.423 65.6668H213.028ZM219.737 67.9205H209.679C209.654 67.9205 209.628 67.9462 209.628 67.972V68.5901C209.628 68.6159 209.654 68.6417 209.679 68.6417H219.737C219.763 68.6417 219.789 68.6159 219.789 68.5901V67.972C219.789 67.9462 219.763 67.9205 219.737 67.9205ZM219.737 69.1439H209.679C209.654 69.1439 209.628 69.1697 209.628 69.1954V69.8136C209.628 69.8393 209.654 69.8651 209.679 69.8651H219.737C219.763 69.8651 219.789 69.8393 219.789 69.8136V69.1954C219.789 69.1697 219.763 69.1439 219.737 69.1439ZM217.819 64.0055C217.69 63.9025 217.355 63.6835 216.943 63.6835C216.647 63.6835 216.376 63.7995 216.131 64.0313C216.119 64.0441 216.106 64.0699 216.106 64.0957V64.1472C216.106 64.1729 216.119 64.1987 216.131 64.2116C216.157 64.2244 216.17 64.2373 216.209 64.2244H216.222C216.234 64.2116 216.26 64.2116 216.273 64.1987C216.325 64.16 216.466 64.1085 216.672 64.1085C216.891 64.1085 217.303 64.16 217.715 64.5464L217.728 64.5592C217.754 64.585 217.78 64.5979 217.819 64.5979C217.844 64.5979 217.883 64.585 217.909 64.5592L217.922 64.5464C218.334 64.1729 218.746 64.1085 218.965 64.1085C219.171 64.1085 219.312 64.16 219.364 64.1987C219.377 64.2116 219.39 64.2244 219.415 64.2373C219.428 64.2373 219.454 64.2502 219.48 64.2373C219.518 64.2244 219.544 64.1987 219.544 64.16V64.1085C219.544 64.0828 219.531 64.057 219.518 64.0441C219.274 63.8123 219.003 63.6964 218.694 63.6964C218.282 63.6707 217.947 63.9025 217.819 64.0055ZM217.2 59.9875C217.175 60.0004 217.162 60.0132 217.162 60.039L217.149 60.0776C217.136 60.1034 217.149 60.1291 217.162 60.1549C217.175 60.1807 217.2 60.1935 217.226 60.1935H217.239C217.252 60.1935 217.278 60.1935 217.29 60.1807C217.303 60.1807 217.316 60.1678 217.355 60.1678C217.394 60.1678 217.806 60.1807 218.076 60.6314V60.6443C218.089 60.67 218.115 60.6829 218.14 60.6958H218.166C218.179 60.6958 218.205 60.6958 218.218 60.6829H218.231C218.372 60.6056 218.527 60.567 218.681 60.567C218.939 60.567 219.106 60.67 219.145 60.7087L219.184 60.7473C219.196 60.7473 219.209 60.7602 219.222 60.7602H219.248C219.261 60.7602 219.274 60.7602 219.287 60.7473C219.312 60.7344 219.325 60.7215 219.325 60.6958L219.338 60.67V60.6443C219.338 60.6314 219.338 60.6185 219.325 60.6056C219.132 60.2708 218.849 60.1935 218.643 60.1935C218.488 60.1935 218.359 60.2322 218.282 60.2579C218.192 60.1291 217.96 59.8716 217.6 59.8716C217.458 59.8973 217.329 59.9231 217.2 59.9875ZM215.075 61.5458V61.5973C215.075 61.623 215.088 61.6488 215.114 61.6617C215.14 61.6745 215.166 61.6745 215.178 61.6745H215.191C215.204 61.6617 215.217 61.6617 215.23 61.6488C215.269 61.623 215.41 61.5586 215.616 61.5586C215.809 61.5586 216.106 61.6101 216.415 61.8548L216.428 61.8677C216.453 61.8806 216.479 61.8935 216.505 61.8935H216.518C216.544 61.8935 216.582 61.8806 216.595 61.8548L216.608 61.842C216.943 61.4814 217.303 61.4299 217.497 61.4299C217.625 61.4299 217.728 61.4556 217.754 61.4814C217.767 61.4942 217.78 61.5071 217.806 61.5071H217.87C217.909 61.4942 217.934 61.4556 217.922 61.417V61.3783C217.922 61.3526 217.909 61.3397 217.896 61.3139C217.69 61.1465 217.484 61.0564 217.252 61.0564C216.904 61.0564 216.621 61.2624 216.505 61.3655C216.402 61.2882 216.144 61.1465 215.835 61.1465C215.565 61.1465 215.333 61.2624 215.127 61.4814C215.075 61.4942 215.075 61.52 215.075 61.5458ZM209.976 62.3442C209.976 61.7389 210.465 61.2496 211.07 61.2496H211.135C211.186 60.4897 211.83 59.8845 212.603 59.8845C213.414 59.8845 214.084 60.5413 214.084 61.3655C214.084 61.5973 214.032 61.8162 213.929 62.0094C214.663 62.1768 215.217 62.8336 215.217 63.6192C215.217 64.5335 214.483 65.2675 213.569 65.2675C213.504 65.2675 211.366 65.2547 211.366 65.2547C210.723 65.2547 210.195 64.7267 210.195 64.0828C210.195 63.7737 210.31 63.4904 210.517 63.2843C210.207 63.104 209.976 62.7563 209.976 62.3442Z" fill="white"/>
<path d="M210.967 53.394H211.25V54.8493H211.585V55.0811H210.967V53.394ZM211.752 53.394H212.036V55.0811H211.752V53.394ZM212.242 53.394H212.911V53.6259H212.525V54.1152H212.808V54.347H212.525V55.094H212.242V53.394ZM213.066 53.394H213.749V53.6259H213.349V54.1152H213.633V54.347H213.349V54.8622H213.749V55.094H213.066V53.394Z" fill="white"/>
<path d="M210.967 57.1416V56.3174C210.967 56.047 211.096 55.8667 211.392 55.8667C211.688 55.8667 211.83 56.0599 211.83 56.3174V57.1416C211.83 57.3992 211.701 57.5924 211.392 57.5924C211.096 57.5924 210.967 57.3992 210.967 57.1416ZM211.546 57.1803V56.2659C211.546 56.1629 211.508 56.0856 211.405 56.0856C211.302 56.0856 211.263 56.1629 211.263 56.2659V57.1803C211.263 57.2833 211.302 57.3606 211.405 57.3606C211.495 57.3606 211.546 57.2833 211.546 57.1803ZM212.229 56.5106V57.5795H211.984V55.8925H212.268L212.577 56.8583V55.8925H212.808V57.5795H212.564L212.229 56.5106ZM213.427 55.8796H213.71V57.3348H214.045V57.5666H213.427V55.8796ZM214.122 57.5795L214.444 55.8925H214.766L215.088 57.5795H214.792L214.74 57.2704H214.444L214.392 57.5795H214.122ZM214.483 57.0386H214.714L214.598 56.3561L214.483 57.0386ZM215.448 56.5106V57.5795H215.204V55.8925H215.487L215.796 56.8583V55.8925H216.028V57.5795H215.783L215.448 56.5106ZM217.071 56.3432V57.1288C217.071 57.3863 216.968 57.5795 216.659 57.5795H216.221V55.8925H216.659C216.955 55.8796 217.071 56.0728 217.071 56.3432ZM216.62 57.3477C216.736 57.3477 216.788 57.2833 216.788 57.1803V56.2917C216.788 56.1887 216.749 56.1243 216.62 56.1243H216.504V57.3477H216.62Z" fill="white"/>
<path d="M246.297 66.9571C251.32 66.9571 255.392 62.8851 255.392 57.8621C255.392 52.8391 251.32 48.7671 246.297 48.7671C241.274 48.7671 237.202 52.8391 237.202 57.8621C237.202 62.8851 241.274 66.9571 246.297 66.9571Z" fill="#00689D"/>
<path d="M258.165 74.4C259.167 74.4 259.98 73.5874 259.98 72.585C259.98 71.5826 259.167 70.77 258.165 70.77C257.162 70.77 256.35 71.5826 256.35 72.585C256.35 73.5874 257.162 74.4 258.165 74.4Z" fill="#19486A"/>
<defs>
<clipPath id="clip0_6430_4293">
<rect width="17.507" height="17.507" fill="white" transform="translate(142.127 95.8442)"/>
</clipPath>
</defs>
</svg>
