<svg width="280" height="130" viewBox="0 0 280 130" fill="none" xmlns="http://www.w3.org/2000/svg">
<path d="M17.0573 68.0721C22.6409 68.0721 27.1673 63.5456 27.1673 57.9621C27.1673 52.3785 22.6409 47.8521 17.0573 47.8521C11.4737 47.8521 6.94727 52.3785 6.94727 57.9621C6.94727 63.5456 11.4737 68.0721 17.0573 68.0721Z" fill="#E5243B"/>
<path d="M12.0196 52.7492H12.0284V54.9294H12.5031V52.0811H12.1251L11.6855 52.5997V53.1008L12.0196 52.7492ZM21.5845 58.0328C21.8043 58.0328 21.9713 57.8569 21.9713 57.6372C21.9713 57.4174 21.7955 57.2416 21.5845 57.2416C21.3647 57.2416 21.1889 57.4174 21.1889 57.6372C21.1889 57.8569 21.3647 58.0328 21.5845 58.0328ZM22.0417 58.1822H21.1274C20.8636 58.2086 20.6526 58.4284 20.6526 58.7009V59.7822C20.6526 59.8614 20.723 59.9317 20.8021 59.9317C20.89 59.9317 20.9515 59.8614 20.9515 59.7822V58.8504C20.9515 58.8152 20.9603 58.7712 21.0219 58.7712C21.0658 58.7712 21.0746 58.8152 21.0746 58.8504V61.646C21.0746 61.7691 21.1713 61.8658 21.2944 61.8658C21.4175 61.8658 21.5142 61.7691 21.5142 61.646V60.0284C21.5142 60.0108 21.523 59.9668 21.5757 59.9668C21.6285 59.9668 21.6373 60.0108 21.6373 60.0284V61.6372C21.6373 61.7603 21.734 61.857 21.8571 61.857C21.9801 61.857 22.0768 61.7603 22.0768 61.6372V58.8416C22.0768 58.8152 22.0856 58.7624 22.1296 58.7624C22.1911 58.7624 22.1999 58.8064 22.1999 58.8416V59.7734C22.1999 59.8526 22.2702 59.9229 22.3494 59.9229C22.4373 59.9229 22.4988 59.8526 22.4988 59.7734V58.7009C22.5164 58.4284 22.3054 58.1998 22.0417 58.1822ZM18.49 58.2174C18.6922 58.2174 18.8592 58.0504 18.8592 57.8482C18.8592 57.646 18.6922 57.4789 18.49 57.4789C18.2878 57.4789 18.1208 57.646 18.1208 57.8482C18.1208 58.0504 18.2878 58.2174 18.49 58.2174ZM18.9295 58.8943C18.9823 58.8767 18.9911 58.9471 18.9911 58.9471L19.2372 59.7822C19.2372 59.7822 19.2812 59.9581 19.4394 59.9141C19.5977 59.8701 19.5449 59.6855 19.5449 59.6855L19.2372 58.6833C19.2372 58.6833 19.123 58.3932 18.8856 58.3932H18.0944C17.8483 58.3932 17.7428 58.6833 17.7428 58.6833L17.4351 59.6855C17.4351 59.6855 17.3823 59.8701 17.5406 59.9141C17.6988 59.9581 17.7428 59.7822 17.7428 59.7822L17.9889 58.9471C17.9889 58.9471 18.0065 58.8855 18.0505 58.8943C18.1032 58.9119 18.0768 58.9734 18.0768 58.9734L17.6461 60.5471H18.0505V61.6724C18.0505 61.7779 18.1384 61.8658 18.2439 61.8658C18.3494 61.8658 18.4373 61.7779 18.4373 61.6724V60.5471H18.5428V61.6724C18.5428 61.7779 18.6307 61.8658 18.7362 61.8658C18.8416 61.8658 18.9295 61.7779 18.9295 61.6724V60.5471H19.3339L18.9032 58.9734C18.9032 58.9734 18.8856 58.9119 18.9295 58.8943ZM16.2658 58.2174C16.468 58.2174 16.6351 58.0504 16.6351 57.8482C16.6351 57.646 16.468 57.4789 16.2658 57.4789C16.0636 57.4789 15.8966 57.646 15.8966 57.8482C15.8966 58.0504 16.0636 58.2174 16.2658 58.2174ZM17.0131 58.6833C17.0131 58.6833 16.9076 58.3932 16.6614 58.3932H15.8702C15.6241 58.3932 15.5186 58.6833 15.5186 58.6833L15.2109 59.6855C15.2109 59.6855 15.2021 59.7119 15.2021 59.7471C15.1845 59.7207 15.1493 59.7031 15.1142 59.7031C15.0702 59.7031 15.035 59.7207 15.0175 59.7559C15.0087 59.7646 14.868 60.0196 14.8153 60.0636C14.7625 60.1163 14.7185 60.1075 14.7185 60.1075H14.3493C14.3493 60.1075 14.3054 60.1163 14.2526 60.0636C14.2087 60.0196 14.0592 59.7559 14.0504 59.7559C14.0328 59.7207 13.9977 59.7031 13.9537 59.7031C13.9185 59.7031 13.8834 59.7207 13.8658 59.7559V58.7009C13.8658 58.4284 13.6548 58.2086 13.3911 58.1822H12.4768C12.213 58.2086 12.002 58.4284 12.002 58.7009V59.7822C12.002 59.8438 12.0372 59.8877 12.0812 59.9141C12.0812 59.9141 12.0724 59.9229 12.0724 59.9317L11.7207 61.7779C11.7119 61.813 11.7383 61.8394 11.7647 61.8482H11.7735C11.7998 61.8482 11.8262 61.8306 11.8262 61.8042L12.1779 59.9581V59.9405C12.2482 59.9229 12.2921 59.8614 12.2921 59.791V58.8592C12.2921 58.824 12.3009 58.78 12.3625 58.78C12.4064 58.78 12.4152 58.824 12.4152 58.8592V61.6548C12.4152 61.7779 12.5119 61.8746 12.635 61.8746C12.7581 61.8746 12.8548 61.7779 12.8548 61.6548V60.0284C12.8548 60.0108 12.8636 59.9668 12.9163 59.9668C12.9691 59.9668 12.9779 60.0108 12.9779 60.0284V61.6372C12.9779 61.7603 13.0746 61.857 13.1977 61.857C13.3207 61.857 13.4174 61.7603 13.4174 61.6372V58.8416C13.4174 58.8152 13.4262 58.7624 13.4702 58.7624C13.5317 58.7624 13.5405 58.8064 13.5405 58.8416V59.7734C13.5405 59.8526 13.6108 59.9229 13.69 59.9229C13.7515 59.9229 13.8043 59.8877 13.8306 59.835C13.8306 59.8438 13.8394 59.8526 13.8394 59.8526L14.1471 60.4152C14.1471 60.4152 14.1647 60.4504 14.1647 60.4855V60.5998L13.9977 61.2064H14.1647V61.6987C14.1647 61.7866 14.235 61.8482 14.3141 61.8482C14.4021 61.8482 14.4636 61.7779 14.4636 61.6987V61.224V61.2064H14.5515V61.6987C14.5515 61.7866 14.6218 61.8482 14.701 61.8482C14.7889 61.8482 14.8504 61.7779 14.8504 61.6987V61.2064H15.0175L14.8504 60.5998V60.4943C14.8504 60.4592 14.868 60.424 14.868 60.424L15.1581 59.9053C15.1581 59.9053 15.1757 59.8701 15.1845 59.835C15.2021 59.8701 15.2284 59.8965 15.2724 59.9141C15.4306 59.9581 15.4746 59.7822 15.4746 59.7822L15.7208 58.9471C15.7208 58.9471 15.7383 58.8855 15.7823 58.8943C15.835 58.9119 15.8087 58.9734 15.8087 58.9734L15.3779 60.5471H15.7823V61.6724C15.7823 61.7779 15.8702 61.8658 15.9757 61.8658C16.0812 61.8658 16.1691 61.7779 16.1691 61.6724V60.5471H16.2746V61.6724C16.2746 61.7779 16.3625 61.8658 16.468 61.8658C16.5735 61.8658 16.6614 61.7779 16.6614 61.6724V60.5471H17.0658L16.6351 58.9734C16.6351 58.9734 16.6175 58.9031 16.6614 58.8943C16.7142 58.8767 16.723 58.9471 16.723 58.9471L16.9691 59.7822C16.9691 59.7822 17.0131 59.9581 17.1713 59.9141C17.3296 59.8701 17.2768 59.6855 17.2768 59.6855L17.0131 58.6833ZM20.1076 59.9141C20.2746 59.9141 20.4153 59.7734 20.4153 59.6064C20.4153 59.4394 20.2746 59.2987 20.1076 59.2987C19.9405 59.2987 19.7999 59.4394 19.7999 59.6064C19.7999 59.7822 19.9318 59.9141 20.1076 59.9141ZM20.8373 60.7932C20.8373 60.7844 20.6439 60.3097 20.6175 60.2394C20.5471 60.0372 20.4241 60.0372 20.301 60.0372H20.1076H19.8702C19.712 60.046 19.6592 60.1251 19.4834 60.5822C19.457 60.6438 19.3691 60.8636 19.3691 60.8724C19.3515 60.9075 19.3427 60.9866 19.4131 61.0218C19.501 61.057 19.5449 60.9778 19.5449 60.9778L19.712 60.4416C19.712 60.4416 19.7383 60.4064 19.7383 60.4416V61.6987C19.7383 61.7866 19.8087 61.857 19.8966 61.857C19.9845 61.857 20.0548 61.7866 20.0548 61.6987V61.1976C20.0548 61.1976 20.046 61.1273 20.0988 61.1273C20.1515 61.1273 20.1427 61.1976 20.1427 61.1976V61.6987C20.1427 61.7866 20.2131 61.857 20.301 61.857C20.3889 61.857 20.4592 61.7866 20.4592 61.6987V60.4416C20.4592 60.4064 20.4768 60.4328 20.4768 60.4328L20.6087 60.802C20.6087 60.802 20.6614 60.9691 20.679 60.9691C20.7406 60.9954 20.8109 60.9691 20.8285 60.9075C20.8636 60.8724 20.8548 60.8284 20.8373 60.7932ZM12.9339 58.0328C13.1537 58.0328 13.3295 57.8569 13.3295 57.6372C13.3295 57.4174 13.1537 57.2416 12.9339 57.2416C12.7141 57.2416 12.5471 57.4174 12.5471 57.6372C12.5471 57.8569 12.7229 58.0328 12.9339 58.0328Z" fill="white"/>
<path d="M14.5343 59.9141C14.7013 59.9141 14.842 59.7734 14.842 59.6064C14.842 59.4394 14.7013 59.2987 14.5343 59.2987C14.3673 59.2987 14.2266 59.4394 14.2266 59.6064C14.2266 59.7822 14.3673 59.9141 14.5343 59.9141ZM14.2793 52.4855V53.2151H14.1123V52.0635H14.3057L14.5167 52.7228V52.0635H14.6749V53.2151H14.5079L14.2793 52.4855ZM14.8068 52.9162V52.3536C14.8068 52.169 14.8947 52.0459 15.0969 52.0459C15.2991 52.0459 15.3958 52.1778 15.3958 52.3536V52.9162C15.3958 53.0921 15.3079 53.2239 15.0969 53.2239C14.8947 53.2239 14.8068 53.0921 14.8068 52.9162ZM15.2024 52.9426V52.3184C15.2024 52.2481 15.1761 52.1954 15.1057 52.1954C15.0354 52.1954 15.009 52.2481 15.009 52.3184V52.9426C15.009 53.0129 15.0354 53.0657 15.1057 53.0657C15.1673 53.0657 15.2024 53.0129 15.2024 52.9426ZM14.1211 53.769H14.4112C14.6046 53.769 14.6749 53.8657 14.6749 54.0239V54.2701C14.6749 54.4283 14.6046 54.5338 14.4112 54.5338H14.3145V54.9294H14.1211V53.769ZM14.3145 53.9272V54.3844H14.3848C14.4552 54.3844 14.4815 54.3492 14.4815 54.2877V54.0239C14.4815 53.9624 14.4552 53.9272 14.3848 53.9272H14.3145ZM14.7892 54.6305V54.0679C14.7892 53.8833 14.8771 53.7602 15.0793 53.7602C15.2815 53.7602 15.3783 53.8921 15.3783 54.0679V54.6305C15.3783 54.8064 15.2903 54.9382 15.0793 54.9382C14.8771 54.9382 14.7892 54.8064 14.7892 54.6305ZM15.1848 54.6569V54.0327C15.1848 53.9624 15.1585 53.9097 15.0881 53.9097C15.0178 53.9097 14.9914 53.9624 14.9914 54.0327V54.6569C14.9914 54.7272 15.0178 54.78 15.0881 54.78C15.1497 54.78 15.1848 54.7272 15.1848 54.6569ZM16.0991 53.769L15.8794 54.9207H15.6684L15.4486 53.769H15.642L15.7739 54.5778L15.9145 53.769H16.0991ZM16.1958 53.769H16.6618V53.9272H16.3893V54.2613H16.5827V54.4196H16.3893V54.7712H16.6618V54.9294H16.1958V53.769ZM16.9695 54.3932V54.9207H16.7761V53.769H17.0574C17.2508 53.769 17.3211 53.8657 17.3211 54.0239V54.1734C17.3211 54.2965 17.2772 54.3668 17.1629 54.3932L17.3475 54.9207H17.1453L16.9695 54.3932ZM16.9695 53.9272V54.2877H17.031C17.1013 54.2877 17.1277 54.2525 17.1277 54.191V54.0239C17.1277 53.9624 17.1013 53.9272 17.031 53.9272H16.9695ZM17.409 53.769H17.9277V53.9272H17.7695V54.9294H17.5761V53.936H17.4178L17.409 53.769ZM18.4113 54.4811V54.9207H18.2178V54.4811L17.9981 53.769H18.2003L18.3145 54.2086L18.4288 53.769H18.6135L18.4113 54.4811Z" fill="white"/>
<path d="M42.3808 68.9212C46.4981 68.9212 49.8358 65.5835 49.8358 61.4662C49.8358 57.3489 46.4981 54.0112 42.3808 54.0112C38.2635 54.0112 34.9258 57.3489 34.9258 61.4662C34.9258 65.5835 38.2635 68.9212 42.3808 68.9212Z" fill="#DDA63A"/>
<path d="M34.2285 47.7524C36.7138 47.7524 38.7285 45.7377 38.7285 43.2524C38.7285 40.7672 36.7138 38.7524 34.2285 38.7524C31.7432 38.7524 29.7285 40.7672 29.7285 43.2524C29.7285 45.7377 31.7432 47.7524 34.2285 47.7524Z" fill="#4C9F38"/>
<path d="M48.1326 47.0118C49.0025 47.0118 49.7076 46.3067 49.7076 45.4368C49.7076 44.567 49.0025 43.8618 48.1326 43.8618C47.2628 43.8618 46.5576 44.567 46.5576 45.4368C46.5576 46.3067 47.2628 47.0118 48.1326 47.0118Z" fill="#C5192D"/>
<path d="M50.657 84.7114C53.2969 84.7114 55.437 82.5713 55.437 79.9314C55.437 77.2914 53.2969 75.1514 50.657 75.1514C48.017 75.1514 45.877 77.2914 45.877 79.9314C45.877 82.5713 48.017 84.7114 50.657 84.7114Z" fill="#FF3A21"/>
<path d="M47.1188 35.7542C50.7694 35.7542 53.7288 32.7948 53.7288 29.1442C53.7288 25.4936 50.7694 22.5342 47.1188 22.5342C43.4682 22.5342 40.5088 25.4936 40.5088 29.1442C40.5088 32.7948 43.4682 35.7542 47.1188 35.7542Z" fill="#26BDE2"/>
<path d="M107.255 102.767C134.869 102.767 157.255 80.3808 157.255 52.7666C157.255 25.1524 134.869 2.7666 107.255 2.7666C79.6406 2.7666 57.2549 25.1524 57.2549 52.7666C57.2549 80.3808 79.6406 102.767 107.255 102.767Z" fill="#FCC30B"/>
<path d="M79.7773 25.81H83.4295L80.2556 37.9839H82.6034L85.7339 26.0709V23.897H79.7773V25.81Z" fill="white"/>
<path d="M92.4277 29.5927L93.5147 23.897H94.6016L95.6886 29.5927H94.6886L94.5147 28.5492H93.5147L93.3408 29.5927H92.4277ZM93.6451 27.7666H94.4277L94.0364 25.4622L93.6451 27.7666ZM96.0364 23.897H98.2973V24.6796H96.993V26.3318H97.9495V27.1144H96.993V29.6361H96.0364V23.897ZM98.6886 23.897H100.949V24.6796H99.6451V26.3318H100.602V27.1144H99.6451V29.6361H98.6886V23.897ZM101.21 28.1144V25.3318C101.21 24.4188 101.645 23.8101 102.645 23.8101C103.645 23.8101 104.123 24.4622 104.123 25.3318V28.1144C104.123 28.984 103.689 29.6361 102.645 29.6361C101.645 29.6796 101.21 28.984 101.21 28.1144ZM103.167 28.2883V25.2014C103.167 24.8535 103.036 24.5927 102.689 24.5927C102.341 24.5927 102.21 24.8535 102.21 25.2014V28.2883C102.21 28.6361 102.341 28.897 102.689 28.897C103.036 28.8535 103.167 28.6361 103.167 28.2883ZM105.602 26.984V29.5927H104.645V23.897H106.036C106.993 23.897 107.341 24.3753 107.341 25.1579V25.897C107.341 26.5057 107.123 26.8535 106.558 26.984L107.471 29.5927H106.471L105.602 26.984ZM105.602 24.6796V26.4622H105.906C106.254 26.4622 106.384 26.2883 106.384 25.984V25.1579C106.384 24.8535 106.254 24.6796 105.906 24.6796H105.602ZM110.732 25.4188V28.0709C110.732 28.9405 110.384 29.5927 109.341 29.5927H107.863V23.897H109.341C110.341 23.897 110.732 24.5492 110.732 25.4188ZM109.21 28.8101C109.602 28.8101 109.776 28.5927 109.776 28.2448V25.2448C109.776 24.897 109.645 24.6796 109.21 24.6796H108.819V28.8101H109.21ZM110.949 29.5927L112.036 23.897H113.123L114.21 29.5927H113.21L113.036 28.5492H112.036L111.863 29.5927H110.949ZM112.167 27.7666H112.949L112.558 25.4622L112.167 27.7666ZM114.558 23.897H115.949C116.906 23.897 117.21 24.3318 117.21 25.1579V25.7231C117.21 26.2014 117.036 26.5057 116.645 26.6361C117.123 26.7666 117.341 27.0709 117.341 27.5927V28.3318C117.341 29.1579 116.993 29.5927 116.036 29.5927H114.558V23.897ZM115.515 26.2883H115.862C116.167 26.2883 116.297 26.1144 116.297 25.8101V25.1144C116.297 24.8101 116.167 24.6361 115.819 24.6361H115.471V26.2883H115.515ZM115.515 27.0274V28.8101H115.949C116.254 28.8101 116.428 28.6361 116.428 28.3318V27.4622C116.428 27.1579 116.297 26.984 115.949 26.984H115.515V27.0274ZM117.819 23.897H118.775V28.8101H119.906V29.5927H117.819V23.897ZM120.341 23.897H122.645V24.6796H121.297V26.3318H122.254V27.1144H121.297V28.8535H122.645V29.6361H120.341V23.897ZM123.775 29.5927L124.862 23.897H125.949L127.036 29.5927H126.036L125.862 28.5492H124.862L124.688 29.5927H123.775ZM124.993 27.7666H125.775L125.384 25.4622L124.993 27.7666ZM128.21 25.984V29.5927H127.384V23.897H128.341L129.384 27.1579V23.897H130.167V29.5927H129.341L128.21 25.984ZM133.558 25.4188V28.0709C133.558 28.9405 133.21 29.5927 132.167 29.5927H130.688V23.897H132.167C133.21 23.897 133.558 24.5492 133.558 25.4188ZM132.08 28.8101C132.471 28.8101 132.645 28.5927 132.645 28.2448V25.2448C132.645 24.897 132.515 24.6796 132.08 24.6796H131.688V28.8101H132.08Z" fill="white"/>
<path d="M92.5586 36.5055V33.7664C92.5586 32.8968 92.9934 32.2446 93.9934 32.2446C95.0369 32.2446 95.3412 32.8533 95.3412 33.6794V34.3316H94.4716V33.5925C94.4716 33.2446 94.3412 33.0272 93.9934 33.0272C93.6455 33.0272 93.5151 33.2881 93.5151 33.6359V36.6794C93.5151 37.0272 93.6455 37.2881 93.9934 37.2881C94.3412 37.2881 94.4716 37.0707 94.4716 36.7229V35.6794H95.3412V36.6794C95.3412 37.5055 94.9934 38.1142 93.9934 38.1142C92.9934 38.0707 92.5586 37.4185 92.5586 36.5055ZM95.9499 32.2881H96.9064V37.2011H98.0369V37.9838H95.9499V32.2881ZM98.5586 32.2881H100.819V33.0707H99.5151V34.6794H100.472V35.462H99.5151V37.2011H100.819V37.9838H98.5586V32.2881ZM101.298 37.9838L102.385 32.2881H103.472L104.559 37.9838H103.559L103.385 36.9403H102.385L102.211 37.9838H101.298ZM102.515 36.2011H103.298L102.906 33.8968L102.515 36.2011ZM105.819 34.4185V37.9838H104.993V32.2881H105.95L106.993 35.549V32.2881H107.776V37.9838H106.95L105.819 34.4185ZM110.341 32.2881H112.602V33.0707H111.298V34.6794H112.254V35.462H111.298V37.2011H112.602V37.9838H110.341V32.2881ZM113.993 34.4185V37.9838H113.167V32.2881H114.124L115.167 35.549V32.2881H115.95V37.9838H115.124L113.993 34.4185ZM116.602 32.2881H118.863V33.0707H117.559V34.6794H118.515V35.462H117.559V37.2011H118.863V37.9838H116.602V32.2881ZM120.428 35.3751V37.9838H119.472V32.2881H120.863C121.819 32.2881 122.167 32.7664 122.167 33.549V34.2881C122.167 34.8968 121.95 35.2446 121.385 35.3751L122.298 37.9403H121.298L120.428 35.3751ZM120.428 33.0707V34.8533H120.732C121.08 34.8533 121.211 34.6794 121.211 34.3751V33.549C121.211 33.2446 121.08 33.0707 120.732 33.0707H120.428ZM124.211 34.9403H125.559V37.9838H124.863V37.3751C124.732 37.8098 124.472 38.0707 123.95 38.0707C123.124 38.0707 122.732 37.4185 122.732 36.549V33.8098C122.732 32.9403 123.167 32.2881 124.167 32.2881C125.211 32.2881 125.515 32.8968 125.515 33.7229V34.2446H124.645V33.6794C124.645 33.3316 124.515 33.1142 124.167 33.1142C123.819 33.1142 123.689 33.3751 123.689 33.7229V36.7664C123.689 37.1142 123.819 37.3751 124.167 37.3751C124.472 37.3751 124.645 37.2012 124.645 36.8098V35.8098H124.211V34.9403ZM128.037 35.8098V37.9838H127.08V35.8098L125.993 32.2881H126.993L127.559 34.462L128.124 32.2881H129.037L128.037 35.8098Z" fill="white"/>
<path d="M107.645 79.9407C108.124 79.9407 108.472 79.5494 108.472 79.1581V74.6799C108.472 74.2886 108.08 73.8973 107.645 73.8973C107.167 73.8973 106.819 74.332 106.819 74.6799V79.1581C106.819 79.506 107.211 79.9407 107.645 79.9407ZM107.559 51.9407C101.906 51.9407 97.2976 56.5494 97.2976 62.2016C97.2976 67.8538 101.906 72.4625 107.559 72.4625C113.211 72.4625 117.819 67.8538 117.819 62.2016C117.819 56.506 113.254 51.9407 107.559 51.9407ZM106.819 55.9842C106.819 55.6364 107.167 55.2886 107.602 55.2886C108.037 55.2886 108.341 55.6799 108.341 55.9842V59.506C108.341 59.8538 107.993 60.2016 107.602 60.2016C107.167 60.2016 106.819 59.8103 106.819 59.506V55.9842ZM107.559 67.419C104.602 67.419 102.211 65.0277 102.211 62.0712C102.211 59.6799 103.776 57.6364 105.95 56.9842V58.9842C104.819 59.5494 104.037 60.7234 104.037 62.0712C104.037 63.9842 105.602 65.5494 107.515 65.5494C109.428 65.5494 110.993 63.9842 110.993 62.0712C110.993 60.7234 110.211 59.5494 109.08 58.9407V56.9407C111.254 57.5929 112.819 59.6364 112.819 62.0277C112.906 65.0277 110.515 67.419 107.559 67.419ZM95.8194 62.0712C95.8194 61.5929 95.4281 61.2451 95.0368 61.2451H90.515C90.1237 61.2451 89.7324 61.6364 89.7324 62.0712C89.7324 62.5494 90.1672 62.8973 90.515 62.8973H94.9933C95.3846 62.9407 95.8194 62.5494 95.8194 62.0712ZM125.428 62.0712C125.428 61.5929 125.037 61.2451 124.645 61.2451H120.167C119.776 61.2451 119.385 61.6364 119.385 62.0712C119.385 62.5494 119.819 62.8973 120.167 62.8973H124.645C124.993 62.9407 125.428 62.5494 125.428 62.0712ZM107.559 50.3321C108.037 50.3321 108.385 49.9407 108.385 49.5494V45.0712C108.385 44.6799 107.993 44.2886 107.559 44.2886C107.08 44.2886 106.732 44.7234 106.732 45.0712V49.506C106.732 49.8973 107.124 50.3321 107.559 50.3321ZM97.3411 56.2451C97.5585 55.8538 97.3846 55.2886 97.0802 55.1147L93.1672 52.8973C92.8194 52.7234 92.2976 52.8103 92.0802 53.2451C91.8629 53.6364 92.0368 54.2016 92.3411 54.3755L96.2542 56.5929C96.5585 56.7668 97.1237 56.6364 97.3411 56.2451ZM123.08 70.9407C123.298 70.5494 123.124 69.9842 122.819 69.8103L118.906 67.5929C118.558 67.419 118.037 67.506 117.819 67.9407C117.602 68.3321 117.776 68.8973 118.08 69.0712L121.993 71.2886C122.298 71.4625 122.819 71.3755 123.08 70.9407ZM113.428 51.8538C113.819 52.0712 114.341 51.8973 114.559 51.5929L116.776 47.6799C116.95 47.3321 116.863 46.8103 116.428 46.5929C116.037 46.3755 115.472 46.5494 115.298 46.8538L113.08 50.7668C112.906 51.1147 113.037 51.6364 113.428 51.8538ZM98.6889 77.5929C99.0802 77.8103 99.602 77.6364 99.8194 77.3321L102.037 73.419C102.211 73.0712 102.124 72.5494 101.689 72.3321C101.298 72.1147 100.732 72.2886 100.559 72.5929L98.3411 76.506C98.1672 76.8103 98.2976 77.3321 98.6889 77.5929ZM101.689 51.8973C102.08 51.6799 102.211 51.1147 102.037 50.8103L99.8194 46.8973C99.6455 46.5494 99.0802 46.3755 98.6889 46.6364C98.2976 46.8538 98.1672 47.419 98.3411 47.7668L100.559 51.6799C100.776 51.9407 101.298 52.1147 101.689 51.8973ZM116.471 77.5494C116.863 77.3321 116.993 76.7668 116.819 76.4625L114.602 72.5494C114.428 72.2016 113.863 72.0277 113.472 72.2886C113.08 72.506 112.95 73.0712 113.124 73.419L115.341 77.3321C115.515 77.6364 116.08 77.8103 116.471 77.5494ZM117.776 56.2016C117.993 56.5929 118.558 56.7234 118.863 56.5494L122.776 54.3321C123.124 54.1581 123.298 53.5929 123.037 53.2016C122.819 52.8103 122.254 52.6799 121.906 52.8538L117.993 55.0712C117.732 55.2886 117.558 55.8103 117.776 56.2016ZM92.1237 70.9842C92.3411 71.3755 92.9063 71.506 93.2107 71.3321L97.1237 69.1147C97.4716 68.9407 97.6455 68.3755 97.3846 67.9842C97.1672 67.5929 96.602 67.4625 96.2542 67.6364L92.3411 69.8538C92.0368 70.0277 91.8629 70.5929 92.1237 70.9842Z" fill="white"/>
<path d="M140.619 127.234C147.486 127.234 153.054 121.666 153.054 114.799C153.054 107.931 147.486 102.364 140.619 102.364C133.751 102.364 128.184 107.931 128.184 114.799C128.184 121.666 133.751 127.234 140.619 127.234Z" fill="#A21942"/>
<path d="M135.309 110.268V109.879C135.309 109.544 135.19 109.295 134.92 109.176C135.158 109.057 135.266 108.852 135.266 108.57V108.43C135.266 107.878 134.985 107.586 134.433 107.586C133.893 107.586 133.612 107.878 133.612 108.43V108.57C133.612 108.852 133.72 109.068 133.947 109.176C133.677 109.295 133.558 109.544 133.558 109.879V110.257C133.558 110.787 133.806 111.166 134.433 111.166C135.05 111.176 135.309 110.798 135.309 110.268ZM134.163 108.387C134.163 108.17 134.239 108.051 134.423 108.051C134.617 108.051 134.693 108.17 134.693 108.387V108.624C134.693 108.841 134.617 108.96 134.423 108.96C134.228 108.96 134.163 108.83 134.163 108.624V108.387ZM134.715 110.333C134.715 110.549 134.639 110.701 134.423 110.701C134.217 110.701 134.142 110.549 134.142 110.333V109.76C134.142 109.544 134.217 109.403 134.423 109.403C134.639 109.403 134.715 109.554 134.715 109.76V110.333Z" fill="white"/>
<path d="M144.003 114.723L142.229 116.41C142.164 116.475 142.132 116.529 142.132 116.659V121.373C142.132 121.427 142.175 121.47 142.229 121.47H144.057C144.111 121.47 144.154 121.427 144.154 121.373V114.766C144.165 114.701 144.122 114.604 144.003 114.723ZM138.91 116.907L137.136 118.594C137.072 118.659 137.039 118.713 137.039 118.843V121.362C137.039 121.416 137.082 121.46 137.136 121.46H138.964C139.018 121.46 139.061 121.416 139.061 121.362V116.951C139.072 116.897 139.029 116.799 138.91 116.907Z" fill="white"/>
<path d="M144.814 112.68C144.814 112.669 144.814 112.647 144.803 112.636C144.792 112.625 144.781 112.625 144.77 112.625H144.749L143.397 112.928H143.376C143.365 112.928 143.354 112.939 143.354 112.939C143.332 112.961 143.332 112.993 143.354 113.015L143.365 113.026L143.678 113.339L140.607 116.41L139.191 114.994C139.18 114.983 139.148 114.983 139.137 114.994L138.748 115.383L136.477 117.654C136.466 117.664 136.466 117.697 136.477 117.708L136.866 118.097C136.877 118.108 136.909 118.108 136.92 118.097L139.169 115.859L140.197 116.886L140.586 117.275C140.597 117.286 140.629 117.286 140.64 117.275L144.122 113.793L144.446 114.118C144.468 114.139 144.5 114.139 144.522 114.118C144.533 114.107 144.533 114.096 144.533 114.085L144.835 112.701L144.814 112.68Z" fill="white"/>
<path d="M141.473 117.21L140.619 118.075C140.597 118.086 140.576 118.086 140.565 118.075L139.786 117.286C139.646 117.145 139.613 117.264 139.613 117.318V121.384C139.613 121.438 139.657 121.481 139.711 121.481H141.538C141.592 121.481 141.635 121.438 141.635 121.384V117.253C141.635 117.178 141.592 117.08 141.473 117.21Z" fill="white"/>
<path d="M137.32 107.997V108.657C137.32 108.873 137.234 109.035 136.974 109.035H136.606V107.619H136.974C137.234 107.619 137.32 107.781 137.32 107.997ZM136.942 108.841C137.039 108.841 137.082 108.787 137.082 108.7V107.954C137.082 107.867 137.05 107.813 136.942 107.813H136.844V108.841H136.942ZM137.471 107.619H138.045V107.813H137.709V108.224H137.947V108.419H137.709V108.851H138.045V109.046H137.471V107.619ZM138.164 108.668V107.976C138.164 107.749 138.272 107.597 138.52 107.597C138.78 107.597 138.856 107.749 138.856 107.954V108.127H138.639V107.932C138.639 107.846 138.607 107.792 138.52 107.792C138.434 107.792 138.401 107.857 138.401 107.943V108.711C138.401 108.797 138.434 108.862 138.52 108.862C138.607 108.862 138.639 108.808 138.639 108.722V108.462H138.856V108.711C138.856 108.916 138.769 109.068 138.52 109.068C138.272 109.057 138.164 108.884 138.164 108.668ZM139.007 107.619H139.58V107.813H139.245V108.224H139.483V108.419H139.245V108.851H139.58V109.046H139.007V107.619ZM139.915 108.138V109.035H139.71V107.619H139.948L140.207 108.43V107.619H140.402V109.035H140.196L139.915 108.138ZM140.532 107.619H141.17V107.813H140.975V109.035H140.737V107.813H140.542V107.619H140.532ZM142.045 108.159L141.916 109.035H141.689L141.494 107.619H141.721L141.829 108.516L141.948 107.619H142.143L142.272 108.516L142.381 107.619H142.586L142.402 109.035H142.186L142.045 108.159ZM142.683 108.668V107.976C142.683 107.749 142.791 107.597 143.04 107.597C143.289 107.597 143.408 107.759 143.408 107.976V108.668C143.408 108.884 143.3 109.046 143.04 109.046C142.791 109.057 142.683 108.884 142.683 108.668ZM143.159 108.711V107.943C143.159 107.857 143.127 107.792 143.04 107.792C142.954 107.792 142.921 107.857 142.921 107.943V108.711C142.921 108.797 142.954 108.862 143.04 108.862C143.127 108.851 143.159 108.797 143.159 108.711ZM143.797 108.387V109.035H143.559V107.619H143.905C144.143 107.619 144.23 107.738 144.23 107.932V108.116C144.23 108.268 144.176 108.354 144.035 108.387L144.262 109.035H144.013L143.797 108.387ZM143.797 107.813V108.257H143.873C143.959 108.257 143.992 108.214 143.992 108.138V107.932C143.992 107.857 143.959 107.813 143.873 107.813H143.797ZM144.619 108.343V109.035H144.381V107.619H144.619V108.246L144.878 107.619H145.116L144.835 108.257L145.116 109.035H144.868L144.619 108.343ZM145.451 109.035L145.722 107.619H145.992L146.262 109.035H146.014L145.97 108.776H145.722L145.679 109.035H145.451ZM145.754 108.581H145.949L145.852 108.008L145.754 108.581ZM146.544 108.138V109.035H146.338V107.619H146.576L146.836 108.43V107.619H147.03V109.035H146.825L146.544 108.138ZM147.906 107.997V108.657C147.906 108.873 147.82 109.035 147.56 109.035H147.192V107.619H147.56C147.82 107.619 147.906 107.781 147.906 107.997ZM147.528 108.841C147.625 108.841 147.668 108.787 147.668 108.7V107.954C147.668 107.867 147.636 107.813 147.528 107.813H147.43V108.841H147.528Z" fill="white"/>
<path d="M136.606 109.706H137.18V109.9H136.844V110.311H137.082V110.506H136.844V110.938H137.18V111.133H136.606V109.706ZM137.277 110.755V110.063C137.277 109.835 137.385 109.684 137.634 109.684C137.893 109.684 137.969 109.835 137.969 110.041V110.214H137.753V110.03C137.753 109.944 137.72 109.89 137.634 109.89C137.547 109.89 137.515 109.954 137.515 110.041V110.809C137.515 110.895 137.547 110.96 137.634 110.96C137.72 110.96 137.753 110.906 137.753 110.819V110.56H137.969V110.809C137.969 111.014 137.882 111.165 137.634 111.165C137.385 111.144 137.277 110.982 137.277 110.755ZM138.099 110.755V110.063C138.099 109.835 138.207 109.684 138.455 109.684C138.704 109.684 138.823 109.846 138.823 110.063V110.755C138.823 110.971 138.715 111.133 138.455 111.133C138.218 111.144 138.099 110.982 138.099 110.755ZM138.585 110.798V110.03C138.585 109.944 138.553 109.879 138.466 109.879C138.38 109.879 138.347 109.944 138.347 110.03V110.798C138.347 110.884 138.38 110.949 138.466 110.949C138.553 110.938 138.585 110.884 138.585 110.798ZM139.169 110.236V111.133H138.964V109.717H139.202L139.461 110.527V109.717H139.656V111.133H139.45L139.169 110.236ZM139.796 110.755V110.063C139.796 109.835 139.904 109.684 140.153 109.684C140.402 109.684 140.521 109.846 140.521 110.063V110.755C140.521 110.971 140.413 111.133 140.153 111.133C139.904 111.144 139.796 110.982 139.796 110.755ZM140.272 110.798V110.03C140.272 109.944 140.24 109.879 140.153 109.879C140.067 109.879 140.034 109.944 140.034 110.03V110.798C140.034 110.884 140.067 110.949 140.153 110.949C140.24 110.938 140.272 110.884 140.272 110.798ZM141.31 110.203L141.137 111.122H141.029L140.856 110.203V111.122H140.661V109.706H140.942L141.094 110.506L141.234 109.706H141.537V111.122H141.321L141.31 110.203ZM141.667 109.706H141.905V111.122H141.667V109.706ZM142.035 110.755V110.063C142.035 109.835 142.143 109.684 142.391 109.684C142.651 109.684 142.727 109.835 142.727 110.041V110.214H142.51V110.03C142.51 109.944 142.478 109.89 142.391 109.89C142.305 109.89 142.272 109.954 142.272 110.041V110.809C142.272 110.895 142.305 110.96 142.391 110.96C142.478 110.96 142.51 110.906 142.51 110.819V110.56H142.727V110.809C142.727 111.014 142.64 111.165 142.391 111.165C142.143 111.144 142.035 110.982 142.035 110.755ZM143.505 110.365H143.84V111.122H143.667V110.971C143.635 111.079 143.57 111.144 143.44 111.144C143.235 111.144 143.137 110.982 143.137 110.765V110.073C143.137 109.846 143.246 109.695 143.494 109.695C143.754 109.695 143.84 109.846 143.84 110.052V110.181H143.624V110.041C143.624 109.954 143.592 109.9 143.505 109.9C143.419 109.9 143.386 109.965 143.386 110.052V110.819C143.386 110.906 143.419 110.971 143.505 110.971C143.581 110.971 143.624 110.928 143.624 110.83V110.582H143.516V110.365H143.505ZM144.24 110.473V111.122H144.003V109.706H144.349C144.586 109.706 144.673 109.825 144.673 110.019V110.203C144.673 110.354 144.619 110.441 144.478 110.473L144.705 111.122H144.457L144.24 110.473ZM144.24 109.9V110.344H144.316C144.403 110.344 144.435 110.3 144.435 110.225V110.019C144.435 109.944 144.403 109.9 144.316 109.9H144.24ZM144.781 110.755V110.063C144.781 109.835 144.889 109.684 145.138 109.684C145.387 109.684 145.506 109.846 145.506 110.063V110.755C145.506 110.971 145.397 111.133 145.138 111.133C144.889 111.144 144.781 110.982 144.781 110.755ZM145.268 110.798V110.03C145.268 109.944 145.235 109.879 145.149 109.879C145.062 109.879 145.03 109.944 145.03 110.03V110.798C145.03 110.884 145.062 110.949 145.149 110.949C145.235 110.938 145.268 110.884 145.268 110.798ZM146.122 110.246L145.992 111.122H145.765L145.57 109.706H145.797L145.906 110.603L146.025 109.706H146.219L146.349 110.603L146.457 109.706H146.663L146.479 111.122H146.252L146.122 110.246ZM146.749 109.706H147.387V109.9H147.192V111.122H146.944V109.9H146.749V109.706ZM147.928 110.495H147.701V111.122H147.463V109.706H147.701V110.311H147.928V109.706H148.166V111.122H147.928V110.495Z" fill="white"/>
<path d="M163.312 104.04C169.395 104.04 174.327 99.1082 174.327 93.0248C174.327 86.9413 169.395 82.0098 163.312 82.0098C157.228 82.0098 152.297 86.9413 152.297 93.0248C152.297 99.1082 157.228 104.04 163.312 104.04Z" fill="#FD6925"/>
<path d="M158.437 87.4026C158.437 86.9237 158.226 86.5693 157.68 86.5693C157.125 86.5693 156.914 86.8758 156.914 87.3548V87.8145C156.914 88.3222 157.115 88.5808 157.489 88.5808C157.709 88.5808 157.843 88.4754 157.92 88.3317V89.0022C157.92 89.1938 157.843 89.3183 157.661 89.3183C157.47 89.3183 157.403 89.2129 157.403 89.0118V88.8011H156.924V88.9639C156.924 89.4237 157.086 89.7397 157.671 89.7397C158.217 89.7397 158.437 89.3853 158.437 88.8969V87.4026ZM157.92 87.8816C157.91 88.054 157.834 88.1689 157.671 88.1689C157.489 88.1689 157.422 88.0635 157.422 87.8528V87.3164C157.422 87.1153 157.498 87.0004 157.671 87.0004C157.843 87.0004 157.91 87.1153 157.91 87.3164V87.8816H157.92ZM167.172 95.4675L165.343 94.4139V92.2971C165.343 92.2492 165.324 92.2109 165.276 92.1918L163.379 91.0999C163.341 91.0807 163.293 91.0807 163.255 91.0999L161.358 92.1918C161.32 92.2109 161.291 92.2588 161.291 92.2971V94.4139L159.462 95.4675C159.424 95.4867 159.395 95.5346 159.395 95.5729V97.7567C159.395 97.8046 159.414 97.8429 159.462 97.8621L161.358 98.954C161.378 98.9636 161.397 98.9732 161.425 98.9732C161.445 98.9732 161.473 98.9636 161.492 98.954L163.322 97.9004L165.151 98.954C165.171 98.9636 165.19 98.9732 165.218 98.9732C165.247 98.9732 165.266 98.9636 165.285 98.954L167.182 97.8621C167.22 97.8429 167.249 97.795 167.249 97.7567V95.5729C167.23 95.525 167.211 95.4867 167.172 95.4675ZM163.188 97.546L161.665 96.6648L163.188 95.7836V97.546ZM164.96 94.481L163.437 95.3622V93.6094L164.96 94.481ZM163.188 95.3526L161.665 94.4714L163.188 93.5902V95.3526ZM163.571 95.5729L165.218 94.6247L166.866 95.5729L165.218 96.5211L163.571 95.5729ZM165.084 94.2607L163.561 93.3795L165.084 92.4983V94.2607ZM163.063 93.3891L161.54 94.2703V92.5174L163.063 93.3891ZM161.301 98.6379L159.653 97.6897V95.7932L161.301 96.7414V98.6379ZM161.55 98.6379V96.8851L163.073 97.7663L161.55 98.6379ZM166.981 97.6897L165.333 98.6379V96.7414L166.981 95.7932V97.6897Z" fill="white"/>
<path d="M159.251 86.6458H159.452V87.8144H159.251V86.6458ZM159.73 87.0864V87.8239H159.567V86.6554H159.759L159.969 87.3259V86.6554H160.132V87.8239H159.96L159.73 87.0864ZM160.841 86.9619V87.5079C160.841 87.6898 160.764 87.8239 160.554 87.8239H160.247V86.6554H160.554C160.774 86.6458 160.841 86.7799 160.841 86.9619ZM160.534 87.6611C160.611 87.6611 160.649 87.6132 160.649 87.5462V86.9332C160.649 86.8661 160.621 86.8182 160.534 86.8182H160.448V87.6707L160.534 87.6611ZM161.54 86.6458V87.527C161.54 87.709 161.464 87.8239 161.262 87.8239C161.052 87.8239 160.965 87.709 160.965 87.527V86.6458H161.167V87.5462C161.167 87.6132 161.195 87.6611 161.262 87.6611C161.329 87.6611 161.358 87.6132 161.358 87.5462V86.6458H161.54ZM161.646 87.5653V87.4121H161.828V87.5749C161.828 87.6419 161.856 87.6803 161.923 87.6803C161.981 87.6803 162.01 87.6419 162.01 87.5749V87.527C162.01 87.46 161.981 87.4216 161.923 87.3642L161.808 87.2492C161.693 87.1343 161.646 87.0673 161.646 86.9332V86.8948C161.646 86.7512 161.732 86.6362 161.923 86.6362C162.124 86.6362 162.201 86.732 162.201 86.9044V87.0002H162.019V86.8948C162.019 86.8278 161.99 86.7991 161.923 86.7991C161.866 86.7991 161.828 86.8278 161.828 86.8948V86.9236C161.828 86.9906 161.866 87.0289 161.923 87.0864L162.048 87.2109C162.153 87.3163 162.211 87.3833 162.211 87.5174V87.5749C162.211 87.7377 162.124 87.8527 161.923 87.8527C161.722 87.8335 161.646 87.7186 161.646 87.5653ZM162.259 86.6458H162.785V86.8086H162.623V87.8144H162.421V86.8086H162.259V86.6458ZM163.073 87.278V87.8144H162.881V86.6458H163.168C163.37 86.6458 163.437 86.7416 163.437 86.9044V87.0577C163.437 87.1822 163.389 87.2588 163.283 87.2876L163.475 87.8144H163.264L163.073 87.278ZM163.073 86.8086V87.1726H163.14C163.207 87.1726 163.236 87.1343 163.236 87.0768V86.9044C163.236 86.8374 163.207 86.8086 163.14 86.8086H163.073ZM163.896 87.3738V87.8144H163.695V87.3738L163.475 86.6458H163.676L163.791 87.0864L163.906 86.6458H164.098L163.896 87.3738ZM164.308 87.6419L164.213 87.9101H164.098L164.126 87.6324H164.308V87.6419ZM164.624 86.6458H164.826V87.8144H164.624V86.6458ZM165.103 87.0864V87.8239H164.94V86.6554H165.132L165.343 87.3259V86.6554H165.506V87.8239H165.333L165.103 87.0864ZM165.793 87.0864V87.8239H165.63V86.6554H165.822L166.032 87.3259V86.6554H166.195V87.8239H166.023L165.793 87.0864ZM166.32 87.5174V86.9523C166.32 86.7703 166.406 86.6362 166.617 86.6362C166.827 86.6362 166.914 86.7703 166.914 86.9523V87.5174C166.914 87.6994 166.827 87.8335 166.617 87.8335C166.406 87.8335 166.32 87.6994 166.32 87.5174ZM166.722 87.5462V86.914C166.722 86.847 166.693 86.7895 166.617 86.7895C166.55 86.7895 166.521 86.8374 166.521 86.914V87.5462C166.521 87.6132 166.55 87.6707 166.617 87.6707C166.684 87.6707 166.722 87.6228 166.722 87.5462ZM167.67 86.6458L167.45 87.8144H167.239L167.019 86.6458H167.22L167.354 87.46L167.488 86.6458H167.67ZM167.642 87.8144L167.862 86.6458H168.082L168.302 87.8144H168.101L168.063 87.6036H167.862L167.824 87.8144H167.642ZM167.881 87.4504H168.034L167.958 86.981L167.881 87.4504ZM168.283 86.6458H168.81V86.8086H168.647V87.8144H168.446V86.8086H168.283V86.6458ZM168.906 86.6458H169.107V87.8144H168.906V86.6458ZM169.232 87.5174V86.9523C169.232 86.7703 169.318 86.6362 169.528 86.6362C169.739 86.6362 169.825 86.7703 169.825 86.9523V87.5174C169.825 87.6994 169.739 87.8335 169.528 87.8335C169.318 87.8335 169.232 87.6994 169.232 87.5174ZM169.624 87.5462V86.914C169.624 86.847 169.596 86.7895 169.519 86.7895C169.452 86.7895 169.423 86.8374 169.423 86.914V87.5462C169.423 87.6132 169.452 87.6707 169.519 87.6707C169.596 87.6707 169.624 87.6228 169.624 87.5462ZM170.113 87.0864V87.8239H169.95V86.6554H170.141L170.352 87.3259V86.6554H170.515V87.8239H170.343L170.113 87.0864Z" fill="white"/>
<path d="M159.213 89.6726L159.433 88.504H159.653L159.874 89.6726H159.673L159.634 89.4618H159.433L159.395 89.6726H159.213ZM159.462 89.299H159.615L159.539 88.8297L159.462 89.299ZM160.123 88.935V89.6726H159.96V88.504H160.152L160.362 89.1745V88.504H160.525V89.6726H160.353L160.123 88.935ZM161.234 88.8105V89.3565C161.234 89.5385 161.157 89.6726 160.947 89.6726H160.64V88.504H160.947C161.157 88.504 161.234 88.6381 161.234 88.8105ZM160.927 89.5097C161.004 89.5097 161.042 89.4618 161.042 89.3948V88.7818C161.042 88.7147 161.014 88.6669 160.927 88.6669H160.841V89.5193L160.927 89.5097ZM161.54 88.504H161.742V89.6726H161.54V88.504ZM162.029 88.935V89.6726H161.866V88.504H162.058L162.268 89.1745V88.504H162.431V89.6726H162.259L162.029 88.935ZM162.556 88.504H163.015V88.6669H162.747V89.0021H162.948V89.1649H162.747V89.6821H162.546L162.556 88.504ZM163.303 89.1362V89.6726H163.102V88.504H163.389C163.59 88.504 163.657 88.5998 163.657 88.7626V88.9159C163.657 89.0404 163.609 89.117 163.504 89.1458L163.696 89.6726H163.485L163.303 89.1362ZM163.303 88.6573V89.0212H163.37C163.437 89.0212 163.466 88.9829 163.466 88.9255V88.7531C163.466 88.686 163.437 88.6573 163.37 88.6573H163.303ZM163.753 89.6726L163.973 88.504H164.194L164.414 89.6726H164.213L164.174 89.4618H163.964L163.925 89.6726H163.753ZM163.992 89.299H164.146L164.069 88.8297L163.992 89.299ZM164.481 89.414V89.2607H164.663V89.4235C164.663 89.4906 164.692 89.5289 164.759 89.5289C164.816 89.5289 164.845 89.4906 164.845 89.4235V89.3756C164.845 89.3086 164.816 89.2703 164.759 89.2128L164.644 89.0979C164.529 88.9829 164.481 88.9159 164.481 88.7818V88.7435C164.481 88.5998 164.567 88.4849 164.759 88.4849C164.96 88.4849 165.036 88.5806 165.036 88.7531V88.8488H164.854V88.7435C164.854 88.6764 164.826 88.6477 164.759 88.6477C164.701 88.6477 164.663 88.6764 164.663 88.7435V88.7722C164.663 88.8393 164.701 88.8776 164.759 88.935L164.883 89.0596C164.989 89.1649 165.046 89.232 165.046 89.3661V89.4235C165.046 89.5864 164.96 89.7013 164.759 89.7013C164.558 89.7013 164.481 89.5672 164.481 89.414ZM165.104 88.504H165.63V88.6669H165.467V89.6726H165.266V88.6669H165.104V88.504ZM165.927 89.1362V89.6726H165.726V88.504H166.013C166.215 88.504 166.282 88.5998 166.282 88.7626V88.9159C166.282 89.0404 166.234 89.117 166.128 89.1458L166.32 89.6726H166.109L165.927 89.1362ZM165.927 88.6573V89.0212H165.994C166.061 89.0212 166.09 88.9829 166.09 88.9255V88.7531C166.09 88.686 166.061 88.6573 165.994 88.6573H165.927ZM166.971 88.504V89.3852C166.971 89.5672 166.895 89.6821 166.693 89.6821C166.483 89.6821 166.397 89.5672 166.397 89.3852V88.504H166.598V89.4044C166.598 89.4714 166.626 89.5193 166.693 89.5193C166.761 89.5193 166.789 89.4714 166.789 89.4044V88.504H166.971ZM167.096 89.3661V88.8009C167.096 88.619 167.182 88.4849 167.393 88.4849C167.613 88.4849 167.67 88.6094 167.67 88.7818V88.9159H167.488V88.7626C167.488 88.686 167.46 88.6477 167.393 88.6477C167.326 88.6477 167.297 88.6956 167.297 88.7722V89.4044C167.297 89.4714 167.326 89.5289 167.393 89.5289C167.46 89.5289 167.488 89.481 167.488 89.414V89.1937H167.67V89.3948C167.67 89.5576 167.603 89.6821 167.393 89.6821C167.182 89.6821 167.096 89.548 167.096 89.3661ZM167.709 88.504H168.236V88.6669H168.073V89.6726H167.872V88.6669H167.709V88.504ZM168.906 88.504V89.3852C168.906 89.5672 168.829 89.6821 168.628 89.6821C168.418 89.6821 168.331 89.5672 168.331 89.3852V88.504H168.533V89.4044C168.533 89.4714 168.561 89.5193 168.628 89.5193C168.695 89.5193 168.724 89.4714 168.724 89.4044V88.504H168.906ZM169.222 89.1362V89.6726H169.021V88.504H169.308C169.51 88.504 169.577 88.5998 169.577 88.7626V88.9159C169.577 89.0404 169.529 89.117 169.423 89.1458L169.615 89.6726H169.404L169.222 89.1362ZM169.222 88.6573V89.0212H169.289C169.356 89.0212 169.385 88.9829 169.385 88.9255V88.7531C169.385 88.686 169.356 88.6573 169.289 88.6573H169.222ZM169.701 88.504H170.17V88.6669H169.902V89.0021H170.094V89.1649H169.902V89.5193H170.17V89.6821H169.701V88.504Z" fill="white"/>
<path d="M168.404 74.5484C171.345 74.5484 173.729 72.1644 173.729 69.2234C173.729 66.2825 171.345 63.8984 168.404 63.8984C165.463 63.8984 163.079 66.2825 163.079 69.2234C163.079 72.1644 165.463 74.5484 168.404 74.5484Z" fill="#DD1367"/>
<path d="M192.796 63.503C209.141 63.503 222.391 50.2529 222.391 33.908C222.391 17.5631 209.141 4.31299 192.796 4.31299C176.451 4.31299 163.201 17.5631 163.201 33.908C163.201 50.2529 176.451 63.503 192.796 63.503Z" fill="#FD9D24"/>
<path d="M175.246 18.3382V19.8051L176.25 18.7757V25.1579H177.665V16.8198H176.533L175.246 18.3382ZM178.437 18.3382V19.8051H178.463L179.441 18.7757V25.1579H180.856V16.8198H179.724L178.437 18.3382Z" fill="white"/>
<path d="M179.105 44.871H185.333C185.41 44.871 185.488 44.7938 185.488 44.7166C185.488 44.6651 185.462 44.6394 185.436 44.6136L182.348 40.599L182.322 40.5733C182.296 40.5476 182.245 40.5218 182.219 40.5218C182.193 40.5218 182.142 40.5476 182.116 40.5733L182.091 40.599L182.065 40.6248L179.028 44.5879L178.977 44.6394C178.951 44.6651 178.951 44.6909 178.951 44.7166C178.951 44.7938 179.028 44.871 179.105 44.871ZM185.307 45.4372H179.054C178.977 45.4372 178.899 45.5144 178.899 45.5916V50.4812C178.899 50.5584 178.977 50.6356 179.054 50.6356H181.061V47.5732C181.061 47.4959 181.138 47.4187 181.216 47.4187H183.068C183.146 47.4187 183.223 47.4959 183.223 47.5732V50.6356H185.282C185.359 50.6356 185.436 50.5584 185.436 50.4812V45.5916C185.462 45.5144 185.41 45.4372 185.307 45.4372ZM206.873 44.1504H200.697C200.62 44.1504 200.542 44.2276 200.542 44.3048V50.5327C200.542 50.6099 200.62 50.6871 200.697 50.6871H206.873C206.95 50.6871 207.028 50.6099 207.028 50.5327V44.3048C207.028 44.2276 206.976 44.1504 206.873 44.1504ZM203.502 48.2423C203.502 48.3195 203.425 48.3967 203.347 48.3967H201.495C201.417 48.3967 201.34 48.3195 201.34 48.2423V47.1099C201.34 47.0327 201.417 46.9555 201.495 46.9555H203.347C203.425 46.9555 203.502 47.0327 203.502 47.1099V48.2423ZM203.502 46.1577C203.502 46.2349 203.425 46.3121 203.347 46.3121H201.495C201.417 46.3121 201.34 46.2349 201.34 46.1577V45.0254C201.34 44.9482 201.417 44.871 201.495 44.871H203.347C203.425 44.871 203.502 44.9482 203.502 45.0254V46.1577ZM206.333 48.2423C206.333 48.3195 206.255 48.3967 206.178 48.3967H204.325C204.248 48.3967 204.171 48.3195 204.171 48.2423V47.1099C204.171 47.0327 204.248 46.9555 204.325 46.9555H206.178C206.255 46.9555 206.333 47.0327 206.333 47.1099V48.2423ZM206.333 46.1577C206.333 46.2349 206.255 46.3121 206.178 46.3121H204.325C204.248 46.3121 204.171 46.2349 204.171 46.1577V45.0254C204.171 44.9482 204.248 44.871 204.325 44.871H206.178C206.255 44.871 206.333 44.9482 206.333 45.0254V46.1577ZM192.513 29.6875H186.491C186.414 29.6875 186.337 29.7647 186.337 29.8419V50.5069C186.337 50.5841 186.414 50.6613 186.491 50.6613H192.539C192.616 50.6613 192.693 50.5841 192.693 50.5069V29.8419C192.668 29.739 192.616 29.6875 192.513 29.6875ZM188.936 48.2937C188.936 48.3452 188.91 48.3709 188.859 48.3709H187.469C187.418 48.3709 187.392 48.3452 187.392 48.2937V46.7496C187.392 46.6982 187.418 46.6724 187.469 46.6724H188.859C188.91 46.6724 188.936 46.6982 188.936 46.7496V48.2937ZM188.936 44.7423C188.936 44.7938 188.91 44.8195 188.859 44.8195H187.469C187.418 44.8195 187.392 44.7938 187.392 44.7423V43.1982C187.392 43.1468 187.418 43.121 187.469 43.121H188.859C188.91 43.121 188.936 43.1468 188.936 43.1982V44.7423ZM188.936 41.1909C188.936 41.2424 188.91 41.2681 188.859 41.2681H187.469C187.418 41.2681 187.392 41.2424 187.392 41.1909V39.6468C187.392 39.5954 187.418 39.5696 187.469 39.5696H188.859C188.91 39.5696 188.936 39.5954 188.936 39.6468V41.1909ZM188.936 37.6653C188.936 37.7168 188.91 37.7425 188.859 37.7425H187.469C187.418 37.7425 187.392 37.7168 187.392 37.6653V36.1212C187.392 36.0697 187.418 36.044 187.469 36.044H188.859C188.91 36.044 188.936 36.0697 188.936 36.1212V37.6653ZM188.936 34.1139C188.936 34.1654 188.91 34.1911 188.859 34.1911H187.469C187.418 34.1911 187.392 34.1654 187.392 34.1139V32.5698C187.392 32.5183 187.418 32.4926 187.469 32.4926H188.859C188.91 32.4926 188.936 32.5183 188.936 32.5698V34.1139ZM191.638 48.2937C191.638 48.3452 191.612 48.3709 191.561 48.3709H190.171C190.12 48.3709 190.094 48.3452 190.094 48.2937V46.7496C190.094 46.6982 190.12 46.6724 190.171 46.6724H191.561C191.612 46.6724 191.638 46.6982 191.638 46.7496V48.2937ZM191.638 44.7423C191.638 44.7938 191.612 44.8195 191.561 44.8195H190.171C190.12 44.8195 190.094 44.7938 190.094 44.7423V43.1982C190.094 43.1468 190.12 43.121 190.171 43.121H191.561C191.612 43.121 191.638 43.1468 191.638 43.1982V44.7423ZM191.638 41.1909C191.638 41.2424 191.612 41.2681 191.561 41.2681H190.171C190.12 41.2681 190.094 41.2424 190.094 41.1909V39.6468C190.094 39.5954 190.12 39.5696 190.171 39.5696H191.561C191.612 39.5696 191.638 39.5954 191.638 39.6468V41.1909ZM191.638 37.6653C191.638 37.7168 191.612 37.7425 191.561 37.7425H190.171C190.12 37.7425 190.094 37.7168 190.094 37.6653V36.1212C190.094 36.0697 190.12 36.044 190.171 36.044H191.561C191.612 36.044 191.638 36.0697 191.638 36.1212V37.6653ZM191.638 34.1139C191.638 34.1654 191.612 34.1911 191.561 34.1911H190.171C190.12 34.1911 190.094 34.1654 190.094 34.1139V32.5698C190.094 32.5183 190.12 32.4926 190.171 32.4926H191.561C191.612 32.4926 191.638 32.5183 191.638 32.5698V34.1139ZM207.028 43.5328C207.028 43.61 206.976 43.6615 206.899 43.6615H200.671C200.594 43.6615 200.542 43.61 200.542 43.5328V42.2975C200.542 42.2203 200.594 42.1688 200.671 42.1688H206.899C206.976 42.1688 207.028 42.2203 207.028 42.2975V43.5328ZM199.822 33.5735C199.796 33.4962 199.745 33.4705 199.667 33.4705C199.642 33.4705 199.616 33.4705 199.59 33.4962L199.539 33.5477L193.594 41.088L193.568 41.1137C193.543 41.1395 193.517 41.1909 193.517 41.2424V50.5069C193.517 50.5841 193.594 50.6613 193.671 50.6613H199.719C199.796 50.6613 199.873 50.5841 199.873 50.5069V33.6249C199.848 33.6249 199.848 33.5992 199.822 33.5735ZM197.326 37.6653L197.377 37.6138C197.789 37.0991 198.458 36.2499 198.792 35.8381L198.844 35.7866C198.87 35.7609 198.921 35.7352 198.973 35.7352C199.05 35.7352 199.127 35.7866 199.127 35.8638V37.7682C199.127 37.8712 199.05 37.9226 198.973 37.9484H197.48C197.377 37.9484 197.326 37.8712 197.326 37.7682C197.3 37.7425 197.3 37.691 197.326 37.6653ZM196.373 48.2165C196.373 48.2937 196.296 48.3709 196.219 48.3709H194.417C194.34 48.3709 194.263 48.2937 194.263 48.2165V47.0842C194.263 47.007 194.34 46.9298 194.417 46.9298H196.219C196.296 46.9298 196.373 47.007 196.373 47.0842V48.2165ZM196.373 46.1577C196.373 46.2349 196.296 46.3121 196.219 46.3121H194.417C194.34 46.3121 194.263 46.2349 194.263 46.1577V45.0254C194.263 44.9482 194.34 44.871 194.417 44.871H196.219C196.296 44.871 196.373 44.9482 196.373 45.0254V46.1577ZM196.373 44.0732C196.373 44.1504 196.296 44.2276 196.219 44.2276H194.417C194.34 44.2276 194.263 44.1504 194.263 44.0732V42.9409C194.263 42.8637 194.34 42.7865 194.417 42.7865H196.219C196.296 42.7865 196.373 42.8637 196.373 42.9409V44.0732ZM196.399 39.4924V41.963C196.399 42.0402 196.322 42.1174 196.245 42.1174H194.443C194.366 42.1174 194.289 42.0402 194.289 41.963V41.6541V41.6027V41.5769C194.289 41.5769 194.289 41.5512 194.315 41.5512C194.315 41.5512 194.315 41.5255 194.34 41.5255C194.572 41.1909 195.601 39.9042 196.039 39.3895L196.09 39.338C196.116 39.3123 196.167 39.2865 196.219 39.2865C196.296 39.2865 196.373 39.338 196.373 39.4152V39.4924H196.399ZM199.153 48.2165C199.153 48.2937 199.075 48.3709 198.998 48.3709H197.197C197.12 48.3709 197.042 48.2937 197.042 48.2165V47.0842C197.042 47.007 197.12 46.9298 197.197 46.9298H198.998C199.075 46.9298 199.153 47.007 199.153 47.0842V48.2165ZM199.153 46.1577C199.153 46.2349 199.075 46.3121 198.998 46.3121H197.197C197.12 46.3121 197.042 46.2349 197.042 46.1577V45.0254C197.042 44.9482 197.12 44.871 197.197 44.871H198.998C199.075 44.871 199.153 44.9482 199.153 45.0254V46.1577ZM199.153 44.0732C199.153 44.1504 199.075 44.2276 198.998 44.2276H197.197C197.12 44.2276 197.042 44.1504 197.042 44.0732V42.9409C197.042 42.8637 197.12 42.7865 197.197 42.7865H198.998C199.075 42.7865 199.153 42.8637 199.153 42.9409V44.0732ZM199.153 41.9887C199.153 42.0659 199.075 42.1431 198.998 42.1431H197.197C197.12 42.1431 197.042 42.0659 197.042 41.9887V40.8564C197.042 40.7792 197.12 40.702 197.197 40.702H198.998C199.075 40.702 199.153 40.7792 199.153 40.8564V41.9887ZM199.153 39.9042C199.153 39.9814 199.075 40.0586 198.998 40.0586H197.197C197.12 40.0586 197.042 39.9814 197.042 39.9042V38.7719C197.042 38.6947 197.12 38.6175 197.197 38.6175H198.998C199.075 38.6175 199.153 38.6947 199.153 38.7719V39.9042Z" fill="white"/>
<path d="M183.583 19.4707V19.0075H184.123V19.4707C184.123 19.6509 184.201 19.7795 184.407 19.7795C184.587 19.7795 184.664 19.6509 184.664 19.4707V19.342C184.664 19.1362 184.587 19.0332 184.407 18.8531L184.072 18.5185C183.737 18.2097 183.609 18.0038 183.609 17.6178V17.5149C183.609 17.1031 183.866 16.7686 184.407 16.7686C184.973 16.7686 185.204 17.0516 185.204 17.5406V17.8237H184.69V17.5406C184.69 17.3347 184.612 17.2575 184.432 17.2575C184.278 17.2575 184.175 17.3347 184.175 17.5406V17.6178C184.175 17.7979 184.278 17.9266 184.432 18.081L184.793 18.4413C185.101 18.7501 185.256 18.956 185.256 19.3163V19.4707C185.256 19.9339 184.998 20.2685 184.432 20.2685C183.866 20.2685 183.583 19.9082 183.583 19.4707ZM187.109 16.82V19.3678C187.109 19.8825 186.877 20.2428 186.311 20.2428C185.719 20.2428 185.462 19.9082 185.462 19.3678V16.82H186.028V19.445C186.028 19.6509 186.105 19.7795 186.311 19.7795C186.517 19.7795 186.594 19.6509 186.594 19.445V16.82H187.109ZM187.417 19.4707V19.0075H187.958V19.4707C187.958 19.6509 188.035 19.7795 188.241 19.7795C188.421 19.7795 188.498 19.6509 188.498 19.4707V19.342C188.498 19.1362 188.421 19.0332 188.241 18.8531L187.906 18.5185C187.572 18.2097 187.443 18.0038 187.443 17.6178V17.5149C187.443 17.1031 187.675 16.7686 188.241 16.7686C188.807 16.7686 189.039 17.0516 189.039 17.5406V17.8237H188.524V17.5406C188.524 17.3347 188.447 17.2575 188.267 17.2575C188.112 17.2575 188.009 17.3347 188.009 17.5406V17.6178C188.009 17.7979 188.112 17.9266 188.267 18.081L188.627 18.4413C188.936 18.7501 189.09 18.956 189.09 19.3163V19.4707C189.09 19.9339 188.833 20.2685 188.267 20.2685C187.623 20.2428 187.417 19.9082 187.417 19.4707ZM189.167 16.82H190.686V17.2833H190.223V20.1913H189.656V17.2833H189.193V16.82H189.167ZM190.583 20.1913L191.226 16.82H191.87L192.513 20.1913H191.921L191.818 19.5736H191.226L191.123 20.1913H190.583ZM191.303 19.1104H191.767L191.535 17.7465L191.303 19.1104ZM192.745 16.82H193.311V20.1913H192.745V16.82ZM194.109 18.0553V20.1913H193.62V16.82H194.186L194.803 18.7501V16.82H195.267V20.1913H194.778L194.109 18.0553ZM195.472 20.1913L196.116 16.82H196.759L197.403 20.1913H196.811L196.708 19.5736H196.116L196.013 20.1913H195.472ZM196.193 19.1104H196.656L196.425 17.7465L196.193 19.1104ZM197.583 16.82H198.406C198.972 16.82 199.152 17.0774 199.152 17.5663V17.9009C199.152 18.184 199.05 18.3641 198.818 18.4413C199.101 18.5185 199.23 18.6987 199.23 19.0075V19.445C199.23 19.9339 199.024 20.1913 198.458 20.1913H197.583V16.82ZM198.149 18.2354H198.355C198.535 18.2354 198.612 18.1325 198.612 17.9524V17.5406C198.612 17.3605 198.535 17.2575 198.329 17.2575H198.123L198.149 18.2354ZM198.149 18.6729V19.7281H198.406C198.586 19.7281 198.689 19.6251 198.689 19.445V18.9303C198.689 18.7501 198.612 18.6472 198.406 18.6472H198.149V18.6729ZM199.487 16.82H200.053V19.7281H200.722V20.1913H199.487V16.82ZM200.954 16.82H202.318V17.2833H201.52V18.2612H202.086V18.7244H201.52V19.7538H202.318V20.217H200.954V16.82ZM203.27 19.3163V17.6693C203.27 17.1288 203.527 16.7686 204.119 16.7686C204.737 16.7686 204.917 17.1288 204.917 17.6178V18.0296H204.402V17.5663C204.402 17.3605 204.325 17.2318 204.119 17.2318C203.913 17.2318 203.836 17.3862 203.836 17.5921V19.4192C203.836 19.6251 203.913 19.7795 204.119 19.7795C204.325 19.7795 204.402 19.6509 204.402 19.445V18.8273H204.917V19.4192C204.917 19.9082 204.711 20.2685 204.119 20.2685C203.502 20.2428 203.27 19.831 203.27 19.3163ZM205.174 16.82H205.741V20.1913H205.174V16.82ZM205.946 16.82H207.465V17.2833H207.002V20.1913H206.435V17.2833H205.972V16.82H205.946ZM207.696 16.82H208.263V20.1913H207.696V16.82ZM208.571 16.82H209.935V17.2833H209.138V18.2612H209.704V18.7244H209.138V19.7538H209.935V20.217H208.571V16.82ZM210.064 19.4707V19.0075H210.604V19.4707C210.604 19.6509 210.682 19.7795 210.888 19.7795C211.068 19.7795 211.145 19.6509 211.145 19.4707V19.342C211.145 19.1362 211.068 19.0332 210.888 18.8531L210.553 18.5185C210.218 18.2097 210.09 18.0038 210.09 17.6178V17.5149C210.09 17.1031 210.347 16.7686 210.888 16.7686C211.454 16.7686 211.685 17.0516 211.685 17.5406V17.8237H211.171V17.5406C211.171 17.3347 211.093 17.2575 210.913 17.2575C210.759 17.2575 210.656 17.3347 210.656 17.5406V17.6178C210.656 17.7979 210.759 17.9266 210.913 18.081L211.274 18.4413C211.582 18.7501 211.737 18.956 211.737 19.3163V19.4707C211.737 19.9339 211.479 20.2685 210.913 20.2685C210.347 20.2685 210.064 19.9082 210.064 19.4707Z" fill="white"/>
<path d="M183.583 25.1581L184.226 21.7868H184.87L185.513 25.1581H184.947L184.844 24.5404H184.252L184.149 25.1581H183.583ZM184.304 24.103H184.767L184.535 22.739L184.304 24.103ZM186.234 23.0478V25.1838H185.745V21.8126H186.311L186.929 23.7427V21.8126H187.392V25.1838H186.903L186.234 23.0478ZM189.425 22.6875V24.2574C189.425 24.7721 189.219 25.1581 188.601 25.1581H187.726V21.7868H188.601C189.193 21.7868 189.425 22.1728 189.425 22.6875ZM188.524 24.6949C188.756 24.6949 188.859 24.5662 188.859 24.3603V22.5846C188.859 22.3787 188.781 22.25 188.524 22.25H188.292V24.6949H188.524ZM190.248 24.2831V22.6361C190.248 22.0956 190.506 21.7354 191.098 21.7354C191.715 21.7354 191.895 22.0956 191.895 22.5846V22.9964H191.381V22.5589C191.381 22.353 191.303 22.2243 191.098 22.2243C190.892 22.2243 190.814 22.3787 190.814 22.5846V24.4118C190.814 24.6176 190.892 24.7721 191.098 24.7721C191.303 24.7721 191.381 24.6434 191.381 24.4375V23.8199H191.895V24.4118C191.895 24.9007 191.689 25.261 191.098 25.261C190.48 25.2095 190.248 24.8235 190.248 24.2831ZM192.204 24.2831V22.6361C192.204 22.0956 192.462 21.7354 193.053 21.7354C193.645 21.7354 193.928 22.1214 193.928 22.6361V24.2831C193.928 24.7978 193.671 25.1838 193.053 25.1838C192.462 25.2095 192.204 24.8235 192.204 24.2831ZM193.336 24.386V22.5589C193.336 22.353 193.259 22.1986 193.053 22.1986C192.848 22.1986 192.77 22.353 192.77 22.5589V24.386C192.77 24.5919 192.848 24.7463 193.053 24.7463C193.259 24.7206 193.336 24.5919 193.336 24.386ZM195.807 22.9706L195.395 25.1581H195.138L194.726 22.9706V25.1581H194.263V21.7868H194.932L195.292 23.6912L195.627 21.7868H196.347V25.1581H195.833L195.807 22.9706ZM198.2 22.9706L197.789 25.1581H197.531L197.12 22.9706V25.1581H196.656V21.7868H197.325L197.686 23.6912L198.02 21.7868H198.741V25.1581H198.226V22.9706H198.2ZM200.697 21.7868V24.3346C200.697 24.8493 200.465 25.2095 199.899 25.2095C199.307 25.2095 199.05 24.875 199.05 24.3346V21.7868H199.616V24.4118C199.616 24.6176 199.693 24.7463 199.899 24.7463C200.105 24.7463 200.182 24.6176 200.182 24.4118V21.7868H200.697ZM201.469 23.0478V25.1838H200.98V21.8126H201.546L202.163 23.7427V21.8126H202.627V25.1838H202.138L201.469 23.0478ZM202.961 21.7868H203.527V25.1581H202.961V21.7868ZM203.785 21.7868H205.303V22.25H204.84V25.1581H204.248V22.25H203.785V21.7868ZM205.56 21.7868H206.127V25.1581H205.56V21.7868ZM206.435 21.7868H207.799V22.25H207.002V23.228H207.568V23.6912H207.002V24.7206H207.799V25.1838H206.435V21.7868ZM208.031 24.4375V23.9743H208.571V24.4375C208.571 24.6176 208.649 24.7463 208.855 24.7463C209.035 24.7463 209.112 24.6176 209.112 24.4375V24.3088C209.112 24.103 209.035 24 208.855 23.8199L208.52 23.4853C208.185 23.1765 208.057 22.9706 208.057 22.5846V22.4817C208.057 22.0699 208.288 21.7354 208.855 21.7354C209.421 21.7354 209.652 22.0184 209.652 22.5074V22.7905H209.138V22.5074C209.138 22.3015 209.06 22.2243 208.88 22.2243C208.726 22.2243 208.623 22.3015 208.623 22.5074V22.5846C208.623 22.7647 208.726 22.8934 208.88 23.0478L209.241 23.4081C209.549 23.7169 209.704 23.9228 209.704 24.2831V24.4375C209.704 24.9007 209.446 25.2353 208.88 25.2353C208.263 25.2095 208.031 24.875 208.031 24.4375Z" fill="white"/>
<path d="M191.365 93.3719C197.41 93.3719 202.31 88.4717 202.31 82.4269C202.31 76.3822 197.41 71.4819 191.365 71.4819C185.32 71.4819 180.42 76.3822 180.42 82.4269C180.42 88.4717 185.32 93.3719 191.365 93.3719Z" fill="#BF8B2E"/>
<path d="M185.283 76.8307H185.293V79.2006H185.807V76.1074H185.397L184.912 76.6689V77.2114H184.922L185.283 76.8307ZM186.121 76.7451V77.1162H186.597V76.726C186.597 76.5357 186.692 76.4881 186.797 76.4881C186.901 76.4881 186.987 76.5262 186.987 76.7165V76.9735C186.987 77.2305 186.968 77.3256 186.797 77.5065L186.502 77.8205C186.216 78.1251 186.111 78.325 186.111 78.6295V79.2006H187.463V78.7723H186.606V78.6295C186.606 78.3916 186.692 78.2964 186.825 78.1536L187.158 77.8015C187.425 77.516 187.482 77.3351 187.482 77.0211V76.7165C187.482 76.2787 187.272 76.0693 186.806 76.0693C186.349 76.0693 186.121 76.3168 186.121 76.7451ZM195.676 83.0265C195.048 82.5316 194.306 82.4841 194.011 82.4841C193.858 82.4841 193.716 82.4936 193.611 82.5221L193.573 82.5316C193.173 82.6268 192.517 82.7791 191.746 83.7404L191.727 83.7689C191.717 83.7879 191.708 83.807 191.708 83.826C191.708 83.845 191.708 83.8641 191.717 83.8736L191.736 83.9021C191.86 84.1115 191.964 84.3019 192.05 84.4541C192.079 84.5112 192.164 84.5303 192.212 84.4732C192.221 84.4637 192.221 84.4541 192.231 84.4541C192.897 83.531 193.421 83.4072 193.763 83.3311L193.801 83.3216C193.849 83.3121 193.925 83.3026 194.011 83.3026C194.173 83.3026 194.725 83.3311 195.162 83.6737C195.553 83.9783 195.743 84.4637 195.743 85.1204C195.743 86.2244 195.21 86.6527 194.763 86.8145C194.591 86.8811 194.41 86.9096 194.22 86.9096C193.763 86.9096 193.402 86.7288 193.402 86.7193L193.373 86.7002C192.992 86.5289 192.412 86.1863 191.869 85.0918C190.756 82.8552 189.823 82.6459 189.204 82.5031L189.176 82.4936C189.128 82.4841 188.995 82.4555 188.776 82.4555C188.415 82.4555 187.729 82.5221 187.139 82.998C186.739 83.3216 186.254 83.9497 186.254 85.0918C186.254 85.7961 186.397 86.2529 186.768 86.7383C186.835 86.8335 187.482 87.6615 188.719 87.6615C188.9 87.6615 189.09 87.6425 189.281 87.6044C189.509 87.5568 189.852 87.4521 190.242 87.1666L190.565 87.4616C190.604 87.4902 190.661 87.4902 190.699 87.4521C190.718 87.4331 190.727 87.414 190.718 87.395L190.965 85.8437V85.8246C190.965 85.7961 190.956 85.7771 190.937 85.758C190.918 85.739 190.899 85.7295 190.87 85.7295L189.357 86.1482H189.328C189.309 86.1482 189.29 86.1578 189.281 86.1768C189.262 86.1958 189.252 86.2244 189.252 86.2434C189.252 86.272 189.262 86.291 189.281 86.31L189.595 86.5956C189.433 86.7002 189.262 86.7669 189.109 86.7954C188.976 86.824 188.843 86.8335 188.71 86.8335C187.853 86.8335 187.434 86.272 187.415 86.2434L187.406 86.2339C187.149 85.8913 187.054 85.5962 187.054 85.0823C187.054 84.4256 187.244 83.9307 187.625 83.6261C188.053 83.2835 188.595 83.2645 188.748 83.2645C188.833 83.2645 188.909 83.274 188.957 83.2835L188.995 83.293C189.49 83.4072 190.166 83.5595 191.108 85.4439C191.603 86.4433 192.221 87.0905 193.002 87.4331C193.097 87.4807 193.573 87.7091 194.201 87.7091C194.487 87.7091 194.772 87.6615 195.039 87.5568C195.495 87.3855 196.552 86.8049 196.552 85.0823C196.58 83.9783 196.086 83.3501 195.676 83.0265Z" fill="white"/>
<path d="M188.852 76.7831V77.3542H188.643V76.1074H188.947C189.157 76.1074 189.233 76.2121 189.233 76.3834V76.5452C189.233 76.6785 189.185 76.7546 189.061 76.7831L189.261 77.3542H189.042L188.852 76.7831ZM188.852 76.2787V76.6689H188.919C188.995 76.6689 189.023 76.6309 189.023 76.5642V76.3834C189.023 76.3168 188.995 76.2787 188.919 76.2787H188.852ZM189.375 76.1074H189.88V76.2787H189.585V76.6404H189.794V76.8117H189.585V77.1924H189.88V77.3637H189.375V76.1074ZM189.994 77.0877V76.9164H190.194V77.0877C190.194 77.1543 190.222 77.2019 190.299 77.2019C190.365 77.2019 190.394 77.1543 190.394 77.0877V77.0401C190.394 76.964 190.365 76.9259 190.299 76.8593L190.175 76.7356C190.051 76.6214 190.004 76.5452 190.004 76.4025V76.3644C190.004 76.2121 190.099 76.0884 190.299 76.0884C190.508 76.0884 190.594 76.1931 190.594 76.3739V76.4786H190.403V76.3739C190.403 76.2978 190.375 76.2692 190.308 76.2692C190.251 76.2692 190.213 76.2978 190.213 76.3739V76.4025C190.213 76.4691 190.251 76.5167 190.308 76.5738L190.441 76.707C190.556 76.8212 190.613 76.8974 190.613 77.0306V77.0877C190.613 77.259 190.518 77.3827 190.308 77.3827C190.08 77.3732 189.994 77.2495 189.994 77.0877ZM190.727 76.1074H191.041C191.25 76.1074 191.326 76.2121 191.326 76.3834V76.6499C191.326 76.8212 191.25 76.9354 191.041 76.9354H190.936V77.3637H190.727V76.1074ZM190.936 76.2787V76.7736H191.012C191.089 76.7736 191.117 76.7356 191.117 76.6689V76.3834C191.117 76.3168 191.089 76.2787 191.012 76.2787H190.936ZM191.46 77.0306V76.4215C191.46 76.2216 191.555 76.0884 191.774 76.0884C191.993 76.0884 192.097 76.2311 192.097 76.4215V77.0306C192.097 77.2209 192.002 77.3637 191.774 77.3637C191.555 77.3732 191.46 77.2209 191.46 77.0306ZM191.888 77.0687V76.3929C191.888 76.3168 191.859 76.2597 191.783 76.2597C191.707 76.2597 191.679 76.3168 191.679 76.3929V77.0687C191.679 77.1448 191.707 77.2019 191.783 77.2019C191.85 77.1924 191.888 77.1448 191.888 77.0687ZM192.411 76.5642V77.3542H192.231V76.1074H192.44L192.668 76.8212V76.1074H192.84V77.3542H192.659L192.411 76.5642ZM192.983 77.0877V76.9164H193.182V77.0877C193.182 77.1543 193.211 77.2019 193.287 77.2019C193.354 77.2019 193.382 77.1543 193.382 77.0877V77.0401C193.382 76.964 193.354 76.9259 193.287 76.8593L193.163 76.7356C193.04 76.6214 192.992 76.5452 192.992 76.4025V76.3644C192.992 76.2121 193.087 76.0884 193.287 76.0884C193.496 76.0884 193.582 76.1931 193.582 76.3739V76.4786H193.392V76.3739C193.392 76.2978 193.363 76.2692 193.297 76.2692C193.239 76.2692 193.201 76.2978 193.201 76.3739V76.4025C193.201 76.4691 193.239 76.5167 193.297 76.5738L193.43 76.707C193.544 76.8212 193.601 76.8974 193.601 77.0306V77.0877C193.601 77.259 193.506 77.3827 193.297 77.3827C193.059 77.3732 192.983 77.2495 192.983 77.0877ZM193.706 76.1074H193.915V77.3542H193.706V76.1074ZM194.058 76.1074H194.362C194.572 76.1074 194.638 76.2026 194.638 76.3834V76.5071C194.638 76.6118 194.6 76.6785 194.515 76.707C194.619 76.7356 194.667 76.8022 194.667 76.9164V77.0782C194.667 77.259 194.591 77.3542 194.382 77.3542H194.058V76.1074ZM194.277 76.6309H194.353C194.42 76.6309 194.448 76.5928 194.448 76.5262V76.3739C194.448 76.3073 194.42 76.2692 194.343 76.2692H194.267L194.277 76.6309ZM194.277 76.7927V77.1829H194.372C194.439 77.1829 194.477 77.1448 194.477 77.0782V76.8878C194.477 76.8212 194.448 76.7831 194.372 76.7831H194.277V76.7927ZM194.8 76.1074H195.01V77.1829H195.257V77.3542H194.8V76.1074ZM195.381 76.1074H195.885V76.2787H195.59V76.6404H195.8V76.8117H195.59V77.1924H195.885V77.3637H195.381V76.1074Z" fill="white"/>
<path d="M188.643 78.8675V78.2584C188.643 78.0585 188.738 77.9253 188.957 77.9253C189.185 77.9253 189.252 78.0585 189.252 78.2394V78.3916H189.061V78.2298C189.061 78.1537 189.033 78.1061 188.957 78.1061C188.881 78.1061 188.852 78.1632 188.852 78.2394V78.9151C188.852 78.9912 188.881 79.0483 188.957 79.0483C189.033 79.0483 189.061 79.0008 189.061 78.9246V78.6962H189.252V78.9151C189.252 79.0959 189.176 79.2292 188.957 79.2292C188.738 79.2101 188.643 79.0674 188.643 78.8675ZM189.385 78.8675V78.2584C189.385 78.0585 189.48 77.9253 189.699 77.9253C189.918 77.9253 190.023 78.0681 190.023 78.2584V78.8675C190.023 79.0579 189.927 79.2006 189.699 79.2006C189.48 79.2101 189.385 79.0674 189.385 78.8675ZM189.813 78.9056V78.2298C189.813 78.1537 189.785 78.0966 189.709 78.0966C189.632 78.0966 189.604 78.1537 189.604 78.2298V78.9056C189.604 78.9817 189.632 79.0388 189.709 79.0388C189.785 79.0293 189.813 78.9817 189.813 78.9056ZM190.337 78.4107V79.2006H190.156V77.9538H190.365L190.594 78.6676V77.9538H190.765V79.2006H190.584L190.337 78.4107ZM190.898 78.9246V78.7533H191.098V78.9246C191.098 78.9912 191.127 79.0388 191.203 79.0388C191.269 79.0388 191.298 78.9912 191.298 78.9246V78.877C191.298 78.8009 191.269 78.7628 191.203 78.6962L191.079 78.5725C190.955 78.4583 190.908 78.3821 190.908 78.2394V78.2013C190.908 78.049 191.003 77.9253 191.203 77.9253C191.412 77.9253 191.498 78.03 191.498 78.2108V78.3155H191.307V78.2108C191.307 78.1347 191.279 78.1061 191.212 78.1061C191.155 78.1061 191.117 78.1347 191.117 78.2108V78.2394C191.117 78.306 191.155 78.3536 191.212 78.4107L191.346 78.5439C191.46 78.6581 191.517 78.7343 191.517 78.8675V78.9246C191.517 79.0959 191.422 79.2197 191.212 79.2197C190.984 79.2101 190.898 79.0864 190.898 78.9246ZM192.24 77.9443V78.8865C192.24 79.0769 192.154 79.2101 191.945 79.2101C191.726 79.2101 191.631 79.0864 191.631 78.8865V77.9443H191.84V78.9151C191.84 78.9912 191.869 79.0388 191.945 79.0388C192.021 79.0388 192.05 78.9912 192.05 78.9151V77.9443H192.24ZM192.963 78.3821L192.811 79.1911H192.716L192.564 78.3821V79.1911H192.392V77.9443H192.64L192.773 78.6486L192.897 77.9443H193.163V79.1911H192.973V78.3821H192.963ZM193.297 77.9443H193.611C193.82 77.9443 193.896 78.049 193.896 78.2203V78.4868C193.896 78.6581 193.82 78.7723 193.611 78.7723H193.506V79.2006H193.297V77.9443ZM193.506 78.1156V78.6105H193.582C193.658 78.6105 193.687 78.5725 193.687 78.5059V78.2203C193.687 78.1537 193.658 78.1156 193.582 78.1156H193.506ZM193.963 77.9443H194.524V78.1156H194.353V79.1911H194.144V78.1156H193.972L193.963 77.9443ZM194.619 77.9443H194.829V79.1911H194.619V77.9443ZM194.953 78.8675V78.2584C194.953 78.0585 195.048 77.9253 195.267 77.9253C195.486 77.9253 195.59 78.0681 195.59 78.2584V78.8675C195.59 79.0579 195.495 79.2006 195.267 79.2006C195.048 79.2101 194.953 79.0674 194.953 78.8675ZM195.381 78.9056V78.2298C195.381 78.1537 195.352 78.0966 195.276 78.0966C195.2 78.0966 195.171 78.1537 195.171 78.2298V78.9056C195.171 78.9817 195.2 79.0388 195.276 79.0388C195.343 79.0293 195.381 78.9817 195.381 78.9056ZM195.895 78.4107V79.2006H195.714V77.9538H195.923L196.152 78.6676V77.9538H196.323V79.2006H196.142L195.895 78.4107Z" fill="white"/>
<path d="M188.614 81.028L188.852 79.7812H189.09L189.328 81.028H189.109L189.071 80.7996H188.852L188.814 81.028H188.614ZM188.871 80.6378H189.043L188.957 80.1334L188.871 80.6378ZM189.595 80.2476V81.0375H189.414V79.7908H189.623L189.852 80.5046V79.7908H190.023V81.0375H189.842L189.595 80.2476ZM190.784 80.1144V80.6949C190.784 80.8853 190.708 81.028 190.48 81.028H190.156V79.7812H190.48C190.699 79.7812 190.784 79.924 190.784 80.1144ZM190.451 80.8567C190.537 80.8567 190.575 80.8091 190.575 80.733V80.0763C190.575 80.0001 190.546 79.9526 190.451 79.9526H190.365V80.8567H190.451ZM191.108 79.7812H191.422C191.631 79.7812 191.707 79.8859 191.707 80.0572V80.3237C191.707 80.495 191.631 80.6093 191.422 80.6093H191.317V81.0375H191.108V79.7812ZM191.317 79.9526V80.4475H191.393C191.469 80.4475 191.498 80.4094 191.498 80.3428V80.0572C191.498 79.9906 191.469 79.9526 191.393 79.9526H191.317ZM192.031 80.457V81.028H191.822V79.7812H192.126C192.336 79.7812 192.412 79.8859 192.412 80.0572V80.219C192.412 80.3523 192.364 80.4284 192.24 80.457L192.44 81.028H192.221L192.031 80.457ZM192.031 79.9526V80.3428H192.098C192.174 80.3428 192.202 80.3047 192.202 80.2381V80.0572C192.202 79.9906 192.174 79.9526 192.098 79.9526H192.031ZM192.535 80.7044V80.0953C192.535 79.8955 192.631 79.7622 192.849 79.7622C193.068 79.7622 193.173 79.905 193.173 80.0953V80.7044C193.173 80.8948 193.078 81.0375 192.849 81.0375C192.631 81.0471 192.535 80.9043 192.535 80.7044ZM192.964 80.7425V80.0668C192.964 79.9906 192.935 79.9335 192.859 79.9335C192.783 79.9335 192.754 79.9906 192.754 80.0668V80.7425C192.754 80.8186 192.783 80.8757 192.859 80.8757C192.935 80.8662 192.964 80.8186 192.964 80.7425ZM193.935 80.1144V80.6949C193.935 80.8853 193.858 81.028 193.63 81.028H193.306V79.7812H193.63C193.849 79.7812 193.935 79.924 193.935 80.1144ZM193.601 80.8567C193.687 80.8567 193.725 80.8091 193.725 80.733V80.0763C193.725 80.0001 193.697 79.9526 193.601 79.9526H193.516V80.8567H193.601ZM194.667 79.7812V80.7235C194.667 80.9138 194.582 81.0471 194.372 81.0471C194.153 81.0471 194.058 80.9233 194.058 80.7235V79.7812H194.268V80.752C194.268 80.8282 194.296 80.8757 194.372 80.8757C194.448 80.8757 194.477 80.8282 194.477 80.752V79.7812H194.667ZM194.791 80.7044V80.0953C194.791 79.8955 194.886 79.7622 195.105 79.7622C195.334 79.7622 195.4 79.8955 195.4 80.0763V80.2286H195.21V80.0668C195.21 79.9906 195.181 79.943 195.105 79.943C195.029 79.943 195 80.0001 195 80.0763V80.752C195 80.8282 195.029 80.8853 195.105 80.8853C195.181 80.8853 195.21 80.8377 195.21 80.7615V80.5331H195.4V80.752C195.4 80.9328 195.324 81.0661 195.105 81.0661C194.886 81.0471 194.791 80.9043 194.791 80.7044ZM195.505 79.7812H196.066V79.9526H195.895V81.028H195.686V79.9526H195.514L195.505 79.7812ZM196.162 79.7812H196.371V81.028H196.162V79.7812ZM196.495 80.7044V80.0953C196.495 79.8955 196.59 79.7622 196.809 79.7622C197.028 79.7622 197.132 79.905 197.132 80.0953V80.7044C197.132 80.8948 197.037 81.0375 196.809 81.0375C196.59 81.0471 196.495 80.9043 196.495 80.7044ZM196.923 80.7425V80.0668C196.923 79.9906 196.894 79.9335 196.818 79.9335C196.742 79.9335 196.714 79.9906 196.714 80.0668V80.7425C196.714 80.8186 196.742 80.8757 196.818 80.8757C196.885 80.8662 196.923 80.8186 196.923 80.7425ZM197.427 80.2476V81.0375H197.247V79.7908H197.456L197.684 80.5046V79.7908H197.856V81.0375H197.675L197.427 80.2476Z" fill="white"/>
<path d="M209.215 72.9978C210.598 72.9978 211.72 71.8763 211.72 70.4928C211.72 69.1093 210.598 67.9878 209.215 67.9878C207.831 67.9878 206.71 69.1093 206.71 70.4928C206.71 71.8763 207.831 72.9978 209.215 72.9978Z" fill="#0A97D9"/>
<path d="M242.743 91.4652C255.496 91.4652 265.833 81.1274 265.833 68.3752C265.833 55.6229 255.496 45.2852 242.743 45.2852C229.991 45.2852 219.653 55.6229 219.653 68.3752C219.653 81.1274 229.991 91.4652 242.743 91.4652Z" fill="#56C02B"/>
<path d="M229.05 56.2876V57.4321L229.813 56.629H229.833V61.6285H230.917V55.103H230.054L229.05 56.2876ZM233.527 57.1711C233.086 57.1711 232.784 57.3317 232.604 57.6128V55.9865H234.491V55.103H231.6V58.7773H232.604V58.6368C232.604 58.2553 232.784 58.0345 233.086 58.0345C233.427 58.0345 233.547 58.2553 233.547 58.6167V60.1828C233.547 60.5242 233.427 60.7651 233.086 60.7651C232.704 60.7651 232.584 60.5242 232.584 60.1226V59.2994H231.58V60.0423C231.58 61.0261 231.981 61.6686 233.086 61.6686C234.19 61.6686 234.652 61.0863 234.652 60.1828V58.5966C234.652 57.5927 234.11 57.1711 233.527 57.1711Z" fill="white"/>
<path d="M240.213 74.2378C240.253 74.2378 240.293 74.278 240.293 74.3181V76.6673C240.293 76.7074 240.253 76.7476 240.213 76.7476H239.269C239.229 76.7476 239.189 76.7074 239.189 76.6673V74.3181C239.189 74.278 239.229 74.2378 239.269 74.2378H240.213ZM250.674 77.7515H234.992C234.952 77.7515 234.912 77.7917 234.912 77.8318V78.7956C234.912 78.8357 234.952 78.8759 234.992 78.8759H250.674C250.714 78.8759 250.754 78.8357 250.754 78.7956V77.8318C250.754 77.7917 250.714 77.7515 250.674 77.7515ZM250.674 79.6589H234.992C234.952 79.6589 234.912 79.6991 234.912 79.7393V80.703C234.912 80.7432 234.952 80.7833 234.992 80.7833H250.674C250.714 80.7833 250.754 80.7432 250.754 80.703V79.7393C250.754 79.6991 250.714 79.6589 250.674 79.6589ZM247.682 71.6478C247.481 71.4871 246.959 71.1458 246.317 71.1458C245.855 71.1458 245.433 71.3265 245.052 71.6879C245.032 71.708 245.011 71.7481 245.011 71.7883V71.8686C245.011 71.9088 245.032 71.9489 245.052 71.969C245.092 71.9891 245.112 72.0092 245.172 71.9891H245.192C245.212 71.969 245.252 71.969 245.272 71.9489C245.353 71.8887 245.574 71.8084 245.895 71.8084C246.236 71.8084 246.879 71.8887 247.521 72.491L247.541 72.5111C247.581 72.5512 247.622 72.5713 247.682 72.5713C247.722 72.5713 247.782 72.5512 247.822 72.5111L247.843 72.491C248.485 71.9088 249.128 71.8084 249.469 71.8084C249.79 71.8084 250.011 71.8887 250.091 71.9489C250.111 71.969 250.131 71.9891 250.172 72.0092C250.192 72.0092 250.232 72.0292 250.272 72.0092C250.332 71.9891 250.372 71.9489 250.372 71.8887V71.8084C250.372 71.7682 250.352 71.7281 250.332 71.708C249.951 71.3466 249.529 71.1659 249.047 71.1659C248.405 71.1257 247.883 71.4871 247.682 71.6478ZM246.718 65.3833C246.678 65.4034 246.658 65.4235 246.658 65.4637L246.638 65.5239C246.618 65.564 246.638 65.6042 246.658 65.6444C246.678 65.6845 246.718 65.7046 246.758 65.7046H246.778C246.798 65.7046 246.839 65.7046 246.859 65.6845C246.879 65.6845 246.899 65.6644 246.959 65.6644C247.019 65.6644 247.662 65.6845 248.083 66.3873V66.4073C248.104 66.4475 248.144 66.4676 248.184 66.4876H248.224C248.244 66.4876 248.284 66.4876 248.304 66.4676H248.324C248.545 66.3471 248.786 66.2869 249.027 66.2869C249.429 66.2869 249.69 66.4475 249.75 66.5077L249.81 66.568C249.83 66.568 249.85 66.588 249.87 66.588H249.911C249.931 66.588 249.951 66.588 249.971 66.568C250.011 66.5479 250.031 66.5278 250.031 66.4876L250.051 66.4475V66.4073C250.051 66.3873 250.051 66.3672 250.031 66.3471C249.73 65.8251 249.288 65.7046 248.967 65.7046C248.726 65.7046 248.525 65.7648 248.405 65.805C248.264 65.6042 247.903 65.2026 247.341 65.2026C247.12 65.2428 246.919 65.2829 246.718 65.3833ZM243.405 67.8128V67.8931C243.405 67.9333 243.425 67.9734 243.465 67.9935C243.506 68.0136 243.546 68.0136 243.566 68.0136H243.586C243.606 67.9935 243.626 67.9935 243.646 67.9734C243.706 67.9333 243.927 67.8329 244.249 67.8329C244.55 67.8329 245.011 67.9132 245.493 68.2947L245.513 68.3148C245.554 68.3348 245.594 68.3549 245.634 68.3549H245.654C245.694 68.3549 245.754 68.3348 245.774 68.2947L245.795 68.2746C246.317 67.7124 246.879 67.6321 247.18 67.6321C247.381 67.6321 247.541 67.6723 247.581 67.7124C247.602 67.7325 247.622 67.7526 247.662 67.7526H247.762C247.822 67.7325 247.863 67.6723 247.843 67.612V67.5518C247.843 67.5116 247.822 67.4916 247.802 67.4514C247.481 67.1904 247.16 67.0498 246.798 67.0498C246.256 67.0498 245.815 67.3711 245.634 67.5317C245.473 67.4112 245.072 67.1904 244.59 67.1904C244.168 67.1904 243.807 67.3711 243.486 67.7124C243.405 67.7325 243.405 67.7727 243.405 67.8128ZM235.454 69.0577C235.454 68.114 236.217 67.351 237.161 67.351H237.261C237.342 66.1664 238.345 65.2227 239.55 65.2227C240.815 65.2227 241.859 66.2467 241.859 67.5317C241.859 67.8931 241.779 68.2345 241.618 68.5356C242.763 68.7966 243.626 69.8206 243.626 71.0454C243.626 72.4709 242.482 73.6154 241.056 73.6154C240.956 73.6154 237.623 73.5953 237.623 73.5953C236.619 73.5953 235.796 72.7721 235.796 71.7682C235.796 71.2863 235.976 70.8446 236.298 70.5234C235.816 70.2423 235.454 69.7002 235.454 69.0577Z" fill="white"/>
<path d="M237 55.103H237.442V57.3719H237.964V57.7333H237V55.103ZM238.225 55.103H238.667V57.7333H238.225V55.103ZM238.988 55.103H240.032V55.4644H239.429V56.2274H239.871V56.5888H239.429V57.7534H238.988V55.103ZM240.273 55.103H241.337V55.4644H240.714V56.2274H241.156V56.5888H240.714V57.3919H241.337V57.7534H240.273V55.103Z" fill="white"/>
<path d="M237 60.9458V59.6607C237 59.2391 237.201 58.958 237.663 58.958C238.124 58.958 238.345 59.2592 238.345 59.6607V60.9458C238.345 61.3473 238.144 61.6485 237.663 61.6485C237.201 61.6485 237 61.3473 237 60.9458ZM237.904 61.006V59.5804C237.904 59.4198 237.843 59.2993 237.683 59.2993C237.522 59.2993 237.462 59.4198 237.462 59.5804V61.006C237.462 61.1666 237.522 61.2871 237.683 61.2871C237.823 61.2871 237.904 61.1666 237.904 61.006ZM238.968 59.9619V61.6284H238.586V58.9982H239.028L239.51 60.504V58.9982H239.871V61.6284H239.49L238.968 59.9619ZM240.835 58.9781H241.277V61.2469H241.799V61.6083H240.835V58.9781ZM241.919 61.6284L242.421 58.9982H242.923L243.425 61.6284H242.963L242.883 61.1465H242.421L242.341 61.6284H241.919ZM242.481 60.7851H242.843L242.662 59.721L242.481 60.7851ZM243.987 59.9619V61.6284H243.606V58.9982H244.047L244.529 60.504V58.9982H244.891V61.6284H244.509L243.987 59.9619ZM246.517 59.7009V60.9257C246.517 61.3272 246.356 61.6284 245.875 61.6284H245.192V58.9982H245.875C246.336 58.9781 246.517 59.2793 246.517 59.7009ZM245.814 61.267C245.995 61.267 246.075 61.1666 246.075 61.006V59.6206C246.075 59.46 246.015 59.3596 245.814 59.3596H245.634V61.267H245.814Z" fill="white"/>
<path d="M262.849 42.5101C268.485 42.5101 273.054 37.9412 273.054 32.3051C273.054 26.669 268.485 22.1001 262.849 22.1001C257.212 22.1001 252.644 26.669 252.644 32.3051C252.644 37.9412 257.212 42.5101 262.849 42.5101Z" fill="#00689D"/>
<path d="M256.876 26.9633V27.4691H256.885L257.222 27.1141V29.3237H257.71V26.4397H257.32L256.876 26.9633ZM259.405 28.6316V28.2056C259.405 27.7353 259.219 27.4957 258.873 27.4957C258.669 27.4957 258.544 27.5933 258.473 27.7264V27.1053C258.473 26.9278 258.527 26.8035 258.704 26.8035C258.881 26.8035 258.926 26.9012 258.926 27.0875V27.2827H259.37V27.1319C259.37 26.7059 259.228 26.4131 258.695 26.4131C258.189 26.4131 257.994 26.7414 257.994 27.194V28.5961C257.994 29.0398 258.189 29.3681 258.695 29.3681C259.201 29.3592 259.405 29.0753 259.405 28.6316ZM258.926 28.6759C258.926 28.8623 258.855 28.9688 258.695 28.9688C258.535 28.9688 258.473 28.8623 258.473 28.6759V28.1524C258.482 27.9926 258.553 27.8862 258.704 27.8862C258.873 27.8862 258.935 27.9838 258.935 28.179L258.926 28.6759Z" fill="white"/>
<path d="M260.337 26.4395H260.63C260.825 26.4395 260.896 26.5372 260.896 26.6969V26.9454C260.896 27.1051 260.825 27.2116 260.63 27.2116H260.532V27.6109H260.337V26.4395ZM260.532 26.5993V27.0607H260.603C260.674 27.0607 260.701 27.0252 260.701 26.9631V26.6969C260.701 26.6348 260.674 26.5993 260.603 26.5993H260.532ZM260.994 26.4395H261.464V26.5993H261.189V26.9365H261.384V27.0962H261.189V27.4512H261.464V27.6109H260.994V26.4395ZM261.544 27.6109L261.766 26.4484H261.987L262.209 27.6109H262.005L261.97 27.3979H261.766L261.73 27.6109H261.544ZM261.792 27.2382H261.952L261.872 26.7679L261.792 27.2382ZM262.28 27.3092V26.7413C262.28 26.5549 262.369 26.4307 262.573 26.4307C262.786 26.4307 262.848 26.5549 262.848 26.7235V26.8655H262.671V26.7146C262.671 26.6436 262.644 26.5993 262.573 26.5993C262.502 26.5993 262.476 26.6525 262.476 26.7235V27.3536C262.476 27.4245 262.502 27.4778 262.573 27.4778C262.644 27.4778 262.671 27.4334 262.671 27.3624V27.1495H262.848V27.3536C262.848 27.5222 262.777 27.6464 262.573 27.6464C262.369 27.6198 262.28 27.4867 262.28 27.3092ZM262.972 26.4395H263.443V26.5993H263.168V26.9365H263.363V27.0962H263.168V27.4512H263.443V27.6109H262.972V26.4395ZM263.762 27.4334L263.665 27.6996H263.558L263.585 27.4245L263.762 27.4334ZM264.614 26.4395V27.3447C264.614 27.5133 264.543 27.6198 264.348 27.6198C264.144 27.6198 264.091 27.5044 264.091 27.3624V27.1317H264.277V27.3713C264.277 27.4334 264.295 27.46 264.348 27.46C264.401 27.46 264.419 27.4245 264.419 27.3624V26.4395H264.614ZM265.306 26.4395V27.3181C265.306 27.4955 265.226 27.6198 265.031 27.6198C264.827 27.6198 264.738 27.5044 264.738 27.3181V26.4395H264.934V27.3447C264.934 27.4157 264.96 27.46 265.031 27.46C265.102 27.46 265.129 27.4157 265.129 27.3447V26.4395H265.306ZM265.431 27.3536V27.2027H265.617V27.3624C265.617 27.4245 265.643 27.4689 265.714 27.4689C265.777 27.4689 265.803 27.4245 265.803 27.3624V27.3181C265.803 27.2471 265.777 27.2116 265.714 27.1495L265.599 27.0341C265.484 26.9276 265.439 26.8566 265.439 26.7235V26.688C265.439 26.546 265.528 26.4307 265.714 26.4307C265.91 26.4307 265.99 26.5283 265.99 26.6969V26.7945H265.812V26.6969C265.812 26.6259 265.785 26.5993 265.723 26.5993C265.67 26.5993 265.635 26.6259 265.635 26.6969V26.7235C265.635 26.7856 265.67 26.83 265.723 26.8832L265.848 27.0075C265.954 27.114 266.007 27.1849 266.007 27.3092V27.3624C266.007 27.5222 265.919 27.6375 265.723 27.6375C265.502 27.6198 265.431 27.5133 265.431 27.3536ZM266.087 26.4395H266.611V26.5993H266.451V27.602H266.256V26.5993H266.087V26.4395ZM266.717 26.4395H266.912V27.602H266.717V26.4395ZM267.046 27.3092V26.7413C267.046 26.5549 267.134 26.4307 267.338 26.4307C267.551 26.4307 267.614 26.5549 267.614 26.7235V26.8655H267.436V26.7146C267.436 26.6436 267.409 26.5993 267.338 26.5993C267.267 26.5993 267.241 26.6525 267.241 26.7235V27.3536C267.241 27.4245 267.267 27.4778 267.338 27.4778C267.409 27.4778 267.436 27.4334 267.436 27.3624V27.1495H267.614V27.3536C267.614 27.5222 267.543 27.6464 267.338 27.6464C267.134 27.6198 267.046 27.4867 267.046 27.3092ZM267.738 26.4395H268.208V26.5993H267.933V26.9365H268.128V27.0962H267.933V27.4512H268.208V27.6109H267.738V26.4395Z" fill="white"/>
<path d="M260.302 29.3589L260.524 28.1965H260.745L260.967 29.3589H260.763L260.728 29.146H260.524L260.488 29.3589H260.302ZM260.55 28.9862H260.71L260.63 28.5159L260.55 28.9862ZM261.234 28.6224V29.3589H261.065V28.1965H261.26L261.473 28.862V28.1965H261.633V29.3589H261.464L261.234 28.6224ZM262.352 28.507V29.0484C262.352 29.2258 262.281 29.3589 262.068 29.3589H261.766V28.1965H262.068C262.281 28.1876 262.352 28.3207 262.352 28.507ZM262.05 29.1992C262.13 29.1992 262.165 29.1548 262.165 29.0839V28.4715C262.165 28.4006 262.139 28.3562 262.05 28.3562H261.97V29.1992H262.05ZM262.671 29.1105V28.9507H262.857V29.1105C262.857 29.1726 262.884 29.217 262.955 29.217C263.017 29.217 263.044 29.1726 263.044 29.1105V29.0661C263.044 28.9951 263.017 28.9596 262.955 28.8975L262.84 28.7821C262.724 28.6756 262.68 28.6047 262.68 28.4715V28.4361C262.68 28.2941 262.769 28.1787 262.955 28.1787C263.15 28.1787 263.23 28.2763 263.23 28.4449V28.5425H263.053V28.4449C263.053 28.3739 263.026 28.3473 262.964 28.3473C262.911 28.3473 262.875 28.3739 262.875 28.4449V28.4715C262.875 28.5337 262.911 28.578 262.964 28.6313L263.088 28.7555C263.195 28.862 263.248 28.933 263.248 29.0572V29.1105C263.248 29.2702 263.159 29.3856 262.964 29.3856C262.751 29.3678 262.671 29.2613 262.671 29.1105ZM263.31 28.1876H263.834V28.3473H263.674V29.3501H263.479V28.3473H263.319V28.1876H263.31ZM264.135 28.8265V29.3589H263.94V28.1965H264.224C264.419 28.1965 264.49 28.2941 264.49 28.4538V28.6047C264.49 28.7289 264.446 28.7999 264.331 28.8265L264.517 29.3589H264.313L264.135 28.8265ZM264.135 28.3473V28.7111H264.197C264.268 28.7111 264.295 28.6757 264.295 28.6135V28.4449C264.295 28.3828 264.268 28.3473 264.197 28.3473H264.135ZM264.614 29.0572V28.4893C264.614 28.3029 264.703 28.1787 264.907 28.1787C265.111 28.1787 265.209 28.3118 265.209 28.4893V29.0572C265.209 29.2347 265.12 29.3678 264.907 29.3678C264.703 29.3678 264.614 29.2347 264.614 29.0572ZM265.014 29.0839V28.4538C265.014 28.3828 264.987 28.3296 264.916 28.3296C264.845 28.3296 264.819 28.3828 264.819 28.4538V29.0839C264.819 29.1548 264.845 29.2081 264.916 29.2081C264.978 29.2081 265.014 29.1548 265.014 29.0839ZM265.502 28.6224V29.3589H265.333V28.1965H265.529L265.741 28.862V28.1965H265.901V29.3589H265.733L265.502 28.6224ZM266.336 28.7378H266.611V29.3589H266.469V29.2347C266.443 29.3234 266.389 29.3767 266.283 29.3767C266.114 29.3767 266.034 29.2436 266.034 29.0661V28.4982C266.034 28.3118 266.123 28.1876 266.327 28.1876C266.54 28.1876 266.611 28.3118 266.611 28.4804V28.5869H266.434V28.4715C266.434 28.4006 266.407 28.3562 266.336 28.3562C266.265 28.3562 266.238 28.4094 266.238 28.4804V29.1105C266.238 29.1815 266.265 29.2347 266.336 29.2347C266.398 29.2347 266.434 29.1992 266.434 29.1193V28.8886H266.345V28.7378H266.336Z" fill="white"/>
<path d="M260.337 29.8649H260.532V31.0274H260.337V29.8649ZM260.834 30.2997V31.0363H260.674V29.8649H260.869L261.082 30.5305V29.8649H261.242V31.0274H261.073L260.834 30.2997ZM261.357 30.7789V30.6192H261.544V30.7789C261.544 30.841 261.57 30.8854 261.641 30.8854C261.703 30.8854 261.73 30.841 261.73 30.7789V30.7346C261.73 30.6636 261.703 30.6281 261.641 30.566L261.526 30.4506C261.411 30.3441 261.366 30.2731 261.366 30.14V30.1045C261.366 29.9625 261.455 29.8472 261.641 29.8472C261.837 29.8472 261.916 29.9448 261.916 30.1134V30.211H261.739V30.1134C261.739 30.0424 261.712 30.0158 261.65 30.0158C261.597 30.0158 261.562 30.0424 261.562 30.1134V30.14C261.562 30.2021 261.597 30.2465 261.65 30.2997L261.774 30.424C261.881 30.5305 261.934 30.6015 261.934 30.7257V30.7789C261.934 30.9387 261.845 31.054 261.65 31.054C261.437 31.0451 261.357 30.9298 261.357 30.7789ZM261.996 29.8649H262.52V30.0246H262.36V31.0274H262.165V30.0246H262.005L261.996 29.8649ZM262.626 29.8649H262.822V31.0274H262.626V29.8649ZM262.928 29.8649H263.452V30.0246H263.292V31.0274H263.097V30.0246H262.937V29.8649H262.928ZM264.126 29.8649V30.7434C264.126 30.9209 264.046 31.0451 263.851 31.0451C263.647 31.0451 263.558 30.9298 263.558 30.7434V29.8649H263.753V30.7701C263.753 30.841 263.78 30.8854 263.851 30.8854C263.922 30.8854 263.949 30.841 263.949 30.7701V29.8649H264.126ZM264.233 29.8649H264.756V30.0246H264.596V31.0274H264.401V30.0246H264.241V29.8649H264.233ZM264.863 29.8649H265.058V31.0274H264.863V29.8649ZM265.191 30.7257V30.1578C265.191 29.9714 265.28 29.8472 265.484 29.8472C265.688 29.8472 265.785 29.9803 265.785 30.1578V30.7257C265.785 30.9032 265.697 31.0363 265.484 31.0363C265.28 31.0451 265.191 30.912 265.191 30.7257ZM265.59 30.7612V30.1311C265.59 30.0601 265.564 30.0069 265.493 30.0069C265.422 30.0069 265.395 30.0601 265.395 30.1311V30.7612C265.395 30.8322 265.422 30.8854 265.493 30.8854C265.555 30.8765 265.59 30.8322 265.59 30.7612ZM266.078 30.2997V31.0363H265.91V29.8649H266.105L266.318 30.5305V29.8649H266.478V31.0274H266.309L266.078 30.2997ZM266.602 30.7789V30.6192H266.788V30.7789C266.788 30.841 266.815 30.8854 266.886 30.8854C266.948 30.8854 266.975 30.841 266.975 30.7789V30.7346C266.975 30.6636 266.948 30.6281 266.886 30.566L266.77 30.4506C266.655 30.3441 266.611 30.2731 266.611 30.14V30.1045C266.611 29.9625 266.699 29.8472 266.886 29.8472C267.081 29.8472 267.161 29.9448 267.161 30.1134V30.211H266.983V30.1134C266.983 30.0424 266.957 30.0158 266.895 30.0158C266.841 30.0158 266.806 30.0424 266.806 30.1134V30.14C266.806 30.2021 266.841 30.2465 266.895 30.2997L267.019 30.424C267.125 30.5305 267.179 30.6015 267.179 30.7257V30.7789C267.179 30.9387 267.09 31.054 266.895 31.054C266.682 31.0451 266.602 30.9298 266.602 30.7789Z" fill="white"/>
<path d="M265.005 32.2695C265.005 32.2695 264.881 32.4292 264.917 32.5889C264.952 32.7487 265.129 32.8374 265.129 32.8374C265.129 32.8374 265.254 32.6777 265.218 32.518C265.183 32.3582 265.005 32.2695 265.005 32.2695ZM264.81 33.1746C264.81 33.1746 264.934 33.0149 264.899 32.8552C264.863 32.6954 264.686 32.6067 264.686 32.6067C264.686 32.6067 264.562 32.7664 264.597 32.9173C264.633 33.0859 264.81 33.1746 264.81 33.1746ZM265.307 33.006C265.307 33.006 265.431 33.1303 265.582 33.1214C265.724 33.1125 265.831 32.9616 265.831 32.9616C265.831 32.9616 265.706 32.8374 265.555 32.8463C265.413 32.8552 265.307 33.006 265.307 33.006ZM265.511 32.3227C265.396 32.4381 265.413 32.6511 265.413 32.6511C265.413 32.6511 265.618 32.6688 265.742 32.5534C265.857 32.4381 265.839 32.2251 265.839 32.2251C265.839 32.2251 265.626 32.2074 265.511 32.3227ZM265.254 33.4852C265.396 33.5029 265.529 33.3787 265.529 33.3787C265.529 33.3787 265.431 33.2279 265.289 33.2101C265.147 33.1924 265.014 33.3166 265.014 33.3166C265.014 33.3166 265.112 33.4674 265.254 33.4852ZM265.378 35.9788H264.304C264.224 35.9788 264.153 36.0498 264.153 36.1296C264.153 36.2095 264.224 36.2805 264.304 36.2805H265.378C265.458 36.2805 265.529 36.2095 265.529 36.1296C265.538 36.0498 265.467 35.9788 265.378 35.9788ZM265.378 37.6648H264.304C264.224 37.6648 264.153 37.7358 264.153 37.8157C264.153 37.8955 264.224 37.9665 264.304 37.9665H265.378C265.458 37.9665 265.529 37.8955 265.529 37.8157C265.538 37.7269 265.467 37.6648 265.378 37.6648ZM260.542 35.6149C260.515 35.6061 260.488 35.5972 260.471 35.5972C260.471 35.5972 260.497 35.6061 260.542 35.6149Z" fill="white"/>
<path d="M265.342 36.3958H264.348C264.304 36.3958 264.259 36.4313 264.259 36.4846V36.7863L263.612 36.8573L262.662 36.8395V36.2539C262.786 36.2361 262.911 36.2095 263.044 36.174C263.958 35.9166 264.162 35.1624 264.135 34.6388C264.117 34.1064 264.286 33.9023 264.535 33.8046C264.606 33.778 264.677 33.7603 264.739 33.7514C264.739 33.8845 264.765 34.0354 264.827 34.2129C264.845 34.2129 264.872 34.2129 264.889 34.204C264.827 34.0176 264.801 33.8668 264.801 33.7336C264.925 33.7159 265.014 33.7248 265.014 33.7248C265.014 33.7248 264.925 33.6804 264.81 33.5739C264.854 33.3254 265.005 33.1657 265.156 33.006C265.244 32.9172 265.333 32.8285 265.395 32.722L265.342 32.6865C265.28 32.793 265.191 32.8729 265.111 32.9616C264.96 33.1125 264.81 33.2722 264.756 33.5295C264.703 33.4852 264.65 33.4319 264.597 33.3698C264.375 33.1125 264.082 33.2988 263.665 33.6893C263.248 34.0709 262.733 34.0886 262.218 33.565C261.544 32.8729 260.958 32.8818 260.559 32.9172C260.834 33.0326 260.932 33.2899 261.074 33.9466C261.216 34.6299 261.588 34.9405 262.094 34.9849C261.81 35.0825 261.801 35.2422 261.429 35.4996C261.136 35.7037 260.728 35.6416 260.559 35.5972C260.87 35.6948 261.225 36.0143 261.553 36.1296C261.739 36.1917 261.943 36.2361 262.147 36.2539V36.8129L260.444 36.7774V37.1679L263.629 37.0969L264.277 37.1679V37.4696C264.277 37.5139 264.313 37.5583 264.366 37.5583H265.36C265.404 37.5583 265.449 37.5228 265.449 37.4696V36.4757C265.431 36.4313 265.386 36.3958 265.342 36.3958ZM262.289 36.2716C262.36 36.2716 262.431 36.2716 262.502 36.2627V36.8218L262.289 36.8129V36.2716ZM260.328 37.1058C260.328 37.1856 260.275 37.2566 260.204 37.2566H260.124C260.053 37.2566 260 37.1945 260 37.1058V36.8395C260 36.7597 260.053 36.6887 260.124 36.6887H260.204C260.275 36.6887 260.328 36.7508 260.328 36.8395V37.1058Z" fill="white"/>
<path d="M271.092 53.9189C271.857 53.9189 272.477 53.2988 272.477 52.5339C272.477 51.769 271.857 51.1489 271.092 51.1489C270.327 51.1489 269.707 51.769 269.707 52.5339C269.707 53.2988 270.327 53.9189 271.092 53.9189Z" fill="#19486A"/>
</svg>
