<svg width="280" height="130" viewBox="0 0 280 130" fill="none" xmlns="http://www.w3.org/2000/svg">
<path d="M15.9848 74.5882C19.2847 74.5882 21.9598 71.9131 21.9598 68.6132C21.9598 65.3133 19.2847 62.6382 15.9848 62.6382C12.6849 62.6382 10.0098 65.3133 10.0098 68.6132C10.0098 71.9131 12.6849 74.5882 15.9848 74.5882Z" fill="#E5243B"/>
<path d="M32.1086 64.3114C34.4834 64.3114 36.4086 62.3863 36.4086 60.0114C36.4086 57.6366 34.4834 55.7114 32.1086 55.7114C29.7338 55.7114 27.8086 57.6366 27.8086 60.0114C27.8086 62.3863 29.7338 64.3114 32.1086 64.3114Z" fill="#DDA63A"/>
<path d="M45.0807 85.4035C46.4061 85.4035 47.4807 84.329 47.4807 83.0035C47.4807 81.678 46.4061 80.6035 45.0807 80.6035C43.7552 80.6035 42.6807 81.678 42.6807 83.0035C42.6807 84.329 43.7552 85.4035 45.0807 85.4035Z" fill="#4C9F38"/>
<path d="M45.4068 59.7433C45.995 59.7433 46.4718 59.2665 46.4718 58.6783C46.4718 58.0901 45.995 57.6133 45.4068 57.6133C44.8186 57.6133 44.3418 58.0901 44.3418 58.6783C44.3418 59.2665 44.8186 59.7433 45.4068 59.7433Z" fill="#C5192D"/>
<path d="M46.5015 49.6621C48.2854 49.6621 49.7315 48.216 49.7315 46.4321C49.7315 44.6483 48.2854 43.2021 46.5015 43.2021C44.7176 43.2021 43.2715 44.6483 43.2715 46.4321C43.2715 48.216 44.7176 49.6621 46.5015 49.6621Z" fill="#FF3A21"/>
<path d="M43.0771 72.7588C44.5269 72.7588 45.7021 71.5835 45.7021 70.1338C45.7021 68.684 44.5269 67.5088 43.0771 67.5088C41.6274 67.5088 40.4521 68.684 40.4521 70.1338C40.4521 71.5835 41.6274 72.7588 43.0771 72.7588Z" fill="#26BDE2"/>
<path d="M103.676 118.347C131.29 118.347 153.676 95.9609 153.676 68.3467C153.676 40.7324 131.29 18.3467 103.676 18.3467C76.0615 18.3467 53.6758 40.7324 53.6758 68.3467C53.6758 95.9609 76.0615 118.347 103.676 118.347Z" fill="#FCC30B"/>
<path d="M76.1982 41.3901H79.8504L76.6765 53.564H79.0243L82.1548 41.651V39.4771H76.1982V41.3901Z" fill="white"/>
<path d="M88.8486 45.1727L89.9356 39.4771H91.0225L92.1095 45.1727H91.1095L90.9356 44.1293H89.9356L89.7617 45.1727H88.8486ZM90.066 43.3467H90.8486L90.4573 41.0423L90.066 43.3467ZM92.4573 39.4771H94.7182V40.2597H93.4139V41.9119H94.3704V42.6945H93.4139V45.2162H92.4573V39.4771ZM95.1095 39.4771H97.3704V40.2597H96.066V41.9119H97.0225V42.6945H96.066V45.2162H95.1095V39.4771ZM97.6312 43.6945V40.9119C97.6312 39.9988 98.066 39.3901 99.066 39.3901C100.066 39.3901 100.544 40.0423 100.544 40.9119V43.6945C100.544 44.564 100.11 45.2162 99.066 45.2162C98.066 45.2597 97.6312 44.564 97.6312 43.6945ZM99.5878 43.8684V40.7814C99.5878 40.4336 99.4573 40.1727 99.1095 40.1727C98.7617 40.1727 98.6312 40.4336 98.6312 40.7814V43.8684C98.6312 44.2162 98.7617 44.4771 99.1095 44.4771C99.4573 44.4336 99.5878 44.2162 99.5878 43.8684ZM102.023 42.564V45.1727H101.066V39.4771H102.457C103.414 39.4771 103.762 39.9554 103.762 40.738V41.4771C103.762 42.0858 103.544 42.4336 102.979 42.564L103.892 45.1727H102.892L102.023 42.564ZM102.023 40.2597V42.0423H102.327C102.675 42.0423 102.805 41.8684 102.805 41.564V40.738C102.805 40.4336 102.675 40.2597 102.327 40.2597H102.023ZM107.153 40.9988V43.651C107.153 44.5206 106.805 45.1727 105.762 45.1727H104.283V39.4771H105.762C106.762 39.4771 107.153 40.1293 107.153 40.9988ZM105.631 44.3901C106.023 44.3901 106.196 44.1727 106.196 43.8249V40.8249C106.196 40.4771 106.066 40.2597 105.631 40.2597H105.24V44.3901H105.631ZM107.37 45.1727L108.457 39.4771H109.544L110.631 45.1727H109.631L109.457 44.1293H108.457L108.283 45.1727H107.37ZM108.588 43.3467H109.37L108.979 41.0423L108.588 43.3467ZM110.979 39.4771H112.37C113.327 39.4771 113.631 39.9119 113.631 40.738V41.3032C113.631 41.7814 113.457 42.0858 113.066 42.2162C113.544 42.3467 113.762 42.651 113.762 43.1727V43.9119C113.762 44.738 113.414 45.1727 112.457 45.1727H110.979V39.4771ZM111.936 41.8684H112.283C112.588 41.8684 112.718 41.6945 112.718 41.3901V40.6945C112.718 40.3901 112.588 40.2162 112.24 40.2162H111.892V41.8684H111.936ZM111.936 42.6075V44.3901H112.37C112.675 44.3901 112.848 44.2162 112.848 43.9119V43.0423C112.848 42.738 112.718 42.564 112.37 42.564H111.936V42.6075ZM114.24 39.4771H115.196V44.3901H116.327V45.1727H114.24V39.4771ZM116.762 39.4771H119.066V40.2597H117.718V41.9119H118.675V42.6945H117.718V44.4336H119.066V45.2162H116.762V39.4771ZM120.196 45.1727L121.283 39.4771H122.37L123.457 45.1727H122.457L122.283 44.1293H121.283L121.109 45.1727H120.196ZM121.414 43.3467H122.196L121.805 41.0423L121.414 43.3467ZM124.631 41.564V45.1727H123.805V39.4771H124.762L125.805 42.738V39.4771H126.588V45.1727H125.762L124.631 41.564ZM129.979 40.9988V43.651C129.979 44.5206 129.631 45.1727 128.588 45.1727H127.109V39.4771H128.588C129.631 39.4771 129.979 40.1293 129.979 40.9988ZM128.501 44.3901C128.892 44.3901 129.066 44.1727 129.066 43.8249V40.8249C129.066 40.4771 128.935 40.2597 128.501 40.2597H128.109V44.3901H128.501Z" fill="white"/>
<path d="M88.9795 52.0856V49.3464C88.9795 48.4769 89.4143 47.8247 90.4143 47.8247C91.4578 47.8247 91.7621 48.4334 91.7621 49.2595V49.9117H90.8925V49.1725C90.8925 48.8247 90.7621 48.6073 90.4143 48.6073C90.0664 48.6073 89.936 48.8682 89.936 49.216V52.2595C89.936 52.6073 90.0664 52.8682 90.4143 52.8682C90.7621 52.8682 90.8925 52.6508 90.8925 52.303V51.2595H91.7621V52.2595C91.7621 53.0856 91.4143 53.6943 90.4143 53.6943C89.4143 53.6508 88.9795 52.9986 88.9795 52.0856ZM92.3708 47.8682H93.3273V52.7812H94.4578V53.5638H92.3708V47.8682ZM94.9795 47.8682H97.2404V48.6508H95.936V50.2595H96.8925V51.0421H95.936V52.7812H97.2404V53.5638H94.9795V47.8682ZM97.7186 53.5638L98.8056 47.8682H99.8925L100.979 53.5638H99.9795L99.8056 52.5204H98.8056L98.6317 53.5638H97.7186ZM98.936 51.7812H99.7186L99.3273 49.4769L98.936 51.7812ZM102.24 49.9986V53.5638H101.414V47.8682H102.371L103.414 51.1291V47.8682H104.197V53.5638H103.371L102.24 49.9986ZM106.762 47.8682H109.023V48.6508H107.719V50.2595H108.675V51.0421H107.719V52.7812H109.023V53.5638H106.762V47.8682ZM110.414 49.9986V53.5638H109.588V47.8682H110.545L111.588 51.1291V47.8682H112.371V53.5638H111.545L110.414 49.9986ZM113.023 47.8682H115.284V48.6508H113.979V50.2595H114.936V51.0421H113.979V52.7812H115.284V53.5638H113.023V47.8682ZM116.849 50.9551V53.5638H115.892V47.8682H117.284C118.24 47.8682 118.588 48.3464 118.588 49.1291V49.8682C118.588 50.4769 118.371 50.8247 117.805 50.9551L118.719 53.5204H117.719L116.849 50.9551ZM116.849 48.6508V50.4334H117.153C117.501 50.4334 117.632 50.2595 117.632 49.9551V49.1291C117.632 48.8247 117.501 48.6508 117.153 48.6508H116.849ZM120.632 50.5204H121.979V53.5638H121.284V52.9551C121.153 53.3899 120.892 53.6508 120.371 53.6508C119.545 53.6508 119.153 52.9986 119.153 52.1291V49.3899C119.153 48.5204 119.588 47.8682 120.588 47.8682C121.632 47.8682 121.936 48.4769 121.936 49.303V49.8247H121.066V49.2595C121.066 48.9117 120.936 48.6943 120.588 48.6943C120.24 48.6943 120.11 48.9551 120.11 49.303V52.3464C120.11 52.6943 120.24 52.9551 120.588 52.9551C120.892 52.9551 121.066 52.7812 121.066 52.3899V51.3899H120.632V50.5204ZM124.458 51.3899V53.5638H123.501V51.3899L122.414 47.8682H123.414L123.979 50.0421L124.545 47.8682H125.458L124.458 51.3899Z" fill="white"/>
<path d="M104.066 95.5208C104.545 95.5208 104.892 95.1295 104.892 94.7382V90.26C104.892 89.8686 104.501 89.4773 104.066 89.4773C103.588 89.4773 103.24 89.9121 103.24 90.26V94.7382C103.24 95.086 103.632 95.5208 104.066 95.5208ZM103.979 67.5208C98.3272 67.5208 93.7185 72.1295 93.7185 77.7817C93.7185 83.4339 98.3272 88.0426 103.979 88.0426C109.632 88.0426 114.24 83.4339 114.24 77.7817C114.24 72.086 109.675 67.5208 103.979 67.5208ZM103.24 71.5643C103.24 71.2165 103.588 70.8687 104.023 70.8687C104.458 70.8687 104.762 71.26 104.762 71.5643V75.086C104.762 75.4339 104.414 75.7817 104.023 75.7817C103.588 75.7817 103.24 75.3904 103.24 75.086V71.5643ZM103.979 82.9991C101.023 82.9991 98.6316 80.6078 98.6316 77.6513C98.6316 75.26 100.197 73.2165 102.371 72.5643V74.5643C101.24 75.1295 100.458 76.3034 100.458 77.6513C100.458 79.5643 102.023 81.1295 103.936 81.1295C105.849 81.1295 107.414 79.5643 107.414 77.6513C107.414 76.3034 106.632 75.1295 105.501 74.5208V72.5208C107.675 73.173 109.24 75.2165 109.24 77.6078C109.327 80.6078 106.936 82.9991 103.979 82.9991ZM92.2403 77.6513C92.2403 77.173 91.849 76.8252 91.4577 76.8252H86.9359C86.5446 76.8252 86.1533 77.2165 86.1533 77.6513C86.1533 78.1295 86.5881 78.4773 86.9359 78.4773H91.4142C91.8055 78.5208 92.2403 78.1295 92.2403 77.6513ZM121.849 77.6513C121.849 77.173 121.458 76.8252 121.066 76.8252H116.588C116.197 76.8252 115.805 77.2165 115.805 77.6513C115.805 78.1295 116.24 78.4773 116.588 78.4773H121.066C121.414 78.5208 121.849 78.1295 121.849 77.6513ZM103.979 65.9121C104.458 65.9121 104.805 65.5208 104.805 65.1295V60.6513C104.805 60.26 104.414 59.8687 103.979 59.8687C103.501 59.8687 103.153 60.3034 103.153 60.6513V65.086C103.153 65.4773 103.545 65.9121 103.979 65.9121ZM93.762 71.8252C93.9794 71.4339 93.8055 70.8687 93.5011 70.6947L89.5881 68.4773C89.2403 68.3034 88.7185 68.3904 88.5011 68.8252C88.2838 69.2165 88.4577 69.7817 88.762 69.9556L92.6751 72.173C92.9794 72.3469 93.5446 72.2165 93.762 71.8252ZM119.501 86.5208C119.718 86.1295 119.545 85.5643 119.24 85.3904L115.327 83.173C114.979 82.9991 114.458 83.086 114.24 83.5208C114.023 83.9121 114.197 84.4773 114.501 84.6513L118.414 86.8687C118.718 87.0426 119.24 86.9556 119.501 86.5208ZM109.849 67.4339C110.24 67.6513 110.762 67.4773 110.979 67.173L113.197 63.26C113.371 62.9121 113.284 62.3904 112.849 62.173C112.458 61.9556 111.892 62.1295 111.719 62.4339L109.501 66.3469C109.327 66.6947 109.458 67.2165 109.849 67.4339ZM95.1098 93.173C95.5011 93.3904 96.0229 93.2165 96.2403 92.9121L98.4577 88.9991C98.6316 88.6513 98.5446 88.1295 98.1098 87.9121C97.7185 87.6947 97.1533 87.8687 96.9794 88.173L94.762 92.086C94.5881 92.3904 94.7185 92.9121 95.1098 93.173ZM98.1098 67.4773C98.5011 67.26 98.6316 66.6947 98.4577 66.3904L96.2403 62.4773C96.0664 62.1295 95.5011 61.9556 95.1098 62.2165C94.7185 62.4339 94.5881 62.9991 94.762 63.3469L96.9794 67.26C97.1968 67.5208 97.7185 67.6947 98.1098 67.4773ZM112.892 93.1295C113.284 92.9121 113.414 92.3469 113.24 92.0426L111.023 88.1295C110.849 87.7817 110.284 87.6078 109.892 87.8687C109.501 88.086 109.371 88.6513 109.545 88.9991L111.762 92.9121C111.936 93.2165 112.501 93.3904 112.892 93.1295ZM114.197 71.7817C114.414 72.173 114.979 72.3034 115.284 72.1295L119.197 69.9121C119.545 69.7382 119.718 69.173 119.458 68.7817C119.24 68.3904 118.675 68.26 118.327 68.4339L114.414 70.6513C114.153 70.8687 113.979 71.3904 114.197 71.7817ZM88.5446 86.5643C88.762 86.9556 89.3272 87.086 89.6316 86.9121L93.5446 84.6947C93.8925 84.5208 94.0664 83.9556 93.8055 83.5643C93.5881 83.173 93.0229 83.0426 92.6751 83.2165L88.762 85.4339C88.4577 85.6078 88.2838 86.173 88.5446 86.5643Z" fill="white"/>
<path d="M155.691 33.1987C162.664 33.1987 168.316 27.5463 168.316 20.5737C168.316 13.6011 162.664 7.94873 155.691 7.94873C148.719 7.94873 143.066 13.6011 143.066 20.5737C143.066 27.5463 148.719 33.1987 155.691 33.1987Z" fill="#A21942"/>
<path d="M150.301 15.9741V15.5789C150.301 15.2385 150.18 14.986 149.906 14.8653C150.147 14.7445 150.257 14.5359 150.257 14.2505V14.1078C150.257 13.5479 149.972 13.2515 149.412 13.2515C148.863 13.2515 148.577 13.5479 148.577 14.1078V14.2505C148.577 14.5359 148.687 14.7555 148.918 14.8653C148.643 14.986 148.522 15.2385 148.522 15.5789V15.9631C148.522 16.501 148.775 16.8853 149.412 16.8853C150.037 16.8962 150.301 16.512 150.301 15.9741ZM149.137 14.0639C149.137 13.8443 149.214 13.7235 149.401 13.7235C149.598 13.7235 149.675 13.8443 149.675 14.0639V14.3054C149.675 14.5249 149.598 14.6457 149.401 14.6457C149.203 14.6457 149.137 14.514 149.137 14.3054V14.0639ZM149.697 16.0399C149.697 16.2595 149.62 16.4132 149.401 16.4132C149.192 16.4132 149.115 16.2595 149.115 16.0399V15.4581C149.115 15.2385 149.192 15.0958 149.401 15.0958C149.62 15.0958 149.697 15.2495 149.697 15.4581V16.0399Z" fill="white"/>
<path d="M159.127 20.4969L157.326 22.2095C157.26 22.2754 157.227 22.3303 157.227 22.462V27.2485C157.227 27.3034 157.271 27.3473 157.326 27.3473H159.181C159.236 27.3473 159.28 27.3034 159.28 27.2485V20.5408C159.291 20.4749 159.247 20.3761 159.127 20.4969ZM153.956 22.7145L152.155 24.4271C152.09 24.493 152.057 24.5479 152.057 24.6796V27.2375C152.057 27.2924 152.101 27.3363 152.155 27.3363H154.011C154.066 27.3363 154.11 27.2924 154.11 27.2375V22.7584C154.121 22.7035 154.077 22.6047 153.956 22.7145Z" fill="white"/>
<path d="M159.951 18.4221C159.951 18.4111 159.951 18.3891 159.94 18.3782C159.929 18.3672 159.918 18.3672 159.907 18.3672H159.885L158.513 18.6746H158.491C158.48 18.6746 158.469 18.6856 158.469 18.6856C158.447 18.7075 158.447 18.7404 158.469 18.7624L158.48 18.7734L158.798 19.0918L155.68 22.2096L154.242 20.7714C154.231 20.7604 154.198 20.7604 154.187 20.7714L153.792 21.1666L151.487 23.4721C151.476 23.4831 151.476 23.516 151.487 23.527L151.882 23.9222C151.893 23.9332 151.926 23.9332 151.937 23.9222L154.22 21.6497L155.263 22.6926L155.658 23.0879C155.669 23.0988 155.702 23.0988 155.713 23.0879L159.248 19.5528L159.578 19.8822C159.6 19.9041 159.633 19.9041 159.655 19.8822C159.666 19.8712 159.666 19.8602 159.666 19.8493L159.973 18.444L159.951 18.4221Z" fill="white"/>
<path d="M156.558 23.022L155.691 23.9002C155.669 23.9112 155.647 23.9112 155.636 23.9002L154.846 23.0988C154.703 22.9561 154.67 23.0768 154.67 23.1317V27.2596C154.67 27.3145 154.714 27.3584 154.769 27.3584H156.624C156.679 27.3584 156.723 27.3145 156.723 27.2596V23.0659C156.723 22.989 156.679 22.8902 156.558 23.022Z" fill="white"/>
<path d="M152.343 13.6684V14.3381C152.343 14.5576 152.255 14.7223 151.991 14.7223H151.618V13.2842H151.991C152.255 13.2842 152.343 13.4488 152.343 13.6684ZM151.958 14.5247C152.057 14.5247 152.101 14.4698 152.101 14.382V13.6245C152.101 13.5367 152.068 13.4818 151.958 13.4818H151.86V14.5247H151.958ZM152.496 13.2842H153.078V13.4818H152.738V13.8989H152.979V14.0966H152.738V14.5357H153.078V14.7333H152.496V13.2842ZM153.199 14.3491V13.6464C153.199 13.4159 153.309 13.2622 153.561 13.2622C153.825 13.2622 153.902 13.4159 153.902 13.6245V13.8001H153.682V13.6025C153.682 13.5147 153.649 13.4598 153.561 13.4598C153.473 13.4598 153.441 13.5257 153.441 13.6135V14.393C153.441 14.4808 153.473 14.5467 153.561 14.5467C153.649 14.5467 153.682 14.4918 153.682 14.4039V14.1405H153.902V14.393C153.902 14.6016 153.814 14.7553 153.561 14.7553C153.309 14.7443 153.199 14.5686 153.199 14.3491ZM154.055 13.2842H154.637V13.4818H154.297V13.8989H154.538V14.0966H154.297V14.5357H154.637V14.7333H154.055V13.2842ZM154.978 13.8111V14.7223H154.769V13.2842H155.01L155.274 14.1075V13.2842H155.472V14.7223H155.263L154.978 13.8111ZM155.603 13.2842H156.251V13.4818H156.053V14.7223H155.812V13.4818H155.614V13.2842H155.603ZM157.14 13.8331L157.008 14.7223H156.778L156.58 13.2842H156.811L156.921 14.1954L157.041 13.2842H157.239L157.371 14.1954L157.481 13.2842H157.689L157.503 14.7223H157.283L157.14 13.8331ZM157.788 14.3491V13.6464C157.788 13.4159 157.898 13.2622 158.15 13.2622C158.403 13.2622 158.523 13.4269 158.523 13.6464V14.3491C158.523 14.5686 158.414 14.7333 158.15 14.7333C157.898 14.7443 157.788 14.5686 157.788 14.3491ZM158.271 14.393V13.6135C158.271 13.5257 158.238 13.4598 158.15 13.4598C158.062 13.4598 158.029 13.5257 158.029 13.6135V14.393C158.029 14.4808 158.062 14.5467 158.15 14.5467C158.238 14.5357 158.271 14.4808 158.271 14.393ZM158.919 14.0636V14.7223H158.677V13.2842H159.028C159.27 13.2842 159.358 13.4049 159.358 13.6025V13.7892C159.358 13.9429 159.303 14.0307 159.16 14.0636L159.391 14.7223H159.138L158.919 14.0636ZM158.919 13.4818V13.9319H158.996C159.083 13.9319 159.116 13.888 159.116 13.8111V13.6025C159.116 13.5257 159.083 13.4818 158.996 13.4818H158.919ZM159.753 14.0197V14.7223H159.511V13.2842H159.753V13.9209L160.016 13.2842H160.258L159.973 13.9319L160.258 14.7223H160.006L159.753 14.0197ZM160.598 14.7223L160.873 13.2842H161.147L161.422 14.7223H161.169L161.125 14.4588H160.873L160.829 14.7223H160.598ZM160.906 14.2612H161.103L161.005 13.6794L160.906 14.2612ZM161.707 13.8111V14.7223H161.499V13.2842H161.74L162.004 14.1075V13.2842H162.201V14.7223H161.993L161.707 13.8111ZM163.09 13.6684V14.3381C163.09 14.5576 163.003 14.7223 162.739 14.7223H162.366V13.2842H162.739C163.003 13.2842 163.09 13.4488 163.09 13.6684ZM162.706 14.5247C162.805 14.5247 162.849 14.4698 162.849 14.382V13.6245C162.849 13.5367 162.816 13.4818 162.706 13.4818H162.607V14.5247H162.706Z" fill="white"/>
<path d="M151.618 15.4033H152.2V15.6009H151.86V16.0181H152.101V16.2157H151.86V16.6548H152.2V16.8524H151.618V15.4033ZM152.299 16.4682V15.7656C152.299 15.535 152.409 15.3813 152.661 15.3813C152.925 15.3813 153.001 15.535 153.001 15.7436V15.9193H152.782V15.7327C152.782 15.6448 152.749 15.5899 152.661 15.5899C152.573 15.5899 152.54 15.6558 152.54 15.7436V16.5231C152.54 16.6109 152.573 16.6768 152.661 16.6768C152.749 16.6768 152.782 16.6219 152.782 16.5341V16.2706H153.001V16.5231C153.001 16.7317 152.914 16.8854 152.661 16.8854C152.409 16.8634 152.299 16.6987 152.299 16.4682ZM153.133 16.4682V15.7656C153.133 15.535 153.243 15.3813 153.495 15.3813C153.748 15.3813 153.869 15.546 153.869 15.7656V16.4682C153.869 16.6878 153.759 16.8524 153.495 16.8524C153.254 16.8634 153.133 16.6987 153.133 16.4682ZM153.627 16.5121V15.7327C153.627 15.6448 153.594 15.579 153.506 15.579C153.419 15.579 153.386 15.6448 153.386 15.7327V16.5121C153.386 16.5999 153.419 16.6658 153.506 16.6658C153.594 16.6548 153.627 16.5999 153.627 16.5121ZM154.22 15.9412V16.8524H154.011V15.4143H154.253L154.516 16.2377V15.4143H154.714V16.8524H154.505L154.22 15.9412ZM154.857 16.4682V15.7656C154.857 15.535 154.967 15.3813 155.219 15.3813C155.472 15.3813 155.592 15.546 155.592 15.7656V16.4682C155.592 16.6878 155.483 16.8524 155.219 16.8524C154.967 16.8634 154.857 16.6987 154.857 16.4682ZM155.34 16.5121V15.7327C155.34 15.6448 155.307 15.579 155.219 15.579C155.131 15.579 155.098 15.6448 155.098 15.7327V16.5121C155.098 16.5999 155.131 16.6658 155.219 16.6658C155.307 16.6548 155.34 16.5999 155.34 16.5121ZM156.394 15.9083L156.218 16.8415H156.108L155.933 15.9083V16.8415H155.735V15.4033H156.02L156.174 16.2157L156.317 15.4033H156.624V16.8415H156.405L156.394 15.9083ZM156.756 15.4033H156.998V16.8415H156.756V15.4033ZM157.129 16.4682V15.7656C157.129 15.535 157.239 15.3813 157.492 15.3813C157.755 15.3813 157.832 15.535 157.832 15.7436V15.9193H157.612V15.7327C157.612 15.6448 157.579 15.5899 157.492 15.5899C157.404 15.5899 157.371 15.6558 157.371 15.7436V16.5231C157.371 16.6109 157.404 16.6768 157.492 16.6768C157.579 16.6768 157.612 16.6219 157.612 16.5341V16.2706H157.832V16.5231C157.832 16.7317 157.744 16.8854 157.492 16.8854C157.239 16.8634 157.129 16.6987 157.129 16.4682ZM158.622 16.073H158.963V16.8415H158.787V16.6878C158.754 16.7975 158.688 16.8634 158.556 16.8634C158.348 16.8634 158.249 16.6987 158.249 16.4792V15.7766C158.249 15.546 158.359 15.3923 158.611 15.3923C158.875 15.3923 158.963 15.546 158.963 15.7546V15.8863H158.743V15.7436C158.743 15.6558 158.71 15.6009 158.622 15.6009C158.534 15.6009 158.501 15.6668 158.501 15.7546V16.5341C158.501 16.6219 158.534 16.6878 158.622 16.6878C158.699 16.6878 158.743 16.6438 158.743 16.545V16.2925H158.633V16.073H158.622ZM159.369 16.1828V16.8415H159.127V15.4033H159.479C159.72 15.4033 159.808 15.5241 159.808 15.7217V15.9083C159.808 16.062 159.753 16.1498 159.61 16.1828L159.841 16.8415H159.588L159.369 16.1828ZM159.369 15.6009V16.051H159.446C159.533 16.051 159.566 16.0071 159.566 15.9303V15.7217C159.566 15.6448 159.533 15.6009 159.446 15.6009H159.369ZM159.918 16.4682V15.7656C159.918 15.535 160.027 15.3813 160.28 15.3813C160.532 15.3813 160.653 15.546 160.653 15.7656V16.4682C160.653 16.6878 160.543 16.8524 160.28 16.8524C160.027 16.8634 159.918 16.6987 159.918 16.4682ZM160.412 16.5121V15.7327C160.412 15.6448 160.379 15.579 160.291 15.579C160.203 15.579 160.17 15.6448 160.17 15.7327V16.5121C160.17 16.5999 160.203 16.6658 160.291 16.6658C160.379 16.6548 160.412 16.5999 160.412 16.5121ZM161.279 15.9522L161.147 16.8415H160.917L160.719 15.4033H160.95L161.059 16.3145L161.18 15.4033H161.378L161.51 16.3145L161.619 15.4033H161.828L161.641 16.8415H161.411L161.279 15.9522ZM161.916 15.4033H162.563V15.6009H162.366V16.8415H162.113V15.6009H161.916V15.4033ZM163.112 16.2047H162.882V16.8415H162.64V15.4033H162.882V16.0181H163.112V15.4033H163.354V16.8415H163.112V16.2047Z" fill="white"/>
<path d="M160.89 122.052C167.796 122.052 173.395 116.453 173.395 109.547C173.395 102.641 167.796 97.042 160.89 97.042C153.983 97.042 148.385 102.641 148.385 109.547C148.385 116.453 153.983 122.052 160.89 122.052Z" fill="#FD6925"/>
<g clip-path="url(#clip0_6431_4442)">
<path d="M155.355 103.164C155.355 102.62 155.116 102.218 154.496 102.218C153.865 102.218 153.626 102.566 153.626 103.109V103.631C153.626 104.208 153.854 104.501 154.278 104.501C154.529 104.501 154.681 104.382 154.768 104.219V104.98C154.768 105.197 154.681 105.339 154.474 105.339C154.257 105.339 154.181 105.219 154.181 104.991V104.751H153.637V104.936C153.637 105.458 153.822 105.817 154.485 105.817C155.105 105.817 155.355 105.415 155.355 104.86V103.164ZM154.768 103.707C154.757 103.903 154.67 104.034 154.485 104.034C154.278 104.034 154.202 103.914 154.202 103.675V103.066C154.202 102.838 154.289 102.707 154.485 102.707C154.681 102.707 154.757 102.838 154.757 103.066V103.707H154.768ZM165.272 112.32L163.195 111.124V108.72C163.195 108.666 163.173 108.623 163.119 108.601L160.966 107.361C160.922 107.339 160.868 107.339 160.825 107.361L158.671 108.601C158.628 108.623 158.595 108.677 158.595 108.72V111.124L156.518 112.32C156.475 112.341 156.442 112.396 156.442 112.439V114.918C156.442 114.973 156.464 115.016 156.518 115.038L158.671 116.278C158.693 116.289 158.715 116.299 158.748 116.299C158.769 116.299 158.802 116.289 158.824 116.278L160.901 115.082L162.978 116.278C162.999 116.289 163.021 116.299 163.054 116.299C163.086 116.299 163.108 116.289 163.13 116.278L165.283 115.038C165.326 115.016 165.359 114.962 165.359 114.918V112.439C165.337 112.385 165.315 112.341 165.272 112.32ZM160.748 114.679L159.019 113.679L160.748 112.678V114.679ZM162.76 111.2L161.031 112.2V110.21L162.76 111.2ZM160.748 112.189L159.019 111.189L160.748 110.188V112.189ZM161.183 112.439L163.054 111.363L164.924 112.439L163.054 113.516L161.183 112.439ZM162.901 110.95L161.172 109.949L162.901 108.949V110.95ZM160.607 109.96L158.878 110.96V108.97L160.607 109.96ZM158.606 115.919L156.736 114.842V112.689L158.606 113.766V115.919ZM158.889 115.919V113.929L160.618 114.929L158.889 115.919ZM165.054 114.842L163.184 115.919V113.766L165.054 112.689V114.842Z" fill="white"/>
<path d="M156.28 102.305H156.509V103.631H156.28V102.305ZM156.824 102.805V103.642H156.639V102.316H156.857L157.096 103.077V102.316H157.281V103.642H157.085L156.824 102.805ZM158.085 102.664V103.283C158.085 103.49 157.998 103.642 157.759 103.642H157.411V102.316H157.759C158.009 102.305 158.085 102.457 158.085 102.664ZM157.737 103.457C157.824 103.457 157.868 103.403 157.868 103.327V102.631C157.868 102.555 157.835 102.501 157.737 102.501H157.64V103.468L157.737 103.457ZM158.879 102.305V103.305C158.879 103.512 158.792 103.642 158.564 103.642C158.325 103.642 158.227 103.512 158.227 103.305V102.305H158.455V103.327C158.455 103.403 158.488 103.457 158.564 103.457C158.64 103.457 158.673 103.403 158.673 103.327V102.305H158.879ZM158.999 103.349V103.175H159.205V103.36C159.205 103.436 159.238 103.479 159.314 103.479C159.379 103.479 159.412 103.436 159.412 103.36V103.305C159.412 103.229 159.379 103.186 159.314 103.12L159.184 102.99C159.053 102.859 158.999 102.783 158.999 102.631V102.588C158.999 102.424 159.097 102.294 159.314 102.294C159.542 102.294 159.629 102.403 159.629 102.598V102.707H159.423V102.588C159.423 102.511 159.39 102.479 159.314 102.479C159.249 102.479 159.205 102.511 159.205 102.588V102.62C159.205 102.696 159.249 102.74 159.314 102.805L159.455 102.946C159.575 103.066 159.64 103.142 159.64 103.294V103.36C159.64 103.544 159.542 103.675 159.314 103.675C159.086 103.653 158.999 103.523 158.999 103.349ZM159.695 102.305H160.293V102.49H160.108V103.631H159.88V102.49H159.695V102.305ZM160.619 103.022V103.631H160.401V102.305H160.728C160.956 102.305 161.032 102.414 161.032 102.598V102.772C161.032 102.914 160.978 103.001 160.858 103.033L161.076 103.631H160.836L160.619 103.022ZM160.619 102.49V102.903H160.695C160.771 102.903 160.804 102.859 160.804 102.794V102.598C160.804 102.522 160.771 102.49 160.695 102.49H160.619ZM161.554 103.131V103.631H161.326V103.131L161.076 102.305H161.304L161.435 102.805L161.565 102.305H161.782L161.554 103.131ZM162.022 103.436L161.913 103.74H161.782L161.815 103.425H162.022V103.436ZM162.381 102.305H162.609V103.631H162.381V102.305ZM162.924 102.805V103.642H162.739V102.316H162.957L163.196 103.077V102.316H163.381V103.642H163.185L162.924 102.805ZM163.707 102.805V103.642H163.522V102.316H163.74L163.979 103.077V102.316H164.164V103.642H163.968L163.707 102.805ZM164.305 103.294V102.653C164.305 102.446 164.403 102.294 164.642 102.294C164.882 102.294 164.979 102.446 164.979 102.653V103.294C164.979 103.501 164.882 103.653 164.642 103.653C164.403 103.653 164.305 103.501 164.305 103.294ZM164.762 103.327V102.609C164.762 102.533 164.729 102.468 164.642 102.468C164.566 102.468 164.534 102.522 164.534 102.609V103.327C164.534 103.403 164.566 103.468 164.642 103.468C164.718 103.468 164.762 103.414 164.762 103.327ZM165.838 102.305L165.588 103.631H165.349L165.099 102.305H165.327L165.48 103.229L165.632 102.305H165.838ZM165.806 103.631L166.056 102.305H166.306L166.556 103.631H166.328L166.284 103.392H166.056L166.012 103.631H165.806ZM166.078 103.218H166.252L166.165 102.685L166.078 103.218ZM166.534 102.305H167.132V102.49H166.948V103.631H166.719V102.49H166.534V102.305ZM167.241 102.305H167.47V103.631H167.241V102.305ZM167.611 103.294V102.653C167.611 102.446 167.709 102.294 167.948 102.294C168.187 102.294 168.285 102.446 168.285 102.653V103.294C168.285 103.501 168.187 103.653 167.948 103.653C167.709 103.653 167.611 103.501 167.611 103.294ZM168.057 103.327V102.609C168.057 102.533 168.024 102.468 167.937 102.468C167.861 102.468 167.828 102.522 167.828 102.609V103.327C167.828 103.403 167.861 103.468 167.937 103.468C168.024 103.468 168.057 103.414 168.057 103.327ZM168.611 102.805V103.642H168.426V102.316H168.644L168.883 103.077V102.316H169.068V103.642H168.872L168.611 102.805Z" fill="white"/>
<path d="M156.236 105.741L156.486 104.414H156.737L156.987 105.741H156.758L156.715 105.502H156.486L156.443 105.741H156.236ZM156.519 105.317H156.693L156.606 104.784L156.519 105.317ZM157.269 104.904V105.741H157.084V104.414H157.302L157.541 105.175V104.414H157.726V105.741H157.53L157.269 104.904ZM158.531 104.762V105.382C158.531 105.589 158.444 105.741 158.205 105.741H157.857V104.414H158.205C158.444 104.414 158.531 104.567 158.531 104.762ZM158.183 105.556C158.27 105.556 158.313 105.502 158.313 105.426V104.73C158.313 104.654 158.281 104.599 158.183 104.599H158.085V105.567L158.183 105.556ZM158.879 104.414H159.107V105.741H158.879V104.414ZM159.433 104.904V105.741H159.248V104.414H159.466L159.705 105.175V104.414H159.89V105.741H159.694L159.433 104.904ZM160.031 104.414H160.553V104.599H160.249V104.98H160.477V105.165H160.249V105.752H160.02L160.031 104.414ZM160.879 105.132V105.741H160.651V104.414H160.977C161.206 104.414 161.282 104.523 161.282 104.708V104.882C161.282 105.023 161.227 105.11 161.108 105.143L161.325 105.741H161.086L160.879 105.132ZM160.879 104.588V105.002H160.956C161.032 105.002 161.064 104.958 161.064 104.893V104.697C161.064 104.621 161.032 104.588 160.956 104.588H160.879ZM161.391 105.741L161.641 104.414H161.891L162.141 105.741H161.913L161.869 105.502H161.63L161.586 105.741H161.391ZM161.662 105.317H161.836L161.749 104.784L161.662 105.317ZM162.217 105.447V105.273H162.424V105.458C162.424 105.534 162.456 105.578 162.532 105.578C162.598 105.578 162.63 105.534 162.63 105.458V105.404C162.63 105.328 162.598 105.284 162.532 105.219L162.402 105.089C162.271 104.958 162.217 104.882 162.217 104.73V104.686C162.217 104.523 162.315 104.393 162.532 104.393C162.761 104.393 162.848 104.501 162.848 104.697V104.806H162.641V104.686C162.641 104.61 162.608 104.577 162.532 104.577C162.467 104.577 162.424 104.61 162.424 104.686V104.719C162.424 104.795 162.467 104.838 162.532 104.904L162.674 105.045C162.793 105.165 162.859 105.241 162.859 105.393V105.458C162.859 105.643 162.761 105.774 162.532 105.774C162.304 105.774 162.217 105.621 162.217 105.447ZM162.924 104.414H163.522V104.599H163.337V105.741H163.109V104.599H162.924V104.414ZM163.859 105.132V105.741H163.631V104.414H163.957C164.185 104.414 164.261 104.523 164.261 104.708V104.882C164.261 105.023 164.207 105.11 164.087 105.143L164.305 105.741H164.066L163.859 105.132ZM163.859 104.588V105.002H163.935C164.011 105.002 164.044 104.958 164.044 104.893V104.697C164.044 104.621 164.011 104.588 163.935 104.588H163.859ZM165.044 104.414V105.415C165.044 105.621 164.957 105.752 164.729 105.752C164.49 105.752 164.392 105.621 164.392 105.415V104.414H164.62V105.436C164.62 105.513 164.653 105.567 164.729 105.567C164.805 105.567 164.838 105.513 164.838 105.436V104.414H165.044ZM165.186 105.393V104.751C165.186 104.545 165.283 104.393 165.523 104.393C165.773 104.393 165.838 104.534 165.838 104.73V104.882H165.631V104.708C165.631 104.621 165.599 104.577 165.523 104.577C165.447 104.577 165.414 104.632 165.414 104.719V105.436C165.414 105.513 165.447 105.578 165.523 105.578C165.599 105.578 165.631 105.523 165.631 105.447V105.197H165.838V105.426C165.838 105.61 165.762 105.752 165.523 105.752C165.283 105.752 165.186 105.6 165.186 105.393ZM165.881 104.414H166.48V104.599H166.295V105.741H166.066V104.599H165.881V104.414ZM167.241 104.414V105.415C167.241 105.621 167.154 105.752 166.925 105.752C166.686 105.752 166.588 105.621 166.588 105.415V104.414H166.817V105.436C166.817 105.513 166.849 105.567 166.925 105.567C167.001 105.567 167.034 105.513 167.034 105.436V104.414H167.241ZM167.6 105.132V105.741H167.371V104.414H167.697C167.926 104.414 168.002 104.523 168.002 104.708V104.882C168.002 105.023 167.948 105.11 167.828 105.143L168.045 105.741H167.806L167.6 105.132ZM167.6 104.588V105.002H167.676C167.752 105.002 167.784 104.958 167.784 104.893V104.697C167.784 104.621 167.752 104.588 167.676 104.588H167.6ZM168.143 104.414H168.676V104.599H168.372V104.98H168.589V105.165H168.372V105.567H168.676V105.752H168.143V104.414Z" fill="white"/>
</g>
<path d="M165.01 89.3727C167.946 89.3727 170.325 86.9931 170.325 84.0577C170.325 81.1223 167.946 78.7427 165.01 78.7427C162.075 78.7427 159.695 81.1223 159.695 84.0577C159.695 86.9931 162.075 89.3727 165.01 89.3727Z" fill="#DD1367"/>
<path d="M181.72 75.0248C193.553 75.0248 203.145 65.4325 203.145 53.5998C203.145 41.7671 193.553 32.1748 181.72 32.1748C169.887 32.1748 160.295 41.7671 160.295 53.5998C160.295 65.4325 169.887 75.0248 181.72 75.0248Z" fill="#FD9D24"/>
<path d="M169.015 42.3287V43.3906L169.741 42.6454V47.2658H170.766V41.2295H169.946L169.015 42.3287ZM171.325 42.3287V43.3906H171.343L172.051 42.6454V47.2658H173.076V41.2295H172.256L171.325 42.3287Z" fill="white"/>
<path d="M171.809 61.5364H176.318C176.374 61.5364 176.43 61.4805 176.43 61.4246C176.43 61.3873 176.411 61.3687 176.392 61.3501L174.157 58.4437L174.138 58.4251C174.119 58.4065 174.082 58.3878 174.063 58.3878C174.045 58.3878 174.008 58.4065 173.989 58.4251L173.97 58.4437L173.952 58.4623L171.753 61.3314L171.716 61.3687C171.697 61.3873 171.697 61.406 171.697 61.4246C171.697 61.4805 171.753 61.5364 171.809 61.5364ZM176.299 61.9462H171.772C171.716 61.9462 171.66 62.0021 171.66 62.058V65.5978C171.66 65.6537 171.716 65.7096 171.772 65.7096H173.225V63.4926C173.225 63.4367 173.281 63.3808 173.337 63.3808H174.678C174.734 63.3808 174.79 63.4367 174.79 63.4926V65.7096H176.281C176.336 65.7096 176.392 65.6537 176.392 65.5978V62.058C176.411 62.0021 176.374 61.9462 176.299 61.9462ZM191.911 61.0147H187.44C187.384 61.0147 187.328 61.0706 187.328 61.1265V65.6351C187.328 65.691 187.384 65.7468 187.44 65.7468H191.911C191.967 65.7468 192.023 65.691 192.023 65.6351V61.1265C192.023 61.0706 191.986 61.0147 191.911 61.0147ZM189.471 63.977C189.471 64.0328 189.415 64.0887 189.359 64.0887H188.018C187.962 64.0887 187.906 64.0328 187.906 63.977V63.1572C187.906 63.1013 187.962 63.0454 188.018 63.0454H189.359C189.415 63.0454 189.471 63.1013 189.471 63.1572V63.977ZM189.471 62.4679C189.471 62.5238 189.415 62.5797 189.359 62.5797H188.018C187.962 62.5797 187.906 62.5238 187.906 62.4679V61.6482C187.906 61.5923 187.962 61.5364 188.018 61.5364H189.359C189.415 61.5364 189.471 61.5923 189.471 61.6482V62.4679ZM191.52 63.977C191.52 64.0328 191.464 64.0887 191.408 64.0887H190.067C190.011 64.0887 189.955 64.0328 189.955 63.977V63.1572C189.955 63.1013 190.011 63.0454 190.067 63.0454H191.408C191.464 63.0454 191.52 63.1013 191.52 63.1572V63.977ZM191.52 62.4679C191.52 62.5238 191.464 62.5797 191.408 62.5797H190.067C190.011 62.5797 189.955 62.5238 189.955 62.4679V61.6482C189.955 61.5923 190.011 61.5364 190.067 61.5364H191.408C191.464 61.5364 191.52 61.5923 191.52 61.6482V62.4679ZM181.516 50.5444H177.156C177.1 50.5444 177.044 50.6003 177.044 50.6562V65.6164C177.044 65.6723 177.1 65.7282 177.156 65.7282H181.534C181.59 65.7282 181.646 65.6723 181.646 65.6164V50.6562C181.627 50.5817 181.59 50.5444 181.516 50.5444ZM178.926 64.0142C178.926 64.0515 178.907 64.0701 178.87 64.0701H177.864C177.827 64.0701 177.808 64.0515 177.808 64.0142V62.8964C177.808 62.8591 177.827 62.8405 177.864 62.8405H178.87C178.907 62.8405 178.926 62.8591 178.926 62.8964V64.0142ZM178.926 61.4432C178.926 61.4805 178.907 61.4991 178.87 61.4991H177.864C177.827 61.4991 177.808 61.4805 177.808 61.4432V60.3254C177.808 60.2881 177.827 60.2695 177.864 60.2695H178.87C178.907 60.2695 178.926 60.2881 178.926 60.3254V61.4432ZM178.926 58.8722C178.926 58.9095 178.907 58.9281 178.87 58.9281H177.864C177.827 58.9281 177.808 58.9095 177.808 58.8722V57.7544C177.808 57.7171 177.827 57.6985 177.864 57.6985H178.87C178.907 57.6985 178.926 57.7171 178.926 57.7544V58.8722ZM178.926 56.3199C178.926 56.3571 178.907 56.3758 178.87 56.3758H177.864C177.827 56.3758 177.808 56.3571 177.808 56.3199V55.202C177.808 55.1648 177.827 55.1462 177.864 55.1462H178.87C178.907 55.1462 178.926 55.1648 178.926 55.202V56.3199ZM178.926 53.7489C178.926 53.7861 178.907 53.8048 178.87 53.8048H177.864C177.827 53.8048 177.808 53.7861 177.808 53.7489V52.631C177.808 52.5938 177.827 52.5752 177.864 52.5752H178.87C178.907 52.5752 178.926 52.5938 178.926 52.631V53.7489ZM180.882 64.0142C180.882 64.0515 180.864 64.0701 180.826 64.0701H179.82C179.783 64.0701 179.764 64.0515 179.764 64.0142V62.8964C179.764 62.8591 179.783 62.8405 179.82 62.8405H180.826C180.864 62.8405 180.882 62.8591 180.882 62.8964V64.0142ZM180.882 61.4432C180.882 61.4805 180.864 61.4991 180.826 61.4991H179.82C179.783 61.4991 179.764 61.4805 179.764 61.4432V60.3254C179.764 60.2881 179.783 60.2695 179.82 60.2695H180.826C180.864 60.2695 180.882 60.2881 180.882 60.3254V61.4432ZM180.882 58.8722C180.882 58.9095 180.864 58.9281 180.826 58.9281H179.82C179.783 58.9281 179.764 58.9095 179.764 58.8722V57.7544C179.764 57.7171 179.783 57.6985 179.82 57.6985H180.826C180.864 57.6985 180.882 57.7171 180.882 57.7544V58.8722ZM180.882 56.3199C180.882 56.3571 180.864 56.3758 180.826 56.3758H179.82C179.783 56.3758 179.764 56.3571 179.764 56.3199V55.202C179.764 55.1648 179.783 55.1462 179.82 55.1462H180.826C180.864 55.1462 180.882 55.1648 180.882 55.202V56.3199ZM180.882 53.7489C180.882 53.7861 180.864 53.8048 180.826 53.8048H179.82C179.783 53.8048 179.764 53.7861 179.764 53.7489V52.631C179.764 52.5938 179.783 52.5752 179.82 52.5752H180.826C180.864 52.5752 180.882 52.5938 180.882 52.631V53.7489ZM192.023 60.5676C192.023 60.6235 191.986 60.6607 191.93 60.6607H187.422C187.366 60.6607 187.328 60.6235 187.328 60.5676V59.6733C187.328 59.6174 187.366 59.5802 187.422 59.5802H191.93C191.986 59.5802 192.023 59.6174 192.023 59.6733V60.5676ZM186.807 53.3576C186.788 53.3017 186.751 53.2831 186.695 53.2831C186.676 53.2831 186.658 53.2831 186.639 53.3017L186.602 53.339L182.298 58.7977L182.28 58.8163C182.261 58.835 182.242 58.8722 182.242 58.9095V65.6164C182.242 65.6723 182.298 65.7282 182.354 65.7282H186.732C186.788 65.7282 186.844 65.6723 186.844 65.6164V53.3949C186.825 53.3949 186.825 53.3763 186.807 53.3576ZM185 56.3199L185.037 56.2826C185.335 55.91 185.819 55.2952 186.061 54.9971L186.099 54.9598C186.117 54.9412 186.155 54.9226 186.192 54.9226C186.248 54.9226 186.304 54.9598 186.304 55.0157V56.3944C186.304 56.4689 186.248 56.5062 186.192 56.5248H185.111C185.037 56.5248 185 56.4689 185 56.3944C184.981 56.3758 184.981 56.3385 185 56.3199ZM184.31 63.9583C184.31 64.0142 184.254 64.0701 184.198 64.0701H182.894C182.838 64.0701 182.783 64.0142 182.783 63.9583V63.1386C182.783 63.0827 182.838 63.0268 182.894 63.0268H184.198C184.254 63.0268 184.31 63.0827 184.31 63.1386V63.9583ZM184.31 62.4679C184.31 62.5238 184.254 62.5797 184.198 62.5797H182.894C182.838 62.5797 182.783 62.5238 182.783 62.4679V61.6482C182.783 61.5923 182.838 61.5364 182.894 61.5364H184.198C184.254 61.5364 184.31 61.5923 184.31 61.6482V62.4679ZM184.31 60.9588C184.31 61.0147 184.254 61.0706 184.198 61.0706H182.894C182.838 61.0706 182.783 61.0147 182.783 60.9588V60.1391C182.783 60.0832 182.838 60.0273 182.894 60.0273H184.198C184.254 60.0273 184.31 60.0832 184.31 60.1391V60.9588ZM184.329 57.6426V59.4311C184.329 59.487 184.273 59.5429 184.217 59.5429H182.913C182.857 59.5429 182.801 59.487 182.801 59.4311V59.2076V59.1703V59.1517C182.801 59.1517 182.801 59.133 182.82 59.133C182.82 59.133 182.82 59.1144 182.838 59.1144C183.006 58.8722 183.751 57.9407 184.068 57.5681L184.105 57.5308C184.124 57.5122 184.161 57.4936 184.198 57.4936C184.254 57.4936 184.31 57.5308 184.31 57.5867V57.6426H184.329ZM186.322 63.9583C186.322 64.0142 186.266 64.0701 186.211 64.0701H184.906C184.851 64.0701 184.795 64.0142 184.795 63.9583V63.1386C184.795 63.0827 184.851 63.0268 184.906 63.0268H186.211C186.266 63.0268 186.322 63.0827 186.322 63.1386V63.9583ZM186.322 62.4679C186.322 62.5238 186.266 62.5797 186.211 62.5797H184.906C184.851 62.5797 184.795 62.5238 184.795 62.4679V61.6482C184.795 61.5923 184.851 61.5364 184.906 61.5364H186.211C186.266 61.5364 186.322 61.5923 186.322 61.6482V62.4679ZM186.322 60.9588C186.322 61.0147 186.266 61.0706 186.211 61.0706H184.906C184.851 61.0706 184.795 61.0147 184.795 60.9588V60.1391C184.795 60.0832 184.851 60.0273 184.906 60.0273H186.211C186.266 60.0273 186.322 60.0832 186.322 60.1391V60.9588ZM186.322 59.4498C186.322 59.5057 186.266 59.5615 186.211 59.5615H184.906C184.851 59.5615 184.795 59.5057 184.795 59.4498V58.63C184.795 58.5741 184.851 58.5182 184.906 58.5182H186.211C186.266 58.5182 186.322 58.5741 186.322 58.63V59.4498ZM186.322 57.9407C186.322 57.9966 186.266 58.0525 186.211 58.0525H184.906C184.851 58.0525 184.795 57.9966 184.795 57.9407V57.121C184.795 57.0651 184.851 57.0092 184.906 57.0092H186.211C186.266 57.0092 186.322 57.0651 186.322 57.121V57.9407Z" fill="white"/>
<path d="M175.051 43.1486V42.8132H175.442V43.1486C175.442 43.279 175.498 43.3721 175.647 43.3721C175.777 43.3721 175.833 43.279 175.833 43.1486V43.0554C175.833 42.9064 175.777 42.8319 175.647 42.7014L175.405 42.4593C175.163 42.2357 175.069 42.0866 175.069 41.8072V41.7327C175.069 41.4346 175.256 41.1924 175.647 41.1924C176.057 41.1924 176.224 41.3973 176.224 41.7513V41.9562H175.852V41.7513C175.852 41.6023 175.796 41.5464 175.666 41.5464C175.554 41.5464 175.479 41.6023 175.479 41.7513V41.8072C175.479 41.9376 175.554 42.0308 175.666 42.1425L175.926 42.4034C176.15 42.6269 176.262 42.776 176.262 43.0368V43.1486C176.262 43.4839 176.075 43.7261 175.666 43.7261C175.256 43.7261 175.051 43.4653 175.051 43.1486ZM177.603 41.2296V43.0741C177.603 43.4467 177.435 43.7075 177.026 43.7075C176.597 43.7075 176.411 43.4653 176.411 43.0741V41.2296H176.821V43.1299C176.821 43.279 176.877 43.3721 177.026 43.3721C177.175 43.3721 177.231 43.279 177.231 43.1299V41.2296H177.603ZM177.827 43.1486V42.8132H178.218V43.1486C178.218 43.279 178.274 43.3721 178.423 43.3721C178.553 43.3721 178.609 43.279 178.609 43.1486V43.0554C178.609 42.9064 178.553 42.8319 178.423 42.7014L178.181 42.4593C177.938 42.2357 177.845 42.0866 177.845 41.8072V41.7327C177.845 41.4346 178.013 41.1924 178.423 41.1924C178.833 41.1924 179 41.3973 179 41.7513V41.9562H178.628V41.7513C178.628 41.6023 178.572 41.5464 178.442 41.5464C178.33 41.5464 178.255 41.6023 178.255 41.7513V41.8072C178.255 41.9376 178.33 42.0308 178.442 42.1425L178.702 42.4034C178.926 42.6269 179.038 42.776 179.038 43.0368V43.1486C179.038 43.4839 178.851 43.7261 178.442 43.7261C177.976 43.7075 177.827 43.4653 177.827 43.1486ZM179.094 41.2296H180.193V41.565H179.857V43.6702H179.448V41.565H179.112V41.2296H179.094ZM180.118 43.6702L180.584 41.2296H181.05L181.516 43.6702H181.087L181.013 43.2231H180.584L180.509 43.6702H180.118ZM180.64 42.8878H180.975L180.808 41.9003L180.64 42.8878ZM181.683 41.2296H182.093V43.6702H181.683V41.2296ZM182.671 42.1239V43.6702H182.317V41.2296H182.727L183.174 42.6269V41.2296H183.509V43.6702H183.155L182.671 42.1239ZM183.658 43.6702L184.124 41.2296H184.59L185.055 43.6702H184.627L184.552 43.2231H184.124L184.049 43.6702H183.658ZM184.18 42.8878H184.515L184.347 41.9003L184.18 42.8878ZM185.186 41.2296H185.782C186.192 41.2296 186.322 41.4159 186.322 41.7699V42.0121C186.322 42.2171 186.248 42.3475 186.08 42.4034C186.285 42.4593 186.378 42.5897 186.378 42.8132V43.1299C186.378 43.4839 186.229 43.6702 185.819 43.6702H185.186V41.2296ZM185.596 42.2543H185.745C185.875 42.2543 185.931 42.1798 185.931 42.0494V41.7513C185.931 41.6209 185.875 41.5464 185.726 41.5464H185.577L185.596 42.2543ZM185.596 42.571V43.3349H185.782C185.912 43.3349 185.987 43.2604 185.987 43.1299V42.7573C185.987 42.6269 185.931 42.5524 185.782 42.5524H185.596V42.571ZM186.564 41.2296H186.974V43.3349H187.459V43.6702H186.564V41.2296ZM187.626 41.2296H188.614V41.565H188.036V42.2729H188.446V42.6083H188.036V43.3535H188.614V43.6889H187.626V41.2296ZM189.303 43.0368V41.8444C189.303 41.4532 189.489 41.1924 189.918 41.1924C190.365 41.1924 190.495 41.4532 190.495 41.8072V42.1053H190.123V41.7699C190.123 41.6209 190.067 41.5277 189.918 41.5277C189.769 41.5277 189.713 41.6395 189.713 41.7886V43.1113C189.713 43.2604 189.769 43.3721 189.918 43.3721C190.067 43.3721 190.123 43.279 190.123 43.1299V42.6828H190.495V43.1113C190.495 43.4653 190.346 43.7261 189.918 43.7261C189.471 43.7075 189.303 43.4094 189.303 43.0368ZM190.682 41.2296H191.092V43.6702H190.682V41.2296ZM191.241 41.2296H192.34V41.565H192.004V43.6702H191.595V41.565H191.259V41.2296H191.241ZM192.507 41.2296H192.917V43.6702H192.507V41.2296ZM193.141 41.2296H194.128V41.565H193.551V42.2729H193.961V42.6083H193.551V43.3535H194.128V43.6889H193.141V41.2296ZM194.221 43.1486V42.8132H194.613V43.1486C194.613 43.279 194.669 43.3721 194.818 43.3721C194.948 43.3721 195.004 43.279 195.004 43.1486V43.0554C195.004 42.9064 194.948 42.8319 194.818 42.7014L194.575 42.4593C194.333 42.2357 194.24 42.0866 194.24 41.8072V41.7327C194.24 41.4346 194.426 41.1924 194.818 41.1924C195.228 41.1924 195.395 41.3973 195.395 41.7513V41.9562H195.023V41.7513C195.023 41.6023 194.967 41.5464 194.836 41.5464C194.724 41.5464 194.65 41.6023 194.65 41.7513V41.8072C194.65 41.9376 194.724 42.0308 194.836 42.1425L195.097 42.4034C195.321 42.6269 195.432 42.776 195.432 43.0368V43.1486C195.432 43.4839 195.246 43.7261 194.836 43.7261C194.426 43.7261 194.221 43.4653 194.221 43.1486Z" fill="white"/>
<path d="M175.051 47.2659L175.517 44.8253H175.982L176.448 47.2659H176.038L175.964 46.8188H175.535L175.461 47.2659H175.051ZM175.572 46.5021H175.908L175.74 45.5147L175.572 46.5021ZM176.97 45.7382V47.2846H176.616V44.844H177.026L177.473 46.2413V44.844H177.808V47.2846H177.454L176.97 45.7382ZM179.28 45.4774V46.6139C179.28 46.9865 179.131 47.2659 178.684 47.2659H178.05V44.8253H178.684C179.112 44.8253 179.28 45.1048 179.28 45.4774ZM178.628 46.9306C178.795 46.9306 178.87 46.8374 178.87 46.6884V45.4029C178.87 45.2538 178.814 45.1607 178.628 45.1607H178.46V46.9306H178.628ZM179.876 46.6325V45.4402C179.876 45.0489 180.062 44.7881 180.491 44.7881C180.938 44.7881 181.068 45.0489 181.068 45.4029V45.701H180.696V45.3843C180.696 45.2352 180.64 45.1421 180.491 45.1421C180.342 45.1421 180.286 45.2538 180.286 45.4029V46.7257C180.286 46.8747 180.342 46.9865 180.491 46.9865C180.64 46.9865 180.696 46.8933 180.696 46.7443V46.2972H181.068V46.7257C181.068 47.0796 180.919 47.3405 180.491 47.3405C180.044 47.3032 179.876 47.0237 179.876 46.6325ZM181.292 46.6325V45.4402C181.292 45.0489 181.478 44.7881 181.907 44.7881C182.335 44.7881 182.54 45.0675 182.54 45.4402V46.6325C182.54 47.0051 182.354 47.2846 181.907 47.2846C181.478 47.3032 181.292 47.0237 181.292 46.6325ZM182.112 46.707V45.3843C182.112 45.2352 182.056 45.1234 181.907 45.1234C181.758 45.1234 181.702 45.2352 181.702 45.3843V46.707C181.702 46.8561 181.758 46.9678 181.907 46.9678C182.056 46.9492 182.112 46.8561 182.112 46.707ZM183.9 45.6823L183.602 47.2659H183.416L183.118 45.6823V47.2659H182.782V44.8253H183.267L183.528 46.204L183.77 44.8253H184.291V47.2659H183.919L183.9 45.6823ZM185.633 45.6823L185.335 47.2659H185.148L184.85 45.6823V47.2659H184.515V44.8253H184.999L185.26 46.204L185.502 44.8253H186.024V47.2659H185.651V45.6823H185.633ZM187.44 44.8253V46.6698C187.44 47.0424 187.272 47.3032 186.862 47.3032C186.434 47.3032 186.248 47.061 186.248 46.6698V44.8253H186.658V46.7257C186.658 46.8747 186.713 46.9678 186.862 46.9678C187.011 46.9678 187.067 46.8747 187.067 46.7257V44.8253H187.44ZM187.999 45.7382V47.2846H187.645V44.844H188.055L188.502 46.2413V44.844H188.837V47.2846H188.483L187.999 45.7382ZM189.079 44.8253H189.489V47.2659H189.079V44.8253ZM189.676 44.8253H190.775V45.1607H190.439V47.2659H190.011V45.1607H189.676V44.8253ZM190.961 44.8253H191.371V47.2659H190.961V44.8253ZM191.595 44.8253H192.582V45.1607H192.004V45.8687H192.414V46.204H192.004V46.9492H192.582V47.2846H191.595V44.8253ZM192.75 46.7443V46.4089H193.141V46.7443C193.141 46.8747 193.197 46.9678 193.346 46.9678C193.476 46.9678 193.532 46.8747 193.532 46.7443V46.6511C193.532 46.5021 193.476 46.4276 193.346 46.2972L193.104 46.055C192.861 45.8314 192.768 45.6823 192.768 45.4029V45.3284C192.768 45.0303 192.936 44.7881 193.346 44.7881C193.756 44.7881 193.923 44.993 193.923 45.347V45.5519H193.551V45.347C193.551 45.198 193.495 45.1421 193.364 45.1421C193.253 45.1421 193.178 45.198 193.178 45.347V45.4029C193.178 45.5333 193.253 45.6265 193.364 45.7382L193.625 45.9991C193.849 46.2226 193.961 46.3717 193.961 46.6325V46.7443C193.961 47.0796 193.774 47.3218 193.364 47.3218C192.917 47.3032 192.75 47.061 192.75 46.7443Z" fill="white"/>
<path d="M190.624 98.1226C195.089 98.1226 198.709 94.5029 198.709 90.0376C198.709 85.5724 195.089 81.9526 190.624 81.9526C186.159 81.9526 182.539 85.5724 182.539 90.0376C182.539 94.5029 186.159 98.1226 190.624 98.1226Z" fill="#BF8B2E"/>
<path d="M202.349 78.3953C203.238 78.3953 203.959 77.6745 203.959 76.7853C203.959 75.8961 203.238 75.1753 202.349 75.1753C201.46 75.1753 200.739 75.8961 200.739 76.7853C200.739 77.6745 201.46 78.3953 202.349 78.3953Z" fill="#0A97D9"/>
<path d="M224.66 81.6654C232.839 81.6654 239.47 75.0347 239.47 66.8554C239.47 58.6761 232.839 52.0454 224.66 52.0454C216.48 52.0454 209.85 58.6761 209.85 66.8554C209.85 75.0347 216.48 81.6654 224.66 81.6654Z" fill="#56C02B"/>
<path d="M215.877 59.1026V59.8367L216.366 59.3215H216.379V62.5282H217.075V58.3428H216.521L215.877 59.1026ZM218.749 59.6692C218.465 59.6692 218.272 59.7723 218.156 59.9526V58.9094H219.367V58.3428H217.512V60.6995H218.156V60.6093C218.156 60.3647 218.272 60.223 218.465 60.223C218.684 60.223 218.762 60.3647 218.762 60.5965V61.601C218.762 61.8199 218.684 61.9744 218.465 61.9744C218.221 61.9744 218.144 61.8199 218.144 61.5623V61.0343H217.5V61.5108C217.5 62.1419 217.757 62.554 218.465 62.554C219.174 62.554 219.47 62.1805 219.47 61.601V60.5836C219.47 59.9397 219.122 59.6692 218.749 59.6692Z" fill="white"/>
<path d="M223.038 70.6155C223.063 70.6155 223.089 70.6413 223.089 70.667V72.1738C223.089 72.1995 223.063 72.2253 223.038 72.2253H222.432C222.407 72.2253 222.381 72.1995 222.381 72.1738V70.667C222.381 70.6413 222.407 70.6155 222.432 70.6155H223.038ZM229.747 72.8692H219.689C219.663 72.8692 219.638 72.895 219.638 72.9207V73.5389C219.638 73.5646 219.663 73.5904 219.689 73.5904H229.747C229.773 73.5904 229.799 73.5646 229.799 73.5389V72.9207C229.799 72.895 229.773 72.8692 229.747 72.8692ZM229.747 74.0926H219.689C219.663 74.0926 219.638 74.1184 219.638 74.1441V74.7623C219.638 74.7881 219.663 74.8138 219.689 74.8138H229.747C229.773 74.8138 229.799 74.7881 229.799 74.7623V74.1441C229.799 74.1184 229.773 74.0926 229.747 74.0926ZM227.828 68.9542C227.699 68.8512 227.365 68.6323 226.953 68.6323C226.656 68.6323 226.386 68.7482 226.141 68.98C226.128 68.9929 226.115 69.0186 226.115 69.0444V69.0959C226.115 69.1217 226.128 69.1474 226.141 69.1603C226.167 69.1732 226.18 69.186 226.218 69.1732H226.231C226.244 69.1603 226.27 69.1603 226.283 69.1474C226.334 69.1088 226.476 69.0573 226.682 69.0573C226.901 69.0573 227.313 69.1088 227.725 69.4951L227.738 69.508C227.764 69.5337 227.79 69.5466 227.828 69.5466C227.854 69.5466 227.893 69.5337 227.918 69.508L227.931 69.4951C228.343 69.1217 228.756 69.0573 228.974 69.0573C229.18 69.0573 229.322 69.1088 229.374 69.1474C229.387 69.1603 229.399 69.1732 229.425 69.186C229.438 69.186 229.464 69.1989 229.49 69.186C229.528 69.1732 229.554 69.1474 229.554 69.1088V69.0573C229.554 69.0315 229.541 69.0057 229.528 68.9929C229.284 68.7611 229.013 68.6452 228.704 68.6452C228.292 68.6194 227.957 68.8512 227.828 68.9542ZM227.21 64.9362C227.184 64.9491 227.171 64.962 227.171 64.9877L227.159 65.0264C227.146 65.0521 227.159 65.0779 227.171 65.1036C227.184 65.1294 227.21 65.1423 227.236 65.1423H227.249C227.262 65.1423 227.287 65.1423 227.3 65.1294C227.313 65.1294 227.326 65.1165 227.365 65.1165C227.403 65.1165 227.815 65.1294 228.086 65.5801V65.593C228.099 65.6188 228.124 65.6316 228.15 65.6445H228.176C228.189 65.6445 228.215 65.6445 228.227 65.6316H228.24C228.382 65.5544 228.537 65.5157 228.691 65.5157C228.949 65.5157 229.116 65.6188 229.155 65.6574L229.193 65.696C229.206 65.696 229.219 65.7089 229.232 65.7089H229.258C229.271 65.7089 229.284 65.7089 229.296 65.696C229.322 65.6832 229.335 65.6703 229.335 65.6445L229.348 65.6188V65.593C229.348 65.5801 229.348 65.5673 229.335 65.5544C229.142 65.2195 228.859 65.1423 228.652 65.1423C228.498 65.1423 228.369 65.1809 228.292 65.2067C228.202 65.0779 227.97 64.8203 227.609 64.8203C227.468 64.8461 227.339 64.8718 227.21 64.9362ZM225.085 66.4945V66.546C225.085 66.5718 225.098 66.5975 225.124 66.6104C225.15 66.6233 225.175 66.6233 225.188 66.6233H225.201C225.214 66.6104 225.227 66.6104 225.24 66.5975C225.278 66.5718 225.42 66.5074 225.626 66.5074C225.819 66.5074 226.115 66.5589 226.425 66.8036L226.437 66.8164C226.463 66.8293 226.489 66.8422 226.515 66.8422H226.528C226.553 66.8422 226.592 66.8293 226.605 66.8036L226.618 66.7907C226.953 66.4301 227.313 66.3786 227.506 66.3786C227.635 66.3786 227.738 66.4043 227.764 66.4301C227.777 66.443 227.79 66.4559 227.815 66.4559H227.88C227.918 66.443 227.944 66.4043 227.931 66.3657V66.3271C227.931 66.3013 227.918 66.2884 227.906 66.2627C227.699 66.0953 227.493 66.0051 227.262 66.0051C226.914 66.0051 226.631 66.2112 226.515 66.3142C226.412 66.2369 226.154 66.0953 225.845 66.0953C225.575 66.0953 225.343 66.2112 225.137 66.4301C225.085 66.443 225.085 66.4687 225.085 66.4945ZM219.985 67.2929C219.985 66.6877 220.475 66.1983 221.08 66.1983H221.144C221.196 65.4385 221.84 64.8332 222.613 64.8332C223.424 64.8332 224.094 65.49 224.094 66.3142C224.094 66.546 224.042 66.7649 223.939 66.9581C224.673 67.1255 225.227 67.7823 225.227 68.5679C225.227 69.4822 224.493 70.2163 223.578 70.2163C223.514 70.2163 221.376 70.2034 221.376 70.2034C220.732 70.2034 220.204 69.6754 220.204 69.0315C220.204 68.7224 220.32 68.4391 220.526 68.2331C220.217 68.0528 219.985 67.705 219.985 67.2929Z" fill="white"/>
<path d="M220.977 58.3428H221.26V59.798H221.595V60.0298H220.977V58.3428ZM221.762 58.3428H222.045V60.0298H221.762V58.3428ZM222.252 58.3428H222.921V58.5746H222.535V59.064H222.818V59.2958H222.535V60.0427H222.252V58.3428ZM223.076 58.3428H223.758V58.5746H223.359V59.064H223.642V59.2958H223.359V59.8109H223.758V60.0427H223.076V58.3428Z" fill="white"/>
<path d="M220.977 62.0904V61.2662C220.977 60.9957 221.105 60.8154 221.402 60.8154C221.698 60.8154 221.839 61.0086 221.839 61.2662V62.0904C221.839 62.3479 221.711 62.5411 221.402 62.5411C221.105 62.5411 220.977 62.3479 220.977 62.0904ZM221.556 62.129V61.2147C221.556 61.1116 221.517 61.0344 221.414 61.0344C221.311 61.0344 221.273 61.1116 221.273 61.2147V62.129C221.273 62.232 221.311 62.3093 221.414 62.3093C221.505 62.3093 221.556 62.232 221.556 62.129ZM222.239 61.4593V62.5282H221.994V60.8412H222.277L222.586 61.8071V60.8412H222.818V62.5282H222.573L222.239 61.4593ZM223.436 60.8283H223.72V62.2836H224.054V62.5154H223.436V60.8283ZM224.132 62.5282L224.454 60.8412H224.776L225.098 62.5282H224.801L224.75 62.2192H224.454L224.402 62.5282H224.132ZM224.492 61.9874H224.724L224.608 61.3048L224.492 61.9874ZM225.458 61.4593V62.5282H225.214V60.8412H225.497L225.806 61.8071V60.8412H226.038V62.5282H225.793L225.458 61.4593ZM227.081 61.2919V62.0775C227.081 62.3351 226.978 62.5282 226.669 62.5282H226.231V60.8412H226.669C226.965 60.8283 227.081 61.0215 227.081 61.2919ZM226.63 62.2964C226.746 62.2964 226.798 62.232 226.798 62.129V61.2404C226.798 61.1374 226.759 61.073 226.63 61.073H226.514V62.2964H226.63Z" fill="white"/>
<path d="M256.307 71.9058C261.33 71.9058 265.402 67.8339 265.402 62.8108C265.402 57.7878 261.33 53.7158 256.307 53.7158C251.284 53.7158 247.212 57.7878 247.212 62.8108C247.212 67.8339 251.284 71.9058 256.307 71.9058Z" fill="#00689D"/>
<path d="M268.174 79.3488C269.177 79.3488 269.989 78.5361 269.989 77.5338C269.989 76.5314 269.177 75.7188 268.174 75.7188C267.172 75.7188 266.359 76.5314 266.359 77.5338C266.359 78.5361 267.172 79.3488 268.174 79.3488Z" fill="#19486A"/>
<defs>
<clipPath id="clip0_6431_4442">
<rect width="17.507" height="17.507" fill="white" transform="translate(152.137 100.793)"/>
</clipPath>
</defs>
</svg>
