<svg width="280" height="131" viewBox="0 0 280 131" fill="none" xmlns="http://www.w3.org/2000/svg">
<path d="M14.6092 73.1373C22.1755 73.1373 28.3092 67.0036 28.3092 59.4373C28.3092 51.871 22.1755 45.7373 14.6092 45.7373C7.04288 45.7373 0.90918 51.871 0.90918 59.4373C0.90918 67.0036 7.04288 73.1373 14.6092 73.1373Z" fill="#E5243B"/>
<path d="M7.78277 52.3727H7.79469V55.3271H8.43799V51.4673H7.92573L7.33008 52.1702V52.8492L7.78277 52.3727ZM20.7441 59.5324C21.0419 59.5324 21.2683 59.2942 21.2683 58.9963C21.2683 58.6985 21.03 58.4602 20.7441 58.4602C20.4463 58.4602 20.208 58.6985 20.208 58.9963C20.208 59.2942 20.4463 59.5324 20.7441 59.5324ZM21.3636 59.7349H20.1246C19.7672 59.7707 19.4813 60.0685 19.4813 60.4378V61.9031C19.4813 62.0103 19.5766 62.1056 19.6839 62.1056C19.803 62.1056 19.8864 62.0103 19.8864 61.9031V60.6403C19.8864 60.5927 19.8983 60.5331 19.9817 60.5331C20.0412 60.5331 20.0532 60.5927 20.0532 60.6403V64.4287C20.0532 64.5954 20.1842 64.7265 20.351 64.7265C20.5178 64.7265 20.6488 64.5954 20.6488 64.4287V62.2367C20.6488 62.2128 20.6607 62.1533 20.7322 62.1533C20.8037 62.1533 20.8156 62.2128 20.8156 62.2367V64.4168C20.8156 64.5835 20.9466 64.7146 21.1134 64.7146C21.2802 64.7146 21.4112 64.5835 21.4112 64.4168V60.6284C21.4112 60.5927 21.4232 60.5212 21.4827 60.5212C21.5661 60.5212 21.578 60.5808 21.578 60.6284V61.8912C21.578 61.9984 21.6733 62.0937 21.7806 62.0937C21.8997 62.0937 21.9831 61.9984 21.9831 61.8912V60.4378C22.0069 60.0685 21.721 59.7588 21.3636 59.7349ZM16.5508 59.7826C16.8248 59.7826 17.0511 59.5562 17.0511 59.2822C17.0511 59.0082 16.8248 58.7819 16.5508 58.7819C16.2768 58.7819 16.0504 59.0082 16.0504 59.2822C16.0504 59.5562 16.2768 59.7826 16.5508 59.7826ZM17.1464 60.6999C17.2179 60.6761 17.2298 60.7714 17.2298 60.7714L17.5633 61.9031C17.5633 61.9031 17.6229 62.1414 17.8373 62.0818C18.0518 62.0222 17.9803 61.7721 17.9803 61.7721L17.5633 60.414C17.5633 60.414 17.4085 60.0209 17.0868 60.0209H16.0147C15.6811 60.0209 15.5382 60.414 15.5382 60.414L15.1212 61.7721C15.1212 61.7721 15.0497 62.0222 15.2642 62.0818C15.4786 62.1414 15.5382 61.9031 15.5382 61.9031L15.8717 60.7714C15.8717 60.7714 15.8956 60.688 15.9551 60.6999C16.0266 60.7237 15.9909 60.8071 15.9909 60.8071L15.4071 62.9395H15.9551V64.4644C15.9551 64.6074 16.0743 64.7265 16.2172 64.7265C16.3602 64.7265 16.4793 64.6074 16.4793 64.4644V62.9395H16.6223V64.4644C16.6223 64.6074 16.7414 64.7265 16.8843 64.7265C17.0272 64.7265 17.1464 64.6074 17.1464 64.4644V62.9395H17.6944L17.1106 60.8071C17.1106 60.8071 17.0868 60.7237 17.1464 60.6999ZM13.5368 59.7826C13.8108 59.7826 14.0371 59.5562 14.0371 59.2822C14.0371 59.0082 13.8108 58.7819 13.5368 58.7819C13.2628 58.7819 13.0364 59.0082 13.0364 59.2822C13.0364 59.5562 13.2628 59.7826 13.5368 59.7826ZM14.5494 60.414C14.5494 60.414 14.4064 60.0209 14.0729 60.0209H13.0007C12.6671 60.0209 12.5242 60.414 12.5242 60.414L12.1072 61.7721C12.1072 61.7721 12.0953 61.8078 12.0953 61.8554C12.0715 61.8197 12.0238 61.7959 11.9762 61.7959C11.9166 61.7959 11.8689 61.8197 11.8451 61.8674C11.8332 61.8793 11.6426 62.2248 11.5711 62.2843C11.4996 62.3558 11.4401 62.3439 11.4401 62.3439H10.9397C10.9397 62.3439 10.8802 62.3558 10.8087 62.2843C10.7491 62.2248 10.5466 61.8674 10.5347 61.8674C10.5109 61.8197 10.4632 61.7959 10.4036 61.7959C10.356 61.7959 10.3083 61.8197 10.2845 61.8674V60.4378C10.2845 60.0685 9.9986 59.7707 9.64121 59.7349H8.40225C8.04486 59.7707 7.75895 60.0685 7.75895 60.4378V61.9031C7.75895 61.9865 7.8066 62.0461 7.86617 62.0818C7.86617 62.0818 7.85425 62.0937 7.85425 62.1056L7.37773 64.6074C7.36582 64.655 7.40156 64.6908 7.4373 64.7027H7.44921C7.48495 64.7027 7.52069 64.6788 7.52069 64.6431L7.99721 62.1414V62.1175C8.09251 62.0937 8.15208 62.0103 8.15208 61.915V60.6522C8.15208 60.6046 8.16399 60.545 8.24738 60.545C8.30695 60.545 8.31886 60.6046 8.31886 60.6522V64.4406C8.31886 64.6074 8.4499 64.7384 8.61669 64.7384C8.78347 64.7384 8.91451 64.6074 8.91451 64.4406V62.2367C8.91451 62.2128 8.92643 62.1533 8.9979 62.1533C9.06938 62.1533 9.0813 62.2128 9.0813 62.2367V64.4168C9.0813 64.5835 9.21234 64.7146 9.37912 64.7146C9.5459 64.7146 9.67695 64.5835 9.67695 64.4168V60.6284C9.67695 60.5927 9.68886 60.5212 9.74843 60.5212C9.83182 60.5212 9.84373 60.5808 9.84373 60.6284V61.8912C9.84373 61.9984 9.93903 62.0937 10.0463 62.0937C10.1296 62.0937 10.2011 62.0461 10.2369 61.9746C10.2369 61.9865 10.2488 61.9984 10.2488 61.9984L10.6657 62.7608C10.6657 62.7608 10.6896 62.8085 10.6896 62.8561V63.011L10.4632 63.833H10.6896V64.5001C10.6896 64.6193 10.7849 64.7027 10.8921 64.7027C11.0112 64.7027 11.0946 64.6074 11.0946 64.5001V63.8568V63.833H11.2137V64.5001C11.2137 64.6193 11.309 64.7027 11.4163 64.7027C11.5354 64.7027 11.6188 64.6074 11.6188 64.5001V63.833H11.8451L11.6188 63.011V62.8681C11.6188 62.8204 11.6426 62.7728 11.6426 62.7728L12.0357 62.0699C12.0357 62.0699 12.0596 62.0222 12.0715 61.9746C12.0953 62.0222 12.131 62.058 12.1906 62.0818C12.405 62.1414 12.4646 61.9031 12.4646 61.9031L12.7982 60.7714C12.7982 60.7714 12.822 60.688 12.8816 60.6999C12.953 60.7237 12.9173 60.8071 12.9173 60.8071L12.3336 62.9395H12.8816V64.4644C12.8816 64.6074 13.0007 64.7265 13.1436 64.7265C13.2866 64.7265 13.4057 64.6074 13.4057 64.4644V62.9395H13.5487V64.4644C13.5487 64.6074 13.6678 64.7265 13.8108 64.7265C13.9537 64.7265 14.0729 64.6074 14.0729 64.4644V62.9395H14.6209L14.0371 60.8071C14.0371 60.8071 14.0133 60.7118 14.0729 60.6999C14.1443 60.6761 14.1563 60.7714 14.1563 60.7714L14.4898 61.9031C14.4898 61.9031 14.5494 62.1414 14.7638 62.0818C14.9783 62.0222 14.9068 61.7721 14.9068 61.7721L14.5494 60.414ZM18.7427 62.0818C18.9691 62.0818 19.1597 61.8912 19.1597 61.6649C19.1597 61.4385 18.9691 61.2479 18.7427 61.2479C18.5164 61.2479 18.3258 61.4385 18.3258 61.6649C18.3258 61.9031 18.5045 62.0818 18.7427 62.0818ZM19.7315 63.2731C19.7315 63.2612 19.4694 62.6179 19.4337 62.5226C19.3384 62.2486 19.1716 62.2486 19.0048 62.2486H18.7427H18.4211C18.2066 62.2605 18.1352 62.3677 17.8969 62.9872C17.8612 63.0706 17.742 63.3684 17.742 63.3803C17.7182 63.428 17.7063 63.5352 17.8016 63.5828C17.9207 63.6305 17.9803 63.5233 17.9803 63.5233L18.2066 62.7966C18.2066 62.7966 18.2424 62.7489 18.2424 62.7966V64.5001C18.2424 64.6193 18.3377 64.7146 18.4568 64.7146C18.5759 64.7146 18.6712 64.6193 18.6712 64.5001V63.8211C18.6712 63.8211 18.6593 63.7258 18.7308 63.7258C18.8023 63.7258 18.7904 63.8211 18.7904 63.8211V64.5001C18.7904 64.6193 18.8857 64.7146 19.0048 64.7146C19.1239 64.7146 19.2192 64.6193 19.2192 64.5001V62.7966C19.2192 62.7489 19.2431 62.7847 19.2431 62.7847L19.4218 63.285C19.4218 63.285 19.4932 63.5114 19.5171 63.5114C19.6005 63.5471 19.6958 63.5114 19.7196 63.428C19.7672 63.3803 19.7553 63.3208 19.7315 63.2731ZM9.02173 59.5324C9.31956 59.5324 9.55782 59.2942 9.55782 58.9963C9.55782 58.6985 9.31956 58.4602 9.02173 58.4602C8.7239 58.4602 8.49756 58.6985 8.49756 58.9963C8.49756 59.2942 8.73582 59.5324 9.02173 59.5324Z" fill="white"/>
<path d="M11.191 62.0821C11.4173 62.0821 11.6079 61.8915 11.6079 61.6651C11.6079 61.4388 11.4173 61.2482 11.191 61.2482C10.9646 61.2482 10.774 61.4388 10.774 61.6651C10.774 61.9034 10.9646 62.0821 11.191 62.0821ZM10.8455 52.0156V53.0044H10.6191V51.4437H10.8812L11.1671 52.3372V51.4437H11.3816V53.0044H11.1552L10.8455 52.0156ZM11.5603 52.5993V51.8369C11.5603 51.5867 11.6794 51.4199 11.9534 51.4199C12.2274 51.4199 12.3584 51.5986 12.3584 51.8369V52.5993C12.3584 52.8376 12.2393 53.0163 11.9534 53.0163C11.6794 53.0163 11.5603 52.8376 11.5603 52.5993ZM12.0964 52.6351V51.7892C12.0964 51.6939 12.0606 51.6224 11.9653 51.6224C11.87 51.6224 11.8343 51.6939 11.8343 51.7892V52.6351C11.8343 52.7304 11.87 52.8018 11.9653 52.8018C12.0487 52.8018 12.0964 52.7304 12.0964 52.6351ZM10.6311 53.7549H11.0242C11.2863 53.7549 11.3816 53.8859 11.3816 54.1004V54.4339C11.3816 54.6484 11.2863 54.7913 11.0242 54.7913H10.8931V55.3274H10.6311V53.7549ZM10.8931 53.9693V54.5888H10.9884C11.0837 54.5888 11.1195 54.5411 11.1195 54.4577V54.1004C11.1195 54.017 11.0837 53.9693 10.9884 53.9693H10.8931ZM11.5364 54.9224V54.1599C11.5364 53.9097 11.6556 53.743 11.9296 53.743C12.2036 53.743 12.3346 53.9217 12.3346 54.1599V54.9224C12.3346 55.1606 12.2155 55.3393 11.9296 55.3393C11.6556 55.3393 11.5364 55.1606 11.5364 54.9224ZM12.0725 54.9581V54.1123C12.0725 54.017 12.0368 53.9455 11.9415 53.9455C11.8462 53.9455 11.8104 54.017 11.8104 54.1123V54.9581C11.8104 55.0534 11.8462 55.1249 11.9415 55.1249C12.0249 55.1249 12.0725 55.0534 12.0725 54.9581ZM13.3115 53.7549L13.0137 55.3155H12.7277L12.4299 53.7549H12.692L12.8707 54.8509L13.0613 53.7549H13.3115ZM13.4425 53.7549H14.0739V53.9693H13.7046V54.422H13.9667V54.6364H13.7046V55.113H14.0739V55.3274H13.4425V53.7549ZM14.4909 54.6007V55.3155H14.2288V53.7549H14.61C14.8721 53.7549 14.9674 53.8859 14.9674 54.1004V54.3029C14.9674 54.4697 14.9078 54.565 14.753 54.6007L15.0031 55.3155H14.7291L14.4909 54.6007ZM14.4909 53.9693V54.4577H14.5743C14.6696 54.4577 14.7053 54.4101 14.7053 54.3267V54.1004C14.7053 54.017 14.6696 53.9693 14.5743 53.9693H14.4909ZM15.0865 53.7549H15.7894V53.9693H15.575V55.3274H15.3129V53.9812H15.0984L15.0865 53.7549ZM16.4446 54.7198V55.3155H16.1825V54.7198L15.8847 53.7549H16.1587L16.3136 54.3505L16.4684 53.7549H16.7186L16.4446 54.7198Z" fill="white"/>
<path d="M31.4018 96.8143C37.0489 96.8143 41.6268 92.2364 41.6268 86.5893C41.6268 80.9421 37.0489 76.3643 31.4018 76.3643C25.7546 76.3643 21.1768 80.9421 21.1768 86.5893C21.1768 92.2364 25.7546 96.8143 31.4018 96.8143Z" fill="#DDA63A"/>
<path d="M26.9295 83.1217H26.1381V82.9883C26.1381 82.7661 26.2182 82.6771 26.3426 82.5438L26.6538 82.2148C26.9028 81.9481 26.9561 81.7791 26.9561 81.4857V81.2101C26.9561 80.8011 26.7605 80.6055 26.3248 80.6055C25.8981 80.6055 25.6847 80.8278 25.6847 81.2368V81.5835H26.1292V81.219C26.1292 81.0411 26.2181 80.9967 26.3159 80.9967C26.4138 80.9967 26.4938 81.0323 26.4938 81.2101V81.4501C26.4938 81.6902 26.476 81.7791 26.3159 81.9481L26.0403 82.2415C25.7736 82.526 25.6758 82.7127 25.6758 82.9972V83.5307H26.9383L26.9295 83.1217Z" fill="white"/>
<path d="M30.1651 91.595V91.8173C30.1651 91.8706 30.2096 91.9062 30.254 91.9062H32.6102C32.6636 91.9062 32.6992 91.8617 32.6992 91.8084V91.5772C34.0239 91.1415 35.0197 90.0657 35.242 88.7498V88.7409V88.732C35.242 88.6786 35.1976 88.6342 35.1442 88.6342H27.6222C27.5689 88.6342 27.5244 88.6786 27.5244 88.732L27.5333 88.7764C27.7912 90.0924 28.8137 91.1771 30.1651 91.595ZM32.7169 85.4155C32.6903 85.46 31.9612 86.5092 32.7347 87.3538C33.0904 87.7451 33.0548 88.0829 32.957 88.3141H33.4549C33.5527 87.9762 33.5171 87.5406 33.1082 87.1049C32.5391 86.4825 33.117 85.6378 33.1259 85.6289C33.197 85.5311 33.1615 85.4067 33.0459 85.3533C32.9303 85.2911 32.7881 85.3177 32.7169 85.4155ZM31.4633 88.3141H31.9612C32.059 87.9762 32.0234 87.5406 31.6144 87.1049C31.0454 86.4825 31.6233 85.6378 31.6322 85.6289C31.7033 85.5311 31.6678 85.4067 31.5522 85.3533C31.4366 85.3 31.2943 85.3266 31.2232 85.4244C31.1876 85.4689 30.4674 86.5181 31.241 87.3627C31.5966 87.7451 31.5611 88.0829 31.4633 88.3141ZM29.7206 85.4155C29.685 85.46 28.9648 86.5092 29.7383 87.3538C30.094 87.7451 30.0584 88.0829 29.9606 88.3141H30.4585C30.5563 87.9762 30.5208 87.5406 30.1118 87.1049C29.5427 86.4825 30.1207 85.6378 30.1296 85.6289C30.2007 85.5311 30.1651 85.4067 30.0495 85.3533C29.9428 85.2911 29.7917 85.3177 29.7206 85.4155Z" fill="white"/>
<path d="M28.5385 81.6455H28.8408V81.8056H28.334V81.6455L28.6452 80.8009H28.3695V80.6408H28.8586V80.8009L28.5385 81.6455ZM28.9653 80.6319H29.4365V80.792H29.1609V81.1299H29.3565V81.2899H29.1609V81.6455H29.4365V81.8056H28.9653V80.6319ZM29.7566 81.2632V81.7967H29.561V80.6319H29.8455C30.0411 80.6319 30.1122 80.7297 30.1122 80.8898V81.0409C30.1122 81.1654 30.0678 81.2365 29.9522 81.2632L30.1389 81.7967H29.9344L29.7566 81.2632ZM29.7566 80.792V81.1565H29.8188C29.89 81.1565 29.9166 81.121 29.9166 81.0587V80.8898C29.9166 80.8275 29.89 80.792 29.8188 80.792H29.7566ZM30.2367 81.5033V80.9342C30.2367 80.7475 30.3256 80.623 30.5301 80.623C30.7346 80.623 30.8324 80.7564 30.8324 80.9342V81.5033C30.8324 81.6811 30.7435 81.8145 30.5301 81.8145C30.3256 81.8145 30.2367 81.6811 30.2367 81.5033ZM30.6368 81.53V80.8987C30.6368 80.8275 30.6102 80.7742 30.539 80.7742C30.4679 80.7742 30.4412 80.8275 30.4412 80.8987V81.53C30.4412 81.6011 30.4679 81.6544 30.539 81.6544C30.6102 81.6544 30.6368 81.6011 30.6368 81.53Z" fill="white"/>
<path d="M28.7251 82.9973H28.5384V83.513H28.3428V82.3482H28.5384V82.8462H28.7251V82.3482H28.9207V83.513H28.7251V82.9973ZM29.6231 82.3482V83.2285C29.6231 83.4063 29.5431 83.5308 29.3475 83.5308C29.143 83.5308 29.0541 83.4152 29.0541 83.2285V82.3482H29.2497V83.2552C29.2497 83.3263 29.2764 83.3707 29.3475 83.3707C29.4186 83.3707 29.4453 83.3263 29.4453 83.2552V82.3482H29.6231ZM29.9165 82.7839V83.5219H29.7565V82.3571H29.9521L30.1655 83.024V82.3571H30.3255V83.5219H30.1566L29.9165 82.7839ZM30.7523 82.8906H31.0279V83.513H30.8857V83.3885C30.859 83.4774 30.8057 83.5308 30.699 83.5308C30.53 83.5308 30.45 83.3974 30.45 83.2196V82.6506C30.45 82.4638 30.5389 82.3394 30.7434 82.3394C30.9568 82.3394 31.0279 82.4638 31.0279 82.6328V82.7395H30.8501V82.6239C30.8501 82.5527 30.8234 82.5083 30.7523 82.5083C30.6812 82.5083 30.6545 82.5616 30.6545 82.6328V83.2641C30.6545 83.3352 30.6812 83.3885 30.7523 83.3885C30.8146 83.3885 30.8501 83.353 30.8501 83.2729V83.0684H30.7612V82.8906H30.7523ZM31.1613 82.3482H31.6326V82.5083H31.3569V82.8462H31.5525V83.0062H31.3569V83.3619H31.6326V83.5219H31.1613V82.3482ZM31.9438 82.9795V83.513H31.7481V82.3482H32.0327C32.2283 82.3482 32.2994 82.4461 32.2994 82.6061V82.7572C32.2994 82.8817 32.2549 82.9529 32.1394 82.9795L32.3261 83.513H32.1216L31.9438 82.9795ZM31.9438 82.5083V82.8728H32.006C32.0771 82.8728 32.1038 82.8373 32.1038 82.775V82.6061C32.1038 82.5439 32.0771 82.5083 32.006 82.5083H31.9438Z" fill="white"/>
<path d="M41.7188 57.8535C45.3776 57.8535 48.3438 54.8874 48.3438 51.2285C48.3438 47.5696 45.3776 44.6035 41.7188 44.6035C38.0599 44.6035 35.0938 47.5696 35.0938 51.2285C35.0938 54.8874 38.0599 57.8535 41.7188 57.8535Z" fill="#4C9F38"/>
<path d="M40.3275 70.4059C41.6005 70.4059 42.6325 69.3739 42.6325 68.1009C42.6325 66.8279 41.6005 65.7959 40.3275 65.7959C39.0544 65.7959 38.0225 66.8279 38.0225 68.1009C38.0225 69.3739 39.0544 70.4059 40.3275 70.4059Z" fill="#C5192D"/>
<path d="M54.2941 40.6638C58.0938 40.6638 61.1741 37.5835 61.1741 33.7838C61.1741 29.9841 58.0938 26.9038 54.2941 26.9038C50.4943 26.9038 47.4141 29.9841 47.4141 33.7838C47.4141 37.5835 50.4943 40.6638 54.2941 40.6638Z" fill="#FF3A21"/>
<path d="M91.1364 22.9745C95.9385 22.9745 99.8314 19.0816 99.8314 14.2795C99.8314 9.47736 95.9385 5.58447 91.1364 5.58447C86.3343 5.58447 82.4414 9.47736 82.4414 14.2795C82.4414 19.0816 86.3343 22.9745 91.1364 22.9745Z" fill="#26BDE2"/>
<path d="M99.3516 130.467C126.966 130.467 149.352 108.081 149.352 80.4668C149.352 52.8526 126.966 30.4668 99.3516 30.4668C71.7373 30.4668 49.3516 52.8526 49.3516 80.4668C49.3516 108.081 71.7373 130.467 99.3516 130.467Z" fill="#FCC30B"/>
<path d="M71.874 53.5102H75.5262L72.3523 65.6841H74.7001L77.8305 53.7711V51.5972H71.874V53.5102Z" fill="white"/>
<path d="M84.5244 57.2929L85.6114 51.5972H86.6983L87.7853 57.2929H86.7853L86.6114 56.2494H85.6114L85.4375 57.2929H84.5244ZM85.7418 55.4668H86.5244L86.1331 53.1624L85.7418 55.4668ZM88.1331 51.5972H90.394V52.3798H89.0896V54.032H90.0462V54.8146H89.0896V57.3363H88.1331V51.5972ZM90.7853 51.5972H93.0462V52.3798H91.7418V54.032H92.6983V54.8146H91.7418V57.3363H90.7853V51.5972ZM93.307 55.8146V53.032C93.307 52.1189 93.7418 51.5103 94.7418 51.5103C95.7418 51.5103 96.2201 52.1624 96.2201 53.032V55.8146C96.2201 56.6842 95.7853 57.3363 94.7418 57.3363C93.7418 57.3798 93.307 56.6842 93.307 55.8146ZM95.2635 55.9885V52.9016C95.2635 52.5537 95.1331 52.2929 94.7853 52.2929C94.4375 52.2929 94.307 52.5537 94.307 52.9016V55.9885C94.307 56.3363 94.4375 56.5972 94.7853 56.5972C95.1331 56.5537 95.2635 56.3363 95.2635 55.9885ZM97.6983 54.6842V57.2929H96.7418V51.5972H98.1331C99.0896 51.5972 99.4375 52.0755 99.4375 52.8581V53.5972C99.4375 54.2059 99.2201 54.5537 98.6548 54.6842L99.5679 57.2929H98.5679L97.6983 54.6842ZM97.6983 52.3798V54.1624H98.0027C98.3505 54.1624 98.4809 53.9885 98.4809 53.6842V52.8581C98.4809 52.5537 98.3505 52.3798 98.0027 52.3798H97.6983ZM102.829 53.1189V55.7711C102.829 56.6407 102.481 57.2929 101.437 57.2929H99.9592V51.5972H101.437C102.437 51.5972 102.829 52.2494 102.829 53.1189ZM101.307 56.5103C101.698 56.5103 101.872 56.2929 101.872 55.945V52.945C101.872 52.5972 101.742 52.3798 101.307 52.3798H100.916V56.5103H101.307ZM103.046 57.2929L104.133 51.5972H105.22L106.307 57.2929H105.307L105.133 56.2494H104.133L103.959 57.2929H103.046ZM104.264 55.4668H105.046L104.655 53.1624L104.264 55.4668ZM106.655 51.5972H108.046C109.003 51.5972 109.307 52.032 109.307 52.8581V53.4233C109.307 53.9016 109.133 54.2059 108.742 54.3363C109.22 54.4668 109.437 54.7711 109.437 55.2929V56.032C109.437 56.8581 109.089 57.2929 108.133 57.2929H106.655V51.5972ZM107.611 53.9885H107.959C108.263 53.9885 108.394 53.8146 108.394 53.5103V52.8146C108.394 52.5103 108.263 52.3363 107.916 52.3363H107.568V53.9885H107.611ZM107.611 54.7276V56.5103H108.046C108.35 56.5103 108.524 56.3363 108.524 56.032V55.1624C108.524 54.8581 108.394 54.6842 108.046 54.6842H107.611V54.7276ZM109.916 51.5972H110.872V56.5103H112.003V57.2929H109.916V51.5972ZM112.437 51.5972H114.742V52.3798H113.394V54.032H114.35V54.8146H113.394V56.5537H114.742V57.3363H112.437V51.5972ZM115.872 57.2929L116.959 51.5972H118.046L119.133 57.2929H118.133L117.959 56.2494H116.959L116.785 57.2929H115.872ZM117.089 55.4668H117.872L117.481 53.1624L117.089 55.4668ZM120.307 53.6842V57.2929H119.481V51.5972H120.437L121.481 54.8581V51.5972H122.263V57.2929H121.437L120.307 53.6842ZM125.655 53.1189V55.7711C125.655 56.6407 125.307 57.2929 124.263 57.2929H122.785V51.5972H124.263C125.307 51.5972 125.655 52.2494 125.655 53.1189ZM124.176 56.5103C124.568 56.5103 124.742 56.2929 124.742 55.945V52.945C124.742 52.5972 124.611 52.3798 124.176 52.3798H123.785V56.5103H124.176Z" fill="white"/>
<path d="M84.6553 64.2057V61.4666C84.6553 60.597 85.0901 59.9448 86.0901 59.9448C87.1335 59.9448 87.4379 60.5535 87.4379 61.3796V62.0318H86.5683V61.2926C86.5683 60.9448 86.4379 60.7274 86.0901 60.7274C85.7422 60.7274 85.6118 60.9883 85.6118 61.3361V64.3796C85.6118 64.7274 85.7422 64.9883 86.0901 64.9883C86.4379 64.9883 86.5683 64.7709 86.5683 64.4231V63.3796H87.4379V64.3796C87.4379 65.2057 87.0901 65.8144 86.0901 65.8144C85.0901 65.7709 84.6553 65.1187 84.6553 64.2057ZM88.0466 59.9883H89.0031V64.9013H90.1335V65.684H88.0466V59.9883ZM90.6553 59.9883H92.9161V60.7709H91.6118V62.3796H92.5683V63.1622H91.6118V64.9013H92.9161V65.684H90.6553V59.9883ZM93.3944 65.684L94.4814 59.9883H95.5683L96.6553 65.684H95.6553L95.4814 64.6405H94.4814L94.3074 65.684H93.3944ZM94.6118 63.9013H95.3944L95.0031 61.597L94.6118 63.9013ZM97.9161 62.1187V65.684H97.0901V59.9883H98.0466L99.0901 63.2492V59.9883H99.8727V65.684H99.0466L97.9161 62.1187ZM102.438 59.9883H104.699V60.7709H103.394V62.3796H104.351V63.1622H103.394V64.9013H104.699V65.684H102.438V59.9883ZM106.09 62.1187V65.684H105.264V59.9883H106.22L107.264 63.2492V59.9883H108.046V65.684H107.22L106.09 62.1187ZM108.699 59.9883H110.96V60.7709H109.655V62.3796H110.612V63.1622H109.655V64.9013H110.96V65.684H108.699V59.9883ZM112.525 63.0753V65.684H111.568V59.9883H112.96C113.916 59.9883 114.264 60.4666 114.264 61.2492V61.9883C114.264 62.597 114.046 62.9448 113.481 63.0753L114.394 65.6405H113.394L112.525 63.0753ZM112.525 60.7709V62.5535H112.829C113.177 62.5535 113.307 62.3796 113.307 62.0753V61.2492C113.307 60.9448 113.177 60.7709 112.829 60.7709H112.525ZM116.307 62.6405H117.655V65.684H116.96V65.0753C116.829 65.51 116.568 65.7709 116.046 65.7709C115.22 65.7709 114.829 65.1187 114.829 64.2492V61.51C114.829 60.6405 115.264 59.9883 116.264 59.9883C117.307 59.9883 117.612 60.597 117.612 61.4231V61.9448H116.742V61.3796C116.742 61.0318 116.612 60.8144 116.264 60.8144C115.916 60.8144 115.786 61.0753 115.786 61.4231V64.4666C115.786 64.8144 115.916 65.0753 116.264 65.0753C116.568 65.0753 116.742 64.9013 116.742 64.51V63.51H116.307V62.6405ZM120.133 63.51V65.684H119.177V63.51L118.09 59.9883H119.09L119.655 62.1622L120.22 59.9883H121.133L120.133 63.51Z" fill="white"/>
<path d="M99.7421 107.641C100.22 107.641 100.568 107.25 100.568 106.858V102.38C100.568 101.989 100.177 101.597 99.7421 101.597C99.2639 101.597 98.9161 102.032 98.9161 102.38V106.858C98.9161 107.206 99.3074 107.641 99.7421 107.641ZM99.6552 79.6409C94.003 79.6409 89.3943 84.2496 89.3943 89.9018C89.3943 95.554 94.003 100.163 99.6552 100.163C105.307 100.163 109.916 95.554 109.916 89.9018C109.916 84.2062 105.351 79.6409 99.6552 79.6409ZM98.9161 83.6844C98.9161 83.3366 99.2639 82.9888 99.6987 82.9888C100.133 82.9888 100.438 83.3801 100.438 83.6844V87.2062C100.438 87.554 100.09 87.9018 99.6987 87.9018C99.2639 87.9018 98.9161 87.5105 98.9161 87.2062V83.6844ZM99.6552 95.1192C96.6987 95.1192 94.3074 92.7279 94.3074 89.7714C94.3074 87.3801 95.8726 85.3366 98.0465 84.6844V86.6844C96.9161 87.2496 96.1334 88.4236 96.1334 89.7714C96.1334 91.6844 97.6987 93.2496 99.6117 93.2496C101.525 93.2496 103.09 91.6844 103.09 89.7714C103.09 88.4236 102.307 87.2496 101.177 86.6409V84.6409C103.351 85.2931 104.916 87.3366 104.916 89.7279C105.003 92.7279 102.612 95.1192 99.6552 95.1192ZM87.9161 89.7714C87.9161 89.2931 87.5248 88.9453 87.1334 88.9453H82.6117C82.2204 88.9453 81.8291 89.3366 81.8291 89.7714C81.8291 90.2496 82.2639 90.5975 82.6117 90.5975H87.09C87.4813 90.6409 87.9161 90.2496 87.9161 89.7714ZM117.525 89.7714C117.525 89.2931 117.133 88.9453 116.742 88.9453H112.264C111.872 88.9453 111.481 89.3366 111.481 89.7714C111.481 90.2496 111.916 90.5975 112.264 90.5975H116.742C117.09 90.6409 117.525 90.2496 117.525 89.7714ZM99.6552 78.0322C100.133 78.0322 100.481 77.6409 100.481 77.2496V72.7714C100.481 72.3801 100.09 71.9888 99.6552 71.9888C99.1769 71.9888 98.8291 72.4236 98.8291 72.7714V77.2062C98.8291 77.5975 99.2204 78.0322 99.6552 78.0322ZM89.4378 83.9453C89.6552 83.554 89.4813 82.9888 89.1769 82.8149L85.2639 80.5975C84.9161 80.4236 84.3943 80.5105 84.1769 80.9453C83.9595 81.3366 84.1334 81.9018 84.4378 82.0757L88.3508 84.2931C88.6552 84.467 89.2204 84.3366 89.4378 83.9453ZM115.177 98.6409C115.394 98.2496 115.22 97.6844 114.916 97.5105L111.003 95.2931C110.655 95.1192 110.133 95.2062 109.916 95.6409C109.699 96.0322 109.872 96.5975 110.177 96.7714L114.09 98.9888C114.394 99.1627 114.916 99.0757 115.177 98.6409ZM105.525 79.554C105.916 79.7714 106.438 79.5975 106.655 79.2931L108.872 75.3801C109.046 75.0322 108.959 74.5105 108.525 74.2931C108.133 74.0757 107.568 74.2496 107.394 74.554L105.177 78.467C105.003 78.8149 105.133 79.3366 105.525 79.554ZM90.7856 105.293C91.1769 105.511 91.6987 105.337 91.9161 105.032L94.1334 101.119C94.3074 100.771 94.2204 100.25 93.7856 100.032C93.3943 99.8149 92.8291 99.9888 92.6552 100.293L90.4378 104.206C90.2639 104.511 90.3943 105.032 90.7856 105.293ZM93.7856 79.5975C94.1769 79.3801 94.3074 78.8149 94.1334 78.5105L91.9161 74.5975C91.7421 74.2496 91.1769 74.0757 90.7856 74.3366C90.3943 74.554 90.2639 75.1192 90.4378 75.467L92.6552 79.3801C92.8726 79.6409 93.3943 79.8149 93.7856 79.5975ZM108.568 105.25C108.959 105.032 109.09 104.467 108.916 104.163L106.699 100.25C106.525 99.9018 105.96 99.7279 105.568 99.9888C105.177 100.206 105.046 100.771 105.22 101.119L107.438 105.032C107.612 105.337 108.177 105.511 108.568 105.25ZM109.872 83.9018C110.09 84.2931 110.655 84.4236 110.959 84.2496L114.872 82.0322C115.22 81.8583 115.394 81.2931 115.133 80.9018C114.916 80.5105 114.351 80.3801 114.003 80.554L110.09 82.7714C109.829 82.9888 109.655 83.5105 109.872 83.9018ZM84.2204 98.6844C84.4378 99.0757 85.003 99.2062 85.3074 99.0322L89.2204 96.8149C89.5682 96.6409 89.7421 96.0757 89.4813 95.6844C89.2639 95.2931 88.6987 95.1627 88.3508 95.3366L84.4378 97.554C84.1334 97.7279 83.9595 98.2931 84.2204 98.6844Z" fill="white"/>
<path d="M120.673 25.75C127.784 25.75 133.548 19.9857 133.548 12.875C133.548 5.76433 127.784 0 120.673 0C113.562 0 107.798 5.76433 107.798 12.875C107.798 19.9857 113.562 25.75 120.673 25.75Z" fill="#A21942"/>
<path d="M115.175 8.18375V7.7807C115.175 7.43364 115.052 7.17614 114.772 7.05299C115.018 6.92984 115.13 6.71712 115.13 6.42603V6.28049C115.13 5.70951 114.839 5.40723 114.268 5.40723C113.708 5.40723 113.417 5.70951 113.417 6.28049V6.42603C113.417 6.71712 113.529 6.94103 113.764 7.05299C113.484 7.17614 113.361 7.43364 113.361 7.7807V8.17255C113.361 8.72114 113.619 9.11299 114.268 9.11299C114.906 9.12418 115.175 8.73234 115.175 8.18375ZM113.988 6.2357C113.988 6.01179 114.067 5.88864 114.257 5.88864C114.459 5.88864 114.537 6.01179 114.537 6.2357V6.48201C114.537 6.70592 114.459 6.82907 114.257 6.82907C114.055 6.82907 113.988 6.69473 113.988 6.48201V6.2357ZM114.559 8.25092C114.559 8.47484 114.481 8.63157 114.257 8.63157C114.044 8.63157 113.966 8.47484 113.966 8.25092V7.65755C113.966 7.43364 114.044 7.2881 114.257 7.2881C114.481 7.2881 114.559 7.44484 114.559 7.65755V8.25092Z" fill="white"/>
<path d="M124.177 12.7964L122.341 14.5429C122.274 14.6101 122.24 14.666 122.24 14.8004V19.6817C122.24 19.7377 122.285 19.7824 122.341 19.7824H124.233C124.289 19.7824 124.333 19.7377 124.333 19.6817V12.8411C124.345 12.774 124.3 12.6732 124.177 12.7964ZM118.904 15.0579L117.068 16.8044C117 16.8716 116.967 16.9276 116.967 17.0619V19.6705C116.967 19.7265 117.012 19.7712 117.068 19.7712H118.96C119.016 19.7712 119.06 19.7265 119.06 19.6705V15.1027C119.072 15.0467 119.027 14.9459 118.904 15.0579Z" fill="white"/>
<path d="M125.016 10.6805C125.016 10.6693 125.016 10.6469 125.005 10.6357C124.994 10.6245 124.983 10.6245 124.971 10.6245H124.949L123.55 10.938H123.527C123.516 10.938 123.505 10.9492 123.505 10.9492C123.482 10.9716 123.482 11.0052 123.505 11.0276L123.516 11.0388L123.841 11.3634L120.661 14.543L119.194 13.0764C119.183 13.0652 119.15 13.0652 119.139 13.0764L118.735 13.4794L116.384 15.8305C116.373 15.8417 116.373 15.8753 116.384 15.8865L116.787 16.2895C116.799 16.3007 116.832 16.3007 116.843 16.2895L119.172 13.972L120.236 15.0356L120.639 15.4387C120.65 15.4498 120.684 15.4498 120.695 15.4387L124.3 11.8336L124.636 12.1695C124.658 12.1919 124.692 12.1919 124.714 12.1695C124.725 12.1583 124.725 12.1471 124.725 12.1359L125.039 10.7029L125.016 10.6805Z" fill="white"/>
<path d="M121.557 15.3714L120.673 16.267C120.651 16.2782 120.628 16.2782 120.617 16.267L119.811 15.4497C119.665 15.3042 119.632 15.4274 119.632 15.4833V19.6929C119.632 19.7489 119.677 19.7937 119.733 19.7937H121.625C121.681 19.7937 121.725 19.7489 121.725 19.6929V15.4162C121.725 15.3378 121.681 15.237 121.557 15.3714Z" fill="white"/>
<path d="M117.257 5.8327V6.51563C117.257 6.73954 117.168 6.90748 116.899 6.90748H116.519V5.44085H116.899C117.168 5.44085 117.257 5.60878 117.257 5.8327ZM116.866 6.70596C116.966 6.70596 117.011 6.64998 117.011 6.56041V5.78791C117.011 5.69835 116.978 5.64237 116.866 5.64237H116.765V6.70596H116.866ZM117.414 5.44085H118.008V5.64237H117.661V6.0678H117.907V6.26933H117.661V6.71715H118.008V6.91867H117.414V5.44085ZM118.131 6.52683V5.8103C118.131 5.5752 118.243 5.41846 118.5 5.41846C118.769 5.41846 118.847 5.5752 118.847 5.78791V5.96704H118.623V5.76552C118.623 5.67596 118.59 5.61998 118.5 5.61998C118.411 5.61998 118.377 5.68715 118.377 5.77672V6.57161C118.377 6.66117 118.411 6.72835 118.5 6.72835C118.59 6.72835 118.623 6.67237 118.623 6.5828V6.31411H118.847V6.57161C118.847 6.78433 118.758 6.94107 118.5 6.94107C118.243 6.92987 118.131 6.75074 118.131 6.52683ZM119.004 5.44085H119.597V5.64237H119.25V6.0678H119.497V6.26933H119.25V6.71715H119.597V6.91867H119.004V5.44085ZM119.944 5.97824V6.90748H119.732V5.44085H119.978L120.247 6.28052V5.44085H120.448V6.90748H120.236L119.944 5.97824ZM120.583 5.44085H121.243V5.64237H121.042V6.90748H120.795V5.64237H120.594V5.44085H120.583ZM122.15 6.00063L122.016 6.90748H121.781L121.579 5.44085H121.814L121.926 6.37009L122.049 5.44085H122.251L122.385 6.37009L122.497 5.44085H122.71L122.519 6.90748H122.296L122.15 6.00063ZM122.811 6.52683V5.8103C122.811 5.5752 122.922 5.41846 123.18 5.41846C123.437 5.41846 123.561 5.58639 123.561 5.8103V6.52683C123.561 6.75074 123.449 6.91867 123.18 6.91867C122.922 6.92987 122.811 6.75074 122.811 6.52683ZM123.303 6.57161V5.77672C123.303 5.68715 123.269 5.61998 123.18 5.61998C123.09 5.61998 123.057 5.68715 123.057 5.77672V6.57161C123.057 6.66117 123.09 6.72835 123.18 6.72835C123.269 6.71715 123.303 6.66117 123.303 6.57161ZM123.964 6.23574V6.90748H123.717V5.44085H124.076C124.322 5.44085 124.411 5.564 124.411 5.76552V5.95585C124.411 6.11259 124.355 6.20215 124.21 6.23574L124.445 6.90748H124.188L123.964 6.23574ZM123.964 5.64237V6.10139H124.042C124.132 6.10139 124.165 6.05661 124.165 5.97824V5.76552C124.165 5.68715 124.132 5.64237 124.042 5.64237H123.964ZM124.814 6.19096V6.90748H124.568V5.44085H124.814V6.0902L125.083 5.44085H125.329L125.038 6.10139L125.329 6.90748H125.072L124.814 6.19096ZM125.677 6.90748L125.956 5.44085H126.236L126.516 6.90748H126.259L126.214 6.63878H125.956L125.912 6.90748H125.677ZM125.99 6.43726H126.192L126.091 5.84389L125.99 6.43726ZM126.807 5.97824V6.90748H126.595V5.44085H126.841L127.11 6.28052V5.44085H127.311V6.90748H127.098L126.807 5.97824ZM128.218 5.8327V6.51563C128.218 6.73954 128.128 6.90748 127.86 6.90748H127.479V5.44085H127.86C128.128 5.44085 128.218 5.60878 128.218 5.8327ZM127.826 6.70596C127.927 6.70596 127.972 6.64998 127.972 6.56041V5.78791C127.972 5.69835 127.938 5.64237 127.826 5.64237H127.725V6.70596H127.826Z" fill="white"/>
<path d="M116.519 7.60149H117.112V7.80301H116.765V8.22845H117.011V8.42997H116.765V8.8778H117.112V9.07932H116.519V7.60149ZM117.213 8.68747V7.97095C117.213 7.73584 117.325 7.5791 117.582 7.5791C117.851 7.5791 117.929 7.73584 117.929 7.94856V8.12769H117.705V7.93736C117.705 7.8478 117.672 7.79182 117.582 7.79182C117.493 7.79182 117.459 7.85899 117.459 7.94856V8.74345C117.459 8.83301 117.493 8.90019 117.582 8.90019C117.672 8.90019 117.705 8.84421 117.705 8.75465V8.48595H117.929V8.74345C117.929 8.95617 117.84 9.11291 117.582 9.11291C117.325 9.09051 117.213 8.92258 117.213 8.68747ZM118.064 8.68747V7.97095C118.064 7.73584 118.176 7.5791 118.433 7.5791C118.691 7.5791 118.814 7.74704 118.814 7.97095V8.68747C118.814 8.91138 118.702 9.07932 118.433 9.07932C118.187 9.09051 118.064 8.92258 118.064 8.68747ZM118.567 8.73225V7.93736C118.567 7.8478 118.534 7.78062 118.444 7.78062C118.355 7.78062 118.321 7.8478 118.321 7.93736V8.73225C118.321 8.82182 118.355 8.88899 118.444 8.88899C118.534 8.8778 118.567 8.82182 118.567 8.73225ZM119.172 8.15008V9.07932H118.959V7.61269H119.206L119.474 8.45236V7.61269H119.676V9.07932H119.463L119.172 8.15008ZM119.821 8.68747V7.97095C119.821 7.73584 119.933 7.5791 120.191 7.5791C120.448 7.5791 120.571 7.74704 120.571 7.97095V8.68747C120.571 8.91138 120.459 9.07932 120.191 9.07932C119.933 9.09051 119.821 8.92258 119.821 8.68747ZM120.314 8.73225V7.93736C120.314 7.8478 120.28 7.78062 120.191 7.78062C120.101 7.78062 120.068 7.8478 120.068 7.93736V8.73225C120.068 8.82182 120.101 8.88899 120.191 8.88899C120.28 8.8778 120.314 8.82182 120.314 8.73225ZM121.389 8.11649L121.21 9.06812H121.098L120.918 8.11649V9.06812H120.717V7.60149H121.008L121.165 8.42997L121.31 7.60149H121.624V9.06812H121.4L121.389 8.11649ZM121.758 7.60149H122.004V9.06812H121.758V7.60149ZM122.139 8.68747V7.97095C122.139 7.73584 122.251 7.5791 122.508 7.5791C122.777 7.5791 122.855 7.73584 122.855 7.94856V8.12769H122.631V7.93736C122.631 7.8478 122.598 7.79182 122.508 7.79182C122.419 7.79182 122.385 7.85899 122.385 7.94856V8.74345C122.385 8.83301 122.419 8.90019 122.508 8.90019C122.598 8.90019 122.631 8.84421 122.631 8.75465V8.48595H122.855V8.74345C122.855 8.95617 122.766 9.11291 122.508 9.11291C122.251 9.09051 122.139 8.92258 122.139 8.68747ZM123.661 8.28443H124.008V9.06812H123.829V8.91138C123.796 9.02334 123.729 9.09051 123.594 9.09051C123.381 9.09051 123.281 8.92258 123.281 8.69867V7.98215C123.281 7.74704 123.393 7.5903 123.65 7.5903C123.919 7.5903 124.008 7.74704 124.008 7.95975V8.0941H123.784V7.94856C123.784 7.85899 123.751 7.80301 123.661 7.80301C123.572 7.80301 123.538 7.87019 123.538 7.95975V8.75465C123.538 8.84421 123.572 8.91138 123.661 8.91138C123.74 8.91138 123.784 8.8666 123.784 8.76584V8.50834H123.673V8.28443H123.661ZM124.423 8.39638V9.06812H124.176V7.60149H124.535C124.781 7.60149 124.87 7.72465 124.87 7.92617V8.11649C124.87 8.27323 124.814 8.3628 124.669 8.39638L124.904 9.06812H124.647L124.423 8.39638ZM124.423 7.80301V8.26204H124.501C124.591 8.26204 124.624 8.21725 124.624 8.13888V7.92617C124.624 7.8478 124.591 7.80301 124.501 7.80301H124.423ZM124.982 8.68747V7.97095C124.982 7.73584 125.094 7.5791 125.352 7.5791C125.609 7.5791 125.733 7.74704 125.733 7.97095V8.68747C125.733 8.91138 125.621 9.07932 125.352 9.07932C125.094 9.09051 124.982 8.92258 124.982 8.68747ZM125.486 8.73225V7.93736C125.486 7.8478 125.453 7.78062 125.363 7.78062C125.274 7.78062 125.24 7.8478 125.24 7.93736V8.73225C125.24 8.82182 125.274 8.88899 125.363 8.88899C125.453 8.8778 125.486 8.82182 125.486 8.73225ZM126.371 8.16128L126.236 9.06812H126.001L125.8 7.60149H126.035L126.147 8.53073L126.27 7.60149H126.471L126.606 8.53073L126.718 7.60149H126.93L126.74 9.06812H126.505L126.371 8.16128ZM127.02 7.60149H127.681V7.80301H127.479V9.06812H127.222V7.80301H127.02V7.60149ZM128.24 8.41878H128.005V9.06812H127.759V7.60149H128.005V8.22845H128.24V7.60149H128.487V9.06812H128.24V8.41878Z" fill="white"/>
<path d="M166.06 120.19C173.587 120.19 179.69 114.087 179.69 106.56C179.69 99.032 173.587 92.9297 166.06 92.9297C158.532 92.9297 152.43 99.032 152.43 106.56C152.43 114.087 158.532 120.19 166.06 120.19Z" fill="#FD6925"/>
<path d="M160.027 99.6024C160.027 99.0098 159.766 98.5713 159.091 98.5713C158.403 98.5713 158.143 98.9506 158.143 99.5432V100.112C158.143 100.74 158.391 101.06 158.854 101.06C159.126 101.06 159.292 100.93 159.387 100.752V101.582C159.387 101.819 159.292 101.973 159.067 101.973C158.83 101.973 158.747 101.842 158.747 101.594V101.333H158.154V101.534C158.154 102.103 158.356 102.494 159.079 102.494C159.754 102.494 160.027 102.056 160.027 101.451V99.6024ZM159.387 100.195C159.375 100.408 159.28 100.551 159.079 100.551C158.854 100.551 158.771 100.42 158.771 100.159V99.4958C158.771 99.2469 158.866 99.1046 159.079 99.1046C159.292 99.1046 159.375 99.2469 159.375 99.4958V100.195H159.387ZM170.836 109.582L168.572 108.278V105.659C168.572 105.6 168.549 105.552 168.49 105.529L166.143 104.177C166.095 104.154 166.036 104.154 165.989 104.177L163.642 105.529C163.595 105.552 163.559 105.611 163.559 105.659V108.278L161.295 109.582C161.248 109.606 161.212 109.665 161.212 109.712V112.415C161.212 112.474 161.236 112.521 161.295 112.545L163.642 113.896C163.666 113.908 163.689 113.92 163.725 113.92C163.749 113.92 163.784 113.908 163.808 113.896L166.072 112.592L168.335 113.896C168.359 113.908 168.383 113.92 168.418 113.92C168.454 113.92 168.478 113.908 168.501 113.896L170.848 112.545C170.895 112.521 170.931 112.462 170.931 112.415V109.712C170.907 109.653 170.884 109.606 170.836 109.582ZM165.906 112.154L164.021 111.063L165.906 109.973V112.154ZM168.098 108.361L166.214 109.452V107.283L168.098 108.361ZM165.906 109.44L164.021 108.349L165.906 107.259V109.44ZM166.38 109.712L168.418 108.539L170.457 109.712L168.418 110.886L166.38 109.712ZM168.252 108.089L166.368 106.998L168.252 105.908V108.089ZM165.752 107.01L163.867 108.1V105.931L165.752 107.01ZM163.571 113.505L161.532 112.332V109.985L163.571 111.158V113.505ZM163.879 113.505V111.336L165.764 112.426L163.879 113.505ZM170.599 112.332L168.561 113.505V111.158L170.599 109.985V112.332Z" fill="white"/>
<path d="M161.034 98.6661H161.283V100.112H161.034V98.6661ZM161.627 99.2113V100.124H161.425V98.678H161.662L161.923 99.5077V98.678H162.125V100.124H161.911L161.627 99.2113ZM163.002 99.0573V99.7328C163.002 99.958 162.907 100.124 162.646 100.124H162.267V98.678H162.646C162.919 98.6661 163.002 98.8321 163.002 99.0573ZM162.622 99.9225C162.717 99.9225 162.765 99.8632 162.765 99.7803V99.0217C162.765 98.9387 162.729 98.8795 162.622 98.8795H162.516V99.9343L162.622 99.9225ZM163.867 98.6661V99.7565C163.867 99.9817 163.772 100.124 163.523 100.124C163.262 100.124 163.156 99.9817 163.156 99.7565V98.6661H163.405V99.7803C163.405 99.8632 163.44 99.9225 163.523 99.9225C163.606 99.9225 163.642 99.8632 163.642 99.7803V98.6661H163.867ZM163.997 99.804V99.6143H164.222V99.8158C164.222 99.8988 164.258 99.9462 164.341 99.9462C164.412 99.9462 164.448 99.8988 164.448 99.8158V99.7565C164.448 99.6736 164.412 99.6262 164.341 99.5551L164.199 99.4128C164.056 99.2706 163.997 99.1876 163.997 99.0217V98.9743C163.997 98.7965 164.104 98.6543 164.341 98.6543C164.59 98.6543 164.685 98.7728 164.685 98.9862V99.1047H164.459V98.9743C164.459 98.8913 164.424 98.8558 164.341 98.8558C164.27 98.8558 164.222 98.8913 164.222 98.9743V99.0099C164.222 99.0928 164.27 99.1402 164.341 99.2113L164.495 99.3654C164.625 99.4958 164.697 99.5788 164.697 99.7447V99.8158C164.697 100.017 164.59 100.16 164.341 100.16C164.092 100.136 163.997 99.9936 163.997 99.804ZM164.756 98.6661H165.408V98.8676H165.206V100.112H164.957V98.8676H164.756V98.6661ZM165.763 99.4484V100.112H165.526V98.6661H165.882C166.131 98.6661 166.214 98.7847 166.214 98.9862V99.1758C166.214 99.3299 166.154 99.4247 166.024 99.4602L166.261 100.112H166L165.763 99.4484ZM165.763 98.8676V99.318H165.846C165.929 99.318 165.965 99.2706 165.965 99.1995V98.9862C165.965 98.9032 165.929 98.8676 165.846 98.8676H165.763ZM166.782 99.5669V100.112H166.534V99.5669L166.261 98.6661H166.51L166.652 99.2113L166.794 98.6661H167.031L166.782 99.5669ZM167.292 99.8988L167.174 100.231H167.031L167.067 99.8869H167.292V99.8988ZM167.683 98.6661H167.932V100.112H167.683V98.6661ZM168.276 99.2113V100.124H168.074V98.678H168.311L168.572 99.5077V98.678H168.774V100.124H168.56L168.276 99.2113ZM169.129 99.2113V100.124H168.928V98.678H169.165L169.426 99.5077V98.678H169.627V100.124H169.414L169.129 99.2113ZM169.781 99.7447V99.0454C169.781 98.8202 169.888 98.6543 170.149 98.6543C170.409 98.6543 170.516 98.8202 170.516 99.0454V99.7447C170.516 99.9699 170.409 100.136 170.149 100.136C169.888 100.136 169.781 99.9699 169.781 99.7447ZM170.279 99.7803V98.998C170.279 98.915 170.243 98.8439 170.149 98.8439C170.066 98.8439 170.03 98.9032 170.03 98.998V99.7803C170.03 99.8632 170.066 99.9343 170.149 99.9343C170.232 99.9343 170.279 99.8751 170.279 99.7803ZM171.452 98.6661L171.18 100.112H170.919L170.646 98.6661H170.895L171.061 99.6736L171.227 98.6661H171.452ZM171.417 100.112L171.689 98.6661H171.962L172.235 100.112H171.986L171.938 99.8514H171.689L171.642 100.112H171.417ZM171.713 99.6617H171.903L171.808 99.081L171.713 99.6617ZM172.211 98.6661H172.863V98.8676H172.661V100.112H172.412V98.8676H172.211V98.6661ZM172.981 98.6661H173.23V100.112H172.981V98.6661ZM173.384 99.7447V99.0454C173.384 98.8202 173.491 98.6543 173.752 98.6543C174.012 98.6543 174.119 98.8202 174.119 99.0454V99.7447C174.119 99.9699 174.012 100.136 173.752 100.136C173.491 100.136 173.384 99.9699 173.384 99.7447ZM173.87 99.7803V98.998C173.87 98.915 173.835 98.8439 173.74 98.8439C173.657 98.8439 173.621 98.9032 173.621 98.998V99.7803C173.621 99.8632 173.657 99.9343 173.74 99.9343C173.835 99.9343 173.87 99.8751 173.87 99.7803ZM174.475 99.2113V100.124H174.273V98.678H174.51L174.771 99.5077V98.678H174.972V100.124H174.759L174.475 99.2113Z" fill="white"/>
<path d="M160.986 102.411L161.259 100.965H161.532L161.804 102.411H161.555L161.508 102.15H161.259L161.212 102.411H160.986ZM161.294 101.949H161.484L161.389 101.368L161.294 101.949ZM162.112 101.498V102.411H161.911V100.965H162.148L162.409 101.795V100.965H162.61V102.411H162.397L162.112 101.498ZM163.487 101.344V102.02C163.487 102.245 163.392 102.411 163.132 102.411H162.752V100.965H163.132C163.392 100.965 163.487 101.131 163.487 101.344ZM163.108 102.21C163.203 102.21 163.25 102.15 163.25 102.067V101.309C163.25 101.226 163.215 101.167 163.108 101.167H163.001V102.221L163.108 102.21ZM163.866 100.965H164.115V102.411H163.866V100.965ZM164.471 101.498V102.411H164.269V100.965H164.506L164.767 101.795V100.965H164.969V102.411H164.755L164.471 101.498ZM165.123 100.965H165.692V101.167H165.36V101.581H165.609V101.783H165.36V102.423H165.111L165.123 100.965ZM166.047 101.747V102.411H165.798V100.965H166.154C166.403 100.965 166.486 101.084 166.486 101.285V101.475C166.486 101.629 166.426 101.724 166.296 101.759L166.533 102.411H166.272L166.047 101.747ZM166.047 101.155V101.605H166.13C166.213 101.605 166.249 101.558 166.249 101.487V101.273C166.249 101.19 166.213 101.155 166.13 101.155H166.047ZM166.604 102.411L166.877 100.965H167.149L167.422 102.411H167.173L167.126 102.15H166.865L166.818 102.411H166.604ZM166.901 101.949H167.09L166.995 101.368L166.901 101.949ZM167.505 102.091V101.901H167.73V102.103C167.73 102.186 167.766 102.233 167.849 102.233C167.92 102.233 167.955 102.186 167.955 102.103V102.044C167.955 101.961 167.92 101.913 167.849 101.842L167.707 101.7C167.564 101.558 167.505 101.475 167.505 101.309V101.261C167.505 101.084 167.612 100.941 167.849 100.941C168.098 100.941 168.192 101.06 168.192 101.273V101.392H167.967V101.261C167.967 101.178 167.932 101.143 167.849 101.143C167.778 101.143 167.73 101.178 167.73 101.261V101.297C167.73 101.38 167.778 101.427 167.849 101.498L168.003 101.653C168.133 101.783 168.204 101.866 168.204 102.032V102.103C168.204 102.304 168.098 102.447 167.849 102.447C167.6 102.447 167.505 102.281 167.505 102.091ZM168.275 100.965H168.927V101.167H168.726V102.411H168.477V101.167H168.275V100.965ZM169.295 101.747V102.411H169.046V100.965H169.401C169.65 100.965 169.733 101.084 169.733 101.285V101.475C169.733 101.629 169.674 101.724 169.544 101.759L169.781 102.411H169.52L169.295 101.747ZM169.295 101.155V101.605H169.378C169.461 101.605 169.496 101.558 169.496 101.487V101.273C169.496 101.19 169.461 101.155 169.378 101.155H169.295ZM170.587 100.965V102.056C170.587 102.281 170.492 102.423 170.243 102.423C169.982 102.423 169.875 102.281 169.875 102.056V100.965H170.124V102.079C170.124 102.162 170.16 102.221 170.243 102.221C170.326 102.221 170.361 102.162 170.361 102.079V100.965H170.587ZM170.741 102.032V101.333C170.741 101.107 170.847 100.941 171.108 100.941C171.381 100.941 171.452 101.095 171.452 101.309V101.475H171.227V101.285C171.227 101.19 171.191 101.143 171.108 101.143C171.025 101.143 170.99 101.202 170.99 101.297V102.079C170.99 102.162 171.025 102.233 171.108 102.233C171.191 102.233 171.227 102.174 171.227 102.091V101.818H171.452V102.067C171.452 102.269 171.369 102.423 171.108 102.423C170.847 102.423 170.741 102.257 170.741 102.032ZM171.499 100.965H172.151V101.167H171.95V102.411H171.701V101.167H171.499V100.965ZM172.981 100.965V102.056C172.981 102.281 172.886 102.423 172.637 102.423C172.376 102.423 172.27 102.281 172.27 102.056V100.965H172.518V102.079C172.518 102.162 172.554 102.221 172.637 102.221C172.72 102.221 172.756 102.162 172.756 102.079V100.965H172.981ZM173.372 101.747V102.411H173.123V100.965H173.478C173.727 100.965 173.81 101.084 173.81 101.285V101.475C173.81 101.629 173.751 101.724 173.621 101.759L173.858 102.411H173.597L173.372 101.747ZM173.372 101.155V101.605H173.455C173.538 101.605 173.573 101.558 173.573 101.487V101.273C173.573 101.19 173.538 101.155 173.455 101.155H173.372ZM173.964 100.965H174.545V101.167H174.213V101.581H174.45V101.783H174.213V102.221H174.545V102.423H173.964V100.965Z" fill="white"/>
<path d="M141.511 38.0384C145.3 38.0384 148.371 34.967 148.371 31.1784C148.371 27.3897 145.3 24.3184 141.511 24.3184C137.723 24.3184 134.651 27.3897 134.651 31.1784C134.651 34.967 137.723 38.0384 141.511 38.0384Z" fill="#DD1367"/>
<path d="M193.124 91.1504C215.411 91.1504 233.479 73.0829 233.479 50.7954C233.479 28.508 215.411 10.4404 193.124 10.4404C170.836 10.4404 152.769 28.508 152.769 50.7954C152.769 73.0829 170.836 91.1504 193.124 91.1504Z" fill="#FD9D24"/>
<path d="M169.191 29.565V31.5652L170.56 30.1616V38.8642H172.49V27.4946H170.946L169.191 29.565ZM173.543 29.565V31.5652H173.578L174.911 30.1616V38.8642H176.841V27.4946H175.297L173.543 29.565Z" fill="white"/>
<path d="M174.455 65.7444H182.947C183.052 65.7444 183.157 65.6391 183.157 65.5338C183.157 65.4636 183.122 65.4285 183.087 65.3934L178.876 59.9192L178.841 59.8841C178.806 59.849 178.736 59.8139 178.701 59.8139C178.666 59.8139 178.595 59.849 178.56 59.8841L178.525 59.9192L178.49 59.9543L174.349 65.3584L174.279 65.4285C174.244 65.4636 174.244 65.4987 174.244 65.5338C174.244 65.6391 174.349 65.7444 174.455 65.7444ZM182.912 66.5164H174.384C174.279 66.5164 174.174 66.6216 174.174 66.7269V73.3943C174.174 73.4995 174.279 73.6048 174.384 73.6048H177.121V69.429C177.121 69.3237 177.227 69.2184 177.332 69.2184H179.859C179.964 69.2184 180.069 69.3237 180.069 69.429V73.6048H182.876C182.982 73.6048 183.087 73.4995 183.087 73.3943V66.7269C183.122 66.6216 183.052 66.5164 182.912 66.5164ZM212.318 64.7618H203.896C203.791 64.7618 203.686 64.8671 203.686 64.9724V73.4645C203.686 73.5697 203.791 73.675 203.896 73.675H212.318C212.423 73.675 212.529 73.5697 212.529 73.4645V64.9724C212.529 64.8671 212.458 64.7618 212.318 64.7618ZM207.721 70.3413C207.721 70.4466 207.616 70.5519 207.511 70.5519H204.984C204.879 70.5519 204.773 70.4466 204.773 70.3413V68.7973C204.773 68.692 204.879 68.5868 204.984 68.5868H207.511C207.616 68.5868 207.721 68.692 207.721 68.7973V70.3413ZM207.721 67.4989C207.721 67.6042 207.616 67.7095 207.511 67.7095H204.984C204.879 67.7095 204.773 67.6042 204.773 67.4989V65.9549C204.773 65.8496 204.879 65.7444 204.984 65.7444H207.511C207.616 65.7444 207.721 65.8496 207.721 65.9549V67.4989ZM211.581 70.3413C211.581 70.4466 211.476 70.5519 211.371 70.5519H208.844C208.739 70.5519 208.633 70.4466 208.633 70.3413V68.7973C208.633 68.692 208.739 68.5868 208.844 68.5868H211.371C211.476 68.5868 211.581 68.692 211.581 68.7973V70.3413ZM211.581 67.4989C211.581 67.6042 211.476 67.7095 211.371 67.7095H208.844C208.739 67.7095 208.633 67.6042 208.633 67.4989V65.9549C208.633 65.8496 208.739 65.7444 208.844 65.7444H211.371C211.476 65.7444 211.581 65.8496 211.581 65.9549V67.4989ZM192.737 45.0405H184.526C184.42 45.0405 184.315 45.1458 184.315 45.2511V73.4294C184.315 73.5346 184.42 73.6399 184.526 73.6399H192.772C192.877 73.6399 192.983 73.5346 192.983 73.4294V45.2511C192.948 45.1107 192.877 45.0405 192.737 45.0405ZM187.859 70.4115C187.859 70.4817 187.824 70.5168 187.754 70.5168H185.859C185.789 70.5168 185.754 70.4817 185.754 70.4115V68.306C185.754 68.2358 185.789 68.2008 185.859 68.2008H187.754C187.824 68.2008 187.859 68.2358 187.859 68.306V70.4115ZM187.859 65.5689C187.859 65.6391 187.824 65.6742 187.754 65.6742H185.859C185.789 65.6742 185.754 65.6391 185.754 65.5689V63.4634C185.754 63.3932 185.789 63.3582 185.859 63.3582H187.754C187.824 63.3582 187.859 63.3932 187.859 63.4634V65.5689ZM187.859 60.7263C187.859 60.7965 187.824 60.8316 187.754 60.8316H185.859C185.789 60.8316 185.754 60.7965 185.754 60.7263V58.6208C185.754 58.5506 185.789 58.5156 185.859 58.5156H187.754C187.824 58.5156 187.859 58.5506 187.859 58.6208V60.7263ZM187.859 55.9188C187.859 55.989 187.824 56.0241 187.754 56.0241H185.859C185.789 56.0241 185.754 55.989 185.754 55.9188V53.8134C185.754 53.7432 185.789 53.7081 185.859 53.7081H187.754C187.824 53.7081 187.859 53.7432 187.859 53.8134V55.9188ZM187.859 51.0762C187.859 51.1464 187.824 51.1815 187.754 51.1815H185.859C185.789 51.1815 185.754 51.1464 185.754 51.0762V48.9708C185.754 48.9006 185.789 48.8655 185.859 48.8655H187.754C187.824 48.8655 187.859 48.9006 187.859 48.9708V51.0762ZM191.544 70.4115C191.544 70.4817 191.509 70.5168 191.439 70.5168H189.544C189.474 70.5168 189.439 70.4817 189.439 70.4115V68.306C189.439 68.2358 189.474 68.2008 189.544 68.2008H191.439C191.509 68.2008 191.544 68.2358 191.544 68.306V70.4115ZM191.544 65.5689C191.544 65.6391 191.509 65.6742 191.439 65.6742H189.544C189.474 65.6742 189.439 65.6391 189.439 65.5689V63.4634C189.439 63.3932 189.474 63.3582 189.544 63.3582H191.439C191.509 63.3582 191.544 63.3932 191.544 63.4634V65.5689ZM191.544 60.7263C191.544 60.7965 191.509 60.8316 191.439 60.8316H189.544C189.474 60.8316 189.439 60.7965 189.439 60.7263V58.6208C189.439 58.5506 189.474 58.5156 189.544 58.5156H191.439C191.509 58.5156 191.544 58.5506 191.544 58.6208V60.7263ZM191.544 55.9188C191.544 55.989 191.509 56.0241 191.439 56.0241H189.544C189.474 56.0241 189.439 55.989 189.439 55.9188V53.8134C189.439 53.7432 189.474 53.7081 189.544 53.7081H191.439C191.509 53.7081 191.544 53.7432 191.544 53.8134V55.9188ZM191.544 51.0762C191.544 51.1464 191.509 51.1815 191.439 51.1815H189.544C189.474 51.1815 189.439 51.1464 189.439 51.0762V48.9708C189.439 48.9006 189.474 48.8655 189.544 48.8655H191.439C191.509 48.8655 191.544 48.9006 191.544 48.9708V51.0762ZM212.529 63.9196C212.529 64.0249 212.458 64.0951 212.353 64.0951H203.861C203.756 64.0951 203.686 64.0249 203.686 63.9196V62.2352C203.686 62.13 203.756 62.0598 203.861 62.0598H212.353C212.458 62.0598 212.529 62.13 212.529 62.2352V63.9196ZM202.703 50.3393C202.668 50.234 202.598 50.199 202.493 50.199C202.457 50.199 202.422 50.199 202.387 50.234L202.317 50.3042L194.211 60.5859L194.176 60.621C194.141 60.6561 194.106 60.7263 194.106 60.7965V73.4294C194.106 73.5346 194.211 73.6399 194.316 73.6399H202.563C202.668 73.6399 202.773 73.5346 202.773 73.4294V50.4095C202.738 50.4095 202.738 50.3744 202.703 50.3393ZM199.299 55.9188L199.369 55.8487C199.931 55.1468 200.843 53.9888 201.299 53.4273L201.37 53.3572C201.405 53.3221 201.475 53.287 201.545 53.287C201.65 53.287 201.756 53.3572 201.756 53.4624V56.0592C201.756 56.1996 201.65 56.2697 201.545 56.3048H199.51C199.369 56.3048 199.299 56.1996 199.299 56.0592C199.264 56.0241 199.264 55.9539 199.299 55.9188ZM198.001 70.3062C198.001 70.4115 197.896 70.5168 197.79 70.5168H195.334C195.229 70.5168 195.123 70.4115 195.123 70.3062V68.7622C195.123 68.6569 195.229 68.5517 195.334 68.5517H197.79C197.896 68.5517 198.001 68.6569 198.001 68.7622V70.3062ZM198.001 67.4989C198.001 67.6042 197.896 67.7095 197.79 67.7095H195.334C195.229 67.7095 195.123 67.6042 195.123 67.4989V65.9549C195.123 65.8496 195.229 65.7444 195.334 65.7444H197.79C197.896 65.7444 198.001 65.8496 198.001 65.9549V67.4989ZM198.001 64.6565C198.001 64.7618 197.896 64.8671 197.79 64.8671H195.334C195.229 64.8671 195.123 64.7618 195.123 64.6565V63.1125C195.123 63.0072 195.229 62.902 195.334 62.902H197.79C197.896 62.902 198.001 63.0072 198.001 63.1125V64.6565ZM198.036 58.4103V61.779C198.036 61.8843 197.931 61.9896 197.825 61.9896H195.369C195.264 61.9896 195.158 61.8843 195.158 61.779V61.3579V61.2878V61.2527C195.158 61.2527 195.158 61.2176 195.194 61.2176C195.194 61.2176 195.194 61.1825 195.229 61.1825C195.544 60.7263 196.948 58.9717 197.545 58.2699L197.615 58.1997C197.65 58.1646 197.72 58.1296 197.79 58.1296C197.896 58.1296 198.001 58.1997 198.001 58.305V58.4103H198.036ZM201.791 70.3062C201.791 70.4115 201.685 70.5168 201.58 70.5168H199.124C199.018 70.5168 198.913 70.4115 198.913 70.3062V68.7622C198.913 68.6569 199.018 68.5517 199.124 68.5517H201.58C201.685 68.5517 201.791 68.6569 201.791 68.7622V70.3062ZM201.791 67.4989C201.791 67.6042 201.685 67.7095 201.58 67.7095H199.124C199.018 67.7095 198.913 67.6042 198.913 67.4989V65.9549C198.913 65.8496 199.018 65.7444 199.124 65.7444H201.58C201.685 65.7444 201.791 65.8496 201.791 65.9549V67.4989ZM201.791 64.6565C201.791 64.7618 201.685 64.8671 201.58 64.8671H199.124C199.018 64.8671 198.913 64.7618 198.913 64.6565V63.1125C198.913 63.0072 199.018 62.902 199.124 62.902H201.58C201.685 62.902 201.791 63.0072 201.791 63.1125V64.6565ZM201.791 61.8141C201.791 61.9194 201.685 62.0247 201.58 62.0247H199.124C199.018 62.0247 198.913 61.9194 198.913 61.8141V60.2701C198.913 60.1648 199.018 60.0596 199.124 60.0596H201.58C201.685 60.0596 201.791 60.1648 201.791 60.2701V61.8141ZM201.791 58.9717C201.791 59.077 201.685 59.1823 201.58 59.1823H199.124C199.018 59.1823 198.913 59.077 198.913 58.9717V57.4278C198.913 57.3225 199.018 57.2172 199.124 57.2172H201.58C201.685 57.2172 201.791 57.3225 201.791 57.4278V58.9717Z" fill="white"/>
<path d="M180.561 31.1089V30.4773H181.297V31.1089C181.297 31.3545 181.403 31.53 181.683 31.53C181.929 31.53 182.034 31.3545 182.034 31.1089V30.9334C182.034 30.6527 181.929 30.5124 181.683 30.2667L181.227 29.8105C180.771 29.3894 180.596 29.1087 180.596 28.5823V28.442C180.596 27.8805 180.947 27.4243 181.683 27.4243C182.455 27.4243 182.771 27.8103 182.771 28.4771V28.8631H182.069V28.4771C182.069 28.1963 181.964 28.0911 181.719 28.0911C181.508 28.0911 181.368 28.1963 181.368 28.4771V28.5823C181.368 28.828 181.508 29.0034 181.719 29.214L182.21 29.7053C182.631 30.1263 182.841 30.4071 182.841 30.8984V31.1089C182.841 31.7405 182.491 32.1967 181.719 32.1967C180.947 32.1967 180.561 31.7055 180.561 31.1089ZM185.368 27.4945V30.9685C185.368 31.6704 185.052 32.1616 184.28 32.1616C183.473 32.1616 183.122 31.7055 183.122 30.9685V27.4945H183.894V31.0738C183.894 31.3545 183.999 31.53 184.28 31.53C184.561 31.53 184.666 31.3545 184.666 31.0738V27.4945H185.368ZM185.789 31.1089V30.4773H186.526V31.1089C186.526 31.3545 186.631 31.53 186.912 31.53C187.158 31.53 187.263 31.3545 187.263 31.1089V30.9334C187.263 30.6527 187.158 30.5124 186.912 30.2667L186.456 29.8105C186 29.3894 185.824 29.1087 185.824 28.5823V28.442C185.824 27.8805 186.14 27.4243 186.912 27.4243C187.684 27.4243 188 27.8103 188 28.4771V28.8631H187.298V28.4771C187.298 28.1963 187.193 28.0911 186.947 28.0911C186.737 28.0911 186.596 28.1963 186.596 28.4771V28.5823C186.596 28.828 186.737 29.0034 186.947 29.214L187.438 29.7053C187.86 30.1263 188.07 30.4071 188.07 30.8984V31.1089C188.07 31.7405 187.719 32.1967 186.947 32.1967C186.07 32.1616 185.789 31.7055 185.789 31.1089ZM188.175 27.4945H190.246V28.1261H189.614V32.0915H188.842V28.1261H188.21V27.4945H188.175ZM190.105 32.0915L190.983 27.4945H191.86L192.737 32.0915H191.93L191.79 31.2493H190.983L190.842 32.0915H190.105ZM191.088 30.6176H191.72L191.404 28.7578L191.088 30.6176ZM193.053 27.4945H193.825V32.0915H193.053V27.4945ZM194.913 29.1789V32.0915H194.246V27.4945H195.018L195.86 30.1263V27.4945H196.492V32.0915H195.825L194.913 29.1789ZM196.773 32.0915L197.65 27.4945H198.527L199.405 32.0915H198.597L198.457 31.2493H197.65L197.51 32.0915H196.773ZM197.755 30.6176H198.387L198.071 28.7578L197.755 30.6176ZM199.65 27.4945H200.773C201.545 27.4945 201.791 27.8454 201.791 28.5121V28.9683C201.791 29.3543 201.65 29.6 201.335 29.7053C201.721 29.8105 201.896 30.0562 201.896 30.4773V31.0738C201.896 31.7405 201.615 32.0915 200.843 32.0915H199.65V27.4945ZM200.422 29.4245H200.703C200.949 29.4245 201.054 29.2842 201.054 29.0385V28.4771C201.054 28.2314 200.949 28.0911 200.668 28.0911H200.387L200.422 29.4245ZM200.422 30.0211V31.4598H200.773C201.019 31.4598 201.159 31.3195 201.159 31.0738V30.372C201.159 30.1263 201.054 29.986 200.773 29.986H200.422V30.0211ZM202.247 27.4945H203.019V31.4598H203.931V32.0915H202.247V27.4945ZM204.247 27.4945H206.107V28.1261H205.019V29.4596H205.791V30.0913H205.019V31.4949H206.107V32.1266H204.247V27.4945ZM207.405 30.8984V28.6525C207.405 27.9156 207.756 27.4243 208.563 27.4243C209.406 27.4243 209.651 27.9156 209.651 28.5823V29.1438H208.949V28.5121C208.949 28.2314 208.844 28.056 208.563 28.056C208.283 28.056 208.177 28.2665 208.177 28.5472V31.0387C208.177 31.3195 208.283 31.53 208.563 31.53C208.844 31.53 208.949 31.3545 208.949 31.0738V30.2316H209.651V31.0387C209.651 31.7055 209.37 32.1967 208.563 32.1967C207.721 32.1616 207.405 31.6002 207.405 30.8984ZM210.002 27.4945H210.774V32.0915H210.002V27.4945ZM211.055 27.4945H213.125V28.1261H212.494V32.0915H211.722V28.1261H211.09V27.4945H211.055ZM213.441 27.4945H214.213V32.0915H213.441V27.4945ZM214.634 27.4945H216.494V28.1261H215.406V29.4596H216.178V30.0913H215.406V31.4949H216.494V32.1266H214.634V27.4945ZM216.669 31.1089V30.4773H217.406V31.1089C217.406 31.3545 217.512 31.53 217.792 31.53C218.038 31.53 218.143 31.3545 218.143 31.1089V30.9334C218.143 30.6527 218.038 30.5124 217.792 30.2667L217.336 29.8105C216.88 29.3894 216.705 29.1087 216.705 28.5823V28.442C216.705 27.8805 217.055 27.4243 217.792 27.4243C218.564 27.4243 218.88 27.8103 218.88 28.4771V28.8631H218.178V28.4771C218.178 28.1963 218.073 28.0911 217.827 28.0911C217.617 28.0911 217.477 28.1963 217.477 28.4771V28.5823C217.477 28.828 217.617 29.0034 217.827 29.214L218.319 29.7053C218.74 30.1263 218.95 30.4071 218.95 30.8984V31.1089C218.95 31.7405 218.599 32.1967 217.827 32.1967C217.055 32.1967 216.669 31.7055 216.669 31.1089Z" fill="white"/>
<path d="M180.561 38.8644L181.438 34.2674H182.315L183.192 38.8644H182.42L182.28 38.0222H181.473L181.333 38.8644H180.561ZM181.543 37.4257H182.175L181.859 35.5658L181.543 37.4257ZM184.175 35.9869V38.8995H183.508V34.3025H184.28L185.122 36.9344V34.3025H185.754V38.8995H185.087L184.175 35.9869ZM188.526 35.4956V37.6362C188.526 38.338 188.246 38.8644 187.403 38.8644H186.21V34.2674H187.403C188.21 34.2674 188.526 34.7938 188.526 35.4956ZM187.298 38.2328C187.614 38.2328 187.754 38.0573 187.754 37.7766V35.3553C187.754 35.0745 187.649 34.8991 187.298 34.8991H186.982V38.2328H187.298ZM189.649 37.6713V35.4255C189.649 34.6885 190 34.1973 190.807 34.1973C191.649 34.1973 191.895 34.6885 191.895 35.3553V35.9167H191.193V35.3202C191.193 35.0395 191.088 34.864 190.807 34.864C190.526 34.864 190.421 35.0745 190.421 35.3553V37.8468C190.421 38.1275 190.526 38.338 190.807 38.338C191.088 38.338 191.193 38.1626 191.193 37.8819V37.0397H191.895V37.8468C191.895 38.5135 191.614 39.0048 190.807 39.0048C189.965 38.9346 189.649 38.4082 189.649 37.6713ZM192.316 37.6713V35.4255C192.316 34.6885 192.667 34.1973 193.474 34.1973C194.281 34.1973 194.667 34.7236 194.667 35.4255V37.6713C194.667 38.3731 194.316 38.8995 193.474 38.8995C192.667 38.9346 192.316 38.4082 192.316 37.6713ZM193.86 37.8117V35.3202C193.86 35.0395 193.755 34.8289 193.474 34.8289C193.193 34.8289 193.088 35.0395 193.088 35.3202V37.8117C193.088 38.0924 193.193 38.3029 193.474 38.3029C193.755 38.2679 193.86 38.0924 193.86 37.8117ZM197.229 35.8816L196.667 38.8644H196.317L195.755 35.8816V38.8644H195.123V34.2674H196.036L196.527 36.8642L196.983 34.2674H197.966V38.8644H197.264L197.229 35.8816ZM200.492 35.8816L199.931 38.8644H199.58L199.019 35.8816V38.8644H198.387V34.2674H199.299L199.791 36.8642L200.247 34.2674H201.229V38.8644H200.527V35.8816H200.492ZM203.896 34.2674V37.7415C203.896 38.4433 203.58 38.9346 202.808 38.9346C202.001 38.9346 201.65 38.4784 201.65 37.7415V34.2674H202.422V37.8468C202.422 38.1275 202.528 38.3029 202.808 38.3029C203.089 38.3029 203.194 38.1275 203.194 37.8468V34.2674H203.896ZM204.949 35.9869V38.8995H204.282V34.3025H205.054L205.896 36.9344V34.3025H206.528V38.8995H205.861L204.949 35.9869ZM206.984 34.2674H207.756V38.8644H206.984V34.2674ZM208.107 34.2674H210.178V34.8991H209.546V38.8644H208.739V34.8991H208.107V34.2674ZM210.528 34.2674H211.3V38.8644H210.528V34.2674ZM211.722 34.2674H213.581V34.8991H212.494V36.2326H213.266V36.8642H212.494V38.2679H213.581V38.8995H211.722V34.2674ZM213.897 37.8819V37.2502H214.634V37.8819C214.634 38.1275 214.739 38.3029 215.02 38.3029C215.266 38.3029 215.371 38.1275 215.371 37.8819V37.7064C215.371 37.4257 215.266 37.2853 215.02 37.0397L214.564 36.5835C214.108 36.1624 213.932 35.8816 213.932 35.3553V35.2149C213.932 34.6535 214.248 34.1973 215.02 34.1973C215.792 34.1973 216.108 34.5833 216.108 35.25V35.636H215.406V35.25C215.406 34.9693 215.301 34.864 215.055 34.864C214.845 34.864 214.704 34.9693 214.704 35.25V35.3553C214.704 35.6009 214.845 35.7764 215.055 35.9869L215.547 36.4782C215.968 36.8993 216.178 37.18 216.178 37.6713V37.8819C216.178 38.5135 215.827 38.9697 215.055 38.9697C214.213 38.9346 213.897 38.4784 213.897 37.8819Z" fill="white"/>
<path d="M200.463 125.081C207.745 125.081 213.648 119.178 213.648 111.896C213.648 104.614 207.745 98.7109 200.463 98.7109C193.181 98.7109 187.278 104.614 187.278 111.896C187.278 119.178 193.181 125.081 200.463 125.081Z" fill="#BF8B2E"/>
<path d="M193.137 105.155H193.148V108.009H193.767V104.283H193.274L192.689 104.96V105.613H192.701L193.137 105.155ZM194.146 105.051V105.498H194.719V105.028C194.719 104.799 194.833 104.742 194.96 104.742C195.086 104.742 195.189 104.788 195.189 105.017V105.327C195.189 105.636 195.166 105.751 194.96 105.969L194.604 106.347C194.26 106.714 194.134 106.955 194.134 107.321V108.009H195.762V107.493H194.73V107.321C194.73 107.035 194.833 106.92 194.994 106.748L195.395 106.324C195.716 105.98 195.785 105.762 195.785 105.384V105.017C195.785 104.49 195.533 104.237 194.971 104.237C194.421 104.237 194.146 104.535 194.146 105.051ZM205.657 112.618C204.9 112.022 204.006 111.965 203.65 111.965C203.467 111.965 203.295 111.976 203.169 112.011L203.123 112.022C202.641 112.137 201.85 112.32 200.921 113.478L200.899 113.513C200.887 113.536 200.876 113.559 200.876 113.581C200.876 113.604 200.876 113.627 200.887 113.639L200.91 113.673C201.059 113.925 201.185 114.155 201.288 114.338C201.323 114.407 201.426 114.43 201.483 114.361C201.495 114.35 201.495 114.338 201.506 114.338C202.309 113.226 202.939 113.077 203.352 112.985L203.398 112.974C203.455 112.962 203.547 112.951 203.65 112.951C203.845 112.951 204.51 112.985 205.037 113.398C205.508 113.765 205.737 114.35 205.737 115.141C205.737 116.471 205.095 116.987 204.556 117.182C204.35 117.262 204.132 117.296 203.902 117.296C203.352 117.296 202.916 117.078 202.916 117.067L202.882 117.044C202.423 116.838 201.724 116.425 201.071 115.106C199.729 112.412 198.606 112.16 197.86 111.988L197.826 111.976C197.769 111.965 197.608 111.93 197.344 111.93C196.909 111.93 196.083 112.011 195.372 112.584C194.891 112.974 194.306 113.731 194.306 115.106C194.306 115.955 194.478 116.505 194.925 117.09C195.005 117.204 195.785 118.202 197.276 118.202C197.493 118.202 197.723 118.179 197.952 118.133C198.227 118.076 198.64 117.95 199.11 117.606L199.5 117.961C199.546 117.996 199.614 117.996 199.66 117.95C199.683 117.927 199.695 117.904 199.683 117.881L199.981 116.012V115.989C199.981 115.955 199.97 115.932 199.947 115.909C199.924 115.886 199.901 115.874 199.867 115.874L198.044 116.379H198.009C197.986 116.379 197.963 116.39 197.952 116.413C197.929 116.436 197.918 116.471 197.918 116.494C197.918 116.528 197.929 116.551 197.952 116.574L198.33 116.918C198.135 117.044 197.929 117.124 197.746 117.159C197.585 117.193 197.425 117.204 197.264 117.204C196.232 117.204 195.728 116.528 195.705 116.494L195.693 116.482C195.384 116.069 195.269 115.714 195.269 115.095C195.269 114.304 195.498 113.708 195.957 113.341C196.473 112.928 197.126 112.905 197.31 112.905C197.413 112.905 197.505 112.916 197.562 112.928L197.608 112.939C198.204 113.077 199.018 113.26 200.153 115.531C200.75 116.734 201.495 117.514 202.435 117.927C202.55 117.984 203.123 118.259 203.879 118.259C204.223 118.259 204.567 118.202 204.888 118.076C205.439 117.869 206.711 117.17 206.711 115.095C206.746 113.765 206.15 113.008 205.657 112.618Z" fill="white"/>
<path d="M197.436 105.097V105.785H197.184V104.283H197.55C197.803 104.283 197.894 104.409 197.894 104.616V104.811C197.894 104.971 197.837 105.063 197.688 105.097L197.929 105.785H197.665L197.436 105.097ZM197.436 104.49V104.96H197.516C197.608 104.96 197.642 104.914 197.642 104.834V104.616C197.642 104.535 197.608 104.49 197.516 104.49H197.436ZM198.066 104.283H198.674V104.49H198.319V104.925H198.571V105.132H198.319V105.59H198.674V105.797H198.066V104.283ZM198.812 105.464V105.258H199.052V105.464C199.052 105.544 199.087 105.602 199.179 105.602C199.259 105.602 199.293 105.544 199.293 105.464V105.407C199.293 105.315 199.259 105.269 199.179 105.189L199.029 105.04C198.88 104.902 198.823 104.811 198.823 104.639V104.593C198.823 104.409 198.938 104.26 199.179 104.26C199.431 104.26 199.534 104.386 199.534 104.604V104.73H199.305V104.604C199.305 104.512 199.27 104.478 199.19 104.478C199.121 104.478 199.075 104.512 199.075 104.604V104.639C199.075 104.719 199.121 104.776 199.19 104.845L199.351 105.005C199.488 105.143 199.557 105.235 199.557 105.395V105.464C199.557 105.67 199.442 105.82 199.19 105.82C198.915 105.808 198.812 105.659 198.812 105.464ZM199.694 104.283H200.073C200.325 104.283 200.417 104.409 200.417 104.616V104.937C200.417 105.143 200.325 105.281 200.073 105.281H199.947V105.797H199.694V104.283ZM199.947 104.49V105.086H200.038C200.13 105.086 200.165 105.04 200.165 104.96V104.616C200.165 104.535 200.13 104.49 200.038 104.49H199.947ZM200.577 105.395V104.662C200.577 104.421 200.692 104.26 200.956 104.26C201.219 104.26 201.345 104.432 201.345 104.662V105.395C201.345 105.625 201.231 105.797 200.956 105.797C200.692 105.808 200.577 105.625 200.577 105.395ZM201.093 105.441V104.627C201.093 104.535 201.059 104.467 200.967 104.467C200.875 104.467 200.841 104.535 200.841 104.627V105.441C200.841 105.533 200.875 105.602 200.967 105.602C201.047 105.59 201.093 105.533 201.093 105.441ZM201.724 104.834V105.785H201.506V104.283H201.758L202.033 105.143V104.283H202.24V105.785H202.022L201.724 104.834ZM202.412 105.464V105.258H202.653V105.464C202.653 105.544 202.687 105.602 202.779 105.602C202.859 105.602 202.893 105.544 202.893 105.464V105.407C202.893 105.315 202.859 105.269 202.779 105.189L202.63 105.04C202.481 104.902 202.423 104.811 202.423 104.639V104.593C202.423 104.409 202.538 104.26 202.779 104.26C203.031 104.26 203.134 104.386 203.134 104.604V104.73H202.905V104.604C202.905 104.512 202.87 104.478 202.79 104.478C202.721 104.478 202.675 104.512 202.675 104.604V104.639C202.675 104.719 202.721 104.776 202.79 104.845L202.951 105.005C203.088 105.143 203.157 105.235 203.157 105.395V105.464C203.157 105.67 203.042 105.82 202.79 105.82C202.503 105.808 202.412 105.659 202.412 105.464ZM203.283 104.283H203.535V105.785H203.283V104.283ZM203.707 104.283H204.074C204.326 104.283 204.407 104.398 204.407 104.616V104.765C204.407 104.891 204.361 104.971 204.258 105.005C204.384 105.04 204.441 105.12 204.441 105.258V105.453C204.441 105.67 204.349 105.785 204.097 105.785H203.707V104.283ZM203.971 104.914H204.063C204.143 104.914 204.177 104.868 204.177 104.788V104.604C204.177 104.524 204.143 104.478 204.051 104.478H203.959L203.971 104.914ZM203.971 105.109V105.579H204.086C204.166 105.579 204.212 105.533 204.212 105.453V105.223C204.212 105.143 204.177 105.097 204.086 105.097H203.971V105.109ZM204.602 104.283H204.854V105.579H205.152V105.785H204.602V104.283ZM205.301 104.283H205.909V104.49H205.553V104.925H205.805V105.132H205.553V105.59H205.909V105.797H205.301V104.283Z" fill="white"/>
<path d="M197.184 107.608V106.874C197.184 106.634 197.298 106.473 197.562 106.473C197.837 106.473 197.917 106.634 197.917 106.851V107.035H197.688V106.84C197.688 106.748 197.654 106.691 197.562 106.691C197.47 106.691 197.436 106.76 197.436 106.851V107.666C197.436 107.757 197.47 107.826 197.562 107.826C197.654 107.826 197.688 107.769 197.688 107.677V107.402H197.917V107.666C197.917 107.883 197.826 108.044 197.562 108.044C197.298 108.021 197.184 107.849 197.184 107.608ZM198.078 107.608V106.874C198.078 106.634 198.193 106.473 198.456 106.473C198.72 106.473 198.846 106.645 198.846 106.874V107.608C198.846 107.838 198.731 108.009 198.456 108.009C198.193 108.021 198.078 107.849 198.078 107.608ZM198.594 107.654V106.84C198.594 106.748 198.559 106.68 198.468 106.68C198.376 106.68 198.342 106.748 198.342 106.84V107.654C198.342 107.746 198.376 107.815 198.468 107.815C198.559 107.803 198.594 107.746 198.594 107.654ZM199.224 107.058V108.009H199.007V106.508H199.259L199.534 107.367V106.508H199.74V108.009H199.523L199.224 107.058ZM199.901 107.677V107.471H200.142V107.677C200.142 107.757 200.176 107.815 200.268 107.815C200.348 107.815 200.382 107.757 200.382 107.677V107.62C200.382 107.528 200.348 107.482 200.268 107.402L200.119 107.253C199.97 107.115 199.912 107.023 199.912 106.851V106.806C199.912 106.622 200.027 106.473 200.268 106.473C200.52 106.473 200.623 106.599 200.623 106.817V106.943H200.394V106.817C200.394 106.725 200.359 106.691 200.279 106.691C200.21 106.691 200.165 106.725 200.165 106.817V106.851C200.165 106.932 200.21 106.989 200.279 107.058L200.44 107.218C200.577 107.356 200.646 107.448 200.646 107.608V107.677C200.646 107.883 200.531 108.032 200.279 108.032C200.004 108.021 199.901 107.872 199.901 107.677ZM201.517 106.496V107.631C201.517 107.86 201.414 108.021 201.162 108.021C200.898 108.021 200.784 107.872 200.784 107.631V106.496H201.036V107.666C201.036 107.757 201.07 107.815 201.162 107.815C201.254 107.815 201.288 107.757 201.288 107.666V106.496H201.517ZM202.389 107.023L202.205 107.998H202.091L201.907 107.023V107.998H201.701V106.496H201.999L202.16 107.345L202.309 106.496H202.63V107.998H202.4V107.023H202.389ZM202.79 106.496H203.168C203.421 106.496 203.512 106.622 203.512 106.829V107.15C203.512 107.356 203.421 107.494 203.168 107.494H203.042V108.009H202.79V106.496ZM203.042 106.702V107.299H203.134C203.226 107.299 203.26 107.253 203.26 107.173V106.829C203.26 106.748 203.226 106.702 203.134 106.702H203.042ZM203.593 106.496H204.269V106.702H204.063V107.998H203.81V106.702H203.604L203.593 106.496ZM204.384 106.496H204.636V107.998H204.384V106.496ZM204.785 107.608V106.874C204.785 106.634 204.9 106.473 205.163 106.473C205.427 106.473 205.553 106.645 205.553 106.874V107.608C205.553 107.838 205.439 108.009 205.163 108.009C204.9 108.021 204.785 107.849 204.785 107.608ZM205.301 107.654V106.84C205.301 106.748 205.267 106.68 205.175 106.68C205.083 106.68 205.049 106.748 205.049 106.84V107.654C205.049 107.746 205.083 107.815 205.175 107.815C205.255 107.803 205.301 107.746 205.301 107.654ZM205.92 107.058V108.009H205.702V106.508H205.954L206.23 107.367V106.508H206.436V108.009H206.218L205.92 107.058Z" fill="white"/>
<path d="M197.149 110.21L197.436 108.708H197.723L198.009 110.21H197.746L197.7 109.935H197.436L197.39 110.21H197.149ZM197.459 109.74H197.665L197.562 109.133L197.459 109.74ZM198.33 109.27V110.222H198.112V108.72H198.365L198.64 109.58V108.72H198.846V110.222H198.628L198.33 109.27ZM199.763 109.11V109.809C199.763 110.038 199.672 110.21 199.397 110.21H199.007V108.708H199.397C199.66 108.708 199.763 108.88 199.763 109.11ZM199.362 110.004C199.465 110.004 199.511 109.947 199.511 109.855V109.064C199.511 108.972 199.477 108.915 199.362 108.915H199.259V110.004H199.362ZM200.153 108.708H200.532C200.784 108.708 200.876 108.835 200.876 109.041V109.362C200.876 109.568 200.784 109.706 200.532 109.706H200.406V110.222H200.153V108.708ZM200.406 108.915V109.511H200.497C200.589 109.511 200.623 109.465 200.623 109.385V109.041C200.623 108.961 200.589 108.915 200.497 108.915H200.406ZM201.265 109.523V110.21H201.013V108.708H201.38C201.632 108.708 201.724 108.835 201.724 109.041V109.236C201.724 109.396 201.667 109.488 201.518 109.523L201.758 110.21H201.495L201.265 109.523ZM201.265 108.915V109.385H201.346C201.437 109.385 201.472 109.339 201.472 109.259V109.041C201.472 108.961 201.437 108.915 201.346 108.915H201.265ZM201.873 109.821V109.087C201.873 108.846 201.988 108.686 202.251 108.686C202.515 108.686 202.641 108.858 202.641 109.087V109.821C202.641 110.05 202.527 110.222 202.251 110.222C201.988 110.233 201.873 110.061 201.873 109.821ZM202.389 109.866V109.052C202.389 108.961 202.355 108.892 202.263 108.892C202.171 108.892 202.137 108.961 202.137 109.052V109.866C202.137 109.958 202.171 110.027 202.263 110.027C202.355 110.016 202.389 109.958 202.389 109.866ZM203.559 109.11V109.809C203.559 110.038 203.467 110.21 203.192 110.21H202.802V108.708H203.192C203.455 108.708 203.559 108.88 203.559 109.11ZM203.157 110.004C203.26 110.004 203.306 109.947 203.306 109.855V109.064C203.306 108.972 203.272 108.915 203.157 108.915H203.054V110.004H203.157ZM204.441 108.708V109.844C204.441 110.073 204.338 110.233 204.086 110.233C203.822 110.233 203.708 110.084 203.708 109.844V108.708H203.96V109.878C203.96 109.97 203.994 110.027 204.086 110.027C204.178 110.027 204.212 109.97 204.212 109.878V108.708H204.441ZM204.59 109.821V109.087C204.59 108.846 204.705 108.686 204.969 108.686C205.244 108.686 205.324 108.846 205.324 109.064V109.247H205.095V109.052C205.095 108.961 205.06 108.903 204.969 108.903C204.877 108.903 204.843 108.972 204.843 109.064V109.878C204.843 109.97 204.877 110.038 204.969 110.038C205.06 110.038 205.095 109.981 205.095 109.889V109.614H205.324V109.878C205.324 110.096 205.232 110.256 204.969 110.256C204.705 110.233 204.59 110.061 204.59 109.821ZM205.45 108.708H206.127V108.915H205.92V110.21H205.668V108.915H205.462L205.45 108.708ZM206.241 108.708H206.494V110.21H206.241V108.708ZM206.643 109.821V109.087C206.643 108.846 206.757 108.686 207.021 108.686C207.285 108.686 207.411 108.858 207.411 109.087V109.821C207.411 110.05 207.296 110.222 207.021 110.222C206.757 110.233 206.643 110.061 206.643 109.821ZM207.159 109.866V109.052C207.159 108.961 207.124 108.892 207.032 108.892C206.941 108.892 206.906 108.961 206.906 109.052V109.866C206.906 109.958 206.941 110.027 207.032 110.027C207.113 110.016 207.159 109.958 207.159 109.866ZM207.766 109.27V110.222H207.548V108.72H207.801L208.076 109.58V108.72H208.282V110.222H208.064L207.766 109.27Z" fill="white"/>
<path d="M221.654 101.362C224.537 101.362 226.874 99.0248 226.874 96.1419C226.874 93.2589 224.537 90.9219 221.654 90.9219C218.771 90.9219 216.434 93.2589 216.434 96.1419C216.434 99.0248 218.771 101.362 221.654 101.362Z" fill="#0A97D9"/>
<path d="M256.036 107.634C268.769 107.634 279.091 97.3123 279.091 84.5794C279.091 71.8465 268.769 61.5244 256.036 61.5244C243.304 61.5244 232.981 71.8465 232.981 84.5794C232.981 97.3123 243.304 107.634 256.036 107.634Z" fill="#56C02B"/>
<path d="M242.363 72.5105V73.6532L243.125 72.8513H243.145V77.8432H244.228V71.3276H243.366L242.363 72.5105ZM246.834 73.3926C246.393 73.3926 246.092 73.5529 245.912 73.8336V72.2097H247.796V71.3276H244.909V74.9964H245.912V74.8561C245.912 74.4751 246.092 74.2546 246.393 74.2546C246.734 74.2546 246.854 74.4751 246.854 74.836V76.3997C246.854 76.7405 246.734 76.9811 246.393 76.9811C246.012 76.9811 245.892 76.7405 245.892 76.3396V75.5176H244.889V76.2594C244.889 77.2417 245.29 77.8833 246.393 77.8833C247.496 77.8833 247.957 77.3019 247.957 76.3997V74.816C247.957 73.8136 247.415 73.3926 246.834 73.3926Z" fill="white"/>
<path d="M253.51 90.4336C253.55 90.4336 253.591 90.4737 253.591 90.5138V92.8594C253.591 92.8995 253.55 92.9396 253.51 92.9396H252.568C252.528 92.9396 252.488 92.8995 252.488 92.8594V90.5138C252.488 90.4737 252.528 90.4336 252.568 90.4336H253.51ZM263.955 93.942H248.298C248.258 93.942 248.218 93.9821 248.218 94.0222V94.9844C248.218 95.0245 248.258 95.0646 248.298 95.0646H263.955C263.995 95.0646 264.036 95.0245 264.036 94.9844V94.0222C264.036 93.9821 263.995 93.942 263.955 93.942ZM263.955 95.8465H248.298C248.258 95.8465 248.218 95.8866 248.218 95.9267V96.889C248.218 96.9291 248.258 96.9692 248.298 96.9692H263.955C263.995 96.9692 264.036 96.9291 264.036 96.889V95.9267C264.036 95.8866 263.995 95.8465 263.955 95.8465ZM260.968 87.8475C260.768 87.6871 260.246 87.3463 259.605 87.3463C259.144 87.3463 258.723 87.5267 258.342 87.8876C258.322 87.9076 258.302 87.9477 258.302 87.9878V88.068C258.302 88.1081 258.322 88.1482 258.342 88.1682C258.382 88.1883 258.402 88.2083 258.462 88.1883H258.482C258.502 88.1682 258.542 88.1682 258.562 88.1482C258.643 88.088 258.863 88.0078 259.184 88.0078C259.525 88.0078 260.166 88.088 260.808 88.6894L260.828 88.7095C260.868 88.7496 260.908 88.7696 260.968 88.7696C261.008 88.7696 261.068 88.7496 261.109 88.7095L261.129 88.6894C261.77 88.1081 262.412 88.0078 262.752 88.0078C263.073 88.0078 263.294 88.088 263.374 88.1482C263.394 88.1682 263.414 88.1883 263.454 88.2083C263.474 88.2083 263.514 88.2284 263.554 88.2083C263.615 88.1883 263.655 88.1482 263.655 88.088V88.0078C263.655 87.9677 263.635 87.9277 263.615 87.9076C263.234 87.5467 262.813 87.3663 262.331 87.3663C261.69 87.3262 261.169 87.6871 260.968 87.8475ZM260.006 81.5925C259.966 81.6126 259.946 81.6326 259.946 81.6727L259.926 81.7329C259.906 81.773 259.926 81.8131 259.946 81.8532C259.966 81.8933 260.006 81.9133 260.046 81.9133H260.066C260.086 81.9133 260.126 81.9133 260.146 81.8933C260.166 81.8933 260.186 81.8732 260.246 81.8732C260.307 81.8732 260.948 81.8933 261.369 82.5949V82.615C261.389 82.6551 261.429 82.6751 261.469 82.6952H261.509C261.53 82.6952 261.57 82.6952 261.59 82.6751H261.61C261.83 82.5548 262.071 82.4947 262.311 82.4947C262.712 82.4947 262.973 82.6551 263.033 82.7152L263.093 82.7754C263.113 82.7754 263.133 82.7954 263.153 82.7954H263.193C263.214 82.7954 263.234 82.7954 263.254 82.7754C263.294 82.7553 263.314 82.7353 263.314 82.6952L263.334 82.6551V82.615C263.334 82.5949 263.334 82.5749 263.314 82.5548C263.013 82.0336 262.572 81.9133 262.251 81.9133C262.011 81.9133 261.81 81.9734 261.69 82.0135C261.55 81.8131 261.189 81.4121 260.627 81.4121C260.407 81.4522 260.206 81.4923 260.006 81.5925ZM256.698 84.0183V84.0985C256.698 84.1386 256.718 84.1787 256.758 84.1988C256.798 84.2188 256.838 84.2188 256.858 84.2188H256.878C256.898 84.1988 256.919 84.1988 256.939 84.1787C256.999 84.1386 257.219 84.0384 257.54 84.0384C257.841 84.0384 258.302 84.1186 258.783 84.4995L258.803 84.5195C258.843 84.5396 258.883 84.5596 258.923 84.5596H258.943C258.983 84.5596 259.044 84.5396 259.064 84.4995L259.084 84.4794C259.605 83.9181 260.166 83.8379 260.467 83.8379C260.667 83.8379 260.828 83.878 260.868 83.9181C260.888 83.9381 260.908 83.9582 260.948 83.9582H261.048C261.109 83.9381 261.149 83.878 261.129 83.8178V83.7577C261.129 83.7176 261.109 83.6976 261.088 83.6575C260.768 83.3968 260.447 83.2565 260.086 83.2565C259.545 83.2565 259.104 83.5773 258.923 83.7377C258.763 83.6174 258.362 83.3968 257.881 83.3968C257.46 83.3968 257.099 83.5773 256.778 83.9181C256.698 83.9381 256.698 83.9782 256.698 84.0183ZM248.759 85.2613C248.759 84.319 249.521 83.5572 250.463 83.5572H250.563C250.644 82.3744 251.646 81.4322 252.849 81.4322C254.112 81.4322 255.154 82.4546 255.154 83.7377C255.154 84.0985 255.074 84.4393 254.914 84.74C256.056 85.0007 256.919 86.0231 256.919 87.246C256.919 88.6694 255.776 89.8121 254.352 89.8121C254.252 89.8121 250.924 89.7921 250.924 89.7921C249.922 89.7921 249.1 88.9701 249.1 87.9677C249.1 87.4866 249.28 87.0455 249.601 86.7248C249.12 86.4441 248.759 85.9028 248.759 85.2613Z" fill="white"/>
<path d="M250.302 71.3276H250.743V73.593H251.264V73.9539H250.302V71.3276ZM251.525 71.3276H251.966V73.9539H251.525V71.3276ZM252.286 71.3276H253.329V71.6885H252.728V72.4503H253.169V72.8112H252.728V73.9739H252.286V71.3276ZM253.57 71.3276H254.632V71.6885H254.011V72.4503H254.452V72.8112H254.011V73.6131H254.632V73.9739H253.57V71.3276Z" fill="white"/>
<path d="M250.302 77.162V75.8789C250.302 75.4579 250.502 75.1772 250.963 75.1772C251.424 75.1772 251.645 75.478 251.645 75.8789V77.162C251.645 77.5629 251.445 77.8637 250.963 77.8637C250.502 77.8637 250.302 77.5629 250.302 77.162ZM251.204 77.2221V75.7987C251.204 75.6383 251.144 75.5181 250.983 75.5181C250.823 75.5181 250.763 75.6383 250.763 75.7987V77.2221C250.763 77.3825 250.823 77.5028 250.983 77.5028C251.124 77.5028 251.204 77.3825 251.204 77.2221ZM252.266 76.1796V77.8436H251.886V75.2173H252.327L252.808 76.7209V75.2173H253.169V77.8436H252.788L252.266 76.1796ZM254.131 75.1973H254.572V77.4627H255.093V77.8236H254.131V75.1973ZM255.213 77.8436L255.715 75.2173H256.216L256.717 77.8436H256.256L256.176 77.3625H255.715L255.634 77.8436H255.213ZM255.775 77.0016H256.136L255.955 75.9391L255.775 77.0016ZM257.278 76.1796V77.8436H256.897V75.2173H257.339L257.82 76.7209V75.2173H258.181V77.8436H257.8L257.278 76.1796ZM259.804 75.919V77.1419C259.804 77.5429 259.644 77.8436 259.163 77.8436H258.481V75.2173H259.163C259.624 75.1973 259.804 75.498 259.804 75.919ZM259.103 77.4827C259.283 77.4827 259.363 77.3825 259.363 77.2221V75.8388C259.363 75.6784 259.303 75.5782 259.103 75.5782H258.922V77.4827H259.103Z" fill="white"/>
<path d="M251.418 53.7824C257.167 53.7824 261.828 49.1217 261.828 43.3724C261.828 37.6231 257.167 32.9624 251.418 32.9624C245.669 32.9624 241.008 37.6231 241.008 43.3724C241.008 49.1217 245.669 53.7824 251.418 53.7824Z" fill="#00689D"/>
<path d="M245.325 37.9231V38.439H245.334L245.678 38.0769V40.3309H246.176V37.389H245.778L245.325 37.9231ZM247.905 39.6249V39.1904C247.905 38.7106 247.715 38.4662 247.362 38.4662C247.154 38.4662 247.027 38.5658 246.955 38.7015V38.0679C246.955 37.8868 247.009 37.7601 247.19 37.7601C247.371 37.7601 247.416 37.8597 247.416 38.0498V38.2489H247.869V38.095C247.869 37.6605 247.724 37.3618 247.181 37.3618C246.665 37.3618 246.466 37.6967 246.466 38.1584V39.5887C246.466 40.0413 246.665 40.3762 247.181 40.3762C247.697 40.3671 247.905 40.0775 247.905 39.6249ZM247.416 39.6701C247.416 39.8602 247.344 39.9688 247.181 39.9688C247.018 39.9688 246.955 39.8602 246.955 39.6701V39.136C246.964 38.9731 247.036 38.8645 247.19 38.8645C247.362 38.8645 247.425 38.9641 247.425 39.1632L247.416 39.6701Z" fill="white"/>
<path d="M248.856 37.3889H249.155C249.354 37.3889 249.427 37.4885 249.427 37.6514V37.9049C249.427 38.0678 249.354 38.1765 249.155 38.1765H249.056V38.5838H248.856V37.3889ZM249.056 37.5519V38.0226H249.128C249.2 38.0226 249.228 37.9864 249.228 37.923V37.6514C249.228 37.5881 249.2 37.5519 249.128 37.5519H249.056ZM249.526 37.3889H250.006V37.5519H249.725V37.8959H249.925V38.0588H249.725V38.4209H250.006V38.5838H249.526V37.3889ZM250.088 38.5838L250.314 37.398H250.54L250.766 38.5838H250.558L250.522 38.3666H250.314L250.278 38.5838H250.088ZM250.341 38.2036H250.504L250.422 37.7239L250.341 38.2036ZM250.839 38.276V37.6967C250.839 37.5066 250.929 37.3799 251.138 37.3799C251.355 37.3799 251.418 37.5066 251.418 37.6786V37.8234H251.237V37.6696C251.237 37.5971 251.21 37.5519 251.138 37.5519C251.065 37.5519 251.038 37.6062 251.038 37.6786V38.3213C251.038 38.3937 251.065 38.448 251.138 38.448C251.21 38.448 251.237 38.4028 251.237 38.3304V38.1131H251.418V38.3213C251.418 38.4933 251.346 38.62 251.138 38.62C250.929 38.5929 250.839 38.4571 250.839 38.276ZM251.545 37.3889H252.025V37.5519H251.744V37.8959H251.943V38.0588H251.744V38.4209H252.025V38.5838H251.545V37.3889ZM252.351 38.4028L252.251 38.6743H252.142L252.17 38.3937L252.351 38.4028ZM253.22 37.3889V38.3123C253.22 38.4842 253.147 38.5929 252.948 38.5929C252.74 38.5929 252.686 38.4752 252.686 38.3304V38.095H252.876V38.3394C252.876 38.4028 252.894 38.4299 252.948 38.4299C253.002 38.4299 253.02 38.3937 253.02 38.3304V37.3889H253.22ZM253.926 37.3889V38.2851C253.926 38.4661 253.844 38.5929 253.645 38.5929C253.437 38.5929 253.346 38.4752 253.346 38.2851V37.3889H253.545V38.3123C253.545 38.3847 253.573 38.4299 253.645 38.4299C253.717 38.4299 253.745 38.3847 253.745 38.3123V37.3889H253.926ZM254.052 38.3213V38.1674H254.242V38.3304C254.242 38.3937 254.27 38.439 254.342 38.439C254.405 38.439 254.433 38.3937 254.433 38.3304V38.2851C254.433 38.2127 254.405 38.1765 254.342 38.1131L254.224 37.9954C254.107 37.8868 254.061 37.8144 254.061 37.6786V37.6424C254.061 37.4976 254.152 37.3799 254.342 37.3799C254.541 37.3799 254.623 37.4795 254.623 37.6514V37.751H254.442V37.6514C254.442 37.579 254.414 37.5519 254.351 37.5519C254.297 37.5519 254.261 37.579 254.261 37.6514V37.6786C254.261 37.742 254.297 37.7872 254.351 37.8415L254.478 37.9683C254.586 38.0769 254.641 38.1493 254.641 38.276V38.3304C254.641 38.4933 254.55 38.611 254.351 38.611C254.125 38.5929 254.052 38.4842 254.052 38.3213ZM254.722 37.3889H255.256V37.5519H255.093V38.5748H254.894V37.5519H254.722V37.3889ZM255.365 37.3889H255.564V38.5748H255.365V37.3889ZM255.7 38.276V37.6967C255.7 37.5066 255.79 37.3799 255.999 37.3799C256.216 37.3799 256.279 37.5066 256.279 37.6786V37.8234H256.098V37.6696C256.098 37.5971 256.071 37.5519 255.999 37.5519C255.926 37.5519 255.899 37.6062 255.899 37.6786V38.3213C255.899 38.3937 255.926 38.448 255.999 38.448C256.071 38.448 256.098 38.4028 256.098 38.3304V38.1131H256.279V38.3213C256.279 38.4933 256.207 38.62 255.999 38.62C255.79 38.5929 255.7 38.4571 255.7 38.276ZM256.406 37.3889H256.886V37.5519H256.605V37.8959H256.804V38.0588H256.605V38.4209H256.886V38.5838H256.406V37.3889Z" fill="white"/>
<path d="M248.82 40.367L249.047 39.1812H249.273L249.499 40.367H249.291L249.255 40.1498H249.047L249.01 40.367H248.82ZM249.074 39.9868H249.237L249.155 39.5071L249.074 39.9868ZM249.771 39.6157V40.367H249.599V39.1812H249.798L250.015 39.8601V39.1812H250.178V40.367H250.006L249.771 39.6157ZM250.911 39.498V40.0502C250.911 40.2312 250.839 40.367 250.622 40.367H250.314V39.1812H250.622C250.839 39.1721 250.911 39.3079 250.911 39.498ZM250.604 40.2041C250.685 40.2041 250.721 40.1588 250.721 40.0864V39.4618C250.721 39.3894 250.694 39.3441 250.604 39.3441H250.522V40.2041H250.604ZM251.237 40.1136V39.9506H251.427V40.1136C251.427 40.1769 251.454 40.2222 251.527 40.2222C251.59 40.2222 251.617 40.1769 251.617 40.1136V40.0683C251.617 39.9959 251.59 39.9597 251.527 39.8963L251.409 39.7786C251.292 39.67 251.246 39.5976 251.246 39.4618V39.4256C251.246 39.2808 251.337 39.1631 251.527 39.1631C251.726 39.1631 251.808 39.2627 251.808 39.4347V39.5342H251.626V39.4347C251.626 39.3622 251.599 39.3351 251.536 39.3351C251.482 39.3351 251.445 39.3622 251.445 39.4347V39.4618C251.445 39.5252 251.482 39.5704 251.536 39.6247L251.663 39.7515C251.771 39.8601 251.826 39.9325 251.826 40.0593V40.1136C251.826 40.2765 251.735 40.3942 251.536 40.3942C251.319 40.3761 251.237 40.2675 251.237 40.1136ZM251.889 39.1721H252.423V39.3351H252.26V40.358H252.061V39.3351H251.898V39.1721H251.889ZM252.731 39.8239V40.367H252.532V39.1812H252.821C253.021 39.1812 253.093 39.2808 253.093 39.4437V39.5976C253.093 39.7243 253.048 39.7967 252.93 39.8239L253.12 40.367H252.912L252.731 39.8239ZM252.731 39.3351V39.7062H252.794C252.867 39.7062 252.894 39.67 252.894 39.6066V39.4347C252.894 39.3713 252.867 39.3351 252.794 39.3351H252.731ZM253.22 40.0593V39.4799C253.22 39.2898 253.31 39.1631 253.518 39.1631C253.727 39.1631 253.826 39.2989 253.826 39.4799V40.0593C253.826 40.2403 253.736 40.3761 253.518 40.3761C253.31 40.3761 253.22 40.2403 253.22 40.0593ZM253.627 40.0864V39.4437C253.627 39.3713 253.6 39.317 253.527 39.317C253.455 39.317 253.428 39.3713 253.428 39.4437V40.0864C253.428 40.1588 253.455 40.2131 253.527 40.2131C253.591 40.2131 253.627 40.1588 253.627 40.0864ZM254.125 39.6157V40.367H253.953V39.1812H254.152L254.369 39.8601V39.1812H254.532V40.367H254.36L254.125 39.6157ZM254.976 39.7334H255.256V40.367H255.112V40.2403C255.084 40.3308 255.03 40.3851 254.921 40.3851C254.75 40.3851 254.668 40.2493 254.668 40.0683V39.489C254.668 39.2989 254.759 39.1721 254.967 39.1721C255.184 39.1721 255.256 39.2989 255.256 39.4709V39.5795H255.075V39.4618C255.075 39.3894 255.048 39.3441 254.976 39.3441C254.903 39.3441 254.876 39.3984 254.876 39.4709V40.1136C254.876 40.186 254.903 40.2403 254.976 40.2403C255.039 40.2403 255.075 40.2041 255.075 40.1226V39.8873H254.985V39.7334H254.976Z" fill="white"/>
<path d="M248.856 40.8829H249.056V42.0687H248.856V40.8829ZM249.363 41.3264V42.0777H249.2V40.8829H249.4L249.617 41.5618V40.8829H249.78V42.0687H249.608L249.363 41.3264ZM249.897 41.8152V41.6523H250.088V41.8152C250.088 41.8786 250.115 41.9239 250.187 41.9239C250.25 41.9239 250.278 41.8786 250.278 41.8152V41.77C250.278 41.6975 250.25 41.6613 250.187 41.598L250.069 41.4803C249.952 41.3717 249.906 41.2993 249.906 41.1635V41.1273C249.906 40.9824 249.997 40.8647 250.187 40.8647C250.386 40.8647 250.468 40.9643 250.468 41.1363V41.2359H250.287V41.1363C250.287 41.0639 250.26 41.0367 250.196 41.0367C250.142 41.0367 250.106 41.0639 250.106 41.1363V41.1635C250.106 41.2268 250.142 41.2721 250.196 41.3264L250.323 41.4531C250.432 41.5618 250.486 41.6342 250.486 41.7609V41.8152C250.486 41.9782 250.395 42.0958 250.196 42.0958C249.979 42.0868 249.897 41.9691 249.897 41.8152ZM250.549 40.8829H251.083V41.0458H250.92V42.0687H250.721V41.0458H250.558L250.549 40.8829ZM251.192 40.8829H251.391V42.0687H251.192V40.8829ZM251.5 40.8829H252.034V41.0458H251.871V42.0687H251.672V41.0458H251.509V40.8829H251.5ZM252.722 40.8829V41.779C252.722 41.9601 252.64 42.0868 252.441 42.0868C252.233 42.0868 252.142 41.9691 252.142 41.779V40.8829H252.342V41.8062C252.342 41.8786 252.369 41.9239 252.441 41.9239C252.514 41.9239 252.541 41.8786 252.541 41.8062V40.8829H252.722ZM252.83 40.8829H253.364V41.0458H253.201V42.0687H253.002V41.0458H252.839V40.8829H252.83ZM253.473 40.8829H253.672V42.0687H253.473V40.8829ZM253.808 41.7609V41.1816C253.808 40.9915 253.898 40.8647 254.107 40.8647C254.315 40.8647 254.414 41.0005 254.414 41.1816V41.7609C254.414 41.942 254.324 42.0777 254.107 42.0777C253.898 42.0868 253.808 41.951 253.808 41.7609ZM254.215 41.7971V41.1544C254.215 41.082 254.188 41.0277 254.116 41.0277C254.043 41.0277 254.016 41.082 254.016 41.1544V41.7971C254.016 41.8695 254.043 41.9239 254.116 41.9239C254.179 41.9148 254.215 41.8695 254.215 41.7971ZM254.713 41.3264V42.0777H254.541V40.8829H254.74L254.958 41.5618V40.8829H255.121V42.0687H254.949L254.713 41.3264ZM255.247 41.8152V41.6523H255.437V41.8152C255.437 41.8786 255.465 41.9239 255.537 41.9239C255.6 41.9239 255.627 41.8786 255.627 41.8152V41.77C255.627 41.6975 255.6 41.6613 255.537 41.598L255.419 41.4803C255.302 41.3717 255.256 41.2993 255.256 41.1635V41.1273C255.256 40.9824 255.347 40.8647 255.537 40.8647C255.736 40.8647 255.818 40.9643 255.818 41.1363V41.2359H255.637V41.1363C255.637 41.0639 255.609 41.0367 255.546 41.0367C255.492 41.0367 255.455 41.0639 255.455 41.1363V41.1635C255.455 41.2268 255.492 41.2721 255.546 41.3264L255.673 41.4531C255.781 41.5618 255.836 41.6342 255.836 41.7609V41.8152C255.836 41.9782 255.745 42.0958 255.546 42.0958C255.329 42.0868 255.247 41.9691 255.247 41.8152Z" fill="white"/>
<path d="M253.618 43.3363C253.618 43.3363 253.491 43.4992 253.527 43.6622C253.564 43.8251 253.745 43.9156 253.745 43.9156C253.745 43.9156 253.871 43.7527 253.835 43.5898C253.799 43.4268 253.618 43.3363 253.618 43.3363ZM253.419 44.2596C253.419 44.2596 253.545 44.0967 253.509 43.9338C253.473 43.7708 253.292 43.6803 253.292 43.6803C253.292 43.6803 253.165 43.8432 253.201 43.9971C253.238 44.1691 253.419 44.2596 253.419 44.2596ZM253.926 44.0876C253.926 44.0876 254.052 44.2144 254.206 44.2053C254.351 44.1963 254.46 44.0424 254.46 44.0424C254.46 44.0424 254.333 43.9156 254.179 43.9247C254.034 43.9337 253.926 44.0876 253.926 44.0876ZM254.134 43.3906C254.016 43.5083 254.034 43.7256 254.034 43.7256C254.034 43.7256 254.242 43.7436 254.369 43.626C254.487 43.5083 254.469 43.291 254.469 43.291C254.469 43.291 254.251 43.2729 254.134 43.3906ZM253.871 44.5764C254.016 44.5946 254.152 44.4678 254.152 44.4678C254.152 44.4678 254.052 44.3139 253.907 44.2958C253.763 44.2777 253.627 44.4045 253.627 44.4045C253.627 44.4045 253.726 44.5583 253.871 44.5764ZM253.998 47.1201H252.903C252.821 47.1201 252.749 47.1925 252.749 47.274C252.749 47.3555 252.821 47.4279 252.903 47.4279H253.998C254.079 47.4279 254.152 47.3555 254.152 47.274C254.161 47.1925 254.089 47.1201 253.998 47.1201ZM253.998 48.84H252.903C252.821 48.84 252.749 48.9124 252.749 48.9939C252.749 49.0754 252.821 49.1478 252.903 49.1478H253.998C254.079 49.1478 254.152 49.0754 254.152 48.9939C254.161 48.9034 254.089 48.84 253.998 48.84ZM249.065 46.749C249.037 46.7399 249.01 46.7309 248.992 46.7309C248.992 46.7309 249.019 46.7399 249.065 46.749Z" fill="white"/>
<path d="M253.961 47.5455H252.947C252.902 47.5455 252.857 47.5818 252.857 47.6361V47.9438L252.196 48.0163L251.227 47.9982V47.4007C251.354 47.3826 251.481 47.3555 251.617 47.3192C252.549 47.0567 252.757 46.2873 252.73 45.7532C252.712 45.2101 252.884 45.0019 253.137 44.9023C253.21 44.8751 253.282 44.857 253.346 44.848C253.346 44.9838 253.373 45.1376 253.436 45.3187C253.454 45.3187 253.481 45.3187 253.499 45.3097C253.436 45.1195 253.409 44.9657 253.409 44.8299C253.536 44.8118 253.626 44.8208 253.626 44.8208C253.626 44.8208 253.536 44.7756 253.418 44.6669C253.463 44.4135 253.617 44.2505 253.771 44.0876C253.862 43.9971 253.952 43.9066 254.015 43.7979L253.961 43.7617C253.898 43.8703 253.807 43.9518 253.726 44.0423C253.572 44.1962 253.418 44.3592 253.364 44.6217C253.309 44.5764 253.255 44.5221 253.201 44.4587C252.974 44.1962 252.676 44.3863 252.25 44.7846C251.825 45.1739 251.3 45.192 250.775 44.6579C250.087 43.9518 249.489 43.9609 249.082 43.9971C249.363 44.1148 249.462 44.3773 249.607 45.0471C249.752 45.7442 250.132 46.061 250.648 46.1063C250.358 46.2058 250.349 46.3688 249.969 46.6313C249.67 46.8395 249.254 46.7761 249.082 46.7309C249.399 46.8304 249.761 47.1563 250.096 47.274C250.286 47.3373 250.494 47.3826 250.702 47.4007V47.971L248.964 47.9348V48.3331L252.214 48.2607L252.875 48.3331V48.6409C252.875 48.6861 252.911 48.7314 252.965 48.7314H253.979C254.024 48.7314 254.07 48.6952 254.07 48.6409V47.627C254.052 47.5818 254.006 47.5455 253.961 47.5455ZM250.847 47.4188C250.92 47.4188 250.992 47.4188 251.064 47.4098V47.98L250.847 47.971V47.4188ZM248.847 48.2697C248.847 48.3512 248.792 48.4236 248.72 48.4236H248.638C248.566 48.4236 248.512 48.3602 248.512 48.2697V47.9982C248.512 47.9167 248.566 47.8443 248.638 47.8443H248.72C248.792 47.8443 248.847 47.9076 248.847 47.9982V48.2697Z" fill="white"/>
<path d="M271.59 57.3831C272.819 57.3831 273.815 56.3869 273.815 55.1581C273.815 53.9293 272.819 52.9331 271.59 52.9331C270.361 52.9331 269.365 53.9293 269.365 55.1581C269.365 56.3869 270.361 57.3831 271.59 57.3831Z" fill="#19486A"/>
</svg>
