<svg width="644" height="303" viewBox="0 0 644 303" fill="none" xmlns="http://www.w3.org/2000/svg">
<path d="M26.1927 135.196C40.3678 135.196 51.859 123.705 51.859 109.53C51.859 95.355 40.3678 83.8638 26.1927 83.8638C12.0176 83.8638 0.526367 95.355 0.526367 109.53C0.526367 123.705 12.0176 135.196 26.1927 135.196Z" fill="#E5243B"/>
<path d="M13.4038 96.2958H13.4261V101.831H14.6313V94.5996H13.6716L12.5557 95.9164V97.1886L13.4038 96.2958ZM37.6863 109.709C38.2442 109.709 38.6683 109.263 38.6683 108.705C38.6683 108.147 38.2219 107.701 37.6863 107.701C37.1283 107.701 36.6819 108.147 36.6819 108.705C36.6819 109.263 37.1283 109.709 37.6863 109.709ZM38.8468 110.089H36.5257C35.8561 110.156 35.3205 110.714 35.3205 111.405V114.151C35.3205 114.351 35.499 114.53 35.6999 114.53C35.9231 114.53 36.0793 114.351 36.0793 114.151V111.785C36.0793 111.696 36.1016 111.584 36.2579 111.584C36.3695 111.584 36.3918 111.696 36.3918 111.785V118.882C36.3918 119.195 36.6373 119.44 36.9497 119.44C37.2622 119.44 37.5077 119.195 37.5077 118.882V114.776C37.5077 114.731 37.53 114.619 37.6639 114.619C37.7978 114.619 37.8202 114.731 37.8202 114.776V118.86C37.8202 119.172 38.0657 119.418 38.3781 119.418C38.6906 119.418 38.9361 119.172 38.9361 118.86V111.763C38.9361 111.696 38.9584 111.562 39.07 111.562C39.2262 111.562 39.2486 111.673 39.2486 111.763V114.128C39.2486 114.329 39.4271 114.508 39.628 114.508C39.8512 114.508 40.0074 114.329 40.0074 114.128V111.405C40.052 110.714 39.5164 110.133 38.8468 110.089ZM29.8302 110.178C30.3435 110.178 30.7675 109.754 30.7675 109.241C30.7675 108.727 30.3435 108.303 29.8302 108.303C29.3169 108.303 28.8928 108.727 28.8928 109.241C28.8928 109.754 29.3169 110.178 29.8302 110.178ZM30.9461 111.896C31.08 111.852 31.1023 112.03 31.1023 112.03L31.7272 114.151C31.7272 114.151 31.8388 114.597 32.2405 114.485C32.6423 114.374 32.5084 113.905 32.5084 113.905L31.7272 111.361C31.7272 111.361 31.4371 110.624 30.8345 110.624H28.8259C28.201 110.624 27.9331 111.361 27.9331 111.361L27.152 113.905C27.152 113.905 27.0181 114.374 27.4198 114.485C27.8215 114.597 27.9331 114.151 27.9331 114.151L28.5581 112.03C28.5581 112.03 28.6027 111.874 28.7143 111.896C28.8482 111.941 28.7812 112.097 28.7812 112.097L27.6876 116.092H28.7143V118.949C28.7143 119.217 28.9375 119.44 29.2053 119.44C29.4731 119.44 29.6963 119.217 29.6963 118.949V116.092H29.9641V118.949C29.9641 119.217 30.1873 119.44 30.4551 119.44C30.7229 119.44 30.9461 119.217 30.9461 118.949V116.092H31.9727L30.8791 112.097C30.8791 112.097 30.8345 111.941 30.9461 111.896ZM24.1836 110.178C24.697 110.178 25.121 109.754 25.121 109.241C25.121 108.727 24.697 108.303 24.1836 108.303C23.6703 108.303 23.2462 108.727 23.2462 109.241C23.2462 109.754 23.6703 110.178 24.1836 110.178ZM26.0807 111.361C26.0807 111.361 25.8129 110.624 25.188 110.624H23.1793C22.5544 110.624 22.2865 111.361 22.2865 111.361L21.5054 113.905C21.5054 113.905 21.4831 113.972 21.4831 114.061C21.4384 113.994 21.3492 113.95 21.2599 113.95C21.1483 113.95 21.059 113.994 21.0144 114.084C20.9921 114.106 20.635 114.753 20.5011 114.865C20.3672 114.999 20.2556 114.976 20.2556 114.976H19.3182C19.3182 114.976 19.2066 114.999 19.0727 114.865C18.9611 114.753 18.5817 114.084 18.5594 114.084C18.5147 113.994 18.4254 113.95 18.3138 113.95C18.2246 113.95 18.1353 113.994 18.0907 114.084V111.405C18.0907 110.714 17.555 110.156 16.8855 110.089H14.5643C13.8948 110.156 13.3591 110.714 13.3591 111.405V114.151C13.3591 114.307 13.4484 114.418 13.56 114.485C13.56 114.485 13.5377 114.508 13.5377 114.53L12.6449 119.217C12.6226 119.306 12.6896 119.373 12.7565 119.395H12.7788C12.8458 119.395 12.9128 119.351 12.9128 119.284L13.8055 114.597V114.552C13.9841 114.508 14.0956 114.352 14.0956 114.173V111.807C14.0956 111.718 14.118 111.606 14.2742 111.606C14.3858 111.606 14.4081 111.718 14.4081 111.807V118.904C14.4081 119.217 14.6536 119.462 14.9661 119.462C15.2785 119.462 15.524 119.217 15.524 118.904V114.776C15.524 114.731 15.5463 114.619 15.6803 114.619C15.8142 114.619 15.8365 114.731 15.8365 114.776V118.86C15.8365 119.172 16.082 119.418 16.3945 119.418C16.7069 119.418 16.9524 119.172 16.9524 118.86V111.763C16.9524 111.696 16.9747 111.562 17.0863 111.562C17.2426 111.562 17.2649 111.673 17.2649 111.763V114.128C17.2649 114.329 17.4434 114.508 17.6443 114.508C17.8005 114.508 17.9344 114.418 18.0014 114.285C18.0014 114.307 18.0237 114.329 18.0237 114.329L18.8049 115.758C18.8049 115.758 18.8495 115.847 18.8495 115.936V116.226L18.4254 117.766H18.8495V119.016C18.8495 119.239 19.028 119.395 19.2289 119.395C19.4521 119.395 19.6083 119.217 19.6083 119.016V117.811V117.766H19.8315V119.016C19.8315 119.239 20.0101 119.395 20.2109 119.395C20.4341 119.395 20.5903 119.217 20.5903 119.016V117.766H21.0144L20.5903 116.226V115.958C20.5903 115.869 20.635 115.78 20.635 115.78L21.3715 114.463C21.3715 114.463 21.4161 114.374 21.4384 114.285C21.4831 114.374 21.55 114.441 21.6616 114.485C22.0634 114.597 22.175 114.151 22.175 114.151L22.7999 112.03C22.7999 112.03 22.8445 111.874 22.9561 111.896C23.09 111.941 23.0231 112.097 23.0231 112.097L21.9295 116.092H22.9561V118.949C22.9561 119.217 23.1793 119.44 23.4471 119.44C23.7149 119.44 23.9381 119.217 23.9381 118.949V116.092H24.2059V118.949C24.2059 119.217 24.4291 119.44 24.697 119.44C24.9648 119.44 25.188 119.217 25.188 118.949V116.092H26.2146L25.121 112.097C25.121 112.097 25.0764 111.919 25.188 111.896C25.3219 111.852 25.3442 112.03 25.3442 112.03L25.9691 114.151C25.9691 114.151 26.0807 114.597 26.4824 114.485C26.8842 114.374 26.7503 113.905 26.7503 113.905L26.0807 111.361ZM33.9367 114.485C34.3608 114.485 34.7179 114.128 34.7179 113.704C34.7179 113.28 34.3608 112.923 33.9367 112.923C33.5127 112.923 33.1556 113.28 33.1556 113.704C33.1556 114.151 33.4904 114.485 33.9367 114.485ZM35.7892 116.717C35.7892 116.695 35.2982 115.49 35.2312 115.311C35.0527 114.798 34.7402 114.798 34.4277 114.798H33.9367H33.3341C32.9324 114.82 32.7985 115.021 32.3521 116.182C32.2852 116.338 32.062 116.896 32.062 116.918C32.0173 117.007 31.995 117.208 32.1736 117.298C32.3968 117.387 32.5084 117.186 32.5084 117.186L32.9324 115.825C32.9324 115.825 32.9994 115.735 32.9994 115.825V119.016C32.9994 119.239 33.1779 119.418 33.4011 119.418C33.6243 119.418 33.8028 119.239 33.8028 119.016V117.744C33.8028 117.744 33.7805 117.565 33.9144 117.565C34.0483 117.565 34.026 117.744 34.026 117.744V119.016C34.026 119.239 34.2046 119.418 34.4277 119.418C34.6509 119.418 34.8295 119.239 34.8295 119.016V115.825C34.8295 115.735 34.8741 115.802 34.8741 115.802L35.2089 116.74C35.2089 116.74 35.3428 117.164 35.3874 117.164C35.5437 117.231 35.7222 117.164 35.7669 117.007C35.8561 116.918 35.8338 116.807 35.7892 116.717ZM15.7249 109.709C16.2829 109.709 16.7292 109.263 16.7292 108.705C16.7292 108.147 16.2829 107.701 15.7249 107.701C15.1669 107.701 14.7429 108.147 14.7429 108.705C14.7429 109.263 15.1893 109.709 15.7249 109.709Z" fill="white"/>
<path d="M19.7881 114.484C20.2121 114.484 20.5692 114.127 20.5692 113.703C20.5692 113.279 20.2121 112.922 19.7881 112.922C19.364 112.922 19.0069 113.279 19.0069 113.703C19.0069 114.15 19.364 114.484 19.7881 114.484ZM19.1408 95.6252V97.4776H18.7168V94.5539H19.2078L19.7434 96.2278V94.5539H20.1452V97.4776H19.7211L19.1408 95.6252ZM20.48 96.7188V95.2904C20.48 94.8217 20.7031 94.5093 21.2165 94.5093C21.7298 94.5093 21.9753 94.8441 21.9753 95.2904V96.7188C21.9753 97.1652 21.7521 97.5 21.2165 97.5C20.7031 97.5 20.48 97.1652 20.48 96.7188ZM21.4843 96.7858V95.2012C21.4843 95.0226 21.4173 94.8887 21.2388 94.8887C21.0602 94.8887 20.9933 95.0226 20.9933 95.2012V96.7858C20.9933 96.9643 21.0602 97.0982 21.2388 97.0982C21.395 97.0982 21.4843 96.9643 21.4843 96.7858ZM18.7391 98.8837H19.4756C19.9666 98.8837 20.1452 99.1292 20.1452 99.531V100.156C20.1452 100.558 19.9666 100.825 19.4756 100.825H19.2301V101.83H18.7391V98.8837ZM19.2301 99.2854V100.446H19.4087C19.5872 100.446 19.6542 100.357 19.6542 100.201V99.531C19.6542 99.3747 19.5872 99.2854 19.4087 99.2854H19.2301ZM20.4353 101.071V99.6425C20.4353 99.1739 20.6585 98.8614 21.1718 98.8614C21.6852 98.8614 21.9307 99.1962 21.9307 99.6425V101.071C21.9307 101.517 21.7075 101.852 21.1718 101.852C20.6585 101.852 20.4353 101.517 20.4353 101.071ZM21.4397 101.138V99.5533C21.4397 99.3747 21.3727 99.2408 21.1942 99.2408C21.0156 99.2408 20.9487 99.3747 20.9487 99.5533V101.138C20.9487 101.316 21.0156 101.45 21.1942 101.45C21.3504 101.45 21.4397 101.316 21.4397 101.138ZM23.7608 98.8837L23.2028 101.807H22.6672L22.1092 98.8837H22.6002L22.935 100.937L23.2921 98.8837H23.7608ZM24.0063 98.8837H25.1892V99.2854H24.4973V100.134H24.9883V100.535H24.4973V101.428H25.1892V101.83H24.0063V98.8837ZM25.9703 100.468V101.807H25.4793V98.8837H26.1935C26.6845 98.8837 26.8631 99.1292 26.8631 99.531V99.9104C26.8631 100.223 26.7515 100.401 26.4613 100.468L26.93 101.807H26.4167L25.9703 100.468ZM25.9703 99.2854V100.201H26.1266C26.3051 100.201 26.3721 100.111 26.3721 99.955V99.531C26.3721 99.3747 26.3051 99.2854 26.1266 99.2854H25.9703ZM27.0863 98.8837H28.403V99.2854H28.0013V101.83H27.5103V99.3078H27.1086L27.0863 98.8837ZM29.6306 100.692V101.807H29.1396V100.692L28.5816 98.8837H29.0949L29.3851 99.9996L29.6752 98.8837H30.1439L29.6306 100.692Z" fill="white"/>
<path d="M52.853 184.855C63.0316 184.855 71.2831 176.603 71.2831 166.425C71.2831 156.246 63.0316 147.995 52.853 147.995C42.6743 147.995 34.4229 156.246 34.4229 166.425C34.4229 176.603 42.6743 184.855 52.853 184.855Z" fill="#DDA63A"/>
<path d="M80.6671 134.684C87.1339 134.684 92.3762 129.442 92.3762 122.975C92.3762 116.508 87.1339 111.266 80.6671 111.266C74.2003 111.266 68.958 116.508 68.958 122.975C68.958 129.442 74.2003 134.684 80.6671 134.684Z" fill="#4C9F38"/>
<path d="M92.9524 159.938C95.371 159.938 97.3316 157.977 97.3316 155.559C97.3316 153.14 95.371 151.18 92.9524 151.18C90.5339 151.18 88.5732 153.14 88.5732 155.559C88.5732 157.977 90.5339 159.938 92.9524 159.938Z" fill="#C5192D"/>
<path d="M127.944 241.015C135.031 241.015 140.777 235.269 140.777 228.182C140.777 221.094 135.031 215.349 127.944 215.349C120.856 215.349 115.11 221.094 115.11 228.182C115.11 235.269 120.856 241.015 127.944 241.015Z" fill="#FF3A21"/>
<path d="M97.4008 208.082C105.594 208.082 112.236 201.44 112.236 193.247C112.236 185.054 105.594 178.412 97.4008 178.412C89.2075 178.412 82.5654 185.054 82.5654 193.247C82.5654 201.44 89.2075 208.082 97.4008 208.082Z" fill="#26BDE2"/>
<path d="M228.131 235.445C292.798 235.445 345.222 183.022 345.222 118.354C345.222 53.6866 292.798 1.26318 228.131 1.26318C163.463 1.26318 111.04 53.6866 111.04 118.354C111.04 183.022 163.463 235.445 228.131 235.445Z" fill="#FCC30B"/>
<path d="M163.783 55.2266H172.336L164.903 83.7357H170.401L177.732 55.8375V50.7466H163.783V55.2266Z" fill="white"/>
<path d="M193.408 64.0848L195.954 50.7466H198.499L201.045 64.0848H198.703L198.295 61.6411H195.954L195.546 64.0848H193.408ZM196.259 59.8084H198.092L197.175 54.4121L196.259 59.8084ZM201.859 50.7466H207.154V52.5793H204.099V56.4484H206.339V58.2812H204.099V64.1866H201.859V50.7466ZM208.07 50.7466H213.365V52.5793H210.31V56.4484H212.55V58.2812H210.31V64.1866H208.07V50.7466ZM213.975 60.623V54.1066C213.975 51.9684 214.994 50.543 217.335 50.543C219.677 50.543 220.797 52.0702 220.797 54.1066V60.623C220.797 62.6593 219.779 64.1866 217.335 64.1866C214.994 64.2884 213.975 62.6593 213.975 60.623ZM218.557 61.0302V53.8011C218.557 52.9866 218.252 52.3757 217.437 52.3757C216.623 52.3757 216.317 52.9866 216.317 53.8011V61.0302C216.317 61.8448 216.623 62.4557 217.437 62.4557C218.252 62.3539 218.557 61.8448 218.557 61.0302ZM224.259 57.9757V64.0848H222.019V50.7466H225.277C227.517 50.7466 228.332 51.8666 228.332 53.6993V55.4302C228.332 56.8557 227.823 57.6702 226.499 57.9757L228.637 64.0848H226.295L224.259 57.9757ZM224.259 52.5793V56.7539H224.972C225.786 56.7539 226.092 56.3466 226.092 55.6339V53.6993C226.092 52.9866 225.786 52.5793 224.972 52.5793H224.259ZM236.274 54.3102V60.5211C236.274 62.5575 235.459 64.0848 233.015 64.0848H229.554V50.7466H233.015C235.357 50.7466 236.274 52.2739 236.274 54.3102ZM232.71 62.2521C233.626 62.2521 234.034 61.743 234.034 60.9284V53.903C234.034 53.0884 233.728 52.5793 232.71 52.5793H231.794V62.2521H232.71ZM236.783 64.0848L239.328 50.7466H241.874L244.419 64.0848H242.077L241.67 61.6411H239.328L238.921 64.0848H236.783ZM239.634 59.8084H241.466L240.55 54.4121L239.634 59.8084ZM245.234 50.7466H248.491C250.731 50.7466 251.444 51.7648 251.444 53.6993V55.023C251.444 56.143 251.037 56.8557 250.121 57.1612C251.241 57.4666 251.75 58.1793 251.75 59.4011V61.1321C251.75 63.0666 250.935 64.0848 248.695 64.0848H245.234V50.7466ZM247.474 56.3466H248.288C249.001 56.3466 249.306 55.9393 249.306 55.2266V53.5975C249.306 52.8848 249.001 52.4775 248.186 52.4775H247.372V56.3466H247.474ZM247.474 58.0775V62.2521H248.491C249.204 62.2521 249.611 61.8448 249.611 61.1321V59.0957C249.611 58.383 249.306 57.9757 248.491 57.9757H247.474V58.0775ZM252.87 50.7466H255.11V62.2521H257.757V64.0848H252.87V50.7466ZM258.775 50.7466H264.171V52.5793H261.015V56.4484H263.255V58.2812H261.015V62.3539H264.171V64.1866H258.775V50.7466ZM266.819 64.0848L269.364 50.7466H271.91L274.455 64.0848H272.113L271.706 61.6411H269.364L268.957 64.0848H266.819ZM269.67 59.8084H271.502L270.586 54.4121L269.67 59.8084ZM277.204 55.6339V64.0848H275.27V50.7466H277.51L279.953 58.383V50.7466H281.786V64.0848H279.851L277.204 55.6339ZM289.728 54.3102V60.5211C289.728 62.5575 288.913 64.0848 286.47 64.0848H283.008V50.7466H286.47C288.913 50.7466 289.728 52.2739 289.728 54.3102ZM286.266 62.2521C287.182 62.2521 287.59 61.743 287.59 60.9284V53.903C287.59 53.0884 287.284 52.5793 286.266 52.5793H285.35V62.2521H286.266Z" fill="white"/>
<path d="M193.714 80.2731V73.8586C193.714 71.8222 194.732 70.2949 197.074 70.2949C199.518 70.2949 200.23 71.7204 200.23 73.6549V75.1822H198.194V73.4513C198.194 72.6367 197.888 72.1276 197.074 72.1276C196.259 72.1276 195.954 72.7386 195.954 73.5531V80.6804C195.954 81.4949 196.259 82.1058 197.074 82.1058C197.888 82.1058 198.194 81.5967 198.194 80.7822V78.3386H200.23V80.6804C200.23 82.6149 199.416 84.0404 197.074 84.0404C194.732 83.9386 193.714 82.4113 193.714 80.2731ZM201.656 70.3967H203.896V81.9022H206.543V83.7349H201.656V70.3967ZM207.765 70.3967H213.059V72.2295H210.005V75.9967H212.245V77.8295H210.005V81.9022H213.059V83.7349H207.765V70.3967ZM214.179 83.7349L216.725 70.3967H219.27L221.816 83.7349H219.474L219.067 81.2913H216.725L216.318 83.7349H214.179ZM217.03 79.5604H218.863L217.947 74.164L217.03 79.5604ZM224.768 75.3858V83.7349H222.834V70.3967H225.074L227.518 78.0331V70.3967H229.35V83.7349H227.416L224.768 75.3858ZM235.358 70.3967H240.652V72.2295H237.598V75.9967H239.838V77.8295H237.598V81.9022H240.652V83.7349H235.358V70.3967ZM243.91 75.3858V83.7349H241.976V70.3967H244.216L246.659 78.0331V70.3967H248.492V83.7349H246.557L243.91 75.3858ZM250.019 70.3967H255.314V72.2295H252.259V75.9967H254.499V77.8295H252.259V81.9022H255.314V83.7349H250.019V70.3967ZM258.979 77.6258V83.7349H256.739V70.3967H259.997C262.237 70.3967 263.052 71.5167 263.052 73.3495V75.0804C263.052 76.5058 262.543 77.3204 261.219 77.6258L263.357 83.6331H261.015L258.979 77.6258ZM258.979 72.2295V76.404H259.692C260.506 76.404 260.812 75.9967 260.812 75.284V73.3495C260.812 72.6367 260.506 72.2295 259.692 72.2295H258.979ZM267.837 76.6076H270.994V83.7349H269.365V82.3095C269.059 83.3276 268.448 83.9386 267.226 83.9386C265.292 83.9386 264.375 82.4113 264.375 80.3749V73.9604C264.375 71.924 265.394 70.3967 267.735 70.3967C270.179 70.3967 270.892 71.8222 270.892 73.7567V74.9786H268.855V73.6549C268.855 72.8404 268.55 72.3313 267.735 72.3313C266.921 72.3313 266.615 72.9422 266.615 73.7567V80.884C266.615 81.6986 266.921 82.3095 267.735 82.3095C268.448 82.3095 268.855 81.9022 268.855 80.9858V78.644H267.837V76.6076ZM276.797 78.644V83.7349H274.557V78.644L272.012 70.3967H274.354L275.677 75.4876L277.001 70.3967H279.139L276.797 78.644Z" fill="white"/>
<path d="M229.045 181.991C230.165 181.991 230.979 181.075 230.979 180.158V169.671C230.979 168.755 230.063 167.838 229.045 167.838C227.925 167.838 227.11 168.856 227.11 169.671V180.158C227.11 180.973 228.027 181.991 229.045 181.991ZM228.841 116.42C215.605 116.42 204.812 127.213 204.812 140.449C204.812 153.685 215.605 164.478 228.841 164.478C242.078 164.478 252.87 153.685 252.87 140.449C252.87 127.111 242.179 116.42 228.841 116.42ZM227.11 125.889C227.11 125.075 227.925 124.26 228.943 124.26C229.961 124.26 230.674 125.176 230.674 125.889V134.136C230.674 134.951 229.859 135.765 228.943 135.765C227.925 135.765 227.11 134.849 227.11 134.136V125.889ZM228.841 152.667C221.918 152.667 216.318 147.067 216.318 140.144C216.318 134.544 219.983 129.758 225.074 128.231V132.915C222.427 134.238 220.594 136.987 220.594 140.144C220.594 144.624 224.259 148.289 228.739 148.289C233.219 148.289 236.885 144.624 236.885 140.144C236.885 136.987 235.052 134.238 232.405 132.813V128.129C237.496 129.656 241.161 134.442 241.161 140.042C241.365 147.067 235.765 152.667 228.841 152.667ZM201.35 140.144C201.35 139.024 200.434 138.209 199.518 138.209H188.928C188.012 138.209 187.096 139.125 187.096 140.144C187.096 141.264 188.114 142.078 188.928 142.078H199.416C200.332 142.18 201.35 141.264 201.35 140.144ZM270.688 140.144C270.688 139.024 269.772 138.209 268.856 138.209H258.368C257.452 138.209 256.536 139.125 256.536 140.144C256.536 141.264 257.554 142.078 258.368 142.078H268.856C269.67 142.18 270.688 141.264 270.688 140.144ZM228.841 112.653C229.961 112.653 230.776 111.736 230.776 110.82V100.333C230.776 99.4164 229.859 98.5 228.841 98.5C227.721 98.5 226.907 99.5182 226.907 100.333V110.718C226.907 111.635 227.823 112.653 228.841 112.653ZM204.914 126.5C205.423 125.584 205.016 124.26 204.303 123.853L195.139 118.66C194.325 118.253 193.103 118.456 192.594 119.475C192.085 120.391 192.492 121.715 193.205 122.122L202.368 127.315C203.081 127.722 204.405 127.416 204.914 126.5ZM265.19 160.915C265.699 159.998 265.292 158.675 264.579 158.267L255.416 153.075C254.601 152.667 253.379 152.871 252.87 153.889C252.361 154.805 252.768 156.129 253.481 156.536L262.645 161.729C263.357 162.136 264.579 161.933 265.19 160.915ZM242.587 116.216C243.503 116.725 244.725 116.318 245.234 115.605L250.426 106.442C250.834 105.627 250.63 104.405 249.612 103.896C248.696 103.387 247.372 103.795 246.965 104.507L241.772 113.671C241.365 114.485 241.67 115.707 242.587 116.216ZM208.07 176.493C208.987 177.002 210.208 176.595 210.718 175.882L215.91 166.718C216.318 165.904 216.114 164.682 215.096 164.173C214.179 163.664 212.856 164.071 212.448 164.784L207.256 173.947C206.848 174.66 207.154 175.882 208.07 176.493ZM215.096 116.318C216.012 115.809 216.318 114.485 215.91 113.773L210.718 104.609C210.31 103.795 208.987 103.387 208.07 103.998C207.154 104.507 206.848 105.831 207.256 106.645L212.448 115.809C212.958 116.42 214.179 116.827 215.096 116.318ZM249.714 176.391C250.63 175.882 250.936 174.558 250.528 173.845L245.336 164.682C244.928 163.867 243.605 163.46 242.688 164.071C241.772 164.58 241.467 165.904 241.874 166.718L247.067 175.882C247.474 176.595 248.797 177.002 249.714 176.391ZM252.768 126.398C253.277 127.315 254.601 127.62 255.314 127.213L264.477 122.02C265.292 121.613 265.699 120.289 265.088 119.373C264.579 118.456 263.256 118.151 262.441 118.558L253.277 123.751C252.666 124.26 252.259 125.482 252.768 126.398ZM192.696 161.016C193.205 161.933 194.528 162.238 195.241 161.831L204.405 156.638C205.219 156.231 205.627 154.907 205.016 153.991C204.507 153.075 203.183 152.769 202.368 153.176L193.205 158.369C192.492 158.776 192.085 160.1 192.696 161.016Z" fill="white"/>
<path d="M286.562 301.845C302.677 301.845 315.741 288.782 315.741 272.666C315.741 256.551 302.677 243.487 286.562 243.487C270.447 243.487 257.383 256.551 257.383 272.666C257.383 288.782 270.447 301.845 286.562 301.845Z" fill="#A21942"/>
<path d="M274.103 262.035V261.121C274.103 260.335 273.824 259.751 273.189 259.472C273.747 259.193 274.001 258.711 274.001 258.051V257.721C274.001 256.427 273.341 255.742 272.047 255.742C270.779 255.742 270.119 256.427 270.119 257.721V258.051C270.119 258.711 270.373 259.218 270.906 259.472C270.271 259.751 269.992 260.335 269.992 261.121V262.009C269.992 263.253 270.576 264.141 272.047 264.141C273.494 264.166 274.103 263.278 274.103 262.035ZM271.413 257.62C271.413 257.112 271.591 256.833 272.022 256.833C272.479 256.833 272.656 257.112 272.656 257.62V258.178C272.656 258.685 272.479 258.965 272.022 258.965C271.565 258.965 271.413 258.66 271.413 258.178V257.62ZM272.707 262.187C272.707 262.694 272.529 263.05 272.022 263.05C271.54 263.05 271.362 262.694 271.362 262.187V260.842C271.362 260.335 271.54 260.005 272.022 260.005C272.529 260.005 272.707 260.36 272.707 260.842V262.187Z" fill="white"/>
<path d="M294.504 272.488L290.343 276.446C290.191 276.599 290.115 276.725 290.115 277.03V288.093C290.115 288.219 290.216 288.321 290.343 288.321H294.631C294.758 288.321 294.859 288.219 294.859 288.093V272.59C294.885 272.437 294.783 272.209 294.504 272.488ZM282.554 277.613L278.392 281.572C278.24 281.724 278.164 281.851 278.164 282.155V288.067C278.164 288.194 278.266 288.295 278.392 288.295H282.68C282.807 288.295 282.909 288.194 282.909 288.067V277.715C282.934 277.588 282.833 277.36 282.554 277.613Z" fill="white"/>
<path d="M296.408 267.693C296.408 267.668 296.408 267.617 296.382 267.592C296.357 267.566 296.332 267.566 296.306 267.566H296.256L293.084 268.277H293.033C293.008 268.277 292.982 268.302 292.982 268.302C292.932 268.353 292.932 268.429 292.982 268.48L293.008 268.505L293.744 269.241L286.538 276.447L283.214 273.123C283.188 273.098 283.112 273.098 283.087 273.123L282.174 274.037L276.845 279.365C276.82 279.39 276.82 279.466 276.845 279.492L277.759 280.405C277.784 280.431 277.86 280.431 277.885 280.405L283.163 275.153L285.574 277.563L286.487 278.477C286.512 278.502 286.588 278.502 286.614 278.477L294.784 270.307L295.545 271.068C295.596 271.119 295.672 271.119 295.723 271.068C295.748 271.043 295.748 271.017 295.748 270.992L296.459 267.744L296.408 267.693Z" fill="white"/>
<path d="M288.565 278.325L286.561 280.355C286.51 280.38 286.459 280.38 286.434 280.355L284.607 278.502C284.277 278.172 284.201 278.452 284.201 278.578V288.119C284.201 288.246 284.303 288.347 284.43 288.347H288.718C288.844 288.347 288.946 288.246 288.946 288.119V278.426C288.946 278.249 288.844 278.02 288.565 278.325Z" fill="white"/>
<path d="M278.823 256.706V258.254C278.823 258.761 278.62 259.142 278.011 259.142H277.148V255.818H278.011C278.62 255.818 278.823 256.198 278.823 256.706ZM277.935 258.685C278.163 258.685 278.265 258.558 278.265 258.355V256.604C278.265 256.401 278.189 256.275 277.935 256.275H277.707V258.685H277.935ZM279.178 255.818H280.523V256.275H279.736V257.239H280.295V257.695H279.736V258.71H280.523V259.167H279.178V255.818ZM280.802 258.279V256.655C280.802 256.122 281.056 255.767 281.639 255.767C282.248 255.767 282.426 256.122 282.426 256.604V257.01H281.919V256.554C281.919 256.351 281.842 256.224 281.639 256.224C281.436 256.224 281.36 256.376 281.36 256.579V258.381C281.36 258.584 281.436 258.736 281.639 258.736C281.842 258.736 281.919 258.609 281.919 258.406V257.797H282.426V258.381C282.426 258.863 282.223 259.218 281.639 259.218C281.056 259.192 280.802 258.786 280.802 258.279ZM282.781 255.818H284.126V256.275H283.339V257.239H283.898V257.695H283.339V258.71H284.126V259.167H282.781V255.818ZM284.913 257.036V259.142H284.431V255.818H284.989L285.598 257.721V255.818H286.054V259.142H285.572L284.913 257.036ZM286.359 255.818H287.856V256.275H287.399V259.142H286.841V256.275H286.384V255.818H286.359ZM289.911 257.086L289.607 259.142H289.074L288.617 255.818H289.15L289.404 257.924L289.683 255.818H290.139L290.444 257.924L290.698 255.818H291.18L290.748 259.142H290.241L289.911 257.086ZM291.408 258.279V256.655C291.408 256.122 291.662 255.767 292.245 255.767C292.829 255.767 293.108 256.148 293.108 256.655V258.279C293.108 258.786 292.854 259.167 292.245 259.167C291.662 259.192 291.408 258.786 291.408 258.279ZM292.524 258.381V256.579C292.524 256.376 292.448 256.224 292.245 256.224C292.042 256.224 291.966 256.376 291.966 256.579V258.381C291.966 258.584 292.042 258.736 292.245 258.736C292.448 258.71 292.524 258.584 292.524 258.381ZM294.021 257.619V259.142H293.463V255.818H294.275C294.833 255.818 295.036 256.097 295.036 256.554V256.985C295.036 257.34 294.909 257.543 294.58 257.619L295.112 259.142H294.529L294.021 257.619ZM294.021 256.275V257.315H294.199C294.402 257.315 294.478 257.213 294.478 257.036V256.554C294.478 256.376 294.402 256.275 294.199 256.275H294.021ZM295.95 257.518V259.142H295.392V255.818H295.95V257.289L296.559 255.818H297.117L296.457 257.315L297.117 259.142H296.533L295.95 257.518ZM297.904 259.142L298.538 255.818H299.172L299.807 259.142H299.223L299.121 258.533H298.538L298.436 259.142H297.904ZM298.614 258.076H299.071L298.842 256.731L298.614 258.076ZM300.466 257.036V259.142H299.984V255.818H300.542L301.151 257.721V255.818H301.608V259.142H301.126L300.466 257.036ZM303.663 256.706V258.254C303.663 258.761 303.46 259.142 302.851 259.142H301.989V255.818H302.851C303.46 255.818 303.663 256.198 303.663 256.706ZM302.775 258.685C303.004 258.685 303.105 258.558 303.105 258.355V256.604C303.105 256.401 303.029 256.275 302.775 256.275H302.547V258.685H302.775Z" fill="white"/>
<path d="M277.148 260.715H278.493V261.172H277.707V262.136H278.265V262.593H277.707V263.608H278.493V264.065H277.148V260.715ZM278.722 263.176V261.553C278.722 261.02 278.975 260.665 279.559 260.665C280.168 260.665 280.345 261.02 280.345 261.502V261.908H279.838V261.476C279.838 261.274 279.762 261.147 279.559 261.147C279.356 261.147 279.28 261.299 279.28 261.502V263.303C279.28 263.506 279.356 263.659 279.559 263.659C279.762 263.659 279.838 263.532 279.838 263.329V262.72H280.345V263.303C280.345 263.785 280.142 264.141 279.559 264.141C278.975 264.09 278.722 263.709 278.722 263.176ZM280.65 263.176V261.553C280.65 261.02 280.904 260.665 281.487 260.665C282.071 260.665 282.35 261.045 282.35 261.553V263.176C282.35 263.684 282.096 264.065 281.487 264.065C280.929 264.09 280.65 263.709 280.65 263.176ZM281.792 263.278V261.476C281.792 261.274 281.716 261.121 281.513 261.121C281.31 261.121 281.234 261.274 281.234 261.476V263.278C281.234 263.481 281.31 263.633 281.513 263.633C281.716 263.608 281.792 263.481 281.792 263.278ZM283.162 261.959V264.065H282.68V260.741H283.238L283.847 262.644V260.741H284.304V264.065H283.822L283.162 261.959ZM284.633 263.176V261.553C284.633 261.02 284.887 260.665 285.471 260.665C286.054 260.665 286.333 261.045 286.333 261.553V263.176C286.333 263.684 286.08 264.065 285.471 264.065C284.887 264.09 284.633 263.709 284.633 263.176ZM285.75 263.278V261.476C285.75 261.274 285.674 261.121 285.471 261.121C285.268 261.121 285.192 261.274 285.192 261.476V263.278C285.192 263.481 285.268 263.633 285.471 263.633C285.674 263.608 285.75 263.481 285.75 263.278ZM288.186 261.882L287.78 264.039H287.526L287.12 261.882V264.039H286.663V260.715H287.323L287.678 262.593L288.008 260.715H288.719V264.039H288.211L288.186 261.882ZM289.023 260.715H289.581V264.039H289.023V260.715ZM289.886 263.176V261.553C289.886 261.02 290.139 260.665 290.723 260.665C291.332 260.665 291.51 261.02 291.51 261.502V261.908H291.002V261.476C291.002 261.274 290.926 261.147 290.723 261.147C290.52 261.147 290.444 261.299 290.444 261.502V263.303C290.444 263.506 290.52 263.659 290.723 263.659C290.926 263.659 291.002 263.532 291.002 263.329V262.72H291.51V263.303C291.51 263.785 291.307 264.141 290.723 264.141C290.139 264.09 289.886 263.709 289.886 263.176ZM293.336 262.263H294.123V264.039H293.717V263.684C293.641 263.938 293.489 264.09 293.184 264.09C292.702 264.09 292.474 263.709 292.474 263.202V261.578C292.474 261.045 292.727 260.69 293.311 260.69C293.92 260.69 294.123 261.045 294.123 261.527V261.832H293.615V261.502C293.615 261.299 293.539 261.172 293.336 261.172C293.133 261.172 293.057 261.324 293.057 261.527V263.329C293.057 263.532 293.133 263.684 293.336 263.684C293.514 263.684 293.615 263.582 293.615 263.354V262.771H293.362V262.263H293.336ZM295.062 262.517V264.039H294.504V260.715H295.315C295.874 260.715 296.077 260.994 296.077 261.451V261.882C296.077 262.238 295.95 262.441 295.62 262.517L296.153 264.039H295.569L295.062 262.517ZM295.062 261.172V262.212H295.239C295.442 262.212 295.518 262.111 295.518 261.933V261.451C295.518 261.274 295.442 261.172 295.239 261.172H295.062ZM296.33 263.176V261.553C296.33 261.02 296.584 260.665 297.168 260.665C297.751 260.665 298.03 261.045 298.03 261.553V263.176C298.03 263.684 297.777 264.065 297.168 264.065C296.584 264.09 296.33 263.709 296.33 263.176ZM297.472 263.278V261.476C297.472 261.274 297.396 261.121 297.193 261.121C296.99 261.121 296.914 261.274 296.914 261.476V263.278C296.914 263.481 296.99 263.633 297.193 263.633C297.396 263.608 297.472 263.481 297.472 263.278ZM299.477 261.984L299.172 264.039H298.639L298.183 260.715H298.715L298.969 262.821L299.248 260.715H299.705L300.009 262.821L300.263 260.715H300.745L300.314 264.039H299.781L299.477 261.984ZM300.948 260.715H302.445V261.172H301.989V264.039H301.405V261.172H300.948V260.715ZM303.714 262.568H303.181V264.039H302.623V260.715H303.181V262.136H303.714V260.715H304.272V264.039H303.714V262.568Z" fill="white"/>
<path d="M347.531 256.119C362.457 256.119 374.556 244.02 374.556 229.094C374.556 214.169 362.457 202.07 347.531 202.07C332.606 202.07 320.507 214.169 320.507 229.094C320.507 244.02 332.606 256.119 347.531 256.119Z" fill="#FD6925"/>
<path d="M335.57 215.3C335.57 214.125 335.053 213.255 333.714 213.255C332.351 213.255 331.834 214.007 331.834 215.182V216.31C331.834 217.556 332.327 218.19 333.244 218.19C333.784 218.19 334.113 217.932 334.301 217.579V219.224C334.301 219.694 334.113 220 333.667 220C333.197 220 333.032 219.741 333.032 219.248V218.731H331.857V219.13C331.857 220.258 332.257 221.034 333.69 221.034C335.03 221.034 335.57 220.164 335.57 218.966V215.3ZM334.301 216.475C334.278 216.898 334.09 217.18 333.69 217.18C333.244 217.18 333.079 216.921 333.079 216.404V215.088C333.079 214.595 333.267 214.313 333.69 214.313C334.113 214.313 334.278 214.595 334.278 215.088V216.475H334.301ZM357.002 235.087L352.514 232.502V227.308C352.514 227.191 352.467 227.097 352.349 227.05L347.696 224.371C347.602 224.324 347.485 224.324 347.391 224.371L342.738 227.05C342.644 227.097 342.573 227.214 342.573 227.308V232.502L338.085 235.087C337.991 235.134 337.92 235.251 337.92 235.345V240.703C337.92 240.82 337.967 240.914 338.085 240.961L342.738 243.64C342.785 243.664 342.832 243.687 342.902 243.687C342.949 243.687 343.02 243.664 343.067 243.64L347.555 241.055L352.044 243.64C352.091 243.664 352.138 243.687 352.208 243.687C352.279 243.687 352.326 243.664 352.373 243.64L357.026 240.961C357.12 240.914 357.19 240.797 357.19 240.703V235.345C357.143 235.228 357.096 235.134 357.002 235.087ZM347.226 240.186L343.49 238.024L347.226 235.862V240.186ZM351.574 232.666L347.837 234.828V230.528L351.574 232.666ZM347.226 234.805L343.49 232.643L347.226 230.481V234.805ZM348.166 235.345L352.208 233.019L356.25 235.345L352.208 237.671L348.166 235.345ZM351.879 232.126L348.143 229.964L351.879 227.802V232.126ZM346.921 229.987L343.184 232.149V227.849L346.921 229.987ZM342.597 242.865L338.555 240.538V235.885L342.597 238.212V242.865ZM343.208 242.865V238.564L346.944 240.726L343.208 242.865ZM356.532 240.538L352.49 242.865V238.212L356.532 235.885V240.538Z" fill="white"/>
<path d="M337.567 213.443H338.061V216.31H337.567V213.443ZM338.742 214.524V216.334H338.343V213.467H338.813L339.33 215.112V213.467H339.729V216.334H339.306L338.742 214.524ZM341.468 214.219V215.558C341.468 216.005 341.28 216.334 340.763 216.334H340.011V213.467H340.763C341.304 213.443 341.468 213.772 341.468 214.219ZM340.716 215.934C340.904 215.934 340.998 215.817 340.998 215.652V214.148C340.998 213.984 340.928 213.866 340.716 213.866H340.505V215.958L340.716 215.934ZM343.184 213.443V215.605C343.184 216.052 342.996 216.334 342.502 216.334C341.985 216.334 341.774 216.052 341.774 215.605V213.443H342.267V215.652C342.267 215.817 342.338 215.934 342.502 215.934C342.667 215.934 342.737 215.817 342.737 215.652V213.443H343.184ZM343.442 215.699V215.323H343.889V215.723C343.889 215.887 343.959 215.981 344.124 215.981C344.265 215.981 344.335 215.887 344.335 215.723V215.605C344.335 215.441 344.265 215.347 344.124 215.206L343.842 214.924C343.56 214.642 343.442 214.477 343.442 214.148V214.054C343.442 213.702 343.654 213.42 344.124 213.42C344.617 213.42 344.805 213.655 344.805 214.078V214.313H344.359V214.054C344.359 213.89 344.288 213.819 344.124 213.819C343.983 213.819 343.889 213.89 343.889 214.054V214.125C343.889 214.289 343.983 214.383 344.124 214.524L344.429 214.83C344.688 215.088 344.829 215.253 344.829 215.582V215.723C344.829 216.122 344.617 216.404 344.124 216.404C343.63 216.357 343.442 216.075 343.442 215.699ZM344.946 213.443H346.239V213.843H345.839V216.31H345.346V213.843H344.946V213.443ZM346.944 214.994V216.31H346.474V213.443H347.179C347.672 213.443 347.837 213.678 347.837 214.078V214.454C347.837 214.759 347.719 214.947 347.461 215.018L347.931 216.31H347.414L346.944 214.994ZM346.944 213.843V214.736H347.108C347.273 214.736 347.343 214.642 347.343 214.501V214.078C347.343 213.913 347.273 213.843 347.108 213.843H346.944ZM348.965 215.229V216.31H348.471V215.229L347.931 213.443H348.424L348.706 214.524L348.988 213.443H349.458L348.965 215.229ZM349.975 215.887L349.74 216.545H349.458L349.529 215.864H349.975V215.887ZM350.751 213.443H351.244V216.31H350.751V213.443ZM351.926 214.524V216.334H351.526V213.467H351.996L352.513 215.112V213.467H352.913V216.334H352.49L351.926 214.524ZM353.618 214.524V216.334H353.218V213.467H353.688L354.205 215.112V213.467H354.605V216.334H354.182L353.618 214.524ZM354.91 215.582V214.195C354.91 213.749 355.122 213.42 355.639 213.42C356.156 213.42 356.367 213.749 356.367 214.195V215.582C356.367 216.028 356.156 216.357 355.639 216.357C355.122 216.357 354.91 216.028 354.91 215.582ZM355.897 215.652V214.101C355.897 213.937 355.827 213.796 355.639 213.796C355.474 213.796 355.404 213.913 355.404 214.101V215.652C355.404 215.817 355.474 215.958 355.639 215.958C355.803 215.958 355.897 215.84 355.897 215.652ZM358.224 213.443L357.683 216.31H357.166L356.626 213.443H357.119L357.448 215.441L357.777 213.443H358.224ZM358.153 216.31L358.694 213.443H359.234L359.775 216.31H359.281L359.187 215.793H358.694L358.6 216.31H358.153ZM358.741 215.417H359.117L358.929 214.266L358.741 215.417ZM359.728 213.443H361.02V213.843H360.621V216.31H360.127V213.843H359.728V213.443ZM361.255 213.443H361.749V216.31H361.255V213.443ZM362.054 215.582V214.195C362.054 213.749 362.266 213.42 362.783 213.42C363.3 213.42 363.511 213.749 363.511 214.195V215.582C363.511 216.028 363.3 216.357 362.783 216.357C362.266 216.357 362.054 216.028 362.054 215.582ZM363.018 215.652V214.101C363.018 213.937 362.947 213.796 362.759 213.796C362.595 213.796 362.524 213.913 362.524 214.101V215.652C362.524 215.817 362.595 215.958 362.759 215.958C362.947 215.958 363.018 215.84 363.018 215.652ZM364.216 214.524V216.334H363.817V213.467H364.287L364.804 215.112V213.467H365.203V216.334H364.78L364.216 214.524Z" fill="white"/>
<path d="M337.474 220.869L338.014 218.002H338.555L339.095 220.869H338.602L338.508 220.352H338.014L337.92 220.869H337.474ZM338.085 219.953H338.461L338.273 218.801L338.085 219.953ZM339.706 219.06V220.869H339.307V218.002H339.777L340.294 219.647V218.002H340.693V220.869H340.27L339.706 219.06ZM342.432 218.754V220.094C342.432 220.54 342.244 220.869 341.727 220.869H340.975V218.002H341.727C342.244 218.002 342.432 218.331 342.432 218.754ZM341.68 220.47C341.868 220.47 341.962 220.352 341.962 220.188V218.684C341.962 218.519 341.892 218.402 341.68 218.402H341.469V220.493L341.68 220.47ZM343.184 218.002H343.678V220.869H343.184V218.002ZM344.383 219.06V220.869H343.983V218.002H344.453L344.97 219.647V218.002H345.37V220.869H344.947L344.383 219.06ZM345.675 218.002H346.803V218.402H346.145V219.224H346.638V219.624H346.145V220.893H345.652L345.675 218.002ZM347.508 219.553V220.869H347.014V218.002H347.719C348.213 218.002 348.377 218.237 348.377 218.637V219.013C348.377 219.318 348.26 219.506 348.001 219.577L348.471 220.869H347.954L347.508 219.553ZM347.508 218.378V219.271H347.672C347.837 219.271 347.907 219.177 347.907 219.036V218.613C347.907 218.449 347.837 218.378 347.672 218.378H347.508ZM348.612 220.869L349.153 218.002H349.693L350.234 220.869H349.74L349.646 220.352H349.129L349.035 220.869H348.612ZM349.2 219.953H349.576L349.388 218.801L349.2 219.953ZM350.398 220.235V219.859H350.845V220.258C350.845 220.423 350.915 220.517 351.08 220.517C351.221 220.517 351.291 220.423 351.291 220.258V220.141C351.291 219.976 351.221 219.882 351.08 219.741L350.798 219.459C350.516 219.177 350.398 219.013 350.398 218.684V218.59C350.398 218.237 350.61 217.955 351.08 217.955C351.573 217.955 351.761 218.19 351.761 218.613V218.848H351.315V218.59C351.315 218.425 351.244 218.355 351.08 218.355C350.939 218.355 350.845 218.425 350.845 218.59V218.66C350.845 218.825 350.939 218.919 351.08 219.06L351.385 219.365C351.644 219.624 351.785 219.788 351.785 220.117V220.258C351.785 220.658 351.573 220.94 351.08 220.94C350.586 220.94 350.398 220.611 350.398 220.235ZM351.926 218.002H353.218V218.402H352.819V220.869H352.325V218.402H351.926V218.002ZM353.947 219.553V220.869H353.453V218.002H354.158C354.652 218.002 354.816 218.237 354.816 218.637V219.013C354.816 219.318 354.699 219.506 354.44 219.577L354.91 220.869H354.393L353.947 219.553ZM353.947 218.378V219.271H354.111C354.276 219.271 354.346 219.177 354.346 219.036V218.613C354.346 218.449 354.276 218.378 354.111 218.378H353.947ZM356.508 218.002V220.164C356.508 220.611 356.32 220.893 355.827 220.893C355.31 220.893 355.098 220.611 355.098 220.164V218.002H355.592V220.211C355.592 220.376 355.662 220.493 355.827 220.493C355.991 220.493 356.062 220.376 356.062 220.211V218.002H356.508ZM356.814 220.117V218.731C356.814 218.284 357.025 217.955 357.542 217.955C358.083 217.955 358.224 218.261 358.224 218.684V219.013H357.777V218.637C357.777 218.449 357.707 218.355 357.542 218.355C357.378 218.355 357.307 218.472 357.307 218.66V220.211C357.307 220.376 357.378 220.517 357.542 220.517C357.707 220.517 357.777 220.399 357.777 220.235V219.694H358.224V220.188C358.224 220.587 358.059 220.893 357.542 220.893C357.025 220.893 356.814 220.564 356.814 220.117ZM358.318 218.002H359.61V218.402H359.211V220.869H358.717V218.402H358.318V218.002ZM361.255 218.002V220.164C361.255 220.611 361.067 220.893 360.574 220.893C360.057 220.893 359.845 220.611 359.845 220.164V218.002H360.339V220.211C360.339 220.376 360.409 220.493 360.574 220.493C360.738 220.493 360.809 220.376 360.809 220.211V218.002H361.255ZM362.031 219.553V220.869H361.537V218.002H362.242C362.736 218.002 362.9 218.237 362.9 218.637V219.013C362.9 219.318 362.783 219.506 362.524 219.577L362.994 220.869H362.477L362.031 219.553ZM362.031 218.378V219.271H362.195C362.36 219.271 362.43 219.177 362.43 219.036V218.613C362.43 218.449 362.36 218.378 362.195 218.378H362.031ZM363.206 218.002H364.357V218.402H363.699V219.224H364.169V219.624H363.699V220.493H364.357V220.893H363.206V218.002Z" fill="white"/>
<path d="M368.449 187.078C376.5 187.078 383.027 180.551 383.027 172.5C383.027 164.449 376.5 157.922 368.449 157.922C360.398 157.922 353.871 164.449 353.871 172.5C353.871 180.551 360.398 187.078 368.449 187.078Z" fill="#DD1367"/>
<path d="M437.584 163.883C479.45 163.883 513.389 129.944 513.389 88.0786C513.389 46.2128 479.45 12.2739 437.584 12.2739C395.718 12.2739 361.779 46.2128 361.779 88.0786C361.779 129.944 395.718 163.883 437.584 163.883Z" fill="#FD9D24"/>
<path d="M392.63 48.1987V51.956L395.201 49.3193V65.6667H398.826V44.3096H395.926L392.63 48.1987ZM400.804 48.1987V51.956H400.87L403.374 49.3193V65.6667H407V44.3096H404.099L400.804 48.1987Z" fill="white"/>
<path d="M402.516 116.16H418.468C418.665 116.16 418.863 115.962 418.863 115.764C418.863 115.632 418.797 115.566 418.731 115.5L410.821 105.217L410.755 105.151C410.689 105.086 410.558 105.02 410.492 105.02C410.426 105.02 410.294 105.086 410.228 105.151L410.162 105.217L410.096 105.283L402.318 115.434L402.186 115.566C402.12 115.632 402.12 115.698 402.12 115.764C402.12 115.962 402.318 116.16 402.516 116.16ZM418.402 117.61H402.384C402.186 117.61 401.988 117.808 401.988 118.005V130.529C401.988 130.727 402.186 130.925 402.384 130.925H407.525V123.081C407.525 122.883 407.723 122.685 407.921 122.685H412.667C412.865 122.685 413.062 122.883 413.062 123.081V130.925H418.336C418.533 130.925 418.731 130.727 418.731 130.529V118.005C418.797 117.808 418.665 117.61 418.402 117.61ZM473.64 114.314H457.82C457.622 114.314 457.425 114.512 457.425 114.709V130.661C457.425 130.859 457.622 131.057 457.82 131.057H473.64C473.838 131.057 474.036 130.859 474.036 130.661V114.709C474.036 114.512 473.904 114.314 473.64 114.314ZM465.005 124.795C465.005 124.992 464.807 125.19 464.61 125.19H459.863C459.666 125.19 459.468 124.992 459.468 124.795V121.894C459.468 121.697 459.666 121.499 459.863 121.499H464.61C464.807 121.499 465.005 121.697 465.005 121.894V124.795ZM465.005 119.455C465.005 119.653 464.807 119.851 464.61 119.851H459.863C459.666 119.851 459.468 119.653 459.468 119.455V116.555C459.468 116.357 459.666 116.16 459.863 116.16H464.61C464.807 116.16 465.005 116.357 465.005 116.555V119.455ZM472.256 124.795C472.256 124.992 472.058 125.19 471.86 125.19H467.114C466.917 125.19 466.719 124.992 466.719 124.795V121.894C466.719 121.697 466.917 121.499 467.114 121.499H471.86C472.058 121.499 472.256 121.697 472.256 121.894V124.795ZM472.256 119.455C472.256 119.653 472.058 119.851 471.86 119.851H467.114C466.917 119.851 466.719 119.653 466.719 119.455V116.555C466.719 116.357 466.917 116.16 467.114 116.16H471.86C472.058 116.16 472.256 116.357 472.256 116.555V119.455ZM436.858 77.2686H421.434C421.236 77.2686 421.038 77.4663 421.038 77.6641V130.595C421.038 130.793 421.236 130.991 421.434 130.991H436.924C437.122 130.991 437.32 130.793 437.32 130.595V77.6641C437.254 77.4004 437.122 77.2686 436.858 77.2686ZM427.696 124.927C427.696 125.058 427.63 125.124 427.498 125.124H423.939C423.807 125.124 423.741 125.058 423.741 124.927V120.972C423.741 120.84 423.807 120.774 423.939 120.774H427.498C427.63 120.774 427.696 120.84 427.696 120.972V124.927ZM427.696 115.83C427.696 115.962 427.63 116.028 427.498 116.028H423.939C423.807 116.028 423.741 115.962 423.741 115.83V111.875C423.741 111.743 423.807 111.677 423.939 111.677H427.498C427.63 111.677 427.696 111.743 427.696 111.875V115.83ZM427.696 106.733C427.696 106.865 427.63 106.931 427.498 106.931H423.939C423.807 106.931 423.741 106.865 423.741 106.733V102.778C423.741 102.647 423.807 102.581 423.939 102.581H427.498C427.63 102.581 427.696 102.647 427.696 102.778V106.733ZM427.696 97.7029C427.696 97.8347 427.63 97.9006 427.498 97.9006H423.939C423.807 97.9006 423.741 97.8347 423.741 97.7029V93.7478C423.741 93.616 423.807 93.5501 423.939 93.5501H427.498C427.63 93.5501 427.696 93.616 427.696 93.7478V97.7029ZM427.696 88.6063C427.696 88.7381 427.63 88.804 427.498 88.804H423.939C423.807 88.804 423.741 88.7381 423.741 88.6063V84.6513C423.741 84.5194 423.807 84.4535 423.939 84.4535H427.498C427.63 84.4535 427.696 84.5194 427.696 84.6513V88.6063ZM434.617 124.927C434.617 125.058 434.551 125.124 434.419 125.124H430.86C430.728 125.124 430.662 125.058 430.662 124.927V120.972C430.662 120.84 430.728 120.774 430.86 120.774H434.419C434.551 120.774 434.617 120.84 434.617 120.972V124.927ZM434.617 115.83C434.617 115.962 434.551 116.028 434.419 116.028H430.86C430.728 116.028 430.662 115.962 430.662 115.83V111.875C430.662 111.743 430.728 111.677 430.86 111.677H434.419C434.551 111.677 434.617 111.743 434.617 111.875V115.83ZM434.617 106.733C434.617 106.865 434.551 106.931 434.419 106.931H430.86C430.728 106.931 430.662 106.865 430.662 106.733V102.778C430.662 102.647 430.728 102.581 430.86 102.581H434.419C434.551 102.581 434.617 102.647 434.617 102.778V106.733ZM434.617 97.7029C434.617 97.8347 434.551 97.9006 434.419 97.9006H430.86C430.728 97.9006 430.662 97.8347 430.662 97.7029V93.7478C430.662 93.616 430.728 93.5501 430.86 93.5501H434.419C434.551 93.5501 434.617 93.616 434.617 93.7478V97.7029ZM434.617 88.6063C434.617 88.7381 434.551 88.804 434.419 88.804H430.86C430.728 88.804 430.662 88.7381 430.662 88.6063V84.6513C430.662 84.5194 430.728 84.4535 430.86 84.4535H434.419C434.551 84.4535 434.617 84.5194 434.617 84.6513V88.6063ZM474.036 112.732C474.036 112.93 473.904 113.061 473.706 113.061H457.754C457.556 113.061 457.425 112.93 457.425 112.732V109.568C457.425 109.37 457.556 109.238 457.754 109.238H473.706C473.904 109.238 474.036 109.37 474.036 109.568V112.732ZM455.579 87.222C455.513 87.0243 455.381 86.9584 455.183 86.9584C455.117 86.9584 455.052 86.9584 454.986 87.0243L454.854 87.1561L439.627 106.47L439.561 106.536C439.495 106.602 439.429 106.733 439.429 106.865V130.595C439.429 130.793 439.627 130.991 439.825 130.991H455.315C455.513 130.991 455.711 130.793 455.711 130.595V87.3539C455.645 87.3539 455.645 87.288 455.579 87.222ZM449.185 97.7029L449.317 97.571C450.371 96.2527 452.085 94.0774 452.942 93.0227L453.074 92.8909C453.14 92.825 453.272 92.7591 453.404 92.7591C453.601 92.7591 453.799 92.8909 453.799 93.0887V97.9665C453.799 98.2302 453.601 98.362 453.404 98.4279H449.58C449.317 98.4279 449.185 98.2302 449.185 97.9665C449.119 97.9006 449.119 97.7688 449.185 97.7029ZM446.746 124.729C446.746 124.927 446.548 125.124 446.35 125.124H441.736C441.539 125.124 441.341 124.927 441.341 124.729V121.828C441.341 121.631 441.539 121.433 441.736 121.433H446.35C446.548 121.433 446.746 121.631 446.746 121.828V124.729ZM446.746 119.455C446.746 119.653 446.548 119.851 446.35 119.851H441.736C441.539 119.851 441.341 119.653 441.341 119.455V116.555C441.341 116.357 441.539 116.16 441.736 116.16H446.35C446.548 116.16 446.746 116.357 446.746 116.555V119.455ZM446.746 114.116C446.746 114.314 446.548 114.512 446.35 114.512H441.736C441.539 114.512 441.341 114.314 441.341 114.116V111.216C441.341 111.018 441.539 110.82 441.736 110.82H446.35C446.548 110.82 446.746 111.018 446.746 111.216V114.116ZM446.812 102.383V108.711C446.812 108.909 446.614 109.106 446.416 109.106H441.802C441.604 109.106 441.407 108.909 441.407 108.711V107.92V107.788V107.722C441.407 107.722 441.407 107.656 441.473 107.656C441.473 107.656 441.473 107.59 441.539 107.59C442.132 106.733 444.768 103.438 445.889 102.119L446.021 101.987C446.087 101.921 446.219 101.856 446.35 101.856C446.548 101.856 446.746 101.987 446.746 102.185V102.383H446.812ZM453.865 124.729C453.865 124.927 453.667 125.124 453.47 125.124H448.855C448.658 125.124 448.46 124.927 448.46 124.729V121.828C448.46 121.631 448.658 121.433 448.855 121.433H453.47C453.667 121.433 453.865 121.631 453.865 121.828V124.729ZM453.865 119.455C453.865 119.653 453.667 119.851 453.47 119.851H448.855C448.658 119.851 448.46 119.653 448.46 119.455V116.555C448.46 116.357 448.658 116.16 448.855 116.16H453.47C453.667 116.16 453.865 116.357 453.865 116.555V119.455ZM453.865 114.116C453.865 114.314 453.667 114.512 453.47 114.512H448.855C448.658 114.512 448.46 114.314 448.46 114.116V111.216C448.46 111.018 448.658 110.82 448.855 110.82H453.47C453.667 110.82 453.865 111.018 453.865 111.216V114.116ZM453.865 108.777C453.865 108.975 453.667 109.172 453.47 109.172H448.855C448.658 109.172 448.46 108.975 448.46 108.777V105.877C448.46 105.679 448.658 105.481 448.855 105.481H453.47C453.667 105.481 453.865 105.679 453.865 105.877V108.777ZM453.865 103.438C453.865 103.635 453.667 103.833 453.47 103.833H448.855C448.658 103.833 448.46 103.635 448.46 103.438V100.537C448.46 100.34 448.658 100.142 448.855 100.142H453.47C453.667 100.142 453.865 100.34 453.865 100.537V103.438Z" fill="white"/>
<path d="M413.985 51.099V49.9125H415.37V51.099C415.37 51.5604 415.567 51.89 416.095 51.89C416.556 51.89 416.754 51.5604 416.754 51.099V50.7694C416.754 50.2421 416.556 49.9784 416.095 49.517L415.238 48.6601C414.381 47.8691 414.051 47.3418 414.051 46.353V46.0893C414.051 45.0347 414.71 44.1777 416.095 44.1777C417.545 44.1777 418.138 44.9028 418.138 46.1552V46.8803H416.82V46.1552C416.82 45.6279 416.622 45.4302 416.161 45.4302C415.765 45.4302 415.501 45.6279 415.501 46.1552V46.353C415.501 46.8144 415.765 47.144 416.161 47.5395L417.083 48.4623C417.874 49.2534 418.27 49.7807 418.27 50.7035V51.099C418.27 52.2855 417.611 53.1425 416.161 53.1425C414.71 53.1425 413.985 52.2196 413.985 51.099ZM423.016 44.3096V50.8354C423.016 52.1537 422.423 53.0765 420.973 53.0765C419.456 53.0765 418.797 52.2196 418.797 50.8354V44.3096H420.247V51.0331C420.247 51.5604 420.445 51.89 420.973 51.89C421.5 51.89 421.698 51.5604 421.698 51.0331V44.3096H423.016ZM423.807 51.099V49.9125H425.191V51.099C425.191 51.5604 425.389 51.89 425.916 51.89C426.378 51.89 426.576 51.5604 426.576 51.099V50.7694C426.576 50.2421 426.378 49.9784 425.916 49.517L425.059 48.6601C424.203 47.8691 423.873 47.3418 423.873 46.353V46.0893C423.873 45.0347 424.466 44.1777 425.916 44.1777C427.367 44.1777 427.96 44.9028 427.96 46.1552V46.8803H426.641V46.1552C426.641 45.6279 426.444 45.4302 425.982 45.4302C425.587 45.4302 425.323 45.6279 425.323 46.1552V46.353C425.323 46.8144 425.587 47.144 425.982 47.5395L426.905 48.4623C427.696 49.2534 428.092 49.7807 428.092 50.7035V51.099C428.092 52.2855 427.432 53.1425 425.982 53.1425C424.334 53.0765 423.807 52.2196 423.807 51.099ZM428.289 44.3096H432.178V45.4961H430.992V52.9447H429.542V45.4961H428.355V44.3096H428.289ZM431.915 52.9447L433.563 44.3096H435.211L436.859 52.9447H435.342L435.079 51.3627H433.563L433.299 52.9447H431.915ZM433.76 50.1762H434.947L434.354 46.6826L433.76 50.1762ZM437.452 44.3096H438.902V52.9447H437.452V44.3096ZM440.945 47.4736V52.9447H439.693V44.3096H441.143L442.725 49.2533V44.3096H443.912V52.9447H442.659L440.945 47.4736ZM444.439 52.9447L446.087 44.3096H447.735L449.383 52.9447H447.867L447.603 51.3627H446.087L445.823 52.9447H444.439ZM446.285 50.1762H447.471L446.878 46.6826L446.285 50.1762ZM449.844 44.3096H451.953C453.404 44.3096 453.865 44.9687 453.865 46.2212V47.0781C453.865 47.8032 453.601 48.2646 453.008 48.4623C453.733 48.6601 454.063 49.1215 454.063 49.9125V51.0331C454.063 52.2855 453.535 52.9447 452.085 52.9447H449.844V44.3096ZM451.294 47.935H451.822C452.283 47.935 452.481 47.6713 452.481 47.2099V46.1552C452.481 45.6938 452.283 45.4302 451.756 45.4302H451.228L451.294 47.935ZM451.294 49.0556V51.7582H451.953C452.415 51.7582 452.679 51.4945 452.679 51.0331V49.7148C452.679 49.2534 452.481 48.9897 451.953 48.9897H451.294V49.0556ZM454.722 44.3096H456.172V51.7582H457.886V52.9447H454.722V44.3096ZM458.479 44.3096H461.973V45.4961H459.929V48.0009H461.38V49.1874H459.929V51.8241H461.973V53.0106H458.479V44.3096ZM464.412 50.7035V46.4848C464.412 45.1006 465.071 44.1777 466.587 44.1777C468.169 44.1777 468.63 45.1006 468.63 46.353V47.4077H467.312V46.2212C467.312 45.6938 467.114 45.3642 466.587 45.3642C466.06 45.3642 465.862 45.7597 465.862 46.2871V50.9672C465.862 51.4945 466.06 51.89 466.587 51.89C467.114 51.89 467.312 51.5604 467.312 51.0331V49.4511H468.63V50.9672C468.63 52.2196 468.103 53.1425 466.587 53.1425C465.005 53.0765 464.412 52.0219 464.412 50.7035ZM469.29 44.3096H470.74V52.9447H469.29V44.3096ZM471.267 44.3096H475.156V45.4961H473.97V52.9447H472.52V45.4961H471.333V44.3096H471.267ZM475.75 44.3096H477.2V52.9447H475.75V44.3096ZM477.991 44.3096H481.484V45.4961H479.441V48.0009H480.891V49.1874H479.441V51.8241H481.484V53.0106H477.991V44.3096ZM481.814 51.099V49.9125H483.198V51.099C483.198 51.5604 483.396 51.89 483.923 51.89C484.385 51.89 484.582 51.5604 484.582 51.099V50.7694C484.582 50.2421 484.385 49.9784 483.923 49.517L483.066 48.6601C482.209 47.8691 481.88 47.3418 481.88 46.353V46.0893C481.88 45.0347 482.539 44.1777 483.923 44.1777C485.373 44.1777 485.967 44.9028 485.967 46.1552V46.8803H484.648V46.1552C484.648 45.6279 484.451 45.4302 483.989 45.4302C483.594 45.4302 483.33 45.6279 483.33 46.1552V46.353C483.33 46.8144 483.594 47.144 483.989 47.5395L484.912 48.4623C485.703 49.2534 486.099 49.7807 486.099 50.7035V51.099C486.099 52.2855 485.439 53.1425 483.989 53.1425C482.539 53.1425 481.814 52.2196 481.814 51.099Z" fill="white"/>
<path d="M413.985 65.6669L415.633 57.0317H417.281L418.929 65.6669H417.479L417.215 64.0849H415.699L415.436 65.6669H413.985ZM415.831 62.9643H417.018L416.424 59.4707L415.831 62.9643ZM420.775 60.2617V65.7328H419.522V57.0977H420.973L422.555 62.0414V57.0977H423.741V65.7328H422.489L420.775 60.2617ZM428.949 59.3388V63.3598C428.949 64.6781 428.421 65.6669 426.839 65.6669H424.598V57.0317H426.839C428.355 57.0317 428.949 58.0205 428.949 59.3388ZM426.641 64.4804C427.235 64.4804 427.498 64.1508 427.498 63.6234V59.0752C427.498 58.5478 427.301 58.2182 426.641 58.2182H426.048V64.4804H426.641ZM431.058 63.4257V59.207C431.058 57.8227 431.717 56.8999 433.233 56.8999C434.815 56.8999 435.277 57.8227 435.277 59.0752V60.1298H433.958V59.0092C433.958 58.4819 433.76 58.1523 433.233 58.1523C432.706 58.1523 432.508 58.5478 432.508 59.0752V63.7553C432.508 64.2826 432.706 64.6781 433.233 64.6781C433.76 64.6781 433.958 64.3485 433.958 63.8212V62.2392H435.277V63.7553C435.277 65.0077 434.749 65.9305 433.233 65.9305C431.651 65.7987 431.058 64.81 431.058 63.4257ZM436.068 63.4257V59.207C436.068 57.8227 436.727 56.8999 438.243 56.8999C439.759 56.8999 440.484 57.8887 440.484 59.207V63.4257C440.484 64.744 439.825 65.7328 438.243 65.7328C436.727 65.7987 436.068 64.81 436.068 63.4257ZM438.968 63.6894V59.0092C438.968 58.4819 438.77 58.0864 438.243 58.0864C437.715 58.0864 437.518 58.4819 437.518 59.0092V63.6894C437.518 64.2167 437.715 64.6122 438.243 64.6122C438.77 64.5463 438.968 64.2167 438.968 63.6894ZM445.296 60.0639L444.241 65.6669H443.582L442.527 60.0639V65.6669H441.341V57.0317H443.055L443.978 61.9096L444.835 57.0317H446.68V65.6669H445.362L445.296 60.0639ZM451.426 60.0639L450.372 65.6669H449.712L448.658 60.0639V65.6669H447.471V57.0317H449.185L450.108 61.9096L450.965 57.0317H452.81V65.6669H451.492V60.0639H451.426ZM457.82 57.0317V63.5575C457.82 64.8759 457.227 65.7987 455.777 65.7987C454.261 65.7987 453.601 64.9418 453.601 63.5575V57.0317H455.052V63.7553C455.052 64.2826 455.249 64.6122 455.777 64.6122C456.304 64.6122 456.502 64.2826 456.502 63.7553V57.0317H457.82ZM459.798 60.2617V65.7328H458.545V57.0977H459.995L461.577 62.0414V57.0977H462.764V65.7328H461.511L459.798 60.2617ZM463.621 57.0317H465.071V65.6669H463.621V57.0317ZM465.73 57.0317H469.619V58.2182H468.433V65.6669H466.917V58.2182H465.73V57.0317ZM470.278 57.0317H471.729V65.6669H470.278V57.0317ZM472.52 57.0317H476.013V58.2182H473.97V60.7231H475.42V61.9096H473.97V64.5463H476.013V65.7328H472.52V57.0317ZM476.606 63.8212V62.6347H477.991V63.8212C477.991 64.2826 478.188 64.6122 478.716 64.6122C479.177 64.6122 479.375 64.2826 479.375 63.8212V63.4916C479.375 62.9643 479.177 62.7006 478.716 62.2392L477.859 61.3823C477.002 60.5913 476.672 60.0639 476.672 59.0752V58.8115C476.672 57.7568 477.266 56.8999 478.716 56.8999C480.166 56.8999 480.759 57.625 480.759 58.8774V59.6025H479.441V58.8774C479.441 58.3501 479.243 58.1523 478.782 58.1523C478.386 58.1523 478.123 58.3501 478.123 58.8774V59.0752C478.123 59.5366 478.386 59.8662 478.782 60.2617L479.705 61.1845C480.496 61.9755 480.891 62.5029 480.891 63.4257V63.8212C480.891 65.0077 480.232 65.8646 478.782 65.8646C477.2 65.7987 476.606 64.9418 476.606 63.8212Z" fill="white"/>
<path d="M417.511 232.238C431.68 232.238 443.166 220.752 443.166 206.584C443.166 192.415 431.68 180.929 417.511 180.929C403.342 180.929 391.856 192.415 391.856 206.584C391.856 220.752 403.342 232.238 417.511 232.238Z" fill="#BF8B2E"/>
<path d="M403.256 193.467H403.278V199.022H404.483V191.771H403.523L402.386 193.088V194.359H402.408L403.256 193.467ZM405.219 193.266V194.136H406.334V193.221C406.334 192.775 406.557 192.664 406.803 192.664C407.048 192.664 407.249 192.753 407.249 193.199V193.801C407.249 194.404 407.204 194.627 406.803 195.051L406.111 195.787C405.442 196.501 405.197 196.969 405.197 197.683V199.022H408.364V198.018H406.357V197.683C406.357 197.125 406.557 196.902 406.87 196.568L407.651 195.742C408.275 195.073 408.409 194.649 408.409 193.913V193.199C408.409 192.173 407.918 191.682 406.825 191.682C405.754 191.682 405.219 192.262 405.219 193.266ZM427.616 207.99C426.144 206.83 424.404 206.718 423.712 206.718C423.356 206.718 423.021 206.74 422.776 206.807L422.686 206.83C421.749 207.053 420.21 207.41 418.403 209.663L418.359 209.73C418.336 209.774 418.314 209.819 418.314 209.863C418.314 209.908 418.314 209.953 418.336 209.975L418.381 210.042C418.671 210.533 418.916 210.979 419.117 211.336C419.184 211.47 419.385 211.514 419.496 211.38C419.519 211.358 419.519 211.336 419.541 211.336C421.102 209.172 422.329 208.882 423.132 208.703L423.222 208.681C423.333 208.659 423.512 208.636 423.712 208.636C424.092 208.636 425.386 208.703 426.412 209.507C427.326 210.22 427.773 211.358 427.773 212.897C427.773 215.485 426.523 216.489 425.475 216.868C425.073 217.024 424.649 217.091 424.203 217.091C423.132 217.091 422.285 216.667 422.285 216.645L422.218 216.601C421.326 216.199 419.965 215.396 418.693 212.83C416.083 207.588 413.897 207.097 412.447 206.763L412.38 206.74C412.268 206.718 411.956 206.651 411.443 206.651C410.595 206.651 408.989 206.807 407.606 207.923C406.669 208.681 405.531 210.153 405.531 212.83C405.531 214.481 405.866 215.552 406.736 216.69C406.892 216.913 408.409 218.854 411.309 218.854C411.733 218.854 412.179 218.809 412.625 218.72C413.161 218.608 413.964 218.363 414.878 217.694L415.637 218.385C415.726 218.452 415.86 218.452 415.949 218.363C415.994 218.318 416.016 218.274 415.994 218.229L416.574 214.593V214.548C416.574 214.481 416.552 214.437 416.507 214.392C416.462 214.347 416.418 214.325 416.351 214.325L412.804 215.307H412.737C412.692 215.307 412.648 215.329 412.625 215.374C412.581 215.418 412.558 215.485 412.558 215.53C412.558 215.597 412.581 215.641 412.625 215.686L413.361 216.355C412.982 216.601 412.581 216.757 412.224 216.824C411.911 216.891 411.599 216.913 411.287 216.913C409.279 216.913 408.297 215.597 408.253 215.53L408.231 215.507C407.628 214.704 407.405 214.013 407.405 212.808C407.405 211.269 407.851 210.109 408.744 209.395C409.748 208.592 411.019 208.547 411.376 208.547C411.577 208.547 411.755 208.57 411.867 208.592L411.956 208.614C413.116 208.882 414.7 209.239 416.909 213.656C418.069 215.998 419.519 217.515 421.348 218.318C421.571 218.43 422.686 218.965 424.159 218.965C424.828 218.965 425.497 218.854 426.122 218.608C427.193 218.207 429.669 216.846 429.669 212.808C429.736 210.22 428.576 208.748 427.616 207.99Z" fill="white"/>
<path d="M411.622 193.356V194.694H411.131V191.772H411.845C412.336 191.772 412.514 192.017 412.514 192.419V192.798C412.514 193.11 412.402 193.289 412.112 193.356L412.581 194.694H412.068L411.622 193.356ZM411.622 192.173V193.088H411.778C411.956 193.088 412.023 192.999 412.023 192.842V192.419C412.023 192.262 411.956 192.173 411.778 192.173H411.622ZM412.849 191.772H414.031V192.173H413.339V193.021H413.83V193.422H413.339V194.315H414.031V194.716H412.849V191.772ZM414.299 194.069V193.668H414.767V194.069C414.767 194.226 414.834 194.337 415.013 194.337C415.169 194.337 415.236 194.226 415.236 194.069V193.958C415.236 193.779 415.169 193.69 415.013 193.534L414.723 193.244C414.432 192.976 414.321 192.798 414.321 192.463V192.374C414.321 192.017 414.544 191.727 415.013 191.727C415.503 191.727 415.704 191.972 415.704 192.396V192.642H415.258V192.396C415.258 192.218 415.191 192.151 415.035 192.151C414.901 192.151 414.812 192.218 414.812 192.396V192.463C414.812 192.619 414.901 192.731 415.035 192.865L415.347 193.177C415.615 193.445 415.749 193.623 415.749 193.936V194.069C415.749 194.471 415.526 194.761 415.035 194.761C414.499 194.739 414.299 194.449 414.299 194.069ZM416.016 191.772H416.753C417.243 191.772 417.422 192.017 417.422 192.419V193.043C417.422 193.445 417.243 193.712 416.753 193.712H416.507V194.716H416.016V191.772ZM416.507 192.173V193.333H416.686C416.864 193.333 416.931 193.244 416.931 193.088V192.419C416.931 192.262 416.864 192.173 416.686 192.173H416.507ZM417.734 193.936V192.508C417.734 192.039 417.957 191.727 418.47 191.727C418.983 191.727 419.229 192.062 419.229 192.508V193.936C419.229 194.382 419.006 194.716 418.47 194.716C417.957 194.739 417.734 194.382 417.734 193.936ZM418.738 194.025V192.441C418.738 192.262 418.671 192.129 418.493 192.129C418.314 192.129 418.247 192.262 418.247 192.441V194.025C418.247 194.203 418.314 194.337 418.493 194.337C418.649 194.315 418.738 194.203 418.738 194.025ZM419.965 192.842V194.694H419.541V191.772H420.032L420.567 193.445V191.772H420.969V194.694H420.545L419.965 192.842ZM421.303 194.069V193.668H421.772V194.069C421.772 194.226 421.839 194.337 422.017 194.337C422.173 194.337 422.24 194.226 422.24 194.069V193.958C422.24 193.779 422.173 193.69 422.017 193.534L421.727 193.244C421.437 192.976 421.326 192.798 421.326 192.463V192.374C421.326 192.017 421.549 191.727 422.017 191.727C422.508 191.727 422.709 191.972 422.709 192.396V192.642H422.263V192.396C422.263 192.218 422.196 192.151 422.04 192.151C421.906 192.151 421.817 192.218 421.817 192.396V192.463C421.817 192.619 421.906 192.731 422.04 192.865L422.352 193.177C422.62 193.445 422.753 193.623 422.753 193.936V194.069C422.753 194.471 422.53 194.761 422.04 194.761C421.482 194.739 421.303 194.449 421.303 194.069ZM422.999 191.772H423.49V194.694H422.999V191.772ZM423.824 191.772H424.538C425.029 191.772 425.185 191.995 425.185 192.419V192.709C425.185 192.954 425.096 193.11 424.895 193.177C425.14 193.244 425.252 193.4 425.252 193.668V194.047C425.252 194.471 425.073 194.694 424.583 194.694H423.824V191.772ZM424.337 192.999H424.516C424.672 192.999 424.739 192.909 424.739 192.753V192.396C424.739 192.24 424.672 192.151 424.493 192.151H424.315L424.337 192.999ZM424.337 193.378V194.293H424.56C424.717 194.293 424.806 194.203 424.806 194.047V193.601C424.806 193.445 424.739 193.356 424.56 193.356H424.337V193.378ZM425.564 191.772H426.055V194.293H426.635V194.694H425.564V191.772ZM426.925 191.772H428.107V192.173H427.416V193.021H427.907V193.422H427.416V194.315H428.107V194.716H426.925V191.772Z" fill="white"/>
<path d="M411.131 198.24V196.813C411.131 196.344 411.354 196.032 411.867 196.032C412.402 196.032 412.559 196.344 412.559 196.768V197.125H412.112V196.746C412.112 196.567 412.046 196.456 411.867 196.456C411.689 196.456 411.622 196.589 411.622 196.768V198.352C411.622 198.53 411.689 198.664 411.867 198.664C412.046 198.664 412.112 198.553 412.112 198.374V197.839H412.559V198.352C412.559 198.776 412.38 199.088 411.867 199.088C411.354 199.043 411.131 198.709 411.131 198.24ZM412.871 198.24V196.813C412.871 196.344 413.094 196.032 413.607 196.032C414.12 196.032 414.366 196.366 414.366 196.813V198.24C414.366 198.686 414.142 199.021 413.607 199.021C413.094 199.043 412.871 198.709 412.871 198.24ZM413.875 198.329V196.746C413.875 196.567 413.808 196.433 413.629 196.433C413.451 196.433 413.384 196.567 413.384 196.746V198.329C413.384 198.508 413.451 198.642 413.629 198.642C413.808 198.62 413.875 198.508 413.875 198.329ZM415.102 197.169V199.021H414.678V196.099H415.169L415.704 197.772V196.099H416.106V199.021H415.682L415.102 197.169ZM416.418 198.374V197.973H416.886V198.374C416.886 198.53 416.953 198.642 417.132 198.642C417.288 198.642 417.355 198.53 417.355 198.374V198.263C417.355 198.084 417.288 197.995 417.132 197.839L416.842 197.549C416.552 197.281 416.44 197.103 416.44 196.768V196.679C416.44 196.322 416.663 196.032 417.132 196.032C417.623 196.032 417.823 196.277 417.823 196.701V196.946H417.377V196.701C417.377 196.523 417.31 196.456 417.154 196.456C417.02 196.456 416.931 196.523 416.931 196.701V196.768C416.931 196.924 417.02 197.036 417.154 197.169L417.466 197.482C417.734 197.749 417.868 197.928 417.868 198.24V198.374C417.868 198.776 417.645 199.066 417.154 199.066C416.619 199.043 416.418 198.753 416.418 198.374ZM419.563 196.076V198.285C419.563 198.731 419.363 199.043 418.872 199.043C418.359 199.043 418.136 198.753 418.136 198.285V196.076H418.626V198.352C418.626 198.53 418.693 198.642 418.872 198.642C419.05 198.642 419.117 198.53 419.117 198.352V196.076H419.563ZM421.259 197.103L420.902 198.999H420.679L420.322 197.103V198.999H419.92V196.076H420.5L420.813 197.727L421.103 196.076H421.727V198.999H421.281V197.103H421.259ZM422.04 196.076H422.776C423.267 196.076 423.445 196.322 423.445 196.723V197.348C423.445 197.749 423.267 198.017 422.776 198.017H422.53V199.021H422.04V196.076ZM422.53 196.478V197.638H422.709C422.887 197.638 422.954 197.549 422.954 197.393V196.723C422.954 196.567 422.887 196.478 422.709 196.478H422.53ZM423.601 196.076H424.917V196.478H424.516V198.999H424.025V196.478H423.623L423.601 196.076ZM425.14 196.076H425.631V198.999H425.14V196.076ZM425.921 198.24V196.813C425.921 196.344 426.144 196.032 426.657 196.032C427.17 196.032 427.416 196.366 427.416 196.813V198.24C427.416 198.686 427.193 199.021 426.657 199.021C426.144 199.043 425.921 198.709 425.921 198.24ZM426.925 198.329V196.746C426.925 196.567 426.858 196.433 426.68 196.433C426.501 196.433 426.434 196.567 426.434 196.746V198.329C426.434 198.508 426.501 198.642 426.68 198.642C426.836 198.62 426.925 198.508 426.925 198.329ZM428.13 197.169V199.021H427.706V196.099H428.197L428.732 197.772V196.099H429.134V199.021H428.71L428.13 197.169Z" fill="white"/>
<path d="M411.064 203.304L411.622 200.382H412.18L412.738 203.304H412.224L412.135 202.769H411.622L411.533 203.304H411.064ZM411.667 202.389H412.068L411.868 201.207L411.667 202.389ZM413.362 201.475V203.326H412.938V200.404H413.429L413.965 202.077V200.404H414.366V203.326H413.942L413.362 201.475ZM416.151 201.162V202.523C416.151 202.969 415.972 203.304 415.437 203.304H414.678V200.382H415.437C415.95 200.382 416.151 200.716 416.151 201.162ZM415.37 202.902C415.571 202.902 415.66 202.791 415.66 202.612V201.073C415.66 200.895 415.593 200.783 415.37 200.783H415.169V202.902H415.37ZM416.909 200.382H417.645C418.136 200.382 418.315 200.627 418.315 201.028V201.653C418.315 202.055 418.136 202.322 417.645 202.322H417.4V203.326H416.909V200.382ZM417.4 200.783V201.943H417.578C417.757 201.943 417.824 201.854 417.824 201.698V201.028C417.824 200.872 417.757 200.783 417.578 200.783H417.4ZM419.073 201.965V203.304H418.582V200.382H419.296C419.787 200.382 419.965 200.627 419.965 201.028V201.408C419.965 201.72 419.854 201.898 419.564 201.965L420.032 203.304H419.519L419.073 201.965ZM419.073 200.783V201.698H419.229C419.408 201.698 419.475 201.608 419.475 201.452V201.028C419.475 200.872 419.408 200.783 419.229 200.783H419.073ZM420.255 202.545V201.118C420.255 200.649 420.479 200.337 420.992 200.337C421.505 200.337 421.75 200.672 421.75 201.118V202.545C421.75 202.992 421.527 203.326 420.992 203.326C420.479 203.349 420.255 203.014 420.255 202.545ZM421.259 202.635V201.051C421.259 200.872 421.192 200.738 421.014 200.738C420.835 200.738 420.769 200.872 420.769 201.051V202.635C420.769 202.813 420.835 202.947 421.014 202.947C421.192 202.925 421.259 202.813 421.259 202.635ZM423.535 201.162V202.523C423.535 202.969 423.356 203.304 422.821 203.304H422.063V200.382H422.821C423.334 200.382 423.535 200.716 423.535 201.162ZM422.754 202.902C422.955 202.902 423.044 202.791 423.044 202.612V201.073C423.044 200.895 422.977 200.783 422.754 200.783H422.553V202.902H422.754ZM425.253 200.382V202.59C425.253 203.036 425.052 203.349 424.561 203.349C424.048 203.349 423.825 203.059 423.825 202.59V200.382H424.316V202.657C424.316 202.835 424.383 202.947 424.561 202.947C424.74 202.947 424.806 202.835 424.806 202.657V200.382H425.253ZM425.543 202.545V201.118C425.543 200.649 425.766 200.337 426.279 200.337C426.814 200.337 426.97 200.649 426.97 201.073V201.43H426.524V201.051C426.524 200.872 426.457 200.761 426.279 200.761C426.1 200.761 426.033 200.895 426.033 201.073V202.657C426.033 202.835 426.1 202.969 426.279 202.969C426.457 202.969 426.524 202.858 426.524 202.679V202.144H426.97V202.657C426.97 203.081 426.792 203.393 426.279 203.393C425.766 203.349 425.543 203.014 425.543 202.545ZM427.216 200.382H428.532V200.783H428.13V203.304H427.64V200.783H427.238L427.216 200.382ZM428.755 200.382H429.246V203.304H428.755V200.382ZM429.536 202.545V201.118C429.536 200.649 429.759 200.337 430.272 200.337C430.785 200.337 431.031 200.672 431.031 201.118V202.545C431.031 202.992 430.807 203.326 430.272 203.326C429.759 203.349 429.536 203.014 429.536 202.545ZM430.54 202.635V201.051C430.54 200.872 430.473 200.738 430.294 200.738C430.116 200.738 430.049 200.872 430.049 201.051V202.635C430.049 202.813 430.116 202.947 430.294 202.947C430.451 202.925 430.54 202.813 430.54 202.635ZM431.722 201.475V203.326H431.298V200.404H431.789L432.324 202.077V200.404H432.726V203.326H432.302L431.722 201.475Z" fill="white"/>
<path d="M513.059 166.12C517.618 166.12 521.314 162.424 521.314 157.865C521.314 153.306 517.618 149.61 513.059 149.61C508.5 149.61 504.804 153.306 504.804 157.865C504.804 162.424 508.5 166.12 513.059 166.12Z" fill="#0A97D9"/>
<path d="M578.289 167.553C605.547 167.553 627.643 145.457 627.643 118.2C627.643 90.9422 605.547 68.8457 578.289 68.8457C551.032 68.8457 528.936 90.9422 528.936 118.2C528.936 145.457 551.032 167.553 578.289 167.553Z" fill="#56C02B"/>
<path d="M549.02 92.3636V94.8098L550.65 93.0932H550.693V103.779H553.011V89.8315H551.165L549.02 92.3636ZM558.59 94.2519C557.646 94.2519 557.002 94.5953 556.616 95.1961V91.7199H560.65V89.8315H554.47V97.6852H556.616V97.3848C556.616 96.5694 557.002 96.0973 557.646 96.0973C558.375 96.0973 558.633 96.5694 558.633 97.3419V100.689C558.633 101.419 558.375 101.934 557.646 101.934C556.83 101.934 556.573 101.419 556.573 100.561V98.8011H554.427V100.389C554.427 102.492 555.285 103.865 557.646 103.865C560.006 103.865 560.993 102.621 560.993 100.689V97.299C560.993 95.1532 559.834 94.2519 558.59 94.2519Z" fill="white"/>
<path d="M572.882 130.73C572.968 130.73 573.053 130.816 573.053 130.902V135.923C573.053 136.009 572.968 136.095 572.882 136.095H570.865C570.779 136.095 570.693 136.009 570.693 135.923V130.902C570.693 130.816 570.779 130.73 570.865 130.73H572.882ZM595.241 138.241H561.723C561.638 138.241 561.552 138.326 561.552 138.412V140.472C561.552 140.558 561.638 140.644 561.723 140.644H595.241C595.327 140.644 595.413 140.558 595.413 140.472V138.412C595.413 138.326 595.327 138.241 595.241 138.241ZM595.241 142.318H561.723C561.638 142.318 561.552 142.403 561.552 142.489V144.549C561.552 144.635 561.638 144.721 561.723 144.721H595.241C595.327 144.721 595.413 144.635 595.413 144.549V142.489C595.413 142.403 595.327 142.318 595.241 142.318ZM588.847 125.194C588.417 124.851 587.302 124.121 585.928 124.121C584.941 124.121 584.04 124.507 583.225 125.28C583.182 125.323 583.139 125.409 583.139 125.495V125.666C583.139 125.752 583.182 125.838 583.225 125.881C583.31 125.924 583.353 125.967 583.482 125.924H583.525C583.568 125.881 583.654 125.881 583.697 125.838C583.868 125.709 584.34 125.537 585.027 125.537C585.757 125.537 587.13 125.709 588.503 126.997L588.546 127.039C588.632 127.125 588.718 127.168 588.847 127.168C588.932 127.168 589.061 127.125 589.147 127.039L589.19 126.997C590.563 125.752 591.937 125.537 592.666 125.537C593.353 125.537 593.825 125.709 593.997 125.838C594.039 125.881 594.082 125.924 594.168 125.967C594.211 125.967 594.297 126.01 594.383 125.967C594.512 125.924 594.597 125.838 594.597 125.709V125.537C594.597 125.452 594.554 125.366 594.512 125.323C593.696 124.55 592.795 124.164 591.765 124.164C590.392 124.078 589.276 124.851 588.847 125.194ZM586.787 111.804C586.701 111.847 586.658 111.89 586.658 111.976L586.615 112.105C586.572 112.19 586.615 112.276 586.658 112.362C586.701 112.448 586.787 112.491 586.872 112.491H586.915C586.958 112.491 587.044 112.491 587.087 112.448C587.13 112.448 587.173 112.405 587.302 112.405C587.43 112.405 588.804 112.448 589.705 113.95V113.993C589.748 114.079 589.834 114.122 589.919 114.165H590.005C590.048 114.165 590.134 114.165 590.177 114.122H590.22C590.692 113.864 591.207 113.735 591.722 113.735C592.58 113.735 593.138 114.079 593.267 114.208L593.396 114.336C593.439 114.336 593.482 114.379 593.524 114.379H593.61C593.653 114.379 593.696 114.379 593.739 114.336C593.825 114.293 593.868 114.25 593.868 114.165L593.911 114.079V113.993C593.911 113.95 593.911 113.907 593.868 113.864C593.224 112.748 592.28 112.491 591.593 112.491C591.078 112.491 590.649 112.62 590.392 112.705C590.091 112.276 589.319 111.418 588.117 111.418C587.645 111.504 587.216 111.59 586.787 111.804ZM579.705 116.997V117.169C579.705 117.255 579.748 117.34 579.834 117.383C579.92 117.426 580.006 117.426 580.049 117.426H580.092C580.135 117.383 580.177 117.383 580.22 117.34C580.349 117.255 580.821 117.04 581.508 117.04C582.152 117.04 583.139 117.212 584.169 118.027L584.212 118.07C584.297 118.113 584.383 118.156 584.469 118.156H584.512C584.598 118.156 584.727 118.113 584.77 118.027L584.812 117.984C585.928 116.783 587.13 116.611 587.774 116.611C588.203 116.611 588.546 116.697 588.632 116.783C588.675 116.825 588.718 116.868 588.804 116.868H589.018C589.147 116.825 589.233 116.697 589.19 116.568V116.439C589.19 116.353 589.147 116.31 589.104 116.225C588.417 115.667 587.731 115.366 586.958 115.366C585.8 115.366 584.855 116.053 584.469 116.396C584.126 116.139 583.267 115.667 582.237 115.667C581.336 115.667 580.564 116.053 579.877 116.783C579.705 116.825 579.705 116.911 579.705 116.997ZM562.711 119.658C562.711 117.641 564.341 116.01 566.358 116.01H566.573C566.745 113.478 568.89 111.461 571.465 111.461C574.169 111.461 576.401 113.65 576.401 116.396C576.401 117.169 576.229 117.898 575.886 118.542C578.332 119.1 580.177 121.289 580.177 123.907C580.177 126.954 577.731 129.4 574.684 129.4C574.47 129.4 567.345 129.357 567.345 129.357C565.2 129.357 563.44 127.597 563.44 125.452C563.44 124.422 563.826 123.477 564.513 122.791C563.483 122.19 562.711 121.031 562.711 119.658Z" fill="white"/>
<path d="M566.014 89.8315H566.958V94.6811H568.074V95.4536H566.014V89.8315ZM568.632 89.8315H569.576V95.4536H568.632V89.8315ZM570.262 89.8315H572.494V90.604H571.207V92.2349H572.151V93.0074H571.207V95.4965H570.262V89.8315ZM573.009 89.8315H575.284V90.604H573.953V92.2349H574.897V93.0074H573.953V94.724H575.284V95.4965H573.009V89.8315Z" fill="white"/>
<path d="M566.014 102.32V99.5739C566.014 98.6726 566.443 98.0718 567.43 98.0718C568.417 98.0718 568.889 98.7155 568.889 99.5739V102.32C568.889 103.179 568.46 103.823 567.43 103.823C566.443 103.823 566.014 103.179 566.014 102.32ZM567.945 102.449V99.4022C567.945 99.0589 567.816 98.8014 567.473 98.8014C567.129 98.8014 567.001 99.0589 567.001 99.4022V102.449C567.001 102.793 567.129 103.05 567.473 103.05C567.773 103.05 567.945 102.793 567.945 102.449ZM570.22 100.218V103.78H569.404V98.1576H570.348L571.378 101.376V98.1576H572.151V103.78H571.335L570.22 100.218ZM574.211 98.1147H575.155V102.964H576.271V103.737H574.211V98.1147ZM576.528 103.78L577.601 98.1576H578.674L579.747 103.78H578.76L578.588 102.75H577.601L577.429 103.78H576.528ZM577.73 101.977H578.502L578.116 99.7026L577.73 101.977ZM580.949 100.218V103.78H580.133V98.1576H581.077L582.107 101.376V98.1576H582.88V103.78H582.064L580.949 100.218ZM586.356 99.6597V102.278C586.356 103.136 586.013 103.78 584.983 103.78H583.524V98.1576H584.983C585.97 98.1147 586.356 98.7584 586.356 99.6597ZM584.854 103.007C585.24 103.007 585.412 102.793 585.412 102.449V99.488C585.412 99.1447 585.283 98.9301 584.854 98.9301H584.468V103.007H584.854Z" fill="white"/>
<path d="M539.259 225.641C552.522 225.641 563.274 214.889 563.274 201.625C563.274 188.362 552.522 177.61 539.259 177.61C525.995 177.61 515.243 188.362 515.243 201.625C515.243 214.889 525.995 225.641 539.259 225.641Z" fill="#00689D"/>
<path d="M525.203 189.054V190.244H525.224L526.018 189.409V194.609H527.166V187.822H526.247L525.203 189.054ZM531.155 192.98V191.978C531.155 190.871 530.716 190.307 529.902 190.307C529.421 190.307 529.129 190.537 528.962 190.85V189.388C528.962 188.97 529.087 188.678 529.505 188.678C529.923 188.678 530.027 188.908 530.027 189.346V189.806H531.071V189.451C531.071 188.448 530.737 187.759 529.484 187.759C528.294 187.759 527.834 188.532 527.834 189.597V192.896C527.834 193.941 528.294 194.713 529.484 194.713C530.674 194.692 531.155 194.024 531.155 192.98ZM530.027 193.084C530.027 193.523 529.86 193.774 529.484 193.774C529.108 193.774 528.962 193.523 528.962 193.084V191.852C528.983 191.476 529.15 191.226 529.505 191.226C529.902 191.226 530.048 191.456 530.048 191.915L530.027 193.084Z" fill="white"/>
<path d="M533.349 187.823H534.038C534.497 187.823 534.664 188.052 534.664 188.428V189.013C534.664 189.389 534.497 189.639 534.038 189.639H533.808V190.579H533.349V187.823ZM533.808 188.199V189.284H533.975C534.142 189.284 534.205 189.201 534.205 189.055V188.428C534.205 188.282 534.142 188.199 533.975 188.199H533.808ZM534.894 187.823H536.001V188.199H535.353V188.992H535.813V189.368H535.353V190.203H536.001V190.579H534.894V187.823ZM536.189 190.579L536.711 187.844H537.233L537.755 190.579H537.275L537.191 190.078H536.711L536.627 190.579H536.189ZM536.773 189.702H537.149L536.961 188.595L536.773 189.702ZM537.922 189.869V188.533C537.922 188.094 538.131 187.802 538.611 187.802C539.112 187.802 539.258 188.094 539.258 188.491V188.825H538.841V188.47C538.841 188.303 538.778 188.199 538.611 188.199C538.444 188.199 538.381 188.324 538.381 188.491V189.974C538.381 190.141 538.444 190.266 538.611 190.266C538.778 190.266 538.841 190.162 538.841 189.994V189.493H539.258V189.974C539.258 190.37 539.091 190.663 538.611 190.663C538.131 190.6 537.922 190.287 537.922 189.869ZM539.551 187.823H540.658V188.199H540.01V188.992H540.47V189.368H540.01V190.203H540.658V190.579H539.551V187.823ZM541.409 190.162L541.18 190.788H540.929L540.992 190.141L541.409 190.162ZM543.414 187.823V189.953C543.414 190.349 543.247 190.6 542.788 190.6C542.307 190.6 542.182 190.329 542.182 189.994V189.452H542.621V190.015C542.621 190.162 542.662 190.224 542.788 190.224C542.913 190.224 542.955 190.141 542.955 189.994V187.823H543.414ZM545.043 187.823V189.89C545.043 190.308 544.855 190.6 544.396 190.6C543.915 190.6 543.707 190.329 543.707 189.89V187.823H544.166V189.953C544.166 190.12 544.229 190.224 544.396 190.224C544.563 190.224 544.625 190.12 544.625 189.953V187.823H545.043ZM545.335 189.974V189.619H545.774V189.994C545.774 190.141 545.837 190.245 546.004 190.245C546.15 190.245 546.212 190.141 546.212 189.994V189.89C546.212 189.723 546.15 189.639 546.004 189.493L545.732 189.222C545.461 188.971 545.356 188.804 545.356 188.491V188.407C545.356 188.073 545.565 187.802 546.004 187.802C546.463 187.802 546.651 188.031 546.651 188.428V188.658H546.233V188.428C546.233 188.261 546.171 188.199 546.025 188.199C545.899 188.199 545.816 188.261 545.816 188.428V188.491C545.816 188.637 545.899 188.741 546.025 188.867L546.317 189.159C546.567 189.41 546.693 189.577 546.693 189.869V189.994C546.693 190.37 546.484 190.642 546.025 190.642C545.502 190.6 545.335 190.349 545.335 189.974ZM546.881 187.823H548.113V188.199H547.737V190.558H547.277V188.199H546.881V187.823ZM548.363 187.823H548.823V190.558H548.363V187.823ZM549.136 189.869V188.533C549.136 188.094 549.345 187.802 549.825 187.802C550.326 187.802 550.473 188.094 550.473 188.491V188.825H550.055V188.47C550.055 188.303 549.992 188.199 549.825 188.199C549.658 188.199 549.595 188.324 549.595 188.491V189.974C549.595 190.141 549.658 190.266 549.825 190.266C549.992 190.266 550.055 190.162 550.055 189.994V189.493H550.473V189.974C550.473 190.37 550.306 190.663 549.825 190.663C549.345 190.6 549.136 190.287 549.136 189.869ZM550.765 187.823H551.872V188.199H551.224V188.992H551.684V189.368H551.224V190.203H551.872V190.579H550.765V187.823Z" fill="white"/>
<path d="M533.265 194.692L533.787 191.956H534.309L534.831 194.692H534.351L534.267 194.191H533.787L533.703 194.692H533.265ZM533.849 193.815H534.225L534.037 192.708L533.849 193.815ZM535.457 192.959V194.692H535.061V191.956H535.52L536.021 193.523V191.956H536.397V194.692H536L535.457 192.959ZM538.089 192.687V193.961C538.089 194.379 537.922 194.692 537.42 194.692H536.71V191.956H537.42C537.922 191.935 538.089 192.249 538.089 192.687ZM537.379 194.316C537.567 194.316 537.65 194.212 537.65 194.045V192.604C537.65 192.437 537.587 192.332 537.379 192.332H537.191V194.316H537.379ZM538.84 194.107V193.731H539.279V194.107C539.279 194.253 539.342 194.358 539.509 194.358C539.655 194.358 539.717 194.253 539.717 194.107V194.003C539.717 193.836 539.655 193.752 539.509 193.606L539.237 193.335C538.966 193.084 538.861 192.917 538.861 192.604V192.52C538.861 192.186 539.07 191.915 539.509 191.915C539.968 191.915 540.156 192.144 540.156 192.541V192.771H539.738V192.541C539.738 192.374 539.676 192.311 539.53 192.311C539.404 192.311 539.321 192.374 539.321 192.541V192.604C539.321 192.75 539.404 192.854 539.53 192.98L539.822 193.272C540.072 193.523 540.198 193.69 540.198 193.982V194.107C540.198 194.483 539.989 194.755 539.53 194.755C539.028 194.713 538.84 194.462 538.84 194.107ZM540.344 191.935H541.576V192.311H541.2V194.671H540.741V192.311H540.365V191.935H540.344ZM542.286 193.439V194.692H541.827V191.956H542.495C542.954 191.956 543.121 192.186 543.121 192.562V192.917C543.121 193.209 543.017 193.376 542.745 193.439L543.184 194.692H542.704L542.286 193.439ZM542.286 192.311V193.168H542.432C542.599 193.168 542.662 193.084 542.662 192.938V192.541C542.662 192.395 542.599 192.311 542.432 192.311H542.286ZM543.414 193.982V192.645C543.414 192.207 543.623 191.915 544.103 191.915C544.583 191.915 544.813 192.228 544.813 192.645V193.982C544.813 194.4 544.604 194.713 544.103 194.713C543.623 194.713 543.414 194.4 543.414 193.982ZM544.354 194.045V192.562C544.354 192.395 544.291 192.27 544.124 192.27C543.957 192.27 543.894 192.395 543.894 192.562V194.045C543.894 194.212 543.957 194.337 544.124 194.337C544.27 194.337 544.354 194.212 544.354 194.045ZM545.502 192.959V194.692H545.105V191.956H545.565L546.066 193.523V191.956H546.442V194.692H546.045L545.502 192.959ZM547.465 193.23H548.112V194.692H547.778V194.4C547.716 194.608 547.59 194.734 547.34 194.734C546.943 194.734 546.755 194.421 546.755 194.003V192.666C546.755 192.228 546.964 191.935 547.444 191.935C547.945 191.935 548.112 192.228 548.112 192.625V192.875H547.695V192.604C547.695 192.437 547.632 192.332 547.465 192.332C547.298 192.332 547.235 192.458 547.235 192.625V194.107C547.235 194.274 547.298 194.4 547.465 194.4C547.611 194.4 547.695 194.316 547.695 194.128V193.585H547.486V193.23H547.465Z" fill="white"/>
<path d="M533.349 195.883H533.808V198.619H533.349V195.883ZM534.518 196.906V198.64H534.142V195.883H534.602L535.103 197.449V195.883H535.479V198.619H535.082L534.518 196.906ZM535.75 198.034V197.658H536.189V198.034C536.189 198.18 536.251 198.285 536.418 198.285C536.565 198.285 536.627 198.18 536.627 198.034V197.93C536.627 197.763 536.565 197.679 536.418 197.533L536.147 197.261C535.875 197.011 535.771 196.844 535.771 196.53V196.447C535.771 196.113 535.98 195.841 536.418 195.841C536.878 195.841 537.066 196.071 537.066 196.468V196.698H536.648V196.468C536.648 196.301 536.585 196.238 536.439 196.238C536.314 196.238 536.23 196.301 536.23 196.468V196.53C536.23 196.677 536.314 196.781 536.439 196.906L536.732 197.199C536.982 197.449 537.108 197.616 537.108 197.909V198.034C537.108 198.41 536.899 198.681 536.439 198.681C535.938 198.661 535.75 198.389 535.75 198.034ZM537.254 195.883H538.486V196.259H538.11V198.619H537.651V196.259H537.275L537.254 195.883ZM538.736 195.883H539.196V198.619H538.736V195.883ZM539.446 195.883H540.679V196.259H540.303V198.619H539.843V196.259H539.467V195.883H539.446ZM542.266 195.883V197.95C542.266 198.368 542.078 198.661 541.618 198.661C541.138 198.661 540.929 198.389 540.929 197.95V195.883H541.389V198.013C541.389 198.18 541.451 198.285 541.618 198.285C541.785 198.285 541.848 198.18 541.848 198.013V195.883H542.266ZM542.516 195.883H543.748V196.259H543.372V198.619H542.913V196.259H542.537V195.883H542.516ZM543.999 195.883H544.458V198.619H543.999V195.883ZM544.772 197.909V196.572C544.772 196.134 544.98 195.841 545.461 195.841C545.941 195.841 546.171 196.155 546.171 196.572V197.909C546.171 198.326 545.962 198.64 545.461 198.64C544.98 198.661 544.772 198.347 544.772 197.909ZM545.711 197.992V196.51C545.711 196.342 545.649 196.217 545.482 196.217C545.314 196.217 545.252 196.342 545.252 196.51V197.992C545.252 198.159 545.314 198.285 545.482 198.285C545.628 198.264 545.711 198.159 545.711 197.992ZM546.86 196.906V198.64H546.463V195.883H546.922L547.424 197.449V195.883H547.8V198.619H547.403L546.86 196.906ZM548.092 198.034V197.658H548.53V198.034C548.53 198.18 548.593 198.285 548.76 198.285C548.906 198.285 548.969 198.18 548.969 198.034V197.93C548.969 197.763 548.906 197.679 548.76 197.533L548.489 197.261C548.217 197.011 548.113 196.844 548.113 196.53V196.447C548.113 196.113 548.322 195.841 548.76 195.841C549.22 195.841 549.408 196.071 549.408 196.468V196.698H548.99V196.468C548.99 196.301 548.927 196.238 548.781 196.238C548.656 196.238 548.572 196.301 548.572 196.468V196.53C548.572 196.677 548.656 196.781 548.781 196.906L549.073 197.199C549.324 197.449 549.449 197.616 549.449 197.909V198.034C549.449 198.41 549.24 198.681 548.781 198.681C548.28 198.661 548.092 198.389 548.092 198.034Z" fill="white"/>
<path d="M544.331 201.542C544.331 201.542 544.039 201.918 544.122 202.294C544.206 202.669 544.624 202.878 544.624 202.878C544.624 202.878 544.916 202.502 544.832 202.127C544.749 201.751 544.331 201.542 544.331 201.542ZM543.872 203.672C543.872 203.672 544.164 203.296 544.081 202.92C543.997 202.544 543.579 202.335 543.579 202.335C543.579 202.335 543.287 202.711 543.371 203.066C543.454 203.463 543.872 203.672 543.872 203.672ZM545.041 203.275C545.041 203.275 545.334 203.567 545.689 203.547C546.023 203.526 546.273 203.171 546.273 203.171C546.273 203.171 545.981 202.878 545.626 202.899C545.292 202.92 545.041 203.275 545.041 203.275ZM545.522 201.667C545.25 201.939 545.292 202.44 545.292 202.44C545.292 202.44 545.772 202.482 546.065 202.21C546.336 201.939 546.294 201.437 546.294 201.437C546.294 201.437 545.793 201.396 545.522 201.667ZM544.916 204.403C545.25 204.445 545.563 204.152 545.563 204.152C545.563 204.152 545.334 203.797 545 203.755C544.665 203.714 544.352 204.006 544.352 204.006C544.352 204.006 544.582 204.361 544.916 204.403ZM545.208 210.271H542.682C542.494 210.271 542.327 210.438 542.327 210.626C542.327 210.814 542.494 210.981 542.682 210.981H545.208C545.396 210.981 545.563 210.814 545.563 210.626C545.584 210.438 545.417 210.271 545.208 210.271ZM545.208 214.239H542.682C542.494 214.239 542.327 214.406 542.327 214.594C542.327 214.782 542.494 214.949 542.682 214.949H545.208C545.396 214.949 545.563 214.782 545.563 214.594C545.584 214.385 545.417 214.239 545.208 214.239ZM533.827 209.415C533.765 209.394 533.702 209.373 533.66 209.373C533.66 209.373 533.723 209.394 533.827 209.415Z" fill="white"/>
<path d="M545.124 211.253H542.785C542.681 211.253 542.577 211.337 542.577 211.462V212.172L541.052 212.339L538.818 212.297V210.919C539.11 210.877 539.402 210.814 539.716 210.731C541.867 210.125 542.347 208.35 542.284 207.118C542.242 205.865 542.639 205.385 543.224 205.155C543.391 205.093 543.558 205.051 543.704 205.03C543.704 205.343 543.767 205.698 543.913 206.116C543.955 206.116 544.017 206.116 544.059 206.095C543.913 205.656 543.85 205.301 543.85 204.988C544.143 204.946 544.351 204.967 544.351 204.967C544.351 204.967 544.143 204.863 543.871 204.612C543.976 204.027 544.331 203.652 544.686 203.276C544.894 203.067 545.103 202.858 545.249 202.607L545.124 202.524C544.978 202.775 544.769 202.962 544.581 203.171C544.226 203.526 543.871 203.902 543.746 204.508C543.621 204.403 543.495 204.278 543.37 204.132C542.848 203.526 542.159 203.965 541.177 204.884C540.196 205.782 538.985 205.823 537.773 204.591C536.186 202.962 534.808 202.983 533.868 203.067C534.516 203.338 534.745 203.944 535.08 205.489C535.414 207.097 536.291 207.828 537.481 207.933C536.813 208.162 536.792 208.538 535.915 209.144C535.226 209.624 534.265 209.478 533.868 209.374C534.599 209.603 535.435 210.355 536.207 210.627C536.646 210.773 537.126 210.877 537.606 210.919V212.235L533.597 212.151V213.07L541.094 212.903L542.618 213.07V213.78C542.618 213.884 542.702 213.989 542.827 213.989H545.166C545.27 213.989 545.375 213.905 545.375 213.78V211.441C545.333 211.337 545.229 211.253 545.124 211.253ZM537.941 210.961C538.108 210.961 538.275 210.961 538.442 210.94V212.255L537.941 212.235V210.961ZM533.325 212.924C533.325 213.112 533.2 213.279 533.033 213.279H532.845C532.678 213.279 532.553 213.132 532.553 212.924V212.297C532.553 212.109 532.678 211.942 532.845 211.942H533.033C533.2 211.942 533.325 212.088 533.325 212.297V212.924Z" fill="white"/>
<path d="M639.133 160.905C641.352 160.905 643.15 159.107 643.15 156.889C643.15 154.671 641.352 152.873 639.133 152.873C636.915 152.873 635.117 154.671 635.117 156.889C635.117 159.107 636.915 160.905 639.133 160.905Z" fill="#19486A"/>
</svg>
